%TF.GenerationSoftware,KiCad,Pcbnew,8.0.5*%
%TF.CreationDate,2024-12-05T16:17:05-05:00*%
%TF.ProjectId,oe-commutator-controller,6f652d63-6f6d-46d7-9574-61746f722d63,F*%
%TF.SameCoordinates,Original*%
%TF.FileFunction,Copper,L2,Inr*%
%TF.FilePolarity,Positive*%
%FSLAX46Y46*%
G04 Gerber Fmt 4.6, Leading zero omitted, Abs format (unit mm)*
G04 Created by KiCad (PCBNEW 8.0.5) date 2024-12-05 16:17:05*
%MOMM*%
%LPD*%
G01*
G04 APERTURE LIST*
%TA.AperFunction,ViaPad*%
%ADD10C,0.500000*%
%TD*%
%TA.AperFunction,ViaPad*%
%ADD11C,0.900000*%
%TD*%
%TA.AperFunction,ViaPad*%
%ADD12C,0.800000*%
%TD*%
%TA.AperFunction,Conductor*%
%ADD13C,0.250000*%
%TD*%
%TA.AperFunction,Conductor*%
%ADD14C,0.200000*%
%TD*%
%TA.AperFunction,Conductor*%
%ADD15C,1.000000*%
%TD*%
%TA.AperFunction,Conductor*%
%ADD16C,0.400000*%
%TD*%
%TA.AperFunction,Conductor*%
%ADD17C,0.500000*%
%TD*%
G04 APERTURE END LIST*
D10*
%TO.N,/Touch Sensors/CW*%
X127150000Y-75150000D03*
%TO.N,GND*%
X128100000Y-74200000D03*
X105000000Y-98700000D03*
X106800000Y-92300000D03*
D11*
X135000000Y-115000000D03*
X140000000Y-120000000D03*
D10*
X129000000Y-78400000D03*
%TO.N,/Touch Sensors/CCW*%
X109954819Y-77800000D03*
%TO.N,GND*%
X120350000Y-59207864D03*
X112700000Y-101200000D03*
X136800000Y-75200000D03*
X115000000Y-123250000D03*
X140700000Y-85400000D03*
X122500000Y-141000000D03*
X137700000Y-99000000D03*
X115200000Y-66200000D03*
X109400000Y-82500000D03*
X136800000Y-67700000D03*
X115900000Y-124750000D03*
X138800000Y-59800000D03*
X107000000Y-108700000D03*
X113700000Y-134100000D03*
X118400000Y-125500000D03*
X116600000Y-92700000D03*
X114600000Y-93500000D03*
X131200000Y-140500000D03*
X105000000Y-128000000D03*
X106100000Y-79550000D03*
X132800000Y-106600000D03*
X141300000Y-79000000D03*
X115000000Y-122500000D03*
X116000000Y-79000000D03*
X139300000Y-141400000D03*
X137175000Y-92392525D03*
X123600000Y-93500000D03*
X113400000Y-78000000D03*
X103700000Y-68400000D03*
X134000000Y-143500000D03*
X132800000Y-109500000D03*
X124100000Y-116200000D03*
X140800000Y-82800000D03*
X117800000Y-91700000D03*
X119900000Y-85400000D03*
X117500000Y-125500000D03*
X125000000Y-142000000D03*
X118000000Y-138000000D03*
X139100000Y-65000000D03*
X139600000Y-72600000D03*
X116700000Y-125500000D03*
X115000000Y-124000000D03*
X137600000Y-60800000D03*
X139500000Y-85400000D03*
X134200000Y-59800000D03*
X111500000Y-113750000D03*
X118400000Y-124000000D03*
X123750000Y-82350000D03*
X128800000Y-59200000D03*
X139300000Y-112700000D03*
X106900000Y-123750000D03*
X108670000Y-79600000D03*
X115900000Y-123250000D03*
X106900000Y-78800000D03*
X132500000Y-70600000D03*
X115400000Y-86600000D03*
X116700000Y-124750000D03*
X139500000Y-82800000D03*
X131300000Y-99900000D03*
X134200000Y-60600000D03*
X132000000Y-56000000D03*
X115000000Y-124750000D03*
X121200000Y-130000000D03*
X127800000Y-62300000D03*
X112161091Y-119061091D03*
X136900000Y-85400000D03*
X115900000Y-124000000D03*
X104000000Y-140400000D03*
X114700000Y-80300000D03*
X114800000Y-62500000D03*
X133400000Y-59800000D03*
X132100000Y-71300000D03*
X106100000Y-73700000D03*
X138600000Y-98150000D03*
X112500000Y-93200000D03*
X107750000Y-113750000D03*
X140100000Y-141400000D03*
X110300000Y-89200000D03*
X139150000Y-79000000D03*
X108750000Y-113750000D03*
X133500000Y-133700000D03*
X123100000Y-76100000D03*
X136800000Y-99000000D03*
X108300000Y-84500000D03*
X135550000Y-59900000D03*
X127000000Y-67500000D03*
X123500000Y-79400000D03*
X106800000Y-81100000D03*
X134000000Y-147000000D03*
X111100000Y-127000000D03*
X114200000Y-105100000D03*
D11*
X135200000Y-128500000D03*
D10*
X126000000Y-142000000D03*
X134000000Y-108000000D03*
X111550000Y-75900000D03*
X108200000Y-81000000D03*
X105600000Y-126200000D03*
X123650000Y-130050000D03*
X111000000Y-88200000D03*
X115900000Y-95900000D03*
X117500000Y-122500000D03*
X126000000Y-89300000D03*
X110650000Y-101100000D03*
X125700000Y-119100000D03*
X109250000Y-69800000D03*
X141500000Y-110500000D03*
X122400000Y-131050000D03*
X115961091Y-119861091D03*
X115000000Y-138000000D03*
X113700000Y-69650000D03*
X117500000Y-123250000D03*
X113600000Y-119550000D03*
X140800000Y-75200000D03*
X103000000Y-88000000D03*
X118400000Y-122500000D03*
X115900000Y-125500000D03*
X122000000Y-94000000D03*
X138600000Y-99000000D03*
X134800000Y-69300000D03*
X116700000Y-132650000D03*
X111000000Y-135000000D03*
X117500000Y-124750000D03*
X125400000Y-125150000D03*
X127700000Y-135650000D03*
X140800000Y-72600000D03*
X128000000Y-127400000D03*
X136800000Y-98150000D03*
X137700000Y-98150000D03*
X104000000Y-143000000D03*
X142300000Y-97800000D03*
X119500000Y-82600000D03*
X121000000Y-142000000D03*
X113000000Y-147000000D03*
X138100000Y-146000000D03*
X111000000Y-69787500D03*
X122500000Y-119100000D03*
X114800000Y-61600000D03*
X112750000Y-69750000D03*
X120650000Y-94872183D03*
X137800000Y-67675000D03*
X119600000Y-121600000D03*
X113700000Y-121000000D03*
X133600000Y-82200000D03*
X122550000Y-126750000D03*
X135000000Y-101000000D03*
X136300000Y-59900000D03*
X136800000Y-72600000D03*
X122000000Y-102000000D03*
X118900000Y-85400000D03*
X109100000Y-123500000D03*
X128400000Y-141550000D03*
X128000000Y-88800000D03*
X132600000Y-60600000D03*
X111100000Y-144900000D03*
X123561091Y-101961091D03*
X112000000Y-105700000D03*
X107900000Y-64500000D03*
X136950000Y-138200000D03*
X136300000Y-91400000D03*
X111200000Y-82900000D03*
X132400000Y-89500000D03*
X108000000Y-145300000D03*
D11*
X130000000Y-120000000D03*
D10*
X136900000Y-82900000D03*
X104700000Y-64600000D03*
X125750000Y-112250000D03*
X139500000Y-75200000D03*
X105900000Y-66200000D03*
X117600000Y-142000000D03*
X121600000Y-64300000D03*
X127000000Y-142000000D03*
X133400000Y-96100000D03*
X133900000Y-69100000D03*
X115900000Y-122500000D03*
X115000000Y-56000000D03*
X119950000Y-98100000D03*
X143181976Y-142961182D03*
X107400000Y-139500000D03*
X118400000Y-124750000D03*
X128400000Y-91000000D03*
X123750000Y-83400000D03*
X110000000Y-139500000D03*
X104850000Y-74800000D03*
X118400000Y-123250000D03*
X140900000Y-141400000D03*
X117500000Y-124000000D03*
X122400000Y-90400000D03*
X113700000Y-117800000D03*
X121100000Y-68700000D03*
X132350000Y-102550000D03*
X125700000Y-76100000D03*
X133400000Y-60600000D03*
X134850000Y-71500000D03*
X125000000Y-86400000D03*
X124300000Y-123750000D03*
X109000000Y-133000000D03*
X132600000Y-59800000D03*
X106300000Y-63300000D03*
X115000000Y-125500000D03*
X123650000Y-104100000D03*
X117200000Y-80200000D03*
X114800000Y-77800000D03*
X134775000Y-104100000D03*
X128400000Y-138450000D03*
X103700000Y-66200000D03*
X117200000Y-77800000D03*
X114100000Y-73400000D03*
X109600000Y-102100000D03*
X123750000Y-84400000D03*
X116700000Y-123250000D03*
X109500000Y-76600000D03*
X121800000Y-73200000D03*
X122200000Y-91800000D03*
X117400000Y-88700000D03*
X108300000Y-77500000D03*
X112100000Y-108700000D03*
X134450000Y-63100000D03*
X108400000Y-147300000D03*
X119100000Y-105000000D03*
X134600000Y-65600000D03*
X141500000Y-112700000D03*
X139300000Y-110500000D03*
X113000000Y-143500000D03*
X114100000Y-68850000D03*
X117000000Y-107500000D03*
X127300000Y-102000000D03*
X130700000Y-68300000D03*
X116700000Y-122500000D03*
X122900000Y-59200000D03*
X123500000Y-78400000D03*
X133800000Y-90500000D03*
X109500000Y-108700000D03*
X104900000Y-118700000D03*
X137300000Y-69900000D03*
X125600000Y-140500000D03*
X118000000Y-131700000D03*
X116700000Y-124000000D03*
D12*
%TO.N,+5V*%
X131437500Y-105537500D03*
X136400000Y-102100000D03*
D10*
%TO.N,+3.3V*%
X130601409Y-69823591D03*
X111900000Y-84800000D03*
D11*
X124000000Y-106000000D03*
X127050000Y-90000000D03*
D10*
X133000000Y-69971734D03*
D11*
X114640000Y-108000000D03*
D12*
X119763051Y-65208282D03*
D11*
X133910000Y-72300000D03*
D12*
X107844975Y-70144975D03*
X119400000Y-68200000D03*
D11*
X120900000Y-85400000D03*
D10*
X113500000Y-78900000D03*
%TO.N,Net-(U2-VREG_VOUT)*%
X113874998Y-79600000D03*
X118550002Y-78500000D03*
X118500000Y-80800000D03*
D11*
%TO.N,VBUS*%
X134475000Y-92070000D03*
X131900000Y-92130000D03*
X117180000Y-109000000D03*
X129000000Y-93000000D03*
X123700000Y-108300000D03*
X136000000Y-88000000D03*
%TO.N,Net-(U6-VMID)*%
X134400000Y-95058568D03*
X137148833Y-95058568D03*
D10*
%TO.N,Net-(J1-Pin_2)*%
X114500000Y-119000000D03*
X112300000Y-104000000D03*
X116000000Y-119000000D03*
X114100000Y-104000000D03*
%TO.N,Net-(J1-Pin_4)*%
X113659999Y-108000000D03*
X111950000Y-107650000D03*
%TO.N,/MCU/QSPI_{~{CS}}*%
X123700000Y-68000000D03*
X123500000Y-71600000D03*
%TO.N,/MCU/LTC44_{~{PFO}}*%
X138685000Y-95115000D03*
X138000000Y-91100000D03*
%TO.N,/MCU/IS31_{BM}*%
X115860000Y-73850000D03*
X119200000Y-70550000D03*
%TO.N,/MCU/IS31_{EN}*%
X121500000Y-71050000D03*
X116450000Y-74400000D03*
%TO.N,/Touch Sensors/CCW*%
X109205000Y-72250000D03*
%TO.N,/Touch Sensors/MODE*%
X114400000Y-65600000D03*
%TO.N,/Touch Sensors/CW*%
X125700000Y-68900000D03*
%TO.N,/Touch Sensors/STOP*%
X109000000Y-118700000D03*
%TO.N,/MCU/TMC_{~{CS}}*%
X122800000Y-91100000D03*
X124250000Y-92900000D03*
%TO.N,/MCU/SCLK*%
X122800000Y-89750000D03*
X124000000Y-90200000D03*
%TO.N,/MCU/TMC_{~{EN}}*%
X113400000Y-117100000D03*
X113875001Y-126797909D03*
D11*
%TO.N,+12V*%
X123000000Y-133100000D03*
X127000000Y-137000000D03*
D10*
%TO.N,/MCU/UART0_RX*%
X119100000Y-72400000D03*
X107700000Y-79400000D03*
%TO.N,/MCU/UART0_TX*%
X119900000Y-72400000D03*
X107900000Y-80300000D03*
%TO.N,GND*%
X114800000Y-63300000D03*
%TD*%
D13*
%TO.N,/Touch Sensors/CW*%
X127150000Y-70350000D02*
X125700000Y-68900000D01*
X127150000Y-75150000D02*
X127150000Y-70350000D01*
%TO.N,/Touch Sensors/CCW*%
X109954819Y-77800000D02*
X110425000Y-77329819D01*
X110425000Y-77329819D02*
X110425000Y-73470000D01*
X110425000Y-73470000D02*
X109205000Y-72250000D01*
D14*
%TO.N,/MCU/UART0_RX*%
X109427818Y-79580000D02*
X108897818Y-79050000D01*
X112400000Y-78600000D02*
X111420000Y-79580000D01*
X112400000Y-76834314D02*
X112400000Y-78600000D01*
X108050000Y-79050000D02*
X107700000Y-79400000D01*
X113234314Y-76000000D02*
X112400000Y-76834314D01*
X119100000Y-72400000D02*
X119100000Y-74584314D01*
X117684314Y-76000000D02*
X113234314Y-76000000D01*
X111420000Y-79580000D02*
X109427818Y-79580000D01*
X119100000Y-74584314D02*
X117684314Y-76000000D01*
X108897818Y-79050000D02*
X108050000Y-79050000D01*
%TO.N,/MCU/UART0_TX*%
X112800000Y-77000000D02*
X112800000Y-78800000D01*
X111300000Y-80300000D02*
X107900000Y-80300000D01*
X117850000Y-76400000D02*
X113400000Y-76400000D01*
X119900000Y-74350000D02*
X117850000Y-76400000D01*
X112800000Y-78800000D02*
X111300000Y-80300000D01*
X119900000Y-72400000D02*
X119900000Y-74350000D01*
X113400000Y-76400000D02*
X112800000Y-77000000D01*
%TO.N,/MCU/IS31_{EN}*%
X117600000Y-73250000D02*
X116450000Y-74400000D01*
X118700000Y-71300000D02*
X117600000Y-72400000D01*
X121250000Y-71300000D02*
X118700000Y-71300000D01*
X121500000Y-71050000D02*
X121250000Y-71300000D01*
X117600000Y-72400000D02*
X117600000Y-73250000D01*
%TO.N,/MCU/IS31_{BM}*%
X118800000Y-70550000D02*
X115860000Y-73490000D01*
X119200000Y-70550000D02*
X118800000Y-70550000D01*
X115860000Y-73490000D02*
X115860000Y-73850000D01*
%TO.N,/MCU/QSPI_{~{CS}}*%
X123255000Y-71355000D02*
X123500000Y-71600000D01*
X123255000Y-68445000D02*
X123255000Y-71355000D01*
X123700000Y-68000000D02*
X123255000Y-68445000D01*
D15*
%TO.N,+5V*%
X136400000Y-102100000D02*
X134875000Y-102100000D01*
X134875000Y-102100000D02*
X131437500Y-105537500D01*
D16*
%TO.N,+3.3V*%
X119763051Y-65208282D02*
X119400000Y-65571333D01*
D14*
X112900000Y-80700000D02*
X112100000Y-80700000D01*
D15*
X131350000Y-74860000D02*
X131350000Y-81106497D01*
D14*
X113100000Y-79300000D02*
X113100000Y-80500000D01*
D15*
X120900000Y-85400000D02*
X127050000Y-85400000D01*
D14*
X132851857Y-69823591D02*
X130601409Y-69823591D01*
D15*
X131350000Y-81106497D02*
X127906497Y-84550000D01*
D14*
X111900000Y-80900000D02*
X111900000Y-84300000D01*
X133000000Y-69971734D02*
X132851857Y-69823591D01*
X113500000Y-78900000D02*
X113100000Y-79300000D01*
X113100000Y-80500000D02*
X112900000Y-80700000D01*
D16*
X107844975Y-69235786D02*
X107844975Y-70144975D01*
D14*
X112100000Y-80700000D02*
X111900000Y-80900000D01*
D15*
X127050000Y-90000000D02*
X127050000Y-85400000D01*
X123800000Y-106200000D02*
X124000000Y-106000000D01*
X114640000Y-108000000D02*
X116440000Y-106200000D01*
D16*
X108905761Y-68175000D02*
X107844975Y-69235786D01*
D15*
X127900000Y-84550000D02*
X127050000Y-85400000D01*
X133910000Y-72300000D02*
X131350000Y-74860000D01*
D16*
X119400000Y-65571333D02*
X119400000Y-68200000D01*
D14*
X111900000Y-84800000D02*
X111900000Y-84300000D01*
D15*
X127906497Y-84550000D02*
X127900000Y-84550000D01*
D16*
X119400000Y-68200000D02*
X119375000Y-68175000D01*
D15*
X116440000Y-106200000D02*
X123800000Y-106200000D01*
D16*
X119375000Y-68175000D02*
X108905761Y-68175000D01*
D17*
%TO.N,Net-(U2-VREG_VOUT)*%
X118550002Y-78500000D02*
X118550002Y-80749998D01*
X116500000Y-80900000D02*
X115200000Y-79600000D01*
X118550002Y-80749998D02*
X118400000Y-80900000D01*
X115200000Y-79600000D02*
X113875000Y-79600000D01*
X118400000Y-80900000D02*
X116500000Y-80900000D01*
D15*
%TO.N,VBUS*%
X117880000Y-108300000D02*
X117180000Y-109000000D01*
X130070000Y-91930000D02*
X129000000Y-93000000D01*
X134475000Y-91870000D02*
X134475000Y-91781497D01*
X131900000Y-91930000D02*
X130070000Y-91930000D01*
X134475000Y-91781497D02*
X136000000Y-90256497D01*
X123700000Y-108300000D02*
X117880000Y-108300000D01*
X136000000Y-90256497D02*
X136000000Y-88000000D01*
%TO.N,Net-(U6-VMID)*%
X134400000Y-95058568D02*
X137148833Y-95058568D01*
D13*
%TO.N,Net-(J1-Pin_2)*%
X114500000Y-119000000D02*
X116000000Y-119000000D01*
D14*
X112300000Y-104000000D02*
X114100000Y-104000000D01*
%TO.N,Net-(J1-Pin_4)*%
X111950000Y-107650000D02*
X112300000Y-108000000D01*
X112300000Y-108000000D02*
X113659999Y-108000000D01*
%TO.N,/MCU/LTC44_{~{PFO}}*%
X138685000Y-91785000D02*
X138000000Y-91100000D01*
X138685000Y-95115000D02*
X138685000Y-91785000D01*
%TO.N,/MCU/TMC_{~{CS}}*%
X124250000Y-92900000D02*
X124250000Y-92550000D01*
X124250000Y-92550000D02*
X122800000Y-91100000D01*
%TO.N,/MCU/SCLK*%
X123550000Y-89750000D02*
X122800000Y-89750000D01*
X124000000Y-90200000D02*
X123550000Y-89750000D01*
%TO.N,/MCU/TMC_{~{EN}}*%
X113400000Y-117100000D02*
X113000000Y-117500000D01*
X113000000Y-125922908D02*
X113875001Y-126797909D01*
X113000000Y-117500000D02*
X113000000Y-125922908D01*
D15*
%TO.N,+12V*%
X123000000Y-133100000D02*
X126900000Y-137000000D01*
X126900000Y-137000000D02*
X127000000Y-137000000D01*
%TD*%
%TA.AperFunction,Conductor*%
%TO.N,GND*%
G36*
X108790530Y-79369407D02*
G01*
X108802343Y-79379496D01*
X109187358Y-79764511D01*
X109187357Y-79764511D01*
X109243307Y-79820460D01*
X109245259Y-79821958D01*
X109246256Y-79823409D01*
X109247895Y-79825048D01*
X109247591Y-79825351D01*
X109279915Y-79872382D01*
X109278314Y-79933547D01*
X109241066Y-79982088D01*
X109184992Y-79999500D01*
X108280925Y-79999500D01*
X108222734Y-79980593D01*
X108206105Y-79965330D01*
X108198049Y-79956033D01*
X108198048Y-79956032D01*
X108089073Y-79885998D01*
X108089070Y-79885996D01*
X108089069Y-79885996D01*
X108066208Y-79879283D01*
X108015702Y-79844749D01*
X107995140Y-79787122D01*
X108012378Y-79728415D01*
X108019276Y-79719468D01*
X108082882Y-79646063D01*
X108136697Y-79528226D01*
X108150042Y-79435411D01*
X108177038Y-79380504D01*
X108231152Y-79351950D01*
X108248034Y-79350500D01*
X108732339Y-79350500D01*
X108790530Y-79369407D01*
G37*
%TD.AperFunction*%
%TA.AperFunction,Conductor*%
G36*
X142094452Y-54519407D02*
G01*
X142130416Y-54568907D01*
X142130416Y-54630093D01*
X142094452Y-54679591D01*
X142002804Y-54746178D01*
X141957345Y-54779206D01*
X141779206Y-54957345D01*
X141631128Y-55161157D01*
X141516759Y-55385620D01*
X141438908Y-55625219D01*
X141399500Y-55874034D01*
X141399500Y-56125965D01*
X141438908Y-56374780D01*
X141438910Y-56374785D01*
X141516759Y-56614379D01*
X141631130Y-56838845D01*
X141779207Y-57042656D01*
X141957344Y-57220793D01*
X142161155Y-57368870D01*
X142385621Y-57483241D01*
X142625215Y-57561090D01*
X142625216Y-57561090D01*
X142625219Y-57561091D01*
X142874035Y-57600500D01*
X142874038Y-57600500D01*
X143125965Y-57600500D01*
X143374780Y-57561091D01*
X143374781Y-57561090D01*
X143374785Y-57561090D01*
X143614379Y-57483241D01*
X143838845Y-57368870D01*
X144042656Y-57220793D01*
X144220793Y-57042656D01*
X144320408Y-56905547D01*
X144369907Y-56869584D01*
X144431093Y-56869584D01*
X144480593Y-56905548D01*
X144499500Y-56963739D01*
X144499500Y-146036260D01*
X144480593Y-146094451D01*
X144431093Y-146130415D01*
X144369907Y-146130415D01*
X144320407Y-146094451D01*
X144301049Y-146067808D01*
X144220793Y-145957344D01*
X144042656Y-145779207D01*
X143838845Y-145631130D01*
X143838844Y-145631129D01*
X143838842Y-145631128D01*
X143614379Y-145516759D01*
X143374780Y-145438908D01*
X143125965Y-145399500D01*
X143125962Y-145399500D01*
X142874038Y-145399500D01*
X142874035Y-145399500D01*
X142625219Y-145438908D01*
X142385620Y-145516759D01*
X142161157Y-145631128D01*
X141957345Y-145779206D01*
X141779206Y-145957345D01*
X141631128Y-146161157D01*
X141516759Y-146385620D01*
X141438908Y-146625219D01*
X141399500Y-146874034D01*
X141399500Y-147125965D01*
X141438908Y-147374780D01*
X141438910Y-147374785D01*
X141516759Y-147614379D01*
X141631130Y-147838845D01*
X141779207Y-148042656D01*
X141957344Y-148220793D01*
X142094452Y-148320408D01*
X142130416Y-148369907D01*
X142130416Y-148431093D01*
X142094452Y-148480593D01*
X142036261Y-148499500D01*
X104963739Y-148499500D01*
X104905548Y-148480593D01*
X104869584Y-148431093D01*
X104869584Y-148369907D01*
X104905547Y-148320408D01*
X105042656Y-148220793D01*
X105220793Y-148042656D01*
X105368870Y-147838845D01*
X105483241Y-147614379D01*
X105561090Y-147374785D01*
X105600500Y-147125962D01*
X105600500Y-146874038D01*
X105600500Y-146874034D01*
X105561091Y-146625219D01*
X105561090Y-146625215D01*
X105483241Y-146385621D01*
X105368870Y-146161155D01*
X105220793Y-145957344D01*
X105042656Y-145779207D01*
X104838845Y-145631130D01*
X104838844Y-145631129D01*
X104838842Y-145631128D01*
X104614379Y-145516759D01*
X104374780Y-145438908D01*
X104125965Y-145399500D01*
X104125962Y-145399500D01*
X103874038Y-145399500D01*
X103874035Y-145399500D01*
X103625219Y-145438908D01*
X103385620Y-145516759D01*
X103161157Y-145631128D01*
X102957345Y-145779206D01*
X102779206Y-145957345D01*
X102679593Y-146094451D01*
X102630092Y-146130415D01*
X102568907Y-146130415D01*
X102519407Y-146094451D01*
X102500500Y-146036260D01*
X102500500Y-133031003D01*
X122299500Y-133031003D01*
X122299500Y-133168996D01*
X122326420Y-133304327D01*
X122326420Y-133304329D01*
X122379223Y-133431808D01*
X122379224Y-133431810D01*
X122379225Y-133431811D01*
X122455886Y-133546543D01*
X126453457Y-137544114D01*
X126568189Y-137620775D01*
X126568190Y-137620775D01*
X126568191Y-137620776D01*
X126597070Y-137632738D01*
X126695672Y-137673580D01*
X126831006Y-137700500D01*
X126831007Y-137700500D01*
X127068992Y-137700500D01*
X127068993Y-137700500D01*
X127204328Y-137673580D01*
X127331811Y-137620775D01*
X127446542Y-137544114D01*
X127544114Y-137446542D01*
X127620775Y-137331811D01*
X127673580Y-137204328D01*
X127700500Y-137068993D01*
X127700500Y-136931007D01*
X127673580Y-136795672D01*
X127620775Y-136668189D01*
X127620774Y-136668187D01*
X127620771Y-136668182D01*
X127544114Y-136553458D01*
X127446545Y-136455889D01*
X127446542Y-136455886D01*
X127331811Y-136379225D01*
X127331812Y-136379225D01*
X127331810Y-136379224D01*
X127244285Y-136342970D01*
X127212167Y-136321510D01*
X123446543Y-132555886D01*
X123331811Y-132479225D01*
X123331810Y-132479224D01*
X123331808Y-132479223D01*
X123204328Y-132426420D01*
X123068996Y-132399500D01*
X123068994Y-132399500D01*
X122931006Y-132399500D01*
X122931003Y-132399500D01*
X122795672Y-132426420D01*
X122795670Y-132426420D01*
X122668191Y-132479223D01*
X122553460Y-132555883D01*
X122455883Y-132653460D01*
X122379223Y-132768191D01*
X122326420Y-132895670D01*
X122326420Y-132895672D01*
X122299500Y-133031003D01*
X102500500Y-133031003D01*
X102500500Y-118699995D01*
X108244751Y-118699995D01*
X108244751Y-118700004D01*
X108263685Y-118868053D01*
X108263688Y-118868065D01*
X108319544Y-119027690D01*
X108319544Y-119027691D01*
X108382715Y-119128226D01*
X108409523Y-119170890D01*
X108529110Y-119290477D01*
X108672310Y-119380456D01*
X108736232Y-119402823D01*
X108831934Y-119436311D01*
X108831938Y-119436312D01*
X108831941Y-119436313D01*
X108831942Y-119436313D01*
X108831946Y-119436314D01*
X108999996Y-119455249D01*
X109000000Y-119455249D01*
X109000004Y-119455249D01*
X109168053Y-119436314D01*
X109168055Y-119436313D01*
X109168059Y-119436313D01*
X109327690Y-119380456D01*
X109470890Y-119290477D01*
X109590477Y-119170890D01*
X109680456Y-119027690D01*
X109736313Y-118868059D01*
X109755249Y-118700000D01*
X109755249Y-118699995D01*
X109736314Y-118531946D01*
X109736311Y-118531934D01*
X109713480Y-118466690D01*
X109680456Y-118372310D01*
X109590477Y-118229110D01*
X109470890Y-118109523D01*
X109470887Y-118109521D01*
X109470886Y-118109520D01*
X109327691Y-118019544D01*
X109168065Y-117963688D01*
X109168053Y-117963685D01*
X109000004Y-117944751D01*
X108999996Y-117944751D01*
X108831946Y-117963685D01*
X108831934Y-117963688D01*
X108672309Y-118019544D01*
X108672308Y-118019544D01*
X108529113Y-118109520D01*
X108409520Y-118229113D01*
X108319544Y-118372308D01*
X108319544Y-118372309D01*
X108263688Y-118531934D01*
X108263685Y-118531946D01*
X108244751Y-118699995D01*
X102500500Y-118699995D01*
X102500500Y-117460435D01*
X112699500Y-117460435D01*
X112699500Y-125962472D01*
X112719978Y-126038896D01*
X112719980Y-126038900D01*
X112759538Y-126107416D01*
X112759540Y-126107419D01*
X113106061Y-126453940D01*
X113391504Y-126739383D01*
X113419281Y-126793900D01*
X113419492Y-126795298D01*
X113438303Y-126926134D01*
X113492118Y-127043970D01*
X113492119Y-127043972D01*
X113576952Y-127141876D01*
X113576953Y-127141877D01*
X113685927Y-127211910D01*
X113685932Y-127211913D01*
X113810229Y-127248409D01*
X113810231Y-127248409D01*
X113939771Y-127248409D01*
X113939773Y-127248409D01*
X114064070Y-127211913D01*
X114173050Y-127141876D01*
X114257883Y-127043972D01*
X114311698Y-126926135D01*
X114330134Y-126797909D01*
X114326342Y-126771538D01*
X114311698Y-126669683D01*
X114257883Y-126551847D01*
X114257883Y-126551846D01*
X114173050Y-126453942D01*
X114173049Y-126453941D01*
X114173048Y-126453940D01*
X114064074Y-126383907D01*
X114064071Y-126383905D01*
X114064070Y-126383905D01*
X114064067Y-126383904D01*
X113939775Y-126347409D01*
X113939773Y-126347409D01*
X113890480Y-126347409D01*
X113832289Y-126328502D01*
X113820476Y-126318413D01*
X113329496Y-125827433D01*
X113301719Y-125772916D01*
X113300500Y-125757429D01*
X113300500Y-118999997D01*
X114044867Y-118999997D01*
X114044867Y-119000002D01*
X114063302Y-119128225D01*
X114082785Y-119170886D01*
X114117118Y-119246063D01*
X114199567Y-119341216D01*
X114201952Y-119343968D01*
X114258729Y-119380456D01*
X114310931Y-119414004D01*
X114435228Y-119450500D01*
X114435230Y-119450500D01*
X114564770Y-119450500D01*
X114564772Y-119450500D01*
X114689069Y-119414004D01*
X114763495Y-119366173D01*
X114802330Y-119341216D01*
X114855853Y-119325500D01*
X115644147Y-119325500D01*
X115697670Y-119341216D01*
X115758729Y-119380456D01*
X115810931Y-119414004D01*
X115935228Y-119450500D01*
X115935230Y-119450500D01*
X116064770Y-119450500D01*
X116064772Y-119450500D01*
X116189069Y-119414004D01*
X116298049Y-119343967D01*
X116382882Y-119246063D01*
X116436697Y-119128226D01*
X116455133Y-119000000D01*
X116436697Y-118871774D01*
X116382882Y-118753937D01*
X116298049Y-118656033D01*
X116298048Y-118656032D01*
X116298047Y-118656031D01*
X116189073Y-118585998D01*
X116189070Y-118585996D01*
X116189069Y-118585996D01*
X116189066Y-118585995D01*
X116064774Y-118549500D01*
X116064772Y-118549500D01*
X115935228Y-118549500D01*
X115935225Y-118549500D01*
X115810933Y-118585995D01*
X115810926Y-118585998D01*
X115697670Y-118658784D01*
X115644147Y-118674500D01*
X114855853Y-118674500D01*
X114802330Y-118658784D01*
X114689073Y-118585998D01*
X114689070Y-118585996D01*
X114689069Y-118585996D01*
X114689066Y-118585995D01*
X114564774Y-118549500D01*
X114564772Y-118549500D01*
X114435228Y-118549500D01*
X114435225Y-118549500D01*
X114310933Y-118585995D01*
X114310926Y-118585998D01*
X114201952Y-118656031D01*
X114117117Y-118753938D01*
X114063302Y-118871774D01*
X114044867Y-118999997D01*
X113300500Y-118999997D01*
X113300500Y-117665479D01*
X113319407Y-117607288D01*
X113329496Y-117595475D01*
X113345475Y-117579496D01*
X113399992Y-117551719D01*
X113415479Y-117550500D01*
X113464770Y-117550500D01*
X113464772Y-117550500D01*
X113589069Y-117514004D01*
X113698049Y-117443967D01*
X113782882Y-117346063D01*
X113836697Y-117228226D01*
X113855133Y-117100000D01*
X113836697Y-116971774D01*
X113782882Y-116853937D01*
X113698049Y-116756033D01*
X113698048Y-116756032D01*
X113698047Y-116756031D01*
X113589073Y-116685998D01*
X113589070Y-116685996D01*
X113589069Y-116685996D01*
X113589066Y-116685995D01*
X113464774Y-116649500D01*
X113464772Y-116649500D01*
X113335228Y-116649500D01*
X113335225Y-116649500D01*
X113210933Y-116685995D01*
X113210926Y-116685998D01*
X113101952Y-116756031D01*
X113017117Y-116853938D01*
X112963302Y-116971774D01*
X112944491Y-117102611D01*
X112917495Y-117157519D01*
X112916553Y-117158475D01*
X112815489Y-117259540D01*
X112815488Y-117259539D01*
X112759539Y-117315489D01*
X112719980Y-117384007D01*
X112719978Y-117384011D01*
X112699500Y-117460435D01*
X102500500Y-117460435D01*
X102500500Y-108931003D01*
X116479500Y-108931003D01*
X116479500Y-109068996D01*
X116506420Y-109204327D01*
X116506420Y-109204329D01*
X116559223Y-109331808D01*
X116559224Y-109331810D01*
X116559225Y-109331811D01*
X116635886Y-109446543D01*
X116733457Y-109544114D01*
X116848189Y-109620775D01*
X116975672Y-109673580D01*
X117111006Y-109700500D01*
X117111007Y-109700500D01*
X117248993Y-109700500D01*
X117248994Y-109700500D01*
X117384328Y-109673580D01*
X117511811Y-109620775D01*
X117626543Y-109544114D01*
X118141160Y-109029495D01*
X118195677Y-109001719D01*
X118211164Y-109000500D01*
X123768992Y-109000500D01*
X123768993Y-109000500D01*
X123904328Y-108973580D01*
X124031811Y-108920775D01*
X124146542Y-108844114D01*
X124244114Y-108746542D01*
X124320775Y-108631811D01*
X124373580Y-108504328D01*
X124400500Y-108368993D01*
X124400500Y-108231007D01*
X124373580Y-108095672D01*
X124320775Y-107968189D01*
X124320774Y-107968187D01*
X124320771Y-107968182D01*
X124244114Y-107853458D01*
X124146541Y-107755885D01*
X124031817Y-107679228D01*
X124031806Y-107679222D01*
X123904328Y-107626420D01*
X123768995Y-107599500D01*
X123768993Y-107599500D01*
X117811007Y-107599500D01*
X117811004Y-107599500D01*
X117718721Y-107617857D01*
X117675669Y-107626420D01*
X117675666Y-107626421D01*
X117622866Y-107648292D01*
X117548191Y-107679223D01*
X117477249Y-107726626D01*
X117477248Y-107726627D01*
X117433457Y-107755886D01*
X116635890Y-108553451D01*
X116635885Y-108553457D01*
X116559223Y-108668191D01*
X116506420Y-108795670D01*
X116506420Y-108795672D01*
X116479500Y-108931003D01*
X102500500Y-108931003D01*
X102500500Y-107649997D01*
X111494867Y-107649997D01*
X111494867Y-107650002D01*
X111513302Y-107778225D01*
X111567117Y-107896061D01*
X111567118Y-107896063D01*
X111629609Y-107968182D01*
X111651952Y-107993968D01*
X111760926Y-108064001D01*
X111760931Y-108064004D01*
X111885228Y-108100500D01*
X111934521Y-108100500D01*
X111992712Y-108119407D01*
X112004524Y-108129496D01*
X112115488Y-108240459D01*
X112115493Y-108240463D01*
X112184008Y-108280020D01*
X112184006Y-108280020D01*
X112184010Y-108280021D01*
X112184012Y-108280022D01*
X112260438Y-108300500D01*
X113279074Y-108300500D01*
X113337265Y-108319407D01*
X113353894Y-108334670D01*
X113361950Y-108343967D01*
X113470930Y-108414004D01*
X113595227Y-108450500D01*
X113595229Y-108450500D01*
X113724769Y-108450500D01*
X113724771Y-108450500D01*
X113849068Y-108414004D01*
X113924720Y-108365384D01*
X113983892Y-108349831D01*
X114040909Y-108372029D01*
X114060556Y-108393668D01*
X114095886Y-108446543D01*
X114193457Y-108544114D01*
X114308189Y-108620775D01*
X114435672Y-108673580D01*
X114571006Y-108700500D01*
X114571007Y-108700500D01*
X114708993Y-108700500D01*
X114708994Y-108700500D01*
X114844328Y-108673580D01*
X114971811Y-108620775D01*
X115086543Y-108544114D01*
X116701160Y-106929495D01*
X116755677Y-106901719D01*
X116771164Y-106900500D01*
X123868993Y-106900500D01*
X123868994Y-106900500D01*
X124004328Y-106873580D01*
X124131811Y-106820775D01*
X124246543Y-106744114D01*
X124544114Y-106446543D01*
X124620775Y-106331811D01*
X124673580Y-106204328D01*
X124700500Y-106068994D01*
X124700500Y-105931006D01*
X124673580Y-105795671D01*
X124620775Y-105668189D01*
X124544114Y-105553457D01*
X124459160Y-105468503D01*
X130737000Y-105468503D01*
X130737000Y-105606496D01*
X130763920Y-105741827D01*
X130763920Y-105741829D01*
X130816723Y-105869308D01*
X130816724Y-105869310D01*
X130816725Y-105869311D01*
X130893386Y-105984043D01*
X130990957Y-106081614D01*
X131105689Y-106158275D01*
X131233172Y-106211080D01*
X131368506Y-106238000D01*
X131368507Y-106238000D01*
X131506493Y-106238000D01*
X131506494Y-106238000D01*
X131641828Y-106211080D01*
X131769311Y-106158275D01*
X131884043Y-106081614D01*
X135136161Y-102829496D01*
X135190678Y-102801719D01*
X135206165Y-102800500D01*
X136468992Y-102800500D01*
X136468993Y-102800500D01*
X136604328Y-102773580D01*
X136731811Y-102720775D01*
X136846542Y-102644114D01*
X136944114Y-102546542D01*
X137020775Y-102431811D01*
X137073580Y-102304328D01*
X137100500Y-102168993D01*
X137100500Y-102031007D01*
X137073580Y-101895672D01*
X137020775Y-101768189D01*
X137020774Y-101768187D01*
X137020771Y-101768182D01*
X136944114Y-101653458D01*
X136846541Y-101555885D01*
X136731817Y-101479228D01*
X136731806Y-101479222D01*
X136604328Y-101426420D01*
X136468995Y-101399500D01*
X136468993Y-101399500D01*
X134806007Y-101399500D01*
X134806004Y-101399500D01*
X134670672Y-101426420D01*
X134670670Y-101426420D01*
X134543191Y-101479223D01*
X134428460Y-101555883D01*
X130893383Y-105090960D01*
X130816723Y-105205691D01*
X130763920Y-105333170D01*
X130763920Y-105333172D01*
X130737000Y-105468503D01*
X124459160Y-105468503D01*
X124446543Y-105455886D01*
X124331811Y-105379225D01*
X124331810Y-105379224D01*
X124331808Y-105379223D01*
X124204329Y-105326420D01*
X124068996Y-105299500D01*
X124068994Y-105299500D01*
X123931006Y-105299500D01*
X123931003Y-105299500D01*
X123795672Y-105326420D01*
X123795670Y-105326420D01*
X123668191Y-105379223D01*
X123553460Y-105455883D01*
X123553457Y-105455885D01*
X123553457Y-105455886D01*
X123538837Y-105470505D01*
X123484323Y-105498281D01*
X123468836Y-105499500D01*
X116371004Y-105499500D01*
X116262591Y-105521064D01*
X116262591Y-105521065D01*
X116249131Y-105523742D01*
X116235670Y-105526420D01*
X116208922Y-105537500D01*
X116108189Y-105579224D01*
X116050374Y-105617856D01*
X115993458Y-105655886D01*
X114095882Y-107553461D01*
X114060556Y-107606331D01*
X114012506Y-107644210D01*
X113951368Y-107646612D01*
X113924718Y-107634613D01*
X113849072Y-107585998D01*
X113849069Y-107585996D01*
X113849068Y-107585996D01*
X113849065Y-107585995D01*
X113724773Y-107549500D01*
X113724771Y-107549500D01*
X113595227Y-107549500D01*
X113595224Y-107549500D01*
X113470932Y-107585995D01*
X113470925Y-107585998D01*
X113361950Y-107656032D01*
X113361949Y-107656033D01*
X113353894Y-107665330D01*
X113301499Y-107696927D01*
X113279074Y-107699500D01*
X112498034Y-107699500D01*
X112439843Y-107680593D01*
X112403879Y-107631093D01*
X112400042Y-107614589D01*
X112386697Y-107521774D01*
X112332882Y-107403938D01*
X112332882Y-107403937D01*
X112248049Y-107306033D01*
X112248048Y-107306032D01*
X112248047Y-107306031D01*
X112139073Y-107235998D01*
X112139070Y-107235996D01*
X112139069Y-107235996D01*
X112139066Y-107235995D01*
X112014774Y-107199500D01*
X112014772Y-107199500D01*
X111885228Y-107199500D01*
X111885225Y-107199500D01*
X111760933Y-107235995D01*
X111760926Y-107235998D01*
X111651952Y-107306031D01*
X111567117Y-107403938D01*
X111513302Y-107521774D01*
X111494867Y-107649997D01*
X102500500Y-107649997D01*
X102500500Y-103999997D01*
X111844867Y-103999997D01*
X111844867Y-104000002D01*
X111863302Y-104128225D01*
X111917117Y-104246061D01*
X111917118Y-104246063D01*
X111966517Y-104303073D01*
X112001952Y-104343968D01*
X112110926Y-104414001D01*
X112110931Y-104414004D01*
X112235228Y-104450500D01*
X112235230Y-104450500D01*
X112364770Y-104450500D01*
X112364772Y-104450500D01*
X112489069Y-104414004D01*
X112598049Y-104343967D01*
X112606105Y-104334670D01*
X112658500Y-104303073D01*
X112680925Y-104300500D01*
X113719075Y-104300500D01*
X113777266Y-104319407D01*
X113793895Y-104334670D01*
X113801951Y-104343967D01*
X113910931Y-104414004D01*
X114035228Y-104450500D01*
X114035230Y-104450500D01*
X114164770Y-104450500D01*
X114164772Y-104450500D01*
X114289069Y-104414004D01*
X114398049Y-104343967D01*
X114482882Y-104246063D01*
X114536697Y-104128226D01*
X114555133Y-104000000D01*
X114536697Y-103871774D01*
X114482882Y-103753937D01*
X114398049Y-103656033D01*
X114398048Y-103656032D01*
X114398047Y-103656031D01*
X114289073Y-103585998D01*
X114289070Y-103585996D01*
X114289069Y-103585996D01*
X114289066Y-103585995D01*
X114164774Y-103549500D01*
X114164772Y-103549500D01*
X114035228Y-103549500D01*
X114035225Y-103549500D01*
X113910933Y-103585995D01*
X113910926Y-103585998D01*
X113801951Y-103656032D01*
X113801950Y-103656033D01*
X113793895Y-103665330D01*
X113741500Y-103696927D01*
X113719075Y-103699500D01*
X112680925Y-103699500D01*
X112622734Y-103680593D01*
X112606105Y-103665330D01*
X112598049Y-103656033D01*
X112598048Y-103656032D01*
X112489073Y-103585998D01*
X112489070Y-103585996D01*
X112489069Y-103585996D01*
X112489066Y-103585995D01*
X112364774Y-103549500D01*
X112364772Y-103549500D01*
X112235228Y-103549500D01*
X112235225Y-103549500D01*
X112110933Y-103585995D01*
X112110926Y-103585998D01*
X112001952Y-103656031D01*
X111917117Y-103753938D01*
X111863302Y-103871774D01*
X111844867Y-103999997D01*
X102500500Y-103999997D01*
X102500500Y-94989572D01*
X133699500Y-94989572D01*
X133699500Y-95127563D01*
X133726420Y-95262895D01*
X133726420Y-95262897D01*
X133779222Y-95390374D01*
X133779228Y-95390385D01*
X133855885Y-95505109D01*
X133953458Y-95602682D01*
X134068182Y-95679339D01*
X134068193Y-95679345D01*
X134115283Y-95698850D01*
X134195672Y-95732148D01*
X134331007Y-95759068D01*
X134331008Y-95759068D01*
X137217825Y-95759068D01*
X137217826Y-95759068D01*
X137353161Y-95732148D01*
X137480644Y-95679343D01*
X137595375Y-95602682D01*
X137692947Y-95505110D01*
X137769608Y-95390379D01*
X137822413Y-95262896D01*
X137849333Y-95127561D01*
X137849333Y-94989575D01*
X137822413Y-94854240D01*
X137789119Y-94773861D01*
X137769610Y-94726761D01*
X137769604Y-94726750D01*
X137692947Y-94612026D01*
X137595374Y-94514453D01*
X137480650Y-94437796D01*
X137480639Y-94437790D01*
X137353161Y-94384988D01*
X137217828Y-94358068D01*
X137217826Y-94358068D01*
X134331007Y-94358068D01*
X134331004Y-94358068D01*
X134195672Y-94384988D01*
X134195670Y-94384988D01*
X134068193Y-94437790D01*
X134068182Y-94437796D01*
X133953458Y-94514453D01*
X133855885Y-94612026D01*
X133779228Y-94726750D01*
X133779222Y-94726761D01*
X133726420Y-94854238D01*
X133726420Y-94854240D01*
X133699500Y-94989572D01*
X102500500Y-94989572D01*
X102500500Y-91099997D01*
X122344867Y-91099997D01*
X122344867Y-91100002D01*
X122363302Y-91228225D01*
X122412046Y-91334957D01*
X122417118Y-91346063D01*
X122501951Y-91443967D01*
X122501952Y-91443968D01*
X122510853Y-91449688D01*
X122610931Y-91514004D01*
X122735228Y-91550500D01*
X122784521Y-91550500D01*
X122842712Y-91569407D01*
X122854525Y-91579496D01*
X123837903Y-92562874D01*
X123865680Y-92617391D01*
X123857953Y-92674004D01*
X123813301Y-92771776D01*
X123794867Y-92899997D01*
X123794867Y-92900002D01*
X123813302Y-93028225D01*
X123831921Y-93068994D01*
X123867118Y-93146063D01*
X123917605Y-93204329D01*
X123951952Y-93243968D01*
X124060926Y-93314001D01*
X124060931Y-93314004D01*
X124185228Y-93350500D01*
X124185230Y-93350500D01*
X124314770Y-93350500D01*
X124314772Y-93350500D01*
X124439069Y-93314004D01*
X124548049Y-93243967D01*
X124632882Y-93146063D01*
X124686697Y-93028226D01*
X124700675Y-92931006D01*
X124700675Y-92931003D01*
X128299500Y-92931003D01*
X128299500Y-93068996D01*
X128326420Y-93204327D01*
X128326420Y-93204329D01*
X128379223Y-93331808D01*
X128391712Y-93350500D01*
X128455886Y-93446543D01*
X128553457Y-93544114D01*
X128668189Y-93620775D01*
X128795672Y-93673580D01*
X128931006Y-93700500D01*
X128931007Y-93700500D01*
X129068993Y-93700500D01*
X129068994Y-93700500D01*
X129204328Y-93673580D01*
X129331811Y-93620775D01*
X129446543Y-93544114D01*
X130331161Y-92659496D01*
X130385678Y-92631719D01*
X130401165Y-92630500D01*
X131446437Y-92630500D01*
X131504628Y-92649407D01*
X131512087Y-92655398D01*
X131527760Y-92669283D01*
X131667635Y-92742696D01*
X131821015Y-92780500D01*
X131821018Y-92780500D01*
X131978982Y-92780500D01*
X131978985Y-92780500D01*
X132132365Y-92742696D01*
X132272240Y-92669283D01*
X132390483Y-92564530D01*
X132480220Y-92434523D01*
X132536237Y-92286818D01*
X132545311Y-92212073D01*
X132552124Y-92186125D01*
X132573580Y-92134328D01*
X132600500Y-91998993D01*
X132600500Y-91861007D01*
X132573580Y-91725672D01*
X132568125Y-91712503D01*
X133774500Y-91712503D01*
X133774500Y-91938995D01*
X133801419Y-92074326D01*
X133801420Y-92074328D01*
X133822874Y-92126122D01*
X133829686Y-92152070D01*
X133838763Y-92226818D01*
X133861517Y-92286816D01*
X133894780Y-92374523D01*
X133984515Y-92504528D01*
X133984516Y-92504529D01*
X133984517Y-92504530D01*
X134102760Y-92609283D01*
X134242635Y-92682696D01*
X134396015Y-92720500D01*
X134396018Y-92720500D01*
X134553982Y-92720500D01*
X134553985Y-92720500D01*
X134707365Y-92682696D01*
X134847240Y-92609283D01*
X134965483Y-92504530D01*
X135055220Y-92374523D01*
X135111237Y-92226818D01*
X135119681Y-92157268D01*
X135145462Y-92101783D01*
X135147926Y-92099226D01*
X136147156Y-91099997D01*
X137544867Y-91099997D01*
X137544867Y-91100002D01*
X137563302Y-91228225D01*
X137612046Y-91334957D01*
X137617118Y-91346063D01*
X137701951Y-91443967D01*
X137701952Y-91443968D01*
X137710853Y-91449688D01*
X137810931Y-91514004D01*
X137935228Y-91550500D01*
X137984521Y-91550500D01*
X138042712Y-91569407D01*
X138054525Y-91579496D01*
X138355504Y-91880475D01*
X138383281Y-91934992D01*
X138384500Y-91950479D01*
X138384500Y-94736937D01*
X138365593Y-94795128D01*
X138360320Y-94801767D01*
X138302118Y-94868936D01*
X138302116Y-94868940D01*
X138248302Y-94986774D01*
X138229867Y-95114997D01*
X138229867Y-95115002D01*
X138248302Y-95243225D01*
X138302117Y-95361061D01*
X138302118Y-95361063D01*
X138386951Y-95458967D01*
X138386952Y-95458968D01*
X138458751Y-95505110D01*
X138495931Y-95529004D01*
X138620228Y-95565500D01*
X138620230Y-95565500D01*
X138749770Y-95565500D01*
X138749772Y-95565500D01*
X138874069Y-95529004D01*
X138983049Y-95458967D01*
X139067882Y-95361063D01*
X139121697Y-95243226D01*
X139138327Y-95127561D01*
X139140133Y-95115002D01*
X139140133Y-95114997D01*
X139121697Y-94986774D01*
X139067883Y-94868940D01*
X139067882Y-94868937D01*
X139009679Y-94801766D01*
X138985863Y-94745408D01*
X138985500Y-94736937D01*
X138985500Y-91745437D01*
X138985499Y-91745435D01*
X138980203Y-91725672D01*
X138965021Y-91669011D01*
X138925460Y-91600489D01*
X138902138Y-91577167D01*
X138869511Y-91544539D01*
X138869511Y-91544540D01*
X138483496Y-91158525D01*
X138455719Y-91104008D01*
X138455508Y-91102609D01*
X138455132Y-91099997D01*
X138453277Y-91087091D01*
X138436698Y-90971775D01*
X138382882Y-90853938D01*
X138382882Y-90853937D01*
X138298049Y-90756033D01*
X138298048Y-90756032D01*
X138298047Y-90756031D01*
X138189073Y-90685998D01*
X138189070Y-90685996D01*
X138189069Y-90685996D01*
X138189066Y-90685995D01*
X138064774Y-90649500D01*
X138064772Y-90649500D01*
X137935228Y-90649500D01*
X137935225Y-90649500D01*
X137810933Y-90685995D01*
X137810926Y-90685998D01*
X137701952Y-90756031D01*
X137617117Y-90853938D01*
X137563302Y-90971774D01*
X137544867Y-91099997D01*
X136147156Y-91099997D01*
X136544114Y-90703040D01*
X136620775Y-90588308D01*
X136673580Y-90460825D01*
X136700500Y-90325491D01*
X136700500Y-90187503D01*
X136700500Y-87931007D01*
X136673580Y-87795672D01*
X136620775Y-87668189D01*
X136620774Y-87668187D01*
X136620771Y-87668182D01*
X136544114Y-87553458D01*
X136446541Y-87455885D01*
X136331817Y-87379228D01*
X136331806Y-87379222D01*
X136204328Y-87326420D01*
X136068995Y-87299500D01*
X136068993Y-87299500D01*
X135931007Y-87299500D01*
X135931004Y-87299500D01*
X135795672Y-87326420D01*
X135795670Y-87326420D01*
X135668193Y-87379222D01*
X135668182Y-87379228D01*
X135553458Y-87455885D01*
X135455885Y-87553458D01*
X135379228Y-87668182D01*
X135379222Y-87668193D01*
X135326420Y-87795670D01*
X135326420Y-87795672D01*
X135299500Y-87931004D01*
X135299500Y-89925332D01*
X135280593Y-89983523D01*
X135270504Y-89995336D01*
X133930883Y-91334957D01*
X133854223Y-91449688D01*
X133801420Y-91577167D01*
X133801420Y-91577169D01*
X133779403Y-91687857D01*
X133774500Y-91712503D01*
X132568125Y-91712503D01*
X132520775Y-91598189D01*
X132520774Y-91598187D01*
X132520771Y-91598182D01*
X132444114Y-91483458D01*
X132346541Y-91385885D01*
X132231817Y-91309228D01*
X132231806Y-91309222D01*
X132104328Y-91256420D01*
X131968995Y-91229500D01*
X131968993Y-91229500D01*
X130138994Y-91229500D01*
X130001007Y-91229500D01*
X130001004Y-91229500D01*
X129865672Y-91256420D01*
X129865670Y-91256420D01*
X129738191Y-91309223D01*
X129623460Y-91385883D01*
X128455883Y-92553460D01*
X128379223Y-92668191D01*
X128326420Y-92795670D01*
X128326420Y-92795672D01*
X128299500Y-92931003D01*
X124700675Y-92931003D01*
X124705133Y-92900002D01*
X124705133Y-92899997D01*
X124686697Y-92771774D01*
X124639889Y-92669281D01*
X124632882Y-92653937D01*
X124574679Y-92586766D01*
X124550863Y-92530408D01*
X124550500Y-92521937D01*
X124550500Y-92510439D01*
X124550500Y-92510438D01*
X124534880Y-92452143D01*
X124534880Y-92452142D01*
X124534880Y-92452141D01*
X124530022Y-92434013D01*
X124530022Y-92434012D01*
X124490460Y-92365489D01*
X123283496Y-91158525D01*
X123255719Y-91104008D01*
X123255508Y-91102609D01*
X123255132Y-91099997D01*
X123253277Y-91087091D01*
X123236698Y-90971775D01*
X123182882Y-90853938D01*
X123182882Y-90853937D01*
X123098049Y-90756033D01*
X123098048Y-90756032D01*
X123098047Y-90756031D01*
X122989073Y-90685998D01*
X122989070Y-90685996D01*
X122989069Y-90685996D01*
X122989066Y-90685995D01*
X122864774Y-90649500D01*
X122864772Y-90649500D01*
X122735228Y-90649500D01*
X122735225Y-90649500D01*
X122610933Y-90685995D01*
X122610926Y-90685998D01*
X122501952Y-90756031D01*
X122417117Y-90853938D01*
X122363302Y-90971774D01*
X122344867Y-91099997D01*
X102500500Y-91099997D01*
X102500500Y-89749997D01*
X122344867Y-89749997D01*
X122344867Y-89750002D01*
X122363302Y-89878225D01*
X122397879Y-89953937D01*
X122417118Y-89996063D01*
X122480313Y-90068995D01*
X122501952Y-90093968D01*
X122610926Y-90164001D01*
X122610931Y-90164004D01*
X122735228Y-90200500D01*
X122735230Y-90200500D01*
X122864770Y-90200500D01*
X122864772Y-90200500D01*
X122989069Y-90164004D01*
X123098049Y-90093967D01*
X123106105Y-90084670D01*
X123158500Y-90053073D01*
X123180925Y-90050500D01*
X123384521Y-90050500D01*
X123442712Y-90069407D01*
X123454525Y-90079496D01*
X123516503Y-90141474D01*
X123544280Y-90195991D01*
X123544491Y-90197389D01*
X123563302Y-90328225D01*
X123617117Y-90446061D01*
X123617118Y-90446063D01*
X123701951Y-90543967D01*
X123701952Y-90543968D01*
X123770942Y-90588305D01*
X123810931Y-90614004D01*
X123935228Y-90650500D01*
X123935230Y-90650500D01*
X124064770Y-90650500D01*
X124064772Y-90650500D01*
X124189069Y-90614004D01*
X124298049Y-90543967D01*
X124382882Y-90446063D01*
X124436697Y-90328226D01*
X124455061Y-90200500D01*
X124455133Y-90200002D01*
X124455133Y-90199997D01*
X124436697Y-90071774D01*
X124426981Y-90050500D01*
X124382882Y-89953937D01*
X124298049Y-89856033D01*
X124298048Y-89856032D01*
X124298047Y-89856031D01*
X124189073Y-89785998D01*
X124189070Y-89785996D01*
X124189069Y-89785996D01*
X124189066Y-89785995D01*
X124064774Y-89749500D01*
X124064772Y-89749500D01*
X124015479Y-89749500D01*
X123957288Y-89730593D01*
X123945476Y-89720504D01*
X123734510Y-89509539D01*
X123717121Y-89499499D01*
X123717121Y-89499500D01*
X123665989Y-89469979D01*
X123665988Y-89469978D01*
X123665987Y-89469978D01*
X123589564Y-89449500D01*
X123589562Y-89449500D01*
X123180925Y-89449500D01*
X123122734Y-89430593D01*
X123106105Y-89415330D01*
X123098049Y-89406033D01*
X123098048Y-89406032D01*
X122989073Y-89335998D01*
X122989070Y-89335996D01*
X122989069Y-89335996D01*
X122989066Y-89335995D01*
X122864774Y-89299500D01*
X122864772Y-89299500D01*
X122735228Y-89299500D01*
X122735225Y-89299500D01*
X122610933Y-89335995D01*
X122610926Y-89335998D01*
X122501952Y-89406031D01*
X122417117Y-89503938D01*
X122363302Y-89621774D01*
X122344867Y-89749997D01*
X102500500Y-89749997D01*
X102500500Y-85331004D01*
X120199500Y-85331004D01*
X120199500Y-85468995D01*
X120226420Y-85604327D01*
X120226420Y-85604329D01*
X120279222Y-85731806D01*
X120279228Y-85731817D01*
X120355885Y-85846541D01*
X120453458Y-85944114D01*
X120568182Y-86020771D01*
X120568193Y-86020777D01*
X120615283Y-86040282D01*
X120695672Y-86073580D01*
X120831007Y-86100500D01*
X126250500Y-86100500D01*
X126308691Y-86119407D01*
X126344655Y-86168907D01*
X126349500Y-86199500D01*
X126349500Y-90068995D01*
X126354468Y-90093968D01*
X126375658Y-90200499D01*
X126376420Y-90204327D01*
X126376420Y-90204329D01*
X126429222Y-90331806D01*
X126429228Y-90331817D01*
X126505885Y-90446541D01*
X126603458Y-90544114D01*
X126718182Y-90620771D01*
X126718193Y-90620777D01*
X126765283Y-90640282D01*
X126845672Y-90673580D01*
X126981007Y-90700500D01*
X126981008Y-90700500D01*
X127118992Y-90700500D01*
X127118993Y-90700500D01*
X127254328Y-90673580D01*
X127381811Y-90620775D01*
X127496542Y-90544114D01*
X127594114Y-90446542D01*
X127670775Y-90331811D01*
X127723580Y-90204328D01*
X127750500Y-90068993D01*
X127750500Y-85731164D01*
X127769407Y-85672973D01*
X127779490Y-85661166D01*
X128326571Y-85114084D01*
X128341568Y-85101778D01*
X128353040Y-85094114D01*
X131632920Y-81814234D01*
X138144500Y-81814234D01*
X138144500Y-81965766D01*
X138179086Y-82094847D01*
X138183720Y-82112139D01*
X138259481Y-82243360D01*
X138259483Y-82243362D01*
X138259485Y-82243365D01*
X138366635Y-82350515D01*
X138366637Y-82350516D01*
X138366639Y-82350518D01*
X138497861Y-82426279D01*
X138497859Y-82426279D01*
X138497863Y-82426280D01*
X138497865Y-82426281D01*
X138644234Y-82465500D01*
X138644236Y-82465500D01*
X138795764Y-82465500D01*
X138795766Y-82465500D01*
X138942135Y-82426281D01*
X138942137Y-82426279D01*
X138942139Y-82426279D01*
X139073360Y-82350518D01*
X139073360Y-82350517D01*
X139073365Y-82350515D01*
X139180515Y-82243365D01*
X139256281Y-82112135D01*
X139295500Y-81965766D01*
X139295500Y-81814234D01*
X139256281Y-81667865D01*
X139256279Y-81667862D01*
X139256279Y-81667860D01*
X139180518Y-81536639D01*
X139180516Y-81536637D01*
X139180515Y-81536635D01*
X139073365Y-81429485D01*
X139073362Y-81429483D01*
X139073360Y-81429481D01*
X138942138Y-81353720D01*
X138942140Y-81353720D01*
X138885347Y-81338503D01*
X138795766Y-81314500D01*
X138644234Y-81314500D01*
X138554652Y-81338503D01*
X138497860Y-81353720D01*
X138366639Y-81429481D01*
X138259481Y-81536639D01*
X138183720Y-81667860D01*
X138183719Y-81667865D01*
X138144500Y-81814234D01*
X131632920Y-81814234D01*
X131894114Y-81553040D01*
X131970775Y-81438308D01*
X132023580Y-81310825D01*
X132050500Y-81175491D01*
X132050500Y-81037503D01*
X132050500Y-76034234D01*
X138144500Y-76034234D01*
X138144500Y-76185766D01*
X138179086Y-76314847D01*
X138183720Y-76332139D01*
X138259481Y-76463360D01*
X138259483Y-76463362D01*
X138259485Y-76463365D01*
X138366635Y-76570515D01*
X138366637Y-76570516D01*
X138366639Y-76570518D01*
X138497861Y-76646279D01*
X138497859Y-76646279D01*
X138497863Y-76646280D01*
X138497865Y-76646281D01*
X138644234Y-76685500D01*
X138644236Y-76685500D01*
X138795764Y-76685500D01*
X138795766Y-76685500D01*
X138942135Y-76646281D01*
X138942137Y-76646279D01*
X138942139Y-76646279D01*
X139073360Y-76570518D01*
X139073360Y-76570517D01*
X139073365Y-76570515D01*
X139180515Y-76463365D01*
X139256281Y-76332135D01*
X139295500Y-76185766D01*
X139295500Y-76034234D01*
X139256281Y-75887865D01*
X139256279Y-75887862D01*
X139256279Y-75887860D01*
X139180518Y-75756639D01*
X139180516Y-75756637D01*
X139180515Y-75756635D01*
X139073365Y-75649485D01*
X139073362Y-75649483D01*
X139073360Y-75649481D01*
X138942138Y-75573720D01*
X138942140Y-75573720D01*
X138885347Y-75558503D01*
X138795766Y-75534500D01*
X138644234Y-75534500D01*
X138554652Y-75558503D01*
X138497860Y-75573720D01*
X138366639Y-75649481D01*
X138259481Y-75756639D01*
X138183720Y-75887860D01*
X138183719Y-75887865D01*
X138144500Y-76034234D01*
X132050500Y-76034234D01*
X132050500Y-75191164D01*
X132069407Y-75132973D01*
X132079490Y-75121166D01*
X134454114Y-72746543D01*
X134530775Y-72631811D01*
X134583580Y-72504328D01*
X134610500Y-72368994D01*
X134610500Y-72231006D01*
X134583580Y-72095671D01*
X134530775Y-71968189D01*
X134454114Y-71853457D01*
X134356543Y-71755886D01*
X134241811Y-71679225D01*
X134241810Y-71679224D01*
X134241808Y-71679223D01*
X134114329Y-71626420D01*
X133978996Y-71599500D01*
X133978994Y-71599500D01*
X133841006Y-71599500D01*
X133841003Y-71599500D01*
X133705672Y-71626420D01*
X133705670Y-71626420D01*
X133578191Y-71679223D01*
X133463460Y-71755883D01*
X130805883Y-74413460D01*
X130729223Y-74528191D01*
X130676420Y-74655670D01*
X130676420Y-74655672D01*
X130655355Y-74761574D01*
X130649500Y-74791006D01*
X130649500Y-80775331D01*
X130630593Y-80833522D01*
X130620504Y-80845335D01*
X127479927Y-83985911D01*
X127464930Y-83998219D01*
X127453459Y-84005884D01*
X126788839Y-84670504D01*
X126734322Y-84698281D01*
X126718835Y-84699500D01*
X120831004Y-84699500D01*
X120695672Y-84726420D01*
X120695670Y-84726420D01*
X120568193Y-84779222D01*
X120568182Y-84779228D01*
X120453458Y-84855885D01*
X120355885Y-84953458D01*
X120279228Y-85068182D01*
X120279222Y-85068193D01*
X120226420Y-85195670D01*
X120226420Y-85195672D01*
X120199500Y-85331004D01*
X102500500Y-85331004D01*
X102500500Y-79399997D01*
X107244867Y-79399997D01*
X107244867Y-79400002D01*
X107263302Y-79528225D01*
X107296081Y-79600000D01*
X107317118Y-79646063D01*
X107401951Y-79743967D01*
X107401952Y-79743968D01*
X107499474Y-79806641D01*
X107510931Y-79814004D01*
X107533791Y-79820716D01*
X107584296Y-79855249D01*
X107604859Y-79912875D01*
X107587622Y-79971583D01*
X107580719Y-79980535D01*
X107517118Y-80053936D01*
X107463302Y-80171774D01*
X107444867Y-80299997D01*
X107444867Y-80300002D01*
X107463302Y-80428225D01*
X107514148Y-80539560D01*
X107517118Y-80546063D01*
X107577711Y-80615992D01*
X107601952Y-80643968D01*
X107710926Y-80714001D01*
X107710931Y-80714004D01*
X107835228Y-80750500D01*
X107835230Y-80750500D01*
X107964770Y-80750500D01*
X107964772Y-80750500D01*
X108089069Y-80714004D01*
X108198049Y-80643967D01*
X108206105Y-80634670D01*
X108258500Y-80603073D01*
X108280925Y-80600500D01*
X111339563Y-80600500D01*
X111339563Y-80600499D01*
X111415989Y-80580021D01*
X111484511Y-80540460D01*
X111540460Y-80484511D01*
X112630496Y-79394473D01*
X112685013Y-79366697D01*
X112745445Y-79376268D01*
X112788710Y-79419533D01*
X112799500Y-79464478D01*
X112799500Y-80300500D01*
X112780593Y-80358691D01*
X112731093Y-80394655D01*
X112700500Y-80399500D01*
X112139562Y-80399500D01*
X112060438Y-80399500D01*
X112013661Y-80412033D01*
X111984007Y-80419979D01*
X111915493Y-80459536D01*
X111915488Y-80459540D01*
X111659539Y-80715489D01*
X111619980Y-80784007D01*
X111619978Y-80784011D01*
X111599501Y-80860433D01*
X111599500Y-80860437D01*
X111599500Y-84421937D01*
X111580593Y-84480128D01*
X111575320Y-84486767D01*
X111517118Y-84553936D01*
X111517116Y-84553940D01*
X111463302Y-84671774D01*
X111444867Y-84799997D01*
X111444867Y-84800002D01*
X111463302Y-84928225D01*
X111474826Y-84953458D01*
X111517118Y-85046063D01*
X111576062Y-85114089D01*
X111601952Y-85143968D01*
X111710926Y-85214001D01*
X111710931Y-85214004D01*
X111835228Y-85250500D01*
X111835230Y-85250500D01*
X111964770Y-85250500D01*
X111964772Y-85250500D01*
X112089069Y-85214004D01*
X112198049Y-85143967D01*
X112282882Y-85046063D01*
X112336697Y-84928226D01*
X112355133Y-84800000D01*
X112352146Y-84779228D01*
X112336697Y-84671774D01*
X112282883Y-84553940D01*
X112282882Y-84553937D01*
X112224679Y-84486766D01*
X112200863Y-84430408D01*
X112200500Y-84421937D01*
X112200500Y-81099500D01*
X112219407Y-81041309D01*
X112268907Y-81005345D01*
X112299500Y-81000500D01*
X112939563Y-81000500D01*
X112939563Y-81000499D01*
X113015989Y-80980021D01*
X113084511Y-80940460D01*
X113112485Y-80912485D01*
X113140461Y-80884511D01*
X113274472Y-80750499D01*
X113340460Y-80684511D01*
X113380022Y-80615988D01*
X113400500Y-80539562D01*
X113400500Y-80460438D01*
X113400500Y-80005763D01*
X113419407Y-79947572D01*
X113468907Y-79911608D01*
X113530093Y-79911608D01*
X113574320Y-79940933D01*
X113576949Y-79943967D01*
X113581750Y-79947053D01*
X113598225Y-79960327D01*
X113598387Y-79960489D01*
X113638386Y-79983582D01*
X113642387Y-79986021D01*
X113685929Y-80014004D01*
X113685932Y-80014005D01*
X113689864Y-80015800D01*
X113694859Y-80017930D01*
X113695115Y-80017314D01*
X113701116Y-80019800D01*
X113735537Y-80029022D01*
X113752064Y-80033450D01*
X113754294Y-80034076D01*
X113770837Y-80038934D01*
X113810220Y-80050499D01*
X113810225Y-80050499D01*
X113810226Y-80050500D01*
X113815691Y-80050500D01*
X114972389Y-80050500D01*
X115030580Y-80069407D01*
X115042392Y-80079495D01*
X116223386Y-81260490D01*
X116316936Y-81314500D01*
X116326114Y-81319799D01*
X116440691Y-81350500D01*
X116440693Y-81350500D01*
X118459309Y-81350500D01*
X118549669Y-81326287D01*
X118549672Y-81326287D01*
X118562903Y-81322741D01*
X118573887Y-81319799D01*
X118676614Y-81260489D01*
X118776780Y-81160321D01*
X118793255Y-81147047D01*
X118798049Y-81143967D01*
X118827625Y-81109831D01*
X118832428Y-81104673D01*
X118910491Y-81026612D01*
X118925568Y-81000499D01*
X118969798Y-80923890D01*
X118969797Y-80923890D01*
X118969801Y-80923885D01*
X118986801Y-80860438D01*
X119000502Y-80809307D01*
X119000502Y-78539301D01*
X119001510Y-78525210D01*
X119001798Y-78523211D01*
X119005135Y-78500000D01*
X119003121Y-78485995D01*
X119001510Y-78474786D01*
X119000502Y-78460697D01*
X119000502Y-78440690D01*
X118993626Y-78415032D01*
X118991260Y-78403494D01*
X118986700Y-78371777D01*
X118986699Y-78371775D01*
X118986699Y-78371774D01*
X118978849Y-78354585D01*
X118973275Y-78339081D01*
X118969801Y-78326114D01*
X118953232Y-78297416D01*
X118948920Y-78289052D01*
X118932884Y-78253938D01*
X118932884Y-78253937D01*
X118932882Y-78253935D01*
X118932881Y-78253932D01*
X118924828Y-78244639D01*
X118913909Y-78229307D01*
X118910493Y-78223391D01*
X118910491Y-78223387D01*
X118910486Y-78223382D01*
X118882441Y-78195336D01*
X118877627Y-78190165D01*
X118848052Y-78156034D01*
X118848046Y-78156028D01*
X118843250Y-78152946D01*
X118826780Y-78139675D01*
X118826619Y-78139514D01*
X118826612Y-78139509D01*
X118786598Y-78116406D01*
X118782576Y-78113955D01*
X118739071Y-78085996D01*
X118739068Y-78085995D01*
X118735211Y-78084233D01*
X118730133Y-78082068D01*
X118729879Y-78082683D01*
X118723879Y-78080197D01*
X118672916Y-78066542D01*
X118670667Y-78065911D01*
X118654208Y-78061078D01*
X118614776Y-78049500D01*
X118614774Y-78049500D01*
X118485230Y-78049500D01*
X118485228Y-78049500D01*
X118485224Y-78049501D01*
X118429324Y-78065914D01*
X118427058Y-78066550D01*
X118376119Y-78080199D01*
X118370128Y-78082681D01*
X118369881Y-78082086D01*
X118364425Y-78084401D01*
X118360933Y-78085996D01*
X118317427Y-78113954D01*
X118313410Y-78116402D01*
X118273389Y-78139510D01*
X118273385Y-78139513D01*
X118273223Y-78139676D01*
X118256759Y-78152944D01*
X118251952Y-78156033D01*
X118222369Y-78190173D01*
X118217557Y-78195341D01*
X118189513Y-78223385D01*
X118186095Y-78229307D01*
X118175181Y-78244633D01*
X118167120Y-78253935D01*
X118167119Y-78253938D01*
X118151080Y-78289056D01*
X118146765Y-78297426D01*
X118130205Y-78326108D01*
X118130203Y-78326113D01*
X118126726Y-78339088D01*
X118121157Y-78354577D01*
X118113304Y-78371773D01*
X118113303Y-78371776D01*
X118108744Y-78403491D01*
X118106380Y-78415019D01*
X118099502Y-78440691D01*
X118099502Y-78440693D01*
X118099502Y-78460697D01*
X118098494Y-78474786D01*
X118096883Y-78485995D01*
X118094869Y-78500000D01*
X118098206Y-78523211D01*
X118098494Y-78525210D01*
X118099502Y-78539301D01*
X118099502Y-80350500D01*
X118080595Y-80408691D01*
X118031095Y-80444655D01*
X118000502Y-80449500D01*
X116727612Y-80449500D01*
X116669421Y-80430593D01*
X116657608Y-80420504D01*
X116408878Y-80171774D01*
X115476614Y-79239511D01*
X115476611Y-79239509D01*
X115476610Y-79239508D01*
X115476609Y-79239507D01*
X115373890Y-79180202D01*
X115373886Y-79180200D01*
X115349673Y-79173712D01*
X115349673Y-79173713D01*
X115259309Y-79149500D01*
X115259307Y-79149500D01*
X114033337Y-79149500D01*
X113975146Y-79130593D01*
X113939182Y-79081093D01*
X113938528Y-79035643D01*
X113935690Y-79035235D01*
X113955133Y-78900002D01*
X113955133Y-78899997D01*
X113936697Y-78771774D01*
X113926525Y-78749500D01*
X113882882Y-78653937D01*
X113798049Y-78556033D01*
X113798048Y-78556032D01*
X113798047Y-78556031D01*
X113689073Y-78485998D01*
X113689070Y-78485996D01*
X113689069Y-78485996D01*
X113689066Y-78485995D01*
X113564774Y-78449500D01*
X113564772Y-78449500D01*
X113435228Y-78449500D01*
X113435225Y-78449500D01*
X113310933Y-78485995D01*
X113310931Y-78485996D01*
X113253023Y-78523211D01*
X113193847Y-78538764D01*
X113136831Y-78516565D01*
X113103752Y-78465093D01*
X113100500Y-78439926D01*
X113100500Y-77165479D01*
X113119407Y-77107288D01*
X113129496Y-77095475D01*
X113495475Y-76729496D01*
X113549992Y-76701719D01*
X113565479Y-76700500D01*
X117889563Y-76700500D01*
X117889563Y-76700499D01*
X117965989Y-76680021D01*
X118034511Y-76640460D01*
X118090460Y-76584511D01*
X120140460Y-74534511D01*
X120151154Y-74515988D01*
X120180021Y-74465989D01*
X120200500Y-74389562D01*
X120200500Y-72778063D01*
X120219407Y-72719872D01*
X120224680Y-72713232D01*
X120225182Y-72712653D01*
X120282882Y-72646063D01*
X120336697Y-72528226D01*
X120352537Y-72418059D01*
X120355133Y-72400002D01*
X120355133Y-72399997D01*
X120336697Y-72271774D01*
X120318079Y-72231007D01*
X120282882Y-72153937D01*
X120198049Y-72056033D01*
X120198048Y-72056032D01*
X120198047Y-72056031D01*
X120089073Y-71985998D01*
X120089070Y-71985996D01*
X120089069Y-71985996D01*
X120089066Y-71985995D01*
X119964774Y-71949500D01*
X119964772Y-71949500D01*
X119835228Y-71949500D01*
X119835225Y-71949500D01*
X119710933Y-71985995D01*
X119710926Y-71985998D01*
X119601951Y-72056032D01*
X119601949Y-72056034D01*
X119574819Y-72087344D01*
X119522423Y-72118940D01*
X119461462Y-72113704D01*
X119425181Y-72087344D01*
X119398050Y-72056034D01*
X119398048Y-72056032D01*
X119289073Y-71985998D01*
X119289070Y-71985996D01*
X119289069Y-71985996D01*
X119289066Y-71985995D01*
X119164774Y-71949500D01*
X119164772Y-71949500D01*
X119035228Y-71949500D01*
X119035225Y-71949500D01*
X118910933Y-71985995D01*
X118910926Y-71985998D01*
X118801952Y-72056031D01*
X118717117Y-72153938D01*
X118663302Y-72271774D01*
X118644867Y-72399997D01*
X118644867Y-72400002D01*
X118663302Y-72528225D01*
X118685893Y-72577691D01*
X118717118Y-72646063D01*
X118751980Y-72686296D01*
X118775320Y-72713232D01*
X118799137Y-72769592D01*
X118799500Y-72778063D01*
X118799500Y-74418835D01*
X118780593Y-74477026D01*
X118770504Y-74488839D01*
X117588839Y-75670504D01*
X117534322Y-75698281D01*
X117518835Y-75699500D01*
X113194749Y-75699500D01*
X113118326Y-75719978D01*
X113063793Y-75751463D01*
X113063792Y-75751462D01*
X113049805Y-75759538D01*
X112215489Y-76593854D01*
X112215488Y-76593853D01*
X112159539Y-76649803D01*
X112119980Y-76718321D01*
X112119978Y-76718325D01*
X112099500Y-76794749D01*
X112099500Y-78434521D01*
X112080593Y-78492712D01*
X112070504Y-78504525D01*
X111324525Y-79250504D01*
X111270008Y-79278281D01*
X111254521Y-79279500D01*
X109593297Y-79279500D01*
X109535106Y-79260593D01*
X109523294Y-79250504D01*
X109082329Y-78809540D01*
X109038976Y-78784510D01*
X109038975Y-78784510D01*
X109013806Y-78769978D01*
X108937382Y-78749500D01*
X108937380Y-78749500D01*
X108089562Y-78749500D01*
X108010438Y-78749500D01*
X107963661Y-78762033D01*
X107934007Y-78769979D01*
X107865493Y-78809536D01*
X107865488Y-78809540D01*
X107754524Y-78920504D01*
X107700008Y-78948281D01*
X107684521Y-78949500D01*
X107635225Y-78949500D01*
X107510933Y-78985995D01*
X107510926Y-78985998D01*
X107401952Y-79056031D01*
X107317117Y-79153938D01*
X107263302Y-79271774D01*
X107244867Y-79399997D01*
X102500500Y-79399997D01*
X102500500Y-72249995D01*
X108449751Y-72249995D01*
X108449751Y-72250004D01*
X108468685Y-72418053D01*
X108468688Y-72418065D01*
X108524544Y-72577690D01*
X108524544Y-72577691D01*
X108609711Y-72713232D01*
X108614523Y-72720890D01*
X108734110Y-72840477D01*
X108877310Y-72930456D01*
X108959035Y-72959052D01*
X109042190Y-72988150D01*
X109041670Y-72989634D01*
X109082740Y-73012330D01*
X109770504Y-73700094D01*
X109798281Y-73754611D01*
X109799500Y-73770098D01*
X109799500Y-76988985D01*
X109780593Y-77047176D01*
X109733198Y-77082429D01*
X109627127Y-77119544D01*
X109483932Y-77209520D01*
X109364339Y-77329113D01*
X109274363Y-77472308D01*
X109274363Y-77472309D01*
X109218507Y-77631934D01*
X109218506Y-77631940D01*
X109199570Y-77799995D01*
X109199570Y-77800004D01*
X109218504Y-77968053D01*
X109218507Y-77968065D01*
X109274363Y-78127690D01*
X109274363Y-78127691D01*
X109353690Y-78253938D01*
X109364342Y-78270890D01*
X109483929Y-78390477D01*
X109483931Y-78390478D01*
X109483932Y-78390479D01*
X109619287Y-78475529D01*
X109627129Y-78480456D01*
X109662155Y-78492712D01*
X109786753Y-78536311D01*
X109786757Y-78536312D01*
X109786760Y-78536313D01*
X109786761Y-78536313D01*
X109786765Y-78536314D01*
X109954815Y-78555249D01*
X109954819Y-78555249D01*
X109954823Y-78555249D01*
X110122872Y-78536314D01*
X110122874Y-78536313D01*
X110122878Y-78536313D01*
X110282509Y-78480456D01*
X110425709Y-78390477D01*
X110545296Y-78270890D01*
X110635275Y-78127690D01*
X110691132Y-77968059D01*
X110692969Y-77962810D01*
X110694451Y-77963328D01*
X110717151Y-77922257D01*
X110839414Y-77799995D01*
X110910857Y-77728553D01*
X110975412Y-77631941D01*
X110979311Y-77626105D01*
X111026463Y-77512271D01*
X111038481Y-77451848D01*
X111050500Y-77391426D01*
X111050500Y-77268213D01*
X111050500Y-73849997D01*
X115404867Y-73849997D01*
X115404867Y-73850002D01*
X115423302Y-73978225D01*
X115477117Y-74096061D01*
X115477118Y-74096063D01*
X115553766Y-74184521D01*
X115561952Y-74193968D01*
X115637800Y-74242712D01*
X115670931Y-74264004D01*
X115795228Y-74300500D01*
X115795230Y-74300500D01*
X115895867Y-74300500D01*
X115954058Y-74319407D01*
X115990022Y-74368907D01*
X115993836Y-74392995D01*
X115993859Y-74392992D01*
X115994082Y-74394545D01*
X115994867Y-74399500D01*
X115994867Y-74400002D01*
X116013302Y-74528225D01*
X116016171Y-74534507D01*
X116067118Y-74646063D01*
X116151951Y-74743967D01*
X116151952Y-74743968D01*
X116260926Y-74814001D01*
X116260931Y-74814004D01*
X116385228Y-74850500D01*
X116385230Y-74850500D01*
X116514770Y-74850500D01*
X116514772Y-74850500D01*
X116639069Y-74814004D01*
X116748049Y-74743967D01*
X116832882Y-74646063D01*
X116886697Y-74528226D01*
X116905133Y-74400000D01*
X116905132Y-74399998D01*
X116905508Y-74397389D01*
X116932503Y-74342481D01*
X116933427Y-74341542D01*
X117840460Y-73434511D01*
X117855539Y-73408394D01*
X117880020Y-73365992D01*
X117880020Y-73365990D01*
X117880022Y-73365988D01*
X117900500Y-73289562D01*
X117900500Y-73210438D01*
X117900500Y-72565479D01*
X117919407Y-72507288D01*
X117929496Y-72495475D01*
X118795475Y-71629496D01*
X118849992Y-71601719D01*
X118865479Y-71600500D01*
X121289563Y-71600500D01*
X121289563Y-71600499D01*
X121365989Y-71580021D01*
X121434511Y-71540460D01*
X121445476Y-71529494D01*
X121499991Y-71501719D01*
X121515478Y-71500500D01*
X121564770Y-71500500D01*
X121564772Y-71500500D01*
X121689069Y-71464004D01*
X121798049Y-71393967D01*
X121882882Y-71296063D01*
X121936697Y-71178226D01*
X121955133Y-71050000D01*
X121947872Y-70999500D01*
X121936697Y-70921774D01*
X121913010Y-70869907D01*
X121882882Y-70803937D01*
X121798049Y-70706033D01*
X121798048Y-70706032D01*
X121798047Y-70706031D01*
X121689073Y-70635998D01*
X121689070Y-70635996D01*
X121689069Y-70635996D01*
X121684352Y-70634611D01*
X121564774Y-70599500D01*
X121564772Y-70599500D01*
X121435228Y-70599500D01*
X121435225Y-70599500D01*
X121310933Y-70635995D01*
X121310926Y-70635998D01*
X121201952Y-70706031D01*
X121117117Y-70803938D01*
X121063303Y-70921772D01*
X121061360Y-70928391D01*
X121026825Y-70978898D01*
X120969198Y-70999460D01*
X120966370Y-70999500D01*
X119623383Y-70999500D01*
X119565192Y-70980593D01*
X119529228Y-70931093D01*
X119529228Y-70869907D01*
X119548561Y-70835671D01*
X119582882Y-70796063D01*
X119636697Y-70678226D01*
X119655133Y-70550000D01*
X119636697Y-70421774D01*
X119582882Y-70303937D01*
X119498049Y-70206033D01*
X119498048Y-70206032D01*
X119498047Y-70206031D01*
X119389073Y-70135998D01*
X119389070Y-70135996D01*
X119389069Y-70135996D01*
X119389066Y-70135995D01*
X119264774Y-70099500D01*
X119264772Y-70099500D01*
X119135228Y-70099500D01*
X119135225Y-70099500D01*
X119010933Y-70135995D01*
X119010926Y-70135998D01*
X118901951Y-70206032D01*
X118901950Y-70206033D01*
X118893895Y-70215330D01*
X118841500Y-70246927D01*
X118819075Y-70249500D01*
X118760435Y-70249500D01*
X118684014Y-70269977D01*
X118684011Y-70269979D01*
X118629004Y-70301737D01*
X118619994Y-70306939D01*
X118615490Y-70309539D01*
X115675489Y-73249540D01*
X115675488Y-73249539D01*
X115619539Y-73305489D01*
X115579980Y-73374007D01*
X115579978Y-73374011D01*
X115559500Y-73450435D01*
X115559500Y-73471937D01*
X115540593Y-73530128D01*
X115535320Y-73536767D01*
X115477118Y-73603936D01*
X115477116Y-73603940D01*
X115423302Y-73721774D01*
X115404867Y-73849997D01*
X111050500Y-73849997D01*
X111050500Y-73536507D01*
X111050501Y-73536486D01*
X111050501Y-73408395D01*
X111050500Y-73408391D01*
X111030032Y-73305488D01*
X111030032Y-73305487D01*
X111026464Y-73287554D01*
X111026463Y-73287549D01*
X110985850Y-73189500D01*
X110979312Y-73173715D01*
X110979309Y-73173711D01*
X110979308Y-73173708D01*
X110910858Y-73071267D01*
X109967330Y-72127740D01*
X109944634Y-72086670D01*
X109943150Y-72087190D01*
X109907741Y-71985998D01*
X109885456Y-71922310D01*
X109842194Y-71853460D01*
X109795479Y-71779113D01*
X109795478Y-71779112D01*
X109795477Y-71779110D01*
X109675890Y-71659523D01*
X109675887Y-71659521D01*
X109675886Y-71659520D01*
X109532691Y-71569544D01*
X109373065Y-71513688D01*
X109373053Y-71513685D01*
X109205004Y-71494751D01*
X109204996Y-71494751D01*
X109036946Y-71513685D01*
X109036934Y-71513688D01*
X108877309Y-71569544D01*
X108877308Y-71569544D01*
X108734113Y-71659520D01*
X108614520Y-71779113D01*
X108524544Y-71922308D01*
X108524544Y-71922309D01*
X108468688Y-72081934D01*
X108468685Y-72081946D01*
X108449751Y-72249995D01*
X102500500Y-72249995D01*
X102500500Y-70144974D01*
X107239293Y-70144974D01*
X107239293Y-70144975D01*
X107258174Y-70288395D01*
X107259931Y-70301737D01*
X107259932Y-70301739D01*
X107320437Y-70447813D01*
X107320437Y-70447814D01*
X107416688Y-70573251D01*
X107416693Y-70573257D01*
X107542134Y-70669511D01*
X107542135Y-70669511D01*
X107542136Y-70669512D01*
X107688208Y-70730017D01*
X107688213Y-70730019D01*
X107805784Y-70745497D01*
X107844974Y-70750657D01*
X107844975Y-70750657D01*
X107844976Y-70750657D01*
X107876327Y-70746529D01*
X108001737Y-70730019D01*
X108147816Y-70669511D01*
X108273257Y-70573257D01*
X108369511Y-70447816D01*
X108430019Y-70301737D01*
X108450657Y-70144975D01*
X108430019Y-69988213D01*
X108414943Y-69951816D01*
X108369512Y-69842136D01*
X108369512Y-69842135D01*
X108269307Y-69711545D01*
X108270688Y-69710484D01*
X108246694Y-69663391D01*
X108245475Y-69647904D01*
X108245475Y-69442687D01*
X108264382Y-69384496D01*
X108274471Y-69372683D01*
X109042658Y-68604496D01*
X109097175Y-68576719D01*
X109112662Y-68575500D01*
X118882396Y-68575500D01*
X118940587Y-68594407D01*
X118960937Y-68614232D01*
X118971718Y-68628282D01*
X119097159Y-68724536D01*
X119097160Y-68724536D01*
X119097161Y-68724537D01*
X119243233Y-68785042D01*
X119243238Y-68785044D01*
X119360809Y-68800522D01*
X119399999Y-68805682D01*
X119400000Y-68805682D01*
X119400001Y-68805682D01*
X119431352Y-68801554D01*
X119556762Y-68785044D01*
X119702841Y-68724536D01*
X119828282Y-68628282D01*
X119924536Y-68502841D01*
X119964883Y-68405435D01*
X122954500Y-68405435D01*
X122954500Y-71394564D01*
X122974978Y-71470988D01*
X122974979Y-71470990D01*
X122982496Y-71484009D01*
X122982497Y-71484011D01*
X122999631Y-71513687D01*
X123014540Y-71539511D01*
X123016504Y-71541475D01*
X123017408Y-71543250D01*
X123018491Y-71544661D01*
X123018229Y-71544861D01*
X123044280Y-71595990D01*
X123044491Y-71597388D01*
X123063302Y-71728225D01*
X123117117Y-71846061D01*
X123117118Y-71846063D01*
X123201951Y-71943967D01*
X123201952Y-71943968D01*
X123310926Y-72014001D01*
X123310931Y-72014004D01*
X123435228Y-72050500D01*
X123435230Y-72050500D01*
X123564770Y-72050500D01*
X123564772Y-72050500D01*
X123689069Y-72014004D01*
X123798049Y-71943967D01*
X123882882Y-71846063D01*
X123936697Y-71728226D01*
X123950892Y-71629496D01*
X123955133Y-71600002D01*
X123955133Y-71599997D01*
X123936697Y-71471774D01*
X123936338Y-71470988D01*
X123882882Y-71353937D01*
X123798049Y-71256033D01*
X123798048Y-71256032D01*
X123798047Y-71256031D01*
X123689073Y-71185998D01*
X123689070Y-71185997D01*
X123689069Y-71185996D01*
X123654953Y-71175978D01*
X123626608Y-71167656D01*
X123576102Y-71133120D01*
X123555540Y-71075493D01*
X123555500Y-71072666D01*
X123555500Y-68899995D01*
X124944751Y-68899995D01*
X124944751Y-68900004D01*
X124963685Y-69068053D01*
X124963688Y-69068065D01*
X125019544Y-69227690D01*
X125019544Y-69227691D01*
X125109520Y-69370886D01*
X125109523Y-69370890D01*
X125229110Y-69490477D01*
X125229112Y-69490478D01*
X125229113Y-69490479D01*
X125367651Y-69577529D01*
X125372310Y-69580456D01*
X125454035Y-69609052D01*
X125537190Y-69638150D01*
X125536670Y-69639634D01*
X125577740Y-69662330D01*
X126495504Y-70580094D01*
X126523281Y-70634611D01*
X126524500Y-70650098D01*
X126524500Y-74706326D01*
X126509326Y-74758997D01*
X126469544Y-74822308D01*
X126469544Y-74822309D01*
X126413688Y-74981934D01*
X126413685Y-74981946D01*
X126394751Y-75149995D01*
X126394751Y-75150004D01*
X126413685Y-75318053D01*
X126413688Y-75318065D01*
X126469544Y-75477690D01*
X126469544Y-75477691D01*
X126559520Y-75620886D01*
X126559523Y-75620890D01*
X126679110Y-75740477D01*
X126679112Y-75740478D01*
X126679113Y-75740479D01*
X126704831Y-75756639D01*
X126822310Y-75830456D01*
X126886232Y-75852823D01*
X126981934Y-75886311D01*
X126981938Y-75886312D01*
X126981941Y-75886313D01*
X126981942Y-75886313D01*
X126981946Y-75886314D01*
X127149996Y-75905249D01*
X127150000Y-75905249D01*
X127150004Y-75905249D01*
X127318053Y-75886314D01*
X127318055Y-75886313D01*
X127318059Y-75886313D01*
X127477690Y-75830456D01*
X127620890Y-75740477D01*
X127740477Y-75620890D01*
X127830456Y-75477690D01*
X127886313Y-75318059D01*
X127900611Y-75191164D01*
X127905249Y-75150004D01*
X127905249Y-75149995D01*
X127886314Y-74981946D01*
X127886311Y-74981934D01*
X127840320Y-74850500D01*
X127830456Y-74822310D01*
X127810786Y-74791006D01*
X127790674Y-74758997D01*
X127775500Y-74706326D01*
X127775500Y-70416507D01*
X127775501Y-70416486D01*
X127775501Y-70288395D01*
X127775500Y-70288391D01*
X127772655Y-70274090D01*
X127751463Y-70167549D01*
X127738393Y-70135996D01*
X127723467Y-70099960D01*
X127704312Y-70053715D01*
X127704310Y-70053712D01*
X127704308Y-70053707D01*
X127635858Y-69951267D01*
X127508179Y-69823588D01*
X130146276Y-69823588D01*
X130146276Y-69823593D01*
X130164711Y-69951816D01*
X130181335Y-69988216D01*
X130218527Y-70069654D01*
X130267926Y-70126664D01*
X130303361Y-70167559D01*
X130412335Y-70237592D01*
X130412340Y-70237595D01*
X130536637Y-70274091D01*
X130536639Y-70274091D01*
X130666179Y-70274091D01*
X130666181Y-70274091D01*
X130790478Y-70237595D01*
X130899458Y-70167558D01*
X130907514Y-70158261D01*
X130959909Y-70126664D01*
X130982334Y-70124091D01*
X132510700Y-70124091D01*
X132568891Y-70142998D01*
X132600753Y-70181964D01*
X132611745Y-70206032D01*
X132617118Y-70217797D01*
X132696612Y-70309539D01*
X132701952Y-70315702D01*
X132810926Y-70385735D01*
X132810931Y-70385738D01*
X132935228Y-70422234D01*
X132935230Y-70422234D01*
X133064770Y-70422234D01*
X133064772Y-70422234D01*
X133189069Y-70385738D01*
X133298049Y-70315701D01*
X133382882Y-70217797D01*
X133436697Y-70099960D01*
X133452764Y-69988213D01*
X133455133Y-69971736D01*
X133455133Y-69971731D01*
X133436697Y-69843508D01*
X133382882Y-69725672D01*
X133382882Y-69725671D01*
X133298049Y-69627767D01*
X133298048Y-69627766D01*
X133298047Y-69627765D01*
X133189073Y-69557732D01*
X133189070Y-69557730D01*
X133189069Y-69557730D01*
X133189066Y-69557729D01*
X133064774Y-69521234D01*
X133064772Y-69521234D01*
X132935228Y-69521234D01*
X132935226Y-69521234D01*
X132928222Y-69522241D01*
X132928090Y-69521327D01*
X132896563Y-69523768D01*
X132891419Y-69523091D01*
X130982334Y-69523091D01*
X130924143Y-69504184D01*
X130907514Y-69488921D01*
X130899458Y-69479624D01*
X130899457Y-69479623D01*
X130790482Y-69409589D01*
X130790479Y-69409587D01*
X130790478Y-69409587D01*
X130790475Y-69409586D01*
X130666183Y-69373091D01*
X130666181Y-69373091D01*
X130536637Y-69373091D01*
X130536634Y-69373091D01*
X130412342Y-69409586D01*
X130412335Y-69409589D01*
X130303361Y-69479622D01*
X130218526Y-69577529D01*
X130164711Y-69695365D01*
X130146276Y-69823588D01*
X127508179Y-69823588D01*
X126462330Y-68777740D01*
X126439634Y-68736670D01*
X126438150Y-68737190D01*
X126419708Y-68684487D01*
X126380456Y-68572310D01*
X126367875Y-68552288D01*
X126290479Y-68429113D01*
X126290478Y-68429112D01*
X126290477Y-68429110D01*
X126170890Y-68309523D01*
X126170887Y-68309521D01*
X126170886Y-68309520D01*
X126027691Y-68219544D01*
X125868065Y-68163688D01*
X125868053Y-68163685D01*
X125700004Y-68144751D01*
X125699996Y-68144751D01*
X125531946Y-68163685D01*
X125531934Y-68163688D01*
X125372309Y-68219544D01*
X125372308Y-68219544D01*
X125229113Y-68309520D01*
X125109520Y-68429113D01*
X125019544Y-68572308D01*
X125019544Y-68572309D01*
X124963688Y-68731934D01*
X124963685Y-68731946D01*
X124944751Y-68899995D01*
X123555500Y-68899995D01*
X123555500Y-68610479D01*
X123574407Y-68552288D01*
X123584496Y-68540475D01*
X123645475Y-68479496D01*
X123699992Y-68451719D01*
X123715479Y-68450500D01*
X123764770Y-68450500D01*
X123764772Y-68450500D01*
X123889069Y-68414004D01*
X123998049Y-68343967D01*
X124082882Y-68246063D01*
X124136697Y-68128226D01*
X124155133Y-68000000D01*
X124136697Y-67871774D01*
X124082882Y-67753937D01*
X123998049Y-67656033D01*
X123998048Y-67656032D01*
X123998047Y-67656031D01*
X123889073Y-67585998D01*
X123889070Y-67585996D01*
X123889069Y-67585996D01*
X123889066Y-67585995D01*
X123764774Y-67549500D01*
X123764772Y-67549500D01*
X123635228Y-67549500D01*
X123635225Y-67549500D01*
X123510933Y-67585995D01*
X123510926Y-67585998D01*
X123401952Y-67656031D01*
X123317117Y-67753938D01*
X123263302Y-67871774D01*
X123244491Y-68002611D01*
X123217495Y-68057519D01*
X123216557Y-68058470D01*
X123070489Y-68204540D01*
X123070488Y-68204539D01*
X123014539Y-68260489D01*
X122974980Y-68329007D01*
X122974978Y-68329011D01*
X122954500Y-68405435D01*
X119964883Y-68405435D01*
X119985044Y-68356762D01*
X120005682Y-68200000D01*
X119985044Y-68043238D01*
X119924537Y-67897161D01*
X119924537Y-67897160D01*
X119824332Y-67766570D01*
X119825713Y-67765509D01*
X119801719Y-67718416D01*
X119800500Y-67702929D01*
X119800500Y-65895854D01*
X119819407Y-65837663D01*
X119868907Y-65801699D01*
X119886577Y-65797701D01*
X119919813Y-65793326D01*
X120065892Y-65732818D01*
X120191333Y-65636564D01*
X120287587Y-65511123D01*
X120348095Y-65365044D01*
X120368733Y-65208282D01*
X120348095Y-65051520D01*
X120287588Y-64905443D01*
X120287588Y-64905442D01*
X120191337Y-64780005D01*
X120191336Y-64780004D01*
X120191333Y-64780000D01*
X120191328Y-64779996D01*
X120191327Y-64779995D01*
X120065889Y-64683744D01*
X119919817Y-64623239D01*
X119919809Y-64623237D01*
X119763052Y-64602600D01*
X119763050Y-64602600D01*
X119606292Y-64623237D01*
X119606284Y-64623239D01*
X119460212Y-64683744D01*
X119460211Y-64683744D01*
X119334774Y-64779995D01*
X119334764Y-64780005D01*
X119238513Y-64905442D01*
X119238513Y-64905443D01*
X119178008Y-65051515D01*
X119178006Y-65051523D01*
X119156522Y-65214715D01*
X119154794Y-65214487D01*
X119138462Y-65264754D01*
X119128373Y-65276566D01*
X119079520Y-65325418D01*
X119079516Y-65325424D01*
X119026793Y-65416744D01*
X119026792Y-65416744D01*
X119026793Y-65416745D01*
X118999500Y-65518606D01*
X118999500Y-67675500D01*
X118980593Y-67733691D01*
X118931093Y-67769655D01*
X118900500Y-67774500D01*
X108958488Y-67774500D01*
X108853034Y-67774500D01*
X108790690Y-67791204D01*
X108751168Y-67801794D01*
X108659852Y-67854516D01*
X107524491Y-68989877D01*
X107471769Y-69081193D01*
X107444475Y-69183060D01*
X107444475Y-69647904D01*
X107425568Y-69706095D01*
X107418251Y-69714662D01*
X107320437Y-69842135D01*
X107320437Y-69842136D01*
X107259932Y-69988208D01*
X107259930Y-69988216D01*
X107239293Y-70144974D01*
X102500500Y-70144974D01*
X102500500Y-65599997D01*
X113944867Y-65599997D01*
X113944867Y-65600002D01*
X113963302Y-65728225D01*
X113996857Y-65801699D01*
X114017118Y-65846063D01*
X114101951Y-65943967D01*
X114101952Y-65943968D01*
X114210926Y-66014001D01*
X114210931Y-66014004D01*
X114335228Y-66050500D01*
X114335230Y-66050500D01*
X114464770Y-66050500D01*
X114464772Y-66050500D01*
X114589069Y-66014004D01*
X114698049Y-65943967D01*
X114782882Y-65846063D01*
X114836697Y-65728226D01*
X114842842Y-65685484D01*
X114855133Y-65600002D01*
X114855133Y-65599997D01*
X114836697Y-65471774D01*
X114787954Y-65365044D01*
X114782882Y-65353937D01*
X114698049Y-65256033D01*
X114698048Y-65256032D01*
X114698047Y-65256031D01*
X114589073Y-65185998D01*
X114589070Y-65185996D01*
X114589069Y-65185996D01*
X114589066Y-65185995D01*
X114464774Y-65149500D01*
X114464772Y-65149500D01*
X114335228Y-65149500D01*
X114335225Y-65149500D01*
X114210933Y-65185995D01*
X114210926Y-65185998D01*
X114101952Y-65256031D01*
X114017117Y-65353938D01*
X113963302Y-65471774D01*
X113944867Y-65599997D01*
X102500500Y-65599997D01*
X102500500Y-61250000D01*
X121900000Y-61250000D01*
X121919698Y-61500293D01*
X121978310Y-61744428D01*
X122074388Y-61976382D01*
X122074394Y-61976394D01*
X122205569Y-62190450D01*
X122205570Y-62190452D01*
X122205571Y-62190454D01*
X122205573Y-62190456D01*
X122368629Y-62381371D01*
X122559544Y-62544427D01*
X122559546Y-62544428D01*
X122559547Y-62544429D01*
X122559549Y-62544430D01*
X122773605Y-62675605D01*
X122773617Y-62675611D01*
X123005571Y-62771689D01*
X123005573Y-62771690D01*
X123249705Y-62830301D01*
X123500000Y-62850000D01*
X123750295Y-62830301D01*
X123994427Y-62771690D01*
X124226385Y-62675610D01*
X124226389Y-62675607D01*
X124226394Y-62675605D01*
X124318912Y-62618908D01*
X124440456Y-62544427D01*
X124631371Y-62381371D01*
X124794427Y-62190456D01*
X124868908Y-62068912D01*
X124925605Y-61976394D01*
X124925607Y-61976389D01*
X124925610Y-61976385D01*
X125021690Y-61744427D01*
X125080301Y-61500295D01*
X125100000Y-61250000D01*
X125080301Y-60999705D01*
X125021690Y-60755573D01*
X124925610Y-60523615D01*
X124925605Y-60523605D01*
X124794430Y-60309549D01*
X124794429Y-60309547D01*
X124794428Y-60309546D01*
X124794427Y-60309544D01*
X124631371Y-60118629D01*
X124631364Y-60118623D01*
X124631361Y-60118620D01*
X124440452Y-59955570D01*
X124440450Y-59955569D01*
X124226394Y-59824394D01*
X124226382Y-59824388D01*
X123994428Y-59728310D01*
X123994429Y-59728310D01*
X123750293Y-59669698D01*
X123500000Y-59650000D01*
X123249706Y-59669698D01*
X123005571Y-59728310D01*
X122773617Y-59824388D01*
X122773605Y-59824394D01*
X122559549Y-59955569D01*
X122559547Y-59955570D01*
X122368638Y-60118620D01*
X122368620Y-60118638D01*
X122205570Y-60309547D01*
X122205569Y-60309549D01*
X122074394Y-60523605D01*
X122074388Y-60523617D01*
X121978310Y-60755571D01*
X121919698Y-60999706D01*
X121900000Y-61250000D01*
X102500500Y-61250000D01*
X102500500Y-56963739D01*
X102519407Y-56905548D01*
X102568907Y-56869584D01*
X102630093Y-56869584D01*
X102679591Y-56905547D01*
X102779207Y-57042656D01*
X102957344Y-57220793D01*
X103161155Y-57368870D01*
X103385621Y-57483241D01*
X103625215Y-57561090D01*
X103625216Y-57561090D01*
X103625219Y-57561091D01*
X103874035Y-57600500D01*
X103874038Y-57600500D01*
X104125965Y-57600500D01*
X104374780Y-57561091D01*
X104374781Y-57561090D01*
X104374785Y-57561090D01*
X104614379Y-57483241D01*
X104838845Y-57368870D01*
X105042656Y-57220793D01*
X105220793Y-57042656D01*
X105368870Y-56838845D01*
X105483241Y-56614379D01*
X105561090Y-56374785D01*
X105600500Y-56125962D01*
X105600500Y-55874038D01*
X105600500Y-55874034D01*
X105561091Y-55625219D01*
X105561090Y-55625215D01*
X105483241Y-55385621D01*
X105368870Y-55161155D01*
X105220793Y-54957344D01*
X105042656Y-54779207D01*
X104905547Y-54679591D01*
X104869584Y-54630093D01*
X104869584Y-54568907D01*
X104905548Y-54519407D01*
X104963739Y-54500500D01*
X142036261Y-54500500D01*
X142094452Y-54519407D01*
G37*
%TD.AperFunction*%
%TD*%
M02*
