M48
; DRILL file KiCad 10.0.1 date 2026-07-07T13:58:51
; FORMAT={-:-/ absolute / inch / decimal}
; #@! TF.CreationDate,2026-07-07T13:58:51+01:00
; #@! TF.GenerationSoftware,Kicad,Pcbnew,10.0.1
; #@! TF.FileFunction,Plated,1,4,PTH
FMAT,2
INCH
; #@! TA.AperFunction,Plated,PTH,ViaDrill
T1C0.0098
; #@! TA.AperFunction,Plated,PTH,ViaDrill
T2C0.0157
; #@! TA.AperFunction,Plated,PTH,ViaDrill
T3C0.0197
%
G90
G05
T1
X0.0295Y3.1693
X0.0354Y0.6181
X0.0484Y1.261
X0.0787Y3.5433
X0.0787Y0.1969
X0.0819Y2.5079
X0.0866Y1.4469
X0.0866Y0.8819
X0.0866Y0.6083
X0.0886Y2.5787
X0.0945Y0.3386
X0.1063Y2.6339
X0.1102Y1.1929
X0.1207Y3.153
X0.122Y2.687
X0.1287Y1.6421
X0.1378Y1.3189
X0.1413Y2.7779
X0.1575Y1.5039
X0.1693Y3.374
X0.1717Y1.7787
X0.1752Y2.7028
X0.1772Y3.0866
X0.1862Y3.0181
X0.189Y3.0512
X0.1929Y0.9941
X0.1969Y1.5866
X0.1969Y0.1575
X0.1969Y0.0787
X0.2047Y1.1929
X0.2087Y2.9232
X0.2088Y2.7952
X0.2122Y0.9449
X0.2126Y0.374
X0.2283Y2.7323
X0.2362Y3.1567
X0.2441Y3.311
X0.2441Y2.6732
X0.2441Y2.5472
X0.248Y1.3465
X0.248Y1.2992
X0.2499Y0.9183
X0.2606Y2.7264
X0.2756Y3.6614
X0.2756Y1.1929
X0.2795Y1.0039
X0.2868Y3.0653
X0.2874Y3.1496
X0.2913Y2.6181
X0.2953Y1.5866
X0.2992Y2.2953
X0.2992Y1.4173
X0.311Y2.8228
X0.313Y1.2067
X0.315Y0.374
X0.3209Y2.3622
X0.3465Y1.6339
X0.3472Y0.0378
X0.3531Y1.761
X0.3543Y3.1186
X0.3543Y2.3937
X0.3543Y0.8622
X0.3563Y1.2067
X0.3579Y1.8134
X0.3602Y1.124
X0.3622Y2.6024
X0.3622Y1.7248
X0.3622Y1.6811
X0.3738Y2.9941
X0.3819Y3.2402
X0.3898Y3.4134
X0.3898Y2.5276
X0.3917Y0.574
X0.3976Y1.5866
X0.3988Y0.1524
X0.4055Y2.9646
X0.4193Y0.6791
X0.4213Y0.8268
X0.4232Y3.1201
X0.4252Y2.8858
X0.4266Y2.9404
X0.437Y1.811
X0.4449Y0.8583
X0.4488Y2.7953
X0.45Y1.6724
X0.4528Y2.7598
X0.4528Y2.1654
X0.4567Y1.1594
X0.4602Y1.2673
X0.4606Y3.124
X0.4606Y1.2283
X0.4606Y1.0827
X0.4606Y0.811
X0.4606Y0.5866
X0.4675Y2.7323
X0.4724Y1.7362
X0.4724Y1.7008
X0.4764Y3.1555
X0.4764Y2.9764
X0.4921Y2.2835
X0.4926Y2.2047
X0.5039Y3.374
X0.5039Y2.8031
X0.5039Y2.7087
X0.5118Y3.6614
X0.5118Y3.3268
X0.5118Y2.8524
X0.5118Y2.6535
X0.5118Y2.3425
X0.5118Y1.0433
X0.5118Y1.0138
X0.5118Y0.9843
X0.5118Y0.9547
X0.5118Y0.9252
X0.5217Y1.9035
X0.5276Y2.4567
X0.5457Y2.9587
X0.5472Y1.0433
X0.5472Y1.0138
X0.5472Y0.9843
X0.5472Y0.9547
X0.5472Y0.9252
X0.5512Y2.7559
X0.5512Y1.1772
X0.5591Y0.8524
X0.5689Y2.937
X0.5787Y1.0433
X0.5787Y1.0138
X0.5787Y0.9843
X0.5787Y0.9547
X0.5787Y0.9252
X0.5984Y2.8031
X0.5984Y2.7087
X0.6063Y2.378
X0.6102Y1.0433
X0.6102Y1.0138
X0.6102Y0.9843
X0.6102Y0.9547
X0.6102Y0.9252
X0.6142Y1.4055
X0.6248Y1.9091
X0.6299Y3.2697
X0.6319Y2.6949
X0.6358Y2.7628
X0.6457Y1.7244
X0.6457Y1.0433
X0.6457Y1.0138
X0.6457Y0.9843
X0.6457Y0.9547
X0.6457Y0.9252
X0.6476Y2.8524
X0.6522Y2.7329
X0.6535Y0.7047
X0.6535Y0.6732
X0.6591Y2.0606
X0.6614Y3.0185
X0.6768Y2.6024
X0.6772Y3.0886
X0.6839Y2.1972
X0.687Y3.0366
X0.687Y2.5079
X0.6929Y1.0787
X0.7094Y0.572
X0.7126Y2.6024
X0.7136Y3.0165
X0.7224Y3.5351
X0.7421Y2.4626
X0.752Y3.1614
X0.7559Y0.748
X0.7618Y1.8189
X0.7638Y3.3421
X0.7677Y3.0689
X0.7795Y2.9843
X0.7953Y2.3031
X0.7953Y2.252
X0.8031Y2.185
X0.8031Y0.7067
X0.8071Y1.1772
X0.8091Y0.876
X0.8189Y2.3228
X0.8189Y2.2795
X0.8213Y0.0504
X0.8268Y3.5354
X0.8307Y2.8701
X0.8465Y3.0472
X0.8465Y2.7795
X0.8465Y2.7402
X0.8489Y1.8519
X0.8504Y2.185
X0.8524Y1.748
X0.8524Y0.7461
X0.8543Y3.189
X0.8563Y2.624
X0.8563Y2.5827
X0.8563Y2.5433
X0.8661Y2.315
X0.8701Y1.2913
X0.876Y2.2087
X0.878Y0.9941
X0.8823Y0.9346
X0.9043Y0.2661
X0.9055Y2.4646
X0.9189Y0.3075
X0.9331Y3.1535
X0.9331Y2.8701
X0.9331Y1.1772
X0.935Y1.4469
X0.9366Y0.9291
X0.9449Y2.3504
X0.9449Y0.2756
X0.9693Y0.9937
X0.9701Y0.4236
X0.9843Y3.2087
X0.9843Y0.2756
X0.9902Y2.9075
X0.9961Y1.8504
X1.0118Y0.5256
X1.0236Y2.3701
X1.0236Y0.8504
X1.0315Y2.6654
X1.0394Y3.4134
X1.0394Y2.2835
X1.0394Y0.4154
X1.063Y2.8465
X1.0756Y0.2795
X1.0787Y3.5354
X1.1024Y1.7283
X1.1142Y2.9449
X1.126Y3.1172
X1.1299Y3.1772
X1.1343Y0.4268
X1.1437Y2.3366
X1.1496Y0.3346
X1.1535Y1.9331
X1.1811Y3.6614
X1.185Y3.0591
X1.1949Y1.8287
X1.2008Y3.0866
X1.2047Y3.5118
X1.2047Y3.4803
X1.2047Y2.5591
X1.2126Y2.7559
X1.2126Y2.6654
X1.2126Y1.5551
X1.2205Y3.1113
X1.2362Y3.5118
X1.2362Y3.4803
X1.2362Y2.0827
X1.2402Y0.6024
X1.252Y2.3031
X1.252Y1.6614
X1.2559Y3.1457
X1.2559Y2.1681
X1.2598Y1.6142
X1.2598Y0.2165
X1.2677Y3.5118
X1.2677Y3.4803
X1.2776Y3.3819
X1.2835Y3.2835
X1.2904Y1.7677
X1.2913Y3.1378
X1.2917Y0.0591
X1.2933Y3.0512
X1.2992Y1.8898
X1.3071Y2.7559
X1.3071Y2.6575
X1.315Y2.8701
X1.3209Y3.5079
X1.3504Y3.5079
X1.3579Y2.2638
X1.3661Y2.0039
X1.3661Y1.9685
X1.3701Y3.2008
X1.376Y0.4252
X1.3848Y2.2286
X1.3898Y3.1142
X1.3976Y3.0276
X1.4016Y3.4724
X1.4016Y2.9055
X1.4055Y2.0039
X1.4055Y1.9685
X1.4094Y3.2018
X1.4134Y2.6024
X1.4173Y2.2795
X1.4439Y2.1211
X1.4449Y2.0039
X1.4449Y1.9685
X1.4488Y3.5118
X1.4488Y2.4843
X1.4567Y0.1181
X1.4606Y3.3071
X1.4685Y1.5157
X1.4685Y1.4291
X1.4685Y0.2992
X1.4921Y2.4646
X1.498Y2.7913
X1.5Y0.2992
X1.5315Y0.2992
X1.5354Y3.0669
X1.5433Y2.8937
X1.5512Y2.6299
X1.5551Y1.5157
X1.5551Y1.4291
X1.5866Y2.0157
X1.5925Y2.1693
X1.6024Y2.8819
X1.6085Y2.6378
X1.6142Y3.2677
X1.6201Y2.4823
X1.6213Y0.2377
X1.6378Y3.0512
X1.6614Y2.8346
T2
X0.5344Y3.1821
X0.6993Y3.2989
X1.159Y1.7111
X1.3543Y1.8465
T3
X0.4976Y1.502
X0.5976Y1.5748
X0.7441Y2.5039
X0.8268Y0.626
X0.8543Y1.6024
X0.8661Y1.6929
X0.9252Y2.3012
X0.9843Y0.4724
X1.063Y2.2047
X1.1024Y1.1417
X1.1772Y2.239
X1.2563Y3.0197
X1.2756Y2.1237
X1.2785Y2.2413
X1.2992Y1.3386
X1.3071Y0.8071
X1.3083Y1.1563
X1.3386Y2.378
X1.3838Y2.1237
X1.4961Y1.1417
M30
