%TF.GenerationSoftware,KiCad,Pcbnew,8.0.5*%
%TF.CreationDate,2024-12-05T16:17:05-05:00*%
%TF.ProjectId,oe-commutator-controller,6f652d63-6f6d-46d7-9574-61746f722d63,F*%
%TF.SameCoordinates,Original*%
%TF.FileFunction,Soldermask,Top*%
%TF.FilePolarity,Negative*%
%FSLAX46Y46*%
G04 Gerber Fmt 4.6, Leading zero omitted, Abs format (unit mm)*
G04 Created by KiCad (PCBNEW 8.0.5) date 2024-12-05 16:17:05*
%MOMM*%
%LPD*%
G01*
G04 APERTURE LIST*
G04 Aperture macros list*
%AMRoundRect*
0 Rectangle with rounded corners*
0 $1 Rounding radius*
0 $2 $3 $4 $5 $6 $7 $8 $9 X,Y pos of 4 corners*
0 Add a 4 corners polygon primitive as box body*
4,1,4,$2,$3,$4,$5,$6,$7,$8,$9,$2,$3,0*
0 Add four circle primitives for the rounded corners*
1,1,$1+$1,$2,$3*
1,1,$1+$1,$4,$5*
1,1,$1+$1,$6,$7*
1,1,$1+$1,$8,$9*
0 Add four rect primitives between the rounded corners*
20,1,$1+$1,$2,$3,$4,$5,0*
20,1,$1+$1,$4,$5,$6,$7,0*
20,1,$1+$1,$6,$7,$8,$9,0*
20,1,$1+$1,$8,$9,$2,$3,0*%
G04 Aperture macros list end*
%ADD10C,1.600000*%
%ADD11RoundRect,0.200000X-0.275000X0.200000X-0.275000X-0.200000X0.275000X-0.200000X0.275000X0.200000X0*%
%ADD12RoundRect,0.135000X-0.135000X-0.185000X0.135000X-0.185000X0.135000X0.185000X-0.135000X0.185000X0*%
%ADD13R,1.000000X3.150000*%
%ADD14RoundRect,0.225000X-0.250000X0.225000X-0.250000X-0.225000X0.250000X-0.225000X0.250000X0.225000X0*%
%ADD15RoundRect,0.140000X-0.170000X0.140000X-0.170000X-0.140000X0.170000X-0.140000X0.170000X0.140000X0*%
%ADD16RoundRect,0.140000X0.140000X0.170000X-0.140000X0.170000X-0.140000X-0.170000X0.140000X-0.170000X0*%
%ADD17C,2.000000*%
%ADD18C,2.700000*%
%ADD19RoundRect,0.225000X0.250000X-0.225000X0.250000X0.225000X-0.250000X0.225000X-0.250000X-0.225000X0*%
%ADD20RoundRect,0.250000X-0.475000X0.250000X-0.475000X-0.250000X0.475000X-0.250000X0.475000X0.250000X0*%
%ADD21RoundRect,0.200000X-0.200000X-0.275000X0.200000X-0.275000X0.200000X0.275000X-0.200000X0.275000X0*%
%ADD22RoundRect,0.135000X0.135000X0.185000X-0.135000X0.185000X-0.135000X-0.185000X0.135000X-0.185000X0*%
%ADD23RoundRect,0.135000X0.185000X-0.135000X0.185000X0.135000X-0.185000X0.135000X-0.185000X-0.135000X0*%
%ADD24RoundRect,0.200000X0.200000X0.275000X-0.200000X0.275000X-0.200000X-0.275000X0.200000X-0.275000X0*%
%ADD25RoundRect,0.150000X0.625000X-0.150000X0.625000X0.150000X-0.625000X0.150000X-0.625000X-0.150000X0*%
%ADD26RoundRect,0.250000X0.650000X-0.350000X0.650000X0.350000X-0.650000X0.350000X-0.650000X-0.350000X0*%
%ADD27RoundRect,0.140000X-0.140000X-0.170000X0.140000X-0.170000X0.140000X0.170000X-0.140000X0.170000X0*%
%ADD28RoundRect,0.135000X-0.185000X0.135000X-0.185000X-0.135000X0.185000X-0.135000X0.185000X0.135000X0*%
%ADD29RoundRect,0.250000X0.650000X-0.325000X0.650000X0.325000X-0.650000X0.325000X-0.650000X-0.325000X0*%
%ADD30RoundRect,0.080000X-0.620000X-0.320000X0.620000X-0.320000X0.620000X0.320000X-0.620000X0.320000X0*%
%ADD31RoundRect,0.250001X-0.799999X1.999999X-0.799999X-1.999999X0.799999X-1.999999X0.799999X1.999999X0*%
%ADD32RoundRect,0.062500X-0.062500X0.362500X-0.062500X-0.362500X0.062500X-0.362500X0.062500X0.362500X0*%
%ADD33RoundRect,0.062500X-0.362500X0.062500X-0.362500X-0.062500X0.362500X-0.062500X0.362500X0.062500X0*%
%ADD34R,4.100000X3.600000*%
%ADD35RoundRect,0.250000X0.312500X0.625000X-0.312500X0.625000X-0.312500X-0.625000X0.312500X-0.625000X0*%
%ADD36C,2.160000*%
%ADD37RoundRect,0.225000X-0.225000X-0.250000X0.225000X-0.250000X0.225000X0.250000X-0.225000X0.250000X0*%
%ADD38RoundRect,0.200000X0.275000X-0.200000X0.275000X0.200000X-0.275000X0.200000X-0.275000X-0.200000X0*%
%ADD39RoundRect,0.250001X1.999999X0.799999X-1.999999X0.799999X-1.999999X-0.799999X1.999999X-0.799999X0*%
%ADD40RoundRect,0.250000X-0.325000X-0.650000X0.325000X-0.650000X0.325000X0.650000X-0.325000X0.650000X0*%
%ADD41RoundRect,0.250000X0.475000X-0.250000X0.475000X0.250000X-0.475000X0.250000X-0.475000X-0.250000X0*%
%ADD42RoundRect,0.150000X0.150000X-0.512500X0.150000X0.512500X-0.150000X0.512500X-0.150000X-0.512500X0*%
%ADD43RoundRect,0.050000X-0.050000X0.387500X-0.050000X-0.387500X0.050000X-0.387500X0.050000X0.387500X0*%
%ADD44RoundRect,0.050000X-0.387500X0.050000X-0.387500X-0.050000X0.387500X-0.050000X0.387500X0.050000X0*%
%ADD45R,3.200000X3.200000*%
%ADD46C,0.650000*%
%ADD47RoundRect,0.150000X0.425000X-0.150000X0.425000X0.150000X-0.425000X0.150000X-0.425000X-0.150000X0*%
%ADD48RoundRect,0.075000X0.500000X-0.075000X0.500000X0.075000X-0.500000X0.075000X-0.500000X-0.075000X0*%
%ADD49RoundRect,0.250000X0.750000X-0.840000X0.750000X0.840000X-0.750000X0.840000X-0.750000X-0.840000X0*%
%ADD50RoundRect,0.127000X0.508000X1.463000X-0.508000X1.463000X-0.508000X-1.463000X0.508000X-1.463000X0*%
%ADD51RoundRect,0.250000X-0.312500X-0.625000X0.312500X-0.625000X0.312500X0.625000X-0.312500X0.625000X0*%
%ADD52RoundRect,0.150000X-0.650000X-0.150000X0.650000X-0.150000X0.650000X0.150000X-0.650000X0.150000X0*%
%ADD53R,2.380000X1.650000*%
%ADD54R,0.300000X0.650000*%
%ADD55R,2.480000X1.550000*%
%ADD56RoundRect,0.225000X0.225000X0.250000X-0.225000X0.250000X-0.225000X-0.250000X0.225000X-0.250000X0*%
%ADD57RoundRect,0.250000X-0.650000X0.325000X-0.650000X-0.325000X0.650000X-0.325000X0.650000X0.325000X0*%
%ADD58R,1.400000X1.200000*%
%ADD59RoundRect,0.140000X0.170000X-0.140000X0.170000X0.140000X-0.170000X0.140000X-0.170000X-0.140000X0*%
%ADD60RoundRect,0.100000X0.100000X-0.625000X0.100000X0.625000X-0.100000X0.625000X-0.100000X-0.625000X0*%
%ADD61R,2.850000X1.650000*%
%ADD62RoundRect,0.105000X-0.420000X0.595000X-0.420000X-0.595000X0.420000X-0.595000X0.420000X0.595000X0*%
%ADD63RoundRect,0.250000X0.250000X0.475000X-0.250000X0.475000X-0.250000X-0.475000X0.250000X-0.475000X0*%
%ADD64R,2.100000X1.400000*%
G04 APERTURE END LIST*
D10*
X124300000Y-61250000D02*
G75*
G02*
X122700000Y-61250000I-800000J0D01*
G01*
X122700000Y-61250000D02*
G75*
G02*
X124300000Y-61250000I800000J0D01*
G01*
D11*
%TO.C,R30*%
X116250000Y-71325000D03*
X116250000Y-72975000D03*
%TD*%
D12*
%TO.C,R4*%
X123890000Y-80500000D03*
X124910000Y-80500000D03*
%TD*%
D13*
%TO.C,J1*%
X117180000Y-110850000D03*
X117180000Y-115900000D03*
X114640000Y-110850000D03*
X114640000Y-115900000D03*
X112100000Y-110850000D03*
X112100000Y-115900000D03*
X109560000Y-110850000D03*
X109560000Y-115900000D03*
X107020000Y-110850000D03*
X107020000Y-115900000D03*
%TD*%
D14*
%TO.C,C39*%
X134500000Y-66725000D03*
X134500000Y-68275000D03*
%TD*%
D12*
%TO.C,R9*%
X135760000Y-77300000D03*
X134740000Y-77300000D03*
%TD*%
D15*
%TO.C,C15*%
X106100000Y-77820000D03*
X106100000Y-78780000D03*
%TD*%
D16*
%TO.C,C6*%
X110380000Y-79600000D03*
X109420000Y-79600000D03*
%TD*%
D17*
%TO.C,TP1*%
X135100000Y-85700000D03*
%TD*%
D18*
%TO.C,H3*%
X143000000Y-56000000D03*
%TD*%
D11*
%TO.C,R1*%
X116500000Y-68175000D03*
X116500000Y-69825000D03*
%TD*%
D19*
%TO.C,C16*%
X114700000Y-71175000D03*
X114700000Y-69625000D03*
%TD*%
D20*
%TO.C,C30*%
X114700000Y-128450000D03*
X114700000Y-130350000D03*
%TD*%
D21*
%TO.C,R11*%
X135675000Y-107700000D03*
X137325000Y-107700000D03*
%TD*%
D22*
%TO.C,R35*%
X113156359Y-67130000D03*
X112136359Y-67130000D03*
%TD*%
D23*
%TO.C,R32*%
X109975000Y-73705000D03*
X109975000Y-72685000D03*
%TD*%
D24*
%TO.C,R14*%
X123725000Y-85700000D03*
X122075000Y-85700000D03*
%TD*%
D11*
%TO.C,R24*%
X132000000Y-68175000D03*
X132000000Y-69825000D03*
%TD*%
%TO.C,R13*%
X139600000Y-92475000D03*
X139600000Y-94125000D03*
%TD*%
D18*
%TO.C,H4*%
X104000000Y-56000000D03*
%TD*%
D22*
%TO.C,R34*%
X113155000Y-66175000D03*
X112135000Y-66175000D03*
%TD*%
D21*
%TO.C,R15*%
X139375000Y-105900000D03*
X141025000Y-105900000D03*
%TD*%
D25*
%TO.C,J4*%
X108725000Y-140500000D03*
X108725000Y-139500000D03*
X108725000Y-138500000D03*
D26*
X106200000Y-141800000D03*
X106200000Y-137200000D03*
%TD*%
D21*
%TO.C,R31*%
X111005000Y-86855000D03*
X112655000Y-86855000D03*
%TD*%
D27*
%TO.C,C4*%
X120320000Y-74000000D03*
X121280000Y-74000000D03*
%TD*%
%TO.C,C11*%
X121720000Y-79400000D03*
X122680000Y-79400000D03*
%TD*%
D28*
%TO.C,R28*%
X119390000Y-73230000D03*
X119390000Y-74250000D03*
%TD*%
D16*
%TO.C,C5*%
X115080000Y-74200000D03*
X114120000Y-74200000D03*
%TD*%
D29*
%TO.C,C26*%
X132400000Y-93575000D03*
X132400000Y-90625000D03*
%TD*%
D15*
%TO.C,C9*%
X119900000Y-83620000D03*
X119900000Y-84580000D03*
%TD*%
%TO.C,C14*%
X109760000Y-74920000D03*
X109760000Y-75880000D03*
%TD*%
%TO.C,C8*%
X118900000Y-83620000D03*
X118900000Y-84580000D03*
%TD*%
D12*
%TO.C,R6*%
X123890000Y-81500000D03*
X124910000Y-81500000D03*
%TD*%
D17*
%TO.C,TP4*%
X139500000Y-62400000D03*
%TD*%
D30*
%TO.C,D1*%
X120900000Y-60525000D03*
X126100000Y-60525000D03*
X126100000Y-61975000D03*
X120900000Y-61975000D03*
%TD*%
D20*
%TO.C,C29*%
X116700000Y-129750000D03*
X116700000Y-131650000D03*
%TD*%
D11*
%TO.C,R23*%
X129300000Y-68175000D03*
X129300000Y-69825000D03*
%TD*%
%TO.C,R2*%
X118000000Y-68175000D03*
X118000000Y-69825000D03*
%TD*%
D31*
%TO.C,C21*%
X124100000Y-111900000D03*
X124100000Y-119100000D03*
%TD*%
D15*
%TO.C,C27*%
X120200000Y-128220000D03*
X120200000Y-129180000D03*
%TD*%
D32*
%TO.C,U7*%
X118950000Y-121550000D03*
X118450000Y-121550000D03*
X117950000Y-121550000D03*
X117450000Y-121550000D03*
X116950000Y-121550000D03*
X116450000Y-121550000D03*
X115950000Y-121550000D03*
X115450000Y-121550000D03*
X114950000Y-121550000D03*
X114450000Y-121550000D03*
D33*
X113750000Y-122250000D03*
X113750000Y-122750000D03*
X113750000Y-123250000D03*
X113750000Y-123750000D03*
X113750000Y-124250000D03*
X113750000Y-124750000D03*
X113750000Y-125250000D03*
X113750000Y-125750000D03*
D32*
X114450000Y-126450000D03*
X114950000Y-126450000D03*
X115450000Y-126450000D03*
X115950000Y-126450000D03*
X116450000Y-126450000D03*
X116950000Y-126450000D03*
X117450000Y-126450000D03*
X117950000Y-126450000D03*
X118450000Y-126450000D03*
X118950000Y-126450000D03*
D33*
X119650000Y-125750000D03*
X119650000Y-125250000D03*
X119650000Y-124750000D03*
X119650000Y-124250000D03*
X119650000Y-123750000D03*
X119650000Y-123250000D03*
X119650000Y-122750000D03*
X119650000Y-122250000D03*
D34*
X116700000Y-124000000D03*
%TD*%
D27*
%TO.C,C32*%
X111520000Y-126400000D03*
X112480000Y-126400000D03*
%TD*%
D35*
%TO.C,R20*%
X110912500Y-123750000D03*
X107987500Y-123750000D03*
%TD*%
D36*
%TO.C,U5*%
X140410000Y-111620000D03*
X134070000Y-111620000D03*
X130890000Y-130680000D03*
X140410000Y-130680000D03*
%TD*%
D21*
%TO.C,R5*%
X120975000Y-72200000D03*
X122625000Y-72200000D03*
%TD*%
D37*
%TO.C,C1*%
X121325000Y-82700000D03*
X122875000Y-82700000D03*
%TD*%
D38*
%TO.C,R22*%
X112900000Y-130025000D03*
X112900000Y-128375000D03*
%TD*%
D39*
%TO.C,C24*%
X135600000Y-140000000D03*
X128400000Y-140000000D03*
%TD*%
D16*
%TO.C,C18*%
X135480000Y-82200000D03*
X134520000Y-82200000D03*
%TD*%
D18*
%TO.C,H2*%
X143000000Y-147000000D03*
%TD*%
D40*
%TO.C,C22*%
X129875000Y-108050000D03*
X132825000Y-108050000D03*
%TD*%
D16*
%TO.C,C31*%
X121780000Y-126500000D03*
X120820000Y-126500000D03*
%TD*%
D41*
%TO.C,C33*%
X122412500Y-130025000D03*
X122412500Y-128125000D03*
%TD*%
D16*
%TO.C,C28*%
X115180000Y-120100000D03*
X114220000Y-120100000D03*
%TD*%
D37*
%TO.C,C12*%
X121325000Y-84200000D03*
X122875000Y-84200000D03*
%TD*%
D27*
%TO.C,C3*%
X121720000Y-78400000D03*
X122680000Y-78400000D03*
%TD*%
D28*
%TO.C,R29*%
X118310000Y-73230000D03*
X118310000Y-74250000D03*
%TD*%
D24*
%TO.C,R19*%
X115025000Y-131900000D03*
X113375000Y-131900000D03*
%TD*%
D21*
%TO.C,R12*%
X130875000Y-133700000D03*
X132525000Y-133700000D03*
%TD*%
D42*
%TO.C,U9*%
X136350000Y-68837500D03*
X137300000Y-68837500D03*
X138250000Y-68837500D03*
X138250000Y-66562500D03*
X136350000Y-66562500D03*
%TD*%
D21*
%TO.C,R25*%
X106175000Y-72500000D03*
X107825000Y-72500000D03*
%TD*%
D29*
%TO.C,C20*%
X132400000Y-104075000D03*
X132400000Y-101125000D03*
%TD*%
D18*
%TO.C,H1*%
X104000000Y-147000000D03*
%TD*%
D23*
%TO.C,R26*%
X108500000Y-83460000D03*
X108500000Y-82440000D03*
%TD*%
D43*
%TO.C,U2*%
X118600000Y-75562500D03*
X118200000Y-75562500D03*
X117800000Y-75562500D03*
X117400000Y-75562500D03*
X117000000Y-75562500D03*
X116600000Y-75562500D03*
X116200000Y-75562500D03*
X115800000Y-75562500D03*
X115400000Y-75562500D03*
X115000000Y-75562500D03*
X114600000Y-75562500D03*
X114200000Y-75562500D03*
X113800000Y-75562500D03*
X113400000Y-75562500D03*
D44*
X112562500Y-76400000D03*
X112562500Y-76800000D03*
X112562500Y-77200000D03*
X112562500Y-77600000D03*
X112562500Y-78000000D03*
X112562500Y-78400000D03*
X112562500Y-78800000D03*
X112562500Y-79200000D03*
X112562500Y-79600000D03*
X112562500Y-80000000D03*
X112562500Y-80400000D03*
X112562500Y-80800000D03*
X112562500Y-81200000D03*
X112562500Y-81600000D03*
D43*
X113400000Y-82437500D03*
X113800000Y-82437500D03*
X114200000Y-82437500D03*
X114600000Y-82437500D03*
X115000000Y-82437500D03*
X115400000Y-82437500D03*
X115800000Y-82437500D03*
X116200000Y-82437500D03*
X116600000Y-82437500D03*
X117000000Y-82437500D03*
X117400000Y-82437500D03*
X117800000Y-82437500D03*
X118200000Y-82437500D03*
X118600000Y-82437500D03*
D44*
X119437500Y-81600000D03*
X119437500Y-81200000D03*
X119437500Y-80800000D03*
X119437500Y-80400000D03*
X119437500Y-80000000D03*
X119437500Y-79600000D03*
X119437500Y-79200000D03*
X119437500Y-78800000D03*
X119437500Y-78400000D03*
X119437500Y-78000000D03*
X119437500Y-77600000D03*
X119437500Y-77200000D03*
X119437500Y-76800000D03*
X119437500Y-76400000D03*
D45*
X116000000Y-79000000D03*
%TD*%
D38*
%TO.C,R3*%
X111900000Y-85455000D03*
X111900000Y-83805000D03*
%TD*%
D17*
%TO.C,TP6*%
X126100000Y-144050000D03*
%TD*%
%TO.C,TP2*%
X127200000Y-109100000D03*
%TD*%
D14*
%TO.C,C34*%
X118500000Y-129025000D03*
X118500000Y-130575000D03*
%TD*%
D28*
%TO.C,R27*%
X110200000Y-82790000D03*
X110200000Y-83810000D03*
%TD*%
D12*
%TO.C,R33*%
X107645000Y-68245000D03*
X108665000Y-68245000D03*
%TD*%
D21*
%TO.C,R18*%
X139375000Y-104100000D03*
X141025000Y-104100000D03*
%TD*%
D11*
%TO.C,R10*%
X138100000Y-92475000D03*
X138100000Y-94125000D03*
%TD*%
D46*
%TO.C,J2*%
X138720000Y-81890000D03*
X138720000Y-76110000D03*
D47*
X137645000Y-82200000D03*
X137645000Y-81400000D03*
D48*
X137645000Y-80250000D03*
X137645000Y-79250000D03*
X137645000Y-78750000D03*
X137645000Y-77750000D03*
D47*
X137645000Y-76600000D03*
X137645000Y-75800000D03*
X137645000Y-75800000D03*
X137645000Y-76600000D03*
D48*
X137645000Y-77250000D03*
X137645000Y-78250000D03*
X137645000Y-79750000D03*
X137645000Y-80750000D03*
D47*
X137645000Y-81400000D03*
X137645000Y-82200000D03*
D49*
X138220000Y-84110000D03*
X142150000Y-84110000D03*
X138220000Y-73890000D03*
X142150000Y-73890000D03*
%TD*%
D50*
%TO.C,J3*%
X121460000Y-136500000D03*
X118920000Y-140700000D03*
X116380000Y-136500000D03*
X113840000Y-140700000D03*
%TD*%
D51*
%TO.C,R21*%
X122450000Y-123750000D03*
X125375000Y-123750000D03*
%TD*%
D52*
%TO.C,U1*%
X124400000Y-72295000D03*
X124400000Y-73565000D03*
X124400000Y-74835000D03*
X124400000Y-76105000D03*
X131600000Y-76105000D03*
X131600000Y-74835000D03*
X131600000Y-73565000D03*
X131600000Y-72295000D03*
%TD*%
D17*
%TO.C,TP5*%
X104800000Y-67300000D03*
%TD*%
D27*
%TO.C,C10*%
X121720000Y-80400000D03*
X122680000Y-80400000D03*
%TD*%
D15*
%TO.C,C7*%
X115400000Y-84820000D03*
X115400000Y-85780000D03*
%TD*%
D17*
%TO.C,TP3*%
X138700000Y-134500000D03*
%TD*%
D32*
%TO.C,U8*%
X134405000Y-58767500D03*
X133905000Y-58767500D03*
X133405000Y-58767500D03*
X132905000Y-58767500D03*
X132405000Y-58767500D03*
X132405000Y-61667500D03*
X132905000Y-61667500D03*
X133405000Y-61667500D03*
X133905000Y-61667500D03*
X134405000Y-61667500D03*
D53*
X133405000Y-60217500D03*
%TD*%
D54*
%TO.C,U4*%
X110000000Y-71337500D03*
X110500000Y-71337500D03*
X111000000Y-71337500D03*
X111500000Y-71337500D03*
X112000000Y-71337500D03*
X112000000Y-68237500D03*
X111500000Y-68237500D03*
X111000000Y-68237500D03*
X110500000Y-68237500D03*
X110000000Y-68237500D03*
D55*
X111000000Y-69787500D03*
%TD*%
D16*
%TO.C,C2*%
X109980000Y-81000000D03*
X109020000Y-81000000D03*
%TD*%
D56*
%TO.C,C38*%
X136375000Y-70500000D03*
X134825000Y-70500000D03*
%TD*%
D57*
%TO.C,C23*%
X140100000Y-137025000D03*
X140100000Y-139975000D03*
%TD*%
D58*
%TO.C,Y1*%
X106100000Y-76400000D03*
X108300000Y-76400000D03*
X108300000Y-74800000D03*
X106100000Y-74800000D03*
%TD*%
D41*
%TO.C,C25*%
X135900000Y-94350000D03*
X135900000Y-92450000D03*
%TD*%
D21*
%TO.C,R16*%
X135675000Y-104100000D03*
X137325000Y-104100000D03*
%TD*%
D59*
%TO.C,C19*%
X113400000Y-71380000D03*
X113400000Y-70420000D03*
%TD*%
D60*
%TO.C,U6*%
X136085000Y-100740000D03*
X136735000Y-100740000D03*
X137385000Y-100740000D03*
X138035000Y-100740000D03*
X138685000Y-100740000D03*
X139335000Y-100740000D03*
X139335000Y-96440000D03*
X138685000Y-96440000D03*
X138035000Y-96440000D03*
X137385000Y-96440000D03*
X136735000Y-96440000D03*
X136085000Y-96440000D03*
D61*
X137710000Y-98590000D03*
%TD*%
D24*
%TO.C,R17*%
X137325000Y-105900000D03*
X135675000Y-105900000D03*
%TD*%
D12*
%TO.C,R8*%
X134490000Y-80400000D03*
X135510000Y-80400000D03*
%TD*%
D22*
%TO.C,R7*%
X110410000Y-78600000D03*
X109390000Y-78600000D03*
%TD*%
D62*
%TO.C,SW1*%
X142270000Y-96100000D03*
X142270000Y-99700000D03*
X143720000Y-99700000D03*
X143720000Y-96100000D03*
%TD*%
D59*
%TO.C,C13*%
X133110000Y-72280000D03*
X133110000Y-71320000D03*
%TD*%
D15*
%TO.C,C36*%
X135885000Y-58107500D03*
X135885000Y-59067500D03*
%TD*%
D20*
%TO.C,C37*%
X137595000Y-57857500D03*
X137595000Y-59757500D03*
%TD*%
D63*
%TO.C,C35*%
X122550000Y-64100000D03*
X124450000Y-64100000D03*
%TD*%
D64*
%TO.C,SW2*%
X106300000Y-60050000D03*
X117500000Y-60050000D03*
X106300000Y-64550000D03*
X117500000Y-64550000D03*
%TD*%
M02*
