M48
; DRILL file {KiCad 8.0.5} date 2024-12-05T16:17:18-0500
; FORMAT={-:-/ absolute / inch / decimal}
; #@! TF.CreationDate,2024-12-05T16:17:18-05:00
; #@! TF.GenerationSoftware,Kicad,Pcbnew,8.0.5
; #@! TF.FileFunction,Plated,1,4,PTH
FMAT,2
INCH
; #@! TA.AperFunction,Plated,PTH,ViaDrill
T1C0.0098
; #@! TA.AperFunction,Plated,PTH,ViaDrill
T2C0.0157
; #@! TA.AperFunction,Plated,PTH,ViaDrill
T3C0.0197
%
G90
G05
T1
X4.0551Y-3.4646
X4.0827Y-2.6063
X4.0827Y-2.6929
X4.0945Y-5.5276
X4.0945Y-5.6299
X4.122Y-2.5433
X4.128Y-2.9449
X4.1299Y-4.6732
X4.1339Y-3.8858
X4.1339Y-5.0394
X4.1575Y-4.9685
X4.1693Y-2.6063
X4.1772Y-2.9016
X4.1772Y-3.1319
X4.185Y-2.4921
X4.2047Y-3.1929
X4.2047Y-3.6339
X4.2087Y-3.1024
X4.2087Y-4.872
X4.2126Y-4.2795
X4.2283Y-5.4921
X4.2402Y-3.126
X4.2421Y-4.4783
X4.248Y-2.5394
X4.248Y-3.1614
X4.252Y-5.7205
X4.2598Y-3.189
X4.2638Y-3.0512
X4.2638Y-3.3268
X4.2677Y-5.7992
X4.2783Y-3.1339
X4.2815Y-4.4783
X4.2913Y-4.6732
X4.2913Y-5.2362
X4.2953Y-4.8622
X4.2994Y-2.8445
X4.3012Y-2.748
X4.3071Y-3.248
X4.311Y-3.0157
X4.311Y-4.2795
X4.315Y-4.0197
X4.3289Y-3.063
X4.3307Y-5.4921
X4.3425Y-3.5118
X4.3563Y-3.9803
X4.3701Y-2.7475
X4.3701Y-3.4724
X4.3701Y-5.315
X4.374Y-5.0
X4.374Y-5.7047
X4.378Y-3.2638
X4.3898Y-4.4783
X4.3917Y-2.9882
X4.4055Y-3.3386
X4.4075Y-4.2382
X4.4094Y-4.1614
X4.4134Y-4.2795
X4.4158Y-4.6874
X4.4213Y-4.0945
X4.4291Y-3.6693
X4.437Y-3.9843
X4.439Y-2.7461
X4.4488Y-5.6496
X4.4488Y-5.7874
X4.4646Y-3.0709
X4.4646Y-4.6102
X4.4685Y-3.1063
X4.4724Y-4.7067
X4.4748Y-4.252
X4.4764Y-2.7421
X4.4764Y-4.6378
X4.4764Y-4.7638
X4.4764Y-5.2795
X4.4833Y-3.1339
X4.4833Y-4.992
X4.4921Y-2.7106
X4.4921Y-2.8898
X4.4921Y-4.0945
X4.4961Y-4.1378
X4.5039Y-2.5827
X4.5079Y-4.685
X4.5118Y-3.6811
X4.5157Y-3.1614
X4.5197Y-2.4252
X4.5197Y-2.4606
X4.5197Y-2.4921
X4.5197Y-3.063
X4.5276Y-2.2047
X4.5276Y-4.8228
X4.5276Y-4.8524
X4.5276Y-4.8819
X4.5276Y-4.9114
X4.5276Y-4.9409
X4.5276Y-5.4331
X4.5354Y-2.6063
X4.5433Y-3.4094
X4.5614Y-2.9075
X4.563Y-3.7756
X4.563Y-4.8228
X4.563Y-4.8524
X4.563Y-4.8819
X4.563Y-4.9114
X4.563Y-4.9409
X4.5654Y-4.7189
X4.5669Y-3.1102
X4.5669Y-4.685
X4.5846Y-2.9291
X4.5906Y-3.6496
X4.5945Y-4.8228
X4.5945Y-4.8524
X4.5945Y-4.8819
X4.5945Y-4.9114
X4.5945Y-4.9409
X4.5945Y-5.2224
X4.6063Y-4.2323
X4.6142Y-3.063
X4.6142Y-3.1575
X4.622Y-3.4921
X4.626Y-4.8228
X4.626Y-4.8524
X4.626Y-4.8819
X4.626Y-4.9114
X4.626Y-4.9409
X4.6299Y-5.5906
X4.6378Y-3.6102
X4.6457Y-5.185
X4.6457Y-5.4331
X4.6614Y-4.8228
X4.6614Y-4.8524
X4.6614Y-4.8819
X4.6614Y-4.9114
X4.6614Y-4.9409
X4.6654Y-3.1811
X4.6673Y-3.0906
X4.6811Y-3.3622
X4.689Y-2.8504
X4.689Y-4.1339
X4.6929Y-2.7776
X4.7047Y-3.252
X4.7087Y-4.7874
X4.7205Y-2.8504
X4.7205Y-3.3622
X4.7224Y-3.8622
X4.7382Y-2.331
X4.75Y-3.7351
X4.7638Y-5.5906
X4.7677Y-2.7047
X4.7717Y-5.1181
X4.7835Y-2.7972
X4.7874Y-2.5315
X4.7953Y-2.8819
X4.8031Y-3.7008
X4.8031Y-4.0157
X4.811Y-3.6142
X4.8189Y-3.5591
X4.8189Y-5.1594
X4.8228Y-4.689
X4.8228Y-5.5512
X4.8248Y-4.9902
X4.8346Y-3.5335
X4.8346Y-3.5866
X4.8386Y-2.3307
X4.8465Y-2.9961
X4.8622Y-2.8189
X4.8622Y-3.0866
X4.8622Y-3.126
X4.8646Y-4.0142
X4.8661Y-3.6811
X4.8681Y-4.0984
X4.8681Y-5.1201
X4.8701Y-2.6772
X4.872Y-3.2421
X4.872Y-3.2835
X4.872Y-3.3228
X4.8819Y-3.5512
X4.8858Y-4.5748
X4.8917Y-3.6575
X4.8937Y-4.872
X4.9213Y-3.4016
X4.9213Y-5.5906
X4.937Y-4.9272
X4.9449Y-5.5315
X4.9488Y-2.7126
X4.9488Y-2.9961
X4.9488Y-4.689
X4.9508Y-4.4193
X4.9606Y-3.5157
X4.9606Y-5.5906
X5.0Y-2.6575
X5.0Y-5.5906
X5.0059Y-2.9587
X5.0118Y-4.0157
X5.0276Y-5.3406
X5.0315Y-2.4528
X5.0394Y-3.4961
X5.0394Y-5.0157
X5.0433Y-2.9213
X5.0551Y-3.5827
X5.0551Y-5.4508
X5.0551Y-5.5728
X5.0709Y-2.3307
X5.0787Y-3.0866
X5.1418Y-2.749
X5.1457Y-2.689
X5.1654Y-5.5315
X5.1693Y-3.9331
X5.1969Y-2.2047
X5.2008Y-2.8071
X5.2106Y-4.0374
X5.2126Y-3.5236
X5.2165Y-2.7795
X5.2205Y-2.3543
X5.2205Y-2.3858
X5.2283Y-4.1969
X5.2283Y-4.311
X5.2362Y-2.7548
X5.252Y-2.3543
X5.252Y-2.3858
X5.252Y-3.7835
X5.2559Y-5.2638
X5.2598Y-3.2362
X5.2677Y-3.563
X5.2717Y-2.7205
X5.2756Y-4.252
X5.2756Y-5.6496
X5.2756Y-5.7874
X5.2835Y-2.3543
X5.2835Y-2.3858
X5.2933Y-2.4843
X5.2992Y-2.5827
X5.3061Y-4.0984
X5.3071Y-2.7283
X5.3091Y-2.815
X5.315Y-3.9764
X5.3366Y-2.3583
X5.3661Y-2.3583
X5.3661Y-3.5984
X5.3858Y-2.6654
X5.3858Y-2.8583
X5.3858Y-2.9606
X5.3858Y-3.8642
X5.3858Y-3.8976
X5.3898Y-3.2638
X5.3898Y-3.3622
X5.3917Y-5.4409
X5.4006Y-3.6375
X5.4055Y-2.752
X5.4173Y-2.3937
X5.4213Y-3.8642
X5.4213Y-3.8976
X5.4252Y-2.6644
X5.4331Y-3.5866
X5.437Y-5.748
X5.4567Y-3.8642
X5.4567Y-3.8976
X5.46Y-3.7447
X5.4646Y-2.3543
X5.4764Y-2.5591
X5.4783Y-3.1102
X5.4843Y-4.3504
X5.4843Y-4.437
X5.4843Y-5.5669
X5.4921Y-2.9606
X5.4921Y-3.2598
X5.4921Y-3.3622
X5.4961Y-2.8583
X5.5157Y-5.5669
X5.5394Y-3.3622
X5.5433Y-2.8583
X5.5433Y-2.9606
X5.5433Y-3.2598
X5.5472Y-5.5669
X5.563Y-3.1102
X5.5709Y-4.3504
X5.5709Y-4.437
X5.6024Y-3.8504
X5.6371Y-5.6284
T2
X4.2459Y-2.7616
X4.7008Y-2.685
X4.7151Y-2.5673
X5.1747Y-4.155
X5.3701Y-4.0197
T3
X4.5134Y-4.252
X4.6134Y-4.2913
X4.7598Y-3.3622
X4.8425Y-5.2402
X4.8701Y-4.2638
X4.8819Y-4.1732
X5.0Y-5.3937
X5.002Y-3.5433
X5.0787Y-3.6614
X5.1181Y-4.7244
X5.1929Y-3.6272
X5.272Y-2.8465
X5.2913Y-3.7425
X5.2943Y-3.6248
X5.315Y-4.5276
X5.3228Y-5.0591
X5.3543Y-3.4646
X5.3996Y-3.7425
X5.5118Y-4.7244
M30
