%TF.GenerationSoftware,KiCad,Pcbnew,9.0.6*%
%TF.CreationDate,2026-04-07T17:03:59-04:00*%
%TF.ProjectId,oe-commutator-controller,6f652d63-6f6d-46d7-9574-61746f722d63,J*%
%TF.SameCoordinates,Original*%
%TF.FileFunction,Copper,L3,Inr*%
%TF.FilePolarity,Positive*%
%FSLAX46Y46*%
G04 Gerber Fmt 4.6, Leading zero omitted, Abs format (unit mm)*
G04 Created by KiCad (PCBNEW 9.0.6) date 2026-04-07 17:03:59*
%MOMM*%
%LPD*%
G01*
G04 APERTURE LIST*
%TA.AperFunction,ViaPad*%
%ADD10C,0.900000*%
%TD*%
%TA.AperFunction,ViaPad*%
%ADD11C,0.500000*%
%TD*%
%TA.AperFunction,ViaPad*%
%ADD12C,0.800000*%
%TD*%
G04 APERTURE END LIST*
D10*
%TO.N,GND*%
X135230000Y-119630000D03*
D11*
X137600000Y-75200000D03*
X115000000Y-123250000D03*
X138700000Y-99000000D03*
X111900000Y-62300000D03*
X143150000Y-85950000D03*
X130810000Y-138160000D03*
X118000000Y-65950003D03*
X109400000Y-82500000D03*
X136800000Y-67700000D03*
X115900000Y-124750000D03*
X138800000Y-59800000D03*
X107000000Y-108700000D03*
X113700000Y-134100000D03*
X113700000Y-128400000D03*
X118400000Y-125500000D03*
X115000000Y-89500000D03*
X115250000Y-100650000D03*
X131200000Y-140500000D03*
X104200000Y-133550000D03*
X106450000Y-80350000D03*
X133800000Y-106800000D03*
X104000000Y-59000000D03*
X142700000Y-75800000D03*
X115000000Y-122500000D03*
X116000000Y-79000000D03*
X139300000Y-141400000D03*
X137175000Y-92392525D03*
X126620000Y-123760000D03*
X135400000Y-76100000D03*
X123600000Y-93500000D03*
X113400000Y-78000000D03*
X128200000Y-81300000D03*
X129000000Y-76700000D03*
X134000000Y-143500000D03*
X132800000Y-109500000D03*
X124100000Y-116200000D03*
X142855000Y-82000000D03*
X120350000Y-59207864D03*
X120850000Y-86450000D03*
X117500000Y-125500000D03*
X124970000Y-142240000D03*
X139100000Y-65000000D03*
X141000000Y-71100000D03*
X106500000Y-70600000D03*
X116700000Y-125500000D03*
X115000000Y-124000000D03*
X137600000Y-60800000D03*
X139900000Y-86400000D03*
X105100000Y-80750000D03*
X134200000Y-59800000D03*
X106000000Y-110800000D03*
X109000000Y-118700000D03*
X118400000Y-124000000D03*
X123750000Y-82350000D03*
X129400000Y-59200000D03*
X139300000Y-112700000D03*
X106900000Y-123750000D03*
X108620000Y-79750000D03*
X135200000Y-79000000D03*
X115900000Y-123250000D03*
X107800000Y-79600000D03*
X142450000Y-93900000D03*
X108346992Y-125674521D03*
X132500000Y-70600000D03*
X115400000Y-86600000D03*
X116700000Y-124750000D03*
X141400000Y-82200000D03*
X131300000Y-99900000D03*
X134200000Y-60600000D03*
X132000000Y-56000000D03*
X115000000Y-124750000D03*
X121200000Y-130000000D03*
X128400000Y-62300000D03*
X137700000Y-98100000D03*
X111150000Y-120450000D03*
X138800000Y-85900000D03*
X115900000Y-124000000D03*
X113500000Y-94000000D03*
X124410000Y-125260000D03*
X138700000Y-98100000D03*
X117870000Y-100510000D03*
X114800000Y-80200000D03*
X133400000Y-59800000D03*
X104200000Y-112250000D03*
X132100000Y-71300000D03*
X107300000Y-74750000D03*
X113100000Y-103000000D03*
X108300000Y-116000000D03*
X140100000Y-141400000D03*
X135200000Y-81500000D03*
X106360000Y-103820000D03*
X110150000Y-89000000D03*
X140050000Y-78100000D03*
X108300000Y-114800000D03*
X133500000Y-133700000D03*
X123100000Y-76100000D03*
D10*
X140000000Y-120000000D03*
D11*
X108200000Y-84300000D03*
X135550000Y-59900000D03*
X127000000Y-67500000D03*
X123500000Y-79400000D03*
X104250000Y-83500000D03*
X134810000Y-147500000D03*
X111000000Y-127100000D03*
X114000000Y-105800000D03*
D10*
X135200000Y-128500000D03*
D11*
X126000000Y-142000000D03*
X134000000Y-108000000D03*
X108200000Y-81100000D03*
X104200000Y-126600000D03*
X123650000Y-130050000D03*
X111000000Y-88200000D03*
X114511091Y-93000000D03*
X117500000Y-122500000D03*
X126000000Y-89300000D03*
X111090000Y-102940000D03*
X125700000Y-119100000D03*
X109300000Y-69000000D03*
X114800000Y-63300000D03*
X141500000Y-110500000D03*
X122400000Y-131050000D03*
X116000000Y-119100000D03*
X132800000Y-79000000D03*
D10*
X135000000Y-115000000D03*
D11*
X113700000Y-69650000D03*
X117500000Y-123250000D03*
X113600000Y-119550000D03*
X144200000Y-77000000D03*
X118400000Y-122500000D03*
X112650000Y-131750000D03*
X115900000Y-125500000D03*
X133900000Y-93930000D03*
X122400000Y-93500000D03*
X104080000Y-85300000D03*
X134800000Y-69300000D03*
X118600000Y-131900000D03*
X119450000Y-71870000D03*
X120020000Y-134470000D03*
X106730000Y-72340000D03*
X117500000Y-124750000D03*
X125790000Y-125400000D03*
X127700000Y-135650000D03*
X143600000Y-71500000D03*
X128000000Y-127400000D03*
X104000000Y-144000000D03*
X142300000Y-97800000D03*
X110820000Y-148040000D03*
X139000000Y-146000000D03*
X111000000Y-69787500D03*
X122500000Y-119100000D03*
X112750000Y-69750000D03*
X119370000Y-93190000D03*
X137800000Y-67675000D03*
X119600000Y-121600000D03*
X130300000Y-74200000D03*
X113700000Y-121500000D03*
X132800000Y-81300000D03*
X122550000Y-126750000D03*
X109000000Y-56000000D03*
X135000000Y-101000000D03*
X136300000Y-59900000D03*
X137500000Y-72100000D03*
X121350000Y-102800000D03*
X130000000Y-105100000D03*
X111700000Y-66700000D03*
X136700000Y-99000000D03*
X119450000Y-85300000D03*
X109100000Y-123500000D03*
X129320000Y-141900000D03*
X128000000Y-88800000D03*
X132600000Y-60600000D03*
X112130000Y-145130000D03*
X123561091Y-101961091D03*
X111200000Y-105190000D03*
X108200000Y-64900000D03*
X136950000Y-138200000D03*
X136490000Y-91500000D03*
X111200000Y-82900000D03*
X131050000Y-89650000D03*
X107000000Y-145000000D03*
D10*
X130000000Y-120000000D03*
D11*
X137900000Y-82900000D03*
X102750000Y-68500000D03*
X125750000Y-112250000D03*
X141200000Y-75500000D03*
X103230000Y-116970000D03*
X132600000Y-84000000D03*
X109600000Y-113000000D03*
X121400000Y-64110000D03*
X104400000Y-140400000D03*
X127000000Y-142000000D03*
X105064576Y-68913843D03*
X133400000Y-96100000D03*
X133900000Y-69100000D03*
X115900000Y-122500000D03*
X107390000Y-125000000D03*
X115000000Y-56000000D03*
X118740000Y-96660000D03*
X143181976Y-142961182D03*
X143000000Y-66000000D03*
X107400000Y-139500000D03*
X118400000Y-124750000D03*
X128400000Y-91000000D03*
X123750000Y-83400000D03*
X109600000Y-90700000D03*
X110000000Y-139500000D03*
X105590000Y-78441553D03*
X118400000Y-123250000D03*
X140900000Y-141400000D03*
X117500000Y-124000000D03*
X104800000Y-118700000D03*
X122200000Y-90500000D03*
X126640000Y-138240000D03*
X113700000Y-117800000D03*
X121100000Y-68700000D03*
X132350000Y-102550000D03*
X125700000Y-76100000D03*
X133400000Y-60600000D03*
X134850000Y-71500000D03*
X125000000Y-86400000D03*
X124300000Y-123750000D03*
X111950000Y-134420000D03*
X132600000Y-59800000D03*
X106300000Y-63300000D03*
X115000000Y-125500000D03*
X123650000Y-104600000D03*
X117200000Y-80200000D03*
X114800000Y-77800000D03*
X134775000Y-104100000D03*
X128400000Y-138450000D03*
X117200000Y-77800000D03*
X104700000Y-82100000D03*
X114100000Y-73400000D03*
X123750000Y-84400000D03*
X116700000Y-123250000D03*
X109900000Y-77300000D03*
X121800000Y-73200000D03*
X122200000Y-91800000D03*
X117400000Y-88600000D03*
X107302494Y-78001247D03*
X136700000Y-98100000D03*
X112100000Y-108700000D03*
X110800000Y-107500000D03*
X105500000Y-115500000D03*
X134450000Y-63100000D03*
X107000000Y-147000000D03*
X118400000Y-105200000D03*
X134600000Y-65600000D03*
X114500000Y-91000000D03*
X141500000Y-112700000D03*
X139300000Y-110500000D03*
X122860000Y-147720000D03*
X114100000Y-68850000D03*
X117600000Y-113300000D03*
X127300000Y-102000000D03*
X130700000Y-68300000D03*
X105270000Y-107290000D03*
X137700000Y-99000000D03*
X116700000Y-122500000D03*
X123000000Y-59200000D03*
X123500000Y-78400000D03*
X133800000Y-90500000D03*
X109500000Y-108700000D03*
X137300000Y-69900000D03*
X102900000Y-133300000D03*
X125340000Y-141190000D03*
X118600000Y-131100000D03*
X116700000Y-124000000D03*
D12*
%TO.N,+5V*%
X131437500Y-105537500D03*
X136400000Y-102100000D03*
D11*
%TO.N,+3.3V*%
X115000000Y-76550000D03*
X130601409Y-69823591D03*
X120100000Y-82900000D03*
X111900000Y-84800000D03*
X118450000Y-76550000D03*
D10*
X124000000Y-106000000D03*
D12*
X115575000Y-68175000D03*
D10*
X125500000Y-90550000D03*
D11*
X133000000Y-69971734D03*
X118565853Y-79585459D03*
D10*
X114640000Y-110850000D03*
D12*
X119763051Y-65208282D03*
D10*
X133910000Y-72300000D03*
D11*
X108000000Y-68820000D03*
X119191364Y-82900000D03*
X115000000Y-81600000D03*
D10*
X120900000Y-85400000D03*
D11*
X113500000Y-78900000D03*
%TO.N,Net-(U2-VREG_VOUT)*%
X113875000Y-79600000D03*
X118150000Y-78825001D03*
X118050000Y-80550000D03*
D10*
%TO.N,VBUS*%
X134475000Y-92070000D03*
X131900000Y-92130000D03*
X117180000Y-109000000D03*
X129000000Y-93000000D03*
X123700000Y-108300000D03*
X136000000Y-88600000D03*
%TO.N,Net-(U6-VMID)*%
X134400000Y-95058568D03*
X137148833Y-95058568D03*
D11*
%TO.N,Net-(J1-Pin_2)*%
X110970000Y-104270000D03*
X114000000Y-104900000D03*
%TO.N,Net-(J1-Pin_4)*%
X113430000Y-106520000D03*
X111200000Y-106300000D03*
%TO.N,/MCU/QSPI_{~{CS}}*%
X123700000Y-68000000D03*
X123500000Y-71600000D03*
%TO.N,/MCU/LTC44_{~{PFO}}*%
X138675000Y-95125000D03*
X138000000Y-91100000D03*
%TO.N,/MCU/IS31_{BM}*%
X115860000Y-73850000D03*
X119200000Y-70550000D03*
%TO.N,/MCU/IS31_{EN}*%
X121500000Y-71050000D03*
X116450000Y-74400000D03*
%TO.N,/Touch Sensors/CCW*%
X112800000Y-75700000D03*
X109283451Y-71141640D03*
%TO.N,/Touch Sensors/MODE*%
X115000000Y-64500000D03*
%TO.N,/Touch Sensors/CW*%
X125700000Y-68900000D03*
X127150000Y-75150000D03*
%TO.N,/Touch Sensors/STOP*%
X107200000Y-118700000D03*
%TO.N,/MCU/TMC_{~{CS}}*%
X122800000Y-91100000D03*
X124250000Y-92900000D03*
%TO.N,/MCU/SCLK*%
X122800000Y-90000000D03*
X124000000Y-90200000D03*
%TO.N,/MCU/TMC_{~{EN}}*%
X113689998Y-116810002D03*
X116200000Y-127350000D03*
%TO.N,/MCU/ALERT#*%
X106800000Y-71500000D03*
X111494894Y-72949976D03*
D10*
%TO.N,+12V*%
X123000000Y-133100000D03*
X127000000Y-137000000D03*
D11*
%TO.N,/MCU/UART0_RX*%
X118800000Y-72330000D03*
X112300000Y-73700000D03*
%TO.N,/MCU/UART0_TX*%
X120125000Y-72379942D03*
X112836091Y-74313909D03*
%TO.N,/MCU/TMC_{DIAG1}*%
X109950000Y-118350000D03*
X112700000Y-128000000D03*
%TO.N,/MCU/TMC_{DIAG0}*%
X113300000Y-127200000D03*
X111050000Y-118350000D03*
%TD*%
M02*
