%TF.GenerationSoftware,KiCad,Pcbnew,10.0.1*%
%TF.CreationDate,2026-07-07T13:59:25+01:00*%
%TF.ProjectId,oe-commutator-controller,6f652d63-6f6d-46d7-9574-61746f722d63,J*%
%TF.SameCoordinates,PX6146580PY8e18f40*%
%TF.FileFunction,Copper,L2,Inr*%
%TF.FilePolarity,Positive*%
%FSLAX46Y46*%
G04 Gerber Fmt 4.6, Leading zero omitted, Abs format (unit mm)*
G04 Created by KiCad (PCBNEW 10.0.1) date 2026-07-07 13:59:25*
%MOMM*%
%LPD*%
G01*
G04 APERTURE LIST*
%TA.AperFunction,ViaPad*%
%ADD10C,0.500000*%
%TD*%
%TA.AperFunction,ViaPad*%
%ADD11C,0.900000*%
%TD*%
%TA.AperFunction,ViaPad*%
%ADD12C,0.800000*%
%TD*%
%TA.AperFunction,Conductor*%
%ADD13C,1.000000*%
%TD*%
%TA.AperFunction,Conductor*%
%ADD14C,0.500000*%
%TD*%
%TA.AperFunction,Conductor*%
%ADD15C,0.200000*%
%TD*%
%TA.AperFunction,Conductor*%
%ADD16C,0.400000*%
%TD*%
%TA.AperFunction,Conductor*%
%ADD17C,0.250000*%
%TD*%
G04 APERTURE END LIST*
D10*
%TO.N,GND*%
X35600000Y73800000D03*
X13000000Y25750000D03*
X36700000Y50000000D03*
X9900000Y86700000D03*
X41150000Y63050000D03*
X28810000Y10840000D03*
X16000000Y83049997D03*
X7400000Y66500000D03*
X34800000Y81300000D03*
X13900000Y24250000D03*
X36800000Y89200000D03*
X5000000Y40300000D03*
X11700000Y14900000D03*
X11700000Y20600000D03*
X16400000Y23500000D03*
X13000000Y59500000D03*
X13250000Y48350000D03*
X29200000Y8500000D03*
X2200000Y15450000D03*
X4450000Y68650000D03*
X31800000Y42200000D03*
X2000000Y90000000D03*
X40700000Y73200000D03*
X13000000Y26500000D03*
X14000000Y70000000D03*
X37300000Y7600000D03*
X35175000Y56607475D03*
X24620000Y25240000D03*
X33400000Y72900000D03*
X21600000Y55500000D03*
X11400000Y71000000D03*
X26200000Y67700000D03*
X27000000Y72300000D03*
X32000000Y5500000D03*
X30800000Y39500000D03*
X22100000Y32800000D03*
X40855000Y67000000D03*
X18350000Y89792136D03*
X18850000Y62550000D03*
X15500000Y23500000D03*
X22970000Y6760000D03*
X37100000Y84000000D03*
X39000000Y77900000D03*
X4500000Y78400000D03*
X14700000Y23500000D03*
X13000000Y25000000D03*
X35600000Y88200000D03*
X37900000Y62600000D03*
X3100000Y68250000D03*
X32200000Y89200000D03*
X4000000Y38200000D03*
X7000000Y30300000D03*
X16400000Y25000000D03*
X21750000Y66650000D03*
X27400000Y89800000D03*
X37300000Y36300000D03*
X4900000Y25250000D03*
X6620000Y69250000D03*
X33200000Y70000000D03*
X13900000Y25750000D03*
X5800000Y69400000D03*
X40450000Y55100000D03*
X6346992Y23325479D03*
X30500000Y78400000D03*
X13400000Y62400000D03*
X14700000Y24250000D03*
X39400000Y66800000D03*
X29300000Y49100000D03*
X32200000Y88400000D03*
X30000000Y93000000D03*
X13000000Y24250000D03*
X19200000Y19000000D03*
X26400000Y86700000D03*
X35700000Y50900000D03*
X9150000Y28550000D03*
X36800000Y63100000D03*
X13900000Y25000000D03*
X11500000Y55000000D03*
X22410000Y23740000D03*
X36700000Y50900000D03*
X15870000Y48490000D03*
X12800000Y68800000D03*
X31400000Y89200000D03*
X2200000Y36750000D03*
X30100000Y77700000D03*
X5300000Y74250000D03*
X11100000Y46000000D03*
X6300000Y33000000D03*
X38100000Y7600000D03*
X33200000Y67500000D03*
X4360000Y45180000D03*
X8150000Y60000000D03*
X38050000Y70900000D03*
X6300000Y34200000D03*
X31500000Y15300000D03*
X21100000Y72900000D03*
D11*
X38000000Y29000000D03*
D10*
X6200000Y64700000D03*
X33550000Y89100000D03*
X25000000Y81500000D03*
X21500000Y69600000D03*
X2250000Y65500000D03*
X32810000Y1500000D03*
X9000000Y21900000D03*
X12000000Y43200000D03*
D11*
X33200000Y20500000D03*
D10*
X24000000Y7000000D03*
X32000000Y41000000D03*
X6200000Y67900000D03*
X2200000Y22400000D03*
X21650000Y18950000D03*
X9000000Y60800000D03*
X12511091Y56000000D03*
X15500000Y26500000D03*
X24000000Y59700000D03*
X9090000Y46060000D03*
X23700000Y29900000D03*
X7300000Y80000000D03*
X12800000Y85700000D03*
X39500000Y38500000D03*
X20400000Y17950000D03*
X14000000Y29900000D03*
X30800000Y70000000D03*
D11*
X33000000Y34000000D03*
D10*
X11700000Y79350000D03*
X15500000Y25750000D03*
X11600000Y29450000D03*
X42200000Y72000000D03*
X16400000Y26500000D03*
X10650000Y17250000D03*
X13900000Y23500000D03*
X31900000Y55070000D03*
X20400000Y55500000D03*
X2080000Y63700000D03*
X32800000Y79700000D03*
X16600000Y17100000D03*
X17450000Y77130000D03*
X18020000Y14530000D03*
X4730000Y76660000D03*
X15500000Y24250000D03*
X23790000Y23600000D03*
X25700000Y13350000D03*
X41600000Y77500000D03*
X26000000Y21600000D03*
X2000000Y5000000D03*
X40300000Y51200000D03*
X8820000Y960000D03*
X37000000Y3000000D03*
X9000000Y79212500D03*
X20500000Y29900000D03*
X10750000Y79250000D03*
X17370000Y55810000D03*
X35800000Y81325000D03*
X17600000Y27400000D03*
X28300000Y74800000D03*
X11700000Y27500000D03*
X30800000Y67700000D03*
X20550000Y22250000D03*
X7000000Y93000000D03*
X33000000Y48000000D03*
X34300000Y89100000D03*
X35500000Y76900000D03*
X19350000Y46200000D03*
X28000000Y43900000D03*
X9700000Y82300000D03*
X34700000Y50000000D03*
X17450000Y63700000D03*
X7100000Y25500000D03*
X27320000Y7100000D03*
X26000000Y60200000D03*
X30600000Y88400000D03*
X10130000Y3870000D03*
X21561091Y47038909D03*
X9200000Y43810000D03*
X6200000Y84100000D03*
X34950000Y10800000D03*
X34490000Y57500000D03*
X9200000Y66100000D03*
X29050000Y59350000D03*
X5000000Y4000000D03*
D11*
X28000000Y29000000D03*
D10*
X35900000Y66100000D03*
X750000Y80500000D03*
X23750000Y36750000D03*
X39200000Y73500000D03*
X1230000Y32030000D03*
X30600000Y65000000D03*
X7600000Y36000000D03*
X19400000Y84890000D03*
X2400000Y8600000D03*
X25000000Y7000000D03*
X3064576Y80086157D03*
X31400000Y52900000D03*
X31900000Y79900000D03*
X13900000Y26500000D03*
X5390000Y24000000D03*
X13000000Y93000000D03*
X16740000Y52340000D03*
X41181976Y6038818D03*
X41000000Y83000000D03*
X5400000Y9500000D03*
X16400000Y24250000D03*
X26400000Y58000000D03*
X21750000Y65600000D03*
X7600000Y58300000D03*
X8000000Y9500000D03*
X3590000Y70558447D03*
X16400000Y25750000D03*
X38900000Y7600000D03*
X15500000Y25000000D03*
X2800000Y30300000D03*
D11*
X33230000Y29370000D03*
D10*
X20200000Y58500000D03*
X24640000Y10760000D03*
X11700000Y31200000D03*
X19100000Y80300000D03*
X30350000Y46450000D03*
X23700000Y72900000D03*
X31400000Y88400000D03*
X32850000Y77500000D03*
X23000000Y62600000D03*
X22300000Y25250000D03*
X9950000Y14580000D03*
X30600000Y89200000D03*
X4300000Y85700000D03*
X13000000Y23500000D03*
X21650000Y44400000D03*
X15200000Y68800000D03*
X12800000Y71200000D03*
X32775000Y44900000D03*
X26400000Y10550000D03*
X15200000Y71200000D03*
X2700000Y66900000D03*
X12100000Y75600000D03*
X21750000Y64600000D03*
X14700000Y25750000D03*
X7900000Y71700000D03*
X19800000Y75800000D03*
X20200000Y57200000D03*
X15400000Y60400000D03*
X5302494Y70998753D03*
X34700000Y50900000D03*
X10100000Y40300000D03*
X8800000Y41500000D03*
X3500000Y33500000D03*
X32450000Y85900000D03*
X5000000Y2000000D03*
X16400000Y43800000D03*
X32600000Y83400000D03*
X12500000Y58000000D03*
X39500000Y36300000D03*
X37300000Y38500000D03*
X20860000Y1280000D03*
X12100000Y80150000D03*
X15600000Y35700000D03*
X25300000Y47000000D03*
X28700000Y80700000D03*
X3270000Y41710000D03*
X35700000Y50000000D03*
X14700000Y26500000D03*
X21000000Y89800000D03*
X21500000Y70600000D03*
X31800000Y58500000D03*
X7500000Y40300000D03*
X35300000Y79100000D03*
X900000Y15700000D03*
X23340000Y7810000D03*
X16600000Y17900000D03*
X14700000Y25000000D03*
D12*
%TO.N,+5V*%
X29437500Y43462500D03*
X34400000Y46900000D03*
D10*
%TO.N,+3.3V*%
X13000000Y72450000D03*
X28601409Y79176409D03*
X18100000Y66100000D03*
X9900000Y64200000D03*
X16450000Y72450000D03*
D11*
X22000000Y43000000D03*
D12*
X13575000Y80825000D03*
D11*
X23500000Y58450000D03*
D10*
X31000000Y79028266D03*
X16565853Y69414541D03*
D11*
X12640000Y38150000D03*
D12*
X17763051Y83791718D03*
D11*
X31910000Y76700000D03*
D10*
X6000000Y80180000D03*
X17191364Y66100000D03*
X13000000Y67400000D03*
D11*
X18900000Y63600000D03*
D10*
X11500000Y70100000D03*
%TO.N,Net-(U2-VREG_VOUT)*%
X11875000Y69400000D03*
X16150000Y70174999D03*
X16050000Y68450000D03*
D11*
%TO.N,VBUS*%
X32475000Y56930000D03*
X29900000Y56870000D03*
X15180000Y40000000D03*
X27000000Y56000000D03*
X21700000Y40700000D03*
X34000000Y60400000D03*
%TO.N,Net-(U6-VMID)*%
X32400000Y53941432D03*
X35148833Y53941432D03*
D10*
%TO.N,Net-(J1-Pin_2)*%
X8970000Y44730000D03*
X12000000Y44100000D03*
%TO.N,Net-(J1-Pin_4)*%
X11430000Y42480000D03*
X9200000Y42700000D03*
%TO.N,/MCU/QSPI_{~{CS}}*%
X21700000Y81000000D03*
X21500000Y77400000D03*
%TO.N,/MCU/LTC44_{~{PFO}}*%
X36675000Y53875000D03*
X36000000Y57900000D03*
%TO.N,/MCU/IS31_{BM}*%
X13860000Y75150000D03*
X17200000Y78450000D03*
%TO.N,/MCU/IS31_{EN}*%
X19500000Y77950000D03*
X14450000Y74600000D03*
%TO.N,/Touch Sensors/CCW*%
X10800000Y73300000D03*
X7283451Y77858360D03*
%TO.N,/Touch Sensors/MODE*%
X13000000Y84500000D03*
%TO.N,/Touch Sensors/CW*%
X23700000Y80100000D03*
X25150000Y73850000D03*
%TO.N,/Touch Sensors/STOP*%
X5200000Y30300000D03*
%TO.N,/MCU/TMC_{~{CS}}*%
X20800000Y57900000D03*
X22250000Y56100000D03*
%TO.N,/MCU/SCLK*%
X20800000Y59000000D03*
X22000000Y58800000D03*
%TO.N,/MCU/TMC_{~{EN}}*%
X11689998Y32189998D03*
X14200000Y21650000D03*
%TO.N,/MCU/ALERT#*%
X4800000Y77500000D03*
X9494894Y76050024D03*
D11*
%TO.N,+12V*%
X21000000Y15900000D03*
X25000000Y12000000D03*
D10*
%TO.N,/MCU/UART0_RX*%
X16800000Y76670000D03*
X10300000Y75300000D03*
%TO.N,/MCU/UART0_TX*%
X18125000Y76620058D03*
X10836091Y74686091D03*
%TO.N,/MCU/TMC_{DIAG1}*%
X7950000Y30650000D03*
X10700000Y21000000D03*
%TO.N,/MCU/TMC_{DIAG0}*%
X11300000Y21800000D03*
X9050000Y30650000D03*
%TD*%
%TO.N,+5V*%
D13*
X34400000Y46900000D02*
X32875000Y46900000D01*
X32875000Y46900000D02*
X29437500Y43462500D01*
%TO.N,+3.3V*%
X29350000Y74140000D02*
X29350000Y67893503D01*
X14440000Y42800000D02*
X21800000Y42800000D01*
D14*
X16850000Y69450000D02*
X16850000Y72250000D01*
X16850000Y69450000D02*
X16601312Y69450000D01*
X17191364Y66100000D02*
X18100000Y66100000D01*
X11174000Y69690364D02*
X11174000Y67726000D01*
X16850000Y67300000D02*
X16850000Y69450000D01*
X18250000Y65950000D02*
X18100000Y66100000D01*
D13*
X23500000Y58855082D02*
X23500000Y58450000D01*
D15*
X11075000Y66973000D02*
X11402000Y67300000D01*
D16*
X14796333Y80825000D02*
X17763051Y83791718D01*
D13*
X18900000Y63600000D02*
X21650000Y63600000D01*
D15*
X30851857Y79176409D02*
X28601409Y79176409D01*
D13*
X29350000Y67893503D02*
X25906497Y64450000D01*
D14*
X16751000Y67399000D02*
X16850000Y67300000D01*
X18250000Y64250000D02*
X18250000Y65950000D01*
X18900000Y63600000D02*
X18250000Y64250000D01*
D13*
X12640000Y38150000D02*
X12640000Y41000000D01*
X12640000Y41000000D02*
X14440000Y42800000D01*
D15*
X31000000Y79028266D02*
X30851857Y79176409D01*
D14*
X16850000Y67300000D02*
X16850000Y66441364D01*
X11200000Y69800000D02*
X11200000Y69716364D01*
D13*
X21650000Y60705082D02*
X23500000Y58855082D01*
D14*
X16650000Y72450000D02*
X13000000Y72450000D01*
D13*
X21650000Y63600000D02*
X21650000Y60705082D01*
D14*
X11200000Y69716364D02*
X11174000Y69690364D01*
X16850000Y66441364D02*
X17191364Y66100000D01*
D15*
X11402000Y67300000D02*
X11600000Y67300000D01*
D14*
X11174000Y67726000D02*
X11501000Y67399000D01*
D13*
X21650000Y63600000D02*
X25050000Y63600000D01*
D15*
X11075000Y65375000D02*
X11075000Y66973000D01*
D14*
X16850000Y72250000D02*
X16650000Y72450000D01*
D13*
X21800000Y42800000D02*
X22000000Y43000000D01*
D14*
X11501000Y67399000D02*
X16751000Y67399000D01*
D13*
X25900000Y64450000D02*
X25050000Y63600000D01*
X31910000Y76700000D02*
X29350000Y74140000D01*
D14*
X16565853Y69414541D02*
X16580394Y69400000D01*
D15*
X11050000Y65350000D02*
X9900000Y64200000D01*
D14*
X16601312Y69450000D02*
X16565853Y69414541D01*
D13*
X25906497Y64450000D02*
X25900000Y64450000D01*
D14*
X11500000Y70100000D02*
X11200000Y69800000D01*
D16*
X6645000Y80825000D02*
X14796333Y80825000D01*
X6000000Y80180000D02*
X6645000Y80825000D01*
%TO.N,Net-(U2-VREG_VOUT)*%
D14*
X16150000Y70174999D02*
X16150000Y70099998D01*
X11875000Y68275000D02*
X11875000Y69400000D01*
X16050000Y68450000D02*
X15700000Y68100000D01*
X15850000Y69799998D02*
X15850000Y69141364D01*
X15850000Y69141364D02*
X16050000Y68941364D01*
X15700000Y68100000D02*
X12050000Y68100000D01*
X16150000Y70099998D02*
X15850000Y69799998D01*
X16050000Y68941364D02*
X16050000Y68450000D01*
X12050000Y68100000D02*
X11875000Y68275000D01*
%TO.N,VBUS*%
D13*
X34000000Y60400000D02*
X34000000Y58455000D01*
X15880000Y40700000D02*
X15180000Y40000000D01*
X27870000Y56870000D02*
X27000000Y56000000D01*
X34000000Y58455000D02*
X32475000Y56930000D01*
X29900000Y56870000D02*
X27870000Y56870000D01*
X21700000Y40700000D02*
X15880000Y40700000D01*
%TO.N,Net-(U6-VMID)*%
X32400000Y53941432D02*
X35148833Y53941432D01*
%TO.N,Net-(J1-Pin_2)*%
D15*
X11370000Y44730000D02*
X8970000Y44730000D01*
X12000000Y44100000D02*
X11370000Y44730000D01*
%TO.N,Net-(J1-Pin_4)*%
X9420000Y42480000D02*
X11430000Y42480000D01*
X9200000Y42700000D02*
X9420000Y42480000D01*
%TO.N,/MCU/QSPI_{~{CS}}*%
X21255000Y80555000D02*
X21255000Y77645000D01*
X21255000Y77645000D02*
X21500000Y77400000D01*
X21700000Y81000000D02*
X21255000Y80555000D01*
%TO.N,/MCU/LTC44_{~{PFO}}*%
X36675000Y57225000D02*
X36000000Y57900000D01*
X36675000Y53875000D02*
X36675000Y57225000D01*
%TO.N,/MCU/IS31_{BM}*%
X17200000Y78450000D02*
X16800000Y78450000D01*
X16800000Y78450000D02*
X13860000Y75510000D01*
X13860000Y75510000D02*
X13860000Y75150000D01*
%TO.N,/MCU/IS31_{EN}*%
X14450000Y75450000D02*
X16700000Y77700000D01*
X16700000Y77700000D02*
X19250000Y77700000D01*
X14450000Y74600000D02*
X14450000Y75450000D01*
X19250000Y77700000D02*
X19500000Y77950000D01*
%TO.N,/Touch Sensors/CCW*%
D17*
X10800000Y73300000D02*
X10710066Y73300000D01*
X10561475Y73151409D02*
X10429225Y73151409D01*
X10427816Y73175002D02*
X7283451Y76319367D01*
X7283451Y76319367D02*
X7283451Y77858360D01*
X10710066Y73300000D02*
X10561475Y73151409D01*
X10427816Y73150000D02*
X10427816Y73175002D01*
X10429225Y73151409D02*
X10427816Y73150000D01*
%TO.N,/Touch Sensors/CW*%
X25150000Y73850000D02*
X25150000Y78650000D01*
X25150000Y78650000D02*
X23700000Y80100000D01*
%TO.N,/MCU/TMC_{~{CS}}*%
D15*
X22250000Y56100000D02*
X22250000Y56450000D01*
X22250000Y56450000D02*
X20800000Y57900000D01*
%TO.N,/MCU/SCLK*%
X21800000Y59000000D02*
X22000000Y58800000D01*
X20800000Y59000000D02*
X21800000Y59000000D01*
%TO.N,/MCU/TMC_{~{EN}}*%
X14200000Y21650000D02*
X12427092Y21650000D01*
X12427092Y21650000D02*
X11000000Y23077092D01*
X11000000Y31500000D02*
X11689998Y32189998D01*
X11000000Y23077092D02*
X11000000Y31500000D01*
%TO.N,/MCU/ALERT#*%
D17*
X8600000Y76800000D02*
X8600000Y77800000D01*
X8600000Y77800000D02*
X7500000Y78900000D01*
X9494894Y76050024D02*
X9494870Y76050000D01*
X6200000Y78900000D02*
X4800000Y77500000D01*
X9494870Y76050000D02*
X9350000Y76050000D01*
X7500000Y78900000D02*
X6200000Y78900000D01*
X9350000Y76050000D02*
X8600000Y76800000D01*
%TO.N,+12V*%
D13*
X21000000Y15900000D02*
X24900000Y12000000D01*
X24900000Y12000000D02*
X25000000Y12000000D01*
%TO.N,/MCU/UART0_RX*%
D15*
X10300000Y75300000D02*
X11400000Y75300000D01*
X11400000Y75300000D02*
X12900000Y73800000D01*
X16800000Y74900000D02*
X16800000Y76670000D01*
X12900000Y73800000D02*
X15700000Y73800000D01*
X15700000Y73800000D02*
X16800000Y74900000D01*
%TO.N,/MCU/UART0_TX*%
X16800000Y73000000D02*
X18125000Y74325000D01*
X12500000Y73000000D02*
X16800000Y73000000D01*
X18125000Y74325000D02*
X18125000Y76620058D01*
X10836091Y74663909D02*
X12500000Y73000000D01*
X10836091Y74686091D02*
X10836091Y74663909D01*
%TO.N,/MCU/TMC_{DIAG1}*%
X10700000Y21000000D02*
X10198000Y21502000D01*
X10198000Y21502000D02*
X10198000Y29784900D01*
X10198000Y29784900D02*
X9982900Y30000000D01*
X8600000Y30000000D02*
X7950000Y30650000D01*
X9982900Y30000000D02*
X8600000Y30000000D01*
%TO.N,/MCU/TMC_{DIAG0}*%
X10599000Y22501000D02*
X10599000Y29951000D01*
X9900000Y30650000D02*
X9050000Y30650000D01*
X10599000Y29951000D02*
X9900000Y30650000D01*
X11300000Y21800000D02*
X10599000Y22501000D01*
%TD*%
%TA.AperFunction,Conductor*%
%TO.N,GND*%
G36*
X40094452Y94480593D02*
G01*
X40130416Y94431093D01*
X40130416Y94369907D01*
X40094452Y94320409D01*
X40002804Y94253822D01*
X39957345Y94220794D01*
X39779206Y94042655D01*
X39631128Y93838843D01*
X39516759Y93614380D01*
X39438908Y93374781D01*
X39399500Y93125966D01*
X39399500Y92874035D01*
X39438908Y92625220D01*
X39438910Y92625215D01*
X39516759Y92385621D01*
X39631130Y92161155D01*
X39779207Y91957344D01*
X39957344Y91779207D01*
X40161155Y91631130D01*
X40385621Y91516759D01*
X40625215Y91438910D01*
X40625216Y91438910D01*
X40625219Y91438909D01*
X40874035Y91399500D01*
X40874038Y91399500D01*
X41125965Y91399500D01*
X41374780Y91438909D01*
X41374781Y91438910D01*
X41374785Y91438910D01*
X41614379Y91516759D01*
X41838845Y91631130D01*
X42042656Y91779207D01*
X42220793Y91957344D01*
X42320408Y92094453D01*
X42369907Y92130416D01*
X42431093Y92130416D01*
X42480593Y92094452D01*
X42499500Y92036261D01*
X42499500Y2963740D01*
X42480593Y2905549D01*
X42431093Y2869585D01*
X42369907Y2869585D01*
X42320407Y2905549D01*
X42301049Y2932192D01*
X42220793Y3042656D01*
X42042656Y3220793D01*
X41838845Y3368870D01*
X41838844Y3368871D01*
X41838842Y3368872D01*
X41614379Y3483241D01*
X41374780Y3561092D01*
X41125965Y3600500D01*
X41125962Y3600500D01*
X40874038Y3600500D01*
X40874035Y3600500D01*
X40625219Y3561092D01*
X40385620Y3483241D01*
X40161157Y3368872D01*
X39957345Y3220794D01*
X39779206Y3042655D01*
X39631128Y2838843D01*
X39516759Y2614380D01*
X39438908Y2374781D01*
X39399500Y2125966D01*
X39399500Y1874035D01*
X39438908Y1625220D01*
X39438910Y1625215D01*
X39516759Y1385621D01*
X39631130Y1161155D01*
X39779207Y957344D01*
X39957344Y779207D01*
X40094452Y679592D01*
X40130416Y630093D01*
X40130416Y568907D01*
X40094452Y519407D01*
X40036261Y500500D01*
X2963739Y500500D01*
X2905548Y519407D01*
X2869584Y568907D01*
X2869584Y630093D01*
X2905547Y679592D01*
X3042656Y779207D01*
X3220793Y957344D01*
X3368870Y1161155D01*
X3483241Y1385621D01*
X3561090Y1625215D01*
X3600500Y1874038D01*
X3600500Y2125962D01*
X3600500Y2125966D01*
X3561091Y2374781D01*
X3561090Y2374785D01*
X3483241Y2614379D01*
X3368870Y2838845D01*
X3220793Y3042656D01*
X3042656Y3220793D01*
X2838845Y3368870D01*
X2838844Y3368871D01*
X2838842Y3368872D01*
X2614379Y3483241D01*
X2374780Y3561092D01*
X2125965Y3600500D01*
X2125962Y3600500D01*
X1874038Y3600500D01*
X1874035Y3600500D01*
X1625219Y3561092D01*
X1385620Y3483241D01*
X1161157Y3368872D01*
X957345Y3220794D01*
X779206Y3042655D01*
X679593Y2905549D01*
X630092Y2869585D01*
X568907Y2869585D01*
X519407Y2905549D01*
X500500Y2963740D01*
X500500Y15968997D01*
X20299500Y15968997D01*
X20299500Y15831004D01*
X20326420Y15695673D01*
X20326420Y15695671D01*
X20379223Y15568192D01*
X20379224Y15568190D01*
X20379225Y15568189D01*
X20455886Y15453457D01*
X24453457Y11455886D01*
X24568189Y11379225D01*
X24568190Y11379225D01*
X24568191Y11379224D01*
X24597070Y11367262D01*
X24695672Y11326420D01*
X24831006Y11299500D01*
X24831007Y11299500D01*
X25068992Y11299500D01*
X25068993Y11299500D01*
X25204328Y11326420D01*
X25331811Y11379225D01*
X25446542Y11455886D01*
X25544114Y11553458D01*
X25620775Y11668189D01*
X25673580Y11795672D01*
X25700500Y11931007D01*
X25700500Y12068993D01*
X25673580Y12204328D01*
X25620775Y12331811D01*
X25620774Y12331813D01*
X25620771Y12331818D01*
X25544114Y12446542D01*
X25446545Y12544111D01*
X25446542Y12544114D01*
X25331811Y12620775D01*
X25331812Y12620775D01*
X25331810Y12620776D01*
X25244285Y12657030D01*
X25212167Y12678490D01*
X21446543Y16444114D01*
X21331811Y16520775D01*
X21331810Y16520776D01*
X21331808Y16520777D01*
X21204328Y16573580D01*
X21068996Y16600500D01*
X21068994Y16600500D01*
X20931006Y16600500D01*
X20931003Y16600500D01*
X20795672Y16573580D01*
X20795670Y16573580D01*
X20668191Y16520777D01*
X20553460Y16444117D01*
X20455883Y16346540D01*
X20379223Y16231809D01*
X20326420Y16104330D01*
X20326420Y16104328D01*
X20299500Y15968997D01*
X500500Y15968997D01*
X500500Y30373919D01*
X4449500Y30373919D01*
X4449500Y30226082D01*
X4458548Y30180593D01*
X4478342Y30081087D01*
X4534916Y29944505D01*
X4617049Y29821584D01*
X4721584Y29717049D01*
X4844505Y29634916D01*
X4981087Y29578342D01*
X5126082Y29549500D01*
X5126083Y29549500D01*
X5273917Y29549500D01*
X5273918Y29549500D01*
X5418913Y29578342D01*
X5555495Y29634916D01*
X5678416Y29717049D01*
X5782951Y29821584D01*
X5865084Y29944505D01*
X5921658Y30081087D01*
X5950500Y30226082D01*
X5950500Y30373918D01*
X5921658Y30518913D01*
X5898418Y30575020D01*
X5865086Y30655492D01*
X5865084Y30655495D01*
X5829127Y30709309D01*
X7499500Y30709309D01*
X7499500Y30590691D01*
X7518733Y30518913D01*
X7530202Y30476110D01*
X7589507Y30373392D01*
X7589509Y30373390D01*
X7589511Y30373387D01*
X7673387Y30289511D01*
X7673389Y30289510D01*
X7673391Y30289508D01*
X7776110Y30230203D01*
X7776111Y30230203D01*
X7776114Y30230201D01*
X7890691Y30199500D01*
X7934521Y30199500D01*
X7992712Y30180593D01*
X8004525Y30170504D01*
X8359540Y29815489D01*
X8359539Y29815489D01*
X8415489Y29759540D01*
X8484007Y29719981D01*
X8484011Y29719979D01*
X8560435Y29699501D01*
X8560437Y29699500D01*
X8560438Y29699500D01*
X9798500Y29699500D01*
X9856691Y29680593D01*
X9892655Y29631093D01*
X9897500Y29600500D01*
X9897500Y21462436D01*
X9917977Y21386015D01*
X9917978Y21386012D01*
X9927234Y21369980D01*
X9949419Y21331556D01*
X9957540Y21317489D01*
X10220505Y21054524D01*
X10248281Y21000009D01*
X10249500Y20984522D01*
X10249500Y20940691D01*
X10276574Y20839649D01*
X10280202Y20826110D01*
X10339507Y20723392D01*
X10339509Y20723390D01*
X10339511Y20723387D01*
X10423387Y20639511D01*
X10423389Y20639510D01*
X10423391Y20639508D01*
X10526110Y20580203D01*
X10526111Y20580203D01*
X10526114Y20580201D01*
X10640691Y20549500D01*
X10640693Y20549500D01*
X10759307Y20549500D01*
X10759309Y20549500D01*
X10873886Y20580201D01*
X10873888Y20580203D01*
X10873890Y20580203D01*
X10976608Y20639508D01*
X10976608Y20639509D01*
X10976613Y20639511D01*
X11060489Y20723387D01*
X11119799Y20826114D01*
X11150500Y20940691D01*
X11150500Y21059309D01*
X11119799Y21173886D01*
X11097230Y21212975D01*
X11084509Y21272822D01*
X11109395Y21328718D01*
X11162382Y21359311D01*
X11208587Y21358103D01*
X11240691Y21349500D01*
X11240693Y21349500D01*
X11359307Y21349500D01*
X11359309Y21349500D01*
X11473886Y21380201D01*
X11473888Y21380203D01*
X11473890Y21380203D01*
X11576608Y21439508D01*
X11576608Y21439509D01*
X11576613Y21439511D01*
X11660489Y21523387D01*
X11697232Y21587027D01*
X11719797Y21626110D01*
X11719797Y21626112D01*
X11719799Y21626114D01*
X11740128Y21701985D01*
X11773451Y21753296D01*
X11830572Y21775223D01*
X11889673Y21759388D01*
X11905758Y21746363D01*
X12186632Y21465489D01*
X12186631Y21465489D01*
X12242581Y21409540D01*
X12311099Y21369981D01*
X12311101Y21369980D01*
X12311103Y21369979D01*
X12387527Y21349501D01*
X12387529Y21349500D01*
X12387530Y21349500D01*
X12466654Y21349500D01*
X13822390Y21349500D01*
X13880581Y21330593D01*
X13892393Y21320505D01*
X13923387Y21289511D01*
X13923389Y21289510D01*
X13923390Y21289509D01*
X13923391Y21289508D01*
X14026110Y21230203D01*
X14026111Y21230203D01*
X14026114Y21230201D01*
X14140691Y21199500D01*
X14140693Y21199500D01*
X14259307Y21199500D01*
X14259309Y21199500D01*
X14373886Y21230201D01*
X14373888Y21230203D01*
X14373890Y21230203D01*
X14476608Y21289508D01*
X14476608Y21289509D01*
X14476613Y21289511D01*
X14560489Y21373387D01*
X14587285Y21419799D01*
X14619797Y21476110D01*
X14619797Y21476112D01*
X14619799Y21476114D01*
X14650500Y21590691D01*
X14650500Y21709309D01*
X14619799Y21823886D01*
X14619797Y21823889D01*
X14619797Y21823891D01*
X14560492Y21926609D01*
X14560490Y21926611D01*
X14560489Y21926613D01*
X14476613Y22010489D01*
X14476610Y22010491D01*
X14476608Y22010493D01*
X14373889Y22069798D01*
X14373890Y22069798D01*
X14360351Y22073426D01*
X14259309Y22100500D01*
X14140691Y22100500D01*
X14070567Y22081711D01*
X14026109Y22069798D01*
X13923391Y22010493D01*
X13892393Y21979495D01*
X13837876Y21951719D01*
X13822390Y21950500D01*
X12592571Y21950500D01*
X12534380Y21969407D01*
X12522567Y21979496D01*
X11329496Y23172567D01*
X11301719Y23227084D01*
X11300500Y23242571D01*
X11300500Y31334521D01*
X11319407Y31392712D01*
X11329496Y31404525D01*
X11635473Y31710502D01*
X11689990Y31738279D01*
X11705477Y31739498D01*
X11749305Y31739498D01*
X11749307Y31739498D01*
X11863884Y31770199D01*
X11863886Y31770201D01*
X11863888Y31770201D01*
X11966606Y31829506D01*
X11966606Y31829507D01*
X11966611Y31829509D01*
X12050487Y31913385D01*
X12109797Y32016112D01*
X12140498Y32130689D01*
X12140498Y32249307D01*
X12109797Y32363884D01*
X12109795Y32363887D01*
X12109795Y32363889D01*
X12050490Y32466607D01*
X12050488Y32466609D01*
X12050487Y32466611D01*
X11966611Y32550487D01*
X11966608Y32550489D01*
X11966606Y32550491D01*
X11863887Y32609796D01*
X11863888Y32609796D01*
X11850349Y32613424D01*
X11749307Y32640498D01*
X11630689Y32640498D01*
X11560565Y32621709D01*
X11516107Y32609796D01*
X11413389Y32550491D01*
X11329505Y32466607D01*
X11270200Y32363889D01*
X11239498Y32249306D01*
X11239498Y32205477D01*
X11220591Y32147286D01*
X11210502Y32135473D01*
X10815489Y31740460D01*
X10815488Y31740461D01*
X10759539Y31684511D01*
X10719980Y31615993D01*
X10719978Y31615989D01*
X10699500Y31539565D01*
X10699500Y30514479D01*
X10680593Y30456288D01*
X10631093Y30420324D01*
X10569907Y30420324D01*
X10530497Y30444475D01*
X10084510Y30890461D01*
X10065453Y30901464D01*
X10065453Y30901463D01*
X10015989Y30930021D01*
X10015988Y30930022D01*
X10015987Y30930022D01*
X9939564Y30950500D01*
X9939562Y30950500D01*
X9427610Y30950500D01*
X9369419Y30969407D01*
X9357607Y30979495D01*
X9326613Y31010489D01*
X9326610Y31010491D01*
X9326609Y31010492D01*
X9326608Y31010493D01*
X9223889Y31069798D01*
X9223890Y31069798D01*
X9210351Y31073426D01*
X9109309Y31100500D01*
X8990691Y31100500D01*
X8920567Y31081711D01*
X8876109Y31069798D01*
X8773391Y31010493D01*
X8689507Y30926609D01*
X8630202Y30823891D01*
X8599500Y30709308D01*
X8599500Y30664479D01*
X8592336Y30642432D01*
X8588710Y30619534D01*
X8583061Y30613886D01*
X8580593Y30606288D01*
X8561836Y30592661D01*
X8545445Y30576269D01*
X8537555Y30575020D01*
X8531093Y30570324D01*
X8507908Y30570324D01*
X8485013Y30566698D01*
X8477896Y30570324D01*
X8469907Y30570324D01*
X8430496Y30594475D01*
X8429496Y30595475D01*
X8401719Y30649992D01*
X8400500Y30665479D01*
X8400500Y30709308D01*
X8400500Y30709309D01*
X8369799Y30823886D01*
X8369797Y30823889D01*
X8369797Y30823891D01*
X8310492Y30926609D01*
X8310490Y30926611D01*
X8310489Y30926613D01*
X8226613Y31010489D01*
X8226610Y31010491D01*
X8226608Y31010493D01*
X8123889Y31069798D01*
X8123890Y31069798D01*
X8110351Y31073426D01*
X8009309Y31100500D01*
X7890691Y31100500D01*
X7820567Y31081711D01*
X7776109Y31069798D01*
X7673391Y31010493D01*
X7589507Y30926609D01*
X7530202Y30823891D01*
X7530201Y30823886D01*
X7499500Y30709309D01*
X5829127Y30709309D01*
X5782951Y30778416D01*
X5678416Y30882951D01*
X5555495Y30965084D01*
X5555493Y30965085D01*
X5418914Y31021658D01*
X5273918Y31050500D01*
X5126082Y31050500D01*
X5126081Y31050500D01*
X4981085Y31021658D01*
X4844506Y30965085D01*
X4721585Y30882952D01*
X4617048Y30778415D01*
X4534915Y30655494D01*
X4478342Y30518915D01*
X4449500Y30373919D01*
X500500Y30373919D01*
X500500Y41068994D01*
X11939500Y41068994D01*
X11939500Y38081005D01*
X11966420Y37945673D01*
X11966420Y37945671D01*
X12019222Y37818194D01*
X12019228Y37818183D01*
X12095885Y37703459D01*
X12193458Y37605886D01*
X12308182Y37529229D01*
X12308193Y37529223D01*
X12355283Y37509718D01*
X12435672Y37476420D01*
X12571007Y37449500D01*
X12571008Y37449500D01*
X12708992Y37449500D01*
X12708993Y37449500D01*
X12844328Y37476420D01*
X12971811Y37529225D01*
X13086542Y37605886D01*
X13184114Y37703458D01*
X13260775Y37818189D01*
X13313580Y37945672D01*
X13340500Y38081007D01*
X13340500Y40068997D01*
X14479500Y40068997D01*
X14479500Y39931004D01*
X14506420Y39795673D01*
X14506420Y39795671D01*
X14559223Y39668192D01*
X14559224Y39668190D01*
X14559225Y39668189D01*
X14635886Y39553457D01*
X14733457Y39455886D01*
X14848189Y39379225D01*
X14975672Y39326420D01*
X15111006Y39299500D01*
X15111007Y39299500D01*
X15248993Y39299500D01*
X15248994Y39299500D01*
X15384328Y39326420D01*
X15511811Y39379225D01*
X15626543Y39455886D01*
X16141160Y39970505D01*
X16195677Y39998281D01*
X16211164Y39999500D01*
X21768992Y39999500D01*
X21768993Y39999500D01*
X21904328Y40026420D01*
X22031811Y40079225D01*
X22146542Y40155886D01*
X22244114Y40253458D01*
X22320775Y40368189D01*
X22373580Y40495672D01*
X22400500Y40631007D01*
X22400500Y40768993D01*
X22373580Y40904328D01*
X22320775Y41031811D01*
X22320774Y41031813D01*
X22320771Y41031818D01*
X22244114Y41146542D01*
X22146541Y41244115D01*
X22031817Y41320772D01*
X22031806Y41320778D01*
X21904328Y41373580D01*
X21768995Y41400500D01*
X21768993Y41400500D01*
X15811007Y41400500D01*
X15811004Y41400500D01*
X15702591Y41378936D01*
X15702591Y41378935D01*
X15697237Y41377870D01*
X15675672Y41373581D01*
X15622866Y41351709D01*
X15622866Y41351708D01*
X15548189Y41320775D01*
X15548187Y41320774D01*
X15548188Y41320774D01*
X15433457Y41244113D01*
X15433453Y41244110D01*
X14635886Y40446544D01*
X14635885Y40446543D01*
X14559223Y40331809D01*
X14506420Y40204330D01*
X14506420Y40204328D01*
X14479500Y40068997D01*
X13340500Y40068997D01*
X13340500Y40668836D01*
X13359407Y40727027D01*
X13369496Y40738840D01*
X14701160Y42070504D01*
X14755677Y42098281D01*
X14771164Y42099500D01*
X21868993Y42099500D01*
X21868994Y42099500D01*
X22004328Y42126420D01*
X22131811Y42179225D01*
X22246543Y42255886D01*
X22544114Y42553457D01*
X22620775Y42668189D01*
X22673580Y42795672D01*
X22700500Y42931006D01*
X22700500Y43068994D01*
X22673580Y43204329D01*
X22620775Y43331811D01*
X22544114Y43446543D01*
X22459160Y43531497D01*
X28737000Y43531497D01*
X28737000Y43531494D01*
X28737000Y43393506D01*
X28749273Y43331809D01*
X28763920Y43258173D01*
X28763920Y43258171D01*
X28816723Y43130692D01*
X28816724Y43130690D01*
X28816725Y43130689D01*
X28893386Y43015957D01*
X28990957Y42918386D01*
X29105689Y42841725D01*
X29233172Y42788920D01*
X29368506Y42762000D01*
X29368507Y42762000D01*
X29506493Y42762000D01*
X29506494Y42762000D01*
X29641828Y42788920D01*
X29769311Y42841725D01*
X29884043Y42918386D01*
X33136161Y46170504D01*
X33190678Y46198281D01*
X33206165Y46199500D01*
X34468992Y46199500D01*
X34468993Y46199500D01*
X34604328Y46226420D01*
X34731811Y46279225D01*
X34846542Y46355886D01*
X34944114Y46453458D01*
X35020775Y46568189D01*
X35073580Y46695672D01*
X35100500Y46831007D01*
X35100500Y46968993D01*
X35073580Y47104328D01*
X35020775Y47231811D01*
X35020774Y47231813D01*
X35020771Y47231818D01*
X34944114Y47346542D01*
X34846541Y47444115D01*
X34731817Y47520772D01*
X34731806Y47520778D01*
X34604328Y47573580D01*
X34468995Y47600500D01*
X34468993Y47600500D01*
X32806007Y47600500D01*
X32806004Y47600500D01*
X32670672Y47573580D01*
X32670670Y47573580D01*
X32543191Y47520777D01*
X32428460Y47444117D01*
X28893383Y43909040D01*
X28816723Y43794309D01*
X28763920Y43666830D01*
X28763920Y43666828D01*
X28737000Y43531497D01*
X22459160Y43531497D01*
X22446543Y43544114D01*
X22331811Y43620775D01*
X22331810Y43620776D01*
X22331808Y43620777D01*
X22204329Y43673580D01*
X22068996Y43700500D01*
X22068994Y43700500D01*
X21931006Y43700500D01*
X21931003Y43700500D01*
X21795672Y43673580D01*
X21795670Y43673580D01*
X21668191Y43620777D01*
X21553460Y43544117D01*
X21553457Y43544115D01*
X21553457Y43544114D01*
X21538837Y43529495D01*
X21484323Y43501719D01*
X21468836Y43500500D01*
X14371004Y43500500D01*
X14262591Y43478936D01*
X14262591Y43478935D01*
X14257237Y43477870D01*
X14235672Y43473581D01*
X14182866Y43451709D01*
X14182866Y43451708D01*
X14108189Y43420775D01*
X14108186Y43420774D01*
X14108186Y43420773D01*
X14067380Y43393507D01*
X13993458Y43344114D01*
X12095883Y41446540D01*
X12019223Y41331809D01*
X11966420Y41204330D01*
X11966420Y41204328D01*
X11948586Y41114670D01*
X11939500Y41068994D01*
X500500Y41068994D01*
X500500Y42759309D01*
X8749500Y42759309D01*
X8749500Y42640691D01*
X8772873Y42553461D01*
X8780202Y42526110D01*
X8839507Y42423392D01*
X8839509Y42423390D01*
X8839511Y42423387D01*
X8923387Y42339511D01*
X8923389Y42339510D01*
X8923391Y42339508D01*
X9026110Y42280203D01*
X9026111Y42280203D01*
X9026114Y42280201D01*
X9140691Y42249500D01*
X9191711Y42249500D01*
X9241211Y42236236D01*
X9304007Y42199981D01*
X9304011Y42199979D01*
X9380435Y42179501D01*
X9380437Y42179500D01*
X9380438Y42179500D01*
X9459562Y42179500D01*
X11052390Y42179500D01*
X11110581Y42160593D01*
X11122393Y42150505D01*
X11153387Y42119511D01*
X11153389Y42119510D01*
X11153390Y42119509D01*
X11153391Y42119508D01*
X11256110Y42060203D01*
X11256111Y42060203D01*
X11256114Y42060201D01*
X11370691Y42029500D01*
X11370693Y42029500D01*
X11489307Y42029500D01*
X11489309Y42029500D01*
X11603886Y42060201D01*
X11603888Y42060203D01*
X11603890Y42060203D01*
X11706608Y42119508D01*
X11706608Y42119509D01*
X11706613Y42119511D01*
X11790489Y42203387D01*
X11817113Y42249500D01*
X11849797Y42306110D01*
X11849797Y42306112D01*
X11849799Y42306114D01*
X11880500Y42420691D01*
X11880500Y42539309D01*
X11849799Y42653886D01*
X11849797Y42653889D01*
X11849797Y42653891D01*
X11790492Y42756609D01*
X11790490Y42756611D01*
X11790489Y42756613D01*
X11706613Y42840489D01*
X11706610Y42840491D01*
X11706608Y42840493D01*
X11603889Y42899798D01*
X11603890Y42899798D01*
X11590351Y42903426D01*
X11489309Y42930500D01*
X11370691Y42930500D01*
X11325474Y42918384D01*
X11256109Y42899798D01*
X11153391Y42840493D01*
X11122393Y42809495D01*
X11067876Y42781719D01*
X11052390Y42780500D01*
X9720787Y42780500D01*
X9662596Y42799407D01*
X9626632Y42848907D01*
X9625160Y42853877D01*
X9619799Y42873886D01*
X9619797Y42873889D01*
X9619797Y42873891D01*
X9560492Y42976609D01*
X9560490Y42976611D01*
X9560489Y42976613D01*
X9476613Y43060489D01*
X9476610Y43060491D01*
X9476608Y43060493D01*
X9373889Y43119798D01*
X9373890Y43119798D01*
X9333244Y43130689D01*
X9259309Y43150500D01*
X9140691Y43150500D01*
X9070567Y43131711D01*
X9026109Y43119798D01*
X8923391Y43060493D01*
X8839507Y42976609D01*
X8780202Y42873891D01*
X8773508Y42848907D01*
X8749500Y42759309D01*
X500500Y42759309D01*
X500500Y44789309D01*
X8519500Y44789309D01*
X8519500Y44670691D01*
X8543936Y44579496D01*
X8550202Y44556110D01*
X8609507Y44453392D01*
X8609509Y44453390D01*
X8609511Y44453387D01*
X8693387Y44369511D01*
X8693389Y44369510D01*
X8693391Y44369508D01*
X8796110Y44310203D01*
X8796111Y44310203D01*
X8796114Y44310201D01*
X8910691Y44279500D01*
X8910693Y44279500D01*
X9029307Y44279500D01*
X9029309Y44279500D01*
X9143886Y44310201D01*
X9143888Y44310203D01*
X9143890Y44310203D01*
X9246608Y44369508D01*
X9246608Y44369509D01*
X9246613Y44369511D01*
X9277607Y44400505D01*
X9332124Y44428281D01*
X9347610Y44429500D01*
X11204521Y44429500D01*
X11262712Y44410593D01*
X11274525Y44400504D01*
X11520504Y44154525D01*
X11548281Y44100008D01*
X11549500Y44084521D01*
X11549500Y44040691D01*
X11576574Y43939649D01*
X11580202Y43926110D01*
X11639507Y43823392D01*
X11639509Y43823390D01*
X11639511Y43823387D01*
X11723387Y43739511D01*
X11723389Y43739510D01*
X11723391Y43739508D01*
X11826110Y43680203D01*
X11826111Y43680203D01*
X11826114Y43680201D01*
X11940691Y43649500D01*
X11940693Y43649500D01*
X12059307Y43649500D01*
X12059309Y43649500D01*
X12173886Y43680201D01*
X12173888Y43680203D01*
X12173890Y43680203D01*
X12276608Y43739508D01*
X12276608Y43739509D01*
X12276613Y43739511D01*
X12360489Y43823387D01*
X12360492Y43823392D01*
X12419797Y43926110D01*
X12419797Y43926112D01*
X12419799Y43926114D01*
X12450500Y44040691D01*
X12450500Y44159309D01*
X12419799Y44273886D01*
X12419797Y44273889D01*
X12419797Y44273891D01*
X12360492Y44376609D01*
X12360490Y44376611D01*
X12360489Y44376613D01*
X12276613Y44460489D01*
X12276610Y44460491D01*
X12276608Y44460493D01*
X12173889Y44519798D01*
X12173890Y44519798D01*
X12160351Y44523426D01*
X12059309Y44550500D01*
X12059307Y44550500D01*
X12015479Y44550500D01*
X11957288Y44569407D01*
X11945476Y44579496D01*
X11554510Y44970461D01*
X11485992Y45010020D01*
X11485988Y45010022D01*
X11409564Y45030500D01*
X11409562Y45030500D01*
X9347610Y45030500D01*
X9289419Y45049407D01*
X9277607Y45059495D01*
X9246613Y45090489D01*
X9246610Y45090491D01*
X9246609Y45090492D01*
X9246608Y45090493D01*
X9143889Y45149798D01*
X9143890Y45149798D01*
X9130351Y45153426D01*
X9029309Y45180500D01*
X8910691Y45180500D01*
X8840567Y45161711D01*
X8796109Y45149798D01*
X8693391Y45090493D01*
X8609507Y45006609D01*
X8550202Y44903891D01*
X8550201Y44903886D01*
X8519500Y44789309D01*
X500500Y44789309D01*
X500500Y54010428D01*
X31699500Y54010428D01*
X31699500Y53872437D01*
X31726420Y53737105D01*
X31726420Y53737103D01*
X31779222Y53609626D01*
X31779228Y53609615D01*
X31855885Y53494891D01*
X31953458Y53397318D01*
X32068182Y53320661D01*
X32068193Y53320655D01*
X32115283Y53301150D01*
X32195672Y53267852D01*
X32331007Y53240932D01*
X32331008Y53240932D01*
X35217825Y53240932D01*
X35217826Y53240932D01*
X35353161Y53267852D01*
X35480644Y53320657D01*
X35595375Y53397318D01*
X35692947Y53494890D01*
X35769608Y53609621D01*
X35822413Y53737104D01*
X35849333Y53872439D01*
X35849333Y54010425D01*
X35822413Y54145760D01*
X35802258Y54194419D01*
X35769610Y54273239D01*
X35769604Y54273250D01*
X35692947Y54387974D01*
X35595374Y54485547D01*
X35480650Y54562204D01*
X35480639Y54562210D01*
X35353161Y54615012D01*
X35217828Y54641932D01*
X35217826Y54641932D01*
X32331007Y54641932D01*
X32331004Y54641932D01*
X32195672Y54615012D01*
X32195670Y54615012D01*
X32068193Y54562210D01*
X32068182Y54562204D01*
X31953458Y54485547D01*
X31855885Y54387974D01*
X31779228Y54273250D01*
X31779222Y54273239D01*
X31726420Y54145762D01*
X31726420Y54145760D01*
X31699500Y54010428D01*
X500500Y54010428D01*
X500500Y57959309D01*
X20349500Y57959309D01*
X20349500Y57840691D01*
X20373934Y57749501D01*
X20380202Y57726110D01*
X20439507Y57623392D01*
X20439509Y57623390D01*
X20439511Y57623387D01*
X20523387Y57539511D01*
X20523389Y57539510D01*
X20523391Y57539508D01*
X20626110Y57480203D01*
X20626111Y57480203D01*
X20626114Y57480201D01*
X20740691Y57449500D01*
X20784521Y57449500D01*
X20842712Y57430593D01*
X20854525Y57420504D01*
X21839054Y56435975D01*
X21866831Y56381458D01*
X21857260Y56321026D01*
X21854787Y56316472D01*
X21830202Y56273890D01*
X21830201Y56273886D01*
X21799500Y56159309D01*
X21799500Y56040691D01*
X21826574Y55939649D01*
X21830202Y55926110D01*
X21889507Y55823392D01*
X21889509Y55823390D01*
X21889511Y55823387D01*
X21973387Y55739511D01*
X21973389Y55739510D01*
X21973391Y55739508D01*
X22076110Y55680203D01*
X22076111Y55680203D01*
X22076114Y55680201D01*
X22190691Y55649500D01*
X22190693Y55649500D01*
X22309307Y55649500D01*
X22309309Y55649500D01*
X22423886Y55680201D01*
X22423888Y55680203D01*
X22423890Y55680203D01*
X22526608Y55739508D01*
X22526608Y55739509D01*
X22526613Y55739511D01*
X22610489Y55823387D01*
X22669799Y55926114D01*
X22700500Y56040691D01*
X22700500Y56068997D01*
X26299500Y56068997D01*
X26299500Y55931004D01*
X26326420Y55795673D01*
X26326420Y55795671D01*
X26379223Y55668192D01*
X26391712Y55649500D01*
X26455886Y55553457D01*
X26553457Y55455886D01*
X26668189Y55379225D01*
X26795672Y55326420D01*
X26931006Y55299500D01*
X26931007Y55299500D01*
X27068993Y55299500D01*
X27068994Y55299500D01*
X27204328Y55326420D01*
X27331811Y55379225D01*
X27446543Y55455886D01*
X28131161Y56140504D01*
X28185678Y56168281D01*
X28201165Y56169500D01*
X29968992Y56169500D01*
X29968993Y56169500D01*
X30104328Y56196420D01*
X30231811Y56249225D01*
X30346542Y56325886D01*
X30444114Y56423458D01*
X30520775Y56538189D01*
X30573580Y56665672D01*
X30600500Y56801007D01*
X30600500Y56938993D01*
X30588564Y56998997D01*
X31774500Y56998997D01*
X31774500Y56861004D01*
X31801420Y56725673D01*
X31801420Y56725671D01*
X31854223Y56598192D01*
X31926806Y56489562D01*
X31930886Y56483457D01*
X32028457Y56385886D01*
X32143189Y56309225D01*
X32270672Y56256420D01*
X32406006Y56229500D01*
X32406007Y56229500D01*
X32543993Y56229500D01*
X32543994Y56229500D01*
X32679328Y56256420D01*
X32806811Y56309225D01*
X32921543Y56385886D01*
X34494966Y57959309D01*
X35549500Y57959309D01*
X35549500Y57840691D01*
X35573934Y57749501D01*
X35580202Y57726110D01*
X35639507Y57623392D01*
X35639509Y57623390D01*
X35639511Y57623387D01*
X35723387Y57539511D01*
X35723389Y57539510D01*
X35723391Y57539508D01*
X35826110Y57480203D01*
X35826111Y57480203D01*
X35826114Y57480201D01*
X35940691Y57449500D01*
X35984521Y57449500D01*
X36042712Y57430593D01*
X36054525Y57420504D01*
X36345504Y57129525D01*
X36373281Y57075008D01*
X36374500Y57059521D01*
X36374500Y54252610D01*
X36355593Y54194419D01*
X36345505Y54182607D01*
X36314507Y54151609D01*
X36255202Y54048891D01*
X36255201Y54048886D01*
X36224500Y53934309D01*
X36224500Y53815691D01*
X36245558Y53737103D01*
X36255202Y53701110D01*
X36314507Y53598392D01*
X36314509Y53598390D01*
X36314511Y53598387D01*
X36398387Y53514511D01*
X36398389Y53514510D01*
X36398391Y53514508D01*
X36501110Y53455203D01*
X36501111Y53455203D01*
X36501114Y53455201D01*
X36615691Y53424500D01*
X36615693Y53424500D01*
X36734307Y53424500D01*
X36734309Y53424500D01*
X36848886Y53455201D01*
X36848888Y53455203D01*
X36848890Y53455203D01*
X36951608Y53514508D01*
X36951608Y53514509D01*
X36951613Y53514511D01*
X37035489Y53598387D01*
X37094799Y53701114D01*
X37125500Y53815691D01*
X37125500Y53934309D01*
X37094799Y54048886D01*
X37094797Y54048889D01*
X37094797Y54048891D01*
X37035492Y54151609D01*
X37035491Y54151610D01*
X37035490Y54151611D01*
X37035489Y54151613D01*
X37004495Y54182607D01*
X36976719Y54237124D01*
X36975500Y54252610D01*
X36975500Y57264563D01*
X36975499Y57264565D01*
X36955021Y57340989D01*
X36955019Y57340993D01*
X36915460Y57409511D01*
X36859511Y57465461D01*
X36859511Y57465460D01*
X36479496Y57845475D01*
X36451719Y57899992D01*
X36450500Y57915479D01*
X36450500Y57959308D01*
X36438670Y58003459D01*
X36419799Y58073886D01*
X36419797Y58073889D01*
X36419797Y58073891D01*
X36360492Y58176609D01*
X36360490Y58176611D01*
X36360489Y58176613D01*
X36276613Y58260489D01*
X36276610Y58260491D01*
X36276608Y58260493D01*
X36173889Y58319798D01*
X36173890Y58319798D01*
X36160351Y58323426D01*
X36059309Y58350500D01*
X35940691Y58350500D01*
X35870567Y58331711D01*
X35826109Y58319798D01*
X35723391Y58260493D01*
X35639507Y58176609D01*
X35580202Y58073891D01*
X35580201Y58073886D01*
X35549500Y57959309D01*
X34494966Y57959309D01*
X34544114Y58008457D01*
X34546761Y58012420D01*
X34552362Y58020800D01*
X34587835Y58073891D01*
X34620775Y58123189D01*
X34673580Y58250672D01*
X34700500Y58386006D01*
X34700500Y58523994D01*
X34700500Y60468993D01*
X34673580Y60604328D01*
X34620775Y60731811D01*
X34620774Y60731813D01*
X34620771Y60731818D01*
X34544114Y60846542D01*
X34446541Y60944115D01*
X34331817Y61020772D01*
X34331806Y61020778D01*
X34204328Y61073580D01*
X34068995Y61100500D01*
X34068993Y61100500D01*
X33931007Y61100500D01*
X33931004Y61100500D01*
X33795672Y61073580D01*
X33795670Y61073580D01*
X33668193Y61020778D01*
X33668182Y61020772D01*
X33553458Y60944115D01*
X33455885Y60846542D01*
X33379228Y60731818D01*
X33379222Y60731807D01*
X33326420Y60604330D01*
X33326420Y60604328D01*
X33299500Y60468996D01*
X33299500Y58786165D01*
X33280593Y58727974D01*
X33270504Y58716161D01*
X31930883Y57376540D01*
X31854223Y57261809D01*
X31801420Y57134330D01*
X31801420Y57134328D01*
X31774500Y56998997D01*
X30588564Y56998997D01*
X30573580Y57074328D01*
X30548727Y57134328D01*
X30520777Y57201807D01*
X30520771Y57201818D01*
X30444114Y57316542D01*
X30346541Y57414115D01*
X30231817Y57490772D01*
X30231806Y57490778D01*
X30104328Y57543580D01*
X29968995Y57570500D01*
X29968993Y57570500D01*
X27938994Y57570500D01*
X27801006Y57570500D01*
X27801003Y57570500D01*
X27665672Y57543580D01*
X27665670Y57543580D01*
X27538191Y57490777D01*
X27423460Y57414117D01*
X26455883Y56446540D01*
X26379223Y56331809D01*
X26326420Y56204330D01*
X26326420Y56204328D01*
X26299500Y56068997D01*
X22700500Y56068997D01*
X22700500Y56159309D01*
X22669799Y56273886D01*
X22669797Y56273890D01*
X22669797Y56273891D01*
X22610492Y56376609D01*
X22610491Y56376610D01*
X22610490Y56376611D01*
X22610489Y56376613D01*
X22579495Y56407607D01*
X22578840Y56408893D01*
X22577575Y56409582D01*
X22574313Y56417778D01*
X22551719Y56462124D01*
X22551326Y56464851D01*
X22550500Y56471207D01*
X22550500Y56489562D01*
X22547569Y56500500D01*
X22530022Y56565988D01*
X22511429Y56598192D01*
X22490463Y56634507D01*
X22490462Y56634508D01*
X22490461Y56634509D01*
X22490460Y56634511D01*
X21279496Y57845475D01*
X21251719Y57899992D01*
X21250500Y57915479D01*
X21250500Y57959308D01*
X21238670Y58003459D01*
X21219799Y58073886D01*
X21219797Y58073889D01*
X21219797Y58073891D01*
X21160492Y58176609D01*
X21160490Y58176611D01*
X21160489Y58176613D01*
X21076613Y58260489D01*
X21076610Y58260491D01*
X21076608Y58260493D01*
X20973889Y58319798D01*
X20973890Y58319798D01*
X20960351Y58323426D01*
X20859309Y58350500D01*
X20740691Y58350500D01*
X20670567Y58331711D01*
X20626109Y58319798D01*
X20523391Y58260493D01*
X20439507Y58176609D01*
X20380202Y58073891D01*
X20380201Y58073886D01*
X20349500Y57959309D01*
X500500Y57959309D01*
X500500Y77559309D01*
X4349500Y77559309D01*
X4349500Y77440691D01*
X4368307Y77370504D01*
X4380202Y77326110D01*
X4439507Y77223392D01*
X4439509Y77223390D01*
X4439511Y77223387D01*
X4523387Y77139511D01*
X4523389Y77139510D01*
X4523391Y77139508D01*
X4626110Y77080203D01*
X4626111Y77080203D01*
X4626114Y77080201D01*
X4740691Y77049500D01*
X4740693Y77049500D01*
X4859307Y77049500D01*
X4859309Y77049500D01*
X4973886Y77080201D01*
X4973888Y77080203D01*
X4973890Y77080203D01*
X5076608Y77139508D01*
X5076608Y77139509D01*
X5076613Y77139511D01*
X5160489Y77223387D01*
X5162061Y77226110D01*
X5219797Y77326110D01*
X5219797Y77326112D01*
X5219799Y77326114D01*
X5250500Y77440691D01*
X5250500Y77449165D01*
X5269407Y77507356D01*
X5279496Y77519169D01*
X6305831Y78545504D01*
X6360348Y78573281D01*
X6375835Y78574500D01*
X6699217Y78574500D01*
X6757408Y78555593D01*
X6793372Y78506093D01*
X6793372Y78444907D01*
X6769222Y78405499D01*
X6733523Y78369799D01*
X6700499Y78336775D01*
X6618366Y78213854D01*
X6561793Y78077275D01*
X6532951Y77932279D01*
X6532951Y77784442D01*
X6561793Y77639446D01*
X6618365Y77502868D01*
X6641266Y77468595D01*
X6657951Y77413593D01*
X6657951Y76257758D01*
X6664683Y76223915D01*
X6681988Y76136916D01*
X6729139Y76023081D01*
X6737929Y76009926D01*
X6750757Y75990727D01*
X6750766Y75990715D01*
X6797594Y75920632D01*
X6884719Y75833508D01*
X6884720Y75833508D01*
X9884717Y72833510D01*
X9897023Y72818516D01*
X9899042Y72815495D01*
X9899047Y72815487D01*
X9941959Y72751265D01*
X10029085Y72664140D01*
X10053740Y72647667D01*
X10072823Y72634916D01*
X10131530Y72595688D01*
X10185004Y72573539D01*
X10245364Y72548537D01*
X10305201Y72536635D01*
X10366209Y72524500D01*
X10366210Y72524500D01*
X10489421Y72524500D01*
X10489422Y72524500D01*
X10489423Y72524500D01*
X10489424Y72524501D01*
X10493890Y72524941D01*
X10499263Y72525662D01*
X10502750Y72525909D01*
X10623082Y72525909D01*
X10683504Y72537928D01*
X10726267Y72546434D01*
X10732123Y72547598D01*
X10751434Y72549500D01*
X10873917Y72549500D01*
X10873918Y72549500D01*
X11018913Y72578342D01*
X11155495Y72634916D01*
X11278416Y72717049D01*
X11382951Y72821584D01*
X11465084Y72944505D01*
X11521658Y73081087D01*
X11550500Y73226082D01*
X11550500Y73285522D01*
X11569407Y73343713D01*
X11618907Y73379677D01*
X11680093Y73379677D01*
X11719501Y73355528D01*
X12315489Y72759540D01*
X12315491Y72759539D01*
X12315493Y72759537D01*
X12384008Y72719980D01*
X12384006Y72719980D01*
X12384010Y72719979D01*
X12384012Y72719978D01*
X12460438Y72699500D01*
X12471442Y72699500D01*
X12529633Y72680593D01*
X12565597Y72631093D01*
X12567068Y72574878D01*
X12549500Y72509309D01*
X12549500Y72390691D01*
X12571306Y72309309D01*
X12580202Y72276110D01*
X12639507Y72173392D01*
X12639509Y72173390D01*
X12639511Y72173387D01*
X12723387Y72089511D01*
X12723389Y72089510D01*
X12723391Y72089508D01*
X12826110Y72030203D01*
X12826111Y72030203D01*
X12826114Y72030201D01*
X12940691Y71999500D01*
X16300500Y71999500D01*
X16358691Y71980593D01*
X16394655Y71931093D01*
X16399500Y71900500D01*
X16399500Y70703557D01*
X16380593Y70645366D01*
X16331093Y70609402D01*
X16274877Y70607930D01*
X16209309Y70625499D01*
X16090691Y70625499D01*
X16030617Y70609402D01*
X15976109Y70594797D01*
X15873391Y70535492D01*
X15789507Y70451608D01*
X15730202Y70348889D01*
X15730201Y70348887D01*
X15725505Y70331362D01*
X15699883Y70286986D01*
X15489511Y70076613D01*
X15489507Y70076608D01*
X15430202Y69973889D01*
X15430201Y69973888D01*
X15428349Y69966978D01*
X15428350Y69966977D01*
X15401534Y69866896D01*
X15399500Y69859306D01*
X15399500Y69082056D01*
X15414922Y69024500D01*
X15430202Y68967473D01*
X15489507Y68864755D01*
X15489509Y68864753D01*
X15489511Y68864750D01*
X15570505Y68783756D01*
X15574130Y68776641D01*
X15580593Y68771945D01*
X15587756Y68749897D01*
X15598281Y68729241D01*
X15599500Y68713754D01*
X15599500Y68677611D01*
X15580593Y68619420D01*
X15570505Y68607609D01*
X15542395Y68579498D01*
X15487879Y68551719D01*
X15472390Y68550500D01*
X12424500Y68550500D01*
X12366309Y68569407D01*
X12330345Y68618907D01*
X12325500Y68649500D01*
X12325500Y69459308D01*
X12312102Y69509310D01*
X12294799Y69573886D01*
X12294797Y69573889D01*
X12294797Y69573891D01*
X12235492Y69676609D01*
X12235490Y69676611D01*
X12235489Y69676613D01*
X12151613Y69760489D01*
X12151610Y69760491D01*
X12151608Y69760493D01*
X12048889Y69819798D01*
X12048887Y69819799D01*
X11997492Y69833571D01*
X11946178Y69866896D01*
X11924253Y69924017D01*
X11927488Y69954812D01*
X11930748Y69966977D01*
X11950500Y70040691D01*
X11950500Y70159309D01*
X11926065Y70250500D01*
X11919799Y70273887D01*
X11919796Y70273893D01*
X11860492Y70376610D01*
X11860490Y70376612D01*
X11860489Y70376614D01*
X11776614Y70460489D01*
X11776611Y70460491D01*
X11776609Y70460493D01*
X11673890Y70519798D01*
X11673886Y70519800D01*
X11649673Y70526288D01*
X11649673Y70526287D01*
X11559309Y70550500D01*
X11440691Y70550500D01*
X11395508Y70538394D01*
X11350325Y70526287D01*
X11350324Y70526288D01*
X11326112Y70519799D01*
X11326109Y70519798D01*
X11223390Y70460493D01*
X10839510Y70076613D01*
X10818771Y70040692D01*
X10780201Y69973887D01*
X10780200Y69973884D01*
X10780198Y69973878D01*
X10749499Y69859307D01*
X10748653Y69852875D01*
X10748597Y69852883D01*
X10746127Y69834118D01*
X10723500Y69749672D01*
X10723500Y67666689D01*
X10733180Y67630564D01*
X10733180Y67630562D01*
X10733181Y67630562D01*
X10754202Y67552109D01*
X10813507Y67449391D01*
X10813511Y67449386D01*
X10899959Y67362937D01*
X10927736Y67308420D01*
X10918164Y67247988D01*
X10899959Y67222931D01*
X10890489Y67213460D01*
X10890488Y67213461D01*
X10834539Y67157511D01*
X10794980Y67088993D01*
X10794978Y67088989D01*
X10774500Y67012565D01*
X10774500Y65540479D01*
X10755593Y65482288D01*
X10745504Y65470475D01*
X9954525Y64679496D01*
X9900008Y64651719D01*
X9884521Y64650500D01*
X9840691Y64650500D01*
X9770567Y64631711D01*
X9726109Y64619798D01*
X9623391Y64560493D01*
X9539507Y64476609D01*
X9480202Y64373891D01*
X9449500Y64259308D01*
X9449500Y64140694D01*
X9449499Y64140694D01*
X9480202Y64026110D01*
X9539507Y63923392D01*
X9539509Y63923390D01*
X9539511Y63923387D01*
X9623387Y63839511D01*
X9623389Y63839510D01*
X9623391Y63839508D01*
X9726110Y63780203D01*
X9726111Y63780203D01*
X9726114Y63780201D01*
X9840691Y63749500D01*
X9840693Y63749500D01*
X9959307Y63749500D01*
X9959309Y63749500D01*
X10073886Y63780201D01*
X10073888Y63780203D01*
X10073890Y63780203D01*
X10176608Y63839508D01*
X10176608Y63839509D01*
X10176613Y63839511D01*
X10260489Y63923387D01*
X10319799Y64026114D01*
X10350500Y64140691D01*
X10350500Y64184521D01*
X10369407Y64242712D01*
X10379496Y64254525D01*
X11290460Y65165489D01*
X11315460Y65190489D01*
X11355021Y65259011D01*
X11375500Y65335438D01*
X11375500Y66807521D01*
X11377968Y66815119D01*
X11376719Y66823008D01*
X11387243Y66843664D01*
X11394407Y66865712D01*
X11404496Y66877525D01*
X11446475Y66919504D01*
X11500992Y66947281D01*
X11516479Y66948500D01*
X16300500Y66948500D01*
X16358691Y66929593D01*
X16394655Y66880093D01*
X16399500Y66849500D01*
X16399500Y66382053D01*
X16413297Y66330565D01*
X16413297Y66330563D01*
X16413298Y66330563D01*
X16413298Y66330562D01*
X16430201Y66267477D01*
X16430202Y66267475D01*
X16430203Y66267472D01*
X16489507Y66164755D01*
X16489511Y66164750D01*
X16914750Y65739510D01*
X17017478Y65680201D01*
X17132055Y65649500D01*
X17700500Y65649500D01*
X17758691Y65630593D01*
X17794655Y65581093D01*
X17799500Y65550500D01*
X17799500Y64190689D01*
X17812897Y64140694D01*
X17812897Y64140692D01*
X17812898Y64140692D01*
X17812898Y64140691D01*
X17830201Y64076113D01*
X17830202Y64076111D01*
X17830203Y64076108D01*
X17889507Y63973391D01*
X17889509Y63973389D01*
X17889511Y63973386D01*
X18170505Y63692392D01*
X18198281Y63637877D01*
X18199500Y63622390D01*
X18199500Y63531005D01*
X18226420Y63395673D01*
X18226420Y63395671D01*
X18279222Y63268194D01*
X18279228Y63268183D01*
X18355885Y63153459D01*
X18453458Y63055886D01*
X18568182Y62979229D01*
X18568193Y62979223D01*
X18615283Y62959718D01*
X18695672Y62926420D01*
X18831007Y62899500D01*
X20850500Y62899500D01*
X20908691Y62880593D01*
X20944655Y62831093D01*
X20949500Y62800500D01*
X20949500Y60636086D01*
X20976420Y60500755D01*
X20976420Y60500753D01*
X21029223Y60373274D01*
X21029224Y60373272D01*
X21029225Y60373271D01*
X21105886Y60258539D01*
X21894921Y59469504D01*
X21922698Y59414987D01*
X21913127Y59354555D01*
X21869862Y59311290D01*
X21824917Y59300500D01*
X21177610Y59300500D01*
X21119419Y59319407D01*
X21107607Y59329495D01*
X21076613Y59360489D01*
X21076610Y59360491D01*
X21076609Y59360492D01*
X21076608Y59360493D01*
X20973889Y59419798D01*
X20973890Y59419798D01*
X20960351Y59423426D01*
X20859309Y59450500D01*
X20740691Y59450500D01*
X20670567Y59431711D01*
X20626109Y59419798D01*
X20523391Y59360493D01*
X20439507Y59276609D01*
X20380202Y59173891D01*
X20380201Y59173886D01*
X20349500Y59059309D01*
X20349500Y58940691D01*
X20353954Y58924069D01*
X20380202Y58826110D01*
X20439507Y58723392D01*
X20439509Y58723390D01*
X20439511Y58723387D01*
X20523387Y58639511D01*
X20523389Y58639510D01*
X20523391Y58639508D01*
X20626110Y58580203D01*
X20626111Y58580203D01*
X20626114Y58580201D01*
X20740691Y58549500D01*
X20740693Y58549500D01*
X20859307Y58549500D01*
X20859309Y58549500D01*
X20973886Y58580201D01*
X20973888Y58580203D01*
X20973890Y58580203D01*
X21076608Y58639508D01*
X21076608Y58639509D01*
X21076613Y58639511D01*
X21107607Y58670505D01*
X21162124Y58698281D01*
X21177610Y58699500D01*
X21484572Y58699500D01*
X21542763Y58680593D01*
X21578727Y58631093D01*
X21580198Y58626124D01*
X21580200Y58626115D01*
X21580202Y58626111D01*
X21639507Y58523392D01*
X21639509Y58523390D01*
X21639511Y58523387D01*
X21723387Y58439511D01*
X21723389Y58439510D01*
X21723391Y58439508D01*
X21826110Y58380203D01*
X21826111Y58380203D01*
X21826114Y58380201D01*
X21940691Y58349500D01*
X21940693Y58349500D01*
X22059307Y58349500D01*
X22059309Y58349500D01*
X22173886Y58380201D01*
X22173888Y58380203D01*
X22173890Y58380203D01*
X22276608Y58439508D01*
X22276608Y58439509D01*
X22276613Y58439511D01*
X22360489Y58523387D01*
X22360795Y58523917D01*
X22419797Y58626110D01*
X22419797Y58626112D01*
X22419799Y58626114D01*
X22442728Y58711689D01*
X22476051Y58763000D01*
X22533172Y58784927D01*
X22592273Y58769092D01*
X22608358Y58756067D01*
X22770504Y58593921D01*
X22798281Y58539404D01*
X22799500Y58523917D01*
X22799500Y58381007D01*
X22825425Y58250672D01*
X22826420Y58245673D01*
X22826420Y58245671D01*
X22879222Y58118194D01*
X22879228Y58118183D01*
X22955885Y58003459D01*
X23053458Y57905886D01*
X23168182Y57829229D01*
X23168193Y57829223D01*
X23215283Y57809718D01*
X23295672Y57776420D01*
X23431007Y57749500D01*
X23431008Y57749500D01*
X23568992Y57749500D01*
X23568993Y57749500D01*
X23704328Y57776420D01*
X23831811Y57829225D01*
X23946542Y57905886D01*
X24044114Y58003458D01*
X24120775Y58118189D01*
X24173580Y58245672D01*
X24200500Y58381007D01*
X24200500Y58924075D01*
X24188478Y58984511D01*
X24173580Y59059410D01*
X24120775Y59186893D01*
X24044114Y59301625D01*
X22379496Y60966243D01*
X22351719Y61020760D01*
X22350500Y61036247D01*
X22350500Y62800500D01*
X22369407Y62858691D01*
X22418907Y62894655D01*
X22449500Y62899500D01*
X25118993Y62899500D01*
X25118994Y62899500D01*
X25254328Y62926420D01*
X25381811Y62979225D01*
X25496543Y63055886D01*
X26326571Y63885916D01*
X26341568Y63898222D01*
X26353040Y63905886D01*
X29632920Y67185766D01*
X37494500Y67185766D01*
X37494500Y67034234D01*
X37529086Y66905153D01*
X37533720Y66887861D01*
X37609481Y66756640D01*
X37609483Y66756638D01*
X37609485Y66756635D01*
X37716635Y66649485D01*
X37716637Y66649484D01*
X37716639Y66649482D01*
X37847861Y66573721D01*
X37847859Y66573721D01*
X37847863Y66573720D01*
X37847865Y66573719D01*
X37994234Y66534500D01*
X37994236Y66534500D01*
X38145764Y66534500D01*
X38145766Y66534500D01*
X38292135Y66573719D01*
X38292137Y66573721D01*
X38292139Y66573721D01*
X38423360Y66649482D01*
X38423360Y66649483D01*
X38423365Y66649485D01*
X38530515Y66756635D01*
X38568836Y66823008D01*
X38606279Y66887861D01*
X38606279Y66887863D01*
X38606281Y66887865D01*
X38645500Y67034234D01*
X38645500Y67185766D01*
X38606281Y67332135D01*
X38606279Y67332138D01*
X38606279Y67332140D01*
X38530518Y67463361D01*
X38530516Y67463363D01*
X38530515Y67463365D01*
X38423365Y67570515D01*
X38423362Y67570517D01*
X38423360Y67570519D01*
X38292138Y67646280D01*
X38292140Y67646280D01*
X38215963Y67666691D01*
X38145766Y67685500D01*
X37994234Y67685500D01*
X37924037Y67666691D01*
X37847860Y67646280D01*
X37716639Y67570519D01*
X37609481Y67463361D01*
X37533720Y67332140D01*
X37523215Y67292934D01*
X37494500Y67185766D01*
X29632920Y67185766D01*
X29894114Y67446960D01*
X29970775Y67561692D01*
X30023580Y67689175D01*
X30050500Y67824509D01*
X30050500Y67962497D01*
X30050500Y72965766D01*
X37494500Y72965766D01*
X37494500Y72814234D01*
X37514236Y72740579D01*
X37533720Y72667861D01*
X37609481Y72536640D01*
X37609483Y72536638D01*
X37609485Y72536635D01*
X37716635Y72429485D01*
X37716637Y72429484D01*
X37716639Y72429482D01*
X37847861Y72353721D01*
X37847859Y72353721D01*
X37847863Y72353720D01*
X37847865Y72353719D01*
X37994234Y72314500D01*
X37994236Y72314500D01*
X38145764Y72314500D01*
X38145766Y72314500D01*
X38292135Y72353719D01*
X38292137Y72353721D01*
X38292139Y72353721D01*
X38423360Y72429482D01*
X38423360Y72429483D01*
X38423365Y72429485D01*
X38530515Y72536635D01*
X38554595Y72578343D01*
X38606279Y72667861D01*
X38606279Y72667863D01*
X38606281Y72667865D01*
X38645500Y72814234D01*
X38645500Y72965766D01*
X38606281Y73112135D01*
X38606279Y73112138D01*
X38606279Y73112140D01*
X38530518Y73243361D01*
X38530516Y73243363D01*
X38530515Y73243365D01*
X38423365Y73350515D01*
X38423362Y73350517D01*
X38423360Y73350519D01*
X38292138Y73426280D01*
X38292140Y73426280D01*
X38235347Y73441497D01*
X38145766Y73465500D01*
X37994234Y73465500D01*
X37904652Y73441497D01*
X37847860Y73426280D01*
X37716639Y73350519D01*
X37609481Y73243361D01*
X37533720Y73112140D01*
X37511793Y73030307D01*
X37494500Y72965766D01*
X30050500Y72965766D01*
X30050500Y73808836D01*
X30069407Y73867027D01*
X30079490Y73878834D01*
X32454114Y76253457D01*
X32530775Y76368189D01*
X32583580Y76495672D01*
X32610500Y76631006D01*
X32610500Y76768994D01*
X32583580Y76904329D01*
X32530775Y77031811D01*
X32454114Y77146543D01*
X32356543Y77244114D01*
X32241811Y77320775D01*
X32241810Y77320776D01*
X32241808Y77320777D01*
X32114329Y77373580D01*
X31978996Y77400500D01*
X31978994Y77400500D01*
X31841006Y77400500D01*
X31841003Y77400500D01*
X31705672Y77373580D01*
X31705670Y77373580D01*
X31578191Y77320777D01*
X31463460Y77244117D01*
X28805883Y74586540D01*
X28729223Y74471809D01*
X28676420Y74344330D01*
X28649720Y74210101D01*
X28649513Y74209122D01*
X28649500Y74208997D01*
X28649500Y68224669D01*
X28630593Y68166478D01*
X28620504Y68154665D01*
X25479927Y65014089D01*
X25464930Y65001781D01*
X25453459Y64994116D01*
X24788839Y64329496D01*
X24734322Y64301719D01*
X24718835Y64300500D01*
X18877610Y64300500D01*
X18870012Y64302969D01*
X18862122Y64301719D01*
X18841468Y64312243D01*
X18819419Y64319407D01*
X18807606Y64329497D01*
X18729496Y64407608D01*
X18701719Y64462125D01*
X18700500Y64477611D01*
X18700500Y66009308D01*
X18669799Y66123886D01*
X18669799Y66123888D01*
X18610492Y66226610D01*
X18610490Y66226612D01*
X18610489Y66226614D01*
X18376614Y66460489D01*
X18376611Y66460491D01*
X18376609Y66460493D01*
X18273890Y66519798D01*
X18273886Y66519800D01*
X18249673Y66526288D01*
X18249673Y66526287D01*
X18159309Y66550500D01*
X18159307Y66550500D01*
X17418976Y66550500D01*
X17411378Y66552969D01*
X17403489Y66551719D01*
X17382833Y66562244D01*
X17360785Y66569407D01*
X17348972Y66579496D01*
X17329496Y66598972D01*
X17301719Y66653489D01*
X17300500Y66668976D01*
X17300500Y72309308D01*
X17278693Y72390691D01*
X17269799Y72423886D01*
X17269799Y72423887D01*
X17210490Y72526614D01*
X17051040Y72686063D01*
X17023263Y72740579D01*
X17032834Y72801011D01*
X17051037Y72826067D01*
X18365460Y74140489D01*
X18370662Y74149500D01*
X18405021Y74209011D01*
X18425500Y74285438D01*
X18425500Y76242449D01*
X18444407Y76300640D01*
X18454490Y76312447D01*
X18485489Y76343445D01*
X18524211Y76410513D01*
X18544797Y76446168D01*
X18544797Y76446170D01*
X18544799Y76446172D01*
X18575500Y76560749D01*
X18575500Y76679367D01*
X18544799Y76793944D01*
X18544797Y76793947D01*
X18544797Y76793949D01*
X18485492Y76896667D01*
X18485490Y76896669D01*
X18485489Y76896671D01*
X18401613Y76980547D01*
X18401610Y76980549D01*
X18401608Y76980551D01*
X18298889Y77039856D01*
X18298890Y77039856D01*
X18262898Y77049500D01*
X18184309Y77070558D01*
X18065691Y77070558D01*
X17995567Y77051769D01*
X17951109Y77039856D01*
X17848391Y76980551D01*
X17764507Y76896667D01*
X17705202Y76793949D01*
X17688192Y76730466D01*
X17674500Y76679367D01*
X17674500Y76560749D01*
X17691938Y76495671D01*
X17705202Y76446168D01*
X17764507Y76343450D01*
X17764509Y76343448D01*
X17764511Y76343445D01*
X17795505Y76312451D01*
X17823281Y76257936D01*
X17824500Y76242449D01*
X17824500Y74490479D01*
X17805593Y74432288D01*
X17795504Y74420475D01*
X16704525Y73329496D01*
X16650008Y73301719D01*
X16634521Y73300500D01*
X12665479Y73300500D01*
X12607288Y73319407D01*
X12595475Y73329496D01*
X11315587Y74609384D01*
X11311960Y74616502D01*
X11305498Y74621197D01*
X11298334Y74643246D01*
X11287810Y74663901D01*
X11286591Y74679388D01*
X11286591Y74749430D01*
X11305498Y74807621D01*
X11354998Y74843585D01*
X11416184Y74843585D01*
X11455595Y74819434D01*
X12659540Y73615489D01*
X12659539Y73615489D01*
X12715489Y73559540D01*
X12784007Y73519981D01*
X12784011Y73519979D01*
X12860435Y73499501D01*
X12860437Y73499500D01*
X12860438Y73499500D01*
X15739563Y73499500D01*
X15739563Y73499501D01*
X15815989Y73519979D01*
X15884511Y73559540D01*
X15940460Y73615489D01*
X17040460Y74715489D01*
X17057729Y74745400D01*
X17060674Y74750500D01*
X17074175Y74773886D01*
X17080021Y74784011D01*
X17100500Y74860438D01*
X17100500Y76292391D01*
X17119407Y76350582D01*
X17129490Y76362389D01*
X17160489Y76393387D01*
X17170379Y76410517D01*
X17219797Y76496110D01*
X17219797Y76496112D01*
X17219799Y76496114D01*
X17250500Y76610691D01*
X17250500Y76729309D01*
X17219799Y76843886D01*
X17219797Y76843889D01*
X17219797Y76843891D01*
X17160492Y76946609D01*
X17160490Y76946611D01*
X17160489Y76946613D01*
X17076613Y77030489D01*
X17076610Y77030491D01*
X17076608Y77030493D01*
X16973889Y77089798D01*
X16973890Y77089798D01*
X16960351Y77093426D01*
X16859309Y77120500D01*
X16784479Y77120500D01*
X16762431Y77127664D01*
X16739534Y77131290D01*
X16733885Y77136939D01*
X16726288Y77139407D01*
X16712660Y77158164D01*
X16696269Y77174555D01*
X16695019Y77182445D01*
X16690324Y77188907D01*
X16690324Y77212093D01*
X16686698Y77234987D01*
X16690324Y77242104D01*
X16690324Y77250093D01*
X16714475Y77289504D01*
X16795475Y77370504D01*
X16849992Y77398281D01*
X16865479Y77399500D01*
X19289563Y77399500D01*
X19289563Y77399501D01*
X19365989Y77419979D01*
X19434511Y77459540D01*
X19445476Y77470506D01*
X19499991Y77498281D01*
X19515478Y77499500D01*
X19559307Y77499500D01*
X19559309Y77499500D01*
X19673886Y77530201D01*
X19673888Y77530203D01*
X19673890Y77530203D01*
X19776608Y77589508D01*
X19776608Y77589509D01*
X19776613Y77589511D01*
X19860489Y77673387D01*
X19918829Y77774434D01*
X19919797Y77776110D01*
X19919797Y77776112D01*
X19919799Y77776114D01*
X19950500Y77890691D01*
X19950500Y78009309D01*
X19919799Y78123886D01*
X19919797Y78123890D01*
X19919797Y78123891D01*
X19860492Y78226609D01*
X19860490Y78226611D01*
X19860489Y78226613D01*
X19776613Y78310489D01*
X19776610Y78310491D01*
X19776608Y78310493D01*
X19673889Y78369798D01*
X19673890Y78369798D01*
X19660351Y78373426D01*
X19559309Y78400500D01*
X19440691Y78400500D01*
X19404084Y78390691D01*
X19326109Y78369798D01*
X19223391Y78310493D01*
X19139507Y78226609D01*
X19080202Y78123890D01*
X19080201Y78123886D01*
X19066800Y78073877D01*
X19033478Y78022563D01*
X18976357Y78000636D01*
X18971175Y78000500D01*
X17626609Y78000500D01*
X17568418Y78019407D01*
X17532454Y78068907D01*
X17532454Y78130093D01*
X17556603Y78169502D01*
X17560489Y78173387D01*
X17583853Y78213854D01*
X17619797Y78276110D01*
X17619797Y78276112D01*
X17619799Y78276114D01*
X17650500Y78390691D01*
X17650500Y78509309D01*
X17619799Y78623886D01*
X17619797Y78623889D01*
X17619797Y78623891D01*
X17560492Y78726609D01*
X17560490Y78726611D01*
X17560489Y78726613D01*
X17476613Y78810489D01*
X17476610Y78810491D01*
X17476608Y78810493D01*
X17373889Y78869798D01*
X17373890Y78869798D01*
X17351083Y78875909D01*
X17259309Y78900500D01*
X17140691Y78900500D01*
X17070567Y78881711D01*
X17026109Y78869798D01*
X16923391Y78810493D01*
X16892393Y78779495D01*
X16837876Y78751719D01*
X16822390Y78750500D01*
X16760435Y78750500D01*
X16684012Y78730022D01*
X16632252Y78700138D01*
X16632251Y78700139D01*
X16615491Y78690462D01*
X13675489Y75750460D01*
X13675488Y75750461D01*
X13619539Y75694511D01*
X13579980Y75625993D01*
X13579978Y75625989D01*
X13559500Y75549565D01*
X13559500Y75527610D01*
X13540593Y75469419D01*
X13530505Y75457607D01*
X13499507Y75426609D01*
X13440202Y75323891D01*
X13440201Y75323886D01*
X13409500Y75209309D01*
X13409500Y75090691D01*
X13416256Y75065479D01*
X13440202Y74976110D01*
X13499507Y74873392D01*
X13499509Y74873390D01*
X13499511Y74873387D01*
X13583387Y74789511D01*
X13583389Y74789510D01*
X13583391Y74789508D01*
X13686110Y74730203D01*
X13686111Y74730203D01*
X13686114Y74730201D01*
X13800691Y74699500D01*
X13800693Y74699500D01*
X13900500Y74699500D01*
X13958691Y74680593D01*
X13994655Y74631093D01*
X13999500Y74600500D01*
X13999500Y74540691D01*
X14026574Y74439649D01*
X14030202Y74426110D01*
X14089507Y74323392D01*
X14089509Y74323390D01*
X14089511Y74323387D01*
X14143396Y74269502D01*
X14171172Y74214987D01*
X14161601Y74154555D01*
X14118336Y74111290D01*
X14073391Y74100500D01*
X13065479Y74100500D01*
X13007288Y74119407D01*
X12995475Y74129496D01*
X12294378Y74830593D01*
X11584511Y75540460D01*
X11584508Y75540462D01*
X11568745Y75549563D01*
X11568745Y75549564D01*
X11515990Y75580021D01*
X11515985Y75580023D01*
X11439564Y75600500D01*
X11439562Y75600500D01*
X10677610Y75600500D01*
X10619419Y75619407D01*
X10607607Y75629495D01*
X10606875Y75630227D01*
X10576613Y75660489D01*
X10576610Y75660491D01*
X10576609Y75660492D01*
X10576608Y75660493D01*
X10473889Y75719798D01*
X10473890Y75719798D01*
X10460351Y75723426D01*
X10359309Y75750500D01*
X10240691Y75750500D01*
X10170567Y75731711D01*
X10126109Y75719798D01*
X10023391Y75660493D01*
X9939507Y75576609D01*
X9880202Y75473891D01*
X9880201Y75473886D01*
X9849500Y75359309D01*
X9849500Y75240691D01*
X9857909Y75209309D01*
X9880202Y75126110D01*
X9939507Y75023392D01*
X9939509Y75023390D01*
X9939511Y75023387D01*
X10023387Y74939511D01*
X10023389Y74939510D01*
X10023391Y74939508D01*
X10126110Y74880203D01*
X10126111Y74880203D01*
X10126114Y74880201D01*
X10240691Y74849500D01*
X10240693Y74849500D01*
X10286591Y74849500D01*
X10344782Y74830593D01*
X10380746Y74781093D01*
X10385591Y74750500D01*
X10385591Y74745401D01*
X10385591Y74745400D01*
X10385591Y74626782D01*
X10396373Y74586543D01*
X10416293Y74512201D01*
X10475598Y74409483D01*
X10475600Y74409481D01*
X10475602Y74409478D01*
X10559478Y74325602D01*
X10559480Y74325601D01*
X10559482Y74325599D01*
X10662201Y74266294D01*
X10662199Y74266294D01*
X10662203Y74266293D01*
X10662205Y74266292D01*
X10742714Y74244720D01*
X10748769Y74240788D01*
X10755961Y74240143D01*
X10773973Y74224420D01*
X10794026Y74211397D01*
X10796613Y74204656D01*
X10802055Y74199906D01*
X10807385Y74176595D01*
X10815953Y74154276D01*
X10814084Y74147301D01*
X10815694Y74140260D01*
X10806306Y74118271D01*
X10800118Y74095175D01*
X10794505Y74090630D01*
X10791670Y74083989D01*
X10776923Y74076393D01*
X10752568Y74056670D01*
X10739158Y74052585D01*
X10730040Y74050500D01*
X10726082Y74050500D01*
X10581087Y74021658D01*
X10552953Y74010005D01*
X10544829Y74008147D01*
X10522248Y74010171D01*
X10499644Y74008392D01*
X10491559Y74012920D01*
X10483888Y74013607D01*
X10472352Y74023677D01*
X10452756Y74034652D01*
X9202887Y75284521D01*
X7937947Y76549462D01*
X7910170Y76603979D01*
X7908951Y76619466D01*
X7908951Y77413593D01*
X7925636Y77468595D01*
X7940054Y77490173D01*
X7948535Y77502865D01*
X8005109Y77639447D01*
X8017938Y77703945D01*
X8024670Y77715965D01*
X8026826Y77729574D01*
X8039250Y77741999D01*
X8047835Y77757327D01*
X8060347Y77763096D01*
X8070091Y77772839D01*
X8087444Y77775588D01*
X8103400Y77782943D01*
X8116914Y77780255D01*
X8130523Y77782410D01*
X8146177Y77774434D01*
X8163410Y77771006D01*
X8185040Y77754633D01*
X8245504Y77694169D01*
X8273281Y77639652D01*
X8274500Y77624165D01*
X8274500Y76842853D01*
X8274500Y76757147D01*
X8293692Y76685521D01*
X8296683Y76674357D01*
X8339531Y76600143D01*
X8339532Y76600142D01*
X8339533Y76600141D01*
X8339535Y76600138D01*
X8715758Y76223915D01*
X9081671Y75858002D01*
X9097403Y75837499D01*
X9134405Y75773411D01*
X9218281Y75689535D01*
X9218283Y75689534D01*
X9218285Y75689532D01*
X9321004Y75630227D01*
X9321005Y75630227D01*
X9321008Y75630225D01*
X9435585Y75599524D01*
X9435587Y75599524D01*
X9554201Y75599524D01*
X9554203Y75599524D01*
X9668780Y75630225D01*
X9668782Y75630227D01*
X9668784Y75630227D01*
X9771502Y75689532D01*
X9771502Y75689533D01*
X9771507Y75689535D01*
X9855383Y75773411D01*
X9855386Y75773416D01*
X9914691Y75876134D01*
X9914691Y75876136D01*
X9914693Y75876138D01*
X9945394Y75990715D01*
X9945394Y76109333D01*
X9914693Y76223910D01*
X9914691Y76223913D01*
X9914691Y76223915D01*
X9855386Y76326633D01*
X9855384Y76326635D01*
X9855383Y76326637D01*
X9771507Y76410513D01*
X9771504Y76410515D01*
X9771502Y76410517D01*
X9668783Y76469822D01*
X9668784Y76469822D01*
X9655245Y76473450D01*
X9554203Y76500524D01*
X9435585Y76500524D01*
X9435583Y76500524D01*
X9435578Y76500523D01*
X9431021Y76499302D01*
X9369920Y76502508D01*
X9335401Y76524926D01*
X8954496Y76905831D01*
X8926719Y76960348D01*
X8925500Y76975835D01*
X8925500Y77842852D01*
X8923450Y77850503D01*
X8923450Y77850504D01*
X8922462Y77854188D01*
X8903318Y77925639D01*
X8899485Y77932278D01*
X8860468Y77999858D01*
X8860466Y77999860D01*
X8860465Y77999862D01*
X7699862Y79160465D01*
X7699859Y79160467D01*
X7699857Y79160469D01*
X7625642Y79203317D01*
X7625644Y79203317D01*
X7593521Y79211924D01*
X7542853Y79225500D01*
X6242853Y79225500D01*
X6157147Y79225500D01*
X6106478Y79211924D01*
X6074356Y79203317D01*
X6000142Y79160469D01*
X4819169Y77979496D01*
X4764652Y77951719D01*
X4749165Y77950500D01*
X4740691Y77950500D01*
X4672690Y77932279D01*
X4626109Y77919798D01*
X4523391Y77860493D01*
X4439507Y77776609D01*
X4380202Y77673891D01*
X4380067Y77673387D01*
X4349500Y77559309D01*
X500500Y77559309D01*
X500500Y80239309D01*
X5549500Y80239309D01*
X5549500Y80120691D01*
X5565185Y80062154D01*
X5580202Y80006110D01*
X5639507Y79903392D01*
X5639509Y79903390D01*
X5639511Y79903387D01*
X5723387Y79819511D01*
X5723389Y79819510D01*
X5723391Y79819508D01*
X5826110Y79760203D01*
X5826111Y79760203D01*
X5826114Y79760201D01*
X5940691Y79729500D01*
X5940693Y79729500D01*
X6059307Y79729500D01*
X6059309Y79729500D01*
X6173886Y79760201D01*
X6173888Y79760203D01*
X6173890Y79760203D01*
X6276608Y79819508D01*
X6276608Y79819509D01*
X6276613Y79819511D01*
X6360489Y79903387D01*
X6419799Y80006114D01*
X6422921Y80017768D01*
X6448546Y80062154D01*
X6781897Y80395504D01*
X6836413Y80423281D01*
X6851900Y80424500D01*
X13085256Y80424500D01*
X13143447Y80405593D01*
X13155259Y80395504D01*
X13196873Y80353891D01*
X13206284Y80344480D01*
X13343216Y80265423D01*
X13495943Y80224500D01*
X13495945Y80224500D01*
X13654055Y80224500D01*
X13654057Y80224500D01*
X13806784Y80265423D01*
X13943716Y80344480D01*
X13969229Y80369994D01*
X13994741Y80395504D01*
X14049258Y80423281D01*
X14064744Y80424500D01*
X14849058Y80424500D01*
X14849060Y80424500D01*
X14950921Y80451793D01*
X14950923Y80451795D01*
X14950925Y80451795D01*
X15042241Y80504517D01*
X15042241Y80504518D01*
X15042246Y80504520D01*
X15132291Y80594565D01*
X20954500Y80594565D01*
X20954500Y77605436D01*
X20974977Y77529015D01*
X20974981Y77529007D01*
X20992015Y77499501D01*
X20992016Y77499501D01*
X20997402Y77490173D01*
X21014540Y77460489D01*
X21020505Y77454524D01*
X21048281Y77400009D01*
X21049500Y77384522D01*
X21049500Y77340691D01*
X21053406Y77326114D01*
X21080202Y77226110D01*
X21139507Y77123392D01*
X21139509Y77123390D01*
X21139511Y77123387D01*
X21223387Y77039511D01*
X21223389Y77039510D01*
X21223391Y77039508D01*
X21326110Y76980203D01*
X21326111Y76980203D01*
X21326114Y76980201D01*
X21440691Y76949500D01*
X21440693Y76949500D01*
X21559307Y76949500D01*
X21559309Y76949500D01*
X21673886Y76980201D01*
X21673888Y76980203D01*
X21673890Y76980203D01*
X21776608Y77039508D01*
X21776608Y77039509D01*
X21776613Y77039511D01*
X21860489Y77123387D01*
X21890031Y77174555D01*
X21919797Y77226110D01*
X21919797Y77226112D01*
X21919799Y77226114D01*
X21950500Y77340691D01*
X21950500Y77459309D01*
X21919799Y77573886D01*
X21919797Y77573889D01*
X21919797Y77573891D01*
X21860492Y77676609D01*
X21860490Y77676611D01*
X21860489Y77676613D01*
X21776613Y77760489D01*
X21776610Y77760491D01*
X21776608Y77760493D01*
X21673889Y77819798D01*
X21673885Y77819800D01*
X21628876Y77831860D01*
X21577562Y77865184D01*
X21555636Y77922305D01*
X21555500Y77927486D01*
X21555500Y80173919D01*
X22949500Y80173919D01*
X22949500Y80026082D01*
X22978342Y79881086D01*
X23034915Y79744507D01*
X23034916Y79744505D01*
X23117049Y79621584D01*
X23221584Y79517049D01*
X23344505Y79434916D01*
X23481087Y79378342D01*
X23521513Y79370301D01*
X23572203Y79343207D01*
X24495504Y78419906D01*
X24523281Y78365389D01*
X24524500Y78349902D01*
X24524500Y74294769D01*
X24507816Y74239768D01*
X24484914Y74205494D01*
X24428342Y74068915D01*
X24399500Y73923919D01*
X24399500Y73776082D01*
X24428342Y73631086D01*
X24482847Y73499500D01*
X24484916Y73494505D01*
X24567049Y73371584D01*
X24671584Y73267049D01*
X24794505Y73184916D01*
X24931087Y73128342D01*
X25076082Y73099500D01*
X25076083Y73099500D01*
X25223917Y73099500D01*
X25223918Y73099500D01*
X25368913Y73128342D01*
X25505495Y73184916D01*
X25628416Y73267049D01*
X25732951Y73371584D01*
X25815084Y73494505D01*
X25871658Y73631087D01*
X25900500Y73776082D01*
X25900500Y73923918D01*
X25871658Y74068913D01*
X25842011Y74140488D01*
X25815085Y74205494D01*
X25792184Y74239768D01*
X25775500Y74294769D01*
X25775500Y78583493D01*
X25775501Y78583514D01*
X25775501Y78711605D01*
X25775501Y78711606D01*
X25751463Y78832451D01*
X25704313Y78946283D01*
X25704313Y78946284D01*
X25635858Y79048733D01*
X25512388Y79172203D01*
X25448873Y79235718D01*
X28150909Y79235718D01*
X28150909Y79117100D01*
X28158821Y79087574D01*
X28181611Y79002519D01*
X28240916Y78899801D01*
X28240918Y78899799D01*
X28240920Y78899796D01*
X28324796Y78815920D01*
X28324798Y78815919D01*
X28324800Y78815917D01*
X28427519Y78756612D01*
X28427520Y78756612D01*
X28427523Y78756610D01*
X28542100Y78725909D01*
X28542102Y78725909D01*
X28660716Y78725909D01*
X28660718Y78725909D01*
X28775295Y78756610D01*
X28775297Y78756612D01*
X28775299Y78756612D01*
X28878017Y78815917D01*
X28878017Y78815918D01*
X28878022Y78815920D01*
X28909016Y78846914D01*
X28963533Y78874690D01*
X28979019Y78875909D01*
X30510613Y78875909D01*
X30568804Y78857002D01*
X30596349Y78826410D01*
X30623436Y78779495D01*
X30639511Y78751653D01*
X30723387Y78667777D01*
X30723389Y78667776D01*
X30723391Y78667774D01*
X30826110Y78608469D01*
X30826111Y78608469D01*
X30826114Y78608467D01*
X30940691Y78577766D01*
X30940693Y78577766D01*
X31059307Y78577766D01*
X31059309Y78577766D01*
X31173886Y78608467D01*
X31173888Y78608469D01*
X31173890Y78608469D01*
X31276608Y78667774D01*
X31276608Y78667775D01*
X31276613Y78667777D01*
X31360489Y78751653D01*
X31376564Y78779495D01*
X31419797Y78854376D01*
X31419797Y78854378D01*
X31419799Y78854380D01*
X31450500Y78968957D01*
X31450500Y79087575D01*
X31419799Y79202152D01*
X31419797Y79202155D01*
X31419797Y79202157D01*
X31360492Y79304875D01*
X31360490Y79304877D01*
X31360489Y79304879D01*
X31276613Y79388755D01*
X31276610Y79388757D01*
X31276608Y79388759D01*
X31173889Y79448064D01*
X31173890Y79448064D01*
X31155386Y79453022D01*
X31059309Y79478766D01*
X30940691Y79478766D01*
X30940689Y79478766D01*
X30940684Y79478765D01*
X30938199Y79478099D01*
X30935627Y79478099D01*
X30934262Y79477919D01*
X30934238Y79478099D01*
X30898117Y79478096D01*
X30897850Y79476062D01*
X30891420Y79476909D01*
X30891419Y79476909D01*
X30891417Y79476909D01*
X28979019Y79476909D01*
X28920828Y79495816D01*
X28909016Y79505904D01*
X28897871Y79517049D01*
X28878022Y79536898D01*
X28878019Y79536900D01*
X28878018Y79536901D01*
X28878017Y79536902D01*
X28775298Y79596207D01*
X28775299Y79596207D01*
X28761760Y79599835D01*
X28660718Y79626909D01*
X28542100Y79626909D01*
X28471976Y79608120D01*
X28427518Y79596207D01*
X28324800Y79536902D01*
X28240916Y79453018D01*
X28181611Y79350300D01*
X28169441Y79304879D01*
X28150909Y79235718D01*
X25448873Y79235718D01*
X24456793Y80227797D01*
X24429699Y80278487D01*
X24421658Y80318913D01*
X24365084Y80455495D01*
X24282951Y80578416D01*
X24178416Y80682951D01*
X24055495Y80765084D01*
X23982161Y80795460D01*
X23918914Y80821658D01*
X23773918Y80850500D01*
X23626082Y80850500D01*
X23626081Y80850500D01*
X23481085Y80821658D01*
X23344506Y80765085D01*
X23221585Y80682952D01*
X23117048Y80578415D01*
X23034915Y80455494D01*
X22978342Y80318915D01*
X22949500Y80173919D01*
X21555500Y80173919D01*
X21555500Y80389521D01*
X21557968Y80397119D01*
X21556719Y80405008D01*
X21567243Y80425664D01*
X21574407Y80447712D01*
X21584496Y80459525D01*
X21645475Y80520504D01*
X21699992Y80548281D01*
X21715479Y80549500D01*
X21759307Y80549500D01*
X21759309Y80549500D01*
X21873886Y80580201D01*
X21873888Y80580203D01*
X21873890Y80580203D01*
X21976608Y80639508D01*
X21976608Y80639509D01*
X21976613Y80639511D01*
X22060489Y80723387D01*
X22102101Y80795460D01*
X22119797Y80826110D01*
X22119797Y80826112D01*
X22119799Y80826114D01*
X22150500Y80940691D01*
X22150500Y81059309D01*
X22119799Y81173886D01*
X22119797Y81173889D01*
X22119797Y81173891D01*
X22060492Y81276609D01*
X22060490Y81276611D01*
X22060489Y81276613D01*
X21976613Y81360489D01*
X21976610Y81360491D01*
X21976608Y81360493D01*
X21873889Y81419798D01*
X21873890Y81419798D01*
X21852610Y81425500D01*
X21759309Y81450500D01*
X21640691Y81450500D01*
X21570567Y81431711D01*
X21526109Y81419798D01*
X21423391Y81360493D01*
X21339507Y81276609D01*
X21280202Y81173891D01*
X21263037Y81109831D01*
X21252610Y81070913D01*
X21249500Y81059308D01*
X21249500Y81015479D01*
X21230593Y80957288D01*
X21220504Y80945475D01*
X21070489Y80795460D01*
X21070488Y80795461D01*
X21014539Y80739511D01*
X20974980Y80670993D01*
X20974978Y80670989D01*
X20954500Y80594565D01*
X15132291Y80594565D01*
X17699948Y83162222D01*
X17754465Y83189999D01*
X17769952Y83191218D01*
X17842106Y83191218D01*
X17842108Y83191218D01*
X17994835Y83232141D01*
X18131767Y83311198D01*
X18243571Y83423002D01*
X18322628Y83559934D01*
X18363551Y83712661D01*
X18363551Y83870775D01*
X18322628Y84023502D01*
X18243571Y84160434D01*
X18131767Y84272238D01*
X17994835Y84351295D01*
X17842108Y84392218D01*
X17683994Y84392218D01*
X17531267Y84351295D01*
X17394335Y84272238D01*
X17282531Y84160434D01*
X17203474Y84023502D01*
X17162551Y83870774D01*
X17162551Y83798619D01*
X17143644Y83740428D01*
X17133555Y83728615D01*
X14659436Y81254496D01*
X14604919Y81226719D01*
X14589432Y81225500D01*
X14064744Y81225500D01*
X14006553Y81244407D01*
X13994741Y81254496D01*
X13943718Y81305518D01*
X13943716Y81305520D01*
X13806784Y81384577D01*
X13654057Y81425500D01*
X13495943Y81425500D01*
X13343216Y81384577D01*
X13206281Y81305518D01*
X13155259Y81254496D01*
X13100742Y81226719D01*
X13085256Y81225500D01*
X6703806Y81225500D01*
X6703790Y81225501D01*
X6697727Y81225501D01*
X6592273Y81225501D01*
X6490412Y81198207D01*
X6490410Y81198206D01*
X6448288Y81173888D01*
X6448289Y81173887D01*
X6399085Y81145480D01*
X6324519Y81070914D01*
X6324520Y81070913D01*
X6324518Y81070911D01*
X6324517Y81070911D01*
X5882151Y80628546D01*
X5837775Y80602924D01*
X5826112Y80599799D01*
X5826110Y80599798D01*
X5723391Y80540493D01*
X5639507Y80456609D01*
X5580202Y80353891D01*
X5570830Y80318915D01*
X5549500Y80239309D01*
X500500Y80239309D01*
X500500Y84559309D01*
X12549500Y84559309D01*
X12549500Y84440691D01*
X12573454Y84351295D01*
X12580202Y84326110D01*
X12639507Y84223392D01*
X12639509Y84223390D01*
X12639511Y84223387D01*
X12723387Y84139511D01*
X12723389Y84139510D01*
X12723391Y84139508D01*
X12826110Y84080203D01*
X12826111Y84080203D01*
X12826114Y84080201D01*
X12940691Y84049500D01*
X12940693Y84049500D01*
X13059307Y84049500D01*
X13059309Y84049500D01*
X13173886Y84080201D01*
X13173888Y84080203D01*
X13173890Y84080203D01*
X13276608Y84139508D01*
X13276608Y84139509D01*
X13276613Y84139511D01*
X13360489Y84223387D01*
X13360492Y84223392D01*
X13419797Y84326110D01*
X13419797Y84326112D01*
X13419799Y84326114D01*
X13450500Y84440691D01*
X13450500Y84559309D01*
X13419799Y84673886D01*
X13419797Y84673889D01*
X13419797Y84673891D01*
X13360492Y84776609D01*
X13360490Y84776611D01*
X13360489Y84776613D01*
X13276613Y84860489D01*
X13276610Y84860491D01*
X13276608Y84860493D01*
X13173889Y84919798D01*
X13173890Y84919798D01*
X13160351Y84923426D01*
X13059309Y84950500D01*
X12940691Y84950500D01*
X12870567Y84931711D01*
X12826109Y84919798D01*
X12723391Y84860493D01*
X12639507Y84776609D01*
X12580202Y84673891D01*
X12580201Y84673886D01*
X12549500Y84559309D01*
X500500Y84559309D01*
X500500Y87750000D01*
X19900000Y87750000D01*
X19919698Y87499707D01*
X19978310Y87255572D01*
X20074388Y87023618D01*
X20074394Y87023606D01*
X20205569Y86809550D01*
X20205570Y86809548D01*
X20205571Y86809546D01*
X20205573Y86809544D01*
X20368629Y86618629D01*
X20559544Y86455573D01*
X20559546Y86455572D01*
X20559547Y86455571D01*
X20559549Y86455570D01*
X20773605Y86324395D01*
X20773617Y86324389D01*
X21005571Y86228311D01*
X21005573Y86228310D01*
X21249705Y86169699D01*
X21500000Y86150000D01*
X21750295Y86169699D01*
X21994427Y86228310D01*
X22226385Y86324390D01*
X22226389Y86324393D01*
X22226394Y86324395D01*
X22318912Y86381092D01*
X22440456Y86455573D01*
X22631371Y86618629D01*
X22794427Y86809544D01*
X22868908Y86931088D01*
X22925605Y87023606D01*
X22925607Y87023611D01*
X22925610Y87023615D01*
X23021690Y87255573D01*
X23080301Y87499705D01*
X23100000Y87750000D01*
X23080301Y88000295D01*
X23021690Y88244427D01*
X22925610Y88476385D01*
X22925605Y88476395D01*
X22794430Y88690451D01*
X22794429Y88690453D01*
X22794428Y88690454D01*
X22794427Y88690456D01*
X22631371Y88881371D01*
X22631364Y88881377D01*
X22631361Y88881380D01*
X22440452Y89044430D01*
X22440450Y89044431D01*
X22226394Y89175606D01*
X22226382Y89175612D01*
X21994428Y89271690D01*
X21994429Y89271690D01*
X21750293Y89330302D01*
X21500000Y89350000D01*
X21249706Y89330302D01*
X21005571Y89271690D01*
X20773617Y89175612D01*
X20773605Y89175606D01*
X20559549Y89044431D01*
X20559547Y89044430D01*
X20368638Y88881380D01*
X20368620Y88881362D01*
X20205570Y88690453D01*
X20205569Y88690451D01*
X20074394Y88476395D01*
X20074388Y88476383D01*
X19978310Y88244429D01*
X19919698Y88000294D01*
X19900000Y87750000D01*
X500500Y87750000D01*
X500500Y92036261D01*
X519407Y92094452D01*
X568907Y92130416D01*
X630093Y92130416D01*
X679591Y92094453D01*
X779207Y91957344D01*
X957344Y91779207D01*
X1161155Y91631130D01*
X1385621Y91516759D01*
X1625215Y91438910D01*
X1625216Y91438910D01*
X1625219Y91438909D01*
X1874035Y91399500D01*
X1874038Y91399500D01*
X2125965Y91399500D01*
X2374780Y91438909D01*
X2374781Y91438910D01*
X2374785Y91438910D01*
X2614379Y91516759D01*
X2838845Y91631130D01*
X3042656Y91779207D01*
X3220793Y91957344D01*
X3368870Y92161155D01*
X3483241Y92385621D01*
X3561090Y92625215D01*
X3600500Y92874038D01*
X3600500Y93125962D01*
X3600500Y93125966D01*
X3561091Y93374781D01*
X3561090Y93374785D01*
X3483241Y93614379D01*
X3368870Y93838845D01*
X3220793Y94042656D01*
X3042656Y94220793D01*
X2905547Y94320409D01*
X2869584Y94369907D01*
X2869584Y94431093D01*
X2905548Y94480593D01*
X2963739Y94499500D01*
X40036261Y94499500D01*
X40094452Y94480593D01*
G37*
%TD.AperFunction*%
%TD*%
M02*
