%TF.GenerationSoftware,KiCad,Pcbnew,10.0.1*%
%TF.CreationDate,2026-07-07T13:59:25+01:00*%
%TF.ProjectId,oe-commutator-controller,6f652d63-6f6d-46d7-9574-61746f722d63,J*%
%TF.SameCoordinates,PX6146580PY8e18f40*%
%TF.FileFunction,Legend,Bot*%
%TF.FilePolarity,Positive*%
%FSLAX46Y46*%
G04 Gerber Fmt 4.6, Leading zero omitted, Abs format (unit mm)*
G04 Created by KiCad (PCBNEW 10.0.1) date 2026-07-07 13:59:25*
%MOMM*%
%LPD*%
G01*
G04 APERTURE LIST*
%ADD10C,0.000000*%
%ADD11C,0.150000*%
%ADD12C,1.600000*%
%ADD13C,2.700000*%
%ADD14C,0.650000*%
G04 APERTURE END LIST*
D10*
G36*
X8692570Y15399162D02*
G01*
X8034535Y15399162D01*
X8034535Y18884476D01*
X8692570Y18884476D01*
X8692570Y15399162D01*
G37*
G36*
X17142910Y15399162D02*
G01*
X16484875Y15399162D01*
X16484875Y17854309D01*
X17142910Y17854309D01*
X17142910Y15399162D01*
G37*
G36*
X23162419Y15115524D02*
G01*
X22674565Y15115524D01*
X21458340Y18702942D01*
X21946194Y18702942D01*
X23162419Y15115524D01*
G37*
G36*
X27539112Y15399162D02*
G01*
X26881077Y15399162D01*
X26881077Y18884476D01*
X27539112Y18884476D01*
X27539112Y15399162D01*
G37*
G36*
X37575535Y15399162D02*
G01*
X35360913Y15399162D01*
X35360913Y15946014D01*
X36894810Y15946014D01*
X36894810Y16830955D01*
X35587818Y16830955D01*
X35587818Y17364189D01*
X36894810Y17364189D01*
X36894810Y18151558D01*
X35365448Y18151558D01*
X35365448Y18702942D01*
X37575535Y18702942D01*
X37575535Y15399162D01*
G37*
G36*
X33799299Y17898403D02*
G01*
X33852507Y17894548D01*
X33904314Y17888122D01*
X33954721Y17879125D01*
X34003728Y17867558D01*
X34051335Y17853421D01*
X34097541Y17836713D01*
X34142346Y17817434D01*
X34185751Y17795585D01*
X34227756Y17771166D01*
X34268360Y17744176D01*
X34307564Y17714616D01*
X34345367Y17682486D01*
X34381770Y17647785D01*
X34416773Y17610513D01*
X34450375Y17570671D01*
X34470795Y17854309D01*
X35087982Y17854301D01*
X35087982Y15399155D01*
X34432217Y15399155D01*
X34432217Y17130463D01*
X34414375Y17159039D01*
X34395451Y17185772D01*
X34375446Y17210661D01*
X34354360Y17233707D01*
X34332192Y17254909D01*
X34308943Y17274267D01*
X34284612Y17291781D01*
X34259200Y17307452D01*
X34232707Y17321279D01*
X34205132Y17333263D01*
X34176476Y17343402D01*
X34146739Y17351699D01*
X34115920Y17358151D01*
X34084020Y17362760D01*
X34051038Y17365526D01*
X34016976Y17366447D01*
X33991067Y17366075D01*
X33966097Y17364958D01*
X33942068Y17363097D01*
X33918978Y17360491D01*
X33896827Y17357140D01*
X33875616Y17353045D01*
X33855345Y17348206D01*
X33836013Y17342622D01*
X33817621Y17336293D01*
X33800169Y17329220D01*
X33783656Y17321403D01*
X33768083Y17312841D01*
X33753450Y17303534D01*
X33739756Y17293484D01*
X33727002Y17282688D01*
X33715187Y17271149D01*
X33704197Y17259068D01*
X33693916Y17246083D01*
X33684344Y17232194D01*
X33675481Y17217400D01*
X33667326Y17201703D01*
X33659881Y17185101D01*
X33653145Y17167595D01*
X33647118Y17149185D01*
X33641800Y17129871D01*
X33637191Y17109653D01*
X33633291Y17088531D01*
X33630101Y17066505D01*
X33627619Y17043574D01*
X33625846Y17019740D01*
X33624783Y16995002D01*
X33624428Y16969360D01*
X33624428Y15399155D01*
X32968662Y15399155D01*
X32968662Y16985245D01*
X32969956Y17041369D01*
X32972704Y17095720D01*
X32976906Y17148299D01*
X32982561Y17199105D01*
X32989669Y17248138D01*
X32998231Y17295399D01*
X33008247Y17340887D01*
X33019717Y17384602D01*
X33032640Y17426545D01*
X33047017Y17466715D01*
X33062847Y17505113D01*
X33080131Y17541738D01*
X33098869Y17576590D01*
X33119060Y17609669D01*
X33140705Y17640975D01*
X33163803Y17670509D01*
X33188409Y17698261D01*
X33214575Y17724223D01*
X33242300Y17748394D01*
X33271586Y17770775D01*
X33302431Y17791366D01*
X33334837Y17810165D01*
X33368802Y17827175D01*
X33404328Y17842394D01*
X33441413Y17855822D01*
X33480058Y17867460D01*
X33520263Y17877308D01*
X33562029Y17885365D01*
X33605354Y17891632D01*
X33650239Y17896108D01*
X33696685Y17898793D01*
X33744690Y17899689D01*
X33799299Y17898403D01*
G37*
G36*
X16834891Y18827371D02*
G01*
X16855339Y18826254D01*
X16875238Y18824393D01*
X16894588Y18821787D01*
X16913388Y18818436D01*
X16931638Y18814341D01*
X16949338Y18809502D01*
X16966489Y18803918D01*
X16983090Y18797589D01*
X16999142Y18790516D01*
X17014644Y18782699D01*
X17029597Y18774137D01*
X17044000Y18764830D01*
X17057854Y18754780D01*
X17071158Y18743984D01*
X17083912Y18732445D01*
X17095727Y18720329D01*
X17106781Y18707805D01*
X17117071Y18694874D01*
X17126600Y18681534D01*
X17135366Y18667787D01*
X17143370Y18653632D01*
X17150612Y18639069D01*
X17157091Y18624099D01*
X17162808Y18608720D01*
X17167763Y18592934D01*
X17171956Y18576740D01*
X17175386Y18560139D01*
X17178054Y18543129D01*
X17179960Y18525712D01*
X17181103Y18507887D01*
X17181484Y18489654D01*
X17181094Y18471146D01*
X17179924Y18453063D01*
X17177974Y18435406D01*
X17175245Y18418175D01*
X17171735Y18401369D01*
X17167445Y18384988D01*
X17162375Y18369033D01*
X17156525Y18353504D01*
X17149895Y18338400D01*
X17142485Y18323722D01*
X17134295Y18309470D01*
X17125325Y18295643D01*
X17115576Y18282241D01*
X17105046Y18269266D01*
X17093736Y18256715D01*
X17081646Y18244591D01*
X17068634Y18233051D01*
X17055125Y18222256D01*
X17041120Y18212205D01*
X17026619Y18202899D01*
X17011621Y18194337D01*
X16996127Y18186519D01*
X16980137Y18179446D01*
X16963651Y18173118D01*
X16946668Y18167534D01*
X16929189Y18162694D01*
X16911214Y18158599D01*
X16892742Y18155248D01*
X16873775Y18152642D01*
X16854310Y18150781D01*
X16834350Y18149664D01*
X16813893Y18149292D01*
X16793444Y18149664D01*
X16773510Y18150781D01*
X16754090Y18152642D01*
X16735184Y18155248D01*
X16716793Y18158599D01*
X16698915Y18162694D01*
X16681551Y18167534D01*
X16664702Y18173118D01*
X16648366Y18179446D01*
X16632545Y18186519D01*
X16617238Y18194337D01*
X16602444Y18202899D01*
X16588165Y18212205D01*
X16574400Y18222256D01*
X16561149Y18233051D01*
X16548413Y18244591D01*
X16536047Y18256717D01*
X16524479Y18269268D01*
X16513709Y18282245D01*
X16503738Y18295647D01*
X16494563Y18309475D01*
X16486187Y18323728D01*
X16478608Y18338406D01*
X16471828Y18353510D01*
X16465845Y18369039D01*
X16460659Y18384994D01*
X16456272Y18401374D01*
X16452682Y18418179D01*
X16449890Y18435410D01*
X16447896Y18453066D01*
X16446700Y18471147D01*
X16446301Y18489654D01*
X16446691Y18507887D01*
X16447861Y18525712D01*
X16449811Y18543129D01*
X16452541Y18560139D01*
X16456051Y18576740D01*
X16460340Y18592934D01*
X16465410Y18608720D01*
X16471260Y18624099D01*
X16477890Y18639069D01*
X16485300Y18653632D01*
X16493490Y18667787D01*
X16502460Y18681534D01*
X16512210Y18694874D01*
X16522739Y18707805D01*
X16534049Y18720329D01*
X16546139Y18732445D01*
X16558885Y18743984D01*
X16572162Y18754780D01*
X16585971Y18764830D01*
X16600313Y18774137D01*
X16615185Y18782699D01*
X16630590Y18790516D01*
X16646527Y18797589D01*
X16662996Y18803918D01*
X16679996Y18809502D01*
X16697528Y18814341D01*
X16715592Y18818436D01*
X16734189Y18821787D01*
X16753317Y18824393D01*
X16772977Y18826254D01*
X16793169Y18827371D01*
X16813893Y18827743D01*
X16834891Y18827371D01*
G37*
G36*
X20084271Y15399162D02*
G01*
X19060917Y15399155D01*
X19007088Y15400200D01*
X18953950Y15402770D01*
X18901504Y15406865D01*
X18849749Y15412484D01*
X18798686Y15419628D01*
X18748314Y15428296D01*
X18698633Y15438489D01*
X18649644Y15450207D01*
X18601346Y15463449D01*
X18553740Y15478215D01*
X18506825Y15494507D01*
X18460601Y15512322D01*
X18415069Y15531663D01*
X18370228Y15552528D01*
X18326078Y15574917D01*
X18282620Y15598831D01*
X18240119Y15624137D01*
X18198841Y15650701D01*
X18158786Y15678524D01*
X18119955Y15707606D01*
X18082346Y15737946D01*
X18045962Y15769545D01*
X18010800Y15802402D01*
X17976861Y15836518D01*
X17944146Y15871893D01*
X17912654Y15908526D01*
X17882384Y15946418D01*
X17853339Y15985568D01*
X17825516Y16025977D01*
X17798916Y16067644D01*
X17773539Y16110570D01*
X17749386Y16154755D01*
X17726305Y16199967D01*
X17704714Y16245978D01*
X17684611Y16292786D01*
X17665997Y16340392D01*
X17648873Y16388796D01*
X17633237Y16437998D01*
X17619091Y16487997D01*
X17606433Y16538794D01*
X17595265Y16590390D01*
X17585585Y16642782D01*
X17577395Y16695973D01*
X17570694Y16749961D01*
X17565482Y16804748D01*
X17561759Y16860331D01*
X17559525Y16916713D01*
X17558781Y16973892D01*
X17558781Y17125923D01*
X17558811Y17128197D01*
X18248585Y17128197D01*
X18248585Y16953476D01*
X18249959Y16893655D01*
X18252947Y16835590D01*
X18257548Y16779279D01*
X18263761Y16724724D01*
X18271588Y16671924D01*
X18281028Y16620878D01*
X18292081Y16571588D01*
X18304747Y16524053D01*
X18319026Y16478272D01*
X18334918Y16434247D01*
X18352423Y16391976D01*
X18371542Y16351460D01*
X18392273Y16312700D01*
X18414618Y16275694D01*
X18438575Y16240443D01*
X18464146Y16206947D01*
X18491259Y16175349D01*
X18519843Y16145790D01*
X18549899Y16118269D01*
X18581426Y16092787D01*
X18614425Y16069343D01*
X18648895Y16047938D01*
X18684837Y16028571D01*
X18722250Y16011243D01*
X18761135Y15995953D01*
X18801491Y15982702D01*
X18843318Y15971490D01*
X18886617Y15962316D01*
X18931388Y15955181D01*
X18977630Y15950084D01*
X19025343Y15947026D01*
X19074528Y15946007D01*
X19403546Y15946007D01*
X19403546Y18151558D01*
X19067722Y18151558D01*
X19018272Y18150539D01*
X18970329Y18147481D01*
X18923892Y18142384D01*
X18878962Y18135249D01*
X18835539Y18126075D01*
X18793623Y18114862D01*
X18753214Y18101611D01*
X18714312Y18086321D01*
X18676916Y18068992D01*
X18641028Y18049625D01*
X18606646Y18028219D01*
X18573771Y18004774D01*
X18542403Y17979291D01*
X18512542Y17951769D01*
X18484188Y17922209D01*
X18457340Y17890610D01*
X18432062Y17857318D01*
X18408414Y17822113D01*
X18386397Y17784992D01*
X18366011Y17745957D01*
X18347256Y17705007D01*
X18330131Y17662142D01*
X18314638Y17617363D01*
X18300775Y17570669D01*
X18288543Y17522061D01*
X18277942Y17471538D01*
X18268972Y17419101D01*
X18261633Y17364749D01*
X18255924Y17308482D01*
X18251847Y17250301D01*
X18249400Y17190206D01*
X18248585Y17128197D01*
X17558811Y17128197D01*
X17559534Y17183111D01*
X17561795Y17239519D01*
X17565562Y17295147D01*
X17570836Y17349996D01*
X17577616Y17404064D01*
X17585904Y17457352D01*
X17595698Y17509860D01*
X17607000Y17561588D01*
X17619808Y17612536D01*
X17634122Y17662705D01*
X17649944Y17712093D01*
X17667272Y17760701D01*
X17686107Y17808529D01*
X17706449Y17855578D01*
X17728297Y17901846D01*
X17751652Y17947334D01*
X17776354Y17992060D01*
X17802244Y18035474D01*
X17829322Y18077576D01*
X17857588Y18118366D01*
X17887042Y18157845D01*
X17917683Y18196011D01*
X17949513Y18232866D01*
X17982530Y18268410D01*
X18016735Y18302641D01*
X18052127Y18335561D01*
X18088708Y18367169D01*
X18126476Y18397465D01*
X18165431Y18426449D01*
X18205575Y18454122D01*
X18246906Y18480482D01*
X18289425Y18505531D01*
X18332618Y18529436D01*
X18376538Y18551799D01*
X18421184Y18572620D01*
X18466557Y18591898D01*
X18512657Y18609634D01*
X18559483Y18625828D01*
X18607036Y18640480D01*
X18655317Y18653589D01*
X18704323Y18665156D01*
X18754057Y18675181D01*
X18804518Y18683663D01*
X18855705Y18690604D01*
X18907619Y18696002D01*
X18960260Y18699857D01*
X19013628Y18702171D01*
X19067722Y18702942D01*
X20084271Y18702942D01*
X20084271Y18151558D01*
X20084271Y15399162D01*
G37*
G36*
X11273152Y15399162D02*
G01*
X10683193Y15399162D01*
X10653691Y15660103D01*
X10623279Y15623009D01*
X10591610Y15588308D01*
X10558682Y15556000D01*
X10524495Y15526085D01*
X10489050Y15498564D01*
X10452346Y15473435D01*
X10414383Y15450700D01*
X10375162Y15430358D01*
X10334682Y15412409D01*
X10292944Y15396853D01*
X10249947Y15383690D01*
X10205691Y15372921D01*
X10160176Y15364545D01*
X10113403Y15358561D01*
X10065370Y15354972D01*
X10016079Y15353775D01*
X9960416Y15355060D01*
X9906312Y15358916D01*
X9853769Y15365342D01*
X9802785Y15374339D01*
X9753362Y15385906D01*
X9705499Y15400043D01*
X9659196Y15416751D01*
X9614453Y15436029D01*
X9571269Y15457878D01*
X9529646Y15482297D01*
X9489583Y15509287D01*
X9451079Y15538847D01*
X9414136Y15570978D01*
X9378752Y15605679D01*
X9344928Y15642951D01*
X9312664Y15682793D01*
X9282164Y15725214D01*
X9253632Y15769655D01*
X9227067Y15816118D01*
X9202470Y15864602D01*
X9179841Y15915107D01*
X9159180Y15967632D01*
X9140487Y16022179D01*
X9123761Y16078747D01*
X9109004Y16137335D01*
X9096213Y16197945D01*
X9085391Y16260575D01*
X9076536Y16325227D01*
X9069650Y16391899D01*
X9064730Y16460592D01*
X9061779Y16531307D01*
X9060795Y16604042D01*
X9060795Y16640350D01*
X9060949Y16651695D01*
X9716549Y16651695D01*
X9717294Y16577560D01*
X9719527Y16508318D01*
X9723250Y16443968D01*
X9728462Y16384511D01*
X9731627Y16356617D01*
X9735164Y16329946D01*
X9739073Y16304499D01*
X9743354Y16280275D01*
X9748008Y16257274D01*
X9753034Y16235496D01*
X9758432Y16214941D01*
X9764202Y16195610D01*
X9777533Y16157691D01*
X9792565Y16122219D01*
X9809300Y16089194D01*
X9827736Y16058614D01*
X9837592Y16044242D01*
X9847874Y16030481D01*
X9858581Y16017332D01*
X9869713Y16004794D01*
X9881271Y15992868D01*
X9893255Y15981554D01*
X9905664Y15970851D01*
X9918498Y15960760D01*
X9931758Y15951280D01*
X9945443Y15942412D01*
X9959554Y15934156D01*
X9974091Y15926511D01*
X9989052Y15919478D01*
X10004440Y15913056D01*
X10020252Y15907246D01*
X10036490Y15902048D01*
X10070243Y15893485D01*
X10105698Y15887369D01*
X10142855Y15883700D01*
X10181713Y15882477D01*
X10220376Y15883487D01*
X10239135Y15884750D01*
X10257514Y15886519D01*
X10275511Y15888792D01*
X10293127Y15891571D01*
X10310363Y15894855D01*
X10327216Y15898644D01*
X10343689Y15902939D01*
X10359781Y15907738D01*
X10375491Y15913043D01*
X10390821Y15918854D01*
X10405769Y15925169D01*
X10420336Y15931989D01*
X10434522Y15939315D01*
X10448327Y15947146D01*
X10461751Y15955483D01*
X10474794Y15964324D01*
X10487455Y15973671D01*
X10499736Y15983523D01*
X10511635Y15993880D01*
X10523153Y16004742D01*
X10534290Y16016110D01*
X10545046Y16027982D01*
X10555421Y16040360D01*
X10565415Y16053243D01*
X10575028Y16066632D01*
X10584259Y16080525D01*
X10593110Y16094924D01*
X10601579Y16109828D01*
X10609667Y16125237D01*
X10617375Y16141151D01*
X10617375Y17110046D01*
X10601864Y17141095D01*
X10584828Y17170141D01*
X10566268Y17197184D01*
X10546184Y17222224D01*
X10524575Y17245261D01*
X10501441Y17266294D01*
X10476783Y17285325D01*
X10450600Y17302352D01*
X10422892Y17317376D01*
X10393660Y17330397D01*
X10362904Y17341415D01*
X10330623Y17350429D01*
X10296817Y17357440D01*
X10261487Y17362449D01*
X10224632Y17365453D01*
X10186253Y17366455D01*
X10157490Y17365781D01*
X10129631Y17363761D01*
X10102676Y17360393D01*
X10076625Y17355677D01*
X10051479Y17349615D01*
X10027237Y17342205D01*
X10015455Y17337995D01*
X10003899Y17333448D01*
X9992569Y17328565D01*
X9981466Y17323344D01*
X9970588Y17317787D01*
X9959936Y17311893D01*
X9949510Y17305662D01*
X9939311Y17299094D01*
X9929337Y17292189D01*
X9919589Y17284948D01*
X9910068Y17277370D01*
X9900772Y17269455D01*
X9891703Y17261203D01*
X9882859Y17252614D01*
X9874242Y17243688D01*
X9865851Y17234426D01*
X9849746Y17214890D01*
X9834545Y17194008D01*
X9820258Y17171946D01*
X9806892Y17148306D01*
X9794448Y17123089D01*
X9782925Y17096294D01*
X9772325Y17067921D01*
X9762646Y17037971D01*
X9753889Y17006443D01*
X9746054Y16973337D01*
X9739140Y16938654D01*
X9733149Y16902393D01*
X9728079Y16864554D01*
X9723931Y16825138D01*
X9720705Y16784143D01*
X9718400Y16741572D01*
X9717018Y16697422D01*
X9716557Y16651695D01*
X9716549Y16651695D01*
X9060949Y16651695D01*
X9061797Y16714176D01*
X9064801Y16785891D01*
X9069810Y16855497D01*
X9076821Y16922994D01*
X9085835Y16988381D01*
X9096853Y17051658D01*
X9109874Y17112825D01*
X9124898Y17171884D01*
X9141925Y17228832D01*
X9160956Y17283671D01*
X9181989Y17336400D01*
X9205026Y17387020D01*
X9230066Y17435531D01*
X9257109Y17481932D01*
X9286155Y17526223D01*
X9317204Y17568405D01*
X9349733Y17608521D01*
X9383787Y17646050D01*
X9419366Y17680990D01*
X9456469Y17713342D01*
X9495096Y17743105D01*
X9535248Y17770281D01*
X9576924Y17794868D01*
X9620125Y17816868D01*
X9664850Y17836279D01*
X9711101Y17853102D01*
X9758875Y17867337D01*
X9808175Y17878983D01*
X9858999Y17888042D01*
X9911347Y17894512D01*
X9965221Y17898395D01*
X10020619Y17899689D01*
X10066293Y17898652D01*
X10110851Y17895541D01*
X10154292Y17890355D01*
X10196616Y17883096D01*
X10237823Y17873763D01*
X10277914Y17862356D01*
X10316887Y17848874D01*
X10354744Y17833319D01*
X10391484Y17815689D01*
X10427107Y17795986D01*
X10461613Y17774208D01*
X10495003Y17750356D01*
X10527275Y17724430D01*
X10558430Y17696430D01*
X10588469Y17666357D01*
X10617390Y17634209D01*
X10617390Y18884476D01*
X11273152Y18884476D01*
X11273152Y16141151D01*
X11273152Y15399162D01*
G37*
G36*
X30119694Y15399162D02*
G01*
X29529736Y15399162D01*
X29500233Y15660103D01*
X29469822Y15623009D01*
X29438152Y15588308D01*
X29405224Y15556000D01*
X29371037Y15526085D01*
X29335592Y15498564D01*
X29298888Y15473435D01*
X29260926Y15450700D01*
X29221705Y15430358D01*
X29181225Y15412409D01*
X29139486Y15396853D01*
X29096489Y15383690D01*
X29052233Y15372921D01*
X29006718Y15364545D01*
X28959945Y15358561D01*
X28911913Y15354972D01*
X28862621Y15353775D01*
X28806958Y15355060D01*
X28752854Y15358916D01*
X28700311Y15365342D01*
X28649328Y15374339D01*
X28599904Y15385906D01*
X28552041Y15400043D01*
X28505738Y15416751D01*
X28460995Y15436029D01*
X28417812Y15457878D01*
X28376188Y15482297D01*
X28336125Y15509287D01*
X28297622Y15538847D01*
X28260678Y15570978D01*
X28225294Y15605679D01*
X28191471Y15642951D01*
X28159207Y15682793D01*
X28128706Y15725214D01*
X28100174Y15769655D01*
X28073609Y15816118D01*
X28049013Y15864602D01*
X28026384Y15915107D01*
X28005723Y15967632D01*
X27987029Y16022179D01*
X27970304Y16078747D01*
X27955546Y16137335D01*
X27942756Y16197945D01*
X27931933Y16260575D01*
X27923079Y16325227D01*
X27916192Y16391899D01*
X27911273Y16460592D01*
X27908321Y16531307D01*
X27907337Y16604042D01*
X27907337Y16640350D01*
X27907491Y16651695D01*
X28563091Y16651695D01*
X28563836Y16577560D01*
X28566070Y16508318D01*
X28569793Y16443968D01*
X28575005Y16384511D01*
X28578169Y16356617D01*
X28581706Y16329946D01*
X28585615Y16304499D01*
X28589896Y16280275D01*
X28594550Y16257274D01*
X28599576Y16235496D01*
X28604974Y16214941D01*
X28610745Y16195610D01*
X28624075Y16157691D01*
X28639108Y16122219D01*
X28655842Y16089194D01*
X28674278Y16058614D01*
X28684134Y16044242D01*
X28694416Y16030481D01*
X28705123Y16017332D01*
X28716256Y16004794D01*
X28727814Y15992868D01*
X28739797Y15981554D01*
X28752206Y15970851D01*
X28765041Y15960760D01*
X28778300Y15951280D01*
X28791986Y15942412D01*
X28806097Y15934156D01*
X28820633Y15926511D01*
X28835595Y15919478D01*
X28850982Y15913056D01*
X28866795Y15907246D01*
X28883033Y15902048D01*
X28916786Y15893485D01*
X28952240Y15887369D01*
X28989397Y15883700D01*
X29028256Y15882477D01*
X29066918Y15883487D01*
X29085678Y15884750D01*
X29104056Y15886519D01*
X29122054Y15888792D01*
X29139670Y15891571D01*
X29156905Y15894855D01*
X29173759Y15898644D01*
X29190232Y15902939D01*
X29206323Y15907738D01*
X29222034Y15913043D01*
X29237363Y15918854D01*
X29252311Y15925169D01*
X29266879Y15931989D01*
X29281065Y15939315D01*
X29294870Y15947146D01*
X29308293Y15955483D01*
X29321336Y15964324D01*
X29333998Y15973671D01*
X29346278Y15983523D01*
X29358177Y15993880D01*
X29369696Y16004742D01*
X29380833Y16016110D01*
X29391589Y16027982D01*
X29401964Y16040360D01*
X29411957Y16053243D01*
X29421570Y16066632D01*
X29430802Y16080525D01*
X29439652Y16094924D01*
X29448122Y16109828D01*
X29456210Y16125237D01*
X29463917Y16141151D01*
X29463917Y17110046D01*
X29448406Y17141095D01*
X29431371Y17170141D01*
X29412811Y17197184D01*
X29392726Y17222224D01*
X29371117Y17245261D01*
X29347983Y17266294D01*
X29323325Y17285325D01*
X29297142Y17302352D01*
X29269435Y17317376D01*
X29240203Y17330397D01*
X29209446Y17341415D01*
X29177165Y17350429D01*
X29143360Y17357440D01*
X29108029Y17362449D01*
X29071175Y17365453D01*
X29032795Y17366455D01*
X29004032Y17365781D01*
X28976173Y17363761D01*
X28949218Y17360393D01*
X28923168Y17355677D01*
X28898021Y17349615D01*
X28873779Y17342205D01*
X28861997Y17337995D01*
X28850442Y17333448D01*
X28839112Y17328565D01*
X28828008Y17323344D01*
X28817130Y17317787D01*
X28806478Y17311893D01*
X28796053Y17305662D01*
X28785853Y17299094D01*
X28775879Y17292189D01*
X28766132Y17284948D01*
X28756610Y17277370D01*
X28747315Y17269455D01*
X28738245Y17261203D01*
X28729402Y17252614D01*
X28720784Y17243688D01*
X28712393Y17234426D01*
X28696288Y17214890D01*
X28681088Y17194008D01*
X28666800Y17171946D01*
X28653434Y17148306D01*
X28640990Y17123089D01*
X28629468Y17096294D01*
X28618867Y17067921D01*
X28609188Y17037971D01*
X28600431Y17006443D01*
X28592596Y16973337D01*
X28585683Y16938654D01*
X28579691Y16902393D01*
X28574621Y16864554D01*
X28570473Y16825138D01*
X28567247Y16784143D01*
X28564943Y16741572D01*
X28563560Y16697422D01*
X28563099Y16651695D01*
X28563091Y16651695D01*
X27907491Y16651695D01*
X27908339Y16714176D01*
X27911344Y16785891D01*
X27916352Y16855497D01*
X27923363Y16922994D01*
X27932378Y16988381D01*
X27943396Y17051658D01*
X27956416Y17112825D01*
X27971440Y17171884D01*
X27988468Y17228832D01*
X28007498Y17283671D01*
X28028532Y17336400D01*
X28051568Y17387020D01*
X28076608Y17435531D01*
X28103651Y17481932D01*
X28132697Y17526223D01*
X28163746Y17568405D01*
X28196276Y17608521D01*
X28230330Y17646050D01*
X28265908Y17680990D01*
X28303011Y17713342D01*
X28341638Y17743105D01*
X28381790Y17770281D01*
X28423466Y17794868D01*
X28466667Y17816868D01*
X28511393Y17836279D01*
X28557643Y17853102D01*
X28605418Y17867337D01*
X28654717Y17878983D01*
X28705541Y17888042D01*
X28757890Y17894512D01*
X28811763Y17898395D01*
X28867161Y17899689D01*
X28912835Y17898652D01*
X28957393Y17895541D01*
X29000834Y17890355D01*
X29043158Y17883096D01*
X29084365Y17873763D01*
X29124456Y17862356D01*
X29163430Y17848874D01*
X29201286Y17833319D01*
X29238026Y17815689D01*
X29273650Y17795986D01*
X29308156Y17774208D01*
X29341545Y17750356D01*
X29373817Y17724430D01*
X29404973Y17696430D01*
X29435011Y17666357D01*
X29463932Y17634209D01*
X29463932Y18884476D01*
X30119694Y18884476D01*
X30119694Y16141151D01*
X30119694Y15399162D01*
G37*
G36*
X7638738Y16854686D02*
G01*
X7643764Y16811246D01*
X7647673Y16767185D01*
X7650465Y16722503D01*
X7652140Y16677201D01*
X7652699Y16631279D01*
X7652699Y16567741D01*
X7651378Y16499678D01*
X7647416Y16433333D01*
X7640812Y16368709D01*
X7631567Y16305803D01*
X7619681Y16244618D01*
X7605153Y16185151D01*
X7587984Y16127405D01*
X7568174Y16071378D01*
X7545722Y16017070D01*
X7520629Y15964482D01*
X7492894Y15913614D01*
X7462518Y15864465D01*
X7429501Y15817036D01*
X7393843Y15771326D01*
X7355543Y15727336D01*
X7314602Y15685066D01*
X7271277Y15644950D01*
X7226392Y15607422D01*
X7179947Y15572481D01*
X7131942Y15540130D01*
X7082376Y15510366D01*
X7031251Y15483190D01*
X6978566Y15458603D01*
X6924320Y15436603D01*
X6868515Y15417192D01*
X6811150Y15400369D01*
X6752225Y15386134D01*
X6691740Y15374488D01*
X6629695Y15365429D01*
X6566090Y15358959D01*
X6500925Y15355077D01*
X6434200Y15353783D01*
X6434208Y15353790D01*
X6396130Y15354242D01*
X6358478Y15355598D01*
X6321251Y15357859D01*
X6284449Y15361023D01*
X6248073Y15365091D01*
X6212122Y15370064D01*
X6176597Y15375940D01*
X6141497Y15382721D01*
X6106822Y15390406D01*
X6072573Y15398994D01*
X6038749Y15408487D01*
X6005351Y15418884D01*
X5972378Y15430185D01*
X5939830Y15442390D01*
X5907708Y15455500D01*
X5876011Y15469513D01*
X5844935Y15484616D01*
X5814674Y15500428D01*
X5785229Y15516950D01*
X5756599Y15534180D01*
X5728785Y15552120D01*
X5701786Y15570769D01*
X5675603Y15590127D01*
X5650235Y15610194D01*
X5625683Y15630970D01*
X5601946Y15652456D01*
X5579025Y15674650D01*
X5556919Y15697553D01*
X5535629Y15721166D01*
X5515154Y15745487D01*
X5495495Y15770517D01*
X5476650Y15796257D01*
X5798863Y16157043D01*
X5826172Y16123796D01*
X5854775Y16092694D01*
X5884672Y16063737D01*
X5915863Y16036925D01*
X5948348Y16012258D01*
X5982127Y15989735D01*
X6017201Y15969358D01*
X6053568Y15951125D01*
X6091230Y15935037D01*
X6130185Y15921095D01*
X6170435Y15909297D01*
X6211979Y15899645D01*
X6254816Y15892137D01*
X6298948Y15886774D01*
X6344374Y15883557D01*
X6391094Y15882484D01*
X6421399Y15883052D01*
X6451049Y15884753D01*
X6480042Y15887590D01*
X6508379Y15891561D01*
X6536060Y15896666D01*
X6563086Y15902906D01*
X6589455Y15910281D01*
X6615169Y15918790D01*
X6640226Y15928433D01*
X6664628Y15939211D01*
X6688373Y15951124D01*
X6711463Y15964170D01*
X6733896Y15978352D01*
X6755674Y15993668D01*
X6776795Y16010118D01*
X6797260Y16027702D01*
X6816618Y16046226D01*
X6834983Y16065495D01*
X6852356Y16085509D01*
X6868736Y16106267D01*
X6884123Y16127770D01*
X6898518Y16150018D01*
X6911920Y16173010D01*
X6924329Y16196747D01*
X6935746Y16221228D01*
X6946169Y16246454D01*
X6955601Y16272425D01*
X6964039Y16299140D01*
X6971485Y16326599D01*
X6977938Y16354803D01*
X6983398Y16383752D01*
X6987866Y16413444D01*
X5424465Y16413444D01*
X5424465Y16681198D01*
X5425600Y16753055D01*
X5429004Y16822839D01*
X5434676Y16890548D01*
X5437351Y16912651D01*
X6068882Y16912651D01*
X6068882Y16860458D01*
X6981053Y16860458D01*
X6976461Y16890647D01*
X6971197Y16919949D01*
X6965258Y16948365D01*
X6958646Y16975895D01*
X6951361Y17002538D01*
X6943401Y17028296D01*
X6934769Y17053167D01*
X6925462Y17077151D01*
X6915482Y17100250D01*
X6904828Y17122462D01*
X6893500Y17143788D01*
X6881499Y17164227D01*
X6868824Y17183780D01*
X6855475Y17202447D01*
X6841452Y17220227D01*
X6826756Y17237122D01*
X6811156Y17253058D01*
X6794988Y17267967D01*
X6778254Y17281847D01*
X6760952Y17294700D01*
X6743083Y17306524D01*
X6724647Y17317320D01*
X6705643Y17327087D01*
X6686073Y17335827D01*
X6665934Y17343538D01*
X6645229Y17350221D01*
X6623956Y17355876D01*
X6602116Y17360503D01*
X6579709Y17364102D01*
X6556734Y17366672D01*
X6533192Y17368214D01*
X6509083Y17368729D01*
X6509083Y17368736D01*
X6483361Y17368266D01*
X6458384Y17366857D01*
X6434151Y17364508D01*
X6410662Y17361220D01*
X6387918Y17356992D01*
X6365919Y17351825D01*
X6344664Y17345718D01*
X6324153Y17338672D01*
X6304387Y17330686D01*
X6285365Y17321760D01*
X6267088Y17311895D01*
X6249556Y17301090D01*
X6232768Y17289345D01*
X6216724Y17276661D01*
X6201425Y17263037D01*
X6186871Y17248474D01*
X6173110Y17233335D01*
X6160201Y17217417D01*
X6148143Y17200718D01*
X6136937Y17183240D01*
X6126583Y17164981D01*
X6117080Y17145942D01*
X6108428Y17126124D01*
X6100628Y17105525D01*
X6093680Y17084146D01*
X6087583Y17061987D01*
X6082337Y17039048D01*
X6077943Y17015329D01*
X6074401Y16990830D01*
X6071710Y16965550D01*
X6069870Y16939491D01*
X6068882Y16912651D01*
X5437351Y16912651D01*
X5442618Y16956183D01*
X5452829Y17019743D01*
X5465310Y17081230D01*
X5480059Y17140642D01*
X5497077Y17197981D01*
X5516365Y17253245D01*
X5537921Y17306435D01*
X5561746Y17357552D01*
X5587841Y17406594D01*
X5616204Y17453562D01*
X5646837Y17498457D01*
X5679738Y17541277D01*
X5714909Y17582024D01*
X5751773Y17620492D01*
X5790320Y17656479D01*
X5830552Y17689984D01*
X5872468Y17721006D01*
X5916068Y17749547D01*
X5961352Y17775606D01*
X6008320Y17799184D01*
X6056973Y17820279D01*
X6107309Y17838893D01*
X6159329Y17855024D01*
X6213034Y17868674D01*
X6268422Y17879842D01*
X6325495Y17888528D01*
X6384252Y17894733D01*
X6444692Y17898455D01*
X6506817Y17899696D01*
X6548512Y17899076D01*
X6589639Y17897214D01*
X6630199Y17894112D01*
X6670192Y17889769D01*
X6709617Y17884184D01*
X6748475Y17877359D01*
X6786765Y17869293D01*
X6824489Y17859986D01*
X6861645Y17849438D01*
X6898234Y17837650D01*
X6934255Y17824620D01*
X6969709Y17810350D01*
X7004596Y17794839D01*
X7038916Y17778086D01*
X7072669Y17760094D01*
X7105854Y17740860D01*
X7138010Y17720757D01*
X7169245Y17699591D01*
X7199558Y17677361D01*
X7228949Y17654067D01*
X7257419Y17629709D01*
X7284967Y17604288D01*
X7311593Y17577803D01*
X7337298Y17550255D01*
X7362080Y17521643D01*
X7385941Y17491967D01*
X7408880Y17461228D01*
X7430897Y17429425D01*
X7451992Y17396559D01*
X7472166Y17362630D01*
X7491417Y17327637D01*
X7509747Y17291580D01*
X7527057Y17254965D01*
X7543250Y17217729D01*
X7558327Y17179873D01*
X7572287Y17141396D01*
X7585130Y17102299D01*
X7596857Y17062582D01*
X7607467Y17022244D01*
X7616960Y16981285D01*
X7625336Y16939706D01*
X7632595Y16897506D01*
X7637910Y16860458D01*
X7638738Y16854686D01*
G37*
G36*
X26485280Y16854686D02*
G01*
X26490306Y16811246D01*
X26494215Y16767185D01*
X26497007Y16722503D01*
X26498683Y16677201D01*
X26499241Y16631279D01*
X26499241Y16567741D01*
X26497920Y16499678D01*
X26493958Y16433333D01*
X26487355Y16368709D01*
X26478110Y16305803D01*
X26466223Y16244618D01*
X26451696Y16185151D01*
X26434526Y16127405D01*
X26414716Y16071378D01*
X26392264Y16017070D01*
X26367171Y15964482D01*
X26339436Y15913614D01*
X26309061Y15864465D01*
X26276044Y15817036D01*
X26240385Y15771326D01*
X26202085Y15727336D01*
X26161144Y15685066D01*
X26117820Y15644950D01*
X26072934Y15607422D01*
X26026489Y15572481D01*
X25978484Y15540130D01*
X25928919Y15510366D01*
X25877793Y15483190D01*
X25825108Y15458603D01*
X25770863Y15436603D01*
X25715057Y15417192D01*
X25657692Y15400369D01*
X25598767Y15386134D01*
X25538282Y15374488D01*
X25476237Y15365429D01*
X25412632Y15358959D01*
X25347467Y15355077D01*
X25280743Y15353783D01*
X25280743Y15353790D01*
X25242665Y15354242D01*
X25205013Y15355598D01*
X25167786Y15357859D01*
X25130984Y15361023D01*
X25094608Y15365091D01*
X25058657Y15370064D01*
X25023132Y15375940D01*
X24988032Y15382721D01*
X24953357Y15390406D01*
X24919108Y15398994D01*
X24885284Y15408487D01*
X24851885Y15418884D01*
X24818912Y15430185D01*
X24786365Y15442390D01*
X24754243Y15455500D01*
X24722546Y15469513D01*
X24691469Y15484616D01*
X24661209Y15500428D01*
X24631763Y15516950D01*
X24603134Y15534180D01*
X24575320Y15552120D01*
X24548321Y15570769D01*
X24522138Y15590127D01*
X24496770Y15610194D01*
X24472218Y15630970D01*
X24448481Y15652456D01*
X24425560Y15674650D01*
X24403454Y15697553D01*
X24382164Y15721166D01*
X24361689Y15745487D01*
X24342029Y15770517D01*
X24323185Y15796257D01*
X24645397Y16157043D01*
X24672706Y16123796D01*
X24701309Y16092694D01*
X24731206Y16063737D01*
X24762397Y16036925D01*
X24794883Y16012258D01*
X24828662Y15989735D01*
X24863735Y15969358D01*
X24900103Y15951125D01*
X24937764Y15935037D01*
X24976720Y15921095D01*
X25016970Y15909297D01*
X25058513Y15899645D01*
X25101351Y15892137D01*
X25145483Y15886774D01*
X25190909Y15883557D01*
X25237629Y15882484D01*
X25267934Y15883052D01*
X25297583Y15884753D01*
X25326576Y15887590D01*
X25354914Y15891561D01*
X25382595Y15896666D01*
X25409621Y15902906D01*
X25435990Y15910281D01*
X25461703Y15918790D01*
X25486761Y15928433D01*
X25511163Y15939211D01*
X25534908Y15951124D01*
X25557998Y15964170D01*
X25580431Y15978352D01*
X25602208Y15993668D01*
X25623330Y16010118D01*
X25643795Y16027702D01*
X25663153Y16046226D01*
X25681518Y16065495D01*
X25698891Y16085509D01*
X25715271Y16106267D01*
X25730658Y16127770D01*
X25745052Y16150018D01*
X25758454Y16173010D01*
X25770864Y16196747D01*
X25782280Y16221228D01*
X25792704Y16246454D01*
X25802135Y16272425D01*
X25810574Y16299140D01*
X25818020Y16326599D01*
X25824473Y16354803D01*
X25829933Y16383752D01*
X25834400Y16413444D01*
X24271000Y16413444D01*
X24271000Y16681198D01*
X24272135Y16753055D01*
X24275538Y16822839D01*
X24281211Y16890548D01*
X24283886Y16912651D01*
X24915417Y16912651D01*
X24915417Y16860458D01*
X25827595Y16860458D01*
X25823004Y16890647D01*
X25817739Y16919949D01*
X25811801Y16948365D01*
X25805189Y16975895D01*
X25797903Y17002538D01*
X25789944Y17028296D01*
X25781311Y17053167D01*
X25772004Y17077151D01*
X25762024Y17100250D01*
X25751370Y17122462D01*
X25740042Y17143788D01*
X25728041Y17164227D01*
X25715366Y17183780D01*
X25702017Y17202447D01*
X25687994Y17220227D01*
X25673298Y17237122D01*
X25657698Y17253058D01*
X25641531Y17267967D01*
X25624796Y17281847D01*
X25607494Y17294700D01*
X25589625Y17306524D01*
X25571189Y17317320D01*
X25552186Y17327087D01*
X25532615Y17335827D01*
X25512477Y17343538D01*
X25491771Y17350221D01*
X25470499Y17355876D01*
X25448659Y17360503D01*
X25426251Y17364102D01*
X25403277Y17366672D01*
X25379735Y17368214D01*
X25355625Y17368729D01*
X25355625Y17368736D01*
X25329904Y17368266D01*
X25304926Y17366857D01*
X25280693Y17364508D01*
X25257205Y17361220D01*
X25234461Y17356992D01*
X25212461Y17351825D01*
X25191206Y17345718D01*
X25170695Y17338672D01*
X25150929Y17330686D01*
X25131908Y17321760D01*
X25113631Y17311895D01*
X25096098Y17301090D01*
X25079310Y17289345D01*
X25063266Y17276661D01*
X25047967Y17263037D01*
X25033413Y17248474D01*
X25019652Y17233335D01*
X25006743Y17217417D01*
X24994685Y17200718D01*
X24983478Y17183240D01*
X24973123Y17164981D01*
X24963620Y17145942D01*
X24954967Y17126124D01*
X24947167Y17105525D01*
X24940217Y17084146D01*
X24934120Y17061987D01*
X24928874Y17039048D01*
X24924479Y17015329D01*
X24920936Y16990830D01*
X24918245Y16965550D01*
X24916405Y16939491D01*
X24915417Y16912651D01*
X24283886Y16912651D01*
X24289153Y16956183D01*
X24299364Y17019743D01*
X24311844Y17081230D01*
X24326594Y17140642D01*
X24343612Y17197981D01*
X24362899Y17253245D01*
X24384456Y17306435D01*
X24408281Y17357552D01*
X24434376Y17406594D01*
X24462739Y17453562D01*
X24493372Y17498457D01*
X24526273Y17541277D01*
X24561444Y17582024D01*
X24598307Y17620492D01*
X24636855Y17656479D01*
X24677087Y17689984D01*
X24719003Y17721006D01*
X24762603Y17749547D01*
X24807887Y17775606D01*
X24854855Y17799184D01*
X24903507Y17820279D01*
X24953844Y17838893D01*
X25005864Y17855024D01*
X25059569Y17868674D01*
X25114957Y17879842D01*
X25172030Y17888528D01*
X25230786Y17894733D01*
X25291227Y17898455D01*
X25353352Y17899696D01*
X25395046Y17899076D01*
X25436174Y17897214D01*
X25476734Y17894112D01*
X25516726Y17889769D01*
X25556152Y17884184D01*
X25595010Y17877359D01*
X25633300Y17869293D01*
X25671024Y17859986D01*
X25708180Y17849438D01*
X25744768Y17837650D01*
X25780790Y17824620D01*
X25816244Y17810350D01*
X25851131Y17794839D01*
X25885451Y17778086D01*
X25919204Y17760094D01*
X25952389Y17740860D01*
X25984547Y17720757D01*
X26015782Y17699591D01*
X26046096Y17677361D01*
X26075489Y17654067D01*
X26103959Y17629709D01*
X26131508Y17604288D01*
X26158134Y17577803D01*
X26183839Y17550255D01*
X26208622Y17521643D01*
X26232483Y17491967D01*
X26255422Y17461228D01*
X26277439Y17429425D01*
X26298535Y17396559D01*
X26318708Y17362630D01*
X26337960Y17327637D01*
X26356289Y17291580D01*
X26373599Y17254965D01*
X26389793Y17217729D01*
X26404869Y17179873D01*
X26418830Y17141396D01*
X26431673Y17102299D01*
X26443399Y17062582D01*
X26454009Y17022244D01*
X26463502Y16981285D01*
X26471878Y16939706D01*
X26479138Y16897506D01*
X26484452Y16860458D01*
X26485280Y16854686D01*
G37*
G36*
X13792469Y16088966D02*
G01*
X13791547Y16049682D01*
X13788782Y16011249D01*
X13784173Y15973667D01*
X13777721Y15936936D01*
X13769424Y15901056D01*
X13759285Y15866026D01*
X13747301Y15831848D01*
X13733474Y15798521D01*
X13717803Y15766045D01*
X13700289Y15734419D01*
X13680931Y15703645D01*
X13659729Y15673722D01*
X13636683Y15644649D01*
X13611794Y15616428D01*
X13585061Y15589058D01*
X13556484Y15562538D01*
X13526224Y15537260D01*
X13495006Y15513612D01*
X13462832Y15491595D01*
X13429699Y15471209D01*
X13395610Y15452453D01*
X13360564Y15435329D01*
X13324560Y15419835D01*
X13287599Y15405972D01*
X13249680Y15393741D01*
X13210805Y15383139D01*
X13170972Y15374169D01*
X13130182Y15366830D01*
X13088434Y15361122D01*
X13045729Y15357044D01*
X13002067Y15354598D01*
X12957447Y15353783D01*
X12910354Y15354820D01*
X12864378Y15357931D01*
X12819519Y15363116D01*
X12775776Y15370375D01*
X12733151Y15379708D01*
X12691643Y15391116D01*
X12651251Y15404597D01*
X12611977Y15420153D01*
X12573819Y15437782D01*
X12536778Y15457486D01*
X12500854Y15479263D01*
X12466047Y15503115D01*
X12432357Y15529041D01*
X12399783Y15557041D01*
X12368326Y15587115D01*
X12337986Y15619263D01*
X12332489Y15587035D01*
X12326213Y15556154D01*
X12322783Y15541219D01*
X12319157Y15526621D01*
X12315337Y15512359D01*
X12311321Y15498435D01*
X12307111Y15484847D01*
X12302706Y15471596D01*
X12298106Y15458682D01*
X12293311Y15446105D01*
X12288321Y15433864D01*
X12283137Y15421960D01*
X12277757Y15410393D01*
X12272183Y15399162D01*
X11609608Y15399177D01*
X11609608Y15437744D01*
X11621154Y15460815D01*
X11631973Y15485216D01*
X11642066Y15510946D01*
X11651433Y15538006D01*
X11660074Y15566395D01*
X11667988Y15596115D01*
X11675176Y15627163D01*
X11681637Y15659542D01*
X11687372Y15693250D01*
X11692381Y15728288D01*
X11696663Y15764656D01*
X11700219Y15802353D01*
X11705152Y15881736D01*
X11707180Y15966438D01*
X11707180Y16515549D01*
X12365215Y16515549D01*
X12365215Y16093498D01*
X12372838Y16080052D01*
X12380957Y16066943D01*
X12389572Y16054171D01*
X12398684Y16041735D01*
X12408292Y16029636D01*
X12418396Y16017874D01*
X12428997Y16006449D01*
X12440094Y15995360D01*
X12451688Y15984609D01*
X12463778Y15974194D01*
X12476364Y15964115D01*
X12489447Y15954374D01*
X12503026Y15944970D01*
X12517101Y15935902D01*
X12531673Y15927171D01*
X12546742Y15918777D01*
X12562147Y15911085D01*
X12577729Y15903888D01*
X12593489Y15897188D01*
X12609425Y15890984D01*
X12625539Y15885276D01*
X12641831Y15880065D01*
X12658299Y15875350D01*
X12674945Y15871131D01*
X12691768Y15867408D01*
X12708769Y15864182D01*
X12725946Y15861452D01*
X12743301Y15859218D01*
X12760834Y15857481D01*
X12778544Y15856240D01*
X12796431Y15855496D01*
X12814495Y15855247D01*
X12814526Y15855247D01*
X12832999Y15855558D01*
X12850975Y15856488D01*
X12868455Y15858040D01*
X12885438Y15860211D01*
X12901924Y15863003D01*
X12917915Y15866416D01*
X12933408Y15870449D01*
X12948405Y15875103D01*
X12962906Y15880377D01*
X12976910Y15886272D01*
X12990418Y15892787D01*
X13003429Y15899922D01*
X13015944Y15907678D01*
X13027963Y15916055D01*
X13039485Y15925052D01*
X13050511Y15934669D01*
X13060951Y15944766D01*
X13070718Y15955198D01*
X13079812Y15965968D01*
X13088232Y15977074D01*
X13095978Y15988517D01*
X13103051Y16000297D01*
X13109450Y16012414D01*
X13115175Y16024867D01*
X13120227Y16037657D01*
X13124606Y16050784D01*
X13128310Y16064248D01*
X13131342Y16078049D01*
X13133699Y16092186D01*
X13135383Y16106660D01*
X13136394Y16121471D01*
X13136730Y16136619D01*
X13134434Y16175186D01*
X13128665Y16216401D01*
X13124431Y16236012D01*
X13119297Y16254958D01*
X13113264Y16273239D01*
X13106330Y16290855D01*
X13098497Y16307807D01*
X13089765Y16324094D01*
X13080133Y16339716D01*
X13069601Y16354673D01*
X13058169Y16368966D01*
X13045838Y16382593D01*
X13032607Y16395556D01*
X13018476Y16407855D01*
X13003446Y16419488D01*
X12987516Y16430457D01*
X12970686Y16440761D01*
X12952956Y16450400D01*
X12914799Y16467684D01*
X12873042Y16482310D01*
X12827687Y16494276D01*
X12778733Y16503583D01*
X12726180Y16510230D01*
X12670029Y16514219D01*
X12610279Y16515549D01*
X12365215Y16515549D01*
X11707180Y16515549D01*
X11707180Y17030640D01*
X11708226Y17081534D01*
X11711364Y17130975D01*
X11716593Y17178963D01*
X11723914Y17225497D01*
X11733328Y17270577D01*
X11744832Y17314203D01*
X11758429Y17356376D01*
X11774118Y17397096D01*
X11791898Y17436361D01*
X11811770Y17474173D01*
X11833734Y17510531D01*
X11857791Y17545436D01*
X11883938Y17578887D01*
X11912178Y17610884D01*
X11942510Y17641427D01*
X11974934Y17670517D01*
X12008855Y17698269D01*
X12044247Y17724231D01*
X12081110Y17748402D01*
X12119445Y17770783D01*
X12159252Y17791373D01*
X12200530Y17810173D01*
X12243279Y17827182D01*
X12287500Y17842401D01*
X12333192Y17855830D01*
X12380355Y17867468D01*
X12428990Y17877315D01*
X12479096Y17885373D01*
X12530673Y17891639D01*
X12583722Y17896115D01*
X12638242Y17898801D01*
X12694233Y17899696D01*
X12731442Y17899289D01*
X12768190Y17898065D01*
X12804477Y17896027D01*
X12840304Y17893173D01*
X12875670Y17889504D01*
X12910574Y17885019D01*
X12945018Y17879719D01*
X12979001Y17873603D01*
X13012523Y17866672D01*
X13045585Y17858925D01*
X13078185Y17850363D01*
X13110324Y17840985D01*
X13142003Y17830792D01*
X13173220Y17819783D01*
X13203977Y17807958D01*
X13234272Y17795319D01*
X13263912Y17782244D01*
X13292701Y17768549D01*
X13320639Y17754234D01*
X13347726Y17739298D01*
X13373962Y17723742D01*
X13399348Y17707566D01*
X13423882Y17690769D01*
X13447566Y17673352D01*
X13470399Y17655315D01*
X13492381Y17636657D01*
X13513512Y17617379D01*
X13533792Y17597480D01*
X13553222Y17576961D01*
X13571800Y17555821D01*
X13589527Y17534061D01*
X13606404Y17511681D01*
X13622340Y17488866D01*
X13637249Y17465803D01*
X13651129Y17442491D01*
X13663982Y17418932D01*
X13675806Y17395124D01*
X13686602Y17371068D01*
X13696369Y17346764D01*
X13705109Y17322212D01*
X13712820Y17297412D01*
X13719503Y17272363D01*
X13725158Y17247066D01*
X13729785Y17221521D01*
X13733384Y17195728D01*
X13735954Y17169687D01*
X13737496Y17143397D01*
X13738011Y17116859D01*
X13082249Y17116859D01*
X13081885Y17133931D01*
X13080795Y17150541D01*
X13078978Y17166691D01*
X13076434Y17182380D01*
X13073163Y17197607D01*
X13069165Y17212374D01*
X13064441Y17226680D01*
X13058990Y17240525D01*
X13052812Y17253909D01*
X13045907Y17266832D01*
X13038275Y17279295D01*
X13029917Y17291296D01*
X13020832Y17302837D01*
X13011020Y17313917D01*
X13000481Y17324536D01*
X12989216Y17334694D01*
X12977028Y17344311D01*
X12964290Y17353308D01*
X12951003Y17361685D01*
X12937167Y17369441D01*
X12922781Y17376577D01*
X12907845Y17383092D01*
X12892360Y17388986D01*
X12876326Y17394260D01*
X12859742Y17398914D01*
X12842608Y17402947D01*
X12824925Y17406360D01*
X12806693Y17409152D01*
X12787911Y17411324D01*
X12768579Y17412875D01*
X12748698Y17413806D01*
X12728268Y17414116D01*
X12705125Y17413717D01*
X12682780Y17412520D01*
X12661232Y17410526D01*
X12640483Y17407734D01*
X12620531Y17404144D01*
X12601377Y17399757D01*
X12583021Y17394572D01*
X12565462Y17388589D01*
X12548701Y17381808D01*
X12532738Y17374230D01*
X12517573Y17365853D01*
X12503205Y17356679D01*
X12489634Y17346707D01*
X12476862Y17335937D01*
X12464886Y17324370D01*
X12453709Y17312004D01*
X12442992Y17298974D01*
X12432967Y17285412D01*
X12423634Y17271318D01*
X12414992Y17256693D01*
X12407041Y17241536D01*
X12399782Y17225847D01*
X12393214Y17209627D01*
X12387338Y17192875D01*
X12382153Y17175591D01*
X12377659Y17157775D01*
X12373857Y17139427D01*
X12370746Y17120548D01*
X12368326Y17101137D01*
X12366598Y17081193D01*
X12365561Y17060718D01*
X12365215Y17039711D01*
X12365215Y16899025D01*
X12667004Y16899025D01*
X12734358Y16897935D01*
X12799709Y16895232D01*
X12863057Y16890916D01*
X12924401Y16884986D01*
X12983743Y16877443D01*
X13041081Y16868287D01*
X13096417Y16857518D01*
X13149749Y16845136D01*
X13201078Y16831140D01*
X13250404Y16815531D01*
X13297727Y16798310D01*
X13343046Y16779475D01*
X13386362Y16759026D01*
X13427675Y16736965D01*
X13466985Y16713291D01*
X13504292Y16688003D01*
X13539188Y16661200D01*
X13571833Y16632979D01*
X13602226Y16603339D01*
X13630368Y16572281D01*
X13656259Y16539805D01*
X13679899Y16505910D01*
X13701287Y16470597D01*
X13720424Y16433866D01*
X13737309Y16395717D01*
X13751944Y16356150D01*
X13764326Y16315165D01*
X13774458Y16272761D01*
X13782338Y16228939D01*
X13787966Y16183700D01*
X13791343Y16137042D01*
X13791353Y16136619D01*
X13792469Y16088966D01*
G37*
G36*
X32639008Y16088966D02*
G01*
X32638086Y16049682D01*
X32635320Y16011249D01*
X32630711Y15973667D01*
X32624259Y15936936D01*
X32615962Y15901056D01*
X32605822Y15866026D01*
X32593838Y15831848D01*
X32580011Y15798521D01*
X32564340Y15766045D01*
X32546826Y15734419D01*
X32527467Y15703645D01*
X32506266Y15673722D01*
X32483220Y15644649D01*
X32458332Y15616428D01*
X32431599Y15589058D01*
X32403023Y15562538D01*
X32372762Y15537260D01*
X32341545Y15513612D01*
X32309370Y15491595D01*
X32276237Y15471209D01*
X32242148Y15452453D01*
X32207101Y15435329D01*
X32171097Y15419835D01*
X32134136Y15405972D01*
X32096217Y15393741D01*
X32057342Y15383139D01*
X32017509Y15374169D01*
X31976719Y15366830D01*
X31934971Y15361122D01*
X31892267Y15357044D01*
X31848605Y15354598D01*
X31803986Y15353783D01*
X31756893Y15354820D01*
X31710917Y15357931D01*
X31666059Y15363116D01*
X31622316Y15370375D01*
X31579691Y15379708D01*
X31538183Y15391116D01*
X31497791Y15404597D01*
X31458517Y15420153D01*
X31420359Y15437782D01*
X31383318Y15457486D01*
X31347394Y15479263D01*
X31312586Y15503115D01*
X31278896Y15529041D01*
X31246322Y15557041D01*
X31214865Y15587115D01*
X31184525Y15619263D01*
X31179029Y15587035D01*
X31172754Y15556154D01*
X31169324Y15541219D01*
X31165699Y15526621D01*
X31161880Y15512359D01*
X31157865Y15498435D01*
X31153655Y15484847D01*
X31149250Y15471596D01*
X31144650Y15458682D01*
X31139855Y15446105D01*
X31134865Y15433864D01*
X31129680Y15421960D01*
X31124300Y15410393D01*
X31118725Y15399162D01*
X30456143Y15399177D01*
X30456143Y15437744D01*
X30467688Y15460815D01*
X30478508Y15485216D01*
X30488601Y15510946D01*
X30497968Y15538006D01*
X30506608Y15566395D01*
X30514522Y15596115D01*
X30521710Y15627163D01*
X30528172Y15659542D01*
X30533907Y15693250D01*
X30538916Y15728288D01*
X30543198Y15764656D01*
X30546754Y15802353D01*
X30551687Y15881736D01*
X30553715Y15966438D01*
X30553715Y16515549D01*
X31211758Y16515549D01*
X31211758Y16093498D01*
X31219380Y16080052D01*
X31227499Y16066943D01*
X31236114Y16054171D01*
X31245226Y16041735D01*
X31254834Y16029636D01*
X31264939Y16017874D01*
X31275539Y16006449D01*
X31286637Y15995360D01*
X31298230Y15984609D01*
X31310320Y15974194D01*
X31322906Y15964115D01*
X31335989Y15954374D01*
X31349568Y15944970D01*
X31363644Y15935902D01*
X31378216Y15927171D01*
X31393284Y15918777D01*
X31408689Y15911085D01*
X31424272Y15903888D01*
X31440031Y15897188D01*
X31455968Y15890984D01*
X31472083Y15885276D01*
X31488374Y15880065D01*
X31504843Y15875350D01*
X31521489Y15871131D01*
X31538312Y15867408D01*
X31555313Y15864182D01*
X31572490Y15861452D01*
X31589845Y15859218D01*
X31607378Y15857481D01*
X31625087Y15856240D01*
X31642974Y15855496D01*
X31661038Y15855247D01*
X31661072Y15855247D01*
X31679544Y15855558D01*
X31697520Y15856488D01*
X31714999Y15858040D01*
X31731982Y15860211D01*
X31748469Y15863003D01*
X31764459Y15866416D01*
X31779953Y15870449D01*
X31794950Y15875103D01*
X31809451Y15880377D01*
X31823456Y15886272D01*
X31836964Y15892787D01*
X31849975Y15899922D01*
X31862490Y15907678D01*
X31874509Y15916055D01*
X31886031Y15925052D01*
X31897057Y15934669D01*
X31907497Y15944766D01*
X31917265Y15955198D01*
X31926358Y15965968D01*
X31934778Y15977074D01*
X31942524Y15988517D01*
X31949597Y16000297D01*
X31955996Y16012414D01*
X31961722Y16024867D01*
X31966774Y16037657D01*
X31971152Y16050784D01*
X31974857Y16064248D01*
X31977888Y16078049D01*
X31980245Y16092186D01*
X31981929Y16106660D01*
X31982940Y16121471D01*
X31983277Y16136619D01*
X31980976Y16175186D01*
X31975206Y16216401D01*
X31970971Y16236012D01*
X31965837Y16254958D01*
X31959803Y16273239D01*
X31952869Y16290855D01*
X31945036Y16307807D01*
X31936303Y16324094D01*
X31926670Y16339716D01*
X31916138Y16354673D01*
X31904706Y16368966D01*
X31892375Y16382593D01*
X31879143Y16395556D01*
X31865012Y16407855D01*
X31849982Y16419488D01*
X31834052Y16430457D01*
X31817222Y16440761D01*
X31799493Y16450400D01*
X31761335Y16467684D01*
X31719578Y16482310D01*
X31674223Y16494276D01*
X31625270Y16503583D01*
X31572718Y16510230D01*
X31516567Y16514219D01*
X31456818Y16515549D01*
X31211758Y16515549D01*
X30553715Y16515549D01*
X30553715Y17030640D01*
X30554761Y17081534D01*
X30557898Y17130975D01*
X30563128Y17178963D01*
X30570449Y17225497D01*
X30579862Y17270577D01*
X30591367Y17314203D01*
X30604964Y17356376D01*
X30620652Y17397096D01*
X30638432Y17436361D01*
X30658304Y17474173D01*
X30680268Y17510531D01*
X30704324Y17545436D01*
X30730471Y17578887D01*
X30758710Y17610884D01*
X30789042Y17641427D01*
X30821465Y17670517D01*
X30855386Y17698269D01*
X30890779Y17724231D01*
X30927643Y17748402D01*
X30965978Y17770783D01*
X31005784Y17791373D01*
X31047062Y17810173D01*
X31089811Y17827182D01*
X31134032Y17842401D01*
X31179724Y17855830D01*
X31226887Y17867468D01*
X31275521Y17877315D01*
X31325627Y17885373D01*
X31377204Y17891639D01*
X31430253Y17896115D01*
X31484773Y17898801D01*
X31540764Y17899696D01*
X31577974Y17899289D01*
X31614722Y17898065D01*
X31651010Y17896027D01*
X31686837Y17893173D01*
X31722202Y17889504D01*
X31757107Y17885019D01*
X31791551Y17879719D01*
X31825534Y17873603D01*
X31859056Y17866672D01*
X31892117Y17858925D01*
X31924718Y17850363D01*
X31956857Y17840985D01*
X31988536Y17830792D01*
X32019754Y17819783D01*
X32050511Y17807958D01*
X32080807Y17795319D01*
X32110447Y17782244D01*
X32139235Y17768549D01*
X32167173Y17754234D01*
X32194260Y17739298D01*
X32220496Y17723742D01*
X32245881Y17707566D01*
X32270416Y17690769D01*
X32294099Y17673352D01*
X32316932Y17655315D01*
X32338913Y17636657D01*
X32360044Y17617379D01*
X32380324Y17597480D01*
X32399753Y17576961D01*
X32418331Y17555821D01*
X32436058Y17534061D01*
X32452934Y17511681D01*
X32468871Y17488866D01*
X32483780Y17465803D01*
X32497660Y17442491D01*
X32510513Y17418932D01*
X32522337Y17395124D01*
X32533132Y17371068D01*
X32542900Y17346764D01*
X32551640Y17322212D01*
X32559351Y17297412D01*
X32566034Y17272363D01*
X32571689Y17247066D01*
X32576316Y17221521D01*
X32579915Y17195728D01*
X32582485Y17169687D01*
X32584027Y17143397D01*
X32584542Y17116859D01*
X31928776Y17116859D01*
X31928413Y17133931D01*
X31927322Y17150541D01*
X31925505Y17166691D01*
X31922962Y17182380D01*
X31919691Y17197607D01*
X31915694Y17212374D01*
X31910970Y17226680D01*
X31905519Y17240525D01*
X31899341Y17253909D01*
X31892437Y17266832D01*
X31884805Y17279295D01*
X31876447Y17291296D01*
X31867362Y17302837D01*
X31857551Y17313917D01*
X31847012Y17324536D01*
X31835747Y17334694D01*
X31823560Y17344311D01*
X31810823Y17353308D01*
X31797536Y17361685D01*
X31783700Y17369441D01*
X31769314Y17376577D01*
X31754379Y17383092D01*
X31738894Y17388986D01*
X31722860Y17394260D01*
X31706276Y17398914D01*
X31689143Y17402947D01*
X31671460Y17406360D01*
X31653227Y17409152D01*
X31634445Y17411324D01*
X31615114Y17412875D01*
X31595233Y17413806D01*
X31574803Y17414116D01*
X31551660Y17413717D01*
X31529316Y17412520D01*
X31507769Y17410526D01*
X31487019Y17407734D01*
X31467068Y17404144D01*
X31447914Y17399757D01*
X31429557Y17394572D01*
X31411998Y17388589D01*
X31395237Y17381808D01*
X31379274Y17374230D01*
X31364108Y17365853D01*
X31349740Y17356679D01*
X31336169Y17346707D01*
X31323397Y17335937D01*
X31311421Y17324370D01*
X31300244Y17312004D01*
X31289528Y17298974D01*
X31279503Y17285412D01*
X31270170Y17271318D01*
X31261529Y17256693D01*
X31253579Y17241536D01*
X31246320Y17225847D01*
X31239752Y17209627D01*
X31233876Y17192875D01*
X31228691Y17175591D01*
X31224198Y17157775D01*
X31220395Y17139427D01*
X31217284Y17120548D01*
X31214865Y17101137D01*
X31213137Y17081193D01*
X31212100Y17060718D01*
X31211754Y17039711D01*
X31211754Y16899025D01*
X31513542Y16899025D01*
X31580897Y16897935D01*
X31646248Y16895232D01*
X31709597Y16890916D01*
X31770942Y16884986D01*
X31830283Y16877443D01*
X31887622Y16868287D01*
X31942957Y16857518D01*
X31996289Y16845136D01*
X32047618Y16831140D01*
X32096944Y16815531D01*
X32144267Y16798310D01*
X32189587Y16779475D01*
X32232903Y16759026D01*
X32274217Y16736965D01*
X32313527Y16713291D01*
X32350834Y16688003D01*
X32385730Y16661200D01*
X32418375Y16632979D01*
X32448768Y16603339D01*
X32476910Y16572281D01*
X32502801Y16539805D01*
X32526440Y16505910D01*
X32547828Y16470597D01*
X32566964Y16433866D01*
X32583850Y16395717D01*
X32598483Y16356150D01*
X32610866Y16315165D01*
X32620997Y16272761D01*
X32628877Y16228939D01*
X32634505Y16183700D01*
X32637882Y16137042D01*
X32637892Y16136619D01*
X32639008Y16088966D01*
G37*
G36*
X15136038Y17898837D02*
G01*
X15188838Y17896257D01*
X15240344Y17891959D01*
X15290557Y17885940D01*
X15339475Y17878203D01*
X15387099Y17868745D01*
X15433428Y17857569D01*
X15478464Y17844672D01*
X15522206Y17830056D01*
X15564654Y17813721D01*
X15605807Y17795666D01*
X15645667Y17775891D01*
X15684232Y17754397D01*
X15721504Y17731183D01*
X15757481Y17706249D01*
X15792164Y17679596D01*
X15824862Y17651942D01*
X15855451Y17623437D01*
X15883929Y17594081D01*
X15910299Y17563875D01*
X15934558Y17532817D01*
X15956708Y17500908D01*
X15976749Y17468148D01*
X15994680Y17434538D01*
X16010501Y17400076D01*
X16024213Y17364764D01*
X16035815Y17328600D01*
X16045308Y17291585D01*
X16052691Y17253720D01*
X16057965Y17215003D01*
X16061129Y17175436D01*
X16062184Y17135017D01*
X16058762Y17066431D01*
X16054486Y17033241D01*
X16048498Y17000787D01*
X16040800Y16969069D01*
X16031392Y16938086D01*
X16020272Y16907839D01*
X16007442Y16878328D01*
X15992901Y16849552D01*
X15976650Y16821512D01*
X15958688Y16794208D01*
X15939015Y16767639D01*
X15917632Y16741806D01*
X15894538Y16716709D01*
X15843218Y16668721D01*
X15785055Y16623676D01*
X15720050Y16581574D01*
X15648202Y16542414D01*
X15569511Y16506197D01*
X15483978Y16472923D01*
X15391602Y16442591D01*
X15292383Y16415201D01*
X15186321Y16390755D01*
X15122787Y16376891D01*
X15063791Y16362532D01*
X15035995Y16355166D01*
X15009333Y16347676D01*
X14983806Y16340063D01*
X14959414Y16332325D01*
X14936156Y16324463D01*
X14914033Y16316477D01*
X14893044Y16308367D01*
X14873190Y16300132D01*
X14854470Y16291774D01*
X14836885Y16283291D01*
X14820435Y16274684D01*
X14805119Y16265953D01*
X14790555Y16257240D01*
X14776932Y16248120D01*
X14764247Y16238592D01*
X14752503Y16228657D01*
X14741698Y16218313D01*
X14731833Y16207562D01*
X14722907Y16196403D01*
X14714921Y16184836D01*
X14707875Y16172862D01*
X14701768Y16160480D01*
X14696600Y16147689D01*
X14692373Y16134491D01*
X14689084Y16120886D01*
X14686736Y16106872D01*
X14685326Y16092451D01*
X14684857Y16077621D01*
X14684841Y16077621D01*
X14685222Y16063324D01*
X14686366Y16049364D01*
X14688272Y16035741D01*
X14690940Y16022455D01*
X14694370Y16009506D01*
X14698562Y15996893D01*
X14703517Y15984617D01*
X14709234Y15972678D01*
X14715714Y15961076D01*
X14722956Y15949810D01*
X14730960Y15938882D01*
X14739726Y15928290D01*
X14749254Y15918035D01*
X14759545Y15908116D01*
X14770598Y15898535D01*
X14782414Y15889290D01*
X14794690Y15880771D01*
X14807694Y15872802D01*
X14821424Y15865383D01*
X14835881Y15858514D01*
X14851064Y15852194D01*
X14866974Y15846423D01*
X14883612Y15841203D01*
X14900975Y15836532D01*
X14919066Y15832410D01*
X14937884Y15828838D01*
X14957428Y15825816D01*
X14977699Y15823343D01*
X14998697Y15821420D01*
X15020422Y15820046D01*
X15042873Y15819222D01*
X15066052Y15818947D01*
X15090977Y15819310D01*
X15115263Y15820401D01*
X15138912Y15822218D01*
X15161922Y15824762D01*
X15184294Y15828033D01*
X15206027Y15832030D01*
X15227123Y15836755D01*
X15247580Y15842206D01*
X15267399Y15848384D01*
X15286579Y15855289D01*
X15305122Y15862920D01*
X15323027Y15871279D01*
X15340293Y15880364D01*
X15356921Y15890176D01*
X15372912Y15900714D01*
X15388264Y15911980D01*
X15402860Y15923927D01*
X15416588Y15936514D01*
X15429448Y15949738D01*
X15441439Y15963601D01*
X15452562Y15978102D01*
X15462816Y15993241D01*
X15472203Y16009019D01*
X15480721Y16025434D01*
X15488370Y16042488D01*
X15495152Y16060180D01*
X15501065Y16078511D01*
X15506109Y16097479D01*
X15510286Y16117085D01*
X15513594Y16137330D01*
X15516034Y16158213D01*
X15517605Y16179733D01*
X16139332Y16179733D01*
X16138800Y16152052D01*
X16137205Y16124601D01*
X16134546Y16097381D01*
X16130823Y16070391D01*
X16126037Y16043631D01*
X16120187Y16017102D01*
X16113274Y15990803D01*
X16105296Y15964735D01*
X16096255Y15938897D01*
X16086151Y15913290D01*
X16074983Y15887913D01*
X16062751Y15862767D01*
X16049455Y15837851D01*
X16035096Y15813166D01*
X16019672Y15788712D01*
X16003185Y15764488D01*
X15985768Y15740973D01*
X15967553Y15718078D01*
X15948540Y15695804D01*
X15928730Y15674150D01*
X15908122Y15653117D01*
X15886717Y15632703D01*
X15864514Y15612911D01*
X15841513Y15593738D01*
X15817714Y15575187D01*
X15793118Y15557255D01*
X15767724Y15539945D01*
X15741533Y15523255D01*
X15714543Y15507185D01*
X15686756Y15491736D01*
X15658171Y15476908D01*
X15628788Y15462700D01*
X15598457Y15449511D01*
X15567594Y15437173D01*
X15536199Y15425686D01*
X15504272Y15415050D01*
X15471814Y15405264D01*
X15438823Y15396329D01*
X15405301Y15388246D01*
X15371247Y15381013D01*
X15336661Y15374631D01*
X15301543Y15369100D01*
X15265893Y15364420D01*
X15229712Y15360590D01*
X15192999Y15357612D01*
X15155754Y15355485D01*
X15117978Y15354208D01*
X15079670Y15353783D01*
X15023315Y15354589D01*
X14968271Y15357009D01*
X14914539Y15361042D01*
X14862119Y15366689D01*
X14811011Y15373948D01*
X14761215Y15382821D01*
X14712731Y15393307D01*
X14665559Y15405406D01*
X14619699Y15419118D01*
X14575150Y15434444D01*
X14531913Y15451382D01*
X14489989Y15469934D01*
X14449376Y15490099D01*
X14410074Y15511877D01*
X14372085Y15535268D01*
X14335407Y15560272D01*
X14300511Y15586862D01*
X14267867Y15614446D01*
X14237474Y15643022D01*
X14209332Y15672590D01*
X14183442Y15703152D01*
X14159803Y15734706D01*
X14138415Y15767253D01*
X14119279Y15800793D01*
X14102394Y15835325D01*
X14087761Y15870850D01*
X14075379Y15907369D01*
X14065248Y15944879D01*
X14057368Y15983383D01*
X14051740Y16022880D01*
X14048363Y16063369D01*
X14047238Y16104851D01*
X14049267Y16162473D01*
X14051804Y16190466D01*
X14055356Y16217915D01*
X14059923Y16244818D01*
X14065505Y16271176D01*
X14072102Y16296989D01*
X14079713Y16322257D01*
X14088340Y16346980D01*
X14097981Y16371157D01*
X14108637Y16394790D01*
X14120308Y16417877D01*
X14132994Y16440420D01*
X14146694Y16462417D01*
X14161410Y16483869D01*
X14177140Y16504776D01*
X14193886Y16525138D01*
X14211646Y16544955D01*
X14230421Y16564226D01*
X14250211Y16582953D01*
X14271016Y16601134D01*
X14292836Y16618770D01*
X14339520Y16652408D01*
X14390264Y16683864D01*
X14445067Y16713141D01*
X14503930Y16740237D01*
X14566853Y16765152D01*
X14610035Y16780255D01*
X14655629Y16794932D01*
X14703634Y16809185D01*
X14754049Y16823012D01*
X14806876Y16836415D01*
X14862115Y16849392D01*
X14919764Y16861943D01*
X14979824Y16874069D01*
X15038892Y16886797D01*
X15066777Y16893347D01*
X15093563Y16900021D01*
X15119250Y16906820D01*
X15143837Y16913742D01*
X15167326Y16920789D01*
X15189716Y16927959D01*
X15211006Y16935254D01*
X15231197Y16942673D01*
X15250290Y16950216D01*
X15268283Y16957883D01*
X15285177Y16965674D01*
X15300972Y16973589D01*
X15315669Y16981628D01*
X15329266Y16989792D01*
X15341631Y16998460D01*
X15353199Y17007448D01*
X15363969Y17016754D01*
X15373941Y17026380D01*
X15383115Y17036325D01*
X15391491Y17046589D01*
X15399070Y17057172D01*
X15405851Y17068074D01*
X15411834Y17079295D01*
X15417019Y17090836D01*
X15421406Y17102695D01*
X15424996Y17114874D01*
X15427788Y17127372D01*
X15429782Y17140188D01*
X15430979Y17153324D01*
X15431378Y17166778D01*
X15431023Y17181084D01*
X15429960Y17195071D01*
X15428187Y17208739D01*
X15425705Y17222088D01*
X15422515Y17235117D01*
X15418615Y17247828D01*
X15414007Y17260220D01*
X15408689Y17272292D01*
X15402662Y17284045D01*
X15395926Y17295480D01*
X15388481Y17306595D01*
X15380327Y17317391D01*
X15371463Y17327868D01*
X15361891Y17338026D01*
X15351609Y17347864D01*
X15340618Y17357384D01*
X15328980Y17366451D01*
X15316757Y17374934D01*
X15303949Y17382831D01*
X15290556Y17390144D01*
X15276578Y17396871D01*
X15262015Y17403014D01*
X15246867Y17408572D01*
X15231134Y17413545D01*
X15214815Y17417932D01*
X15197912Y17421735D01*
X15180424Y17424953D01*
X15162351Y17427586D01*
X15143693Y17429633D01*
X15124450Y17431096D01*
X15104622Y17431974D01*
X15084210Y17432266D01*
X15060499Y17431903D01*
X15037586Y17430812D01*
X15015470Y17428995D01*
X14994153Y17426451D01*
X14973634Y17423180D01*
X14953912Y17419183D01*
X14934988Y17414458D01*
X14916862Y17409007D01*
X14899533Y17402829D01*
X14883003Y17395924D01*
X14867270Y17388292D01*
X14852335Y17379934D01*
X14838197Y17370849D01*
X14824858Y17361037D01*
X14812316Y17350499D01*
X14800572Y17339233D01*
X14789581Y17327693D01*
X14779299Y17315763D01*
X14769727Y17303442D01*
X14760863Y17290732D01*
X14752709Y17277631D01*
X14745264Y17264141D01*
X14738528Y17250261D01*
X14732501Y17235990D01*
X14727183Y17221330D01*
X14722575Y17206280D01*
X14718675Y17190839D01*
X14715484Y17175009D01*
X14713003Y17158789D01*
X14711230Y17142179D01*
X14710167Y17125178D01*
X14709812Y17107788D01*
X14054051Y17107788D01*
X14055150Y17151238D01*
X14058447Y17193659D01*
X14063942Y17235052D01*
X14071636Y17275417D01*
X14081528Y17314754D01*
X14093617Y17353062D01*
X14107906Y17390342D01*
X14124392Y17426594D01*
X14143076Y17461817D01*
X14163959Y17496013D01*
X14187039Y17529180D01*
X14212318Y17561320D01*
X14239795Y17592431D01*
X14269470Y17622514D01*
X14301344Y17651569D01*
X14335415Y17679596D01*
X14371038Y17706249D01*
X14408132Y17731183D01*
X14446698Y17754397D01*
X14486735Y17775891D01*
X14528243Y17795666D01*
X14571222Y17813721D01*
X14615673Y17830056D01*
X14661596Y17844672D01*
X14708989Y17857569D01*
X14757854Y17868745D01*
X14808191Y17878203D01*
X14859998Y17885940D01*
X14913277Y17891959D01*
X14968028Y17896257D01*
X15024250Y17898837D01*
X15081944Y17899696D01*
X15136038Y17898837D01*
G37*
D11*
X1000000Y69750000D02*
G75*
G02*
X3500000Y72250000I2500000J0D01*
G01*
X1000000Y37250000D02*
X1000000Y69750000D01*
X3000000Y22500000D02*
X3000000Y11400000D01*
X3000000Y22500000D02*
G75*
G02*
X5500000Y25000000I2500000J0D01*
G01*
X3500000Y72250000D02*
X17700000Y72250000D01*
X3500000Y34750000D02*
G75*
G02*
X1000000Y37250000I0J2500000D01*
G01*
X5500000Y9000000D02*
G75*
G02*
X3000000Y11500000I0J2500000D01*
G01*
X5500000Y9000000D02*
X37500000Y9000000D01*
X13500000Y91000000D02*
G75*
G02*
X16000000Y93500000I2500000J0D01*
G01*
X13500000Y84500000D02*
X13500000Y91000000D01*
X16000000Y93500000D02*
X27000000Y93500000D01*
X16000000Y82000000D02*
G75*
G02*
X13500000Y84500000I0J2500000D01*
G01*
X17700000Y72250000D02*
G75*
G02*
X20200000Y69750000I0J-2500000D01*
G01*
X17700000Y34750000D02*
X3500000Y34750000D01*
X20200000Y69750000D02*
X20200000Y37250000D01*
X20200000Y37250000D02*
G75*
G02*
X17700000Y34750000I-2500000J0D01*
G01*
X22800000Y69750000D02*
G75*
G02*
X25300000Y72250000I2500000J0D01*
G01*
X22800000Y37250000D02*
X22800000Y69750000D01*
X25300000Y72250000D02*
X39500000Y72250000D01*
X25300000Y34750000D02*
G75*
G02*
X22800000Y37250000I0J2500000D01*
G01*
X27000000Y93500000D02*
G75*
G02*
X29500000Y91000000I0J-2500000D01*
G01*
X27000000Y82000000D02*
X16000000Y82000000D01*
X29500000Y91000000D02*
X29500000Y84500000D01*
X29500000Y84500000D02*
G75*
G02*
X27000000Y82000000I-2500000J0D01*
G01*
X37500000Y25000000D02*
X5500000Y25000000D01*
X37500000Y25000000D02*
G75*
G02*
X40000000Y22500000I0J-2500000D01*
G01*
X39500000Y72250000D02*
G75*
G02*
X42000000Y69750000I0J-2500000D01*
G01*
X39500000Y34750000D02*
X25300000Y34750000D01*
X40000000Y11500000D02*
G75*
G02*
X37500000Y9000000I-2500000J0D01*
G01*
X40000000Y11500000D02*
X40000000Y22500000D01*
X42000000Y69750000D02*
X42000000Y37250000D01*
X42000000Y37250000D02*
G75*
G02*
X39500000Y34750000I-2500000J0D01*
G01*
D10*
%TO.C,G\u002A\u002A\u002A*%
G36*
X10746556Y65842770D02*
G01*
X10746556Y62137649D01*
X10600000Y62137649D01*
X10453444Y62137649D01*
X10453444Y65842770D01*
X10453444Y69547890D01*
X10600000Y69547890D01*
X10746556Y69547890D01*
X10746556Y65842770D01*
G37*
G36*
X10251930Y47335894D02*
G01*
X10251930Y47236697D01*
X10089344Y47230944D01*
X9805406Y47220011D01*
X9533135Y47207588D01*
X9275129Y47193648D01*
X9029363Y47178006D01*
X8793812Y47160474D01*
X8566452Y47140864D01*
X8345256Y47118988D01*
X8128200Y47094660D01*
X7913259Y47067691D01*
X7698408Y47037895D01*
X7481622Y47005083D01*
X7260875Y46969069D01*
X7144194Y46948937D01*
X6836582Y46891375D01*
X6539005Y46829109D01*
X6251856Y46762344D01*
X5975530Y46691283D01*
X5710422Y46616133D01*
X5456925Y46537098D01*
X5215435Y46454384D01*
X4986344Y46368194D01*
X4770048Y46278734D01*
X4566942Y46186209D01*
X4377418Y46090825D01*
X4201872Y45992785D01*
X4040698Y45892294D01*
X3894291Y45789559D01*
X3763043Y45684783D01*
X3647351Y45578172D01*
X3547608Y45469931D01*
X3464208Y45360264D01*
X3397547Y45249376D01*
X3348017Y45137473D01*
X3316014Y45024759D01*
X3301932Y44911440D01*
X3301638Y44821868D01*
X3309968Y44740106D01*
X3328130Y44661342D01*
X3357313Y44580415D01*
X3398711Y44492163D01*
X3417967Y44456151D01*
X3463742Y44381740D01*
X3517755Y44308402D01*
X3582584Y44232790D01*
X3660806Y44151553D01*
X3668772Y44143629D01*
X3714364Y44097934D01*
X3749467Y44063618D01*
X3776893Y44040026D01*
X3799451Y44026500D01*
X3819954Y44022384D01*
X3841211Y44027022D01*
X3866034Y44039757D01*
X3897234Y44059931D01*
X3937620Y44086890D01*
X4041846Y44152939D01*
X4248782Y44272022D01*
X4472575Y44386304D01*
X4712655Y44495646D01*
X4968451Y44599910D01*
X5239392Y44698957D01*
X5524907Y44792649D01*
X5824425Y44880846D01*
X6137376Y44963409D01*
X6463188Y45040201D01*
X6801290Y45111082D01*
X7151113Y45175914D01*
X7512084Y45234557D01*
X7883633Y45286873D01*
X8265189Y45332723D01*
X8656181Y45371969D01*
X9056039Y45404472D01*
X9464191Y45430093D01*
X9478919Y45430867D01*
X9536683Y45433682D01*
X9604854Y45436736D01*
X9680561Y45439923D01*
X9760932Y45443139D01*
X9843097Y45446278D01*
X9924186Y45449235D01*
X10001327Y45451903D01*
X10071650Y45454178D01*
X10132284Y45455955D01*
X10180357Y45457127D01*
X10213001Y45457590D01*
X10261089Y45457735D01*
X10261089Y45358406D01*
X10261089Y45259077D01*
X10020646Y45252719D01*
X9999882Y45252160D01*
X9607521Y45237869D01*
X9220254Y45216718D01*
X8838790Y45188865D01*
X8463838Y45154464D01*
X8096108Y45113671D01*
X7736310Y45066639D01*
X7385152Y45013526D01*
X7043343Y44954486D01*
X6711595Y44889673D01*
X6390615Y44819244D01*
X6081113Y44743354D01*
X5783799Y44662157D01*
X5499382Y44575809D01*
X5228571Y44484465D01*
X4972077Y44388281D01*
X4730607Y44287411D01*
X4504872Y44182010D01*
X4295582Y44072235D01*
X4103444Y43958239D01*
X4090567Y43950033D01*
X4053326Y43925636D01*
X4023249Y43904939D01*
X4003143Y43889917D01*
X3995817Y43882544D01*
X4000949Y43876653D01*
X4018777Y43862596D01*
X4046359Y43843081D01*
X4080545Y43820420D01*
X4206985Y43742486D01*
X4409585Y43630019D01*
X4629107Y43521796D01*
X4864972Y43417988D01*
X5116604Y43318766D01*
X5383425Y43224302D01*
X5664859Y43134766D01*
X5960328Y43050329D01*
X6269254Y42971164D01*
X6591061Y42897439D01*
X6925170Y42829327D01*
X7271006Y42766999D01*
X7627990Y42710626D01*
X7995545Y42660378D01*
X8232204Y42630449D01*
X8234531Y41543479D01*
X8234725Y41447993D01*
X8234993Y41288039D01*
X8235145Y41145117D01*
X8235174Y41018399D01*
X8235073Y40907055D01*
X8234835Y40810255D01*
X8234453Y40727169D01*
X8233920Y40656968D01*
X8233228Y40598822D01*
X8232372Y40551901D01*
X8231344Y40515376D01*
X8230137Y40488416D01*
X8228744Y40470192D01*
X8227157Y40459874D01*
X8225371Y40456632D01*
X8224420Y40456676D01*
X8209202Y40458177D01*
X8179278Y40461558D01*
X8137591Y40466473D01*
X8087081Y40472576D01*
X8030689Y40479522D01*
X7954053Y40489198D01*
X7559661Y40543978D01*
X7177874Y40605486D01*
X6809181Y40673593D01*
X6454071Y40748170D01*
X6113033Y40829088D01*
X5786555Y40916217D01*
X5475127Y41009429D01*
X5179237Y41108595D01*
X4899374Y41213586D01*
X4636028Y41324273D01*
X4389687Y41440526D01*
X4187139Y41547599D01*
X3998363Y41659491D01*
X3827178Y41774260D01*
X3673656Y41891835D01*
X3537869Y42012146D01*
X3419892Y42135125D01*
X3319796Y42260700D01*
X3237654Y42388803D01*
X3173539Y42519363D01*
X3127524Y42652310D01*
X3102856Y42741868D01*
X3099891Y43827299D01*
X3099641Y43919468D01*
X3099226Y44081680D01*
X3098922Y44227173D01*
X3098764Y44356997D01*
X3098788Y44472202D01*
X3099031Y44573838D01*
X3099528Y44662954D01*
X3100315Y44740601D01*
X3101428Y44807829D01*
X3102903Y44865686D01*
X3104776Y44915224D01*
X3107083Y44957491D01*
X3109859Y44993538D01*
X3113141Y45024414D01*
X3116964Y45051170D01*
X3121364Y45074855D01*
X3126377Y45096519D01*
X3132040Y45117212D01*
X3138388Y45137983D01*
X3145456Y45159883D01*
X3177734Y45247797D01*
X3222130Y45342797D01*
X3276299Y45434798D01*
X3341978Y45526426D01*
X3420899Y45620305D01*
X3514799Y45719064D01*
X3612021Y45812075D01*
X3717688Y45902916D01*
X3830009Y45988681D01*
X3954598Y46073899D01*
X3970439Y46084169D01*
X4163745Y46201080D01*
X4374200Y46313792D01*
X4601135Y46422138D01*
X4843882Y46525946D01*
X5101772Y46625049D01*
X5374138Y46719276D01*
X5660311Y46808459D01*
X5959624Y46892428D01*
X6271407Y46971015D01*
X6594993Y47044050D01*
X6929714Y47111363D01*
X7274900Y47172786D01*
X7629885Y47228150D01*
X7994000Y47277284D01*
X8366576Y47320021D01*
X8746945Y47356190D01*
X9134440Y47385622D01*
X9272576Y47394504D01*
X9418667Y47403043D01*
X9554731Y47409944D01*
X9685150Y47415408D01*
X9814307Y47419636D01*
X9946583Y47422830D01*
X10009428Y47424202D01*
X10072023Y47425772D01*
X10127358Y47427369D01*
X10172668Y47428905D01*
X10205191Y47430295D01*
X10222160Y47431451D01*
X10251930Y47435091D01*
X10251930Y47335894D01*
G37*
G36*
X10977840Y47431451D02*
G01*
X10993275Y47430374D01*
X11024912Y47428997D01*
X11069509Y47427467D01*
X11124302Y47425871D01*
X11186526Y47424297D01*
X11253418Y47422830D01*
X11338146Y47420892D01*
X11552972Y47413927D01*
X11771740Y47403811D01*
X12001443Y47390240D01*
X12365977Y47363451D01*
X12746103Y47328637D01*
X13118418Y47287426D01*
X13482288Y47239980D01*
X13837083Y47186463D01*
X14182170Y47127038D01*
X14516917Y47061869D01*
X14840692Y46991117D01*
X15152864Y46914948D01*
X15452799Y46833524D01*
X15739867Y46747008D01*
X16013435Y46655563D01*
X16272871Y46559353D01*
X16517543Y46458540D01*
X16746819Y46353289D01*
X16960067Y46243762D01*
X17156655Y46130123D01*
X17335951Y46012535D01*
X17386037Y45976695D01*
X17534187Y45861041D01*
X17665735Y45742718D01*
X17780435Y45622056D01*
X17878044Y45499383D01*
X17958315Y45375028D01*
X18021006Y45249322D01*
X18065869Y45122592D01*
X18092662Y44995168D01*
X18093649Y44985740D01*
X18095259Y44958139D01*
X18096654Y44916543D01*
X18097835Y44860519D01*
X18098806Y44789634D01*
X18099570Y44703457D01*
X18100128Y44601554D01*
X18100484Y44483495D01*
X18100641Y44348846D01*
X18100601Y44197175D01*
X18100367Y44028050D01*
X18099941Y43841039D01*
X18099643Y43729083D01*
X18099225Y43577435D01*
X18098820Y43442372D01*
X18098406Y43322858D01*
X18097964Y43217856D01*
X18097473Y43126330D01*
X18096914Y43047243D01*
X18096265Y42979559D01*
X18095507Y42922242D01*
X18094619Y42874255D01*
X18093581Y42834561D01*
X18092373Y42802125D01*
X18090975Y42775909D01*
X18089365Y42754877D01*
X18087525Y42737994D01*
X18085433Y42724221D01*
X18083069Y42712524D01*
X18080414Y42701865D01*
X18077446Y42691207D01*
X18069165Y42663161D01*
X18022678Y42534586D01*
X17963696Y42413293D01*
X17890793Y42296946D01*
X17802541Y42183210D01*
X17697513Y42069752D01*
X17593645Y41972173D01*
X17444926Y41850241D01*
X17278940Y41731825D01*
X17096117Y41617080D01*
X16896885Y41506158D01*
X16681673Y41399212D01*
X16450909Y41296396D01*
X16205023Y41197862D01*
X15944443Y41103763D01*
X15669598Y41014253D01*
X15380917Y40929485D01*
X15078828Y40849612D01*
X14763760Y40774786D01*
X14436142Y40705161D01*
X14096403Y40640890D01*
X13744971Y40582126D01*
X13382276Y40529023D01*
X13164732Y40499348D01*
X13164732Y39912772D01*
X13164666Y39827686D01*
X13164360Y39718141D01*
X13163816Y39620448D01*
X13163048Y39535529D01*
X13162070Y39464309D01*
X13160894Y39407712D01*
X13159535Y39366662D01*
X13158005Y39342082D01*
X13156319Y39334897D01*
X13156258Y39334963D01*
X13149086Y39343645D01*
X13131084Y39365747D01*
X13102897Y39400471D01*
X13065168Y39447020D01*
X13018544Y39504596D01*
X12963668Y39572403D01*
X12901186Y39649642D01*
X12831742Y39735517D01*
X12755982Y39829230D01*
X12674550Y39929985D01*
X12588091Y40036983D01*
X12497249Y40149428D01*
X12402671Y40266521D01*
X12305000Y40387467D01*
X11462095Y41431335D01*
X11491629Y41472898D01*
X11494270Y41476640D01*
X11507411Y41495353D01*
X11530190Y41527849D01*
X11562018Y41573285D01*
X11602306Y41630819D01*
X11650462Y41699606D01*
X11705898Y41778805D01*
X11768024Y41867573D01*
X11836248Y41965067D01*
X11909983Y42070443D01*
X11988638Y42182859D01*
X12071622Y42301473D01*
X12158347Y42425441D01*
X12248222Y42553920D01*
X12340657Y42686068D01*
X13160152Y43857675D01*
X13162509Y43270002D01*
X13164866Y42682330D01*
X13192573Y42682330D01*
X13192588Y42682330D01*
X13211981Y42683721D01*
X13247131Y42687660D01*
X13295707Y42693808D01*
X13355378Y42701828D01*
X13423813Y42711380D01*
X13498681Y42722126D01*
X13577652Y42733727D01*
X13658395Y42745845D01*
X13738580Y42758141D01*
X13815874Y42770277D01*
X13887948Y42781913D01*
X13952471Y42792713D01*
X14282056Y42852625D01*
X14641425Y42926496D01*
X14985627Y43006647D01*
X15314337Y43092984D01*
X15627230Y43185410D01*
X15923981Y43283827D01*
X16204266Y43388139D01*
X16467759Y43498251D01*
X16714137Y43614064D01*
X16768947Y43641918D01*
X16835198Y43676764D01*
X16901115Y43712566D01*
X16964708Y43748153D01*
X17023983Y43782351D01*
X17076947Y43813991D01*
X17121610Y43841899D01*
X17155979Y43864904D01*
X17178061Y43881835D01*
X17185864Y43891520D01*
X17185857Y43891615D01*
X17178136Y43899374D01*
X17157907Y43914512D01*
X17128182Y43934885D01*
X17091977Y43958347D01*
X16916040Y44063161D01*
X16706292Y44174203D01*
X16480032Y44280766D01*
X16237954Y44382696D01*
X15980749Y44479844D01*
X15709111Y44572056D01*
X15423730Y44659182D01*
X15125301Y44741071D01*
X14814514Y44817569D01*
X14492063Y44888526D01*
X14158641Y44953791D01*
X13814938Y45013211D01*
X13461648Y45066636D01*
X13099464Y45113913D01*
X12729077Y45154890D01*
X12351181Y45189417D01*
X11966466Y45217342D01*
X11575627Y45238513D01*
X11179355Y45252778D01*
X10948071Y45259020D01*
X10948071Y45358378D01*
X10948071Y45457735D01*
X10987000Y45457698D01*
X10991735Y45457688D01*
X11048510Y45456946D01*
X11120855Y45455128D01*
X11206304Y45452352D01*
X11302396Y45448736D01*
X11406666Y45444397D01*
X11516650Y45439453D01*
X11629885Y45434022D01*
X11743908Y45428222D01*
X11856253Y45422171D01*
X11964459Y45415986D01*
X12066060Y45409785D01*
X12158594Y45403686D01*
X12239596Y45397807D01*
X12294076Y45393544D01*
X12694768Y45357886D01*
X13085889Y45315463D01*
X13466896Y45266416D01*
X13837246Y45210888D01*
X14196395Y45149019D01*
X14543800Y45080953D01*
X14878916Y45006830D01*
X15201202Y44926792D01*
X15510113Y44840981D01*
X15805106Y44749539D01*
X16085637Y44652607D01*
X16351163Y44550328D01*
X16601140Y44442842D01*
X16835026Y44330292D01*
X17052276Y44212819D01*
X17252347Y44090565D01*
X17378368Y44008485D01*
X17402966Y44024602D01*
X17418430Y44036349D01*
X17447510Y44062000D01*
X17483904Y44096593D01*
X17524920Y44137351D01*
X17567868Y44181498D01*
X17610058Y44226257D01*
X17648799Y44268853D01*
X17681400Y44306509D01*
X17705171Y44336448D01*
X17718874Y44355684D01*
X17761523Y44422175D01*
X17801849Y44494201D01*
X17836471Y44565443D01*
X17862007Y44629582D01*
X17876487Y44677411D01*
X17897204Y44790182D01*
X17900007Y44904693D01*
X17884990Y45019970D01*
X17852246Y45135041D01*
X17801872Y45248933D01*
X17782671Y45283984D01*
X17706500Y45400527D01*
X17612740Y45515052D01*
X17501887Y45627392D01*
X17374435Y45737379D01*
X17230880Y45844844D01*
X17071717Y45949619D01*
X16897441Y46051537D01*
X16708548Y46150429D01*
X16505531Y46246127D01*
X16288886Y46338463D01*
X16059109Y46427269D01*
X15816694Y46512377D01*
X15562137Y46593619D01*
X15295933Y46670826D01*
X15018576Y46743831D01*
X14730561Y46812466D01*
X14432385Y46876562D01*
X14124542Y46935951D01*
X13807527Y46990466D01*
X13481835Y47039937D01*
X13147961Y47084198D01*
X12806401Y47123079D01*
X12457649Y47156414D01*
X12102200Y47184033D01*
X12073797Y47185950D01*
X11988293Y47191341D01*
X11893219Y47196868D01*
X11791108Y47202418D01*
X11684492Y47207878D01*
X11575904Y47213134D01*
X11467875Y47218071D01*
X11362937Y47222578D01*
X11263624Y47226539D01*
X11172468Y47229842D01*
X11092000Y47232373D01*
X11024754Y47234018D01*
X10973260Y47234664D01*
X10948071Y47234728D01*
X10948071Y47334909D01*
X10948071Y47435091D01*
X10977840Y47431451D01*
G37*
G36*
X18101729Y54617356D02*
G01*
X18101647Y54390672D01*
X18101535Y54177909D01*
X18101388Y53978608D01*
X18101202Y53792311D01*
X18100972Y53618559D01*
X18100695Y53456894D01*
X18100365Y53306858D01*
X18099980Y53167991D01*
X18099534Y53039835D01*
X18099023Y52921932D01*
X18098442Y52813824D01*
X18097788Y52715051D01*
X18097057Y52625156D01*
X18096243Y52543680D01*
X18095342Y52470165D01*
X18094351Y52404151D01*
X18093264Y52345180D01*
X18092079Y52292795D01*
X18090789Y52246536D01*
X18089391Y52205946D01*
X18087882Y52170564D01*
X18086255Y52139934D01*
X18084507Y52113596D01*
X18082634Y52091093D01*
X18080632Y52071965D01*
X18078496Y52055754D01*
X18076221Y52042002D01*
X18073804Y52030250D01*
X18071240Y52020040D01*
X18068525Y52010913D01*
X18065654Y52002411D01*
X18062624Y51994075D01*
X18059429Y51985446D01*
X18056067Y51976067D01*
X18052531Y51965479D01*
X18034014Y51913269D01*
X17981365Y51799326D01*
X17912059Y51684226D01*
X17827081Y51569134D01*
X17727410Y51455214D01*
X17614031Y51343633D01*
X17487924Y51235555D01*
X17350073Y51132146D01*
X17333969Y51120910D01*
X17152721Y51003256D01*
X16954215Y50889477D01*
X16739082Y50779754D01*
X16507951Y50674268D01*
X16261454Y50573198D01*
X16000218Y50476726D01*
X15724875Y50385031D01*
X15436055Y50298295D01*
X15134387Y50216697D01*
X14820502Y50140419D01*
X14495030Y50069640D01*
X14158599Y50004542D01*
X13811842Y49945304D01*
X13455387Y49892107D01*
X13089864Y49845132D01*
X12715904Y49804559D01*
X12681422Y49801192D01*
X12511294Y49785580D01*
X12335108Y49770949D01*
X12155555Y49757456D01*
X11975328Y49745253D01*
X11797116Y49734496D01*
X11623613Y49725339D01*
X11457509Y49717936D01*
X11301496Y49712442D01*
X11158266Y49709012D01*
X11030509Y49707800D01*
X10993175Y49707638D01*
X10935761Y49706864D01*
X10882728Y49705566D01*
X10838720Y49703868D01*
X10808385Y49701892D01*
X10746556Y49696053D01*
X10746556Y43569501D01*
X10746556Y37442950D01*
X10600000Y37442950D01*
X10453444Y37442950D01*
X10453444Y43569501D01*
X10453444Y49696053D01*
X10391616Y49701892D01*
X10373768Y49703200D01*
X10334048Y49705025D01*
X10283664Y49706503D01*
X10227263Y49707508D01*
X10169492Y49707915D01*
X10151561Y49707982D01*
X10088770Y49708690D01*
X10014873Y49710064D01*
X9935236Y49711979D01*
X9855225Y49714311D01*
X9780202Y49716936D01*
X9765481Y49717508D01*
X9264546Y49742549D01*
X8775670Y49777884D01*
X8299282Y49823453D01*
X7835809Y49879192D01*
X7385679Y49945039D01*
X6949319Y50020932D01*
X6527157Y50106808D01*
X6119620Y50202605D01*
X5727136Y50308261D01*
X5593643Y50347629D01*
X5332938Y50430630D01*
X5082931Y50518514D01*
X4844567Y50610846D01*
X4618792Y50707193D01*
X4406552Y50807120D01*
X4208793Y50910192D01*
X4026462Y51015975D01*
X3860503Y51124033D01*
X3711865Y51233934D01*
X3678509Y51261500D01*
X3624070Y51310009D01*
X3565422Y51365622D01*
X3505617Y51425204D01*
X3447706Y51485624D01*
X3394740Y51543747D01*
X3349772Y51596440D01*
X3315852Y51640570D01*
X3305886Y51654885D01*
X3232778Y51774017D01*
X3174697Y51896067D01*
X3132599Y52018749D01*
X3107438Y52139777D01*
X3106878Y52146851D01*
X3106119Y52167018D01*
X3105403Y52199286D01*
X3104729Y52243905D01*
X3104097Y52301124D01*
X3103507Y52371190D01*
X3102957Y52454353D01*
X3102449Y52550861D01*
X3101981Y52660963D01*
X3101553Y52784909D01*
X3101165Y52922945D01*
X3100816Y53075322D01*
X3100506Y53242288D01*
X3100235Y53424092D01*
X3100003Y53620981D01*
X3099808Y53833206D01*
X3099650Y54061015D01*
X3099542Y54280443D01*
X3300874Y54280443D01*
X3300896Y54074283D01*
X3300946Y53881718D01*
X3301026Y53702280D01*
X3301136Y53535502D01*
X3301279Y53380916D01*
X3301454Y53238054D01*
X3301664Y53106448D01*
X3301910Y52985632D01*
X3302192Y52875136D01*
X3302512Y52774494D01*
X3302871Y52683238D01*
X3303270Y52600899D01*
X3303710Y52527010D01*
X3304194Y52461104D01*
X3304721Y52402712D01*
X3305293Y52351367D01*
X3305911Y52306602D01*
X3306576Y52267947D01*
X3307290Y52234937D01*
X3308053Y52207102D01*
X3308868Y52183976D01*
X3309734Y52165090D01*
X3310654Y52149976D01*
X3311628Y52138168D01*
X3312658Y52129197D01*
X3313744Y52122595D01*
X3323378Y52080509D01*
X3362276Y51965071D01*
X3419076Y51850520D01*
X3493479Y51737073D01*
X3585186Y51624945D01*
X3693896Y51514353D01*
X3819312Y51405512D01*
X3961133Y51298640D01*
X4119061Y51193953D01*
X4292795Y51091665D01*
X4482038Y50991995D01*
X4686489Y50895158D01*
X4905849Y50801370D01*
X5139819Y50710848D01*
X5388100Y50623807D01*
X5421476Y50612734D01*
X5771301Y50504294D01*
X6136722Y50404504D01*
X6517189Y50313447D01*
X6912153Y50231209D01*
X7321064Y50157873D01*
X7743374Y50093525D01*
X8178533Y50038248D01*
X8625992Y49992127D01*
X9085201Y49955246D01*
X9555612Y49927690D01*
X10036675Y49909543D01*
X10255797Y49904687D01*
X10708723Y49902022D01*
X11163346Y49909059D01*
X11617419Y49925631D01*
X12068692Y49951574D01*
X12514917Y49986722D01*
X12953846Y50030910D01*
X13383229Y50083973D01*
X13800818Y50145744D01*
X14204364Y50216059D01*
X14336217Y50241487D01*
X14641817Y50305211D01*
X14936193Y50373411D01*
X15218971Y50445893D01*
X15489780Y50522462D01*
X15748246Y50602923D01*
X15993998Y50687080D01*
X16226662Y50774740D01*
X16445866Y50865708D01*
X16651237Y50959788D01*
X16842404Y51056785D01*
X17018993Y51156506D01*
X17180632Y51258754D01*
X17326948Y51363335D01*
X17457568Y51470054D01*
X17572121Y51578716D01*
X17670234Y51689127D01*
X17751534Y51801091D01*
X17815648Y51914414D01*
X17862204Y52028901D01*
X17890829Y52144356D01*
X17891414Y52150843D01*
X17892200Y52170159D01*
X17892940Y52201603D01*
X17893635Y52245433D01*
X17894285Y52301907D01*
X17894890Y52371283D01*
X17895452Y52453819D01*
X17895970Y52549772D01*
X17896445Y52659402D01*
X17896877Y52782965D01*
X17897266Y52920721D01*
X17897614Y53072926D01*
X17897920Y53239839D01*
X17898185Y53421717D01*
X17898410Y53618820D01*
X17898594Y53831404D01*
X17898738Y54059728D01*
X17898842Y54304049D01*
X17898908Y54564626D01*
X17898935Y54841717D01*
X17898923Y55135580D01*
X17898874Y55446472D01*
X17898787Y55774651D01*
X17898663Y56120377D01*
X17898503Y56483905D01*
X17898306Y56865496D01*
X17895745Y61527096D01*
X17855164Y61472852D01*
X17788724Y61390030D01*
X17674774Y61268672D01*
X17543505Y61150093D01*
X17395412Y61034460D01*
X17230991Y60921939D01*
X17050738Y60812697D01*
X16855150Y60706901D01*
X16644721Y60604718D01*
X16419948Y60506313D01*
X16181326Y60411853D01*
X15929352Y60321505D01*
X15664522Y60235435D01*
X15387331Y60153810D01*
X15098276Y60076797D01*
X14797851Y60004562D01*
X14486554Y59937272D01*
X14164880Y59875093D01*
X13833325Y59818191D01*
X13492384Y59766734D01*
X13142555Y59720888D01*
X12784332Y59680820D01*
X12418212Y59646695D01*
X12319473Y59638555D01*
X12151865Y59625598D01*
X11991783Y59614469D01*
X11835996Y59605025D01*
X11681277Y59597123D01*
X11524396Y59590622D01*
X11362124Y59585379D01*
X11191233Y59581251D01*
X11008492Y59578096D01*
X10810675Y59575772D01*
X10748308Y59575232D01*
X10528747Y59574247D01*
X10322770Y59574906D01*
X10126701Y59577284D01*
X9936865Y59581455D01*
X9749588Y59587497D01*
X9561196Y59595484D01*
X9368013Y59605493D01*
X9225246Y59613977D01*
X8836846Y59641908D01*
X8455985Y59676415D01*
X8083240Y59717344D01*
X7719187Y59764541D01*
X7364404Y59817852D01*
X7019467Y59877123D01*
X6684953Y59942200D01*
X6361438Y60012930D01*
X6049499Y60089159D01*
X5749713Y60170732D01*
X5462656Y60257495D01*
X5188906Y60349295D01*
X4929039Y60445978D01*
X4683632Y60547390D01*
X4453261Y60653376D01*
X4238503Y60763784D01*
X4039935Y60878458D01*
X3858134Y60997246D01*
X3693675Y61119993D01*
X3640532Y61164487D01*
X3576467Y61222305D01*
X3512607Y61283857D01*
X3452595Y61345504D01*
X3400076Y61403607D01*
X3358694Y61454525D01*
X3304256Y61527081D01*
X3301782Y56860908D01*
X3301763Y56824849D01*
X3301582Y56475284D01*
X3301419Y56143523D01*
X3301275Y55829099D01*
X3301151Y55531545D01*
X3301048Y55250392D01*
X3300968Y54985174D01*
X3300911Y54735421D01*
X3300880Y54500667D01*
X3300874Y54280443D01*
X3099542Y54280443D01*
X3099530Y54304656D01*
X3099447Y54564378D01*
X3099401Y54840430D01*
X3099390Y55133060D01*
X3099415Y55442518D01*
X3099476Y55769051D01*
X3099572Y56112910D01*
X3099703Y56474341D01*
X3099868Y56853595D01*
X3100066Y57250920D01*
X3102741Y62288785D01*
X3123195Y62360631D01*
X3134378Y62398057D01*
X3181210Y62525184D01*
X3240250Y62645030D01*
X3312986Y62760026D01*
X3400905Y62872600D01*
X3505493Y62985183D01*
X3592089Y63067500D01*
X3729066Y63183003D01*
X3880477Y63294586D01*
X4047281Y63402899D01*
X4230437Y63508593D01*
X4430905Y63612318D01*
X4640190Y63710074D01*
X4897582Y63818072D01*
X5171151Y63920706D01*
X5460129Y64017813D01*
X5763750Y64109230D01*
X6081249Y64194796D01*
X6411857Y64274347D01*
X6754809Y64347721D01*
X7109339Y64414754D01*
X7474679Y64475285D01*
X7850063Y64529150D01*
X8234725Y64576187D01*
X8627898Y64616234D01*
X9028816Y64649127D01*
X9436711Y64674704D01*
X9479728Y64676904D01*
X9550799Y64680265D01*
X9629420Y64683726D01*
X9712719Y64687181D01*
X9797823Y64690522D01*
X9881861Y64693646D01*
X9961959Y64696446D01*
X10035247Y64698816D01*
X10098851Y64700650D01*
X10149900Y64701843D01*
X10185521Y64702289D01*
X10251930Y64702380D01*
X10251930Y64603409D01*
X10251930Y64504438D01*
X9906149Y64493427D01*
X9814259Y64490310D01*
X9432911Y64473252D01*
X9057470Y64449836D01*
X8688514Y64420213D01*
X8326620Y64384532D01*
X7972367Y64342944D01*
X7626331Y64295598D01*
X7289091Y64242644D01*
X6961223Y64184231D01*
X6643306Y64120511D01*
X6335917Y64051632D01*
X6039633Y63977745D01*
X5755032Y63899000D01*
X5482692Y63815546D01*
X5223189Y63727533D01*
X4977103Y63635111D01*
X4745010Y63538430D01*
X4527487Y63437641D01*
X4325113Y63332892D01*
X4138465Y63224333D01*
X3968120Y63112116D01*
X3814656Y62996388D01*
X3678651Y62877301D01*
X3644829Y62844302D01*
X3539718Y62728133D01*
X3452298Y62608164D01*
X3382679Y62484560D01*
X3330968Y62357483D01*
X3329517Y62353094D01*
X3319897Y62322341D01*
X3313194Y62295437D01*
X3308887Y62267949D01*
X3306456Y62235444D01*
X3305379Y62193488D01*
X3305136Y62137649D01*
X3305139Y62129665D01*
X3305459Y62075827D01*
X3306678Y62035312D01*
X3309317Y62003686D01*
X3313898Y61976517D01*
X3320942Y61949371D01*
X3330968Y61917815D01*
X3353164Y61857102D01*
X3405130Y61746152D01*
X3471182Y61638420D01*
X3552149Y61532878D01*
X3648855Y61428499D01*
X3762128Y61324255D01*
X3892792Y61219119D01*
X3916094Y61201637D01*
X4080148Y61088164D01*
X4261470Y60978186D01*
X4459409Y60871872D01*
X4673313Y60769392D01*
X4902529Y60670913D01*
X5146406Y60576604D01*
X5404292Y60486634D01*
X5675535Y60401172D01*
X5959482Y60320385D01*
X6255483Y60244443D01*
X6562883Y60173514D01*
X6881033Y60107768D01*
X7209279Y60047371D01*
X7546970Y59992494D01*
X7893453Y59943304D01*
X8248077Y59899971D01*
X8610190Y59862662D01*
X8979140Y59831547D01*
X9354274Y59806794D01*
X9466785Y59800765D01*
X9746926Y59788719D01*
X10037254Y59780149D01*
X10333748Y59775063D01*
X10632383Y59773469D01*
X10929137Y59775374D01*
X11219984Y59780786D01*
X11500903Y59789713D01*
X11767869Y59802162D01*
X11804898Y59804228D01*
X12190322Y59829509D01*
X12568594Y59861200D01*
X12939112Y59899146D01*
X13301278Y59943193D01*
X13654490Y59993187D01*
X13998149Y60048972D01*
X14331654Y60110396D01*
X14654405Y60177304D01*
X14965802Y60249540D01*
X15265245Y60326951D01*
X15552134Y60409383D01*
X15825867Y60496681D01*
X16085846Y60588690D01*
X16331471Y60685256D01*
X16562140Y60786226D01*
X16777253Y60891444D01*
X16976211Y61000756D01*
X17158414Y61114008D01*
X17323260Y61231046D01*
X17328116Y61234755D01*
X17461498Y61344171D01*
X17577014Y61454634D01*
X17675093Y61566688D01*
X17756169Y61680874D01*
X17820672Y61797735D01*
X17869033Y61917815D01*
X17870484Y61922203D01*
X17880104Y61952957D01*
X17886807Y61979861D01*
X17891114Y62007349D01*
X17893545Y62039854D01*
X17894621Y62081810D01*
X17894865Y62137649D01*
X17894862Y62145633D01*
X17894542Y62199471D01*
X17893323Y62239986D01*
X17890683Y62271612D01*
X17886102Y62298781D01*
X17879059Y62325927D01*
X17869033Y62357483D01*
X17828540Y62461102D01*
X17768782Y62574938D01*
X17693638Y62685726D01*
X17602378Y62794416D01*
X17494272Y62901956D01*
X17368592Y63009297D01*
X17239579Y63106266D01*
X17067043Y63220641D01*
X16877664Y63331184D01*
X16672061Y63437745D01*
X16450852Y63540171D01*
X16214655Y63638312D01*
X15964090Y63732016D01*
X15699774Y63821133D01*
X15422327Y63905511D01*
X15132367Y63985000D01*
X14830513Y64059447D01*
X14517382Y64128703D01*
X14193594Y64192615D01*
X13859767Y64251033D01*
X13516520Y64303806D01*
X13164471Y64350782D01*
X12804239Y64391811D01*
X12436443Y64426741D01*
X12061701Y64455421D01*
X11680631Y64477700D01*
X11293852Y64493427D01*
X10948071Y64504438D01*
X10948071Y64604654D01*
X10948071Y64704871D01*
X11161035Y64698657D01*
X11614807Y64681244D01*
X12099498Y64653044D01*
X12572199Y64615328D01*
X13032343Y64568168D01*
X13479364Y64511636D01*
X13912699Y64445804D01*
X14331780Y64370746D01*
X14736042Y64286532D01*
X15124919Y64193234D01*
X15268918Y64155347D01*
X15558627Y64073191D01*
X15834105Y63986841D01*
X16095102Y63896460D01*
X16341366Y63802206D01*
X16572646Y63704240D01*
X16788692Y63602724D01*
X16989252Y63497818D01*
X17174075Y63389682D01*
X17342910Y63278477D01*
X17495506Y63164364D01*
X17631612Y63047504D01*
X17750977Y62928056D01*
X17853350Y62806182D01*
X17938479Y62682041D01*
X18006115Y62555796D01*
X18056005Y62427606D01*
X18087898Y62297632D01*
X18088522Y62293546D01*
X18089508Y62284638D01*
X18090445Y62272626D01*
X18091334Y62257064D01*
X18092177Y62237503D01*
X18092974Y62213497D01*
X18093727Y62184597D01*
X18094436Y62150356D01*
X18095104Y62110327D01*
X18095732Y62064062D01*
X18096320Y62011114D01*
X18096869Y61951034D01*
X18097382Y61883376D01*
X18097860Y61807692D01*
X18098303Y61723534D01*
X18098712Y61630454D01*
X18099090Y61528007D01*
X18099436Y61415742D01*
X18099754Y61293215D01*
X18100042Y61159975D01*
X18100304Y61015577D01*
X18100540Y60859572D01*
X18100751Y60691514D01*
X18100939Y60510954D01*
X18101104Y60317445D01*
X18101248Y60110539D01*
X18101373Y59889789D01*
X18101479Y59654747D01*
X18101567Y59404967D01*
X18101640Y59139999D01*
X18101698Y58859398D01*
X18101741Y58562714D01*
X18101773Y58249501D01*
X18101793Y57919311D01*
X18101803Y57571697D01*
X18101805Y57206211D01*
X18101805Y56986988D01*
X18101811Y56632434D01*
X18101822Y56295468D01*
X18101832Y55975631D01*
X18101838Y55672467D01*
X18101835Y55385516D01*
X18101819Y55114319D01*
X18101785Y54858418D01*
X18101781Y54841717D01*
X18101729Y54617356D01*
G37*
G36*
X32546556Y65842770D02*
G01*
X32546556Y62137649D01*
X32400000Y62137649D01*
X32253444Y62137649D01*
X32253444Y65842770D01*
X32253444Y69547890D01*
X32400000Y69547890D01*
X32546556Y69547890D01*
X32546556Y65842770D01*
G37*
G36*
X32777840Y47431451D02*
G01*
X32793275Y47430374D01*
X32824912Y47428997D01*
X32869509Y47427467D01*
X32924302Y47425871D01*
X32986526Y47424297D01*
X33053418Y47422830D01*
X33138146Y47420892D01*
X33352972Y47413927D01*
X33571740Y47403811D01*
X33801443Y47390240D01*
X34166288Y47363425D01*
X34546383Y47328608D01*
X34918669Y47287394D01*
X35282514Y47239945D01*
X35637284Y47186426D01*
X35982349Y47127000D01*
X36317076Y47061829D01*
X36640832Y46991077D01*
X36952986Y46914908D01*
X37252905Y46833485D01*
X37539958Y46746971D01*
X37813511Y46655528D01*
X38072934Y46559322D01*
X38317592Y46458514D01*
X38546856Y46353268D01*
X38760091Y46243747D01*
X38956667Y46130115D01*
X39135951Y46012535D01*
X39186067Y45976673D01*
X39334211Y45861021D01*
X39465753Y45742700D01*
X39580449Y45622039D01*
X39678054Y45499368D01*
X39758322Y45375017D01*
X39821010Y45249313D01*
X39865871Y45122587D01*
X39892661Y44995168D01*
X39893733Y44984666D01*
X39895327Y44956401D01*
X39896707Y44914119D01*
X39897876Y44857392D01*
X39898838Y44785788D01*
X39899594Y44698878D01*
X39900148Y44596230D01*
X39900502Y44477415D01*
X39900660Y44342003D01*
X39900623Y44189563D01*
X39900394Y44019665D01*
X39899977Y43831879D01*
X39897147Y42741868D01*
X39872339Y42651762D01*
X39850661Y42583180D01*
X39799830Y42462857D01*
X39733405Y42342468D01*
X39652873Y42224324D01*
X39559722Y42110735D01*
X39455437Y42004010D01*
X39430893Y41981330D01*
X39285690Y41858758D01*
X39122866Y41739399D01*
X38942803Y41623440D01*
X38745883Y41511066D01*
X38532488Y41402464D01*
X38303001Y41297820D01*
X38057803Y41197318D01*
X37797278Y41101145D01*
X37521806Y41009488D01*
X37231771Y40922531D01*
X37072397Y40878317D01*
X36834845Y40816609D01*
X36593325Y40758956D01*
X36345793Y40704959D01*
X36090205Y40654217D01*
X35824517Y40606331D01*
X35546685Y40560902D01*
X35254665Y40517530D01*
X34946412Y40475815D01*
X34928889Y40473567D01*
X34880641Y40467569D01*
X34838449Y40462593D01*
X34806347Y40459105D01*
X34788369Y40457571D01*
X34763142Y40456509D01*
X34765470Y41544230D01*
X34767797Y42631951D01*
X34831915Y42639118D01*
X34888015Y42645579D01*
X35023755Y42662481D01*
X35171427Y42682381D01*
X35326917Y42704651D01*
X35486110Y42728660D01*
X35644894Y42753781D01*
X35799153Y42779385D01*
X35944773Y42804843D01*
X36077642Y42829525D01*
X36087235Y42831375D01*
X36410083Y42897580D01*
X36721998Y42969270D01*
X37022266Y43046197D01*
X37310174Y43128112D01*
X37585008Y43214765D01*
X37846052Y43305908D01*
X38092595Y43401292D01*
X38323920Y43500668D01*
X38539315Y43603787D01*
X38738065Y43710399D01*
X38919456Y43820257D01*
X38948475Y43839453D01*
X38977327Y43859653D01*
X38996945Y43874745D01*
X39004184Y43882420D01*
X39002357Y43885625D01*
X38987723Y43898129D01*
X38960282Y43917434D01*
X38922248Y43942213D01*
X38875836Y43971138D01*
X38823257Y44002884D01*
X38766725Y44036124D01*
X38708454Y44069530D01*
X38650656Y44101777D01*
X38595546Y44131536D01*
X38545335Y44157482D01*
X38493150Y44183324D01*
X38246999Y44296719D01*
X37984236Y44404594D01*
X37705608Y44506800D01*
X37411861Y44603191D01*
X37103742Y44693621D01*
X36781997Y44777942D01*
X36447373Y44856007D01*
X36100615Y44927670D01*
X35742472Y44992783D01*
X35373689Y45051200D01*
X34995012Y45102773D01*
X34607189Y45147357D01*
X34210965Y45184803D01*
X33807087Y45214966D01*
X33396301Y45237697D01*
X32979355Y45252851D01*
X32748071Y45259085D01*
X32748071Y45358410D01*
X32748071Y45457735D01*
X32787000Y45457671D01*
X32802259Y45457544D01*
X32845410Y45456676D01*
X32902809Y45455080D01*
X32971748Y45452862D01*
X33049519Y45450128D01*
X33133412Y45446984D01*
X33220719Y45443535D01*
X33308732Y45439886D01*
X33394742Y45436144D01*
X33476040Y45432414D01*
X33549918Y45428802D01*
X33613668Y45425414D01*
X33700231Y45420392D01*
X34171779Y45387070D01*
X34631589Y45344365D01*
X35079166Y45292365D01*
X35514017Y45231159D01*
X35935650Y45160833D01*
X36343570Y45081476D01*
X36737283Y44993175D01*
X37116298Y44896019D01*
X37480120Y44790094D01*
X37828256Y44675489D01*
X37947062Y44632609D01*
X38130186Y44561394D01*
X38310765Y44485158D01*
X38486199Y44405148D01*
X38653886Y44322615D01*
X38811226Y44238806D01*
X38955616Y44154972D01*
X39084455Y44072360D01*
X39178466Y44008549D01*
X39203015Y44024634D01*
X39218505Y44036404D01*
X39247582Y44062060D01*
X39283971Y44096654D01*
X39324979Y44137409D01*
X39367917Y44181550D01*
X39410096Y44226300D01*
X39448824Y44268884D01*
X39481413Y44306525D01*
X39505171Y44336448D01*
X39518874Y44355684D01*
X39561523Y44422175D01*
X39601849Y44494201D01*
X39636471Y44565443D01*
X39662007Y44629582D01*
X39676487Y44677411D01*
X39697204Y44790182D01*
X39700007Y44904693D01*
X39684990Y45019970D01*
X39652246Y45135041D01*
X39601872Y45248933D01*
X39582671Y45283984D01*
X39506500Y45400527D01*
X39412740Y45515052D01*
X39301887Y45627392D01*
X39174435Y45737379D01*
X39030880Y45844844D01*
X38871717Y45949619D01*
X38697441Y46051537D01*
X38508548Y46150429D01*
X38305531Y46246127D01*
X38088886Y46338463D01*
X37859109Y46427269D01*
X37616694Y46512377D01*
X37362137Y46593619D01*
X37095933Y46670826D01*
X36818576Y46743831D01*
X36530561Y46812466D01*
X36232385Y46876562D01*
X35924542Y46935951D01*
X35607527Y46990466D01*
X35281835Y47039937D01*
X34947961Y47084198D01*
X34606401Y47123079D01*
X34257649Y47156414D01*
X33902200Y47184033D01*
X33873797Y47185950D01*
X33788293Y47191341D01*
X33693219Y47196868D01*
X33591108Y47202418D01*
X33484492Y47207878D01*
X33375904Y47213134D01*
X33267875Y47218071D01*
X33162937Y47222578D01*
X33063624Y47226539D01*
X32972468Y47229842D01*
X32892000Y47232373D01*
X32824754Y47234018D01*
X32773260Y47234664D01*
X32748071Y47234728D01*
X32748071Y47334909D01*
X32748071Y47435091D01*
X32777840Y47431451D01*
G37*
G36*
X32051930Y47335894D02*
G01*
X32051930Y47236697D01*
X31889344Y47230944D01*
X31751923Y47225978D01*
X31593481Y47219925D01*
X31449313Y47213987D01*
X31317166Y47208048D01*
X31194784Y47201987D01*
X31079915Y47195686D01*
X30970304Y47189026D01*
X30863699Y47181889D01*
X30757844Y47174157D01*
X30650487Y47165709D01*
X30630497Y47164075D01*
X30278906Y47132045D01*
X29934863Y47094488D01*
X29598814Y47051573D01*
X29271205Y47003468D01*
X28952482Y46950340D01*
X28643091Y46892358D01*
X28343480Y46829688D01*
X28054093Y46762499D01*
X27775378Y46690958D01*
X27507780Y46615233D01*
X27251747Y46535492D01*
X27007723Y46451903D01*
X26776156Y46364632D01*
X26557492Y46273849D01*
X26352177Y46179721D01*
X26160657Y46082415D01*
X25983378Y45982099D01*
X25820788Y45878941D01*
X25673331Y45773108D01*
X25541455Y45664769D01*
X25425605Y45554091D01*
X25326228Y45441242D01*
X25243771Y45326390D01*
X25178679Y45209701D01*
X25131398Y45091345D01*
X25116376Y45034800D01*
X25102212Y44934599D01*
X25101144Y44830159D01*
X25113096Y44726734D01*
X25137993Y44629582D01*
X25145037Y44610040D01*
X25173876Y44542918D01*
X25210709Y44470732D01*
X25252154Y44399802D01*
X25294830Y44336448D01*
X25311782Y44314755D01*
X25342464Y44278729D01*
X25379954Y44237078D01*
X25421560Y44192578D01*
X25464591Y44148005D01*
X25506355Y44106139D01*
X25544160Y44069754D01*
X25575316Y44041629D01*
X25597130Y44024540D01*
X25621822Y44008361D01*
X25747749Y44090812D01*
X25848580Y44154611D01*
X26052859Y44272074D01*
X26273980Y44384966D01*
X26511318Y44493134D01*
X26764248Y44596423D01*
X27032142Y44694681D01*
X27314375Y44787753D01*
X27610322Y44875487D01*
X27919356Y44957727D01*
X28240852Y45034322D01*
X28574183Y45105117D01*
X28918724Y45169959D01*
X29273850Y45228694D01*
X29638934Y45281169D01*
X30013350Y45327230D01*
X30396472Y45366723D01*
X30787675Y45399495D01*
X31186333Y45425392D01*
X31214141Y45426904D01*
X31284473Y45430479D01*
X31363421Y45434213D01*
X31448293Y45438000D01*
X31536398Y45441737D01*
X31625045Y45445318D01*
X31711542Y45448640D01*
X31793197Y45451597D01*
X31867320Y45454086D01*
X31931219Y45456000D01*
X31982203Y45457237D01*
X32017581Y45457690D01*
X32061089Y45457735D01*
X32061089Y45358393D01*
X32061089Y45259051D01*
X31825226Y45252810D01*
X31537260Y45243289D01*
X31142220Y45223973D01*
X30752805Y45197694D01*
X30369775Y45164609D01*
X29993887Y45124874D01*
X29625901Y45078646D01*
X29266576Y45026081D01*
X28916671Y44967334D01*
X28576945Y44902563D01*
X28248156Y44831923D01*
X27931063Y44755571D01*
X27626427Y44673663D01*
X27335004Y44586356D01*
X27057555Y44493805D01*
X26794838Y44396167D01*
X26547612Y44293599D01*
X26316636Y44186256D01*
X26102669Y44074296D01*
X26062875Y44051778D01*
X26011658Y44021857D01*
X25961565Y43991678D01*
X25915057Y43962802D01*
X25874598Y43936788D01*
X25842650Y43915196D01*
X25821675Y43899587D01*
X25814137Y43891520D01*
X25816161Y43888452D01*
X25830118Y43876557D01*
X25854424Y43858935D01*
X25885637Y43838156D01*
X26047246Y43740151D01*
X26249434Y43630862D01*
X26468478Y43525446D01*
X26703776Y43424103D01*
X26954725Y43327028D01*
X27220724Y43234420D01*
X27501171Y43146477D01*
X27795463Y43063395D01*
X28102998Y42985373D01*
X28423174Y42912608D01*
X28755390Y42845297D01*
X29099043Y42783639D01*
X29149502Y42775334D01*
X29214677Y42764991D01*
X29286078Y42753983D01*
X29361272Y42742655D01*
X29437826Y42731358D01*
X29513307Y42720438D01*
X29585282Y42710244D01*
X29651319Y42701122D01*
X29708985Y42693422D01*
X29755847Y42687492D01*
X29789472Y42683678D01*
X29807428Y42682330D01*
X29835134Y42682330D01*
X29837492Y43270094D01*
X29839849Y43857858D01*
X30685108Y42649520D01*
X30753946Y42551091D01*
X30845290Y42420416D01*
X30933350Y42294366D01*
X31017568Y42173738D01*
X31097391Y42059331D01*
X31172262Y41951945D01*
X31241625Y41852377D01*
X31304924Y41761425D01*
X31361605Y41679890D01*
X31411110Y41608568D01*
X31452886Y41548260D01*
X31486375Y41499762D01*
X31511022Y41463875D01*
X31526272Y41441395D01*
X31531568Y41433123D01*
X31531539Y41432993D01*
X31525078Y41423893D01*
X31507782Y41401413D01*
X31480285Y41366348D01*
X31443224Y41319491D01*
X31397233Y41261635D01*
X31342948Y41193576D01*
X31281004Y41116105D01*
X31212036Y41030018D01*
X31136680Y40936108D01*
X31055571Y40835169D01*
X30969344Y40727994D01*
X30878635Y40615377D01*
X30784078Y40498113D01*
X30686310Y40376995D01*
X29839849Y39328926D01*
X29837492Y39915617D01*
X29837112Y40004408D01*
X29836558Y40111684D01*
X29835939Y40202803D01*
X29835221Y40279015D01*
X29834372Y40341573D01*
X29833357Y40391728D01*
X29832145Y40430732D01*
X29830702Y40459838D01*
X29828994Y40480296D01*
X29826988Y40493360D01*
X29824652Y40500280D01*
X29821952Y40502308D01*
X29818083Y40502584D01*
X29797876Y40504849D01*
X29763627Y40509102D01*
X29718121Y40514986D01*
X29664142Y40522144D01*
X29604475Y40530218D01*
X29262501Y40580223D01*
X28921072Y40637036D01*
X28590638Y40699122D01*
X28271598Y40766319D01*
X27964350Y40838463D01*
X27669293Y40915390D01*
X27386826Y40996936D01*
X27117347Y41082938D01*
X26861255Y41173232D01*
X26618949Y41267655D01*
X26390827Y41366043D01*
X26177288Y41468232D01*
X25978731Y41574059D01*
X25795554Y41683360D01*
X25628156Y41795971D01*
X25476936Y41911729D01*
X25342292Y42030470D01*
X25224623Y42152031D01*
X25124327Y42276248D01*
X25041804Y42402957D01*
X25016092Y42450496D01*
X24964488Y42566071D01*
X24922948Y42689675D01*
X24920654Y42697827D01*
X24917863Y42708484D01*
X24915375Y42719783D01*
X24913172Y42732765D01*
X24911230Y42748469D01*
X24909531Y42767935D01*
X24908052Y42792203D01*
X24906773Y42822313D01*
X24905672Y42859304D01*
X24904731Y42904216D01*
X24903926Y42958090D01*
X24903238Y43021965D01*
X24902645Y43096880D01*
X24902127Y43183876D01*
X24901663Y43283993D01*
X24901232Y43398270D01*
X24900812Y43527746D01*
X24900384Y43673463D01*
X24899926Y43836459D01*
X24899713Y43913232D01*
X24899283Y44076272D01*
X24898963Y44222509D01*
X24898789Y44352998D01*
X24898796Y44468793D01*
X24899023Y44570949D01*
X24899504Y44660522D01*
X24900276Y44738566D01*
X24901375Y44806136D01*
X24902838Y44864288D01*
X24904701Y44914077D01*
X24907001Y44956557D01*
X24909773Y44992783D01*
X24913053Y45023810D01*
X24916879Y45050694D01*
X24921287Y45074489D01*
X24926312Y45096251D01*
X24931991Y45117033D01*
X24938360Y45137893D01*
X24945456Y45159883D01*
X24977734Y45247797D01*
X25022130Y45342797D01*
X25076299Y45434798D01*
X25141978Y45526426D01*
X25220899Y45620305D01*
X25314799Y45719064D01*
X25412021Y45812075D01*
X25517688Y45902916D01*
X25630009Y45988681D01*
X25754598Y46073899D01*
X25769881Y46083809D01*
X25963181Y46200761D01*
X26173632Y46313512D01*
X26400565Y46421892D01*
X26643313Y46525732D01*
X26901208Y46624864D01*
X27173583Y46719118D01*
X27459770Y46808325D01*
X27759102Y46892316D01*
X28070911Y46970922D01*
X28394529Y47043973D01*
X28729289Y47111302D01*
X29074523Y47172739D01*
X29429564Y47228114D01*
X29793744Y47277259D01*
X30166394Y47320005D01*
X30546849Y47356183D01*
X30934440Y47385622D01*
X31072576Y47394504D01*
X31218667Y47403043D01*
X31354731Y47409944D01*
X31485150Y47415408D01*
X31614307Y47419636D01*
X31746583Y47422830D01*
X31809428Y47424202D01*
X31872023Y47425772D01*
X31927358Y47427369D01*
X31972668Y47428905D01*
X32005191Y47430295D01*
X32022160Y47431451D01*
X32051930Y47435091D01*
X32051930Y47335894D01*
G37*
G36*
X39901729Y54617356D02*
G01*
X39901647Y54390672D01*
X39901535Y54177909D01*
X39901388Y53978608D01*
X39901202Y53792311D01*
X39900972Y53618559D01*
X39900695Y53456894D01*
X39900365Y53306858D01*
X39899980Y53167991D01*
X39899534Y53039835D01*
X39899023Y52921932D01*
X39898442Y52813824D01*
X39897788Y52715051D01*
X39897057Y52625156D01*
X39896243Y52543680D01*
X39895342Y52470165D01*
X39894351Y52404151D01*
X39893264Y52345180D01*
X39892079Y52292795D01*
X39890789Y52246536D01*
X39889391Y52205946D01*
X39887882Y52170564D01*
X39886255Y52139934D01*
X39884507Y52113596D01*
X39882634Y52091093D01*
X39880632Y52071965D01*
X39878496Y52055754D01*
X39876221Y52042002D01*
X39873804Y52030250D01*
X39871240Y52020040D01*
X39868525Y52010913D01*
X39865654Y52002411D01*
X39862624Y51994075D01*
X39859429Y51985446D01*
X39856067Y51976067D01*
X39852531Y51965479D01*
X39834014Y51913269D01*
X39781365Y51799326D01*
X39712059Y51684226D01*
X39627081Y51569134D01*
X39527410Y51455214D01*
X39414031Y51343633D01*
X39287924Y51235555D01*
X39150073Y51132146D01*
X39133969Y51120910D01*
X38952721Y51003256D01*
X38754215Y50889477D01*
X38539082Y50779754D01*
X38307951Y50674268D01*
X38061454Y50573198D01*
X37800218Y50476726D01*
X37524875Y50385031D01*
X37236055Y50298295D01*
X36934387Y50216697D01*
X36620502Y50140419D01*
X36295030Y50069640D01*
X35958599Y50004542D01*
X35611842Y49945304D01*
X35255387Y49892107D01*
X34889864Y49845132D01*
X34515904Y49804559D01*
X34481422Y49801192D01*
X34311294Y49785580D01*
X34135108Y49770949D01*
X33955555Y49757456D01*
X33775328Y49745253D01*
X33597116Y49734496D01*
X33423613Y49725339D01*
X33257509Y49717936D01*
X33101496Y49712442D01*
X32958266Y49709012D01*
X32830509Y49707800D01*
X32793175Y49707638D01*
X32735761Y49706864D01*
X32682728Y49705566D01*
X32638720Y49703868D01*
X32608385Y49701892D01*
X32546556Y49696053D01*
X32546556Y43569501D01*
X32546556Y37442950D01*
X32400000Y37442950D01*
X32253444Y37442950D01*
X32253444Y43569501D01*
X32253444Y49696053D01*
X32191616Y49701892D01*
X32173768Y49703200D01*
X32134048Y49705025D01*
X32083664Y49706503D01*
X32027263Y49707508D01*
X31969492Y49707915D01*
X31951561Y49707982D01*
X31888770Y49708690D01*
X31814873Y49710064D01*
X31735236Y49711979D01*
X31655225Y49714311D01*
X31580202Y49716936D01*
X31565481Y49717508D01*
X31064546Y49742549D01*
X30575670Y49777884D01*
X30099282Y49823453D01*
X29635809Y49879192D01*
X29185679Y49945039D01*
X28749319Y50020932D01*
X28327157Y50106808D01*
X27919620Y50202605D01*
X27527136Y50308261D01*
X27393643Y50347629D01*
X27132938Y50430630D01*
X26882931Y50518514D01*
X26644567Y50610846D01*
X26418792Y50707193D01*
X26206552Y50807120D01*
X26008793Y50910192D01*
X25826462Y51015975D01*
X25660503Y51124033D01*
X25511865Y51233934D01*
X25478509Y51261500D01*
X25424070Y51310009D01*
X25365422Y51365622D01*
X25305617Y51425204D01*
X25247706Y51485624D01*
X25194740Y51543747D01*
X25149772Y51596440D01*
X25115852Y51640570D01*
X25105886Y51654885D01*
X25032778Y51774017D01*
X24974697Y51896067D01*
X24932599Y52018749D01*
X24907438Y52139777D01*
X24906878Y52146851D01*
X24906119Y52167018D01*
X24905403Y52199286D01*
X24904729Y52243905D01*
X24904097Y52301124D01*
X24903507Y52371190D01*
X24902957Y52454353D01*
X24902449Y52550861D01*
X24901981Y52660963D01*
X24901553Y52784909D01*
X24901165Y52922945D01*
X24900816Y53075322D01*
X24900506Y53242288D01*
X24900235Y53424092D01*
X24900003Y53620981D01*
X24899808Y53833206D01*
X24899650Y54061015D01*
X24899542Y54280443D01*
X25100874Y54280443D01*
X25100896Y54074283D01*
X25100946Y53881718D01*
X25101026Y53702280D01*
X25101136Y53535502D01*
X25101279Y53380916D01*
X25101454Y53238054D01*
X25101664Y53106448D01*
X25101910Y52985632D01*
X25102192Y52875136D01*
X25102512Y52774494D01*
X25102871Y52683238D01*
X25103270Y52600899D01*
X25103710Y52527010D01*
X25104194Y52461104D01*
X25104721Y52402712D01*
X25105293Y52351367D01*
X25105911Y52306602D01*
X25106576Y52267947D01*
X25107290Y52234937D01*
X25108053Y52207102D01*
X25108868Y52183976D01*
X25109734Y52165090D01*
X25110654Y52149976D01*
X25111628Y52138168D01*
X25112658Y52129197D01*
X25113744Y52122595D01*
X25123378Y52080509D01*
X25162276Y51965071D01*
X25219076Y51850520D01*
X25293479Y51737073D01*
X25385186Y51624945D01*
X25493896Y51514353D01*
X25619312Y51405512D01*
X25761133Y51298640D01*
X25919061Y51193953D01*
X26092795Y51091665D01*
X26282038Y50991995D01*
X26486489Y50895158D01*
X26705849Y50801370D01*
X26939819Y50710848D01*
X27188100Y50623807D01*
X27221476Y50612734D01*
X27571301Y50504294D01*
X27936722Y50404504D01*
X28317189Y50313447D01*
X28712153Y50231209D01*
X29121064Y50157873D01*
X29543374Y50093525D01*
X29978533Y50038248D01*
X30425992Y49992127D01*
X30885201Y49955246D01*
X31355612Y49927690D01*
X31836675Y49909543D01*
X32055797Y49904687D01*
X32508723Y49902022D01*
X32963346Y49909059D01*
X33417419Y49925631D01*
X33868692Y49951574D01*
X34314917Y49986722D01*
X34753846Y50030910D01*
X35183229Y50083973D01*
X35600818Y50145744D01*
X36004364Y50216059D01*
X36136217Y50241487D01*
X36441817Y50305211D01*
X36736193Y50373411D01*
X37018971Y50445893D01*
X37289780Y50522462D01*
X37548246Y50602923D01*
X37793998Y50687080D01*
X38026662Y50774740D01*
X38245866Y50865708D01*
X38451237Y50959788D01*
X38642404Y51056785D01*
X38818993Y51156506D01*
X38980632Y51258754D01*
X39126948Y51363335D01*
X39257568Y51470054D01*
X39372121Y51578716D01*
X39470234Y51689127D01*
X39551534Y51801091D01*
X39615648Y51914414D01*
X39662204Y52028901D01*
X39690829Y52144356D01*
X39691414Y52150843D01*
X39692200Y52170159D01*
X39692940Y52201603D01*
X39693635Y52245433D01*
X39694285Y52301907D01*
X39694890Y52371283D01*
X39695452Y52453819D01*
X39695970Y52549772D01*
X39696445Y52659402D01*
X39696877Y52782965D01*
X39697266Y52920721D01*
X39697614Y53072926D01*
X39697920Y53239839D01*
X39698185Y53421717D01*
X39698410Y53618820D01*
X39698594Y53831404D01*
X39698738Y54059728D01*
X39698842Y54304049D01*
X39698908Y54564626D01*
X39698935Y54841717D01*
X39698923Y55135580D01*
X39698874Y55446472D01*
X39698787Y55774651D01*
X39698663Y56120377D01*
X39698503Y56483905D01*
X39698306Y56865496D01*
X39695745Y61527096D01*
X39655164Y61472852D01*
X39588724Y61390030D01*
X39474774Y61268672D01*
X39343505Y61150093D01*
X39195412Y61034460D01*
X39030991Y60921939D01*
X38850738Y60812697D01*
X38655150Y60706901D01*
X38444721Y60604718D01*
X38219948Y60506313D01*
X37981326Y60411853D01*
X37729352Y60321505D01*
X37464522Y60235435D01*
X37187331Y60153810D01*
X36898276Y60076797D01*
X36597851Y60004562D01*
X36286554Y59937272D01*
X35964880Y59875093D01*
X35633325Y59818191D01*
X35292384Y59766734D01*
X34942555Y59720888D01*
X34584332Y59680820D01*
X34218212Y59646695D01*
X34119473Y59638555D01*
X33951865Y59625598D01*
X33791783Y59614469D01*
X33635996Y59605025D01*
X33481277Y59597123D01*
X33324396Y59590622D01*
X33162124Y59585379D01*
X32991233Y59581251D01*
X32808492Y59578096D01*
X32610675Y59575772D01*
X32548308Y59575232D01*
X32328747Y59574247D01*
X32122770Y59574906D01*
X31926701Y59577284D01*
X31736865Y59581455D01*
X31549588Y59587497D01*
X31361196Y59595484D01*
X31168013Y59605493D01*
X31025246Y59613977D01*
X30636846Y59641908D01*
X30255985Y59676415D01*
X29883240Y59717344D01*
X29519187Y59764541D01*
X29164404Y59817852D01*
X28819467Y59877123D01*
X28484953Y59942200D01*
X28161438Y60012930D01*
X27849499Y60089159D01*
X27549713Y60170732D01*
X27262656Y60257495D01*
X26988906Y60349295D01*
X26729039Y60445978D01*
X26483632Y60547390D01*
X26253261Y60653376D01*
X26038503Y60763784D01*
X25839935Y60878458D01*
X25658134Y60997246D01*
X25493675Y61119993D01*
X25440532Y61164487D01*
X25376467Y61222305D01*
X25312607Y61283857D01*
X25252595Y61345504D01*
X25200076Y61403607D01*
X25158694Y61454525D01*
X25104256Y61527081D01*
X25101782Y56860908D01*
X25101763Y56824849D01*
X25101582Y56475284D01*
X25101419Y56143523D01*
X25101275Y55829099D01*
X25101151Y55531545D01*
X25101048Y55250392D01*
X25100968Y54985174D01*
X25100911Y54735421D01*
X25100880Y54500667D01*
X25100874Y54280443D01*
X24899542Y54280443D01*
X24899530Y54304656D01*
X24899447Y54564378D01*
X24899401Y54840430D01*
X24899390Y55133060D01*
X24899415Y55442518D01*
X24899476Y55769051D01*
X24899572Y56112910D01*
X24899703Y56474341D01*
X24899868Y56853595D01*
X24900066Y57250920D01*
X24902741Y62288785D01*
X24923195Y62360631D01*
X24934378Y62398057D01*
X24981210Y62525184D01*
X25040250Y62645030D01*
X25112986Y62760026D01*
X25200905Y62872600D01*
X25305493Y62985183D01*
X25392089Y63067500D01*
X25529066Y63183003D01*
X25680477Y63294586D01*
X25847281Y63402899D01*
X26030437Y63508593D01*
X26230905Y63612318D01*
X26440190Y63710074D01*
X26697582Y63818072D01*
X26971151Y63920706D01*
X27260129Y64017813D01*
X27563750Y64109230D01*
X27881249Y64194796D01*
X28211857Y64274347D01*
X28554809Y64347721D01*
X28909339Y64414754D01*
X29274679Y64475285D01*
X29650063Y64529150D01*
X30034725Y64576187D01*
X30427898Y64616234D01*
X30828816Y64649127D01*
X31236711Y64674704D01*
X31279728Y64676904D01*
X31350799Y64680265D01*
X31429420Y64683726D01*
X31512719Y64687181D01*
X31597823Y64690522D01*
X31681861Y64693646D01*
X31761959Y64696446D01*
X31835247Y64698816D01*
X31898851Y64700650D01*
X31949900Y64701843D01*
X31985521Y64702289D01*
X32051930Y64702380D01*
X32051930Y64603409D01*
X32051930Y64504438D01*
X31706149Y64493427D01*
X31614259Y64490310D01*
X31232911Y64473252D01*
X30857470Y64449836D01*
X30488514Y64420213D01*
X30126620Y64384532D01*
X29772367Y64342944D01*
X29426331Y64295598D01*
X29089091Y64242644D01*
X28761223Y64184231D01*
X28443306Y64120511D01*
X28135917Y64051632D01*
X27839633Y63977745D01*
X27555032Y63899000D01*
X27282692Y63815546D01*
X27023189Y63727533D01*
X26777103Y63635111D01*
X26545010Y63538430D01*
X26327487Y63437641D01*
X26125113Y63332892D01*
X25938465Y63224333D01*
X25768120Y63112116D01*
X25614656Y62996388D01*
X25478651Y62877301D01*
X25444829Y62844302D01*
X25339718Y62728133D01*
X25252298Y62608164D01*
X25182679Y62484560D01*
X25130968Y62357483D01*
X25129517Y62353094D01*
X25119897Y62322341D01*
X25113194Y62295437D01*
X25108887Y62267949D01*
X25106456Y62235444D01*
X25105379Y62193488D01*
X25105136Y62137649D01*
X25105139Y62129665D01*
X25105459Y62075827D01*
X25106678Y62035312D01*
X25109317Y62003686D01*
X25113898Y61976517D01*
X25120942Y61949371D01*
X25130968Y61917815D01*
X25153164Y61857102D01*
X25205130Y61746152D01*
X25271182Y61638420D01*
X25352149Y61532878D01*
X25448855Y61428499D01*
X25562128Y61324255D01*
X25692792Y61219119D01*
X25716094Y61201637D01*
X25880148Y61088164D01*
X26061470Y60978186D01*
X26259409Y60871872D01*
X26473313Y60769392D01*
X26702529Y60670913D01*
X26946406Y60576604D01*
X27204292Y60486634D01*
X27475535Y60401172D01*
X27759482Y60320385D01*
X28055483Y60244443D01*
X28362883Y60173514D01*
X28681033Y60107768D01*
X29009279Y60047371D01*
X29346970Y59992494D01*
X29693453Y59943304D01*
X30048077Y59899971D01*
X30410190Y59862662D01*
X30779140Y59831547D01*
X31154274Y59806794D01*
X31266785Y59800765D01*
X31546926Y59788719D01*
X31837254Y59780149D01*
X32133748Y59775063D01*
X32432383Y59773469D01*
X32729137Y59775374D01*
X33019984Y59780786D01*
X33300903Y59789713D01*
X33567869Y59802162D01*
X33604898Y59804228D01*
X33990322Y59829509D01*
X34368594Y59861200D01*
X34739112Y59899146D01*
X35101278Y59943193D01*
X35454490Y59993187D01*
X35798149Y60048972D01*
X36131654Y60110396D01*
X36454405Y60177304D01*
X36765802Y60249540D01*
X37065245Y60326951D01*
X37352134Y60409383D01*
X37625867Y60496681D01*
X37885846Y60588690D01*
X38131471Y60685256D01*
X38362140Y60786226D01*
X38577253Y60891444D01*
X38776211Y61000756D01*
X38958414Y61114008D01*
X39123260Y61231046D01*
X39128116Y61234755D01*
X39261498Y61344171D01*
X39377014Y61454634D01*
X39475093Y61566688D01*
X39556169Y61680874D01*
X39620672Y61797735D01*
X39669033Y61917815D01*
X39670484Y61922203D01*
X39680104Y61952957D01*
X39686807Y61979861D01*
X39691114Y62007349D01*
X39693545Y62039854D01*
X39694621Y62081810D01*
X39694865Y62137649D01*
X39694862Y62145633D01*
X39694542Y62199471D01*
X39693323Y62239986D01*
X39690683Y62271612D01*
X39686102Y62298781D01*
X39679059Y62325927D01*
X39669033Y62357483D01*
X39628540Y62461102D01*
X39568782Y62574938D01*
X39493638Y62685726D01*
X39402378Y62794416D01*
X39294272Y62901956D01*
X39168592Y63009297D01*
X39039579Y63106266D01*
X38867043Y63220641D01*
X38677664Y63331184D01*
X38472061Y63437745D01*
X38250852Y63540171D01*
X38014655Y63638312D01*
X37764090Y63732016D01*
X37499774Y63821133D01*
X37222327Y63905511D01*
X36932367Y63985000D01*
X36630513Y64059447D01*
X36317382Y64128703D01*
X35993594Y64192615D01*
X35659767Y64251033D01*
X35316520Y64303806D01*
X34964471Y64350782D01*
X34604239Y64391811D01*
X34236443Y64426741D01*
X33861701Y64455421D01*
X33480631Y64477700D01*
X33093852Y64493427D01*
X32748071Y64504438D01*
X32748071Y64604654D01*
X32748071Y64704871D01*
X32961035Y64698657D01*
X33414807Y64681244D01*
X33899498Y64653044D01*
X34372199Y64615328D01*
X34832343Y64568168D01*
X35279364Y64511636D01*
X35712699Y64445804D01*
X36131780Y64370746D01*
X36536042Y64286532D01*
X36924919Y64193234D01*
X37068918Y64155347D01*
X37358627Y64073191D01*
X37634105Y63986841D01*
X37895102Y63896460D01*
X38141366Y63802206D01*
X38372646Y63704240D01*
X38588692Y63602724D01*
X38789252Y63497818D01*
X38974075Y63389682D01*
X39142910Y63278477D01*
X39295506Y63164364D01*
X39431612Y63047504D01*
X39550977Y62928056D01*
X39653350Y62806182D01*
X39738479Y62682041D01*
X39806115Y62555796D01*
X39856005Y62427606D01*
X39887898Y62297632D01*
X39888522Y62293546D01*
X39889508Y62284638D01*
X39890445Y62272626D01*
X39891334Y62257064D01*
X39892177Y62237503D01*
X39892974Y62213497D01*
X39893727Y62184597D01*
X39894436Y62150356D01*
X39895104Y62110327D01*
X39895732Y62064062D01*
X39896320Y62011114D01*
X39896869Y61951034D01*
X39897382Y61883376D01*
X39897860Y61807692D01*
X39898303Y61723534D01*
X39898712Y61630454D01*
X39899090Y61528007D01*
X39899436Y61415742D01*
X39899754Y61293215D01*
X39900042Y61159975D01*
X39900304Y61015577D01*
X39900540Y60859572D01*
X39900751Y60691514D01*
X39900939Y60510954D01*
X39901104Y60317445D01*
X39901248Y60110539D01*
X39901373Y59889789D01*
X39901479Y59654747D01*
X39901567Y59404967D01*
X39901640Y59139999D01*
X39901698Y58859398D01*
X39901741Y58562714D01*
X39901773Y58249501D01*
X39901793Y57919311D01*
X39901803Y57571697D01*
X39901805Y57206211D01*
X39901805Y56986988D01*
X39901811Y56632434D01*
X39901822Y56295468D01*
X39901832Y55975631D01*
X39901838Y55672467D01*
X39901835Y55385516D01*
X39901819Y55114319D01*
X39901785Y54858418D01*
X39901781Y54841717D01*
X39901729Y54617356D01*
G37*
%TD*%
%LPC*%
D12*
X22300000Y87750000D02*
G75*
G02*
X20700000Y87750000I-800000J0D01*
G01*
X20700000Y87750000D02*
G75*
G02*
X22300000Y87750000I800000J0D01*
G01*
D10*
%TO.C,G\u002A\u002A\u002A*%
G36*
X26125500Y3073443D02*
G01*
X26122022Y3048515D01*
X26095761Y2965850D01*
X26049116Y2874587D01*
X25987430Y2793180D01*
X25912384Y2723434D01*
X25825660Y2667156D01*
X25728938Y2626153D01*
X25726938Y2625513D01*
X25667350Y2612037D01*
X25596738Y2604319D01*
X25522249Y2602542D01*
X25451028Y2606886D01*
X25390223Y2617534D01*
X25311619Y2644667D01*
X25223208Y2693008D01*
X25143740Y2756882D01*
X25074731Y2834797D01*
X25017697Y2925261D01*
X24974157Y3026783D01*
X24973042Y3030119D01*
X24969396Y3042501D01*
X24966311Y3056609D01*
X24963742Y3074036D01*
X24961642Y3096378D01*
X24959964Y3125230D01*
X24958661Y3162188D01*
X24957686Y3208846D01*
X24956993Y3266799D01*
X24956536Y3337644D01*
X24956267Y3422975D01*
X24956140Y3524387D01*
X24956108Y3643475D01*
X24956110Y3678291D01*
X24956163Y3792328D01*
X24956325Y3889130D01*
X24956642Y3970293D01*
X24957159Y4037410D01*
X24957925Y4092078D01*
X24958986Y4135892D01*
X24960315Y4168627D01*
X25235546Y4168627D01*
X25235546Y3643475D01*
X25235546Y3118323D01*
X25258457Y3067634D01*
X25272368Y3042089D01*
X25306608Y2996938D01*
X25349335Y2954503D01*
X25395220Y2919799D01*
X25438936Y2897837D01*
X25488624Y2886072D01*
X25553259Y2882086D01*
X25616645Y2888756D01*
X25671213Y2905822D01*
X25685659Y2913130D01*
X25742041Y2952511D01*
X25791721Y3003704D01*
X25828653Y3060759D01*
X25852238Y3108687D01*
X25852238Y3643475D01*
X25852238Y4178262D01*
X25828653Y4226190D01*
X25820940Y4240690D01*
X25780251Y4296837D01*
X25728326Y4345633D01*
X25671213Y4381127D01*
X25626196Y4396148D01*
X25563715Y4404504D01*
X25498771Y4402246D01*
X25438936Y4389113D01*
X25414062Y4378168D01*
X25368435Y4348180D01*
X25323741Y4308367D01*
X25285305Y4263741D01*
X25258457Y4219315D01*
X25235546Y4168627D01*
X24960315Y4168627D01*
X24960389Y4170447D01*
X24962179Y4197338D01*
X24964405Y4218161D01*
X24967111Y4234509D01*
X24970347Y4247980D01*
X24974157Y4260167D01*
X25009065Y4344687D01*
X25063848Y4437193D01*
X25130872Y4517410D01*
X25208620Y4583848D01*
X25295576Y4635014D01*
X25390223Y4669415D01*
X25401769Y4672120D01*
X25455565Y4679865D01*
X25519230Y4683476D01*
X25585666Y4682950D01*
X25647772Y4678285D01*
X25698450Y4669480D01*
X25720313Y4663420D01*
X25815161Y4625387D01*
X25901480Y4571558D01*
X25977298Y4503941D01*
X26040643Y4424543D01*
X26089542Y4335372D01*
X26122022Y4238435D01*
X26125381Y4214727D01*
X26128439Y4173382D01*
X26131061Y4117232D01*
X26133247Y4048546D01*
X26134998Y3969597D01*
X26136313Y3882657D01*
X26137192Y3789996D01*
X26137636Y3693887D01*
X26137644Y3596600D01*
X26137216Y3500408D01*
X26136353Y3407581D01*
X26135054Y3320393D01*
X26133319Y3241113D01*
X26131148Y3172014D01*
X26128542Y3115366D01*
X26128057Y3108687D01*
X26125500Y3073443D01*
G37*
G36*
X12067070Y4688259D02*
G01*
X12158234Y4668183D01*
X12245503Y4632222D01*
X12326873Y4580622D01*
X12400337Y4513632D01*
X12463887Y4431500D01*
X12489631Y4386466D01*
X12523936Y4298274D01*
X12541942Y4205058D01*
X12543938Y4109733D01*
X12530215Y4015215D01*
X12501063Y3924420D01*
X12456772Y3840262D01*
X12397632Y3765659D01*
X12390644Y3759156D01*
X12366627Y3739370D01*
X12330215Y3711056D01*
X12283615Y3675872D01*
X12229030Y3635472D01*
X12168666Y3591514D01*
X12104727Y3545652D01*
X12044610Y3502709D01*
X11977877Y3454325D01*
X11924208Y3414069D01*
X11881990Y3380370D01*
X11849609Y3351651D01*
X11825452Y3326340D01*
X11807904Y3302863D01*
X11795354Y3279645D01*
X11786186Y3255113D01*
X11778789Y3227692D01*
X11774855Y3208855D01*
X11771201Y3137203D01*
X11786210Y3069910D01*
X11819650Y3007668D01*
X11871289Y2951169D01*
X11875086Y2947878D01*
X11934732Y2908511D01*
X12000178Y2887483D01*
X12072127Y2884562D01*
X12134441Y2896039D01*
X12198569Y2924771D01*
X12256371Y2970879D01*
X12309008Y3035100D01*
X12343604Y3070293D01*
X12386805Y3089214D01*
X12436105Y3091129D01*
X12489137Y3075508D01*
X12498901Y3070672D01*
X12533344Y3042994D01*
X12553221Y3004221D01*
X12559545Y2952584D01*
X12557533Y2928235D01*
X12539608Y2873656D01*
X12502989Y2816438D01*
X12447521Y2756305D01*
X12414607Y2727041D01*
X12330158Y2668596D01*
X12238150Y2627545D01*
X12136913Y2603065D01*
X12110110Y2600021D01*
X12045644Y2598704D01*
X11977158Y2603754D01*
X11914036Y2614681D01*
X11895271Y2619577D01*
X11806077Y2654330D01*
X11723428Y2705210D01*
X11649632Y2769913D01*
X11586993Y2846135D01*
X11537817Y2931573D01*
X11504409Y3023923D01*
X11498846Y3050255D01*
X11492090Y3111696D01*
X11490812Y3179461D01*
X11495004Y3245506D01*
X11504659Y3301788D01*
X11510186Y3321785D01*
X11542898Y3406533D01*
X11587941Y3486518D01*
X11641557Y3554791D01*
X11668482Y3580229D01*
X11712666Y3616785D01*
X11771399Y3661858D01*
X11843675Y3714676D01*
X11928490Y3774472D01*
X11940050Y3782508D01*
X11999927Y3824369D01*
X12055408Y3863536D01*
X12104198Y3898361D01*
X12144001Y3927198D01*
X12172522Y3948399D01*
X12187467Y3960316D01*
X12215820Y3992398D01*
X12244065Y4046386D01*
X12258541Y4106920D01*
X12259324Y4170018D01*
X12246490Y4231695D01*
X12220117Y4287969D01*
X12180280Y4334855D01*
X12142650Y4364005D01*
X12080372Y4395725D01*
X12016111Y4408313D01*
X11949438Y4401827D01*
X11879927Y4376326D01*
X11873858Y4373301D01*
X11835291Y4350824D01*
X11805951Y4325082D01*
X11777476Y4288941D01*
X11753299Y4257925D01*
X11719567Y4227868D01*
X11682687Y4212143D01*
X11638183Y4208153D01*
X11619786Y4209607D01*
X11574228Y4224267D01*
X11539056Y4252138D01*
X11515707Y4290183D01*
X11505614Y4335367D01*
X11510214Y4384654D01*
X11530942Y4435008D01*
X11534377Y4440525D01*
X11555922Y4469395D01*
X11585286Y4503316D01*
X11617154Y4536058D01*
X11623085Y4541673D01*
X11703616Y4604744D01*
X11790287Y4650691D01*
X11881091Y4679760D01*
X11974021Y4692200D01*
X12067070Y4688259D01*
G37*
G36*
X14106612Y4674520D02*
G01*
X14144514Y4644328D01*
X14169427Y4603484D01*
X14178416Y4555328D01*
X14178335Y4554093D01*
X14174686Y4536404D01*
X14165865Y4501718D01*
X14152228Y4451272D01*
X14134131Y4386302D01*
X14111927Y4308043D01*
X14085971Y4217732D01*
X14056619Y4116605D01*
X14024226Y4005898D01*
X13989146Y3886847D01*
X13951734Y3760688D01*
X13912346Y3628658D01*
X13646239Y2739262D01*
X13730608Y2456638D01*
X13738013Y2431920D01*
X13759551Y2361001D01*
X13779851Y2295528D01*
X13798079Y2238110D01*
X13813397Y2191358D01*
X13824970Y2157881D01*
X13831961Y2140288D01*
X13842399Y2121630D01*
X13886270Y2067807D01*
X13943768Y2024494D01*
X14011924Y1993586D01*
X14087769Y1976979D01*
X14089614Y1976767D01*
X14128365Y1970495D01*
X14162140Y1961951D01*
X14183813Y1952920D01*
X14209655Y1930663D01*
X14234488Y1890656D01*
X14245270Y1844824D01*
X14241851Y1797644D01*
X14224078Y1753598D01*
X14191799Y1717163D01*
X14177845Y1708022D01*
X14158066Y1701231D01*
X14129783Y1697916D01*
X14087637Y1697041D01*
X14042572Y1698662D01*
X13944980Y1714691D01*
X13853816Y1748268D01*
X13767925Y1799892D01*
X13686151Y1870061D01*
X13640622Y1919659D01*
X13601961Y1972910D01*
X13569317Y2032620D01*
X13540370Y2103051D01*
X13512797Y2188467D01*
X13508836Y2201881D01*
X13498678Y2236068D01*
X13483624Y2286589D01*
X13464052Y2352185D01*
X13440338Y2431597D01*
X13412857Y2523567D01*
X13381987Y2626837D01*
X13348104Y2740148D01*
X13311582Y2862241D01*
X13272800Y2991859D01*
X13232133Y3127741D01*
X13189957Y3268631D01*
X13146649Y3413269D01*
X13112453Y3527558D01*
X13070974Y3666459D01*
X13031337Y3799487D01*
X12993878Y3925499D01*
X12958935Y4043351D01*
X12926844Y4151898D01*
X12897943Y4249996D01*
X12872568Y4336503D01*
X12851056Y4410273D01*
X12833745Y4470163D01*
X12820970Y4515029D01*
X12813069Y4543727D01*
X12810378Y4555113D01*
X12811162Y4561718D01*
X12817941Y4585869D01*
X12829365Y4614699D01*
X12841758Y4636187D01*
X12874673Y4667838D01*
X12915910Y4685932D01*
X12961276Y4689759D01*
X13006577Y4678605D01*
X13047618Y4651758D01*
X13048858Y4650590D01*
X13055114Y4644012D01*
X13061314Y4635705D01*
X13067885Y4624380D01*
X13075258Y4608752D01*
X13083862Y4587531D01*
X13094125Y4559432D01*
X13106477Y4523167D01*
X13121349Y4477449D01*
X13139168Y4420991D01*
X13160364Y4352506D01*
X13185367Y4270706D01*
X13214605Y4174305D01*
X13248509Y4062015D01*
X13287508Y3932549D01*
X13288490Y3929285D01*
X13321910Y3818271D01*
X13353701Y3712670D01*
X13383425Y3613930D01*
X13410648Y3523503D01*
X13434933Y3442835D01*
X13455844Y3373376D01*
X13472944Y3316575D01*
X13485797Y3273881D01*
X13493968Y3246743D01*
X13497020Y3236610D01*
X13499786Y3243724D01*
X13507623Y3267883D01*
X13520086Y3307734D01*
X13536742Y3361850D01*
X13557159Y3428807D01*
X13580903Y3507178D01*
X13607542Y3595539D01*
X13636641Y3692462D01*
X13667769Y3796524D01*
X13700491Y3906299D01*
X13729828Y4004571D01*
X13762010Y4111639D01*
X13792591Y4212630D01*
X13821093Y4305991D01*
X13847032Y4390173D01*
X13869930Y4463624D01*
X13889304Y4524794D01*
X13904674Y4572130D01*
X13915560Y4604082D01*
X13921480Y4619100D01*
X13939204Y4643409D01*
X13975205Y4671711D01*
X14017493Y4688536D01*
X14059644Y4690561D01*
X14106612Y4674520D01*
G37*
G36*
X20995376Y4664764D02*
G01*
X21067976Y4664226D01*
X21125460Y4662924D01*
X21169885Y4660525D01*
X21203311Y4656697D01*
X21227795Y4651107D01*
X21245395Y4643424D01*
X21258170Y4633314D01*
X21268176Y4620445D01*
X21277473Y4604484D01*
X21280094Y4598947D01*
X21282620Y4591148D01*
X21284834Y4580357D01*
X21286756Y4565409D01*
X21288406Y4545143D01*
X21289805Y4518397D01*
X21290974Y4484006D01*
X21291932Y4440808D01*
X21292701Y4387642D01*
X21293301Y4323343D01*
X21293753Y4246749D01*
X21294076Y4156697D01*
X21294292Y4052025D01*
X21294421Y3931569D01*
X21294483Y3794167D01*
X21294499Y3638657D01*
X21294500Y3601348D01*
X21294512Y3446377D01*
X21294489Y3309286D01*
X21294368Y3188941D01*
X21294085Y3084206D01*
X21293576Y2993946D01*
X21292777Y2917024D01*
X21291626Y2852305D01*
X21290058Y2798652D01*
X21288009Y2754932D01*
X21285417Y2720007D01*
X21282217Y2692742D01*
X21278345Y2672002D01*
X21273739Y2656651D01*
X21268333Y2645552D01*
X21262066Y2637571D01*
X21254872Y2631572D01*
X21246689Y2626418D01*
X21237452Y2620975D01*
X21205488Y2608294D01*
X21152706Y2602843D01*
X21138480Y2602992D01*
X21108811Y2605937D01*
X21086749Y2614831D01*
X21063809Y2632507D01*
X21057580Y2638388D01*
X21034418Y2667700D01*
X21020166Y2697549D01*
X21019282Y2702749D01*
X21017459Y2728068D01*
X21015830Y2772028D01*
X21014401Y2834194D01*
X21013177Y2914134D01*
X21012162Y3011411D01*
X21011361Y3125594D01*
X21010780Y3256246D01*
X21010424Y3402935D01*
X21010296Y3565226D01*
X21010243Y4397561D01*
X20824753Y4393309D01*
X20810791Y4392985D01*
X20749329Y4391387D01*
X20703087Y4389589D01*
X20668672Y4387164D01*
X20642693Y4383686D01*
X20621758Y4378725D01*
X20602474Y4371856D01*
X20581449Y4362651D01*
X20528199Y4332804D01*
X20468999Y4281238D01*
X20424035Y4216806D01*
X20398369Y4168627D01*
X20393551Y3431487D01*
X20392696Y3303911D01*
X20391821Y3183218D01*
X20390959Y3079259D01*
X20390075Y2990717D01*
X20389129Y2916273D01*
X20388086Y2854609D01*
X20386907Y2804407D01*
X20385555Y2764349D01*
X20383992Y2733116D01*
X20382181Y2709391D01*
X20380084Y2691854D01*
X20377665Y2679188D01*
X20374885Y2670074D01*
X20371707Y2663194D01*
X20369102Y2658651D01*
X20340460Y2627127D01*
X20299620Y2608762D01*
X20245009Y2602807D01*
X20235640Y2602879D01*
X20204571Y2605590D01*
X20181667Y2614455D01*
X20158043Y2632507D01*
X20151814Y2638388D01*
X20128652Y2667700D01*
X20114400Y2697549D01*
X20112660Y2712325D01*
X20110992Y2744990D01*
X20109518Y2793245D01*
X20108239Y2855186D01*
X20107153Y2928915D01*
X20106263Y3012530D01*
X20105566Y3104130D01*
X20105065Y3201815D01*
X20104759Y3303684D01*
X20104648Y3407837D01*
X20104732Y3512372D01*
X20105011Y3615389D01*
X20105486Y3714988D01*
X20106156Y3809268D01*
X20107022Y3896327D01*
X20108084Y3974265D01*
X20109342Y4041183D01*
X20110797Y4095177D01*
X20112447Y4134350D01*
X20114295Y4156798D01*
X20132943Y4241606D01*
X20170321Y4337061D01*
X20222487Y4424187D01*
X20287703Y4500993D01*
X20364235Y4565490D01*
X20450345Y4615688D01*
X20544297Y4649596D01*
X20551439Y4651330D01*
X20573893Y4655510D01*
X20601799Y4658778D01*
X20637460Y4661232D01*
X20683179Y4662971D01*
X20741258Y4664092D01*
X20814000Y4664692D01*
X20903709Y4664871D01*
X20905602Y4664871D01*
X20995376Y4664764D01*
G37*
G36*
X18926867Y3670653D02*
G01*
X18927168Y3608863D01*
X18927644Y3493180D01*
X18927817Y3394303D01*
X18927574Y3310563D01*
X18926805Y3240294D01*
X18925397Y3181828D01*
X18923237Y3133497D01*
X18920215Y3093633D01*
X18916216Y3060570D01*
X18911130Y3032639D01*
X18904845Y3008173D01*
X18897247Y2985504D01*
X18888226Y2962965D01*
X18877668Y2938889D01*
X18876889Y2937155D01*
X18828345Y2852372D01*
X18764698Y2776626D01*
X18688761Y2711950D01*
X18603344Y2660377D01*
X18511258Y2623937D01*
X18415316Y2604664D01*
X18321602Y2600635D01*
X18214694Y2611537D01*
X18115841Y2639617D01*
X18025555Y2684720D01*
X17944349Y2746693D01*
X17922178Y2767385D01*
X17901422Y2789102D01*
X17889729Y2807285D01*
X17883945Y2827291D01*
X17880918Y2854476D01*
X17881376Y2893641D01*
X17895185Y2941290D01*
X17923367Y2977115D01*
X17964631Y2999671D01*
X18017685Y3007511D01*
X18023083Y3007477D01*
X18055157Y3004802D01*
X18082484Y2995944D01*
X18110972Y2978215D01*
X18146532Y2948929D01*
X18198347Y2913217D01*
X18262918Y2889880D01*
X18337660Y2882246D01*
X18371226Y2883790D01*
X18445400Y2899783D01*
X18510699Y2932746D01*
X18566355Y2982216D01*
X18611602Y3047731D01*
X18644651Y3108687D01*
X18647757Y3308630D01*
X18650864Y3508573D01*
X18243053Y3508609D01*
X18161453Y3508636D01*
X18076121Y3508767D01*
X18006723Y3509083D01*
X17951410Y3509666D01*
X17908334Y3510597D01*
X17875647Y3511959D01*
X17851500Y3513833D01*
X17834045Y3516302D01*
X17821433Y3519446D01*
X17811817Y3523349D01*
X17803346Y3528092D01*
X17796878Y3532142D01*
X17781890Y3543224D01*
X17770009Y3556354D01*
X17760880Y3573687D01*
X17754144Y3597375D01*
X17749445Y3629569D01*
X17746425Y3672423D01*
X17744728Y3728090D01*
X17744206Y3778376D01*
X18021428Y3778376D01*
X18336146Y3778376D01*
X18650864Y3778376D01*
X18647757Y3978319D01*
X18647282Y4008039D01*
X18646092Y4068626D01*
X18644602Y4114276D01*
X18642482Y4148066D01*
X18639400Y4173075D01*
X18635024Y4192380D01*
X18629023Y4209059D01*
X18621066Y4226190D01*
X18596307Y4268625D01*
X18546687Y4325723D01*
X18486713Y4368450D01*
X18418770Y4395260D01*
X18345248Y4404610D01*
X18293815Y4402075D01*
X18234500Y4389126D01*
X18181788Y4363123D01*
X18129686Y4321763D01*
X18099721Y4292728D01*
X18075681Y4265006D01*
X18057633Y4236442D01*
X18044651Y4203963D01*
X18035812Y4164500D01*
X18030193Y4114983D01*
X18026870Y4052340D01*
X18024918Y3973501D01*
X18021428Y3778376D01*
X17744206Y3778376D01*
X17743995Y3798721D01*
X17743870Y3886470D01*
X17744196Y3973956D01*
X17745387Y4053828D01*
X17747792Y4119531D01*
X17751766Y4173731D01*
X17757663Y4219093D01*
X17765838Y4258280D01*
X17776644Y4293957D01*
X17790438Y4328790D01*
X17807572Y4365443D01*
X17834520Y4412691D01*
X17890877Y4485385D01*
X17959718Y4550929D01*
X18037234Y4606341D01*
X18119616Y4648642D01*
X18203052Y4674849D01*
X18240251Y4680256D01*
X18300399Y4683335D01*
X18366872Y4682043D01*
X18433326Y4676742D01*
X18493417Y4667794D01*
X18540804Y4655562D01*
X18556268Y4649821D01*
X18646338Y4604798D01*
X18728100Y4543981D01*
X18799355Y4469600D01*
X18857908Y4383887D01*
X18901561Y4289074D01*
X18902235Y4287201D01*
X18906895Y4273876D01*
X18910850Y4260846D01*
X18914166Y4246480D01*
X18916910Y4229149D01*
X18919148Y4207220D01*
X18920948Y4179065D01*
X18922375Y4143052D01*
X18923498Y4097551D01*
X18924382Y4040931D01*
X18925094Y3971562D01*
X18925701Y3887813D01*
X18926270Y3788053D01*
X18926319Y3778376D01*
X18926867Y3670653D01*
G37*
G36*
X22896821Y3670653D02*
G01*
X22897123Y3608863D01*
X22897598Y3493180D01*
X22897771Y3394303D01*
X22897529Y3310563D01*
X22896760Y3240294D01*
X22895351Y3181828D01*
X22893192Y3133497D01*
X22890169Y3093633D01*
X22886171Y3060570D01*
X22881085Y3032639D01*
X22874799Y3008173D01*
X22867202Y2985504D01*
X22858180Y2962965D01*
X22847623Y2938889D01*
X22846843Y2937155D01*
X22798299Y2852372D01*
X22734653Y2776626D01*
X22658715Y2711950D01*
X22573298Y2660377D01*
X22481213Y2623937D01*
X22385271Y2604664D01*
X22291556Y2600635D01*
X22184648Y2611537D01*
X22085795Y2639617D01*
X21995509Y2684720D01*
X21914304Y2746693D01*
X21892132Y2767385D01*
X21871377Y2789102D01*
X21859683Y2807285D01*
X21853899Y2827291D01*
X21850872Y2854476D01*
X21851331Y2893641D01*
X21865139Y2941290D01*
X21893322Y2977115D01*
X21934586Y2999671D01*
X21987639Y3007511D01*
X21993038Y3007477D01*
X22025112Y3004802D01*
X22052438Y2995944D01*
X22080927Y2978215D01*
X22116487Y2948929D01*
X22168302Y2913217D01*
X22232873Y2889880D01*
X22307614Y2882246D01*
X22341181Y2883790D01*
X22415355Y2899783D01*
X22480653Y2932746D01*
X22536309Y2982216D01*
X22581556Y3047731D01*
X22614605Y3108687D01*
X22617712Y3308630D01*
X22620819Y3508573D01*
X22213008Y3508609D01*
X22131408Y3508636D01*
X22046075Y3508767D01*
X21976677Y3509083D01*
X21921364Y3509666D01*
X21878288Y3510597D01*
X21845601Y3511959D01*
X21821454Y3513833D01*
X21803999Y3516302D01*
X21791388Y3519446D01*
X21781771Y3523349D01*
X21773301Y3528092D01*
X21766833Y3532142D01*
X21751844Y3543224D01*
X21739964Y3556354D01*
X21730834Y3573687D01*
X21724098Y3597375D01*
X21719399Y3629569D01*
X21716380Y3672423D01*
X21714682Y3728090D01*
X21714160Y3778376D01*
X21991383Y3778376D01*
X22306101Y3778376D01*
X22620819Y3778376D01*
X22617712Y3978319D01*
X22617236Y4008039D01*
X22616046Y4068626D01*
X22614557Y4114276D01*
X22612437Y4148066D01*
X22609354Y4173075D01*
X22604979Y4192380D01*
X22598978Y4209059D01*
X22591021Y4226190D01*
X22566261Y4268625D01*
X22516642Y4325723D01*
X22456667Y4368450D01*
X22388725Y4395260D01*
X22315203Y4404610D01*
X22263769Y4402075D01*
X22204455Y4389126D01*
X22151743Y4363123D01*
X22099640Y4321763D01*
X22069675Y4292728D01*
X22045636Y4265006D01*
X22027587Y4236442D01*
X22014605Y4203963D01*
X22005767Y4164500D01*
X22000148Y4114983D01*
X21996824Y4052340D01*
X21994873Y3973501D01*
X21991383Y3778376D01*
X21714160Y3778376D01*
X21713949Y3798721D01*
X21713824Y3886470D01*
X21714151Y3973956D01*
X21715341Y4053828D01*
X21717746Y4119531D01*
X21721720Y4173731D01*
X21727617Y4219093D01*
X21735792Y4258280D01*
X21746599Y4293957D01*
X21760392Y4328790D01*
X21777527Y4365443D01*
X21804475Y4412691D01*
X21860831Y4485385D01*
X21929672Y4550929D01*
X22007189Y4606341D01*
X22089570Y4648642D01*
X22173006Y4674849D01*
X22210206Y4680256D01*
X22270354Y4683335D01*
X22336826Y4682043D01*
X22403280Y4676742D01*
X22463372Y4667794D01*
X22510758Y4655562D01*
X22526222Y4649821D01*
X22616293Y4604798D01*
X22698054Y4543981D01*
X22769310Y4469600D01*
X22827862Y4383887D01*
X22871516Y4289074D01*
X22872189Y4287201D01*
X22876850Y4273876D01*
X22880804Y4260846D01*
X22884120Y4246480D01*
X22886864Y4229149D01*
X22889103Y4207220D01*
X22890902Y4179065D01*
X22892330Y4143052D01*
X22893452Y4097551D01*
X22894336Y4040931D01*
X22895048Y3971562D01*
X22895655Y3887813D01*
X22896224Y3788053D01*
X22896273Y3778376D01*
X22896821Y3670653D01*
G37*
G36*
X17321893Y4387491D02*
G01*
X17322550Y4327126D01*
X17323089Y4255989D01*
X17323523Y4173135D01*
X17323862Y4077621D01*
X17324118Y3968502D01*
X17324302Y3844833D01*
X17324425Y3705670D01*
X17324499Y3550069D01*
X17324535Y3377085D01*
X17324545Y3185774D01*
X17324547Y3112514D01*
X17324567Y2924897D01*
X17324578Y2755284D01*
X17324544Y2602748D01*
X17324429Y2466362D01*
X17324197Y2345196D01*
X17323813Y2238324D01*
X17323239Y2144818D01*
X17322441Y2063749D01*
X17321381Y1994191D01*
X17320025Y1935215D01*
X17318336Y1885893D01*
X17316279Y1845299D01*
X17313816Y1812503D01*
X17310913Y1786578D01*
X17307533Y1766597D01*
X17303640Y1751632D01*
X17299198Y1740754D01*
X17294171Y1733036D01*
X17288524Y1727550D01*
X17282220Y1723369D01*
X17275223Y1719565D01*
X17267498Y1715209D01*
X17235534Y1702527D01*
X17182752Y1697077D01*
X17168526Y1697226D01*
X17138856Y1700170D01*
X17116795Y1709065D01*
X17093855Y1726741D01*
X17087625Y1732622D01*
X17064463Y1761934D01*
X17050212Y1791783D01*
X17048135Y1806153D01*
X17045910Y1839809D01*
X17044010Y1889934D01*
X17042468Y1955003D01*
X17041320Y2033489D01*
X17040599Y2123864D01*
X17040342Y2224602D01*
X17040288Y2622079D01*
X16836918Y2622079D01*
X16809756Y2622121D01*
X16737567Y2622827D01*
X16680815Y2624536D01*
X16636617Y2627415D01*
X16602087Y2631631D01*
X16574342Y2637353D01*
X16495256Y2664554D01*
X16407745Y2712225D01*
X16329530Y2774521D01*
X16262345Y2849451D01*
X16207928Y2935026D01*
X16168014Y3029256D01*
X16144340Y3130151D01*
X16142787Y3147001D01*
X16140947Y3183750D01*
X16139275Y3235686D01*
X16137813Y3300532D01*
X16136603Y3376010D01*
X16135687Y3459845D01*
X16135106Y3549759D01*
X16134904Y3643475D01*
X16135032Y3718107D01*
X16135538Y3808991D01*
X16136388Y3894265D01*
X16137541Y3971653D01*
X16138955Y4038877D01*
X16140587Y4093660D01*
X16142396Y4133726D01*
X16143713Y4149355D01*
X16423785Y4149355D01*
X16423785Y3643475D01*
X16423785Y3137595D01*
X16447089Y3087541D01*
X16447556Y3086543D01*
X16488945Y3019595D01*
X16543539Y2965044D01*
X16608814Y2925423D01*
X16613557Y2923305D01*
X16634617Y2914454D01*
X16654432Y2907884D01*
X16676422Y2903156D01*
X16704005Y2899830D01*
X16740601Y2897467D01*
X16789627Y2895629D01*
X16854502Y2893876D01*
X17040288Y2889211D01*
X17040288Y3643386D01*
X17040288Y4397561D01*
X16854799Y4393223D01*
X16837742Y4392820D01*
X16777089Y4391202D01*
X16731469Y4389375D01*
X16697459Y4386900D01*
X16671640Y4383339D01*
X16650589Y4378255D01*
X16630886Y4371210D01*
X16609110Y4361764D01*
X16608620Y4361543D01*
X16543065Y4321529D01*
X16488400Y4266661D01*
X16447089Y4199409D01*
X16423785Y4149355D01*
X16143713Y4149355D01*
X16144340Y4156798D01*
X16162989Y4241606D01*
X16200367Y4337061D01*
X16252532Y4424187D01*
X16317749Y4500993D01*
X16394280Y4565490D01*
X16480390Y4615688D01*
X16574342Y4649596D01*
X16581485Y4651330D01*
X16603939Y4655510D01*
X16631845Y4658778D01*
X16667505Y4661232D01*
X16713224Y4662971D01*
X16771303Y4664092D01*
X16844046Y4664692D01*
X16933755Y4664871D01*
X16935648Y4664871D01*
X17025422Y4664764D01*
X17098021Y4664226D01*
X17155505Y4662924D01*
X17199931Y4660525D01*
X17233357Y4656697D01*
X17257841Y4651107D01*
X17275441Y4643424D01*
X17288215Y4633314D01*
X17298222Y4620445D01*
X17307519Y4604484D01*
X17308835Y4601864D01*
X17311057Y4595949D01*
X17313060Y4587761D01*
X17314855Y4576356D01*
X17316453Y4560790D01*
X17317866Y4540119D01*
X17319105Y4513398D01*
X17320182Y4479682D01*
X17321107Y4438028D01*
X17321736Y4397561D01*
X17321893Y4387491D01*
G37*
G36*
X24490937Y4387491D02*
G01*
X24491594Y4327126D01*
X24492133Y4255989D01*
X24492567Y4173135D01*
X24492906Y4077621D01*
X24493162Y3968502D01*
X24493346Y3844833D01*
X24493469Y3705670D01*
X24493543Y3550069D01*
X24493579Y3377085D01*
X24493589Y3185774D01*
X24493591Y3112514D01*
X24493611Y2924897D01*
X24493622Y2755284D01*
X24493588Y2602748D01*
X24493473Y2466362D01*
X24493241Y2345196D01*
X24492857Y2238324D01*
X24492283Y2144818D01*
X24491485Y2063749D01*
X24490425Y1994191D01*
X24489069Y1935215D01*
X24487380Y1885893D01*
X24485323Y1845299D01*
X24482860Y1812503D01*
X24479957Y1786578D01*
X24476577Y1766597D01*
X24472684Y1751632D01*
X24468242Y1740754D01*
X24463215Y1733036D01*
X24457568Y1727550D01*
X24451264Y1723369D01*
X24444267Y1719565D01*
X24436542Y1715209D01*
X24404578Y1702527D01*
X24351796Y1697077D01*
X24337570Y1697226D01*
X24307900Y1700170D01*
X24285839Y1709065D01*
X24262899Y1726741D01*
X24256669Y1732622D01*
X24233507Y1761934D01*
X24219256Y1791783D01*
X24217179Y1806153D01*
X24214954Y1839809D01*
X24213054Y1889934D01*
X24211512Y1955003D01*
X24210364Y2033489D01*
X24209643Y2123864D01*
X24209386Y2224602D01*
X24209332Y2622079D01*
X24005962Y2622079D01*
X23978800Y2622121D01*
X23906611Y2622827D01*
X23849859Y2624536D01*
X23805661Y2627415D01*
X23771131Y2631631D01*
X23743386Y2637353D01*
X23664300Y2664554D01*
X23576789Y2712225D01*
X23498574Y2774521D01*
X23431389Y2849451D01*
X23376972Y2935026D01*
X23337058Y3029256D01*
X23313384Y3130151D01*
X23311831Y3147001D01*
X23309991Y3183750D01*
X23308319Y3235686D01*
X23306857Y3300532D01*
X23305647Y3376010D01*
X23304731Y3459845D01*
X23304150Y3549759D01*
X23303948Y3643475D01*
X23304076Y3718107D01*
X23304582Y3808991D01*
X23305432Y3894265D01*
X23306585Y3971653D01*
X23307999Y4038877D01*
X23309631Y4093660D01*
X23311440Y4133726D01*
X23312757Y4149355D01*
X23592829Y4149355D01*
X23592829Y3643475D01*
X23592829Y3137595D01*
X23616133Y3087541D01*
X23616600Y3086543D01*
X23657989Y3019595D01*
X23712583Y2965044D01*
X23777858Y2925423D01*
X23782601Y2923305D01*
X23803661Y2914454D01*
X23823476Y2907884D01*
X23845466Y2903156D01*
X23873049Y2899830D01*
X23909645Y2897467D01*
X23958671Y2895629D01*
X24023546Y2893876D01*
X24209332Y2889211D01*
X24209332Y3643386D01*
X24209332Y4397561D01*
X24023843Y4393223D01*
X24006786Y4392820D01*
X23946133Y4391202D01*
X23900513Y4389375D01*
X23866503Y4386900D01*
X23840684Y4383339D01*
X23819633Y4378255D01*
X23799930Y4371210D01*
X23778154Y4361764D01*
X23777664Y4361543D01*
X23712109Y4321529D01*
X23657444Y4266661D01*
X23616133Y4199409D01*
X23592829Y4149355D01*
X23312757Y4149355D01*
X23313384Y4156798D01*
X23332033Y4241606D01*
X23369411Y4337061D01*
X23421576Y4424187D01*
X23486793Y4500993D01*
X23563324Y4565490D01*
X23649434Y4615688D01*
X23743386Y4649596D01*
X23750529Y4651330D01*
X23772983Y4655510D01*
X23800889Y4658778D01*
X23836549Y4661232D01*
X23882268Y4662971D01*
X23940347Y4664092D01*
X24013090Y4664692D01*
X24102799Y4664871D01*
X24104692Y4664871D01*
X24194466Y4664764D01*
X24267065Y4664226D01*
X24324549Y4662924D01*
X24368975Y4660525D01*
X24402401Y4656697D01*
X24426885Y4651107D01*
X24444485Y4643424D01*
X24457259Y4633314D01*
X24467266Y4620445D01*
X24476563Y4604484D01*
X24477879Y4601864D01*
X24480101Y4595949D01*
X24482104Y4587761D01*
X24483899Y4576356D01*
X24485497Y4560790D01*
X24486910Y4540119D01*
X24488149Y4513398D01*
X24489226Y4479682D01*
X24490151Y4438028D01*
X24490780Y4397561D01*
X24490937Y4387491D01*
G37*
G36*
X15551674Y5589805D02*
G01*
X15582171Y5586988D01*
X15604731Y5578106D01*
X15628072Y5560209D01*
X15634301Y5554328D01*
X15657464Y5525016D01*
X15671715Y5495167D01*
X15672723Y5486391D01*
X15674017Y5458654D01*
X15675212Y5413968D01*
X15676309Y5353673D01*
X15677308Y5279111D01*
X15678208Y5191624D01*
X15679009Y5092553D01*
X15679712Y4983240D01*
X15680316Y4865026D01*
X15680822Y4739253D01*
X15681230Y4607262D01*
X15681538Y4470395D01*
X15681749Y4329994D01*
X15681860Y4187399D01*
X15681874Y4043953D01*
X15681789Y3900997D01*
X15681605Y3759872D01*
X15681322Y3621921D01*
X15680942Y3488483D01*
X15680462Y3360902D01*
X15679885Y3240519D01*
X15679208Y3128675D01*
X15678433Y3026711D01*
X15677560Y2935970D01*
X15676588Y2857792D01*
X15675518Y2793519D01*
X15674349Y2744494D01*
X15673081Y2712056D01*
X15671715Y2697549D01*
X15669430Y2690741D01*
X15652305Y2660011D01*
X15628072Y2632507D01*
X15620832Y2626316D01*
X15598602Y2611289D01*
X15574667Y2604436D01*
X15540313Y2602807D01*
X15534696Y2602870D01*
X15480939Y2611218D01*
X15439219Y2633056D01*
X15411082Y2667612D01*
X15410240Y2669517D01*
X15407898Y2678373D01*
X15405825Y2692805D01*
X15404001Y2713953D01*
X15402404Y2742959D01*
X15401013Y2780965D01*
X15399808Y2829111D01*
X15398766Y2888540D01*
X15397867Y2960392D01*
X15397089Y3045808D01*
X15396412Y3145931D01*
X15395814Y3261901D01*
X15395273Y3394860D01*
X15394769Y3545950D01*
X15392156Y4397552D01*
X15206871Y4393304D01*
X15193281Y4392990D01*
X15131768Y4391391D01*
X15085489Y4389594D01*
X15051048Y4387171D01*
X15025051Y4383693D01*
X15004103Y4378732D01*
X14984807Y4371861D01*
X14963771Y4362651D01*
X14897798Y4323991D01*
X14844335Y4272433D01*
X14803644Y4207170D01*
X14775888Y4149355D01*
X14775826Y3441123D01*
X14775733Y3325504D01*
X14775373Y3189867D01*
X14774751Y3069379D01*
X14773875Y2964628D01*
X14772752Y2876204D01*
X14771390Y2804696D01*
X14769797Y2750691D01*
X14767980Y2714779D01*
X14765949Y2697549D01*
X14763664Y2690741D01*
X14746538Y2660011D01*
X14722306Y2632507D01*
X14716265Y2627317D01*
X14693603Y2611678D01*
X14669589Y2604519D01*
X14635339Y2602807D01*
X14628247Y2602886D01*
X14575315Y2610242D01*
X14535971Y2630095D01*
X14508642Y2663194D01*
X14508481Y2663490D01*
X14505334Y2670334D01*
X14502602Y2679282D01*
X14500257Y2691656D01*
X14498270Y2708775D01*
X14496610Y2731960D01*
X14495250Y2762531D01*
X14494159Y2801810D01*
X14493309Y2851116D01*
X14492670Y2911771D01*
X14492212Y2985094D01*
X14491908Y3072407D01*
X14491726Y3175030D01*
X14491639Y3294283D01*
X14491616Y3431487D01*
X14491630Y3534714D01*
X14491711Y3659254D01*
X14491888Y3766909D01*
X14492192Y3859055D01*
X14492650Y3937067D01*
X14493294Y4002320D01*
X14494150Y4056190D01*
X14495250Y4100052D01*
X14496623Y4135280D01*
X14498296Y4163251D01*
X14500300Y4185339D01*
X14502665Y4202920D01*
X14505418Y4217369D01*
X14508589Y4230061D01*
X14511849Y4241400D01*
X14549651Y4336579D01*
X14602817Y4423744D01*
X14669223Y4500761D01*
X14746742Y4565498D01*
X14833249Y4615821D01*
X14926618Y4649596D01*
X14934786Y4651568D01*
X14964400Y4656806D01*
X15001723Y4660586D01*
X15049640Y4663079D01*
X15111040Y4664451D01*
X15188808Y4664871D01*
X15391792Y4664871D01*
X15394587Y5081620D01*
X15395280Y5173184D01*
X15396197Y5262575D01*
X15397295Y5335734D01*
X15398635Y5394291D01*
X15400277Y5439876D01*
X15402282Y5474119D01*
X15404711Y5498651D01*
X15407624Y5515103D01*
X15411082Y5525104D01*
X15413106Y5528872D01*
X15442586Y5562266D01*
X15485503Y5582869D01*
X15540313Y5589909D01*
X15551674Y5589805D01*
G37*
G36*
X28346650Y4033077D02*
G01*
X28338225Y3986835D01*
X28333057Y3957885D01*
X28331420Y3947715D01*
X28336559Y3951056D01*
X28357156Y3965370D01*
X28392368Y3990156D01*
X28440983Y4024551D01*
X28501786Y4067692D01*
X28573565Y4118716D01*
X28655106Y4176762D01*
X28745196Y4240967D01*
X28842622Y4310467D01*
X28946169Y4384401D01*
X29054626Y4461905D01*
X29136107Y4520105D01*
X29241955Y4595558D01*
X29342408Y4666992D01*
X29436203Y4733519D01*
X29522078Y4794248D01*
X29598769Y4848292D01*
X29665015Y4894760D01*
X29719552Y4932762D01*
X29761118Y4961411D01*
X29788450Y4979816D01*
X29800286Y4987088D01*
X29801826Y4987662D01*
X29842079Y4995042D01*
X29888144Y4993328D01*
X29928087Y4982909D01*
X29930643Y4981335D01*
X29947656Y4967756D01*
X29977986Y4941664D01*
X30020391Y4904209D01*
X30073630Y4856539D01*
X30136462Y4799802D01*
X30207645Y4735146D01*
X30285938Y4663721D01*
X30370099Y4586675D01*
X30458888Y4505156D01*
X30551063Y4420314D01*
X30645383Y4333296D01*
X30740606Y4245251D01*
X30835492Y4157328D01*
X30928798Y4070675D01*
X31019283Y3986441D01*
X31105707Y3905774D01*
X31186827Y3829824D01*
X31261403Y3759738D01*
X31328193Y3696665D01*
X31385955Y3641753D01*
X31433450Y3596152D01*
X31443929Y3585918D01*
X31469434Y3561010D01*
X31492668Y3537474D01*
X31501909Y3526695D01*
X31503407Y3523269D01*
X31514516Y3474127D01*
X31510997Y3421367D01*
X31494188Y3372093D01*
X31465430Y3333404D01*
X31454410Y3327813D01*
X31425250Y3314613D01*
X31378926Y3294237D01*
X31316374Y3267083D01*
X31238534Y3233551D01*
X31155990Y3198173D01*
X31146344Y3194039D01*
X31040742Y3148947D01*
X30922666Y3098674D01*
X30793056Y3043619D01*
X30652848Y2984180D01*
X30502982Y2920757D01*
X30344396Y2853749D01*
X30178028Y2783554D01*
X30004817Y2710573D01*
X29825701Y2635203D01*
X29641618Y2557844D01*
X29594516Y2538064D01*
X29371783Y2444574D01*
X29167203Y2358785D01*
X28980077Y2280410D01*
X28809707Y2209163D01*
X28655395Y2144758D01*
X28516441Y2086908D01*
X28392148Y2035327D01*
X28281818Y1989729D01*
X28184751Y1949827D01*
X28100250Y1915334D01*
X28027615Y1885966D01*
X27966150Y1861434D01*
X27915155Y1841454D01*
X27873931Y1825738D01*
X27841781Y1814000D01*
X27818007Y1805954D01*
X27801909Y1801313D01*
X27792789Y1799791D01*
X27792480Y1799788D01*
X27737461Y1807427D01*
X27691265Y1829855D01*
X27658371Y1864902D01*
X27656257Y1869123D01*
X27647076Y1892953D01*
X27633142Y1933547D01*
X27615094Y1988763D01*
X27593572Y2056454D01*
X27569217Y2134476D01*
X27542667Y2220686D01*
X27514564Y2312937D01*
X27507474Y2336430D01*
X28266965Y2336430D01*
X28268688Y2337073D01*
X28285690Y2344024D01*
X28319555Y2358090D01*
X28368787Y2378642D01*
X28431892Y2405052D01*
X28507375Y2436689D01*
X28593741Y2472925D01*
X28689494Y2513130D01*
X28793141Y2556674D01*
X28903185Y2602930D01*
X29018133Y2651267D01*
X29136489Y2701056D01*
X29256758Y2751667D01*
X29377445Y2802473D01*
X29497055Y2852842D01*
X29614094Y2902147D01*
X29727066Y2949757D01*
X29834477Y2995043D01*
X29934832Y3037377D01*
X30026634Y3076129D01*
X30108391Y3110669D01*
X30178606Y3140368D01*
X30235786Y3164598D01*
X30278434Y3182728D01*
X30305055Y3194129D01*
X30314156Y3198173D01*
X30304951Y3197722D01*
X30277059Y3195594D01*
X30232426Y3191938D01*
X30173007Y3186930D01*
X30100758Y3180741D01*
X30017634Y3173547D01*
X29925591Y3165521D01*
X29826586Y3156837D01*
X29722574Y3147669D01*
X29615511Y3138191D01*
X29507353Y3128576D01*
X29400055Y3118999D01*
X29295574Y3109634D01*
X29195865Y3100653D01*
X29102884Y3092232D01*
X29018588Y3084545D01*
X28944931Y3077764D01*
X28883869Y3072063D01*
X28837360Y3067618D01*
X28807357Y3064601D01*
X28795818Y3063187D01*
X28794783Y3062428D01*
X28783647Y3049484D01*
X28762446Y3022278D01*
X28762253Y3022030D01*
X28731961Y2981892D01*
X28694126Y2930897D01*
X28650106Y2870871D01*
X28601260Y2803642D01*
X28548944Y2731035D01*
X28538695Y2716754D01*
X28486009Y2643386D01*
X28436503Y2574512D01*
X28391650Y2512178D01*
X28352921Y2458427D01*
X28321792Y2415304D01*
X28299734Y2384855D01*
X28288220Y2369123D01*
X28282250Y2361009D01*
X28270023Y2343159D01*
X28266965Y2336430D01*
X27507474Y2336430D01*
X27485547Y2409085D01*
X27456256Y2506986D01*
X27427331Y2604494D01*
X27399412Y2699466D01*
X27373140Y2789756D01*
X27349153Y2873220D01*
X27328093Y2947712D01*
X27325666Y2956506D01*
X27669428Y2956506D01*
X27673114Y2936639D01*
X27681479Y2902404D01*
X27693630Y2857349D01*
X27708673Y2805021D01*
X27716893Y2777303D01*
X27731355Y2729035D01*
X27743145Y2690341D01*
X27751218Y2664627D01*
X27754532Y2655298D01*
X27754705Y2655628D01*
X27757601Y2668428D01*
X27757721Y2669035D01*
X28093747Y2669035D01*
X28094692Y2669618D01*
X28104856Y2681672D01*
X28124599Y2707335D01*
X28152121Y2744206D01*
X28185625Y2789886D01*
X28223312Y2841974D01*
X28235845Y2859457D01*
X28271863Y2910309D01*
X28302539Y2954526D01*
X28326173Y2989600D01*
X28341064Y3013020D01*
X28345512Y3022278D01*
X28345205Y3022480D01*
X28332051Y3023230D01*
X28304742Y3021905D01*
X28269024Y3019065D01*
X28230639Y3015275D01*
X28195334Y3011095D01*
X28168852Y3007089D01*
X28156938Y3003818D01*
X28155125Y2998617D01*
X28150258Y2978274D01*
X28149739Y2976107D01*
X28141853Y2939104D01*
X28132206Y2891119D01*
X28121536Y2835658D01*
X28114622Y2798470D01*
X28105547Y2747834D01*
X28098659Y2707078D01*
X28094534Y2679660D01*
X28093747Y2669035D01*
X27757721Y2669035D01*
X27763250Y2697072D01*
X27770923Y2737783D01*
X27779892Y2786784D01*
X27780610Y2790758D01*
X27790082Y2843040D01*
X27798642Y2890061D01*
X27805376Y2926809D01*
X27809369Y2948272D01*
X27815091Y2978274D01*
X27744973Y2971727D01*
X27744624Y2971694D01*
X27708743Y2967688D01*
X27681813Y2963475D01*
X27669638Y2959961D01*
X27669428Y2956506D01*
X27325666Y2956506D01*
X27310599Y3011089D01*
X27297310Y3061206D01*
X27288868Y3095917D01*
X27285911Y3113079D01*
X27286688Y3118187D01*
X27292768Y3138921D01*
X27305021Y3174200D01*
X27323610Y3224433D01*
X27348694Y3290027D01*
X27370626Y3346244D01*
X28217566Y3346244D01*
X28264792Y3347493D01*
X28267188Y3347567D01*
X28295017Y3349097D01*
X28334962Y3352021D01*
X28382941Y3355957D01*
X28434867Y3360528D01*
X28486657Y3365353D01*
X28534225Y3370054D01*
X28573487Y3374251D01*
X28600359Y3377565D01*
X28610756Y3379617D01*
X28611021Y3380023D01*
X28617442Y3389167D01*
X28632435Y3410203D01*
X28644313Y3426798D01*
X29051089Y3426798D01*
X29051988Y3424452D01*
X29066164Y3420626D01*
X29092340Y3419690D01*
X29097530Y3419972D01*
X29122792Y3421862D01*
X29165798Y3425368D01*
X29224723Y3430328D01*
X29297744Y3436580D01*
X29383039Y3443962D01*
X29478783Y3452310D01*
X29583153Y3461462D01*
X29694327Y3471256D01*
X29810480Y3481529D01*
X29929790Y3492118D01*
X30050433Y3502862D01*
X30170585Y3513597D01*
X30288424Y3524162D01*
X30402126Y3534393D01*
X30509868Y3544128D01*
X30609826Y3553204D01*
X30700178Y3561459D01*
X30779099Y3568731D01*
X30844766Y3574857D01*
X30895357Y3579675D01*
X30929047Y3583021D01*
X30944014Y3584734D01*
X30945934Y3585918D01*
X30944689Y3591605D01*
X30936956Y3602647D01*
X30921860Y3619894D01*
X30898522Y3644201D01*
X30866067Y3676419D01*
X30823616Y3717400D01*
X30770293Y3767998D01*
X30705220Y3829064D01*
X30627521Y3901451D01*
X30536319Y3986011D01*
X30430736Y4083597D01*
X30362578Y4146484D01*
X30276990Y4225342D01*
X30196726Y4299170D01*
X30123015Y4366845D01*
X30057084Y4427246D01*
X30000158Y4479250D01*
X29953464Y4521736D01*
X29918230Y4553582D01*
X29895682Y4573665D01*
X29887048Y4580863D01*
X29886788Y4580731D01*
X29878401Y4570635D01*
X29859351Y4545662D01*
X29830831Y4507456D01*
X29794031Y4457663D01*
X29750141Y4397927D01*
X29700354Y4329891D01*
X29645861Y4255200D01*
X29587852Y4175498D01*
X29548340Y4121098D01*
X29527518Y4092431D01*
X29466051Y4007641D01*
X29404642Y3922774D01*
X29344482Y3839474D01*
X29286762Y3759385D01*
X29232672Y3684151D01*
X29183405Y3615418D01*
X29140151Y3554828D01*
X29104102Y3504027D01*
X29076447Y3464659D01*
X29058380Y3438368D01*
X29051089Y3426798D01*
X28644313Y3426798D01*
X28656499Y3443823D01*
X28690129Y3490719D01*
X28733822Y3551586D01*
X28788075Y3627113D01*
X28853385Y3717995D01*
X28930248Y3824924D01*
X29143171Y4121098D01*
X29083380Y4078705D01*
X29067933Y4067711D01*
X29035190Y4044336D01*
X28989282Y4011520D01*
X28932203Y3970688D01*
X28865945Y3923268D01*
X28792502Y3870684D01*
X28713867Y3814363D01*
X28632032Y3755732D01*
X28240475Y3475152D01*
X28229020Y3410698D01*
X28217566Y3346244D01*
X27370626Y3346244D01*
X27380436Y3371389D01*
X27418998Y3468928D01*
X27460883Y3573885D01*
X27815072Y3573885D01*
X27815614Y3574215D01*
X27827071Y3582360D01*
X27850082Y3599115D01*
X27880470Y3621442D01*
X27943929Y3668235D01*
X27976027Y3839822D01*
X27983826Y3881358D01*
X27994321Y3936752D01*
X28003353Y3983847D01*
X28010153Y4018651D01*
X28013955Y4037169D01*
X28016405Y4049263D01*
X28016619Y4056706D01*
X28012677Y4052454D01*
X28004005Y4035261D01*
X27990031Y4003880D01*
X27970183Y3957063D01*
X27943886Y3893564D01*
X27910569Y3812136D01*
X27888723Y3758444D01*
X27864486Y3698610D01*
X27843984Y3647695D01*
X27828235Y3608240D01*
X27818258Y3582790D01*
X27815072Y3573885D01*
X27460883Y3573885D01*
X27464541Y3583052D01*
X27517227Y3714168D01*
X27577217Y3862684D01*
X27644673Y4029007D01*
X27719757Y4213546D01*
X27802631Y4416709D01*
X27823441Y4467659D01*
X27886070Y4620854D01*
X27946655Y4768849D01*
X28004718Y4910486D01*
X28059781Y5044605D01*
X28111366Y5170050D01*
X28158995Y5285660D01*
X28202190Y5390278D01*
X28240472Y5482746D01*
X28273364Y5561904D01*
X28300388Y5626595D01*
X28321064Y5675661D01*
X28334916Y5707941D01*
X28341465Y5722279D01*
X28342561Y5724238D01*
X28377212Y5765280D01*
X28424252Y5791455D01*
X28479949Y5800649D01*
X28489008Y5800396D01*
X28541942Y5788589D01*
X28587688Y5761547D01*
X28621994Y5722596D01*
X28640609Y5675057D01*
X28640797Y5673407D01*
X28639581Y5653082D01*
X28634502Y5613815D01*
X28625532Y5555445D01*
X28612644Y5477815D01*
X28595810Y5380764D01*
X28575002Y5264133D01*
X28550193Y5127763D01*
X28521355Y4971494D01*
X28488462Y4795168D01*
X28473592Y4715776D01*
X28450108Y4590211D01*
X28427946Y4471509D01*
X28407384Y4361159D01*
X28388697Y4260651D01*
X28372162Y4171475D01*
X28358054Y4095120D01*
X28350993Y4056706D01*
X28346650Y4033077D01*
G37*
%TD*%
D13*
%TO.C,H3*%
X41000000Y93000000D03*
%TD*%
%TO.C,H4*%
X2000000Y93000000D03*
%TD*%
%TO.C,H2*%
X41000000Y2000000D03*
%TD*%
%TO.C,H1*%
X2000000Y2000000D03*
%TD*%
D14*
%TO.C,J2*%
X38070000Y67110000D03*
X38070000Y72890000D03*
%TD*%
%LPD*%
M02*
