M48
; DRILL file {KiCad 9.0.6} date 2026-04-07T17:03:57-0400
; FORMAT={-:-/ absolute / metric / decimal}
; #@! TF.CreationDate,2026-04-07T17:03:57-04:00
; #@! TF.GenerationSoftware,Kicad,Pcbnew,9.0.6
; #@! TF.FileFunction,Plated,1,4,PTH
FMAT,2
METRIC
; #@! TA.AperFunction,Plated,PTH,ViaDrill
T1C0.250
; #@! TA.AperFunction,Plated,PTH,ViaDrill
T2C0.400
; #@! TA.AperFunction,Plated,PTH,ViaDrill
T3C0.500
%
G90
G05
T1
X102.75Y-68.5
X102.9Y-133.3
X103.23Y-116.97
X104.0Y-59.0
X104.0Y-144.0
X104.08Y-85.3
X104.2Y-112.25
X104.2Y-126.6
X104.2Y-133.55
X104.25Y-83.5
X104.4Y-140.4
X104.7Y-82.1
X104.8Y-118.7
X105.065Y-68.914
X105.1Y-80.75
X105.27Y-107.29
X105.5Y-115.5
X105.59Y-78.442
X106.0Y-110.8
X106.3Y-63.3
X106.36Y-103.82
X106.45Y-80.35
X106.5Y-70.6
X106.73Y-72.34
X106.8Y-71.5
X106.9Y-123.75
X107.0Y-108.7
X107.0Y-145.0
X107.0Y-147.0
X107.2Y-118.7
X107.3Y-74.75
X107.302Y-78.001
X107.39Y-125.0
X107.4Y-139.5
X107.8Y-79.6
X108.0Y-68.82
X108.2Y-64.9
X108.2Y-81.1
X108.2Y-84.3
X108.3Y-114.8
X108.3Y-116.0
X108.347Y-125.675
X108.62Y-79.75
X109.0Y-56.0
X109.0Y-118.7
X109.1Y-123.5
X109.283Y-71.142
X109.3Y-69.0
X109.4Y-82.5
X109.5Y-108.7
X109.6Y-90.7
X109.6Y-113.0
X109.9Y-77.3
X109.95Y-118.35
X110.0Y-139.5
X110.15Y-89.0
X110.8Y-107.5
X110.82Y-148.04
X110.97Y-104.27
X111.0Y-69.787
X111.0Y-88.2
X111.0Y-127.1
X111.05Y-118.35
X111.09Y-102.94
X111.15Y-120.45
X111.2Y-82.9
X111.2Y-105.19
X111.2Y-106.3
X111.495Y-72.95
X111.7Y-66.7
X111.9Y-62.3
X111.9Y-84.8
X111.95Y-134.42
X112.1Y-108.7
X112.13Y-145.13
X112.3Y-73.7
X112.65Y-131.75
X112.7Y-128.0
X112.75Y-69.75
X112.8Y-75.7
X112.836Y-74.314
X113.1Y-103.0
X113.3Y-127.2
X113.4Y-78.0
X113.43Y-106.52
X113.5Y-78.9
X113.5Y-94.0
X113.6Y-119.55
X113.69Y-116.81
X113.7Y-69.65
X113.7Y-117.8
X113.7Y-121.5
X113.7Y-128.4
X113.7Y-134.1
X113.875Y-79.6
X114.0Y-104.9
X114.0Y-105.8
X114.1Y-68.85
X114.1Y-73.4
X114.5Y-91.0
X114.511Y-93.0
X114.8Y-63.3
X114.8Y-77.8
X114.8Y-80.2
X115.0Y-56.0
X115.0Y-64.5
X115.0Y-76.55
X115.0Y-81.6
X115.0Y-89.5
X115.0Y-122.5
X115.0Y-123.25
X115.0Y-124.0
X115.0Y-124.75
X115.0Y-125.5
X115.25Y-100.65
X115.4Y-86.6
X115.86Y-73.85
X115.9Y-122.5
X115.9Y-123.25
X115.9Y-124.0
X115.9Y-124.75
X115.9Y-125.5
X116.0Y-79.0
X116.0Y-119.1
X116.2Y-127.35
X116.45Y-74.4
X116.7Y-122.5
X116.7Y-123.25
X116.7Y-124.0
X116.7Y-124.75
X116.7Y-125.5
X117.2Y-77.8
X117.2Y-80.2
X117.4Y-88.6
X117.5Y-122.5
X117.5Y-123.25
X117.5Y-124.0
X117.5Y-124.75
X117.5Y-125.5
X117.6Y-113.3
X117.87Y-100.51
X118.0Y-65.95
X118.05Y-80.55
X118.15Y-78.825
X118.4Y-105.2
X118.4Y-122.5
X118.4Y-123.25
X118.4Y-124.0
X118.4Y-124.75
X118.4Y-125.5
X118.45Y-76.55
X118.566Y-79.585
X118.6Y-131.1
X118.6Y-131.9
X118.74Y-96.66
X118.8Y-72.33
X119.191Y-82.9
X119.2Y-70.55
X119.37Y-93.19
X119.45Y-71.87
X119.45Y-85.3
X119.6Y-121.6
X120.02Y-134.47
X120.1Y-82.9
X120.125Y-72.38
X120.35Y-59.208
X120.85Y-86.45
X121.1Y-68.7
X121.2Y-130.0
X121.35Y-102.8
X121.4Y-64.11
X121.5Y-71.05
X121.8Y-73.2
X122.2Y-90.5
X122.2Y-91.8
X122.4Y-93.5
X122.4Y-131.05
X122.5Y-119.1
X122.55Y-126.75
X122.8Y-90.0
X122.8Y-91.1
X122.86Y-147.72
X123.0Y-59.2
X123.1Y-76.1
X123.5Y-71.6
X123.5Y-78.4
X123.5Y-79.4
X123.561Y-101.961
X123.6Y-93.5
X123.65Y-104.6
X123.65Y-130.05
X123.7Y-68.0
X123.75Y-82.35
X123.75Y-83.4
X123.75Y-84.4
X124.0Y-90.2
X124.1Y-116.2
X124.25Y-92.9
X124.3Y-123.75
X124.41Y-125.26
X124.97Y-142.24
X125.0Y-86.4
X125.34Y-141.19
X125.7Y-68.9
X125.7Y-76.1
X125.7Y-119.1
X125.75Y-112.25
X125.79Y-125.4
X126.0Y-89.3
X126.0Y-142.0
X126.62Y-123.76
X126.64Y-138.24
X127.0Y-67.5
X127.0Y-142.0
X127.15Y-75.15
X127.3Y-102.0
X127.7Y-135.65
X128.0Y-88.8
X128.0Y-127.4
X128.2Y-81.3
X128.4Y-62.3
X128.4Y-91.0
X128.4Y-138.45
X129.0Y-76.7
X129.32Y-141.9
X129.4Y-59.2
X130.0Y-105.1
X130.3Y-74.2
X130.601Y-69.824
X130.7Y-68.3
X130.81Y-138.16
X131.05Y-89.65
X131.2Y-140.5
X131.3Y-99.9
X132.0Y-56.0
X132.1Y-71.3
X132.35Y-102.55
X132.5Y-70.6
X132.6Y-59.8
X132.6Y-60.6
X132.6Y-84.0
X132.8Y-79.0
X132.8Y-81.3
X132.8Y-109.5
X133.0Y-69.972
X133.4Y-59.8
X133.4Y-60.6
X133.4Y-96.1
X133.5Y-133.7
X133.8Y-90.5
X133.8Y-106.8
X133.9Y-69.1
X133.9Y-93.93
X134.0Y-108.0
X134.0Y-143.5
X134.2Y-59.8
X134.2Y-60.6
X134.45Y-63.1
X134.6Y-65.6
X134.775Y-104.1
X134.8Y-69.3
X134.81Y-147.5
X134.85Y-71.5
X135.0Y-101.0
X135.2Y-79.0
X135.2Y-81.5
X135.4Y-76.1
X135.55Y-59.9
X136.3Y-59.9
X136.49Y-91.5
X136.7Y-98.1
X136.7Y-99.0
X136.8Y-67.7
X136.95Y-138.2
X137.175Y-92.393
X137.3Y-69.9
X137.5Y-72.1
X137.6Y-60.8
X137.6Y-75.2
X137.7Y-98.1
X137.7Y-99.0
X137.8Y-67.675
X137.9Y-82.9
X138.0Y-91.1
X138.675Y-95.125
X138.7Y-98.1
X138.7Y-99.0
X138.8Y-59.8
X138.8Y-85.9
X139.0Y-146.0
X139.1Y-65.0
X139.3Y-110.5
X139.3Y-112.7
X139.3Y-141.4
X139.9Y-86.4
X140.05Y-78.1
X140.1Y-141.4
X140.9Y-141.4
X141.0Y-71.1
X141.2Y-75.5
X141.4Y-82.2
X141.5Y-110.5
X141.5Y-112.7
X142.3Y-97.8
X142.45Y-93.9
X142.7Y-75.8
X142.855Y-82.0
X143.0Y-66.0
X143.15Y-85.95
X143.182Y-142.961
X143.6Y-71.5
X144.2Y-77.0
T2
X115.575Y-68.175
X119.763Y-65.208
X131.438Y-105.537
X136.4Y-102.1
T3
X114.64Y-110.85
X117.18Y-109.0
X120.9Y-85.4
X123.0Y-133.1
X123.7Y-108.3
X124.0Y-106.0
X125.5Y-90.55
X127.0Y-137.0
X129.0Y-93.0
X130.0Y-120.0
X131.9Y-92.13
X133.91Y-72.3
X134.4Y-95.059
X134.475Y-92.07
X135.0Y-115.0
X135.2Y-128.5
X135.23Y-119.63
X136.0Y-88.6
X137.149Y-95.059
X140.0Y-120.0
M30
