%TF.GenerationSoftware,KiCad,Pcbnew,10.0.1*%
%TF.CreationDate,2026-07-07T13:59:25+01:00*%
%TF.ProjectId,oe-commutator-controller,6f652d63-6f6d-46d7-9574-61746f722d63,J*%
%TF.SameCoordinates,PX6146580PY8e18f40*%
%TF.FileFunction,Soldermask,Bot*%
%TF.FilePolarity,Negative*%
%FSLAX46Y46*%
G04 Gerber Fmt 4.6, Leading zero omitted, Abs format (unit mm)*
G04 Created by KiCad (PCBNEW 10.0.1) date 2026-07-07 13:59:25*
%MOMM*%
%LPD*%
G01*
G04 APERTURE LIST*
%ADD10C,1.600000*%
%ADD11C,0.000000*%
%ADD12C,2.700000*%
%ADD13C,0.650000*%
G04 APERTURE END LIST*
D10*
X22300000Y87750000D02*
G75*
G02*
X20700000Y87750000I-800000J0D01*
G01*
X20700000Y87750000D02*
G75*
G02*
X22300000Y87750000I800000J0D01*
G01*
D11*
%TO.C,G\u002A\u002A\u002A*%
G36*
X26125500Y3073443D02*
G01*
X26122022Y3048515D01*
X26095761Y2965850D01*
X26049116Y2874587D01*
X25987430Y2793180D01*
X25912384Y2723434D01*
X25825660Y2667156D01*
X25728938Y2626153D01*
X25726938Y2625513D01*
X25667350Y2612037D01*
X25596738Y2604319D01*
X25522249Y2602542D01*
X25451028Y2606886D01*
X25390223Y2617534D01*
X25311619Y2644667D01*
X25223208Y2693008D01*
X25143740Y2756882D01*
X25074731Y2834797D01*
X25017697Y2925261D01*
X24974157Y3026783D01*
X24973042Y3030119D01*
X24969396Y3042501D01*
X24966311Y3056609D01*
X24963742Y3074036D01*
X24961642Y3096378D01*
X24959964Y3125230D01*
X24958661Y3162188D01*
X24957686Y3208846D01*
X24956993Y3266799D01*
X24956536Y3337644D01*
X24956267Y3422975D01*
X24956140Y3524387D01*
X24956108Y3643475D01*
X24956110Y3678291D01*
X24956163Y3792328D01*
X24956325Y3889130D01*
X24956642Y3970293D01*
X24957159Y4037410D01*
X24957925Y4092078D01*
X24958986Y4135892D01*
X24960315Y4168627D01*
X25235546Y4168627D01*
X25235546Y3643475D01*
X25235546Y3118323D01*
X25258457Y3067634D01*
X25272368Y3042089D01*
X25306608Y2996938D01*
X25349335Y2954503D01*
X25395220Y2919799D01*
X25438936Y2897837D01*
X25488624Y2886072D01*
X25553259Y2882086D01*
X25616645Y2888756D01*
X25671213Y2905822D01*
X25685659Y2913130D01*
X25742041Y2952511D01*
X25791721Y3003704D01*
X25828653Y3060759D01*
X25852238Y3108687D01*
X25852238Y3643475D01*
X25852238Y4178262D01*
X25828653Y4226190D01*
X25820940Y4240690D01*
X25780251Y4296837D01*
X25728326Y4345633D01*
X25671213Y4381127D01*
X25626196Y4396148D01*
X25563715Y4404504D01*
X25498771Y4402246D01*
X25438936Y4389113D01*
X25414062Y4378168D01*
X25368435Y4348180D01*
X25323741Y4308367D01*
X25285305Y4263741D01*
X25258457Y4219315D01*
X25235546Y4168627D01*
X24960315Y4168627D01*
X24960389Y4170447D01*
X24962179Y4197338D01*
X24964405Y4218161D01*
X24967111Y4234509D01*
X24970347Y4247980D01*
X24974157Y4260167D01*
X25009065Y4344687D01*
X25063848Y4437193D01*
X25130872Y4517410D01*
X25208620Y4583848D01*
X25295576Y4635014D01*
X25390223Y4669415D01*
X25401769Y4672120D01*
X25455565Y4679865D01*
X25519230Y4683476D01*
X25585666Y4682950D01*
X25647772Y4678285D01*
X25698450Y4669480D01*
X25720313Y4663420D01*
X25815161Y4625387D01*
X25901480Y4571558D01*
X25977298Y4503941D01*
X26040643Y4424543D01*
X26089542Y4335372D01*
X26122022Y4238435D01*
X26125381Y4214727D01*
X26128439Y4173382D01*
X26131061Y4117232D01*
X26133247Y4048546D01*
X26134998Y3969597D01*
X26136313Y3882657D01*
X26137192Y3789996D01*
X26137636Y3693887D01*
X26137644Y3596600D01*
X26137216Y3500408D01*
X26136353Y3407581D01*
X26135054Y3320393D01*
X26133319Y3241113D01*
X26131148Y3172014D01*
X26128542Y3115366D01*
X26128057Y3108687D01*
X26125500Y3073443D01*
G37*
G36*
X12067070Y4688259D02*
G01*
X12158234Y4668183D01*
X12245503Y4632222D01*
X12326873Y4580622D01*
X12400337Y4513632D01*
X12463887Y4431500D01*
X12489631Y4386466D01*
X12523936Y4298274D01*
X12541942Y4205058D01*
X12543938Y4109733D01*
X12530215Y4015215D01*
X12501063Y3924420D01*
X12456772Y3840262D01*
X12397632Y3765659D01*
X12390644Y3759156D01*
X12366627Y3739370D01*
X12330215Y3711056D01*
X12283615Y3675872D01*
X12229030Y3635472D01*
X12168666Y3591514D01*
X12104727Y3545652D01*
X12044610Y3502709D01*
X11977877Y3454325D01*
X11924208Y3414069D01*
X11881990Y3380370D01*
X11849609Y3351651D01*
X11825452Y3326340D01*
X11807904Y3302863D01*
X11795354Y3279645D01*
X11786186Y3255113D01*
X11778789Y3227692D01*
X11774855Y3208855D01*
X11771201Y3137203D01*
X11786210Y3069910D01*
X11819650Y3007668D01*
X11871289Y2951169D01*
X11875086Y2947878D01*
X11934732Y2908511D01*
X12000178Y2887483D01*
X12072127Y2884562D01*
X12134441Y2896039D01*
X12198569Y2924771D01*
X12256371Y2970879D01*
X12309008Y3035100D01*
X12343604Y3070293D01*
X12386805Y3089214D01*
X12436105Y3091129D01*
X12489137Y3075508D01*
X12498901Y3070672D01*
X12533344Y3042994D01*
X12553221Y3004221D01*
X12559545Y2952584D01*
X12557533Y2928235D01*
X12539608Y2873656D01*
X12502989Y2816438D01*
X12447521Y2756305D01*
X12414607Y2727041D01*
X12330158Y2668596D01*
X12238150Y2627545D01*
X12136913Y2603065D01*
X12110110Y2600021D01*
X12045644Y2598704D01*
X11977158Y2603754D01*
X11914036Y2614681D01*
X11895271Y2619577D01*
X11806077Y2654330D01*
X11723428Y2705210D01*
X11649632Y2769913D01*
X11586993Y2846135D01*
X11537817Y2931573D01*
X11504409Y3023923D01*
X11498846Y3050255D01*
X11492090Y3111696D01*
X11490812Y3179461D01*
X11495004Y3245506D01*
X11504659Y3301788D01*
X11510186Y3321785D01*
X11542898Y3406533D01*
X11587941Y3486518D01*
X11641557Y3554791D01*
X11668482Y3580229D01*
X11712666Y3616785D01*
X11771399Y3661858D01*
X11843675Y3714676D01*
X11928490Y3774472D01*
X11940050Y3782508D01*
X11999927Y3824369D01*
X12055408Y3863536D01*
X12104198Y3898361D01*
X12144001Y3927198D01*
X12172522Y3948399D01*
X12187467Y3960316D01*
X12215820Y3992398D01*
X12244065Y4046386D01*
X12258541Y4106920D01*
X12259324Y4170018D01*
X12246490Y4231695D01*
X12220117Y4287969D01*
X12180280Y4334855D01*
X12142650Y4364005D01*
X12080372Y4395725D01*
X12016111Y4408313D01*
X11949438Y4401827D01*
X11879927Y4376326D01*
X11873858Y4373301D01*
X11835291Y4350824D01*
X11805951Y4325082D01*
X11777476Y4288941D01*
X11753299Y4257925D01*
X11719567Y4227868D01*
X11682687Y4212143D01*
X11638183Y4208153D01*
X11619786Y4209607D01*
X11574228Y4224267D01*
X11539056Y4252138D01*
X11515707Y4290183D01*
X11505614Y4335367D01*
X11510214Y4384654D01*
X11530942Y4435008D01*
X11534377Y4440525D01*
X11555922Y4469395D01*
X11585286Y4503316D01*
X11617154Y4536058D01*
X11623085Y4541673D01*
X11703616Y4604744D01*
X11790287Y4650691D01*
X11881091Y4679760D01*
X11974021Y4692200D01*
X12067070Y4688259D01*
G37*
G36*
X14106612Y4674520D02*
G01*
X14144514Y4644328D01*
X14169427Y4603484D01*
X14178416Y4555328D01*
X14178335Y4554093D01*
X14174686Y4536404D01*
X14165865Y4501718D01*
X14152228Y4451272D01*
X14134131Y4386302D01*
X14111927Y4308043D01*
X14085971Y4217732D01*
X14056619Y4116605D01*
X14024226Y4005898D01*
X13989146Y3886847D01*
X13951734Y3760688D01*
X13912346Y3628658D01*
X13646239Y2739262D01*
X13730608Y2456638D01*
X13738013Y2431920D01*
X13759551Y2361001D01*
X13779851Y2295528D01*
X13798079Y2238110D01*
X13813397Y2191358D01*
X13824970Y2157881D01*
X13831961Y2140288D01*
X13842399Y2121630D01*
X13886270Y2067807D01*
X13943768Y2024494D01*
X14011924Y1993586D01*
X14087769Y1976979D01*
X14089614Y1976767D01*
X14128365Y1970495D01*
X14162140Y1961951D01*
X14183813Y1952920D01*
X14209655Y1930663D01*
X14234488Y1890656D01*
X14245270Y1844824D01*
X14241851Y1797644D01*
X14224078Y1753598D01*
X14191799Y1717163D01*
X14177845Y1708022D01*
X14158066Y1701231D01*
X14129783Y1697916D01*
X14087637Y1697041D01*
X14042572Y1698662D01*
X13944980Y1714691D01*
X13853816Y1748268D01*
X13767925Y1799892D01*
X13686151Y1870061D01*
X13640622Y1919659D01*
X13601961Y1972910D01*
X13569317Y2032620D01*
X13540370Y2103051D01*
X13512797Y2188467D01*
X13508836Y2201881D01*
X13498678Y2236068D01*
X13483624Y2286589D01*
X13464052Y2352185D01*
X13440338Y2431597D01*
X13412857Y2523567D01*
X13381987Y2626837D01*
X13348104Y2740148D01*
X13311582Y2862241D01*
X13272800Y2991859D01*
X13232133Y3127741D01*
X13189957Y3268631D01*
X13146649Y3413269D01*
X13112453Y3527558D01*
X13070974Y3666459D01*
X13031337Y3799487D01*
X12993878Y3925499D01*
X12958935Y4043351D01*
X12926844Y4151898D01*
X12897943Y4249996D01*
X12872568Y4336503D01*
X12851056Y4410273D01*
X12833745Y4470163D01*
X12820970Y4515029D01*
X12813069Y4543727D01*
X12810378Y4555113D01*
X12811162Y4561718D01*
X12817941Y4585869D01*
X12829365Y4614699D01*
X12841758Y4636187D01*
X12874673Y4667838D01*
X12915910Y4685932D01*
X12961276Y4689759D01*
X13006577Y4678605D01*
X13047618Y4651758D01*
X13048858Y4650590D01*
X13055114Y4644012D01*
X13061314Y4635705D01*
X13067885Y4624380D01*
X13075258Y4608752D01*
X13083862Y4587531D01*
X13094125Y4559432D01*
X13106477Y4523167D01*
X13121349Y4477449D01*
X13139168Y4420991D01*
X13160364Y4352506D01*
X13185367Y4270706D01*
X13214605Y4174305D01*
X13248509Y4062015D01*
X13287508Y3932549D01*
X13288490Y3929285D01*
X13321910Y3818271D01*
X13353701Y3712670D01*
X13383425Y3613930D01*
X13410648Y3523503D01*
X13434933Y3442835D01*
X13455844Y3373376D01*
X13472944Y3316575D01*
X13485797Y3273881D01*
X13493968Y3246743D01*
X13497020Y3236610D01*
X13499786Y3243724D01*
X13507623Y3267883D01*
X13520086Y3307734D01*
X13536742Y3361850D01*
X13557159Y3428807D01*
X13580903Y3507178D01*
X13607542Y3595539D01*
X13636641Y3692462D01*
X13667769Y3796524D01*
X13700491Y3906299D01*
X13729828Y4004571D01*
X13762010Y4111639D01*
X13792591Y4212630D01*
X13821093Y4305991D01*
X13847032Y4390173D01*
X13869930Y4463624D01*
X13889304Y4524794D01*
X13904674Y4572130D01*
X13915560Y4604082D01*
X13921480Y4619100D01*
X13939204Y4643409D01*
X13975205Y4671711D01*
X14017493Y4688536D01*
X14059644Y4690561D01*
X14106612Y4674520D01*
G37*
G36*
X20995376Y4664764D02*
G01*
X21067976Y4664226D01*
X21125460Y4662924D01*
X21169885Y4660525D01*
X21203311Y4656697D01*
X21227795Y4651107D01*
X21245395Y4643424D01*
X21258170Y4633314D01*
X21268176Y4620445D01*
X21277473Y4604484D01*
X21280094Y4598947D01*
X21282620Y4591148D01*
X21284834Y4580357D01*
X21286756Y4565409D01*
X21288406Y4545143D01*
X21289805Y4518397D01*
X21290974Y4484006D01*
X21291932Y4440808D01*
X21292701Y4387642D01*
X21293301Y4323343D01*
X21293753Y4246749D01*
X21294076Y4156697D01*
X21294292Y4052025D01*
X21294421Y3931569D01*
X21294483Y3794167D01*
X21294499Y3638657D01*
X21294500Y3601348D01*
X21294512Y3446377D01*
X21294489Y3309286D01*
X21294368Y3188941D01*
X21294085Y3084206D01*
X21293576Y2993946D01*
X21292777Y2917024D01*
X21291626Y2852305D01*
X21290058Y2798652D01*
X21288009Y2754932D01*
X21285417Y2720007D01*
X21282217Y2692742D01*
X21278345Y2672002D01*
X21273739Y2656651D01*
X21268333Y2645552D01*
X21262066Y2637571D01*
X21254872Y2631572D01*
X21246689Y2626418D01*
X21237452Y2620975D01*
X21205488Y2608294D01*
X21152706Y2602843D01*
X21138480Y2602992D01*
X21108811Y2605937D01*
X21086749Y2614831D01*
X21063809Y2632507D01*
X21057580Y2638388D01*
X21034418Y2667700D01*
X21020166Y2697549D01*
X21019282Y2702749D01*
X21017459Y2728068D01*
X21015830Y2772028D01*
X21014401Y2834194D01*
X21013177Y2914134D01*
X21012162Y3011411D01*
X21011361Y3125594D01*
X21010780Y3256246D01*
X21010424Y3402935D01*
X21010296Y3565226D01*
X21010243Y4397561D01*
X20824753Y4393309D01*
X20810791Y4392985D01*
X20749329Y4391387D01*
X20703087Y4389589D01*
X20668672Y4387164D01*
X20642693Y4383686D01*
X20621758Y4378725D01*
X20602474Y4371856D01*
X20581449Y4362651D01*
X20528199Y4332804D01*
X20468999Y4281238D01*
X20424035Y4216806D01*
X20398369Y4168627D01*
X20393551Y3431487D01*
X20392696Y3303911D01*
X20391821Y3183218D01*
X20390959Y3079259D01*
X20390075Y2990717D01*
X20389129Y2916273D01*
X20388086Y2854609D01*
X20386907Y2804407D01*
X20385555Y2764349D01*
X20383992Y2733116D01*
X20382181Y2709391D01*
X20380084Y2691854D01*
X20377665Y2679188D01*
X20374885Y2670074D01*
X20371707Y2663194D01*
X20369102Y2658651D01*
X20340460Y2627127D01*
X20299620Y2608762D01*
X20245009Y2602807D01*
X20235640Y2602879D01*
X20204571Y2605590D01*
X20181667Y2614455D01*
X20158043Y2632507D01*
X20151814Y2638388D01*
X20128652Y2667700D01*
X20114400Y2697549D01*
X20112660Y2712325D01*
X20110992Y2744990D01*
X20109518Y2793245D01*
X20108239Y2855186D01*
X20107153Y2928915D01*
X20106263Y3012530D01*
X20105566Y3104130D01*
X20105065Y3201815D01*
X20104759Y3303684D01*
X20104648Y3407837D01*
X20104732Y3512372D01*
X20105011Y3615389D01*
X20105486Y3714988D01*
X20106156Y3809268D01*
X20107022Y3896327D01*
X20108084Y3974265D01*
X20109342Y4041183D01*
X20110797Y4095177D01*
X20112447Y4134350D01*
X20114295Y4156798D01*
X20132943Y4241606D01*
X20170321Y4337061D01*
X20222487Y4424187D01*
X20287703Y4500993D01*
X20364235Y4565490D01*
X20450345Y4615688D01*
X20544297Y4649596D01*
X20551439Y4651330D01*
X20573893Y4655510D01*
X20601799Y4658778D01*
X20637460Y4661232D01*
X20683179Y4662971D01*
X20741258Y4664092D01*
X20814000Y4664692D01*
X20903709Y4664871D01*
X20905602Y4664871D01*
X20995376Y4664764D01*
G37*
G36*
X18926867Y3670653D02*
G01*
X18927168Y3608863D01*
X18927644Y3493180D01*
X18927817Y3394303D01*
X18927574Y3310563D01*
X18926805Y3240294D01*
X18925397Y3181828D01*
X18923237Y3133497D01*
X18920215Y3093633D01*
X18916216Y3060570D01*
X18911130Y3032639D01*
X18904845Y3008173D01*
X18897247Y2985504D01*
X18888226Y2962965D01*
X18877668Y2938889D01*
X18876889Y2937155D01*
X18828345Y2852372D01*
X18764698Y2776626D01*
X18688761Y2711950D01*
X18603344Y2660377D01*
X18511258Y2623937D01*
X18415316Y2604664D01*
X18321602Y2600635D01*
X18214694Y2611537D01*
X18115841Y2639617D01*
X18025555Y2684720D01*
X17944349Y2746693D01*
X17922178Y2767385D01*
X17901422Y2789102D01*
X17889729Y2807285D01*
X17883945Y2827291D01*
X17880918Y2854476D01*
X17881376Y2893641D01*
X17895185Y2941290D01*
X17923367Y2977115D01*
X17964631Y2999671D01*
X18017685Y3007511D01*
X18023083Y3007477D01*
X18055157Y3004802D01*
X18082484Y2995944D01*
X18110972Y2978215D01*
X18146532Y2948929D01*
X18198347Y2913217D01*
X18262918Y2889880D01*
X18337660Y2882246D01*
X18371226Y2883790D01*
X18445400Y2899783D01*
X18510699Y2932746D01*
X18566355Y2982216D01*
X18611602Y3047731D01*
X18644651Y3108687D01*
X18647757Y3308630D01*
X18650864Y3508573D01*
X18243053Y3508609D01*
X18161453Y3508636D01*
X18076121Y3508767D01*
X18006723Y3509083D01*
X17951410Y3509666D01*
X17908334Y3510597D01*
X17875647Y3511959D01*
X17851500Y3513833D01*
X17834045Y3516302D01*
X17821433Y3519446D01*
X17811817Y3523349D01*
X17803346Y3528092D01*
X17796878Y3532142D01*
X17781890Y3543224D01*
X17770009Y3556354D01*
X17760880Y3573687D01*
X17754144Y3597375D01*
X17749445Y3629569D01*
X17746425Y3672423D01*
X17744728Y3728090D01*
X17744206Y3778376D01*
X18021428Y3778376D01*
X18336146Y3778376D01*
X18650864Y3778376D01*
X18647757Y3978319D01*
X18647282Y4008039D01*
X18646092Y4068626D01*
X18644602Y4114276D01*
X18642482Y4148066D01*
X18639400Y4173075D01*
X18635024Y4192380D01*
X18629023Y4209059D01*
X18621066Y4226190D01*
X18596307Y4268625D01*
X18546687Y4325723D01*
X18486713Y4368450D01*
X18418770Y4395260D01*
X18345248Y4404610D01*
X18293815Y4402075D01*
X18234500Y4389126D01*
X18181788Y4363123D01*
X18129686Y4321763D01*
X18099721Y4292728D01*
X18075681Y4265006D01*
X18057633Y4236442D01*
X18044651Y4203963D01*
X18035812Y4164500D01*
X18030193Y4114983D01*
X18026870Y4052340D01*
X18024918Y3973501D01*
X18021428Y3778376D01*
X17744206Y3778376D01*
X17743995Y3798721D01*
X17743870Y3886470D01*
X17744196Y3973956D01*
X17745387Y4053828D01*
X17747792Y4119531D01*
X17751766Y4173731D01*
X17757663Y4219093D01*
X17765838Y4258280D01*
X17776644Y4293957D01*
X17790438Y4328790D01*
X17807572Y4365443D01*
X17834520Y4412691D01*
X17890877Y4485385D01*
X17959718Y4550929D01*
X18037234Y4606341D01*
X18119616Y4648642D01*
X18203052Y4674849D01*
X18240251Y4680256D01*
X18300399Y4683335D01*
X18366872Y4682043D01*
X18433326Y4676742D01*
X18493417Y4667794D01*
X18540804Y4655562D01*
X18556268Y4649821D01*
X18646338Y4604798D01*
X18728100Y4543981D01*
X18799355Y4469600D01*
X18857908Y4383887D01*
X18901561Y4289074D01*
X18902235Y4287201D01*
X18906895Y4273876D01*
X18910850Y4260846D01*
X18914166Y4246480D01*
X18916910Y4229149D01*
X18919148Y4207220D01*
X18920948Y4179065D01*
X18922375Y4143052D01*
X18923498Y4097551D01*
X18924382Y4040931D01*
X18925094Y3971562D01*
X18925701Y3887813D01*
X18926270Y3788053D01*
X18926319Y3778376D01*
X18926867Y3670653D01*
G37*
G36*
X22896821Y3670653D02*
G01*
X22897123Y3608863D01*
X22897598Y3493180D01*
X22897771Y3394303D01*
X22897529Y3310563D01*
X22896760Y3240294D01*
X22895351Y3181828D01*
X22893192Y3133497D01*
X22890169Y3093633D01*
X22886171Y3060570D01*
X22881085Y3032639D01*
X22874799Y3008173D01*
X22867202Y2985504D01*
X22858180Y2962965D01*
X22847623Y2938889D01*
X22846843Y2937155D01*
X22798299Y2852372D01*
X22734653Y2776626D01*
X22658715Y2711950D01*
X22573298Y2660377D01*
X22481213Y2623937D01*
X22385271Y2604664D01*
X22291556Y2600635D01*
X22184648Y2611537D01*
X22085795Y2639617D01*
X21995509Y2684720D01*
X21914304Y2746693D01*
X21892132Y2767385D01*
X21871377Y2789102D01*
X21859683Y2807285D01*
X21853899Y2827291D01*
X21850872Y2854476D01*
X21851331Y2893641D01*
X21865139Y2941290D01*
X21893322Y2977115D01*
X21934586Y2999671D01*
X21987639Y3007511D01*
X21993038Y3007477D01*
X22025112Y3004802D01*
X22052438Y2995944D01*
X22080927Y2978215D01*
X22116487Y2948929D01*
X22168302Y2913217D01*
X22232873Y2889880D01*
X22307614Y2882246D01*
X22341181Y2883790D01*
X22415355Y2899783D01*
X22480653Y2932746D01*
X22536309Y2982216D01*
X22581556Y3047731D01*
X22614605Y3108687D01*
X22617712Y3308630D01*
X22620819Y3508573D01*
X22213008Y3508609D01*
X22131408Y3508636D01*
X22046075Y3508767D01*
X21976677Y3509083D01*
X21921364Y3509666D01*
X21878288Y3510597D01*
X21845601Y3511959D01*
X21821454Y3513833D01*
X21803999Y3516302D01*
X21791388Y3519446D01*
X21781771Y3523349D01*
X21773301Y3528092D01*
X21766833Y3532142D01*
X21751844Y3543224D01*
X21739964Y3556354D01*
X21730834Y3573687D01*
X21724098Y3597375D01*
X21719399Y3629569D01*
X21716380Y3672423D01*
X21714682Y3728090D01*
X21714160Y3778376D01*
X21991383Y3778376D01*
X22306101Y3778376D01*
X22620819Y3778376D01*
X22617712Y3978319D01*
X22617236Y4008039D01*
X22616046Y4068626D01*
X22614557Y4114276D01*
X22612437Y4148066D01*
X22609354Y4173075D01*
X22604979Y4192380D01*
X22598978Y4209059D01*
X22591021Y4226190D01*
X22566261Y4268625D01*
X22516642Y4325723D01*
X22456667Y4368450D01*
X22388725Y4395260D01*
X22315203Y4404610D01*
X22263769Y4402075D01*
X22204455Y4389126D01*
X22151743Y4363123D01*
X22099640Y4321763D01*
X22069675Y4292728D01*
X22045636Y4265006D01*
X22027587Y4236442D01*
X22014605Y4203963D01*
X22005767Y4164500D01*
X22000148Y4114983D01*
X21996824Y4052340D01*
X21994873Y3973501D01*
X21991383Y3778376D01*
X21714160Y3778376D01*
X21713949Y3798721D01*
X21713824Y3886470D01*
X21714151Y3973956D01*
X21715341Y4053828D01*
X21717746Y4119531D01*
X21721720Y4173731D01*
X21727617Y4219093D01*
X21735792Y4258280D01*
X21746599Y4293957D01*
X21760392Y4328790D01*
X21777527Y4365443D01*
X21804475Y4412691D01*
X21860831Y4485385D01*
X21929672Y4550929D01*
X22007189Y4606341D01*
X22089570Y4648642D01*
X22173006Y4674849D01*
X22210206Y4680256D01*
X22270354Y4683335D01*
X22336826Y4682043D01*
X22403280Y4676742D01*
X22463372Y4667794D01*
X22510758Y4655562D01*
X22526222Y4649821D01*
X22616293Y4604798D01*
X22698054Y4543981D01*
X22769310Y4469600D01*
X22827862Y4383887D01*
X22871516Y4289074D01*
X22872189Y4287201D01*
X22876850Y4273876D01*
X22880804Y4260846D01*
X22884120Y4246480D01*
X22886864Y4229149D01*
X22889103Y4207220D01*
X22890902Y4179065D01*
X22892330Y4143052D01*
X22893452Y4097551D01*
X22894336Y4040931D01*
X22895048Y3971562D01*
X22895655Y3887813D01*
X22896224Y3788053D01*
X22896273Y3778376D01*
X22896821Y3670653D01*
G37*
G36*
X17321893Y4387491D02*
G01*
X17322550Y4327126D01*
X17323089Y4255989D01*
X17323523Y4173135D01*
X17323862Y4077621D01*
X17324118Y3968502D01*
X17324302Y3844833D01*
X17324425Y3705670D01*
X17324499Y3550069D01*
X17324535Y3377085D01*
X17324545Y3185774D01*
X17324547Y3112514D01*
X17324567Y2924897D01*
X17324578Y2755284D01*
X17324544Y2602748D01*
X17324429Y2466362D01*
X17324197Y2345196D01*
X17323813Y2238324D01*
X17323239Y2144818D01*
X17322441Y2063749D01*
X17321381Y1994191D01*
X17320025Y1935215D01*
X17318336Y1885893D01*
X17316279Y1845299D01*
X17313816Y1812503D01*
X17310913Y1786578D01*
X17307533Y1766597D01*
X17303640Y1751632D01*
X17299198Y1740754D01*
X17294171Y1733036D01*
X17288524Y1727550D01*
X17282220Y1723369D01*
X17275223Y1719565D01*
X17267498Y1715209D01*
X17235534Y1702527D01*
X17182752Y1697077D01*
X17168526Y1697226D01*
X17138856Y1700170D01*
X17116795Y1709065D01*
X17093855Y1726741D01*
X17087625Y1732622D01*
X17064463Y1761934D01*
X17050212Y1791783D01*
X17048135Y1806153D01*
X17045910Y1839809D01*
X17044010Y1889934D01*
X17042468Y1955003D01*
X17041320Y2033489D01*
X17040599Y2123864D01*
X17040342Y2224602D01*
X17040288Y2622079D01*
X16836918Y2622079D01*
X16809756Y2622121D01*
X16737567Y2622827D01*
X16680815Y2624536D01*
X16636617Y2627415D01*
X16602087Y2631631D01*
X16574342Y2637353D01*
X16495256Y2664554D01*
X16407745Y2712225D01*
X16329530Y2774521D01*
X16262345Y2849451D01*
X16207928Y2935026D01*
X16168014Y3029256D01*
X16144340Y3130151D01*
X16142787Y3147001D01*
X16140947Y3183750D01*
X16139275Y3235686D01*
X16137813Y3300532D01*
X16136603Y3376010D01*
X16135687Y3459845D01*
X16135106Y3549759D01*
X16134904Y3643475D01*
X16135032Y3718107D01*
X16135538Y3808991D01*
X16136388Y3894265D01*
X16137541Y3971653D01*
X16138955Y4038877D01*
X16140587Y4093660D01*
X16142396Y4133726D01*
X16143713Y4149355D01*
X16423785Y4149355D01*
X16423785Y3643475D01*
X16423785Y3137595D01*
X16447089Y3087541D01*
X16447556Y3086543D01*
X16488945Y3019595D01*
X16543539Y2965044D01*
X16608814Y2925423D01*
X16613557Y2923305D01*
X16634617Y2914454D01*
X16654432Y2907884D01*
X16676422Y2903156D01*
X16704005Y2899830D01*
X16740601Y2897467D01*
X16789627Y2895629D01*
X16854502Y2893876D01*
X17040288Y2889211D01*
X17040288Y3643386D01*
X17040288Y4397561D01*
X16854799Y4393223D01*
X16837742Y4392820D01*
X16777089Y4391202D01*
X16731469Y4389375D01*
X16697459Y4386900D01*
X16671640Y4383339D01*
X16650589Y4378255D01*
X16630886Y4371210D01*
X16609110Y4361764D01*
X16608620Y4361543D01*
X16543065Y4321529D01*
X16488400Y4266661D01*
X16447089Y4199409D01*
X16423785Y4149355D01*
X16143713Y4149355D01*
X16144340Y4156798D01*
X16162989Y4241606D01*
X16200367Y4337061D01*
X16252532Y4424187D01*
X16317749Y4500993D01*
X16394280Y4565490D01*
X16480390Y4615688D01*
X16574342Y4649596D01*
X16581485Y4651330D01*
X16603939Y4655510D01*
X16631845Y4658778D01*
X16667505Y4661232D01*
X16713224Y4662971D01*
X16771303Y4664092D01*
X16844046Y4664692D01*
X16933755Y4664871D01*
X16935648Y4664871D01*
X17025422Y4664764D01*
X17098021Y4664226D01*
X17155505Y4662924D01*
X17199931Y4660525D01*
X17233357Y4656697D01*
X17257841Y4651107D01*
X17275441Y4643424D01*
X17288215Y4633314D01*
X17298222Y4620445D01*
X17307519Y4604484D01*
X17308835Y4601864D01*
X17311057Y4595949D01*
X17313060Y4587761D01*
X17314855Y4576356D01*
X17316453Y4560790D01*
X17317866Y4540119D01*
X17319105Y4513398D01*
X17320182Y4479682D01*
X17321107Y4438028D01*
X17321736Y4397561D01*
X17321893Y4387491D01*
G37*
G36*
X24490937Y4387491D02*
G01*
X24491594Y4327126D01*
X24492133Y4255989D01*
X24492567Y4173135D01*
X24492906Y4077621D01*
X24493162Y3968502D01*
X24493346Y3844833D01*
X24493469Y3705670D01*
X24493543Y3550069D01*
X24493579Y3377085D01*
X24493589Y3185774D01*
X24493591Y3112514D01*
X24493611Y2924897D01*
X24493622Y2755284D01*
X24493588Y2602748D01*
X24493473Y2466362D01*
X24493241Y2345196D01*
X24492857Y2238324D01*
X24492283Y2144818D01*
X24491485Y2063749D01*
X24490425Y1994191D01*
X24489069Y1935215D01*
X24487380Y1885893D01*
X24485323Y1845299D01*
X24482860Y1812503D01*
X24479957Y1786578D01*
X24476577Y1766597D01*
X24472684Y1751632D01*
X24468242Y1740754D01*
X24463215Y1733036D01*
X24457568Y1727550D01*
X24451264Y1723369D01*
X24444267Y1719565D01*
X24436542Y1715209D01*
X24404578Y1702527D01*
X24351796Y1697077D01*
X24337570Y1697226D01*
X24307900Y1700170D01*
X24285839Y1709065D01*
X24262899Y1726741D01*
X24256669Y1732622D01*
X24233507Y1761934D01*
X24219256Y1791783D01*
X24217179Y1806153D01*
X24214954Y1839809D01*
X24213054Y1889934D01*
X24211512Y1955003D01*
X24210364Y2033489D01*
X24209643Y2123864D01*
X24209386Y2224602D01*
X24209332Y2622079D01*
X24005962Y2622079D01*
X23978800Y2622121D01*
X23906611Y2622827D01*
X23849859Y2624536D01*
X23805661Y2627415D01*
X23771131Y2631631D01*
X23743386Y2637353D01*
X23664300Y2664554D01*
X23576789Y2712225D01*
X23498574Y2774521D01*
X23431389Y2849451D01*
X23376972Y2935026D01*
X23337058Y3029256D01*
X23313384Y3130151D01*
X23311831Y3147001D01*
X23309991Y3183750D01*
X23308319Y3235686D01*
X23306857Y3300532D01*
X23305647Y3376010D01*
X23304731Y3459845D01*
X23304150Y3549759D01*
X23303948Y3643475D01*
X23304076Y3718107D01*
X23304582Y3808991D01*
X23305432Y3894265D01*
X23306585Y3971653D01*
X23307999Y4038877D01*
X23309631Y4093660D01*
X23311440Y4133726D01*
X23312757Y4149355D01*
X23592829Y4149355D01*
X23592829Y3643475D01*
X23592829Y3137595D01*
X23616133Y3087541D01*
X23616600Y3086543D01*
X23657989Y3019595D01*
X23712583Y2965044D01*
X23777858Y2925423D01*
X23782601Y2923305D01*
X23803661Y2914454D01*
X23823476Y2907884D01*
X23845466Y2903156D01*
X23873049Y2899830D01*
X23909645Y2897467D01*
X23958671Y2895629D01*
X24023546Y2893876D01*
X24209332Y2889211D01*
X24209332Y3643386D01*
X24209332Y4397561D01*
X24023843Y4393223D01*
X24006786Y4392820D01*
X23946133Y4391202D01*
X23900513Y4389375D01*
X23866503Y4386900D01*
X23840684Y4383339D01*
X23819633Y4378255D01*
X23799930Y4371210D01*
X23778154Y4361764D01*
X23777664Y4361543D01*
X23712109Y4321529D01*
X23657444Y4266661D01*
X23616133Y4199409D01*
X23592829Y4149355D01*
X23312757Y4149355D01*
X23313384Y4156798D01*
X23332033Y4241606D01*
X23369411Y4337061D01*
X23421576Y4424187D01*
X23486793Y4500993D01*
X23563324Y4565490D01*
X23649434Y4615688D01*
X23743386Y4649596D01*
X23750529Y4651330D01*
X23772983Y4655510D01*
X23800889Y4658778D01*
X23836549Y4661232D01*
X23882268Y4662971D01*
X23940347Y4664092D01*
X24013090Y4664692D01*
X24102799Y4664871D01*
X24104692Y4664871D01*
X24194466Y4664764D01*
X24267065Y4664226D01*
X24324549Y4662924D01*
X24368975Y4660525D01*
X24402401Y4656697D01*
X24426885Y4651107D01*
X24444485Y4643424D01*
X24457259Y4633314D01*
X24467266Y4620445D01*
X24476563Y4604484D01*
X24477879Y4601864D01*
X24480101Y4595949D01*
X24482104Y4587761D01*
X24483899Y4576356D01*
X24485497Y4560790D01*
X24486910Y4540119D01*
X24488149Y4513398D01*
X24489226Y4479682D01*
X24490151Y4438028D01*
X24490780Y4397561D01*
X24490937Y4387491D01*
G37*
G36*
X15551674Y5589805D02*
G01*
X15582171Y5586988D01*
X15604731Y5578106D01*
X15628072Y5560209D01*
X15634301Y5554328D01*
X15657464Y5525016D01*
X15671715Y5495167D01*
X15672723Y5486391D01*
X15674017Y5458654D01*
X15675212Y5413968D01*
X15676309Y5353673D01*
X15677308Y5279111D01*
X15678208Y5191624D01*
X15679009Y5092553D01*
X15679712Y4983240D01*
X15680316Y4865026D01*
X15680822Y4739253D01*
X15681230Y4607262D01*
X15681538Y4470395D01*
X15681749Y4329994D01*
X15681860Y4187399D01*
X15681874Y4043953D01*
X15681789Y3900997D01*
X15681605Y3759872D01*
X15681322Y3621921D01*
X15680942Y3488483D01*
X15680462Y3360902D01*
X15679885Y3240519D01*
X15679208Y3128675D01*
X15678433Y3026711D01*
X15677560Y2935970D01*
X15676588Y2857792D01*
X15675518Y2793519D01*
X15674349Y2744494D01*
X15673081Y2712056D01*
X15671715Y2697549D01*
X15669430Y2690741D01*
X15652305Y2660011D01*
X15628072Y2632507D01*
X15620832Y2626316D01*
X15598602Y2611289D01*
X15574667Y2604436D01*
X15540313Y2602807D01*
X15534696Y2602870D01*
X15480939Y2611218D01*
X15439219Y2633056D01*
X15411082Y2667612D01*
X15410240Y2669517D01*
X15407898Y2678373D01*
X15405825Y2692805D01*
X15404001Y2713953D01*
X15402404Y2742959D01*
X15401013Y2780965D01*
X15399808Y2829111D01*
X15398766Y2888540D01*
X15397867Y2960392D01*
X15397089Y3045808D01*
X15396412Y3145931D01*
X15395814Y3261901D01*
X15395273Y3394860D01*
X15394769Y3545950D01*
X15392156Y4397552D01*
X15206871Y4393304D01*
X15193281Y4392990D01*
X15131768Y4391391D01*
X15085489Y4389594D01*
X15051048Y4387171D01*
X15025051Y4383693D01*
X15004103Y4378732D01*
X14984807Y4371861D01*
X14963771Y4362651D01*
X14897798Y4323991D01*
X14844335Y4272433D01*
X14803644Y4207170D01*
X14775888Y4149355D01*
X14775826Y3441123D01*
X14775733Y3325504D01*
X14775373Y3189867D01*
X14774751Y3069379D01*
X14773875Y2964628D01*
X14772752Y2876204D01*
X14771390Y2804696D01*
X14769797Y2750691D01*
X14767980Y2714779D01*
X14765949Y2697549D01*
X14763664Y2690741D01*
X14746538Y2660011D01*
X14722306Y2632507D01*
X14716265Y2627317D01*
X14693603Y2611678D01*
X14669589Y2604519D01*
X14635339Y2602807D01*
X14628247Y2602886D01*
X14575315Y2610242D01*
X14535971Y2630095D01*
X14508642Y2663194D01*
X14508481Y2663490D01*
X14505334Y2670334D01*
X14502602Y2679282D01*
X14500257Y2691656D01*
X14498270Y2708775D01*
X14496610Y2731960D01*
X14495250Y2762531D01*
X14494159Y2801810D01*
X14493309Y2851116D01*
X14492670Y2911771D01*
X14492212Y2985094D01*
X14491908Y3072407D01*
X14491726Y3175030D01*
X14491639Y3294283D01*
X14491616Y3431487D01*
X14491630Y3534714D01*
X14491711Y3659254D01*
X14491888Y3766909D01*
X14492192Y3859055D01*
X14492650Y3937067D01*
X14493294Y4002320D01*
X14494150Y4056190D01*
X14495250Y4100052D01*
X14496623Y4135280D01*
X14498296Y4163251D01*
X14500300Y4185339D01*
X14502665Y4202920D01*
X14505418Y4217369D01*
X14508589Y4230061D01*
X14511849Y4241400D01*
X14549651Y4336579D01*
X14602817Y4423744D01*
X14669223Y4500761D01*
X14746742Y4565498D01*
X14833249Y4615821D01*
X14926618Y4649596D01*
X14934786Y4651568D01*
X14964400Y4656806D01*
X15001723Y4660586D01*
X15049640Y4663079D01*
X15111040Y4664451D01*
X15188808Y4664871D01*
X15391792Y4664871D01*
X15394587Y5081620D01*
X15395280Y5173184D01*
X15396197Y5262575D01*
X15397295Y5335734D01*
X15398635Y5394291D01*
X15400277Y5439876D01*
X15402282Y5474119D01*
X15404711Y5498651D01*
X15407624Y5515103D01*
X15411082Y5525104D01*
X15413106Y5528872D01*
X15442586Y5562266D01*
X15485503Y5582869D01*
X15540313Y5589909D01*
X15551674Y5589805D01*
G37*
G36*
X28346650Y4033077D02*
G01*
X28338225Y3986835D01*
X28333057Y3957885D01*
X28331420Y3947715D01*
X28336559Y3951056D01*
X28357156Y3965370D01*
X28392368Y3990156D01*
X28440983Y4024551D01*
X28501786Y4067692D01*
X28573565Y4118716D01*
X28655106Y4176762D01*
X28745196Y4240967D01*
X28842622Y4310467D01*
X28946169Y4384401D01*
X29054626Y4461905D01*
X29136107Y4520105D01*
X29241955Y4595558D01*
X29342408Y4666992D01*
X29436203Y4733519D01*
X29522078Y4794248D01*
X29598769Y4848292D01*
X29665015Y4894760D01*
X29719552Y4932762D01*
X29761118Y4961411D01*
X29788450Y4979816D01*
X29800286Y4987088D01*
X29801826Y4987662D01*
X29842079Y4995042D01*
X29888144Y4993328D01*
X29928087Y4982909D01*
X29930643Y4981335D01*
X29947656Y4967756D01*
X29977986Y4941664D01*
X30020391Y4904209D01*
X30073630Y4856539D01*
X30136462Y4799802D01*
X30207645Y4735146D01*
X30285938Y4663721D01*
X30370099Y4586675D01*
X30458888Y4505156D01*
X30551063Y4420314D01*
X30645383Y4333296D01*
X30740606Y4245251D01*
X30835492Y4157328D01*
X30928798Y4070675D01*
X31019283Y3986441D01*
X31105707Y3905774D01*
X31186827Y3829824D01*
X31261403Y3759738D01*
X31328193Y3696665D01*
X31385955Y3641753D01*
X31433450Y3596152D01*
X31443929Y3585918D01*
X31469434Y3561010D01*
X31492668Y3537474D01*
X31501909Y3526695D01*
X31503407Y3523269D01*
X31514516Y3474127D01*
X31510997Y3421367D01*
X31494188Y3372093D01*
X31465430Y3333404D01*
X31454410Y3327813D01*
X31425250Y3314613D01*
X31378926Y3294237D01*
X31316374Y3267083D01*
X31238534Y3233551D01*
X31155990Y3198173D01*
X31146344Y3194039D01*
X31040742Y3148947D01*
X30922666Y3098674D01*
X30793056Y3043619D01*
X30652848Y2984180D01*
X30502982Y2920757D01*
X30344396Y2853749D01*
X30178028Y2783554D01*
X30004817Y2710573D01*
X29825701Y2635203D01*
X29641618Y2557844D01*
X29594516Y2538064D01*
X29371783Y2444574D01*
X29167203Y2358785D01*
X28980077Y2280410D01*
X28809707Y2209163D01*
X28655395Y2144758D01*
X28516441Y2086908D01*
X28392148Y2035327D01*
X28281818Y1989729D01*
X28184751Y1949827D01*
X28100250Y1915334D01*
X28027615Y1885966D01*
X27966150Y1861434D01*
X27915155Y1841454D01*
X27873931Y1825738D01*
X27841781Y1814000D01*
X27818007Y1805954D01*
X27801909Y1801313D01*
X27792789Y1799791D01*
X27792480Y1799788D01*
X27737461Y1807427D01*
X27691265Y1829855D01*
X27658371Y1864902D01*
X27656257Y1869123D01*
X27647076Y1892953D01*
X27633142Y1933547D01*
X27615094Y1988763D01*
X27593572Y2056454D01*
X27569217Y2134476D01*
X27542667Y2220686D01*
X27514564Y2312937D01*
X27507474Y2336430D01*
X28266965Y2336430D01*
X28268688Y2337073D01*
X28285690Y2344024D01*
X28319555Y2358090D01*
X28368787Y2378642D01*
X28431892Y2405052D01*
X28507375Y2436689D01*
X28593741Y2472925D01*
X28689494Y2513130D01*
X28793141Y2556674D01*
X28903185Y2602930D01*
X29018133Y2651267D01*
X29136489Y2701056D01*
X29256758Y2751667D01*
X29377445Y2802473D01*
X29497055Y2852842D01*
X29614094Y2902147D01*
X29727066Y2949757D01*
X29834477Y2995043D01*
X29934832Y3037377D01*
X30026634Y3076129D01*
X30108391Y3110669D01*
X30178606Y3140368D01*
X30235786Y3164598D01*
X30278434Y3182728D01*
X30305055Y3194129D01*
X30314156Y3198173D01*
X30304951Y3197722D01*
X30277059Y3195594D01*
X30232426Y3191938D01*
X30173007Y3186930D01*
X30100758Y3180741D01*
X30017634Y3173547D01*
X29925591Y3165521D01*
X29826586Y3156837D01*
X29722574Y3147669D01*
X29615511Y3138191D01*
X29507353Y3128576D01*
X29400055Y3118999D01*
X29295574Y3109634D01*
X29195865Y3100653D01*
X29102884Y3092232D01*
X29018588Y3084545D01*
X28944931Y3077764D01*
X28883869Y3072063D01*
X28837360Y3067618D01*
X28807357Y3064601D01*
X28795818Y3063187D01*
X28794783Y3062428D01*
X28783647Y3049484D01*
X28762446Y3022278D01*
X28762253Y3022030D01*
X28731961Y2981892D01*
X28694126Y2930897D01*
X28650106Y2870871D01*
X28601260Y2803642D01*
X28548944Y2731035D01*
X28538695Y2716754D01*
X28486009Y2643386D01*
X28436503Y2574512D01*
X28391650Y2512178D01*
X28352921Y2458427D01*
X28321792Y2415304D01*
X28299734Y2384855D01*
X28288220Y2369123D01*
X28282250Y2361009D01*
X28270023Y2343159D01*
X28266965Y2336430D01*
X27507474Y2336430D01*
X27485547Y2409085D01*
X27456256Y2506986D01*
X27427331Y2604494D01*
X27399412Y2699466D01*
X27373140Y2789756D01*
X27349153Y2873220D01*
X27328093Y2947712D01*
X27325666Y2956506D01*
X27669428Y2956506D01*
X27673114Y2936639D01*
X27681479Y2902404D01*
X27693630Y2857349D01*
X27708673Y2805021D01*
X27716893Y2777303D01*
X27731355Y2729035D01*
X27743145Y2690341D01*
X27751218Y2664627D01*
X27754532Y2655298D01*
X27754705Y2655628D01*
X27757601Y2668428D01*
X27757721Y2669035D01*
X28093747Y2669035D01*
X28094692Y2669618D01*
X28104856Y2681672D01*
X28124599Y2707335D01*
X28152121Y2744206D01*
X28185625Y2789886D01*
X28223312Y2841974D01*
X28235845Y2859457D01*
X28271863Y2910309D01*
X28302539Y2954526D01*
X28326173Y2989600D01*
X28341064Y3013020D01*
X28345512Y3022278D01*
X28345205Y3022480D01*
X28332051Y3023230D01*
X28304742Y3021905D01*
X28269024Y3019065D01*
X28230639Y3015275D01*
X28195334Y3011095D01*
X28168852Y3007089D01*
X28156938Y3003818D01*
X28155125Y2998617D01*
X28150258Y2978274D01*
X28149739Y2976107D01*
X28141853Y2939104D01*
X28132206Y2891119D01*
X28121536Y2835658D01*
X28114622Y2798470D01*
X28105547Y2747834D01*
X28098659Y2707078D01*
X28094534Y2679660D01*
X28093747Y2669035D01*
X27757721Y2669035D01*
X27763250Y2697072D01*
X27770923Y2737783D01*
X27779892Y2786784D01*
X27780610Y2790758D01*
X27790082Y2843040D01*
X27798642Y2890061D01*
X27805376Y2926809D01*
X27809369Y2948272D01*
X27815091Y2978274D01*
X27744973Y2971727D01*
X27744624Y2971694D01*
X27708743Y2967688D01*
X27681813Y2963475D01*
X27669638Y2959961D01*
X27669428Y2956506D01*
X27325666Y2956506D01*
X27310599Y3011089D01*
X27297310Y3061206D01*
X27288868Y3095917D01*
X27285911Y3113079D01*
X27286688Y3118187D01*
X27292768Y3138921D01*
X27305021Y3174200D01*
X27323610Y3224433D01*
X27348694Y3290027D01*
X27370626Y3346244D01*
X28217566Y3346244D01*
X28264792Y3347493D01*
X28267188Y3347567D01*
X28295017Y3349097D01*
X28334962Y3352021D01*
X28382941Y3355957D01*
X28434867Y3360528D01*
X28486657Y3365353D01*
X28534225Y3370054D01*
X28573487Y3374251D01*
X28600359Y3377565D01*
X28610756Y3379617D01*
X28611021Y3380023D01*
X28617442Y3389167D01*
X28632435Y3410203D01*
X28644313Y3426798D01*
X29051089Y3426798D01*
X29051988Y3424452D01*
X29066164Y3420626D01*
X29092340Y3419690D01*
X29097530Y3419972D01*
X29122792Y3421862D01*
X29165798Y3425368D01*
X29224723Y3430328D01*
X29297744Y3436580D01*
X29383039Y3443962D01*
X29478783Y3452310D01*
X29583153Y3461462D01*
X29694327Y3471256D01*
X29810480Y3481529D01*
X29929790Y3492118D01*
X30050433Y3502862D01*
X30170585Y3513597D01*
X30288424Y3524162D01*
X30402126Y3534393D01*
X30509868Y3544128D01*
X30609826Y3553204D01*
X30700178Y3561459D01*
X30779099Y3568731D01*
X30844766Y3574857D01*
X30895357Y3579675D01*
X30929047Y3583021D01*
X30944014Y3584734D01*
X30945934Y3585918D01*
X30944689Y3591605D01*
X30936956Y3602647D01*
X30921860Y3619894D01*
X30898522Y3644201D01*
X30866067Y3676419D01*
X30823616Y3717400D01*
X30770293Y3767998D01*
X30705220Y3829064D01*
X30627521Y3901451D01*
X30536319Y3986011D01*
X30430736Y4083597D01*
X30362578Y4146484D01*
X30276990Y4225342D01*
X30196726Y4299170D01*
X30123015Y4366845D01*
X30057084Y4427246D01*
X30000158Y4479250D01*
X29953464Y4521736D01*
X29918230Y4553582D01*
X29895682Y4573665D01*
X29887048Y4580863D01*
X29886788Y4580731D01*
X29878401Y4570635D01*
X29859351Y4545662D01*
X29830831Y4507456D01*
X29794031Y4457663D01*
X29750141Y4397927D01*
X29700354Y4329891D01*
X29645861Y4255200D01*
X29587852Y4175498D01*
X29548340Y4121098D01*
X29527518Y4092431D01*
X29466051Y4007641D01*
X29404642Y3922774D01*
X29344482Y3839474D01*
X29286762Y3759385D01*
X29232672Y3684151D01*
X29183405Y3615418D01*
X29140151Y3554828D01*
X29104102Y3504027D01*
X29076447Y3464659D01*
X29058380Y3438368D01*
X29051089Y3426798D01*
X28644313Y3426798D01*
X28656499Y3443823D01*
X28690129Y3490719D01*
X28733822Y3551586D01*
X28788075Y3627113D01*
X28853385Y3717995D01*
X28930248Y3824924D01*
X29143171Y4121098D01*
X29083380Y4078705D01*
X29067933Y4067711D01*
X29035190Y4044336D01*
X28989282Y4011520D01*
X28932203Y3970688D01*
X28865945Y3923268D01*
X28792502Y3870684D01*
X28713867Y3814363D01*
X28632032Y3755732D01*
X28240475Y3475152D01*
X28229020Y3410698D01*
X28217566Y3346244D01*
X27370626Y3346244D01*
X27380436Y3371389D01*
X27418998Y3468928D01*
X27460883Y3573885D01*
X27815072Y3573885D01*
X27815614Y3574215D01*
X27827071Y3582360D01*
X27850082Y3599115D01*
X27880470Y3621442D01*
X27943929Y3668235D01*
X27976027Y3839822D01*
X27983826Y3881358D01*
X27994321Y3936752D01*
X28003353Y3983847D01*
X28010153Y4018651D01*
X28013955Y4037169D01*
X28016405Y4049263D01*
X28016619Y4056706D01*
X28012677Y4052454D01*
X28004005Y4035261D01*
X27990031Y4003880D01*
X27970183Y3957063D01*
X27943886Y3893564D01*
X27910569Y3812136D01*
X27888723Y3758444D01*
X27864486Y3698610D01*
X27843984Y3647695D01*
X27828235Y3608240D01*
X27818258Y3582790D01*
X27815072Y3573885D01*
X27460883Y3573885D01*
X27464541Y3583052D01*
X27517227Y3714168D01*
X27577217Y3862684D01*
X27644673Y4029007D01*
X27719757Y4213546D01*
X27802631Y4416709D01*
X27823441Y4467659D01*
X27886070Y4620854D01*
X27946655Y4768849D01*
X28004718Y4910486D01*
X28059781Y5044605D01*
X28111366Y5170050D01*
X28158995Y5285660D01*
X28202190Y5390278D01*
X28240472Y5482746D01*
X28273364Y5561904D01*
X28300388Y5626595D01*
X28321064Y5675661D01*
X28334916Y5707941D01*
X28341465Y5722279D01*
X28342561Y5724238D01*
X28377212Y5765280D01*
X28424252Y5791455D01*
X28479949Y5800649D01*
X28489008Y5800396D01*
X28541942Y5788589D01*
X28587688Y5761547D01*
X28621994Y5722596D01*
X28640609Y5675057D01*
X28640797Y5673407D01*
X28639581Y5653082D01*
X28634502Y5613815D01*
X28625532Y5555445D01*
X28612644Y5477815D01*
X28595810Y5380764D01*
X28575002Y5264133D01*
X28550193Y5127763D01*
X28521355Y4971494D01*
X28488462Y4795168D01*
X28473592Y4715776D01*
X28450108Y4590211D01*
X28427946Y4471509D01*
X28407384Y4361159D01*
X28388697Y4260651D01*
X28372162Y4171475D01*
X28358054Y4095120D01*
X28350993Y4056706D01*
X28346650Y4033077D01*
G37*
%TD*%
D12*
%TO.C,H3*%
X41000000Y93000000D03*
%TD*%
%TO.C,H4*%
X2000000Y93000000D03*
%TD*%
%TO.C,H2*%
X41000000Y2000000D03*
%TD*%
%TO.C,H1*%
X2000000Y2000000D03*
%TD*%
D13*
%TO.C,J2*%
X38070000Y67110000D03*
X38070000Y72890000D03*
%TD*%
M02*
