%TF.GenerationSoftware,KiCad,Pcbnew,8.0.5*%
%TF.CreationDate,2024-10-23T16:34:27-04:00*%
%TF.ProjectId,oe-commutator-controller,6f652d63-6f6d-46d7-9574-61746f722d63,E*%
%TF.SameCoordinates,Original*%
%TF.FileFunction,AssemblyDrawing,Bot*%
%FSLAX46Y46*%
G04 Gerber Fmt 4.6, Leading zero omitted, Abs format (unit mm)*
G04 Created by KiCad (PCBNEW 8.0.5) date 2024-10-23 16:34:27*
%MOMM*%
%LPD*%
G01*
G04 APERTURE LIST*
%ADD10C,0.040000*%
G04 APERTURE END LIST*
D10*
X111040475Y-122301670D02*
X111004761Y-122313574D01*
X111004761Y-122313574D02*
X110945237Y-122313574D01*
X110945237Y-122313574D02*
X110921428Y-122301670D01*
X110921428Y-122301670D02*
X110909523Y-122289765D01*
X110909523Y-122289765D02*
X110897618Y-122265955D01*
X110897618Y-122265955D02*
X110897618Y-122242146D01*
X110897618Y-122242146D02*
X110909523Y-122218336D01*
X110909523Y-122218336D02*
X110921428Y-122206431D01*
X110921428Y-122206431D02*
X110945237Y-122194527D01*
X110945237Y-122194527D02*
X110992856Y-122182622D01*
X110992856Y-122182622D02*
X111016666Y-122170717D01*
X111016666Y-122170717D02*
X111028571Y-122158812D01*
X111028571Y-122158812D02*
X111040475Y-122135003D01*
X111040475Y-122135003D02*
X111040475Y-122111193D01*
X111040475Y-122111193D02*
X111028571Y-122087384D01*
X111028571Y-122087384D02*
X111016666Y-122075479D01*
X111016666Y-122075479D02*
X110992856Y-122063574D01*
X110992856Y-122063574D02*
X110933333Y-122063574D01*
X110933333Y-122063574D02*
X110897618Y-122075479D01*
X110683333Y-122146908D02*
X110683333Y-122313574D01*
X110742857Y-122051670D02*
X110802380Y-122230241D01*
X110802380Y-122230241D02*
X110647619Y-122230241D01*
X131190475Y-72251670D02*
X131154761Y-72263574D01*
X131154761Y-72263574D02*
X131095237Y-72263574D01*
X131095237Y-72263574D02*
X131071428Y-72251670D01*
X131071428Y-72251670D02*
X131059523Y-72239765D01*
X131059523Y-72239765D02*
X131047618Y-72215955D01*
X131047618Y-72215955D02*
X131047618Y-72192146D01*
X131047618Y-72192146D02*
X131059523Y-72168336D01*
X131059523Y-72168336D02*
X131071428Y-72156431D01*
X131071428Y-72156431D02*
X131095237Y-72144527D01*
X131095237Y-72144527D02*
X131142856Y-72132622D01*
X131142856Y-72132622D02*
X131166666Y-72120717D01*
X131166666Y-72120717D02*
X131178571Y-72108812D01*
X131178571Y-72108812D02*
X131190475Y-72085003D01*
X131190475Y-72085003D02*
X131190475Y-72061193D01*
X131190475Y-72061193D02*
X131178571Y-72037384D01*
X131178571Y-72037384D02*
X131166666Y-72025479D01*
X131166666Y-72025479D02*
X131142856Y-72013574D01*
X131142856Y-72013574D02*
X131083333Y-72013574D01*
X131083333Y-72013574D02*
X131047618Y-72025479D01*
X130809523Y-72263574D02*
X130952380Y-72263574D01*
X130880952Y-72263574D02*
X130880952Y-72013574D01*
X130880952Y-72013574D02*
X130904761Y-72049289D01*
X130904761Y-72049289D02*
X130928571Y-72073098D01*
X130928571Y-72073098D02*
X130952380Y-72085003D01*
X110290475Y-72851670D02*
X110254761Y-72863574D01*
X110254761Y-72863574D02*
X110195237Y-72863574D01*
X110195237Y-72863574D02*
X110171428Y-72851670D01*
X110171428Y-72851670D02*
X110159523Y-72839765D01*
X110159523Y-72839765D02*
X110147618Y-72815955D01*
X110147618Y-72815955D02*
X110147618Y-72792146D01*
X110147618Y-72792146D02*
X110159523Y-72768336D01*
X110159523Y-72768336D02*
X110171428Y-72756431D01*
X110171428Y-72756431D02*
X110195237Y-72744527D01*
X110195237Y-72744527D02*
X110242856Y-72732622D01*
X110242856Y-72732622D02*
X110266666Y-72720717D01*
X110266666Y-72720717D02*
X110278571Y-72708812D01*
X110278571Y-72708812D02*
X110290475Y-72685003D01*
X110290475Y-72685003D02*
X110290475Y-72661193D01*
X110290475Y-72661193D02*
X110278571Y-72637384D01*
X110278571Y-72637384D02*
X110266666Y-72625479D01*
X110266666Y-72625479D02*
X110242856Y-72613574D01*
X110242856Y-72613574D02*
X110183333Y-72613574D01*
X110183333Y-72613574D02*
X110147618Y-72625479D01*
X110064285Y-72613574D02*
X109909523Y-72613574D01*
X109909523Y-72613574D02*
X109992857Y-72708812D01*
X109992857Y-72708812D02*
X109957142Y-72708812D01*
X109957142Y-72708812D02*
X109933333Y-72720717D01*
X109933333Y-72720717D02*
X109921428Y-72732622D01*
X109921428Y-72732622D02*
X109909523Y-72756431D01*
X109909523Y-72756431D02*
X109909523Y-72815955D01*
X109909523Y-72815955D02*
X109921428Y-72839765D01*
X109921428Y-72839765D02*
X109933333Y-72851670D01*
X109933333Y-72851670D02*
X109957142Y-72863574D01*
X109957142Y-72863574D02*
X110028571Y-72863574D01*
X110028571Y-72863574D02*
X110052380Y-72851670D01*
X110052380Y-72851670D02*
X110064285Y-72839765D01*
X118240475Y-64601670D02*
X118204761Y-64613574D01*
X118204761Y-64613574D02*
X118145237Y-64613574D01*
X118145237Y-64613574D02*
X118121428Y-64601670D01*
X118121428Y-64601670D02*
X118109523Y-64589765D01*
X118109523Y-64589765D02*
X118097618Y-64565955D01*
X118097618Y-64565955D02*
X118097618Y-64542146D01*
X118097618Y-64542146D02*
X118109523Y-64518336D01*
X118109523Y-64518336D02*
X118121428Y-64506431D01*
X118121428Y-64506431D02*
X118145237Y-64494527D01*
X118145237Y-64494527D02*
X118192856Y-64482622D01*
X118192856Y-64482622D02*
X118216666Y-64470717D01*
X118216666Y-64470717D02*
X118228571Y-64458812D01*
X118228571Y-64458812D02*
X118240475Y-64435003D01*
X118240475Y-64435003D02*
X118240475Y-64411193D01*
X118240475Y-64411193D02*
X118228571Y-64387384D01*
X118228571Y-64387384D02*
X118216666Y-64375479D01*
X118216666Y-64375479D02*
X118192856Y-64363574D01*
X118192856Y-64363574D02*
X118133333Y-64363574D01*
X118133333Y-64363574D02*
X118097618Y-64375479D01*
X118002380Y-64387384D02*
X117990476Y-64375479D01*
X117990476Y-64375479D02*
X117966666Y-64363574D01*
X117966666Y-64363574D02*
X117907142Y-64363574D01*
X117907142Y-64363574D02*
X117883333Y-64375479D01*
X117883333Y-64375479D02*
X117871428Y-64387384D01*
X117871428Y-64387384D02*
X117859523Y-64411193D01*
X117859523Y-64411193D02*
X117859523Y-64435003D01*
X117859523Y-64435003D02*
X117871428Y-64470717D01*
X117871428Y-64470717D02*
X118014285Y-64613574D01*
X118014285Y-64613574D02*
X117859523Y-64613574D01*
M02*
