%TF.GenerationSoftware,KiCad,Pcbnew,9.0.4*%
%TF.CreationDate,2026-04-10T15:48:13-04:00*%
%TF.ProjectId,oe-commutator-controller,6f652d63-6f6d-46d7-9574-61746f722d63,J*%
%TF.SameCoordinates,Original*%
%TF.FileFunction,Copper,L2,Inr*%
%TF.FilePolarity,Positive*%
%FSLAX46Y46*%
G04 Gerber Fmt 4.6, Leading zero omitted, Abs format (unit mm)*
G04 Created by KiCad (PCBNEW 9.0.4) date 2026-04-10 15:48:13*
%MOMM*%
%LPD*%
G01*
G04 APERTURE LIST*
%TA.AperFunction,ViaPad*%
%ADD10C,0.500000*%
%TD*%
%TA.AperFunction,ViaPad*%
%ADD11C,0.900000*%
%TD*%
%TA.AperFunction,ViaPad*%
%ADD12C,0.800000*%
%TD*%
%TA.AperFunction,Conductor*%
%ADD13C,1.000000*%
%TD*%
%TA.AperFunction,Conductor*%
%ADD14C,0.500000*%
%TD*%
%TA.AperFunction,Conductor*%
%ADD15C,0.200000*%
%TD*%
%TA.AperFunction,Conductor*%
%ADD16C,0.400000*%
%TD*%
%TA.AperFunction,Conductor*%
%ADD17C,0.250000*%
%TD*%
G04 APERTURE END LIST*
D10*
%TO.N,GND*%
X137600000Y-75200000D03*
X115000000Y-123250000D03*
X138700000Y-99000000D03*
X111900000Y-62300000D03*
X143150000Y-85950000D03*
X130810000Y-138160000D03*
X118000000Y-65950003D03*
X109400000Y-82500000D03*
X136800000Y-67700000D03*
X115900000Y-124750000D03*
X138800000Y-59800000D03*
X107000000Y-108700000D03*
X113700000Y-134100000D03*
X113700000Y-128400000D03*
X118400000Y-125500000D03*
X115000000Y-89500000D03*
X115250000Y-100650000D03*
X131200000Y-140500000D03*
X104200000Y-133550000D03*
X106450000Y-80350000D03*
X133800000Y-106800000D03*
X104000000Y-59000000D03*
X142700000Y-75800000D03*
X115000000Y-122500000D03*
X116000000Y-79000000D03*
X139300000Y-141400000D03*
X137175000Y-92392525D03*
X126620000Y-123760000D03*
X135400000Y-76100000D03*
X123600000Y-93500000D03*
X113400000Y-78000000D03*
X128200000Y-81300000D03*
X129000000Y-76700000D03*
X134000000Y-143500000D03*
X132800000Y-109500000D03*
X124100000Y-116200000D03*
X142855000Y-82000000D03*
X120350000Y-59207864D03*
X120850000Y-86450000D03*
X117500000Y-125500000D03*
X124970000Y-142240000D03*
X139100000Y-65000000D03*
X141000000Y-71100000D03*
X106500000Y-70600000D03*
X116700000Y-125500000D03*
X115000000Y-124000000D03*
X137600000Y-60800000D03*
X139900000Y-86400000D03*
X105100000Y-80750000D03*
X134200000Y-59800000D03*
X106000000Y-110800000D03*
X109000000Y-118700000D03*
X118400000Y-124000000D03*
X123750000Y-82350000D03*
X129400000Y-59200000D03*
X139300000Y-112700000D03*
X106900000Y-123750000D03*
X108620000Y-79750000D03*
X135200000Y-79000000D03*
X115900000Y-123250000D03*
X107800000Y-79600000D03*
X142450000Y-93900000D03*
X108346992Y-125674521D03*
X132500000Y-70600000D03*
X115400000Y-86600000D03*
X116700000Y-124750000D03*
X141400000Y-82200000D03*
X131300000Y-99900000D03*
X134200000Y-60600000D03*
X132000000Y-56000000D03*
X115000000Y-124750000D03*
X121200000Y-130000000D03*
X128400000Y-62300000D03*
X137700000Y-98100000D03*
X111150000Y-120450000D03*
X138800000Y-85900000D03*
X115900000Y-124000000D03*
X113500000Y-94000000D03*
X124410000Y-125260000D03*
X138700000Y-98100000D03*
X117870000Y-100510000D03*
X114800000Y-80200000D03*
X133400000Y-59800000D03*
X104200000Y-112250000D03*
X132100000Y-71300000D03*
X107300000Y-74750000D03*
X113100000Y-103000000D03*
X108300000Y-116000000D03*
X140100000Y-141400000D03*
X135200000Y-81500000D03*
X106360000Y-103820000D03*
X110150000Y-89000000D03*
X140050000Y-78100000D03*
X108300000Y-114800000D03*
X133500000Y-133700000D03*
X123100000Y-76100000D03*
D11*
X140000000Y-120000000D03*
D10*
X108200000Y-84300000D03*
X135550000Y-59900000D03*
X127000000Y-67500000D03*
X123500000Y-79400000D03*
X104250000Y-83500000D03*
X134810000Y-147500000D03*
X111000000Y-127100000D03*
X114000000Y-105800000D03*
D11*
X135200000Y-128500000D03*
D10*
X126000000Y-142000000D03*
X134000000Y-108000000D03*
X108200000Y-81100000D03*
X104200000Y-126600000D03*
X123650000Y-130050000D03*
X111000000Y-88200000D03*
X114511091Y-93000000D03*
X117500000Y-122500000D03*
X126000000Y-89300000D03*
X111090000Y-102940000D03*
X125700000Y-119100000D03*
X109300000Y-69000000D03*
X114800000Y-63300000D03*
X141500000Y-110500000D03*
X122400000Y-131050000D03*
X116000000Y-119100000D03*
X132800000Y-79000000D03*
D11*
X135000000Y-115000000D03*
D10*
X113700000Y-69650000D03*
X117500000Y-123250000D03*
X113600000Y-119550000D03*
X144200000Y-77000000D03*
X118400000Y-122500000D03*
X112650000Y-131750000D03*
X115900000Y-125500000D03*
X133900000Y-93930000D03*
X122400000Y-93500000D03*
X104080000Y-85300000D03*
X134800000Y-69300000D03*
X118600000Y-131900000D03*
X119450000Y-71870000D03*
X120020000Y-134470000D03*
X106730000Y-72340000D03*
X117500000Y-124750000D03*
X125790000Y-125400000D03*
X127700000Y-135650000D03*
X143600000Y-71500000D03*
X128000000Y-127400000D03*
X104000000Y-144000000D03*
X142300000Y-97800000D03*
X110820000Y-148040000D03*
X139000000Y-146000000D03*
X111000000Y-69787500D03*
X122500000Y-119100000D03*
X112750000Y-69750000D03*
X119370000Y-93190000D03*
X137800000Y-67675000D03*
X119600000Y-121600000D03*
X130300000Y-74200000D03*
X113700000Y-121500000D03*
X132800000Y-81300000D03*
X122550000Y-126750000D03*
X109000000Y-56000000D03*
X135000000Y-101000000D03*
X136300000Y-59900000D03*
X137500000Y-72100000D03*
X121350000Y-102800000D03*
X130000000Y-105100000D03*
X111700000Y-66700000D03*
X136700000Y-99000000D03*
X119450000Y-85300000D03*
X109100000Y-123500000D03*
X129320000Y-141900000D03*
X128000000Y-88800000D03*
X132600000Y-60600000D03*
X112130000Y-145130000D03*
X123561091Y-101961091D03*
X111200000Y-105190000D03*
X108200000Y-64900000D03*
X136950000Y-138200000D03*
X136490000Y-91500000D03*
X111200000Y-82900000D03*
X131050000Y-89650000D03*
X107000000Y-145000000D03*
D11*
X130000000Y-120000000D03*
D10*
X137900000Y-82900000D03*
X102750000Y-68500000D03*
X125750000Y-112250000D03*
X141200000Y-75500000D03*
X103230000Y-116970000D03*
X132600000Y-84000000D03*
X109600000Y-113000000D03*
X121400000Y-64110000D03*
X104400000Y-140400000D03*
X127000000Y-142000000D03*
X105064576Y-68913843D03*
X133400000Y-96100000D03*
X133900000Y-69100000D03*
X115900000Y-122500000D03*
X107390000Y-125000000D03*
X115000000Y-56000000D03*
X118740000Y-96660000D03*
X143181976Y-142961182D03*
X143000000Y-66000000D03*
X107400000Y-139500000D03*
X118400000Y-124750000D03*
X128400000Y-91000000D03*
X123750000Y-83400000D03*
X109600000Y-90700000D03*
X110000000Y-139500000D03*
X105590000Y-78441553D03*
X118400000Y-123250000D03*
X140900000Y-141400000D03*
X117500000Y-124000000D03*
X104800000Y-118700000D03*
D11*
X135230000Y-119630000D03*
D10*
X122200000Y-90500000D03*
X126640000Y-138240000D03*
X113700000Y-117800000D03*
X121100000Y-68700000D03*
X132350000Y-102550000D03*
X125700000Y-76100000D03*
X133400000Y-60600000D03*
X134850000Y-71500000D03*
X125000000Y-86400000D03*
X124300000Y-123750000D03*
X111950000Y-134420000D03*
X132600000Y-59800000D03*
X106300000Y-63300000D03*
X115000000Y-125500000D03*
X123650000Y-104600000D03*
X117200000Y-80200000D03*
X114800000Y-77800000D03*
X134775000Y-104100000D03*
X128400000Y-138450000D03*
X117200000Y-77800000D03*
X104700000Y-82100000D03*
X114100000Y-73400000D03*
X123750000Y-84400000D03*
X116700000Y-123250000D03*
X109900000Y-77300000D03*
X121800000Y-73200000D03*
X122200000Y-91800000D03*
X117400000Y-88600000D03*
X107302494Y-78001247D03*
X136700000Y-98100000D03*
X112100000Y-108700000D03*
X110800000Y-107500000D03*
X105500000Y-115500000D03*
X134450000Y-63100000D03*
X107000000Y-147000000D03*
X118400000Y-105200000D03*
X134600000Y-65600000D03*
X114500000Y-91000000D03*
X141500000Y-112700000D03*
X139300000Y-110500000D03*
X122860000Y-147720000D03*
X114100000Y-68850000D03*
X117600000Y-113300000D03*
X127300000Y-102000000D03*
X130700000Y-68300000D03*
X105270000Y-107290000D03*
X137700000Y-99000000D03*
X116700000Y-122500000D03*
X123000000Y-59200000D03*
X123500000Y-78400000D03*
X133800000Y-90500000D03*
X109500000Y-108700000D03*
X137300000Y-69900000D03*
X102900000Y-133300000D03*
X125340000Y-141190000D03*
X118600000Y-131100000D03*
X116700000Y-124000000D03*
D12*
%TO.N,+5V*%
X131437500Y-105537500D03*
X136400000Y-102100000D03*
D10*
%TO.N,+3.3V*%
X115000000Y-76550000D03*
X130601409Y-69823591D03*
X120100000Y-82900000D03*
X111900000Y-84800000D03*
X118450000Y-76550000D03*
D11*
X124000000Y-106000000D03*
D12*
X115575000Y-68175000D03*
D11*
X125500000Y-90550000D03*
D10*
X133000000Y-69971734D03*
X118565853Y-79585459D03*
D11*
X114640000Y-110850000D03*
D12*
X119763051Y-65208282D03*
D11*
X133910000Y-72300000D03*
D10*
X108000000Y-68820000D03*
X119191364Y-82900000D03*
X115000000Y-81600000D03*
D11*
X120900000Y-85400000D03*
D10*
X113500000Y-78900000D03*
%TO.N,Net-(U2-VREG_VOUT)*%
X113875000Y-79600000D03*
X118150000Y-78825001D03*
X118050000Y-80550000D03*
D11*
%TO.N,VBUS*%
X134475000Y-92070000D03*
X131900000Y-92130000D03*
X117180000Y-109000000D03*
X129000000Y-93000000D03*
X123700000Y-108300000D03*
X136000000Y-88600000D03*
%TO.N,Net-(U6-VMID)*%
X134400000Y-95058568D03*
X137148833Y-95058568D03*
D10*
%TO.N,Net-(J1-Pin_2)*%
X110970000Y-104270000D03*
X114000000Y-104900000D03*
%TO.N,Net-(J1-Pin_4)*%
X113430000Y-106520000D03*
X111200000Y-106300000D03*
%TO.N,/MCU/QSPI_{~{CS}}*%
X123700000Y-68000000D03*
X123500000Y-71600000D03*
%TO.N,/MCU/LTC44_{~{PFO}}*%
X138675000Y-95125000D03*
X138000000Y-91100000D03*
%TO.N,/MCU/IS31_{BM}*%
X115860000Y-73850000D03*
X119200000Y-70550000D03*
%TO.N,/MCU/IS31_{EN}*%
X121500000Y-71050000D03*
X116450000Y-74400000D03*
%TO.N,/Touch Sensors/CCW*%
X112800000Y-75700000D03*
X109283451Y-71141640D03*
%TO.N,/Touch Sensors/MODE*%
X115000000Y-64500000D03*
%TO.N,/Touch Sensors/CW*%
X125700000Y-68900000D03*
X127150000Y-75150000D03*
%TO.N,/Touch Sensors/STOP*%
X107200000Y-118700000D03*
%TO.N,/MCU/TMC_{~{CS}}*%
X122800000Y-91100000D03*
X124250000Y-92900000D03*
%TO.N,/MCU/SCLK*%
X122800000Y-90000000D03*
X124000000Y-90200000D03*
%TO.N,/MCU/TMC_{~{EN}}*%
X113689998Y-116810002D03*
X116200000Y-127350000D03*
%TO.N,/MCU/ALERT#*%
X106800000Y-71500000D03*
X111494894Y-72949976D03*
D11*
%TO.N,+12V*%
X123000000Y-133100000D03*
X127000000Y-137000000D03*
D10*
%TO.N,/MCU/UART0_RX*%
X118800000Y-72330000D03*
X112300000Y-73700000D03*
%TO.N,/MCU/UART0_TX*%
X120125000Y-72379942D03*
X112836091Y-74313909D03*
%TO.N,/MCU/TMC_{DIAG1}*%
X109950000Y-118350000D03*
X112700000Y-128000000D03*
%TO.N,/MCU/TMC_{DIAG0}*%
X113300000Y-127200000D03*
X111050000Y-118350000D03*
%TD*%
D13*
%TO.N,+5V*%
X136400000Y-102100000D02*
X134875000Y-102100000D01*
X134875000Y-102100000D02*
X131437500Y-105537500D01*
%TO.N,+3.3V*%
X131350000Y-74860000D02*
X131350000Y-81106497D01*
X116440000Y-106200000D02*
X123800000Y-106200000D01*
D14*
X118850000Y-79550000D02*
X118850000Y-76750000D01*
X118850000Y-79550000D02*
X118601312Y-79550000D01*
X119191364Y-82900000D02*
X120100000Y-82900000D01*
X113174000Y-79309636D02*
X113174000Y-81274000D01*
X118850000Y-81700000D02*
X118850000Y-79550000D01*
X120250000Y-83050000D02*
X120100000Y-82900000D01*
D13*
X125500000Y-90144918D02*
X125500000Y-90550000D01*
D15*
X113075000Y-82027000D02*
X113402000Y-81700000D01*
D16*
X116796333Y-68175000D02*
X119763051Y-65208282D01*
D13*
X120900000Y-85400000D02*
X123650000Y-85400000D01*
D15*
X132851857Y-69823591D02*
X130601409Y-69823591D01*
D13*
X131350000Y-81106497D02*
X127906497Y-84550000D01*
D14*
X118751000Y-81601000D02*
X118850000Y-81700000D01*
X120250000Y-84750000D02*
X120250000Y-83050000D01*
X120900000Y-85400000D02*
X120250000Y-84750000D01*
D13*
X114640000Y-110850000D02*
X114640000Y-108000000D01*
X114640000Y-108000000D02*
X116440000Y-106200000D01*
D15*
X133000000Y-69971734D02*
X132851857Y-69823591D01*
D14*
X118850000Y-81700000D02*
X118850000Y-82558636D01*
X113200000Y-79200000D02*
X113200000Y-79283636D01*
D13*
X123650000Y-88294918D02*
X125500000Y-90144918D01*
D14*
X118650000Y-76550000D02*
X115000000Y-76550000D01*
D13*
X123650000Y-85400000D02*
X123650000Y-88294918D01*
D14*
X113200000Y-79283636D02*
X113174000Y-79309636D01*
X118850000Y-82558636D02*
X119191364Y-82900000D01*
D15*
X113402000Y-81700000D02*
X113600000Y-81700000D01*
D14*
X113174000Y-81274000D02*
X113501000Y-81601000D01*
D13*
X123650000Y-85400000D02*
X127050000Y-85400000D01*
D15*
X113075000Y-83625000D02*
X113075000Y-82027000D01*
D14*
X118850000Y-76750000D02*
X118650000Y-76550000D01*
D13*
X123800000Y-106200000D02*
X124000000Y-106000000D01*
D14*
X113501000Y-81601000D02*
X118751000Y-81601000D01*
D13*
X127900000Y-84550000D02*
X127050000Y-85400000D01*
X133910000Y-72300000D02*
X131350000Y-74860000D01*
D14*
X118565853Y-79585459D02*
X118580394Y-79600000D01*
D15*
X113050000Y-83650000D02*
X111900000Y-84800000D01*
D14*
X118601312Y-79550000D02*
X118565853Y-79585459D01*
D13*
X127906497Y-84550000D02*
X127900000Y-84550000D01*
D14*
X113500000Y-78900000D02*
X113200000Y-79200000D01*
D16*
X108645000Y-68175000D02*
X116796333Y-68175000D01*
X108000000Y-68820000D02*
X108645000Y-68175000D01*
D14*
%TO.N,Net-(U2-VREG_VOUT)*%
X118150000Y-78825001D02*
X118150000Y-78900002D01*
X113875000Y-80725000D02*
X113875000Y-79600000D01*
X118050000Y-80550000D02*
X117700000Y-80900000D01*
X117850000Y-79200002D02*
X117850000Y-79858636D01*
X117850000Y-79858636D02*
X118050000Y-80058636D01*
X117700000Y-80900000D02*
X114050000Y-80900000D01*
X118150000Y-78900002D02*
X117850000Y-79200002D01*
X118050000Y-80058636D02*
X118050000Y-80550000D01*
X114050000Y-80900000D02*
X113875000Y-80725000D01*
D13*
%TO.N,VBUS*%
X136000000Y-88600000D02*
X136000000Y-90545000D01*
X117880000Y-108300000D02*
X117180000Y-109000000D01*
X129870000Y-92130000D02*
X129000000Y-93000000D01*
X136000000Y-90545000D02*
X134475000Y-92070000D01*
X131900000Y-92130000D02*
X129870000Y-92130000D01*
X123700000Y-108300000D02*
X117880000Y-108300000D01*
%TO.N,Net-(U6-VMID)*%
X134400000Y-95058568D02*
X137148833Y-95058568D01*
D15*
%TO.N,Net-(J1-Pin_2)*%
X113370000Y-104270000D02*
X110970000Y-104270000D01*
X114000000Y-104900000D02*
X113370000Y-104270000D01*
%TO.N,Net-(J1-Pin_4)*%
X111420000Y-106520000D02*
X113430000Y-106520000D01*
X111200000Y-106300000D02*
X111420000Y-106520000D01*
%TO.N,/MCU/QSPI_{~{CS}}*%
X123255000Y-68445000D02*
X123255000Y-71355000D01*
X123255000Y-71355000D02*
X123500000Y-71600000D01*
X123700000Y-68000000D02*
X123255000Y-68445000D01*
%TO.N,/MCU/LTC44_{~{PFO}}*%
X138675000Y-91775000D02*
X138000000Y-91100000D01*
X138675000Y-95125000D02*
X138675000Y-91775000D01*
%TO.N,/MCU/IS31_{BM}*%
X119200000Y-70550000D02*
X118800000Y-70550000D01*
X118800000Y-70550000D02*
X115860000Y-73490000D01*
X115860000Y-73490000D02*
X115860000Y-73850000D01*
%TO.N,/MCU/IS31_{EN}*%
X116450000Y-73550000D02*
X118700000Y-71300000D01*
X118700000Y-71300000D02*
X121250000Y-71300000D01*
X116450000Y-74400000D02*
X116450000Y-73550000D01*
X121250000Y-71300000D02*
X121500000Y-71050000D01*
D17*
%TO.N,/Touch Sensors/CCW*%
X112800000Y-75700000D02*
X112710066Y-75700000D01*
X112561475Y-75848591D02*
X112429225Y-75848591D01*
X112427816Y-75824998D02*
X109283451Y-72680633D01*
X109283451Y-72680633D02*
X109283451Y-71141640D01*
X112710066Y-75700000D02*
X112561475Y-75848591D01*
X112427816Y-75850000D02*
X112427816Y-75824998D01*
X112429225Y-75848591D02*
X112427816Y-75850000D01*
%TO.N,/Touch Sensors/CW*%
X127150000Y-75150000D02*
X127150000Y-70350000D01*
X127150000Y-70350000D02*
X125700000Y-68900000D01*
D15*
%TO.N,/MCU/TMC_{~{CS}}*%
X124250000Y-92900000D02*
X124250000Y-92550000D01*
X124250000Y-92550000D02*
X122800000Y-91100000D01*
%TO.N,/MCU/SCLK*%
X123800000Y-90000000D02*
X124000000Y-90200000D01*
X122800000Y-90000000D02*
X123800000Y-90000000D01*
%TO.N,/MCU/TMC_{~{EN}}*%
X116200000Y-127350000D02*
X114427092Y-127350000D01*
X114427092Y-127350000D02*
X113000000Y-125922908D01*
X113000000Y-117500000D02*
X113689998Y-116810002D01*
X113000000Y-125922908D02*
X113000000Y-117500000D01*
D17*
%TO.N,/MCU/ALERT#*%
X110600000Y-72200000D02*
X110600000Y-71200000D01*
X110600000Y-71200000D02*
X109500000Y-70100000D01*
X111494894Y-72949976D02*
X111494870Y-72950000D01*
X108200000Y-70100000D02*
X106800000Y-71500000D01*
X111494870Y-72950000D02*
X111350000Y-72950000D01*
X109500000Y-70100000D02*
X108200000Y-70100000D01*
X111350000Y-72950000D02*
X110600000Y-72200000D01*
D13*
%TO.N,+12V*%
X123000000Y-133100000D02*
X126900000Y-137000000D01*
X126900000Y-137000000D02*
X127000000Y-137000000D01*
D15*
%TO.N,/MCU/UART0_RX*%
X112300000Y-73700000D02*
X113400000Y-73700000D01*
X113400000Y-73700000D02*
X114900000Y-75200000D01*
X118800000Y-74100000D02*
X118800000Y-72330000D01*
X114900000Y-75200000D02*
X117700000Y-75200000D01*
X117700000Y-75200000D02*
X118800000Y-74100000D01*
%TO.N,/MCU/UART0_TX*%
X118800000Y-76000000D02*
X120125000Y-74675000D01*
X114500000Y-76000000D02*
X118800000Y-76000000D01*
X120125000Y-74675000D02*
X120125000Y-72379942D01*
X112836091Y-74336091D02*
X114500000Y-76000000D01*
X112836091Y-74313909D02*
X112836091Y-74336091D01*
%TO.N,/MCU/TMC_{DIAG1}*%
X112700000Y-128000000D02*
X112198000Y-127498000D01*
X112198000Y-127498000D02*
X112198000Y-119215100D01*
X112198000Y-119215100D02*
X111982900Y-119000000D01*
X110600000Y-119000000D02*
X109950000Y-118350000D01*
X111982900Y-119000000D02*
X110600000Y-119000000D01*
%TO.N,/MCU/TMC_{DIAG0}*%
X112599000Y-126499000D02*
X112599000Y-119049000D01*
X111900000Y-118350000D02*
X111050000Y-118350000D01*
X112599000Y-119049000D02*
X111900000Y-118350000D01*
X113300000Y-127200000D02*
X112599000Y-126499000D01*
%TD*%
%TA.AperFunction,Conductor*%
%TO.N,GND*%
G36*
X142094452Y-54519407D02*
G01*
X142130416Y-54568907D01*
X142130416Y-54630093D01*
X142094452Y-54679591D01*
X142002804Y-54746178D01*
X141957345Y-54779206D01*
X141779206Y-54957345D01*
X141631128Y-55161157D01*
X141516759Y-55385620D01*
X141438908Y-55625219D01*
X141399500Y-55874034D01*
X141399500Y-56125965D01*
X141438908Y-56374780D01*
X141438910Y-56374785D01*
X141516759Y-56614379D01*
X141631130Y-56838845D01*
X141779207Y-57042656D01*
X141957344Y-57220793D01*
X142161155Y-57368870D01*
X142385621Y-57483241D01*
X142625215Y-57561090D01*
X142625216Y-57561090D01*
X142625219Y-57561091D01*
X142874035Y-57600500D01*
X142874038Y-57600500D01*
X143125965Y-57600500D01*
X143374780Y-57561091D01*
X143374781Y-57561090D01*
X143374785Y-57561090D01*
X143614379Y-57483241D01*
X143838845Y-57368870D01*
X144042656Y-57220793D01*
X144220793Y-57042656D01*
X144320408Y-56905547D01*
X144369907Y-56869584D01*
X144431093Y-56869584D01*
X144480593Y-56905548D01*
X144499500Y-56963739D01*
X144499500Y-146036260D01*
X144480593Y-146094451D01*
X144431093Y-146130415D01*
X144369907Y-146130415D01*
X144320407Y-146094451D01*
X144301049Y-146067808D01*
X144220793Y-145957344D01*
X144042656Y-145779207D01*
X143838845Y-145631130D01*
X143838844Y-145631129D01*
X143838842Y-145631128D01*
X143614379Y-145516759D01*
X143374780Y-145438908D01*
X143125965Y-145399500D01*
X143125962Y-145399500D01*
X142874038Y-145399500D01*
X142874035Y-145399500D01*
X142625219Y-145438908D01*
X142385620Y-145516759D01*
X142161157Y-145631128D01*
X141957345Y-145779206D01*
X141779206Y-145957345D01*
X141631128Y-146161157D01*
X141516759Y-146385620D01*
X141438908Y-146625219D01*
X141399500Y-146874034D01*
X141399500Y-147125965D01*
X141438908Y-147374780D01*
X141438910Y-147374785D01*
X141516759Y-147614379D01*
X141631130Y-147838845D01*
X141779207Y-148042656D01*
X141957344Y-148220793D01*
X142094452Y-148320408D01*
X142130416Y-148369907D01*
X142130416Y-148431093D01*
X142094452Y-148480593D01*
X142036261Y-148499500D01*
X104963739Y-148499500D01*
X104905548Y-148480593D01*
X104869584Y-148431093D01*
X104869584Y-148369907D01*
X104905547Y-148320408D01*
X105042656Y-148220793D01*
X105220793Y-148042656D01*
X105368870Y-147838845D01*
X105483241Y-147614379D01*
X105561090Y-147374785D01*
X105600500Y-147125962D01*
X105600500Y-146874038D01*
X105600500Y-146874034D01*
X105561091Y-146625219D01*
X105561090Y-146625215D01*
X105483241Y-146385621D01*
X105368870Y-146161155D01*
X105220793Y-145957344D01*
X105042656Y-145779207D01*
X104838845Y-145631130D01*
X104838844Y-145631129D01*
X104838842Y-145631128D01*
X104614379Y-145516759D01*
X104374780Y-145438908D01*
X104125965Y-145399500D01*
X104125962Y-145399500D01*
X103874038Y-145399500D01*
X103874035Y-145399500D01*
X103625219Y-145438908D01*
X103385620Y-145516759D01*
X103161157Y-145631128D01*
X102957345Y-145779206D01*
X102779206Y-145957345D01*
X102679593Y-146094451D01*
X102630092Y-146130415D01*
X102568907Y-146130415D01*
X102519407Y-146094451D01*
X102500500Y-146036260D01*
X102500500Y-133031003D01*
X122299500Y-133031003D01*
X122299500Y-133168996D01*
X122326420Y-133304327D01*
X122326420Y-133304329D01*
X122379223Y-133431808D01*
X122379224Y-133431810D01*
X122379225Y-133431811D01*
X122455886Y-133546543D01*
X126453457Y-137544114D01*
X126568189Y-137620775D01*
X126568190Y-137620775D01*
X126568191Y-137620776D01*
X126597070Y-137632738D01*
X126695672Y-137673580D01*
X126831006Y-137700500D01*
X126831007Y-137700500D01*
X127068992Y-137700500D01*
X127068993Y-137700500D01*
X127204328Y-137673580D01*
X127331811Y-137620775D01*
X127446542Y-137544114D01*
X127544114Y-137446542D01*
X127620775Y-137331811D01*
X127673580Y-137204328D01*
X127700500Y-137068993D01*
X127700500Y-136931007D01*
X127673580Y-136795672D01*
X127620775Y-136668189D01*
X127620774Y-136668187D01*
X127620771Y-136668182D01*
X127544114Y-136553458D01*
X127446545Y-136455889D01*
X127446542Y-136455886D01*
X127331811Y-136379225D01*
X127331812Y-136379225D01*
X127331810Y-136379224D01*
X127244285Y-136342970D01*
X127212167Y-136321510D01*
X123446543Y-132555886D01*
X123331811Y-132479225D01*
X123331810Y-132479224D01*
X123331808Y-132479223D01*
X123204328Y-132426420D01*
X123068996Y-132399500D01*
X123068994Y-132399500D01*
X122931006Y-132399500D01*
X122931003Y-132399500D01*
X122795672Y-132426420D01*
X122795670Y-132426420D01*
X122668191Y-132479223D01*
X122553460Y-132555883D01*
X122455883Y-132653460D01*
X122379223Y-132768191D01*
X122326420Y-132895670D01*
X122326420Y-132895672D01*
X122299500Y-133031003D01*
X102500500Y-133031003D01*
X102500500Y-118626081D01*
X106449500Y-118626081D01*
X106449500Y-118773918D01*
X106458548Y-118819407D01*
X106478342Y-118918913D01*
X106534916Y-119055495D01*
X106617049Y-119178416D01*
X106721584Y-119282951D01*
X106844505Y-119365084D01*
X106981087Y-119421658D01*
X107126082Y-119450500D01*
X107126083Y-119450500D01*
X107273917Y-119450500D01*
X107273918Y-119450500D01*
X107418913Y-119421658D01*
X107555495Y-119365084D01*
X107678416Y-119282951D01*
X107782951Y-119178416D01*
X107865084Y-119055495D01*
X107921658Y-118918913D01*
X107950500Y-118773918D01*
X107950500Y-118626082D01*
X107921658Y-118481087D01*
X107898418Y-118424980D01*
X107865086Y-118344508D01*
X107865084Y-118344505D01*
X107829127Y-118290691D01*
X109499500Y-118290691D01*
X109499500Y-118409309D01*
X109518733Y-118481087D01*
X109530202Y-118523890D01*
X109589507Y-118626608D01*
X109589509Y-118626610D01*
X109589511Y-118626613D01*
X109673387Y-118710489D01*
X109673389Y-118710490D01*
X109673391Y-118710492D01*
X109776110Y-118769797D01*
X109776111Y-118769797D01*
X109776114Y-118769799D01*
X109890691Y-118800500D01*
X109934521Y-118800500D01*
X109992712Y-118819407D01*
X110004525Y-118829496D01*
X110359540Y-119184511D01*
X110359539Y-119184511D01*
X110415489Y-119240460D01*
X110484007Y-119280019D01*
X110484011Y-119280021D01*
X110560435Y-119300499D01*
X110560437Y-119300500D01*
X110560438Y-119300500D01*
X111798500Y-119300500D01*
X111856691Y-119319407D01*
X111892655Y-119368907D01*
X111897500Y-119399500D01*
X111897500Y-127537564D01*
X111917977Y-127613985D01*
X111917978Y-127613988D01*
X111927234Y-127630020D01*
X111949419Y-127668444D01*
X111957540Y-127682511D01*
X112220505Y-127945476D01*
X112248281Y-127999991D01*
X112249500Y-128015478D01*
X112249500Y-128059309D01*
X112276574Y-128160351D01*
X112280202Y-128173890D01*
X112339507Y-128276608D01*
X112339509Y-128276610D01*
X112339511Y-128276613D01*
X112423387Y-128360489D01*
X112423389Y-128360490D01*
X112423391Y-128360492D01*
X112526110Y-128419797D01*
X112526111Y-128419797D01*
X112526114Y-128419799D01*
X112640691Y-128450500D01*
X112640693Y-128450500D01*
X112759307Y-128450500D01*
X112759309Y-128450500D01*
X112873886Y-128419799D01*
X112873888Y-128419797D01*
X112873890Y-128419797D01*
X112976608Y-128360492D01*
X112976608Y-128360491D01*
X112976613Y-128360489D01*
X113060489Y-128276613D01*
X113119799Y-128173886D01*
X113150500Y-128059309D01*
X113150500Y-127940691D01*
X113119799Y-127826114D01*
X113097230Y-127787025D01*
X113084509Y-127727178D01*
X113109395Y-127671282D01*
X113162382Y-127640689D01*
X113208587Y-127641897D01*
X113240691Y-127650500D01*
X113240693Y-127650500D01*
X113359307Y-127650500D01*
X113359309Y-127650500D01*
X113473886Y-127619799D01*
X113473888Y-127619797D01*
X113473890Y-127619797D01*
X113576608Y-127560492D01*
X113576608Y-127560491D01*
X113576613Y-127560489D01*
X113660489Y-127476613D01*
X113697232Y-127412973D01*
X113719797Y-127373890D01*
X113719797Y-127373888D01*
X113719799Y-127373886D01*
X113740128Y-127298015D01*
X113773451Y-127246704D01*
X113830572Y-127224777D01*
X113889673Y-127240612D01*
X113905758Y-127253637D01*
X114186632Y-127534511D01*
X114186631Y-127534511D01*
X114242581Y-127590460D01*
X114311099Y-127630019D01*
X114311101Y-127630020D01*
X114311103Y-127630021D01*
X114387527Y-127650499D01*
X114387529Y-127650500D01*
X114387530Y-127650500D01*
X114466654Y-127650500D01*
X115822390Y-127650500D01*
X115880581Y-127669407D01*
X115892393Y-127679495D01*
X115923387Y-127710489D01*
X115923389Y-127710490D01*
X115923390Y-127710491D01*
X115923391Y-127710492D01*
X116026110Y-127769797D01*
X116026111Y-127769797D01*
X116026114Y-127769799D01*
X116140691Y-127800500D01*
X116140693Y-127800500D01*
X116259307Y-127800500D01*
X116259309Y-127800500D01*
X116373886Y-127769799D01*
X116373888Y-127769797D01*
X116373890Y-127769797D01*
X116476608Y-127710492D01*
X116476608Y-127710491D01*
X116476613Y-127710489D01*
X116560489Y-127626613D01*
X116587285Y-127580201D01*
X116619797Y-127523890D01*
X116619797Y-127523888D01*
X116619799Y-127523886D01*
X116650500Y-127409309D01*
X116650500Y-127290691D01*
X116619799Y-127176114D01*
X116619797Y-127176111D01*
X116619797Y-127176109D01*
X116560492Y-127073391D01*
X116560490Y-127073389D01*
X116560489Y-127073387D01*
X116476613Y-126989511D01*
X116476610Y-126989509D01*
X116476608Y-126989507D01*
X116373889Y-126930202D01*
X116373890Y-126930202D01*
X116360351Y-126926574D01*
X116259309Y-126899500D01*
X116140691Y-126899500D01*
X116070567Y-126918289D01*
X116026109Y-126930202D01*
X115923391Y-126989507D01*
X115892393Y-127020505D01*
X115837876Y-127048281D01*
X115822390Y-127049500D01*
X114592571Y-127049500D01*
X114534380Y-127030593D01*
X114522567Y-127020504D01*
X113329496Y-125827433D01*
X113301719Y-125772916D01*
X113300500Y-125757429D01*
X113300500Y-117665479D01*
X113319407Y-117607288D01*
X113329496Y-117595475D01*
X113635473Y-117289498D01*
X113689990Y-117261721D01*
X113705477Y-117260502D01*
X113749305Y-117260502D01*
X113749307Y-117260502D01*
X113863884Y-117229801D01*
X113863886Y-117229799D01*
X113863888Y-117229799D01*
X113966606Y-117170494D01*
X113966606Y-117170493D01*
X113966611Y-117170491D01*
X114050487Y-117086615D01*
X114109797Y-116983888D01*
X114140498Y-116869311D01*
X114140498Y-116750693D01*
X114109797Y-116636116D01*
X114109795Y-116636113D01*
X114109795Y-116636111D01*
X114050490Y-116533393D01*
X114050488Y-116533391D01*
X114050487Y-116533389D01*
X113966611Y-116449513D01*
X113966608Y-116449511D01*
X113966606Y-116449509D01*
X113863887Y-116390204D01*
X113863888Y-116390204D01*
X113850349Y-116386576D01*
X113749307Y-116359502D01*
X113630689Y-116359502D01*
X113560565Y-116378291D01*
X113516107Y-116390204D01*
X113413389Y-116449509D01*
X113329505Y-116533393D01*
X113270200Y-116636111D01*
X113239498Y-116750694D01*
X113239498Y-116794523D01*
X113220591Y-116852714D01*
X113210502Y-116864527D01*
X112815489Y-117259540D01*
X112815488Y-117259539D01*
X112759539Y-117315489D01*
X112719980Y-117384007D01*
X112719978Y-117384011D01*
X112699500Y-117460435D01*
X112699500Y-118485521D01*
X112680593Y-118543712D01*
X112631093Y-118579676D01*
X112569907Y-118579676D01*
X112530497Y-118555525D01*
X112084510Y-118109539D01*
X112065453Y-118098536D01*
X112065453Y-118098537D01*
X112015989Y-118069979D01*
X112015988Y-118069978D01*
X112015987Y-118069978D01*
X111939564Y-118049500D01*
X111939562Y-118049500D01*
X111427610Y-118049500D01*
X111369419Y-118030593D01*
X111357607Y-118020505D01*
X111326613Y-117989511D01*
X111326610Y-117989509D01*
X111326609Y-117989508D01*
X111326608Y-117989507D01*
X111223889Y-117930202D01*
X111223890Y-117930202D01*
X111210351Y-117926574D01*
X111109309Y-117899500D01*
X110990691Y-117899500D01*
X110920567Y-117918289D01*
X110876109Y-117930202D01*
X110773391Y-117989507D01*
X110689507Y-118073391D01*
X110630202Y-118176109D01*
X110599500Y-118290692D01*
X110599500Y-118335521D01*
X110592336Y-118357568D01*
X110588710Y-118380466D01*
X110583061Y-118386114D01*
X110580593Y-118393712D01*
X110561836Y-118407339D01*
X110545445Y-118423731D01*
X110537555Y-118424980D01*
X110531093Y-118429676D01*
X110507908Y-118429676D01*
X110485013Y-118433302D01*
X110477896Y-118429676D01*
X110469907Y-118429676D01*
X110430496Y-118405525D01*
X110429496Y-118404525D01*
X110401719Y-118350008D01*
X110400500Y-118334521D01*
X110400500Y-118290692D01*
X110400500Y-118290691D01*
X110369799Y-118176114D01*
X110369797Y-118176111D01*
X110369797Y-118176109D01*
X110310492Y-118073391D01*
X110310490Y-118073389D01*
X110310489Y-118073387D01*
X110226613Y-117989511D01*
X110226610Y-117989509D01*
X110226608Y-117989507D01*
X110123889Y-117930202D01*
X110123890Y-117930202D01*
X110110351Y-117926574D01*
X110009309Y-117899500D01*
X109890691Y-117899500D01*
X109820567Y-117918289D01*
X109776109Y-117930202D01*
X109673391Y-117989507D01*
X109589507Y-118073391D01*
X109530202Y-118176109D01*
X109530201Y-118176114D01*
X109499500Y-118290691D01*
X107829127Y-118290691D01*
X107782951Y-118221584D01*
X107678416Y-118117049D01*
X107555495Y-118034916D01*
X107555493Y-118034915D01*
X107418914Y-117978342D01*
X107273918Y-117949500D01*
X107126082Y-117949500D01*
X107126081Y-117949500D01*
X106981085Y-117978342D01*
X106844506Y-118034915D01*
X106721585Y-118117048D01*
X106617048Y-118221585D01*
X106534915Y-118344506D01*
X106478342Y-118481085D01*
X106449500Y-118626081D01*
X102500500Y-118626081D01*
X102500500Y-107931006D01*
X113939500Y-107931006D01*
X113939500Y-110918995D01*
X113966420Y-111054327D01*
X113966420Y-111054329D01*
X114019222Y-111181806D01*
X114019228Y-111181817D01*
X114095885Y-111296541D01*
X114193458Y-111394114D01*
X114308182Y-111470771D01*
X114308193Y-111470777D01*
X114355283Y-111490282D01*
X114435672Y-111523580D01*
X114571007Y-111550500D01*
X114571008Y-111550500D01*
X114708992Y-111550500D01*
X114708993Y-111550500D01*
X114844328Y-111523580D01*
X114971811Y-111470775D01*
X115086542Y-111394114D01*
X115184114Y-111296542D01*
X115260775Y-111181811D01*
X115313580Y-111054328D01*
X115340500Y-110918993D01*
X115340500Y-108931003D01*
X116479500Y-108931003D01*
X116479500Y-109068996D01*
X116506420Y-109204327D01*
X116506420Y-109204329D01*
X116559223Y-109331808D01*
X116559224Y-109331810D01*
X116559225Y-109331811D01*
X116635886Y-109446543D01*
X116733457Y-109544114D01*
X116848189Y-109620775D01*
X116975672Y-109673580D01*
X117111006Y-109700500D01*
X117111007Y-109700500D01*
X117248993Y-109700500D01*
X117248994Y-109700500D01*
X117384328Y-109673580D01*
X117511811Y-109620775D01*
X117626543Y-109544114D01*
X118141160Y-109029495D01*
X118195677Y-109001719D01*
X118211164Y-109000500D01*
X123768992Y-109000500D01*
X123768993Y-109000500D01*
X123904328Y-108973580D01*
X124031811Y-108920775D01*
X124146542Y-108844114D01*
X124244114Y-108746542D01*
X124320775Y-108631811D01*
X124373580Y-108504328D01*
X124400500Y-108368993D01*
X124400500Y-108231007D01*
X124373580Y-108095672D01*
X124320775Y-107968189D01*
X124320774Y-107968187D01*
X124320771Y-107968182D01*
X124244114Y-107853458D01*
X124146541Y-107755885D01*
X124031817Y-107679228D01*
X124031806Y-107679222D01*
X123904328Y-107626420D01*
X123768995Y-107599500D01*
X123768993Y-107599500D01*
X117811007Y-107599500D01*
X117811004Y-107599500D01*
X117702591Y-107621064D01*
X117702591Y-107621065D01*
X117697237Y-107622130D01*
X117675672Y-107626419D01*
X117622866Y-107648291D01*
X117622866Y-107648292D01*
X117548189Y-107679225D01*
X117548187Y-107679226D01*
X117548188Y-107679226D01*
X117433457Y-107755887D01*
X117433453Y-107755890D01*
X116635886Y-108553456D01*
X116635885Y-108553457D01*
X116559223Y-108668191D01*
X116506420Y-108795670D01*
X116506420Y-108795672D01*
X116479500Y-108931003D01*
X115340500Y-108931003D01*
X115340500Y-108331164D01*
X115359407Y-108272973D01*
X115369496Y-108261160D01*
X116701160Y-106929496D01*
X116755677Y-106901719D01*
X116771164Y-106900500D01*
X123868993Y-106900500D01*
X123868994Y-106900500D01*
X124004328Y-106873580D01*
X124131811Y-106820775D01*
X124246543Y-106744114D01*
X124544114Y-106446543D01*
X124620775Y-106331811D01*
X124673580Y-106204328D01*
X124700500Y-106068994D01*
X124700500Y-105931006D01*
X124673580Y-105795671D01*
X124620775Y-105668189D01*
X124544114Y-105553457D01*
X124459160Y-105468503D01*
X130737000Y-105468503D01*
X130737000Y-105468506D01*
X130737000Y-105606494D01*
X130749273Y-105668191D01*
X130763920Y-105741827D01*
X130763920Y-105741829D01*
X130816723Y-105869308D01*
X130816724Y-105869310D01*
X130816725Y-105869311D01*
X130893386Y-105984043D01*
X130990957Y-106081614D01*
X131105689Y-106158275D01*
X131233172Y-106211080D01*
X131368506Y-106238000D01*
X131368507Y-106238000D01*
X131506493Y-106238000D01*
X131506494Y-106238000D01*
X131641828Y-106211080D01*
X131769311Y-106158275D01*
X131884043Y-106081614D01*
X135136161Y-102829496D01*
X135190678Y-102801719D01*
X135206165Y-102800500D01*
X136468992Y-102800500D01*
X136468993Y-102800500D01*
X136604328Y-102773580D01*
X136731811Y-102720775D01*
X136846542Y-102644114D01*
X136944114Y-102546542D01*
X137020775Y-102431811D01*
X137073580Y-102304328D01*
X137100500Y-102168993D01*
X137100500Y-102031007D01*
X137073580Y-101895672D01*
X137020775Y-101768189D01*
X137020774Y-101768187D01*
X137020771Y-101768182D01*
X136944114Y-101653458D01*
X136846541Y-101555885D01*
X136731817Y-101479228D01*
X136731806Y-101479222D01*
X136604328Y-101426420D01*
X136468995Y-101399500D01*
X136468993Y-101399500D01*
X134806007Y-101399500D01*
X134806004Y-101399500D01*
X134670672Y-101426420D01*
X134670670Y-101426420D01*
X134543191Y-101479223D01*
X134428460Y-101555883D01*
X130893383Y-105090960D01*
X130816723Y-105205691D01*
X130763920Y-105333170D01*
X130763920Y-105333172D01*
X130737000Y-105468503D01*
X124459160Y-105468503D01*
X124446543Y-105455886D01*
X124331811Y-105379225D01*
X124331810Y-105379224D01*
X124331808Y-105379223D01*
X124204329Y-105326420D01*
X124068996Y-105299500D01*
X124068994Y-105299500D01*
X123931006Y-105299500D01*
X123931003Y-105299500D01*
X123795672Y-105326420D01*
X123795670Y-105326420D01*
X123668191Y-105379223D01*
X123553460Y-105455883D01*
X123553457Y-105455885D01*
X123553457Y-105455886D01*
X123538837Y-105470505D01*
X123484323Y-105498281D01*
X123468836Y-105499500D01*
X116371004Y-105499500D01*
X116262591Y-105521064D01*
X116262591Y-105521065D01*
X116257237Y-105522130D01*
X116235672Y-105526419D01*
X116182866Y-105548291D01*
X116182866Y-105548292D01*
X116108189Y-105579225D01*
X116108186Y-105579226D01*
X116108186Y-105579227D01*
X116067380Y-105606493D01*
X115993458Y-105655886D01*
X114095883Y-107553460D01*
X114019223Y-107668191D01*
X113966420Y-107795670D01*
X113966420Y-107795672D01*
X113948586Y-107885330D01*
X113939500Y-107931006D01*
X102500500Y-107931006D01*
X102500500Y-106240691D01*
X110749500Y-106240691D01*
X110749500Y-106359309D01*
X110772873Y-106446539D01*
X110780202Y-106473890D01*
X110839507Y-106576608D01*
X110839509Y-106576610D01*
X110839511Y-106576613D01*
X110923387Y-106660489D01*
X110923389Y-106660490D01*
X110923391Y-106660492D01*
X111026110Y-106719797D01*
X111026111Y-106719797D01*
X111026114Y-106719799D01*
X111140691Y-106750500D01*
X111191711Y-106750500D01*
X111241211Y-106763764D01*
X111304007Y-106800019D01*
X111304011Y-106800021D01*
X111380435Y-106820499D01*
X111380437Y-106820500D01*
X111380438Y-106820500D01*
X111459562Y-106820500D01*
X113052390Y-106820500D01*
X113110581Y-106839407D01*
X113122393Y-106849495D01*
X113153387Y-106880489D01*
X113153389Y-106880490D01*
X113153390Y-106880491D01*
X113153391Y-106880492D01*
X113256110Y-106939797D01*
X113256111Y-106939797D01*
X113256114Y-106939799D01*
X113370691Y-106970500D01*
X113370693Y-106970500D01*
X113489307Y-106970500D01*
X113489309Y-106970500D01*
X113603886Y-106939799D01*
X113603888Y-106939797D01*
X113603890Y-106939797D01*
X113706608Y-106880492D01*
X113706608Y-106880491D01*
X113706613Y-106880489D01*
X113790489Y-106796613D01*
X113817113Y-106750500D01*
X113849797Y-106693890D01*
X113849797Y-106693888D01*
X113849799Y-106693886D01*
X113880500Y-106579309D01*
X113880500Y-106460691D01*
X113849799Y-106346114D01*
X113849797Y-106346111D01*
X113849797Y-106346109D01*
X113790492Y-106243391D01*
X113790490Y-106243389D01*
X113790489Y-106243387D01*
X113706613Y-106159511D01*
X113706610Y-106159509D01*
X113706608Y-106159507D01*
X113603889Y-106100202D01*
X113603890Y-106100202D01*
X113590351Y-106096574D01*
X113489309Y-106069500D01*
X113370691Y-106069500D01*
X113325474Y-106081616D01*
X113256109Y-106100202D01*
X113153391Y-106159507D01*
X113122393Y-106190505D01*
X113067876Y-106218281D01*
X113052390Y-106219500D01*
X111720787Y-106219500D01*
X111662596Y-106200593D01*
X111626632Y-106151093D01*
X111625160Y-106146123D01*
X111619799Y-106126114D01*
X111619797Y-106126111D01*
X111619797Y-106126109D01*
X111560492Y-106023391D01*
X111560490Y-106023389D01*
X111560489Y-106023387D01*
X111476613Y-105939511D01*
X111476610Y-105939509D01*
X111476608Y-105939507D01*
X111373889Y-105880202D01*
X111373890Y-105880202D01*
X111333244Y-105869311D01*
X111259309Y-105849500D01*
X111140691Y-105849500D01*
X111070567Y-105868289D01*
X111026109Y-105880202D01*
X110923391Y-105939507D01*
X110839507Y-106023391D01*
X110780202Y-106126109D01*
X110773508Y-106151093D01*
X110749500Y-106240691D01*
X102500500Y-106240691D01*
X102500500Y-104210691D01*
X110519500Y-104210691D01*
X110519500Y-104329309D01*
X110543936Y-104420504D01*
X110550202Y-104443890D01*
X110609507Y-104546608D01*
X110609509Y-104546610D01*
X110609511Y-104546613D01*
X110693387Y-104630489D01*
X110693389Y-104630490D01*
X110693391Y-104630492D01*
X110796110Y-104689797D01*
X110796111Y-104689797D01*
X110796114Y-104689799D01*
X110910691Y-104720500D01*
X110910693Y-104720500D01*
X111029307Y-104720500D01*
X111029309Y-104720500D01*
X111143886Y-104689799D01*
X111143888Y-104689797D01*
X111143890Y-104689797D01*
X111246608Y-104630492D01*
X111246608Y-104630491D01*
X111246613Y-104630489D01*
X111277607Y-104599495D01*
X111332124Y-104571719D01*
X111347610Y-104570500D01*
X113204521Y-104570500D01*
X113262712Y-104589407D01*
X113274525Y-104599496D01*
X113520504Y-104845475D01*
X113548281Y-104899992D01*
X113549500Y-104915479D01*
X113549500Y-104959309D01*
X113576574Y-105060351D01*
X113580202Y-105073890D01*
X113639507Y-105176608D01*
X113639509Y-105176610D01*
X113639511Y-105176613D01*
X113723387Y-105260489D01*
X113723389Y-105260490D01*
X113723391Y-105260492D01*
X113826110Y-105319797D01*
X113826111Y-105319797D01*
X113826114Y-105319799D01*
X113940691Y-105350500D01*
X113940693Y-105350500D01*
X114059307Y-105350500D01*
X114059309Y-105350500D01*
X114173886Y-105319799D01*
X114173888Y-105319797D01*
X114173890Y-105319797D01*
X114276608Y-105260492D01*
X114276608Y-105260491D01*
X114276613Y-105260489D01*
X114360489Y-105176613D01*
X114360492Y-105176608D01*
X114419797Y-105073890D01*
X114419797Y-105073888D01*
X114419799Y-105073886D01*
X114450500Y-104959309D01*
X114450500Y-104840691D01*
X114419799Y-104726114D01*
X114419797Y-104726111D01*
X114419797Y-104726109D01*
X114360492Y-104623391D01*
X114360490Y-104623389D01*
X114360489Y-104623387D01*
X114276613Y-104539511D01*
X114276610Y-104539509D01*
X114276608Y-104539507D01*
X114173889Y-104480202D01*
X114173890Y-104480202D01*
X114160351Y-104476574D01*
X114059309Y-104449500D01*
X114059307Y-104449500D01*
X114015479Y-104449500D01*
X113957288Y-104430593D01*
X113945476Y-104420504D01*
X113554510Y-104029539D01*
X113485992Y-103989980D01*
X113485988Y-103989978D01*
X113409564Y-103969500D01*
X113409562Y-103969500D01*
X111347610Y-103969500D01*
X111289419Y-103950593D01*
X111277607Y-103940505D01*
X111246613Y-103909511D01*
X111246610Y-103909509D01*
X111246609Y-103909508D01*
X111246608Y-103909507D01*
X111143889Y-103850202D01*
X111143890Y-103850202D01*
X111130351Y-103846574D01*
X111029309Y-103819500D01*
X110910691Y-103819500D01*
X110840567Y-103838289D01*
X110796109Y-103850202D01*
X110693391Y-103909507D01*
X110609507Y-103993391D01*
X110550202Y-104096109D01*
X110550201Y-104096114D01*
X110519500Y-104210691D01*
X102500500Y-104210691D01*
X102500500Y-94989572D01*
X133699500Y-94989572D01*
X133699500Y-95127563D01*
X133726420Y-95262895D01*
X133726420Y-95262897D01*
X133779222Y-95390374D01*
X133779228Y-95390385D01*
X133855885Y-95505109D01*
X133953458Y-95602682D01*
X134068182Y-95679339D01*
X134068193Y-95679345D01*
X134115283Y-95698850D01*
X134195672Y-95732148D01*
X134331007Y-95759068D01*
X134331008Y-95759068D01*
X137217825Y-95759068D01*
X137217826Y-95759068D01*
X137353161Y-95732148D01*
X137480644Y-95679343D01*
X137595375Y-95602682D01*
X137692947Y-95505110D01*
X137769608Y-95390379D01*
X137822413Y-95262896D01*
X137849333Y-95127561D01*
X137849333Y-94989575D01*
X137822413Y-94854240D01*
X137802258Y-94805581D01*
X137769610Y-94726761D01*
X137769604Y-94726750D01*
X137692947Y-94612026D01*
X137595374Y-94514453D01*
X137480650Y-94437796D01*
X137480639Y-94437790D01*
X137353161Y-94384988D01*
X137217828Y-94358068D01*
X137217826Y-94358068D01*
X134331007Y-94358068D01*
X134331004Y-94358068D01*
X134195672Y-94384988D01*
X134195670Y-94384988D01*
X134068193Y-94437790D01*
X134068182Y-94437796D01*
X133953458Y-94514453D01*
X133855885Y-94612026D01*
X133779228Y-94726750D01*
X133779222Y-94726761D01*
X133726420Y-94854238D01*
X133726420Y-94854240D01*
X133699500Y-94989572D01*
X102500500Y-94989572D01*
X102500500Y-91040691D01*
X122349500Y-91040691D01*
X122349500Y-91159309D01*
X122373934Y-91250499D01*
X122380202Y-91273890D01*
X122439507Y-91376608D01*
X122439509Y-91376610D01*
X122439511Y-91376613D01*
X122523387Y-91460489D01*
X122523389Y-91460490D01*
X122523391Y-91460492D01*
X122626110Y-91519797D01*
X122626111Y-91519797D01*
X122626114Y-91519799D01*
X122740691Y-91550500D01*
X122784521Y-91550500D01*
X122842712Y-91569407D01*
X122854525Y-91579496D01*
X123839054Y-92564025D01*
X123866831Y-92618542D01*
X123857260Y-92678974D01*
X123854787Y-92683528D01*
X123830202Y-92726110D01*
X123830201Y-92726114D01*
X123799500Y-92840691D01*
X123799500Y-92959309D01*
X123826574Y-93060351D01*
X123830202Y-93073890D01*
X123889507Y-93176608D01*
X123889509Y-93176610D01*
X123889511Y-93176613D01*
X123973387Y-93260489D01*
X123973389Y-93260490D01*
X123973391Y-93260492D01*
X124076110Y-93319797D01*
X124076111Y-93319797D01*
X124076114Y-93319799D01*
X124190691Y-93350500D01*
X124190693Y-93350500D01*
X124309307Y-93350500D01*
X124309309Y-93350500D01*
X124423886Y-93319799D01*
X124423888Y-93319797D01*
X124423890Y-93319797D01*
X124526608Y-93260492D01*
X124526608Y-93260491D01*
X124526613Y-93260489D01*
X124610489Y-93176613D01*
X124669799Y-93073886D01*
X124700500Y-92959309D01*
X124700500Y-92931003D01*
X128299500Y-92931003D01*
X128299500Y-93068996D01*
X128326420Y-93204327D01*
X128326420Y-93204329D01*
X128379223Y-93331808D01*
X128391712Y-93350500D01*
X128455886Y-93446543D01*
X128553457Y-93544114D01*
X128668189Y-93620775D01*
X128795672Y-93673580D01*
X128931006Y-93700500D01*
X128931007Y-93700500D01*
X129068993Y-93700500D01*
X129068994Y-93700500D01*
X129204328Y-93673580D01*
X129331811Y-93620775D01*
X129446543Y-93544114D01*
X130131161Y-92859496D01*
X130185678Y-92831719D01*
X130201165Y-92830500D01*
X131968992Y-92830500D01*
X131968993Y-92830500D01*
X132104328Y-92803580D01*
X132231811Y-92750775D01*
X132346542Y-92674114D01*
X132444114Y-92576542D01*
X132520775Y-92461811D01*
X132573580Y-92334328D01*
X132600500Y-92198993D01*
X132600500Y-92061007D01*
X132588564Y-92001003D01*
X133774500Y-92001003D01*
X133774500Y-92138996D01*
X133801420Y-92274327D01*
X133801420Y-92274329D01*
X133854223Y-92401808D01*
X133926806Y-92510438D01*
X133930886Y-92516543D01*
X134028457Y-92614114D01*
X134143189Y-92690775D01*
X134270672Y-92743580D01*
X134406006Y-92770500D01*
X134406007Y-92770500D01*
X134543993Y-92770500D01*
X134543994Y-92770500D01*
X134679328Y-92743580D01*
X134806811Y-92690775D01*
X134921543Y-92614114D01*
X136494966Y-91040691D01*
X137549500Y-91040691D01*
X137549500Y-91159309D01*
X137573934Y-91250499D01*
X137580202Y-91273890D01*
X137639507Y-91376608D01*
X137639509Y-91376610D01*
X137639511Y-91376613D01*
X137723387Y-91460489D01*
X137723389Y-91460490D01*
X137723391Y-91460492D01*
X137826110Y-91519797D01*
X137826111Y-91519797D01*
X137826114Y-91519799D01*
X137940691Y-91550500D01*
X137984521Y-91550500D01*
X138042712Y-91569407D01*
X138054525Y-91579496D01*
X138345504Y-91870475D01*
X138373281Y-91924992D01*
X138374500Y-91940479D01*
X138374500Y-94747390D01*
X138355593Y-94805581D01*
X138345505Y-94817393D01*
X138314507Y-94848391D01*
X138255202Y-94951109D01*
X138255201Y-94951114D01*
X138224500Y-95065691D01*
X138224500Y-95184309D01*
X138245558Y-95262897D01*
X138255202Y-95298890D01*
X138314507Y-95401608D01*
X138314509Y-95401610D01*
X138314511Y-95401613D01*
X138398387Y-95485489D01*
X138398389Y-95485490D01*
X138398391Y-95485492D01*
X138501110Y-95544797D01*
X138501111Y-95544797D01*
X138501114Y-95544799D01*
X138615691Y-95575500D01*
X138615693Y-95575500D01*
X138734307Y-95575500D01*
X138734309Y-95575500D01*
X138848886Y-95544799D01*
X138848888Y-95544797D01*
X138848890Y-95544797D01*
X138951608Y-95485492D01*
X138951608Y-95485491D01*
X138951613Y-95485489D01*
X139035489Y-95401613D01*
X139094799Y-95298886D01*
X139125500Y-95184309D01*
X139125500Y-95065691D01*
X139094799Y-94951114D01*
X139094797Y-94951111D01*
X139094797Y-94951109D01*
X139035492Y-94848391D01*
X139035491Y-94848390D01*
X139035490Y-94848389D01*
X139035489Y-94848387D01*
X139004495Y-94817393D01*
X138976719Y-94762876D01*
X138975500Y-94747390D01*
X138975500Y-91735437D01*
X138975499Y-91735435D01*
X138955021Y-91659011D01*
X138955019Y-91659007D01*
X138915460Y-91590489D01*
X138859511Y-91534539D01*
X138859511Y-91534540D01*
X138479496Y-91154525D01*
X138451719Y-91100008D01*
X138450500Y-91084521D01*
X138450500Y-91040692D01*
X138438670Y-90996541D01*
X138419799Y-90926114D01*
X138419797Y-90926111D01*
X138419797Y-90926109D01*
X138360492Y-90823391D01*
X138360490Y-90823389D01*
X138360489Y-90823387D01*
X138276613Y-90739511D01*
X138276610Y-90739509D01*
X138276608Y-90739507D01*
X138173889Y-90680202D01*
X138173890Y-90680202D01*
X138160351Y-90676574D01*
X138059309Y-90649500D01*
X137940691Y-90649500D01*
X137870567Y-90668289D01*
X137826109Y-90680202D01*
X137723391Y-90739507D01*
X137639507Y-90823391D01*
X137580202Y-90926109D01*
X137580201Y-90926114D01*
X137549500Y-91040691D01*
X136494966Y-91040691D01*
X136544114Y-90991543D01*
X136546761Y-90987580D01*
X136552362Y-90979200D01*
X136587835Y-90926109D01*
X136620775Y-90876811D01*
X136673580Y-90749328D01*
X136700500Y-90613994D01*
X136700500Y-90476006D01*
X136700500Y-88531007D01*
X136673580Y-88395672D01*
X136620775Y-88268189D01*
X136620774Y-88268187D01*
X136620771Y-88268182D01*
X136544114Y-88153458D01*
X136446541Y-88055885D01*
X136331817Y-87979228D01*
X136331806Y-87979222D01*
X136204328Y-87926420D01*
X136068995Y-87899500D01*
X136068993Y-87899500D01*
X135931007Y-87899500D01*
X135931004Y-87899500D01*
X135795672Y-87926420D01*
X135795670Y-87926420D01*
X135668193Y-87979222D01*
X135668182Y-87979228D01*
X135553458Y-88055885D01*
X135455885Y-88153458D01*
X135379228Y-88268182D01*
X135379222Y-88268193D01*
X135326420Y-88395670D01*
X135326420Y-88395672D01*
X135299500Y-88531004D01*
X135299500Y-90213835D01*
X135280593Y-90272026D01*
X135270504Y-90283839D01*
X133930883Y-91623460D01*
X133854223Y-91738191D01*
X133801420Y-91865670D01*
X133801420Y-91865672D01*
X133774500Y-92001003D01*
X132588564Y-92001003D01*
X132573580Y-91925672D01*
X132548727Y-91865672D01*
X132520777Y-91798193D01*
X132520771Y-91798182D01*
X132444114Y-91683458D01*
X132346541Y-91585885D01*
X132231817Y-91509228D01*
X132231806Y-91509222D01*
X132104328Y-91456420D01*
X131968995Y-91429500D01*
X131968993Y-91429500D01*
X129938994Y-91429500D01*
X129801006Y-91429500D01*
X129801003Y-91429500D01*
X129665672Y-91456420D01*
X129665670Y-91456420D01*
X129538191Y-91509223D01*
X129423460Y-91585883D01*
X128455883Y-92553460D01*
X128379223Y-92668191D01*
X128326420Y-92795670D01*
X128326420Y-92795672D01*
X128299500Y-92931003D01*
X124700500Y-92931003D01*
X124700500Y-92840691D01*
X124669799Y-92726114D01*
X124669797Y-92726110D01*
X124669797Y-92726109D01*
X124610492Y-92623391D01*
X124610491Y-92623390D01*
X124610490Y-92623389D01*
X124610489Y-92623387D01*
X124579495Y-92592393D01*
X124578840Y-92591107D01*
X124577575Y-92590418D01*
X124574313Y-92582222D01*
X124551719Y-92537876D01*
X124551326Y-92535149D01*
X124550500Y-92528793D01*
X124550500Y-92510438D01*
X124547569Y-92499500D01*
X124530022Y-92434012D01*
X124511429Y-92401808D01*
X124490463Y-92365493D01*
X124490462Y-92365492D01*
X124490461Y-92365491D01*
X124490460Y-92365489D01*
X123279496Y-91154525D01*
X123251719Y-91100008D01*
X123250500Y-91084521D01*
X123250500Y-91040692D01*
X123238670Y-90996541D01*
X123219799Y-90926114D01*
X123219797Y-90926111D01*
X123219797Y-90926109D01*
X123160492Y-90823391D01*
X123160490Y-90823389D01*
X123160489Y-90823387D01*
X123076613Y-90739511D01*
X123076610Y-90739509D01*
X123076608Y-90739507D01*
X122973889Y-90680202D01*
X122973890Y-90680202D01*
X122960351Y-90676574D01*
X122859309Y-90649500D01*
X122740691Y-90649500D01*
X122670567Y-90668289D01*
X122626109Y-90680202D01*
X122523391Y-90739507D01*
X122439507Y-90823391D01*
X122380202Y-90926109D01*
X122380201Y-90926114D01*
X122349500Y-91040691D01*
X102500500Y-91040691D01*
X102500500Y-71440691D01*
X106349500Y-71440691D01*
X106349500Y-71559309D01*
X106368307Y-71629496D01*
X106380202Y-71673890D01*
X106439507Y-71776608D01*
X106439509Y-71776610D01*
X106439511Y-71776613D01*
X106523387Y-71860489D01*
X106523389Y-71860490D01*
X106523391Y-71860492D01*
X106626110Y-71919797D01*
X106626111Y-71919797D01*
X106626114Y-71919799D01*
X106740691Y-71950500D01*
X106740693Y-71950500D01*
X106859307Y-71950500D01*
X106859309Y-71950500D01*
X106973886Y-71919799D01*
X106973888Y-71919797D01*
X106973890Y-71919797D01*
X107076608Y-71860492D01*
X107076608Y-71860491D01*
X107076613Y-71860489D01*
X107160489Y-71776613D01*
X107162061Y-71773890D01*
X107219797Y-71673890D01*
X107219797Y-71673888D01*
X107219799Y-71673886D01*
X107250500Y-71559309D01*
X107250500Y-71550835D01*
X107269407Y-71492644D01*
X107279496Y-71480831D01*
X108305831Y-70454496D01*
X108360348Y-70426719D01*
X108375835Y-70425500D01*
X108699217Y-70425500D01*
X108757408Y-70444407D01*
X108793372Y-70493907D01*
X108793372Y-70555093D01*
X108769222Y-70594501D01*
X108733523Y-70630201D01*
X108700499Y-70663225D01*
X108618366Y-70786146D01*
X108561793Y-70922725D01*
X108532951Y-71067721D01*
X108532951Y-71215558D01*
X108561793Y-71360554D01*
X108618365Y-71497132D01*
X108641266Y-71531405D01*
X108657951Y-71586407D01*
X108657951Y-72742242D01*
X108664683Y-72776085D01*
X108681988Y-72863084D01*
X108729139Y-72976919D01*
X108737929Y-72990074D01*
X108750757Y-73009273D01*
X108750766Y-73009285D01*
X108797594Y-73079368D01*
X108884719Y-73166492D01*
X108884720Y-73166492D01*
X111884717Y-76166490D01*
X111897023Y-76181484D01*
X111899042Y-76184505D01*
X111899047Y-76184513D01*
X111941959Y-76248735D01*
X112029085Y-76335860D01*
X112053740Y-76352333D01*
X112072823Y-76365084D01*
X112131530Y-76404312D01*
X112185004Y-76426461D01*
X112245364Y-76451463D01*
X112305201Y-76463365D01*
X112366209Y-76475500D01*
X112366210Y-76475500D01*
X112489421Y-76475500D01*
X112489422Y-76475500D01*
X112489423Y-76475500D01*
X112489424Y-76475499D01*
X112493890Y-76475059D01*
X112499263Y-76474338D01*
X112502750Y-76474091D01*
X112623082Y-76474091D01*
X112683504Y-76462072D01*
X112726267Y-76453566D01*
X112732123Y-76452402D01*
X112751434Y-76450500D01*
X112873917Y-76450500D01*
X112873918Y-76450500D01*
X113018913Y-76421658D01*
X113155495Y-76365084D01*
X113278416Y-76282951D01*
X113382951Y-76178416D01*
X113465084Y-76055495D01*
X113521658Y-75918913D01*
X113550500Y-75773918D01*
X113550500Y-75714478D01*
X113569407Y-75656287D01*
X113618907Y-75620323D01*
X113680093Y-75620323D01*
X113719501Y-75644472D01*
X114315489Y-76240460D01*
X114315491Y-76240461D01*
X114315493Y-76240463D01*
X114384008Y-76280020D01*
X114384006Y-76280020D01*
X114384010Y-76280021D01*
X114384012Y-76280022D01*
X114460438Y-76300500D01*
X114471442Y-76300500D01*
X114529633Y-76319407D01*
X114565597Y-76368907D01*
X114567068Y-76425122D01*
X114549500Y-76490691D01*
X114549500Y-76609309D01*
X114571306Y-76690691D01*
X114580202Y-76723890D01*
X114639507Y-76826608D01*
X114639509Y-76826610D01*
X114639511Y-76826613D01*
X114723387Y-76910489D01*
X114723389Y-76910490D01*
X114723391Y-76910492D01*
X114826110Y-76969797D01*
X114826111Y-76969797D01*
X114826114Y-76969799D01*
X114940691Y-77000500D01*
X118300500Y-77000500D01*
X118358691Y-77019407D01*
X118394655Y-77068907D01*
X118399500Y-77099500D01*
X118399500Y-78296443D01*
X118380593Y-78354634D01*
X118331093Y-78390598D01*
X118274877Y-78392070D01*
X118209309Y-78374501D01*
X118090691Y-78374501D01*
X118030617Y-78390598D01*
X117976109Y-78405203D01*
X117873391Y-78464508D01*
X117789507Y-78548392D01*
X117730202Y-78651111D01*
X117730201Y-78651113D01*
X117725505Y-78668638D01*
X117699883Y-78713014D01*
X117489511Y-78923387D01*
X117489507Y-78923392D01*
X117430202Y-79026111D01*
X117430201Y-79026112D01*
X117428349Y-79033022D01*
X117428350Y-79033023D01*
X117401534Y-79133104D01*
X117399500Y-79140694D01*
X117399500Y-79917944D01*
X117414922Y-79975500D01*
X117430202Y-80032527D01*
X117489507Y-80135245D01*
X117489509Y-80135247D01*
X117489511Y-80135250D01*
X117570505Y-80216244D01*
X117574130Y-80223359D01*
X117580593Y-80228055D01*
X117587756Y-80250103D01*
X117598281Y-80270759D01*
X117599500Y-80286246D01*
X117599500Y-80322389D01*
X117580593Y-80380580D01*
X117570505Y-80392391D01*
X117542395Y-80420502D01*
X117487879Y-80448281D01*
X117472390Y-80449500D01*
X114424500Y-80449500D01*
X114366309Y-80430593D01*
X114330345Y-80381093D01*
X114325500Y-80350500D01*
X114325500Y-79540692D01*
X114312102Y-79490690D01*
X114294799Y-79426114D01*
X114294797Y-79426111D01*
X114294797Y-79426109D01*
X114235492Y-79323391D01*
X114235490Y-79323389D01*
X114235489Y-79323387D01*
X114151613Y-79239511D01*
X114151610Y-79239509D01*
X114151608Y-79239507D01*
X114048889Y-79180202D01*
X114048887Y-79180201D01*
X113997492Y-79166429D01*
X113946178Y-79133104D01*
X113924253Y-79075983D01*
X113927488Y-79045188D01*
X113930748Y-79033023D01*
X113950500Y-78959309D01*
X113950500Y-78840691D01*
X113926065Y-78749500D01*
X113919799Y-78726113D01*
X113919796Y-78726107D01*
X113860492Y-78623390D01*
X113860490Y-78623388D01*
X113860489Y-78623386D01*
X113776614Y-78539511D01*
X113776611Y-78539509D01*
X113776609Y-78539507D01*
X113673890Y-78480202D01*
X113673886Y-78480200D01*
X113649673Y-78473712D01*
X113649673Y-78473713D01*
X113559309Y-78449500D01*
X113440691Y-78449500D01*
X113395508Y-78461606D01*
X113350325Y-78473713D01*
X113350324Y-78473712D01*
X113326112Y-78480201D01*
X113326109Y-78480202D01*
X113223390Y-78539507D01*
X112839510Y-78923387D01*
X112818771Y-78959308D01*
X112780201Y-79026113D01*
X112780200Y-79026116D01*
X112780198Y-79026122D01*
X112749499Y-79140693D01*
X112748653Y-79147125D01*
X112748597Y-79147117D01*
X112746127Y-79165882D01*
X112723500Y-79250328D01*
X112723500Y-81333311D01*
X112733180Y-81369436D01*
X112733180Y-81369438D01*
X112733181Y-81369438D01*
X112754202Y-81447891D01*
X112813507Y-81550609D01*
X112813511Y-81550614D01*
X112899959Y-81637063D01*
X112927736Y-81691580D01*
X112918164Y-81752012D01*
X112899959Y-81777069D01*
X112890489Y-81786540D01*
X112890488Y-81786539D01*
X112834539Y-81842489D01*
X112794980Y-81911007D01*
X112794978Y-81911011D01*
X112774500Y-81987435D01*
X112774500Y-83459521D01*
X112755593Y-83517712D01*
X112745504Y-83529525D01*
X111954525Y-84320504D01*
X111900008Y-84348281D01*
X111884521Y-84349500D01*
X111840691Y-84349500D01*
X111770567Y-84368289D01*
X111726109Y-84380202D01*
X111623391Y-84439507D01*
X111539507Y-84523391D01*
X111480202Y-84626109D01*
X111449500Y-84740692D01*
X111449500Y-84859306D01*
X111449499Y-84859306D01*
X111480202Y-84973890D01*
X111539507Y-85076608D01*
X111539509Y-85076610D01*
X111539511Y-85076613D01*
X111623387Y-85160489D01*
X111623389Y-85160490D01*
X111623391Y-85160492D01*
X111726110Y-85219797D01*
X111726111Y-85219797D01*
X111726114Y-85219799D01*
X111840691Y-85250500D01*
X111840693Y-85250500D01*
X111959307Y-85250500D01*
X111959309Y-85250500D01*
X112073886Y-85219799D01*
X112073888Y-85219797D01*
X112073890Y-85219797D01*
X112176608Y-85160492D01*
X112176608Y-85160491D01*
X112176613Y-85160489D01*
X112260489Y-85076613D01*
X112319799Y-84973886D01*
X112350500Y-84859309D01*
X112350500Y-84815479D01*
X112369407Y-84757288D01*
X112379496Y-84745475D01*
X113290460Y-83834511D01*
X113315460Y-83809511D01*
X113355021Y-83740989D01*
X113375500Y-83664562D01*
X113375500Y-82192479D01*
X113377968Y-82184881D01*
X113376719Y-82176992D01*
X113387243Y-82156336D01*
X113394407Y-82134288D01*
X113404496Y-82122475D01*
X113446475Y-82080496D01*
X113500992Y-82052719D01*
X113516479Y-82051500D01*
X118300500Y-82051500D01*
X118358691Y-82070407D01*
X118394655Y-82119907D01*
X118399500Y-82150500D01*
X118399500Y-82617947D01*
X118413297Y-82669435D01*
X118413297Y-82669437D01*
X118413298Y-82669437D01*
X118413298Y-82669438D01*
X118430201Y-82732523D01*
X118430202Y-82732525D01*
X118430203Y-82732528D01*
X118489507Y-82835245D01*
X118489511Y-82835250D01*
X118914750Y-83260490D01*
X119017478Y-83319799D01*
X119132055Y-83350500D01*
X119700500Y-83350500D01*
X119758691Y-83369407D01*
X119794655Y-83418907D01*
X119799500Y-83449500D01*
X119799500Y-84809311D01*
X119812897Y-84859306D01*
X119812897Y-84859308D01*
X119812898Y-84859308D01*
X119812898Y-84859309D01*
X119830201Y-84923887D01*
X119830202Y-84923889D01*
X119830203Y-84923892D01*
X119889507Y-85026609D01*
X119889509Y-85026611D01*
X119889511Y-85026614D01*
X120170505Y-85307608D01*
X120198281Y-85362123D01*
X120199500Y-85377610D01*
X120199500Y-85468995D01*
X120226420Y-85604327D01*
X120226420Y-85604329D01*
X120279222Y-85731806D01*
X120279228Y-85731817D01*
X120355885Y-85846541D01*
X120453458Y-85944114D01*
X120568182Y-86020771D01*
X120568193Y-86020777D01*
X120615283Y-86040282D01*
X120695672Y-86073580D01*
X120831007Y-86100500D01*
X122850500Y-86100500D01*
X122908691Y-86119407D01*
X122944655Y-86168907D01*
X122949500Y-86199500D01*
X122949500Y-88363914D01*
X122976420Y-88499245D01*
X122976420Y-88499247D01*
X123029223Y-88626726D01*
X123029224Y-88626728D01*
X123029225Y-88626729D01*
X123105886Y-88741461D01*
X123894921Y-89530496D01*
X123922698Y-89585013D01*
X123913127Y-89645445D01*
X123869862Y-89688710D01*
X123824917Y-89699500D01*
X123177610Y-89699500D01*
X123119419Y-89680593D01*
X123107607Y-89670505D01*
X123076613Y-89639511D01*
X123076610Y-89639509D01*
X123076609Y-89639508D01*
X123076608Y-89639507D01*
X122973889Y-89580202D01*
X122973890Y-89580202D01*
X122960351Y-89576574D01*
X122859309Y-89549500D01*
X122740691Y-89549500D01*
X122670567Y-89568289D01*
X122626109Y-89580202D01*
X122523391Y-89639507D01*
X122439507Y-89723391D01*
X122380202Y-89826109D01*
X122380201Y-89826114D01*
X122349500Y-89940691D01*
X122349500Y-90059309D01*
X122353954Y-90075931D01*
X122380202Y-90173890D01*
X122439507Y-90276608D01*
X122439509Y-90276610D01*
X122439511Y-90276613D01*
X122523387Y-90360489D01*
X122523389Y-90360490D01*
X122523391Y-90360492D01*
X122626110Y-90419797D01*
X122626111Y-90419797D01*
X122626114Y-90419799D01*
X122740691Y-90450500D01*
X122740693Y-90450500D01*
X122859307Y-90450500D01*
X122859309Y-90450500D01*
X122973886Y-90419799D01*
X122973888Y-90419797D01*
X122973890Y-90419797D01*
X123076608Y-90360492D01*
X123076608Y-90360491D01*
X123076613Y-90360489D01*
X123107607Y-90329495D01*
X123162124Y-90301719D01*
X123177610Y-90300500D01*
X123484572Y-90300500D01*
X123542763Y-90319407D01*
X123578727Y-90368907D01*
X123580198Y-90373876D01*
X123580200Y-90373885D01*
X123580202Y-90373889D01*
X123639507Y-90476608D01*
X123639509Y-90476610D01*
X123639511Y-90476613D01*
X123723387Y-90560489D01*
X123723389Y-90560490D01*
X123723391Y-90560492D01*
X123826110Y-90619797D01*
X123826111Y-90619797D01*
X123826114Y-90619799D01*
X123940691Y-90650500D01*
X123940693Y-90650500D01*
X124059307Y-90650500D01*
X124059309Y-90650500D01*
X124173886Y-90619799D01*
X124173888Y-90619797D01*
X124173890Y-90619797D01*
X124276608Y-90560492D01*
X124276608Y-90560491D01*
X124276613Y-90560489D01*
X124360489Y-90476613D01*
X124360795Y-90476083D01*
X124419797Y-90373890D01*
X124419797Y-90373888D01*
X124419799Y-90373886D01*
X124442728Y-90288311D01*
X124476051Y-90237000D01*
X124533172Y-90215073D01*
X124592273Y-90230908D01*
X124608358Y-90243933D01*
X124770504Y-90406079D01*
X124798281Y-90460596D01*
X124799500Y-90476083D01*
X124799500Y-90618993D01*
X124825425Y-90749328D01*
X124826420Y-90754327D01*
X124826420Y-90754329D01*
X124879222Y-90881806D01*
X124879228Y-90881817D01*
X124955885Y-90996541D01*
X125053458Y-91094114D01*
X125168182Y-91170771D01*
X125168193Y-91170777D01*
X125215283Y-91190282D01*
X125295672Y-91223580D01*
X125431007Y-91250500D01*
X125431008Y-91250500D01*
X125568992Y-91250500D01*
X125568993Y-91250500D01*
X125704328Y-91223580D01*
X125831811Y-91170775D01*
X125946542Y-91094114D01*
X126044114Y-90996542D01*
X126120775Y-90881811D01*
X126173580Y-90754328D01*
X126200500Y-90618993D01*
X126200500Y-90075925D01*
X126188478Y-90015489D01*
X126173580Y-89940590D01*
X126120775Y-89813107D01*
X126044114Y-89698375D01*
X124379496Y-88033757D01*
X124351719Y-87979240D01*
X124350500Y-87963753D01*
X124350500Y-86199500D01*
X124369407Y-86141309D01*
X124418907Y-86105345D01*
X124449500Y-86100500D01*
X127118993Y-86100500D01*
X127118994Y-86100500D01*
X127254328Y-86073580D01*
X127381811Y-86020775D01*
X127496543Y-85944114D01*
X128326571Y-85114084D01*
X128341568Y-85101778D01*
X128353040Y-85094114D01*
X131632920Y-81814234D01*
X139494500Y-81814234D01*
X139494500Y-81965766D01*
X139529086Y-82094847D01*
X139533720Y-82112139D01*
X139609481Y-82243360D01*
X139609483Y-82243362D01*
X139609485Y-82243365D01*
X139716635Y-82350515D01*
X139716637Y-82350516D01*
X139716639Y-82350518D01*
X139847861Y-82426279D01*
X139847859Y-82426279D01*
X139847863Y-82426280D01*
X139847865Y-82426281D01*
X139994234Y-82465500D01*
X139994236Y-82465500D01*
X140145764Y-82465500D01*
X140145766Y-82465500D01*
X140292135Y-82426281D01*
X140292137Y-82426279D01*
X140292139Y-82426279D01*
X140423360Y-82350518D01*
X140423360Y-82350517D01*
X140423365Y-82350515D01*
X140530515Y-82243365D01*
X140568836Y-82176992D01*
X140606279Y-82112139D01*
X140606279Y-82112137D01*
X140606281Y-82112135D01*
X140645500Y-81965766D01*
X140645500Y-81814234D01*
X140606281Y-81667865D01*
X140606279Y-81667862D01*
X140606279Y-81667860D01*
X140530518Y-81536639D01*
X140530516Y-81536637D01*
X140530515Y-81536635D01*
X140423365Y-81429485D01*
X140423362Y-81429483D01*
X140423360Y-81429481D01*
X140292138Y-81353720D01*
X140292140Y-81353720D01*
X140215963Y-81333309D01*
X140145766Y-81314500D01*
X139994234Y-81314500D01*
X139924037Y-81333309D01*
X139847860Y-81353720D01*
X139716639Y-81429481D01*
X139609481Y-81536639D01*
X139533720Y-81667860D01*
X139523215Y-81707066D01*
X139494500Y-81814234D01*
X131632920Y-81814234D01*
X131894114Y-81553040D01*
X131970775Y-81438308D01*
X132023580Y-81310825D01*
X132050500Y-81175491D01*
X132050500Y-81037503D01*
X132050500Y-76034234D01*
X139494500Y-76034234D01*
X139494500Y-76185766D01*
X139514236Y-76259421D01*
X139533720Y-76332139D01*
X139609481Y-76463360D01*
X139609483Y-76463362D01*
X139609485Y-76463365D01*
X139716635Y-76570515D01*
X139716637Y-76570516D01*
X139716639Y-76570518D01*
X139847861Y-76646279D01*
X139847859Y-76646279D01*
X139847863Y-76646280D01*
X139847865Y-76646281D01*
X139994234Y-76685500D01*
X139994236Y-76685500D01*
X140145764Y-76685500D01*
X140145766Y-76685500D01*
X140292135Y-76646281D01*
X140292137Y-76646279D01*
X140292139Y-76646279D01*
X140423360Y-76570518D01*
X140423360Y-76570517D01*
X140423365Y-76570515D01*
X140530515Y-76463365D01*
X140554595Y-76421657D01*
X140606279Y-76332139D01*
X140606279Y-76332137D01*
X140606281Y-76332135D01*
X140645500Y-76185766D01*
X140645500Y-76034234D01*
X140606281Y-75887865D01*
X140606279Y-75887862D01*
X140606279Y-75887860D01*
X140530518Y-75756639D01*
X140530516Y-75756637D01*
X140530515Y-75756635D01*
X140423365Y-75649485D01*
X140423362Y-75649483D01*
X140423360Y-75649481D01*
X140292138Y-75573720D01*
X140292140Y-75573720D01*
X140235347Y-75558503D01*
X140145766Y-75534500D01*
X139994234Y-75534500D01*
X139904652Y-75558503D01*
X139847860Y-75573720D01*
X139716639Y-75649481D01*
X139609481Y-75756639D01*
X139533720Y-75887860D01*
X139511793Y-75969693D01*
X139494500Y-76034234D01*
X132050500Y-76034234D01*
X132050500Y-75191164D01*
X132069407Y-75132973D01*
X132079490Y-75121166D01*
X134454114Y-72746543D01*
X134530775Y-72631811D01*
X134583580Y-72504328D01*
X134610500Y-72368994D01*
X134610500Y-72231006D01*
X134583580Y-72095671D01*
X134530775Y-71968189D01*
X134454114Y-71853457D01*
X134356543Y-71755886D01*
X134241811Y-71679225D01*
X134241810Y-71679224D01*
X134241808Y-71679223D01*
X134114329Y-71626420D01*
X133978996Y-71599500D01*
X133978994Y-71599500D01*
X133841006Y-71599500D01*
X133841003Y-71599500D01*
X133705672Y-71626420D01*
X133705670Y-71626420D01*
X133578191Y-71679223D01*
X133463460Y-71755883D01*
X130805883Y-74413460D01*
X130729223Y-74528191D01*
X130676420Y-74655670D01*
X130649720Y-74789899D01*
X130649513Y-74790878D01*
X130649500Y-74791003D01*
X130649500Y-80775331D01*
X130630593Y-80833522D01*
X130620504Y-80845335D01*
X127479927Y-83985911D01*
X127464930Y-83998219D01*
X127453459Y-84005884D01*
X126788839Y-84670504D01*
X126734322Y-84698281D01*
X126718835Y-84699500D01*
X120877610Y-84699500D01*
X120870012Y-84697031D01*
X120862122Y-84698281D01*
X120841468Y-84687757D01*
X120819419Y-84680593D01*
X120807606Y-84670503D01*
X120729496Y-84592392D01*
X120701719Y-84537875D01*
X120700500Y-84522389D01*
X120700500Y-82990692D01*
X120669799Y-82876114D01*
X120669799Y-82876112D01*
X120610492Y-82773390D01*
X120610490Y-82773388D01*
X120610489Y-82773386D01*
X120376614Y-82539511D01*
X120376611Y-82539509D01*
X120376609Y-82539507D01*
X120273890Y-82480202D01*
X120273886Y-82480200D01*
X120249673Y-82473712D01*
X120249673Y-82473713D01*
X120159309Y-82449500D01*
X120159307Y-82449500D01*
X119418976Y-82449500D01*
X119411378Y-82447031D01*
X119403489Y-82448281D01*
X119382833Y-82437756D01*
X119360785Y-82430593D01*
X119348972Y-82420504D01*
X119329496Y-82401028D01*
X119301719Y-82346511D01*
X119300500Y-82331024D01*
X119300500Y-76690692D01*
X119278693Y-76609309D01*
X119269799Y-76576114D01*
X119269799Y-76576113D01*
X119210490Y-76473386D01*
X119051040Y-76313937D01*
X119023263Y-76259421D01*
X119032834Y-76198989D01*
X119051037Y-76173933D01*
X120365460Y-74859511D01*
X120370662Y-74850500D01*
X120405021Y-74790989D01*
X120425500Y-74714562D01*
X120425500Y-72757551D01*
X120444407Y-72699360D01*
X120454490Y-72687553D01*
X120485489Y-72656555D01*
X120524211Y-72589487D01*
X120544797Y-72553832D01*
X120544797Y-72553830D01*
X120544799Y-72553828D01*
X120575500Y-72439251D01*
X120575500Y-72320633D01*
X120544799Y-72206056D01*
X120544797Y-72206053D01*
X120544797Y-72206051D01*
X120485492Y-72103333D01*
X120485490Y-72103331D01*
X120485489Y-72103329D01*
X120401613Y-72019453D01*
X120401610Y-72019451D01*
X120401608Y-72019449D01*
X120298889Y-71960144D01*
X120298890Y-71960144D01*
X120262898Y-71950500D01*
X120184309Y-71929442D01*
X120065691Y-71929442D01*
X119995567Y-71948231D01*
X119951109Y-71960144D01*
X119848391Y-72019449D01*
X119764507Y-72103333D01*
X119705202Y-72206051D01*
X119688192Y-72269534D01*
X119674500Y-72320633D01*
X119674500Y-72439251D01*
X119691938Y-72504329D01*
X119705202Y-72553832D01*
X119764507Y-72656550D01*
X119764509Y-72656552D01*
X119764511Y-72656555D01*
X119795505Y-72687549D01*
X119823281Y-72742064D01*
X119824500Y-72757551D01*
X119824500Y-74509521D01*
X119805593Y-74567712D01*
X119795504Y-74579525D01*
X118704525Y-75670504D01*
X118650008Y-75698281D01*
X118634521Y-75699500D01*
X114665479Y-75699500D01*
X114607288Y-75680593D01*
X114595475Y-75670504D01*
X113315587Y-74390616D01*
X113311960Y-74383498D01*
X113305498Y-74378803D01*
X113298334Y-74356754D01*
X113287810Y-74336099D01*
X113286591Y-74320612D01*
X113286591Y-74250570D01*
X113305498Y-74192379D01*
X113354998Y-74156415D01*
X113416184Y-74156415D01*
X113455595Y-74180566D01*
X114659540Y-75384511D01*
X114659539Y-75384511D01*
X114715489Y-75440460D01*
X114784007Y-75480019D01*
X114784011Y-75480021D01*
X114860435Y-75500499D01*
X114860437Y-75500500D01*
X114860438Y-75500500D01*
X117739563Y-75500500D01*
X117739563Y-75500499D01*
X117815989Y-75480021D01*
X117884511Y-75440460D01*
X117940460Y-75384511D01*
X119040460Y-74284511D01*
X119057729Y-74254600D01*
X119060674Y-74249500D01*
X119074175Y-74226114D01*
X119080021Y-74215989D01*
X119100500Y-74139562D01*
X119100500Y-72707609D01*
X119119407Y-72649418D01*
X119129490Y-72637611D01*
X119160489Y-72606613D01*
X119170379Y-72589483D01*
X119219797Y-72503890D01*
X119219797Y-72503888D01*
X119219799Y-72503886D01*
X119250500Y-72389309D01*
X119250500Y-72270691D01*
X119219799Y-72156114D01*
X119219797Y-72156111D01*
X119219797Y-72156109D01*
X119160492Y-72053391D01*
X119160490Y-72053389D01*
X119160489Y-72053387D01*
X119076613Y-71969511D01*
X119076610Y-71969509D01*
X119076608Y-71969507D01*
X118973889Y-71910202D01*
X118973890Y-71910202D01*
X118960351Y-71906574D01*
X118859309Y-71879500D01*
X118784479Y-71879500D01*
X118762431Y-71872336D01*
X118739534Y-71868710D01*
X118733885Y-71863061D01*
X118726288Y-71860593D01*
X118712660Y-71841836D01*
X118696269Y-71825445D01*
X118695019Y-71817555D01*
X118690324Y-71811093D01*
X118690324Y-71787907D01*
X118686698Y-71765013D01*
X118690324Y-71757896D01*
X118690324Y-71749907D01*
X118714475Y-71710496D01*
X118795475Y-71629496D01*
X118849992Y-71601719D01*
X118865479Y-71600500D01*
X121289563Y-71600500D01*
X121289563Y-71600499D01*
X121365989Y-71580021D01*
X121434511Y-71540460D01*
X121445476Y-71529494D01*
X121499991Y-71501719D01*
X121515478Y-71500500D01*
X121559307Y-71500500D01*
X121559309Y-71500500D01*
X121673886Y-71469799D01*
X121673888Y-71469797D01*
X121673890Y-71469797D01*
X121776608Y-71410492D01*
X121776608Y-71410491D01*
X121776613Y-71410489D01*
X121860489Y-71326613D01*
X121918829Y-71225566D01*
X121919797Y-71223890D01*
X121919797Y-71223888D01*
X121919799Y-71223886D01*
X121950500Y-71109309D01*
X121950500Y-70990691D01*
X121919799Y-70876114D01*
X121919797Y-70876110D01*
X121919797Y-70876109D01*
X121860492Y-70773391D01*
X121860490Y-70773389D01*
X121860489Y-70773387D01*
X121776613Y-70689511D01*
X121776610Y-70689509D01*
X121776608Y-70689507D01*
X121673889Y-70630202D01*
X121673890Y-70630202D01*
X121660351Y-70626574D01*
X121559309Y-70599500D01*
X121440691Y-70599500D01*
X121404084Y-70609309D01*
X121326109Y-70630202D01*
X121223391Y-70689507D01*
X121139507Y-70773391D01*
X121080202Y-70876110D01*
X121080201Y-70876114D01*
X121066800Y-70926123D01*
X121033478Y-70977437D01*
X120976357Y-70999364D01*
X120971175Y-70999500D01*
X119626609Y-70999500D01*
X119568418Y-70980593D01*
X119532454Y-70931093D01*
X119532454Y-70869907D01*
X119556603Y-70830498D01*
X119560489Y-70826613D01*
X119583853Y-70786146D01*
X119619797Y-70723890D01*
X119619797Y-70723888D01*
X119619799Y-70723886D01*
X119650500Y-70609309D01*
X119650500Y-70490691D01*
X119619799Y-70376114D01*
X119619797Y-70376111D01*
X119619797Y-70376109D01*
X119560492Y-70273391D01*
X119560490Y-70273389D01*
X119560489Y-70273387D01*
X119476613Y-70189511D01*
X119476610Y-70189509D01*
X119476608Y-70189507D01*
X119373889Y-70130202D01*
X119373890Y-70130202D01*
X119351083Y-70124091D01*
X119259309Y-70099500D01*
X119140691Y-70099500D01*
X119070567Y-70118289D01*
X119026109Y-70130202D01*
X118923391Y-70189507D01*
X118892393Y-70220505D01*
X118837876Y-70248281D01*
X118822390Y-70249500D01*
X118760435Y-70249500D01*
X118684012Y-70269978D01*
X118632252Y-70299862D01*
X118632251Y-70299861D01*
X118615491Y-70309538D01*
X115675489Y-73249540D01*
X115675488Y-73249539D01*
X115619539Y-73305489D01*
X115579980Y-73374007D01*
X115579978Y-73374011D01*
X115559500Y-73450435D01*
X115559500Y-73472390D01*
X115540593Y-73530581D01*
X115530505Y-73542393D01*
X115499507Y-73573391D01*
X115440202Y-73676109D01*
X115440201Y-73676114D01*
X115409500Y-73790691D01*
X115409500Y-73909309D01*
X115416256Y-73934521D01*
X115440202Y-74023890D01*
X115499507Y-74126608D01*
X115499509Y-74126610D01*
X115499511Y-74126613D01*
X115583387Y-74210489D01*
X115583389Y-74210490D01*
X115583391Y-74210492D01*
X115686110Y-74269797D01*
X115686111Y-74269797D01*
X115686114Y-74269799D01*
X115800691Y-74300500D01*
X115800693Y-74300500D01*
X115900500Y-74300500D01*
X115958691Y-74319407D01*
X115994655Y-74368907D01*
X115999500Y-74399500D01*
X115999500Y-74459309D01*
X116026574Y-74560351D01*
X116030202Y-74573890D01*
X116089507Y-74676608D01*
X116089509Y-74676610D01*
X116089511Y-74676613D01*
X116143396Y-74730498D01*
X116171172Y-74785013D01*
X116161601Y-74845445D01*
X116118336Y-74888710D01*
X116073391Y-74899500D01*
X115065479Y-74899500D01*
X115007288Y-74880593D01*
X114995475Y-74870504D01*
X114294378Y-74169407D01*
X113584511Y-73459540D01*
X113584508Y-73459538D01*
X113568745Y-73450437D01*
X113568745Y-73450436D01*
X113515990Y-73419979D01*
X113515985Y-73419977D01*
X113439564Y-73399500D01*
X113439562Y-73399500D01*
X112677610Y-73399500D01*
X112619419Y-73380593D01*
X112607607Y-73370505D01*
X112606875Y-73369773D01*
X112576613Y-73339511D01*
X112576610Y-73339509D01*
X112576609Y-73339508D01*
X112576608Y-73339507D01*
X112473889Y-73280202D01*
X112473890Y-73280202D01*
X112460351Y-73276574D01*
X112359309Y-73249500D01*
X112240691Y-73249500D01*
X112170567Y-73268289D01*
X112126109Y-73280202D01*
X112023391Y-73339507D01*
X111939507Y-73423391D01*
X111880202Y-73526109D01*
X111880201Y-73526114D01*
X111849500Y-73640691D01*
X111849500Y-73759309D01*
X111857909Y-73790691D01*
X111880202Y-73873890D01*
X111939507Y-73976608D01*
X111939509Y-73976610D01*
X111939511Y-73976613D01*
X112023387Y-74060489D01*
X112023389Y-74060490D01*
X112023391Y-74060492D01*
X112126110Y-74119797D01*
X112126111Y-74119797D01*
X112126114Y-74119799D01*
X112240691Y-74150500D01*
X112240693Y-74150500D01*
X112286591Y-74150500D01*
X112344782Y-74169407D01*
X112380746Y-74218907D01*
X112385591Y-74249500D01*
X112385591Y-74254599D01*
X112385591Y-74254600D01*
X112385591Y-74373218D01*
X112396373Y-74413457D01*
X112416293Y-74487799D01*
X112475598Y-74590517D01*
X112475600Y-74590519D01*
X112475602Y-74590522D01*
X112559478Y-74674398D01*
X112559480Y-74674399D01*
X112559482Y-74674401D01*
X112662201Y-74733706D01*
X112662199Y-74733706D01*
X112662203Y-74733707D01*
X112662205Y-74733708D01*
X112742714Y-74755280D01*
X112748769Y-74759212D01*
X112755961Y-74759857D01*
X112773973Y-74775580D01*
X112794026Y-74788603D01*
X112796613Y-74795344D01*
X112802055Y-74800094D01*
X112807385Y-74823405D01*
X112815953Y-74845724D01*
X112814084Y-74852699D01*
X112815694Y-74859740D01*
X112806306Y-74881729D01*
X112800118Y-74904825D01*
X112794505Y-74909370D01*
X112791670Y-74916011D01*
X112776923Y-74923607D01*
X112752568Y-74943330D01*
X112739158Y-74947415D01*
X112730040Y-74949500D01*
X112726082Y-74949500D01*
X112581087Y-74978342D01*
X112552953Y-74989995D01*
X112544829Y-74991853D01*
X112522248Y-74989829D01*
X112499644Y-74991608D01*
X112491559Y-74987080D01*
X112483888Y-74986393D01*
X112472352Y-74976323D01*
X112452756Y-74965348D01*
X111202887Y-73715479D01*
X109937947Y-72450538D01*
X109910170Y-72396021D01*
X109908951Y-72380534D01*
X109908951Y-71586407D01*
X109925636Y-71531405D01*
X109940054Y-71509827D01*
X109948535Y-71497135D01*
X110005109Y-71360553D01*
X110017938Y-71296055D01*
X110024670Y-71284035D01*
X110026826Y-71270426D01*
X110039250Y-71258001D01*
X110047835Y-71242673D01*
X110060347Y-71236904D01*
X110070091Y-71227161D01*
X110087444Y-71224412D01*
X110103400Y-71217057D01*
X110116914Y-71219745D01*
X110130523Y-71217590D01*
X110146177Y-71225566D01*
X110163410Y-71228994D01*
X110185040Y-71245367D01*
X110245504Y-71305831D01*
X110273281Y-71360348D01*
X110274500Y-71375835D01*
X110274500Y-72157147D01*
X110274500Y-72242853D01*
X110293692Y-72314479D01*
X110296683Y-72325643D01*
X110339531Y-72399857D01*
X110339532Y-72399858D01*
X110339533Y-72399859D01*
X110339535Y-72399862D01*
X110715758Y-72776085D01*
X111081671Y-73141998D01*
X111097403Y-73162501D01*
X111134405Y-73226589D01*
X111218281Y-73310465D01*
X111218283Y-73310466D01*
X111218285Y-73310468D01*
X111321004Y-73369773D01*
X111321005Y-73369773D01*
X111321008Y-73369775D01*
X111435585Y-73400476D01*
X111435587Y-73400476D01*
X111554201Y-73400476D01*
X111554203Y-73400476D01*
X111668780Y-73369775D01*
X111668782Y-73369773D01*
X111668784Y-73369773D01*
X111771502Y-73310468D01*
X111771502Y-73310467D01*
X111771507Y-73310465D01*
X111855383Y-73226589D01*
X111855386Y-73226584D01*
X111914691Y-73123866D01*
X111914691Y-73123864D01*
X111914693Y-73123862D01*
X111945394Y-73009285D01*
X111945394Y-72890667D01*
X111914693Y-72776090D01*
X111914691Y-72776087D01*
X111914691Y-72776085D01*
X111855386Y-72673367D01*
X111855384Y-72673365D01*
X111855383Y-72673363D01*
X111771507Y-72589487D01*
X111771504Y-72589485D01*
X111771502Y-72589483D01*
X111668783Y-72530178D01*
X111668784Y-72530178D01*
X111655245Y-72526550D01*
X111554203Y-72499476D01*
X111435585Y-72499476D01*
X111435583Y-72499476D01*
X111435578Y-72499477D01*
X111431021Y-72500698D01*
X111369920Y-72497492D01*
X111335401Y-72475074D01*
X110954496Y-72094169D01*
X110926719Y-72039652D01*
X110925500Y-72024165D01*
X110925500Y-71157148D01*
X110923450Y-71149497D01*
X110923450Y-71149496D01*
X110922462Y-71145812D01*
X110903318Y-71074361D01*
X110899485Y-71067722D01*
X110860468Y-71000142D01*
X110860466Y-71000140D01*
X110860465Y-71000138D01*
X109699862Y-69839535D01*
X109699859Y-69839533D01*
X109699857Y-69839531D01*
X109625642Y-69796683D01*
X109625644Y-69796683D01*
X109593521Y-69788076D01*
X109542853Y-69774500D01*
X108242853Y-69774500D01*
X108157147Y-69774500D01*
X108106478Y-69788076D01*
X108074356Y-69796683D01*
X108000142Y-69839531D01*
X106819169Y-71020504D01*
X106764652Y-71048281D01*
X106749165Y-71049500D01*
X106740691Y-71049500D01*
X106672690Y-71067721D01*
X106626109Y-71080202D01*
X106523391Y-71139507D01*
X106439507Y-71223391D01*
X106380202Y-71326109D01*
X106380067Y-71326613D01*
X106349500Y-71440691D01*
X102500500Y-71440691D01*
X102500500Y-68760691D01*
X107549500Y-68760691D01*
X107549500Y-68879309D01*
X107565185Y-68937846D01*
X107580202Y-68993890D01*
X107639507Y-69096608D01*
X107639509Y-69096610D01*
X107639511Y-69096613D01*
X107723387Y-69180489D01*
X107723389Y-69180490D01*
X107723391Y-69180492D01*
X107826110Y-69239797D01*
X107826111Y-69239797D01*
X107826114Y-69239799D01*
X107940691Y-69270500D01*
X107940693Y-69270500D01*
X108059307Y-69270500D01*
X108059309Y-69270500D01*
X108173886Y-69239799D01*
X108173888Y-69239797D01*
X108173890Y-69239797D01*
X108276608Y-69180492D01*
X108276608Y-69180491D01*
X108276613Y-69180489D01*
X108360489Y-69096613D01*
X108419799Y-68993886D01*
X108422921Y-68982232D01*
X108448546Y-68937846D01*
X108781897Y-68604496D01*
X108836413Y-68576719D01*
X108851900Y-68575500D01*
X115085256Y-68575500D01*
X115143447Y-68594407D01*
X115155259Y-68604496D01*
X115196873Y-68646109D01*
X115206284Y-68655520D01*
X115343216Y-68734577D01*
X115495943Y-68775500D01*
X115495945Y-68775500D01*
X115654055Y-68775500D01*
X115654057Y-68775500D01*
X115806784Y-68734577D01*
X115943716Y-68655520D01*
X115969229Y-68630006D01*
X115994741Y-68604496D01*
X116049258Y-68576719D01*
X116064744Y-68575500D01*
X116849058Y-68575500D01*
X116849060Y-68575500D01*
X116950921Y-68548207D01*
X116950923Y-68548205D01*
X116950925Y-68548205D01*
X117042241Y-68495483D01*
X117042241Y-68495482D01*
X117042246Y-68495480D01*
X117132291Y-68405435D01*
X122954500Y-68405435D01*
X122954500Y-71394564D01*
X122974977Y-71470985D01*
X122974981Y-71470993D01*
X122992015Y-71500499D01*
X122992016Y-71500499D01*
X122997402Y-71509827D01*
X123014540Y-71539511D01*
X123020505Y-71545476D01*
X123048281Y-71599991D01*
X123049500Y-71615478D01*
X123049500Y-71659309D01*
X123053406Y-71673886D01*
X123080202Y-71773890D01*
X123139507Y-71876608D01*
X123139509Y-71876610D01*
X123139511Y-71876613D01*
X123223387Y-71960489D01*
X123223389Y-71960490D01*
X123223391Y-71960492D01*
X123326110Y-72019797D01*
X123326111Y-72019797D01*
X123326114Y-72019799D01*
X123440691Y-72050500D01*
X123440693Y-72050500D01*
X123559307Y-72050500D01*
X123559309Y-72050500D01*
X123673886Y-72019799D01*
X123673888Y-72019797D01*
X123673890Y-72019797D01*
X123776608Y-71960492D01*
X123776608Y-71960491D01*
X123776613Y-71960489D01*
X123860489Y-71876613D01*
X123890031Y-71825445D01*
X123919797Y-71773890D01*
X123919797Y-71773888D01*
X123919799Y-71773886D01*
X123950500Y-71659309D01*
X123950500Y-71540691D01*
X123919799Y-71426114D01*
X123919797Y-71426111D01*
X123919797Y-71426109D01*
X123860492Y-71323391D01*
X123860490Y-71323389D01*
X123860489Y-71323387D01*
X123776613Y-71239511D01*
X123776610Y-71239509D01*
X123776608Y-71239507D01*
X123673889Y-71180202D01*
X123673885Y-71180200D01*
X123628876Y-71168140D01*
X123577562Y-71134816D01*
X123555636Y-71077695D01*
X123555500Y-71072514D01*
X123555500Y-68826081D01*
X124949500Y-68826081D01*
X124949500Y-68973918D01*
X124978342Y-69118914D01*
X125034915Y-69255493D01*
X125034916Y-69255495D01*
X125117049Y-69378416D01*
X125221584Y-69482951D01*
X125344505Y-69565084D01*
X125481087Y-69621658D01*
X125521513Y-69629699D01*
X125572203Y-69656793D01*
X126495504Y-70580094D01*
X126523281Y-70634611D01*
X126524500Y-70650098D01*
X126524500Y-74705231D01*
X126507816Y-74760232D01*
X126484914Y-74794506D01*
X126428342Y-74931085D01*
X126399500Y-75076081D01*
X126399500Y-75223918D01*
X126428342Y-75368914D01*
X126482847Y-75500500D01*
X126484916Y-75505495D01*
X126567049Y-75628416D01*
X126671584Y-75732951D01*
X126794505Y-75815084D01*
X126931087Y-75871658D01*
X127076082Y-75900500D01*
X127076083Y-75900500D01*
X127223917Y-75900500D01*
X127223918Y-75900500D01*
X127368913Y-75871658D01*
X127505495Y-75815084D01*
X127628416Y-75732951D01*
X127732951Y-75628416D01*
X127815084Y-75505495D01*
X127871658Y-75368913D01*
X127900500Y-75223918D01*
X127900500Y-75076082D01*
X127871658Y-74931087D01*
X127842011Y-74859512D01*
X127815085Y-74794506D01*
X127792184Y-74760232D01*
X127775500Y-74705231D01*
X127775500Y-70416507D01*
X127775501Y-70416486D01*
X127775501Y-70288395D01*
X127775501Y-70288394D01*
X127751463Y-70167549D01*
X127704313Y-70053717D01*
X127704313Y-70053716D01*
X127635858Y-69951267D01*
X127512388Y-69827797D01*
X127448873Y-69764282D01*
X130150909Y-69764282D01*
X130150909Y-69882900D01*
X130158821Y-69912426D01*
X130181611Y-69997481D01*
X130240916Y-70100199D01*
X130240918Y-70100201D01*
X130240920Y-70100204D01*
X130324796Y-70184080D01*
X130324798Y-70184081D01*
X130324800Y-70184083D01*
X130427519Y-70243388D01*
X130427520Y-70243388D01*
X130427523Y-70243390D01*
X130542100Y-70274091D01*
X130542102Y-70274091D01*
X130660716Y-70274091D01*
X130660718Y-70274091D01*
X130775295Y-70243390D01*
X130775297Y-70243388D01*
X130775299Y-70243388D01*
X130878017Y-70184083D01*
X130878017Y-70184082D01*
X130878022Y-70184080D01*
X130909016Y-70153086D01*
X130963533Y-70125310D01*
X130979019Y-70124091D01*
X132510613Y-70124091D01*
X132568804Y-70142998D01*
X132596349Y-70173590D01*
X132623436Y-70220505D01*
X132639511Y-70248347D01*
X132723387Y-70332223D01*
X132723389Y-70332224D01*
X132723391Y-70332226D01*
X132826110Y-70391531D01*
X132826111Y-70391531D01*
X132826114Y-70391533D01*
X132940691Y-70422234D01*
X132940693Y-70422234D01*
X133059307Y-70422234D01*
X133059309Y-70422234D01*
X133173886Y-70391533D01*
X133173888Y-70391531D01*
X133173890Y-70391531D01*
X133276608Y-70332226D01*
X133276608Y-70332225D01*
X133276613Y-70332223D01*
X133360489Y-70248347D01*
X133376564Y-70220505D01*
X133419797Y-70145624D01*
X133419797Y-70145622D01*
X133419799Y-70145620D01*
X133450500Y-70031043D01*
X133450500Y-69912425D01*
X133419799Y-69797848D01*
X133419797Y-69797845D01*
X133419797Y-69797843D01*
X133360492Y-69695125D01*
X133360490Y-69695123D01*
X133360489Y-69695121D01*
X133276613Y-69611245D01*
X133276610Y-69611243D01*
X133276608Y-69611241D01*
X133173889Y-69551936D01*
X133173890Y-69551936D01*
X133155386Y-69546978D01*
X133059309Y-69521234D01*
X132940691Y-69521234D01*
X132940689Y-69521234D01*
X132940684Y-69521235D01*
X132938199Y-69521901D01*
X132935627Y-69521901D01*
X132934262Y-69522081D01*
X132934238Y-69521901D01*
X132898117Y-69521904D01*
X132897850Y-69523938D01*
X132891420Y-69523091D01*
X132891419Y-69523091D01*
X132891417Y-69523091D01*
X130979019Y-69523091D01*
X130920828Y-69504184D01*
X130909016Y-69494096D01*
X130897871Y-69482951D01*
X130878022Y-69463102D01*
X130878019Y-69463100D01*
X130878018Y-69463099D01*
X130878017Y-69463098D01*
X130775298Y-69403793D01*
X130775299Y-69403793D01*
X130761760Y-69400165D01*
X130660718Y-69373091D01*
X130542100Y-69373091D01*
X130471976Y-69391880D01*
X130427518Y-69403793D01*
X130324800Y-69463098D01*
X130240916Y-69546982D01*
X130181611Y-69649700D01*
X130169441Y-69695121D01*
X130150909Y-69764282D01*
X127448873Y-69764282D01*
X126456793Y-68772203D01*
X126429699Y-68721513D01*
X126421658Y-68681087D01*
X126365084Y-68544505D01*
X126282951Y-68421584D01*
X126178416Y-68317049D01*
X126055495Y-68234916D01*
X125982161Y-68204540D01*
X125918914Y-68178342D01*
X125773918Y-68149500D01*
X125626082Y-68149500D01*
X125626081Y-68149500D01*
X125481085Y-68178342D01*
X125344506Y-68234915D01*
X125221585Y-68317048D01*
X125117048Y-68421585D01*
X125034915Y-68544506D01*
X124978342Y-68681085D01*
X124949500Y-68826081D01*
X123555500Y-68826081D01*
X123555500Y-68610479D01*
X123557968Y-68602881D01*
X123556719Y-68594992D01*
X123567243Y-68574336D01*
X123574407Y-68552288D01*
X123584496Y-68540475D01*
X123645475Y-68479496D01*
X123699992Y-68451719D01*
X123715479Y-68450500D01*
X123759307Y-68450500D01*
X123759309Y-68450500D01*
X123873886Y-68419799D01*
X123873888Y-68419797D01*
X123873890Y-68419797D01*
X123976608Y-68360492D01*
X123976608Y-68360491D01*
X123976613Y-68360489D01*
X124060489Y-68276613D01*
X124102101Y-68204540D01*
X124119797Y-68173890D01*
X124119797Y-68173888D01*
X124119799Y-68173886D01*
X124150500Y-68059309D01*
X124150500Y-67940691D01*
X124119799Y-67826114D01*
X124119797Y-67826111D01*
X124119797Y-67826109D01*
X124060492Y-67723391D01*
X124060490Y-67723389D01*
X124060489Y-67723387D01*
X123976613Y-67639511D01*
X123976610Y-67639509D01*
X123976608Y-67639507D01*
X123873889Y-67580202D01*
X123873890Y-67580202D01*
X123852610Y-67574500D01*
X123759309Y-67549500D01*
X123640691Y-67549500D01*
X123570567Y-67568289D01*
X123526109Y-67580202D01*
X123423391Y-67639507D01*
X123339507Y-67723391D01*
X123280202Y-67826109D01*
X123263037Y-67890169D01*
X123252610Y-67929087D01*
X123249500Y-67940692D01*
X123249500Y-67984521D01*
X123230593Y-68042712D01*
X123220504Y-68054525D01*
X123070489Y-68204540D01*
X123070488Y-68204539D01*
X123014539Y-68260489D01*
X122974980Y-68329007D01*
X122974978Y-68329011D01*
X122954500Y-68405435D01*
X117132291Y-68405435D01*
X119699948Y-65837778D01*
X119754465Y-65810001D01*
X119769952Y-65808782D01*
X119842106Y-65808782D01*
X119842108Y-65808782D01*
X119994835Y-65767859D01*
X120131767Y-65688802D01*
X120243571Y-65576998D01*
X120322628Y-65440066D01*
X120363551Y-65287339D01*
X120363551Y-65129225D01*
X120322628Y-64976498D01*
X120243571Y-64839566D01*
X120131767Y-64727762D01*
X119994835Y-64648705D01*
X119842108Y-64607782D01*
X119683994Y-64607782D01*
X119531267Y-64648705D01*
X119394335Y-64727762D01*
X119282531Y-64839566D01*
X119203474Y-64976498D01*
X119162551Y-65129226D01*
X119162551Y-65201381D01*
X119143644Y-65259572D01*
X119133555Y-65271385D01*
X116659436Y-67745504D01*
X116604919Y-67773281D01*
X116589432Y-67774500D01*
X116064744Y-67774500D01*
X116006553Y-67755593D01*
X115994741Y-67745504D01*
X115943718Y-67694482D01*
X115943716Y-67694480D01*
X115806784Y-67615423D01*
X115654057Y-67574500D01*
X115495943Y-67574500D01*
X115343216Y-67615423D01*
X115206281Y-67694482D01*
X115155259Y-67745504D01*
X115100742Y-67773281D01*
X115085256Y-67774500D01*
X108703806Y-67774500D01*
X108703790Y-67774499D01*
X108697727Y-67774499D01*
X108592273Y-67774499D01*
X108490412Y-67801793D01*
X108490410Y-67801794D01*
X108448288Y-67826112D01*
X108448289Y-67826113D01*
X108399085Y-67854520D01*
X108324519Y-67929086D01*
X108324520Y-67929087D01*
X108324518Y-67929089D01*
X108324517Y-67929089D01*
X107882151Y-68371454D01*
X107837775Y-68397076D01*
X107826112Y-68400201D01*
X107826110Y-68400202D01*
X107723391Y-68459507D01*
X107639507Y-68543391D01*
X107580202Y-68646109D01*
X107570830Y-68681085D01*
X107549500Y-68760691D01*
X102500500Y-68760691D01*
X102500500Y-64440691D01*
X114549500Y-64440691D01*
X114549500Y-64559309D01*
X114573454Y-64648705D01*
X114580202Y-64673890D01*
X114639507Y-64776608D01*
X114639509Y-64776610D01*
X114639511Y-64776613D01*
X114723387Y-64860489D01*
X114723389Y-64860490D01*
X114723391Y-64860492D01*
X114826110Y-64919797D01*
X114826111Y-64919797D01*
X114826114Y-64919799D01*
X114940691Y-64950500D01*
X114940693Y-64950500D01*
X115059307Y-64950500D01*
X115059309Y-64950500D01*
X115173886Y-64919799D01*
X115173888Y-64919797D01*
X115173890Y-64919797D01*
X115276608Y-64860492D01*
X115276608Y-64860491D01*
X115276613Y-64860489D01*
X115360489Y-64776613D01*
X115360492Y-64776608D01*
X115419797Y-64673890D01*
X115419797Y-64673888D01*
X115419799Y-64673886D01*
X115450500Y-64559309D01*
X115450500Y-64440691D01*
X115419799Y-64326114D01*
X115419797Y-64326111D01*
X115419797Y-64326109D01*
X115360492Y-64223391D01*
X115360490Y-64223389D01*
X115360489Y-64223387D01*
X115276613Y-64139511D01*
X115276610Y-64139509D01*
X115276608Y-64139507D01*
X115173889Y-64080202D01*
X115173890Y-64080202D01*
X115160351Y-64076574D01*
X115059309Y-64049500D01*
X114940691Y-64049500D01*
X114870567Y-64068289D01*
X114826109Y-64080202D01*
X114723391Y-64139507D01*
X114639507Y-64223391D01*
X114580202Y-64326109D01*
X114580201Y-64326114D01*
X114549500Y-64440691D01*
X102500500Y-64440691D01*
X102500500Y-61250000D01*
X121900000Y-61250000D01*
X121919698Y-61500293D01*
X121978310Y-61744428D01*
X122074388Y-61976382D01*
X122074394Y-61976394D01*
X122205569Y-62190450D01*
X122205570Y-62190452D01*
X122205571Y-62190454D01*
X122205573Y-62190456D01*
X122368629Y-62381371D01*
X122559544Y-62544427D01*
X122559546Y-62544428D01*
X122559547Y-62544429D01*
X122559549Y-62544430D01*
X122773605Y-62675605D01*
X122773617Y-62675611D01*
X123005571Y-62771689D01*
X123005573Y-62771690D01*
X123249705Y-62830301D01*
X123500000Y-62850000D01*
X123750295Y-62830301D01*
X123994427Y-62771690D01*
X124226385Y-62675610D01*
X124226389Y-62675607D01*
X124226394Y-62675605D01*
X124318912Y-62618908D01*
X124440456Y-62544427D01*
X124631371Y-62381371D01*
X124794427Y-62190456D01*
X124868908Y-62068912D01*
X124925605Y-61976394D01*
X124925607Y-61976389D01*
X124925610Y-61976385D01*
X125021690Y-61744427D01*
X125080301Y-61500295D01*
X125100000Y-61250000D01*
X125080301Y-60999705D01*
X125021690Y-60755573D01*
X124925610Y-60523615D01*
X124925605Y-60523605D01*
X124794430Y-60309549D01*
X124794429Y-60309547D01*
X124794428Y-60309546D01*
X124794427Y-60309544D01*
X124631371Y-60118629D01*
X124631364Y-60118623D01*
X124631361Y-60118620D01*
X124440452Y-59955570D01*
X124440450Y-59955569D01*
X124226394Y-59824394D01*
X124226382Y-59824388D01*
X123994428Y-59728310D01*
X123994429Y-59728310D01*
X123750293Y-59669698D01*
X123500000Y-59650000D01*
X123249706Y-59669698D01*
X123005571Y-59728310D01*
X122773617Y-59824388D01*
X122773605Y-59824394D01*
X122559549Y-59955569D01*
X122559547Y-59955570D01*
X122368638Y-60118620D01*
X122368620Y-60118638D01*
X122205570Y-60309547D01*
X122205569Y-60309549D01*
X122074394Y-60523605D01*
X122074388Y-60523617D01*
X121978310Y-60755571D01*
X121919698Y-60999706D01*
X121900000Y-61250000D01*
X102500500Y-61250000D01*
X102500500Y-56963739D01*
X102519407Y-56905548D01*
X102568907Y-56869584D01*
X102630093Y-56869584D01*
X102679591Y-56905547D01*
X102779207Y-57042656D01*
X102957344Y-57220793D01*
X103161155Y-57368870D01*
X103385621Y-57483241D01*
X103625215Y-57561090D01*
X103625216Y-57561090D01*
X103625219Y-57561091D01*
X103874035Y-57600500D01*
X103874038Y-57600500D01*
X104125965Y-57600500D01*
X104374780Y-57561091D01*
X104374781Y-57561090D01*
X104374785Y-57561090D01*
X104614379Y-57483241D01*
X104838845Y-57368870D01*
X105042656Y-57220793D01*
X105220793Y-57042656D01*
X105368870Y-56838845D01*
X105483241Y-56614379D01*
X105561090Y-56374785D01*
X105600500Y-56125962D01*
X105600500Y-55874038D01*
X105600500Y-55874034D01*
X105561091Y-55625219D01*
X105561090Y-55625215D01*
X105483241Y-55385621D01*
X105368870Y-55161155D01*
X105220793Y-54957344D01*
X105042656Y-54779207D01*
X104905547Y-54679591D01*
X104869584Y-54630093D01*
X104869584Y-54568907D01*
X104905548Y-54519407D01*
X104963739Y-54500500D01*
X142036261Y-54500500D01*
X142094452Y-54519407D01*
G37*
%TD.AperFunction*%
%TD*%
M02*
