%TF.GenerationSoftware,KiCad,Pcbnew,10.0.1*%
%TF.CreationDate,2026-07-07T13:59:25+01:00*%
%TF.ProjectId,oe-commutator-controller,6f652d63-6f6d-46d7-9574-61746f722d63,J*%
%TF.SameCoordinates,PX6146580PY8e18f40*%
%TF.FileFunction,Copper,L3,Inr*%
%TF.FilePolarity,Positive*%
%FSLAX46Y46*%
G04 Gerber Fmt 4.6, Leading zero omitted, Abs format (unit mm)*
G04 Created by KiCad (PCBNEW 10.0.1) date 2026-07-07 13:59:25*
%MOMM*%
%LPD*%
G01*
G04 APERTURE LIST*
%TA.AperFunction,ViaPad*%
%ADD10C,0.500000*%
%TD*%
%TA.AperFunction,ViaPad*%
%ADD11C,0.900000*%
%TD*%
%TA.AperFunction,ViaPad*%
%ADD12C,0.800000*%
%TD*%
G04 APERTURE END LIST*
D10*
%TO.N,GND*%
X35600000Y73800000D03*
X13000000Y25750000D03*
X36700000Y50000000D03*
X9900000Y86700000D03*
X41150000Y63050000D03*
X28810000Y10840000D03*
X16000000Y83049997D03*
X7400000Y66500000D03*
X34800000Y81300000D03*
X13900000Y24250000D03*
X36800000Y89200000D03*
X5000000Y40300000D03*
X11700000Y14900000D03*
X11700000Y20600000D03*
X16400000Y23500000D03*
X13000000Y59500000D03*
X13250000Y48350000D03*
X29200000Y8500000D03*
X2200000Y15450000D03*
X4450000Y68650000D03*
X31800000Y42200000D03*
X2000000Y90000000D03*
X40700000Y73200000D03*
X13000000Y26500000D03*
X14000000Y70000000D03*
X37300000Y7600000D03*
X35175000Y56607475D03*
X24620000Y25240000D03*
X33400000Y72900000D03*
X21600000Y55500000D03*
X11400000Y71000000D03*
X26200000Y67700000D03*
X27000000Y72300000D03*
X32000000Y5500000D03*
X30800000Y39500000D03*
X22100000Y32800000D03*
X40855000Y67000000D03*
X18350000Y89792136D03*
X18850000Y62550000D03*
X15500000Y23500000D03*
X22970000Y6760000D03*
X37100000Y84000000D03*
X39000000Y77900000D03*
X4500000Y78400000D03*
X14700000Y23500000D03*
X13000000Y25000000D03*
X35600000Y88200000D03*
X37900000Y62600000D03*
X3100000Y68250000D03*
X32200000Y89200000D03*
X4000000Y38200000D03*
X7000000Y30300000D03*
X16400000Y25000000D03*
X21750000Y66650000D03*
X27400000Y89800000D03*
X37300000Y36300000D03*
X4900000Y25250000D03*
X6620000Y69250000D03*
X33200000Y70000000D03*
X13900000Y25750000D03*
X5800000Y69400000D03*
X40450000Y55100000D03*
X6346992Y23325479D03*
X30500000Y78400000D03*
X13400000Y62400000D03*
X14700000Y24250000D03*
X39400000Y66800000D03*
X29300000Y49100000D03*
X32200000Y88400000D03*
X30000000Y93000000D03*
X13000000Y24250000D03*
X19200000Y19000000D03*
X26400000Y86700000D03*
X35700000Y50900000D03*
X9150000Y28550000D03*
X36800000Y63100000D03*
X13900000Y25000000D03*
X11500000Y55000000D03*
X22410000Y23740000D03*
X36700000Y50900000D03*
X15870000Y48490000D03*
X12800000Y68800000D03*
X31400000Y89200000D03*
X2200000Y36750000D03*
X30100000Y77700000D03*
X5300000Y74250000D03*
X11100000Y46000000D03*
X6300000Y33000000D03*
X38100000Y7600000D03*
X33200000Y67500000D03*
X4360000Y45180000D03*
X8150000Y60000000D03*
X38050000Y70900000D03*
X6300000Y34200000D03*
X31500000Y15300000D03*
X21100000Y72900000D03*
D11*
X38000000Y29000000D03*
D10*
X6200000Y64700000D03*
X33550000Y89100000D03*
X25000000Y81500000D03*
X21500000Y69600000D03*
X2250000Y65500000D03*
X32810000Y1500000D03*
X9000000Y21900000D03*
X12000000Y43200000D03*
D11*
X33200000Y20500000D03*
D10*
X24000000Y7000000D03*
X32000000Y41000000D03*
X6200000Y67900000D03*
X2200000Y22400000D03*
X21650000Y18950000D03*
X9000000Y60800000D03*
X12511091Y56000000D03*
X15500000Y26500000D03*
X24000000Y59700000D03*
X9090000Y46060000D03*
X23700000Y29900000D03*
X7300000Y80000000D03*
X12800000Y85700000D03*
X39500000Y38500000D03*
X20400000Y17950000D03*
X14000000Y29900000D03*
X30800000Y70000000D03*
D11*
X33000000Y34000000D03*
D10*
X11700000Y79350000D03*
X15500000Y25750000D03*
X11600000Y29450000D03*
X42200000Y72000000D03*
X16400000Y26500000D03*
X10650000Y17250000D03*
X13900000Y23500000D03*
X31900000Y55070000D03*
X20400000Y55500000D03*
X2080000Y63700000D03*
X32800000Y79700000D03*
X16600000Y17100000D03*
X17450000Y77130000D03*
X18020000Y14530000D03*
X4730000Y76660000D03*
X15500000Y24250000D03*
X23790000Y23600000D03*
X25700000Y13350000D03*
X41600000Y77500000D03*
X26000000Y21600000D03*
X2000000Y5000000D03*
X40300000Y51200000D03*
X8820000Y960000D03*
X37000000Y3000000D03*
X9000000Y79212500D03*
X20500000Y29900000D03*
X10750000Y79250000D03*
X17370000Y55810000D03*
X35800000Y81325000D03*
X17600000Y27400000D03*
X28300000Y74800000D03*
X11700000Y27500000D03*
X30800000Y67700000D03*
X20550000Y22250000D03*
X7000000Y93000000D03*
X33000000Y48000000D03*
X34300000Y89100000D03*
X35500000Y76900000D03*
X19350000Y46200000D03*
X28000000Y43900000D03*
X9700000Y82300000D03*
X34700000Y50000000D03*
X17450000Y63700000D03*
X7100000Y25500000D03*
X27320000Y7100000D03*
X26000000Y60200000D03*
X30600000Y88400000D03*
X10130000Y3870000D03*
X21561091Y47038909D03*
X9200000Y43810000D03*
X6200000Y84100000D03*
X34950000Y10800000D03*
X34490000Y57500000D03*
X9200000Y66100000D03*
X29050000Y59350000D03*
X5000000Y4000000D03*
D11*
X28000000Y29000000D03*
D10*
X35900000Y66100000D03*
X750000Y80500000D03*
X23750000Y36750000D03*
X39200000Y73500000D03*
X1230000Y32030000D03*
X30600000Y65000000D03*
X7600000Y36000000D03*
X19400000Y84890000D03*
X2400000Y8600000D03*
X25000000Y7000000D03*
X3064576Y80086157D03*
X31400000Y52900000D03*
X31900000Y79900000D03*
X13900000Y26500000D03*
X5390000Y24000000D03*
X13000000Y93000000D03*
X16740000Y52340000D03*
X41181976Y6038818D03*
X41000000Y83000000D03*
X5400000Y9500000D03*
X16400000Y24250000D03*
X26400000Y58000000D03*
X21750000Y65600000D03*
X7600000Y58300000D03*
X8000000Y9500000D03*
X3590000Y70558447D03*
X16400000Y25750000D03*
X38900000Y7600000D03*
X15500000Y25000000D03*
X2800000Y30300000D03*
D11*
X33230000Y29370000D03*
D10*
X20200000Y58500000D03*
X24640000Y10760000D03*
X11700000Y31200000D03*
X19100000Y80300000D03*
X30350000Y46450000D03*
X23700000Y72900000D03*
X31400000Y88400000D03*
X32850000Y77500000D03*
X23000000Y62600000D03*
X22300000Y25250000D03*
X9950000Y14580000D03*
X30600000Y89200000D03*
X4300000Y85700000D03*
X13000000Y23500000D03*
X21650000Y44400000D03*
X15200000Y68800000D03*
X12800000Y71200000D03*
X32775000Y44900000D03*
X26400000Y10550000D03*
X15200000Y71200000D03*
X2700000Y66900000D03*
X12100000Y75600000D03*
X21750000Y64600000D03*
X14700000Y25750000D03*
X7900000Y71700000D03*
X19800000Y75800000D03*
X20200000Y57200000D03*
X15400000Y60400000D03*
X5302494Y70998753D03*
X34700000Y50900000D03*
X10100000Y40300000D03*
X8800000Y41500000D03*
X3500000Y33500000D03*
X32450000Y85900000D03*
X5000000Y2000000D03*
X16400000Y43800000D03*
X32600000Y83400000D03*
X12500000Y58000000D03*
X39500000Y36300000D03*
X37300000Y38500000D03*
X20860000Y1280000D03*
X12100000Y80150000D03*
X15600000Y35700000D03*
X25300000Y47000000D03*
X28700000Y80700000D03*
X3270000Y41710000D03*
X35700000Y50000000D03*
X14700000Y26500000D03*
X21000000Y89800000D03*
X21500000Y70600000D03*
X31800000Y58500000D03*
X7500000Y40300000D03*
X35300000Y79100000D03*
X900000Y15700000D03*
X23340000Y7810000D03*
X16600000Y17900000D03*
X14700000Y25000000D03*
D12*
%TO.N,+5V*%
X29437500Y43462500D03*
X34400000Y46900000D03*
D10*
%TO.N,+3.3V*%
X13000000Y72450000D03*
X28601409Y79176409D03*
X18100000Y66100000D03*
X9900000Y64200000D03*
X16450000Y72450000D03*
D11*
X22000000Y43000000D03*
D12*
X13575000Y80825000D03*
D11*
X23500000Y58450000D03*
D10*
X31000000Y79028266D03*
X16565853Y69414541D03*
D11*
X12640000Y38150000D03*
D12*
X17763051Y83791718D03*
D11*
X31910000Y76700000D03*
D10*
X6000000Y80180000D03*
X17191364Y66100000D03*
X13000000Y67400000D03*
D11*
X18900000Y63600000D03*
D10*
X11500000Y70100000D03*
%TO.N,Net-(U2-VREG_VOUT)*%
X11875000Y69400000D03*
X16150000Y70174999D03*
X16050000Y68450000D03*
D11*
%TO.N,VBUS*%
X32475000Y56930000D03*
X29900000Y56870000D03*
X15180000Y40000000D03*
X27000000Y56000000D03*
X21700000Y40700000D03*
X34000000Y60400000D03*
%TO.N,Net-(U6-VMID)*%
X32400000Y53941432D03*
X35148833Y53941432D03*
D10*
%TO.N,Net-(J1-Pin_2)*%
X8970000Y44730000D03*
X12000000Y44100000D03*
%TO.N,Net-(J1-Pin_4)*%
X11430000Y42480000D03*
X9200000Y42700000D03*
%TO.N,/MCU/QSPI_{~{CS}}*%
X21700000Y81000000D03*
X21500000Y77400000D03*
%TO.N,/MCU/LTC44_{~{PFO}}*%
X36675000Y53875000D03*
X36000000Y57900000D03*
%TO.N,/MCU/IS31_{BM}*%
X13860000Y75150000D03*
X17200000Y78450000D03*
%TO.N,/MCU/IS31_{EN}*%
X19500000Y77950000D03*
X14450000Y74600000D03*
%TO.N,/Touch Sensors/CCW*%
X10800000Y73300000D03*
X7283451Y77858360D03*
%TO.N,/Touch Sensors/MODE*%
X13000000Y84500000D03*
%TO.N,/Touch Sensors/CW*%
X23700000Y80100000D03*
X25150000Y73850000D03*
%TO.N,/Touch Sensors/STOP*%
X5200000Y30300000D03*
%TO.N,/MCU/TMC_{~{CS}}*%
X20800000Y57900000D03*
X22250000Y56100000D03*
%TO.N,/MCU/SCLK*%
X20800000Y59000000D03*
X22000000Y58800000D03*
%TO.N,/MCU/TMC_{~{EN}}*%
X11689998Y32189998D03*
X14200000Y21650000D03*
%TO.N,/MCU/ALERT#*%
X4800000Y77500000D03*
X9494894Y76050024D03*
D11*
%TO.N,+12V*%
X21000000Y15900000D03*
X25000000Y12000000D03*
D10*
%TO.N,/MCU/UART0_RX*%
X16800000Y76670000D03*
X10300000Y75300000D03*
%TO.N,/MCU/UART0_TX*%
X18125000Y76620058D03*
X10836091Y74686091D03*
%TO.N,/MCU/TMC_{DIAG1}*%
X7950000Y30650000D03*
X10700000Y21000000D03*
%TO.N,/MCU/TMC_{DIAG0}*%
X11300000Y21800000D03*
X9050000Y30650000D03*
%TD*%
M02*
