%TF.GenerationSoftware,KiCad,Pcbnew,8.0.5*%
%TF.CreationDate,2024-12-09T17:10:56-05:00*%
%TF.ProjectId,oe-commutator-controller,6f652d63-6f6d-46d7-9574-61746f722d63,F*%
%TF.SameCoordinates,Original*%
%TF.FileFunction,Copper,L2,Inr*%
%TF.FilePolarity,Positive*%
%FSLAX46Y46*%
G04 Gerber Fmt 4.6, Leading zero omitted, Abs format (unit mm)*
G04 Created by KiCad (PCBNEW 8.0.5) date 2024-12-09 17:10:56*
%MOMM*%
%LPD*%
G01*
G04 APERTURE LIST*
%TA.AperFunction,ViaPad*%
%ADD10C,0.500000*%
%TD*%
%TA.AperFunction,ViaPad*%
%ADD11C,0.800000*%
%TD*%
%TA.AperFunction,ViaPad*%
%ADD12C,0.900000*%
%TD*%
%TA.AperFunction,Conductor*%
%ADD13C,0.200000*%
%TD*%
%TA.AperFunction,Conductor*%
%ADD14C,0.250000*%
%TD*%
%TA.AperFunction,Conductor*%
%ADD15C,1.000000*%
%TD*%
%TA.AperFunction,Conductor*%
%ADD16C,0.400000*%
%TD*%
%TA.AperFunction,Conductor*%
%ADD17C,0.500000*%
%TD*%
G04 APERTURE END LIST*
D10*
%TO.N,GND*%
X135000000Y-120000000D03*
X104000000Y-59000000D03*
X141700000Y-94400000D03*
X111900000Y-62300000D03*
X109000000Y-56000000D03*
X143000000Y-66000000D03*
X129000000Y-76700000D03*
X133900000Y-93930000D03*
X119450000Y-71870000D03*
X112790000Y-74350000D03*
X109100000Y-73900000D03*
X105500000Y-115500000D03*
X104700000Y-82500000D03*
X105064576Y-68913843D03*
X106500000Y-70600000D03*
X106800000Y-72300000D03*
%TO.N,/MCU/UART0_TX*%
X112400000Y-75000000D03*
%TO.N,/MCU/ALERT#*%
X111350000Y-72950000D03*
X106800000Y-71500000D03*
%TO.N,/MCU/UART0_RX*%
X112166091Y-73783909D03*
%TO.N,GND*%
X113320000Y-73000000D03*
%TO.N,/Touch Sensors/CCW*%
X112319142Y-75850000D03*
D11*
%TO.N,+3.3V*%
X115575000Y-68175000D03*
D10*
%TO.N,GND*%
X104800000Y-118700000D03*
X111700000Y-66700000D03*
%TO.N,/Touch Sensors/CCW*%
X109283451Y-71141640D03*
%TO.N,GND*%
X112700000Y-101200000D03*
X136800000Y-75200000D03*
X115000000Y-123250000D03*
X140700000Y-85400000D03*
X122500000Y-141000000D03*
X137700000Y-99000000D03*
X118000000Y-65950003D03*
X109400000Y-82500000D03*
X136800000Y-67700000D03*
X115900000Y-124750000D03*
X138800000Y-59800000D03*
X107000000Y-108700000D03*
X113700000Y-134100000D03*
X118400000Y-125500000D03*
X116600000Y-92700000D03*
X114600000Y-93500000D03*
X131200000Y-140500000D03*
X105000000Y-128000000D03*
X106300000Y-79750000D03*
X132800000Y-106600000D03*
X141300000Y-79000000D03*
X115000000Y-122500000D03*
X116000000Y-79000000D03*
X139300000Y-141400000D03*
X137175000Y-92392525D03*
X134300000Y-78400000D03*
X123600000Y-93500000D03*
X113400000Y-78000000D03*
X127900000Y-82800000D03*
X134000000Y-143500000D03*
X132800000Y-109500000D03*
X124100000Y-116200000D03*
X140800000Y-82800000D03*
X117800000Y-91700000D03*
X120350000Y-59207864D03*
X119900000Y-85400000D03*
X117500000Y-125500000D03*
X125000000Y-142000000D03*
X118000000Y-138000000D03*
X139100000Y-65000000D03*
X139600000Y-72600000D03*
X116700000Y-125500000D03*
X115000000Y-124000000D03*
X137600000Y-60800000D03*
X139500000Y-85400000D03*
X134200000Y-59800000D03*
X110800000Y-114800000D03*
X118400000Y-124000000D03*
X123750000Y-82350000D03*
X129400000Y-59200000D03*
X139300000Y-112700000D03*
X106900000Y-123750000D03*
X108670000Y-79600000D03*
X115900000Y-123250000D03*
X107100000Y-79000000D03*
X132500000Y-70600000D03*
X115400000Y-86600000D03*
X116700000Y-124750000D03*
X139500000Y-82800000D03*
X131300000Y-99900000D03*
X134200000Y-60600000D03*
X132000000Y-56000000D03*
X115000000Y-124750000D03*
X121200000Y-130000000D03*
X128400000Y-62300000D03*
X112161091Y-119061091D03*
X136900000Y-85400000D03*
X115900000Y-124000000D03*
X104000000Y-140400000D03*
X106800000Y-92300000D03*
X114700000Y-80300000D03*
X114800000Y-62500000D03*
X133400000Y-59800000D03*
X132100000Y-71300000D03*
X106300000Y-73905384D03*
X138600000Y-98150000D03*
X112500000Y-93200000D03*
X108300000Y-116000000D03*
X140100000Y-141400000D03*
X110300000Y-89200000D03*
X139150000Y-79000000D03*
X108300000Y-114800000D03*
X133500000Y-133700000D03*
X123100000Y-76100000D03*
D12*
X140000000Y-120000000D03*
D10*
X136800000Y-99000000D03*
X108300000Y-84500000D03*
X135550000Y-59900000D03*
X127000000Y-67500000D03*
X123500000Y-79400000D03*
X104900000Y-80300000D03*
X134000000Y-147000000D03*
X111100000Y-127000000D03*
X114200000Y-105100000D03*
D12*
X135200000Y-128500000D03*
D10*
X126000000Y-142000000D03*
X134000000Y-108000000D03*
X108200000Y-81100000D03*
X105600000Y-126200000D03*
X123650000Y-130050000D03*
X111000000Y-88200000D03*
X115900000Y-95900000D03*
X117500000Y-122500000D03*
X126000000Y-89300000D03*
X110650000Y-101100000D03*
X125700000Y-119100000D03*
X109250000Y-69200000D03*
X114800000Y-63300000D03*
X141500000Y-110500000D03*
X122400000Y-131050000D03*
X115961091Y-119861091D03*
X115000000Y-138000000D03*
D12*
X135000000Y-115000000D03*
D10*
X113700000Y-69650000D03*
X117500000Y-123250000D03*
X113600000Y-119550000D03*
X140800000Y-75200000D03*
X102900000Y-88000000D03*
X118400000Y-122500000D03*
X115900000Y-125500000D03*
X122000000Y-94000000D03*
X138600000Y-99000000D03*
X134800000Y-69300000D03*
X116700000Y-132650000D03*
X111000000Y-135000000D03*
X117500000Y-124750000D03*
X125400000Y-125150000D03*
X127700000Y-135650000D03*
X140800000Y-72600000D03*
X128000000Y-127400000D03*
X136800000Y-98150000D03*
X137700000Y-98150000D03*
X104000000Y-144000000D03*
X142300000Y-97800000D03*
X119500000Y-82600000D03*
X121000000Y-142000000D03*
X113000000Y-147000000D03*
X139000000Y-146000000D03*
X111000000Y-69787500D03*
X122500000Y-119100000D03*
X114800000Y-61600000D03*
X112750000Y-69750000D03*
X120650000Y-94872183D03*
X137800000Y-67675000D03*
X119600000Y-121600000D03*
X130300000Y-74200000D03*
X113700000Y-121000000D03*
X133600000Y-82200000D03*
X122550000Y-126750000D03*
X135000000Y-101000000D03*
X136300000Y-59900000D03*
X136800000Y-72600000D03*
X122000000Y-102000000D03*
X118900000Y-85400000D03*
X109100000Y-123500000D03*
X128400000Y-141550000D03*
X128000000Y-88800000D03*
X132600000Y-60600000D03*
X111100000Y-144900000D03*
X123561091Y-101961091D03*
X112000000Y-105700000D03*
X107900000Y-64500000D03*
X136950000Y-138200000D03*
X136490000Y-91500000D03*
X111200000Y-82900000D03*
X132400000Y-89500000D03*
X107000000Y-145000000D03*
D12*
X130000000Y-120000000D03*
D10*
X136900000Y-82900000D03*
X104700000Y-64600000D03*
X125750000Y-112250000D03*
X139500000Y-75200000D03*
X131100000Y-83700000D03*
X117600000Y-142000000D03*
X121400000Y-64110000D03*
X127000000Y-142000000D03*
X133400000Y-96100000D03*
X133900000Y-69100000D03*
X115900000Y-122500000D03*
X115000000Y-56000000D03*
X119950000Y-98100000D03*
X143181976Y-142961182D03*
X107400000Y-139500000D03*
X118400000Y-124750000D03*
X128400000Y-91000000D03*
X123750000Y-83400000D03*
X110000000Y-139500000D03*
X105050000Y-75000000D03*
X118400000Y-123250000D03*
X140900000Y-141400000D03*
X117500000Y-124000000D03*
X122400000Y-90400000D03*
X113700000Y-117800000D03*
X121100000Y-68700000D03*
X132350000Y-102550000D03*
X125700000Y-76100000D03*
X133400000Y-60600000D03*
X134850000Y-71500000D03*
X125000000Y-86400000D03*
X124300000Y-123750000D03*
X109000000Y-133000000D03*
X132600000Y-59800000D03*
X106300000Y-63300000D03*
X115000000Y-125500000D03*
X123650000Y-104100000D03*
X117200000Y-80200000D03*
X114800000Y-77800000D03*
X134775000Y-104100000D03*
X128400000Y-138450000D03*
X117200000Y-77800000D03*
X105000000Y-98700000D03*
X114100000Y-73400000D03*
X109600000Y-102100000D03*
X123750000Y-84400000D03*
X116700000Y-123250000D03*
X109700000Y-76700000D03*
X121800000Y-73200000D03*
X122200000Y-91800000D03*
X117400000Y-88700000D03*
X108500000Y-77700000D03*
X112100000Y-108700000D03*
X134450000Y-63100000D03*
X107000000Y-147000000D03*
X119100000Y-105000000D03*
X134600000Y-65600000D03*
X141500000Y-112700000D03*
X139300000Y-110500000D03*
X113000000Y-143500000D03*
X114100000Y-68850000D03*
X117000000Y-107500000D03*
X127300000Y-102000000D03*
X130700000Y-68300000D03*
X116700000Y-122500000D03*
X123000000Y-59200000D03*
X123500000Y-78400000D03*
X133800000Y-90500000D03*
X109500000Y-108700000D03*
X137300000Y-69900000D03*
X125600000Y-140500000D03*
X118000000Y-131700000D03*
X116700000Y-124000000D03*
D11*
%TO.N,+5V*%
X131437500Y-105537500D03*
X136400000Y-102100000D03*
D10*
%TO.N,+3.3V*%
X130601409Y-69823591D03*
X111900000Y-84800000D03*
D12*
X124000000Y-106000000D03*
X127050000Y-90000000D03*
D10*
X133000000Y-69971734D03*
D12*
X114640000Y-108000000D03*
D11*
X119763051Y-65208282D03*
D12*
X133910000Y-72300000D03*
D10*
X108000000Y-68820000D03*
D12*
X120900000Y-85400000D03*
D10*
X113500000Y-78900000D03*
%TO.N,Net-(U2-VREG_VOUT)*%
X113875000Y-79600000D03*
X118550002Y-78500000D03*
X118500000Y-80800000D03*
D12*
%TO.N,VBUS*%
X134475000Y-92070000D03*
X131900000Y-92130000D03*
X117180000Y-109000000D03*
X129000000Y-93000000D03*
X123700000Y-108300000D03*
X136000000Y-88000000D03*
%TO.N,Net-(U6-VMID)*%
X134400000Y-95058568D03*
X137148833Y-95058568D03*
D10*
%TO.N,Net-(J1-Pin_2)*%
X114500000Y-119000000D03*
X112300000Y-104000000D03*
X116000000Y-119000000D03*
X114100000Y-104000000D03*
%TO.N,Net-(J1-Pin_4)*%
X113659999Y-108000000D03*
X111950000Y-107650000D03*
%TO.N,/MCU/QSPI_{~{CS}}*%
X123700000Y-68000000D03*
X123500000Y-71600000D03*
%TO.N,/MCU/LTC44_{~{PFO}}*%
X138685000Y-95115000D03*
X138000000Y-91100000D03*
%TO.N,/MCU/IS31_{BM}*%
X115860000Y-73850000D03*
X119200000Y-70550000D03*
%TO.N,/MCU/IS31_{EN}*%
X121500000Y-71050000D03*
X116450000Y-74400000D03*
%TO.N,/Touch Sensors/MODE*%
X115600000Y-64100000D03*
%TO.N,/Touch Sensors/CW*%
X125700000Y-68900000D03*
X127150000Y-75150000D03*
%TO.N,/Touch Sensors/STOP*%
X109000000Y-118700000D03*
%TO.N,/MCU/TMC_{~{CS}}*%
X122800000Y-91100000D03*
X124250000Y-92900000D03*
%TO.N,/MCU/SCLK*%
X122800000Y-89750000D03*
X124000000Y-90200000D03*
%TO.N,/MCU/TMC_{~{EN}}*%
X113400000Y-117100000D03*
X113875001Y-126797909D03*
D12*
%TO.N,+12V*%
X123000000Y-133100000D03*
X127000000Y-137000000D03*
D10*
%TO.N,/MCU/UART0_RX*%
X118800000Y-72330000D03*
%TO.N,/MCU/UART0_TX*%
X120125000Y-72379942D03*
%TD*%
D13*
%TO.N,/MCU/UART0_RX*%
X117500000Y-75400000D02*
X114670000Y-75400000D01*
X113053909Y-73783909D02*
X112166091Y-73783909D01*
X118800000Y-74100000D02*
X117500000Y-75400000D01*
X118800000Y-72330000D02*
X118800000Y-74100000D01*
X114670000Y-75400000D02*
X113053909Y-73783909D01*
D14*
%TO.N,/MCU/ALERT#*%
X107800000Y-70500000D02*
X106800000Y-71500000D01*
X110100000Y-71700000D02*
X110100000Y-71000000D01*
X111350000Y-72950000D02*
X110100000Y-71700000D01*
X110100000Y-71000000D02*
X109600000Y-70500000D01*
X109600000Y-70500000D02*
X107800000Y-70500000D01*
D13*
%TO.N,/MCU/UART0_TX*%
X113850000Y-76450000D02*
X112400000Y-75000000D01*
X120125000Y-74675000D02*
X118350000Y-76450000D01*
X120125000Y-72379942D02*
X120125000Y-74675000D01*
X118350000Y-76450000D02*
X113850000Y-76450000D01*
D15*
%TO.N,VBUS*%
X136000000Y-90545000D02*
X136000000Y-88000000D01*
X134475000Y-92070000D02*
X136000000Y-90545000D01*
X129870000Y-92130000D02*
X129000000Y-93000000D01*
X131900000Y-92130000D02*
X129870000Y-92130000D01*
D14*
%TO.N,/Touch Sensors/CCW*%
X109283451Y-72823560D02*
X109283451Y-71141640D01*
X112309891Y-75850000D02*
X109283451Y-72823560D01*
X112319142Y-75850000D02*
X112309891Y-75850000D01*
D16*
%TO.N,+3.3V*%
X116796333Y-68175000D02*
X119763051Y-65208282D01*
X108000000Y-68820000D02*
X108645000Y-68175000D01*
X108645000Y-68175000D02*
X116796333Y-68175000D01*
D13*
X113100000Y-83600000D02*
X111900000Y-84800000D01*
X113100000Y-79300000D02*
X113100000Y-83600000D01*
X113500000Y-78900000D02*
X113100000Y-79300000D01*
D15*
%TO.N,+5V*%
X136400000Y-102100000D02*
X134875000Y-102100000D01*
X134875000Y-102100000D02*
X131437500Y-105537500D01*
%TO.N,+3.3V*%
X131350000Y-74860000D02*
X131350000Y-81106497D01*
X120900000Y-85400000D02*
X127050000Y-85400000D01*
D13*
X132851857Y-69823591D02*
X130601409Y-69823591D01*
D15*
X131350000Y-81106497D02*
X127906497Y-84550000D01*
D13*
X133000000Y-69971734D02*
X132851857Y-69823591D01*
D15*
X127050000Y-90000000D02*
X127050000Y-85400000D01*
X123800000Y-106200000D02*
X124000000Y-106000000D01*
X114640000Y-108000000D02*
X116440000Y-106200000D01*
X127900000Y-84550000D02*
X127050000Y-85400000D01*
X133910000Y-72300000D02*
X131350000Y-74860000D01*
X127906497Y-84550000D02*
X127900000Y-84550000D01*
X116440000Y-106200000D02*
X123800000Y-106200000D01*
D17*
%TO.N,Net-(U2-VREG_VOUT)*%
X118550002Y-78500000D02*
X118550002Y-80749998D01*
X116500000Y-80900000D02*
X115200000Y-79600000D01*
X118550002Y-80749998D02*
X118400000Y-80900000D01*
X115200000Y-79600000D02*
X113875000Y-79600000D01*
X118400000Y-80900000D02*
X116500000Y-80900000D01*
D15*
%TO.N,VBUS*%
X117880000Y-108300000D02*
X117180000Y-109000000D01*
X123700000Y-108300000D02*
X117880000Y-108300000D01*
%TO.N,Net-(U6-VMID)*%
X134400000Y-95058568D02*
X137148833Y-95058568D01*
D14*
%TO.N,Net-(J1-Pin_2)*%
X114500000Y-119000000D02*
X116000000Y-119000000D01*
D13*
X112300000Y-104000000D02*
X114100000Y-104000000D01*
%TO.N,Net-(J1-Pin_4)*%
X111950000Y-107650000D02*
X112300000Y-108000000D01*
X112300000Y-108000000D02*
X113659999Y-108000000D01*
%TO.N,/MCU/QSPI_{~{CS}}*%
X123255000Y-68445000D02*
X123255000Y-71355000D01*
X123255000Y-71355000D02*
X123500000Y-71600000D01*
X123700000Y-68000000D02*
X123255000Y-68445000D01*
%TO.N,/MCU/LTC44_{~{PFO}}*%
X138685000Y-91785000D02*
X138000000Y-91100000D01*
X138685000Y-95115000D02*
X138685000Y-91785000D01*
%TO.N,/MCU/IS31_{EN}*%
X121250000Y-71300000D02*
X118700000Y-71300000D01*
X117600000Y-73250000D02*
X116450000Y-74400000D01*
X117600000Y-72400000D02*
X117600000Y-73250000D01*
X118700000Y-71300000D02*
X117600000Y-72400000D01*
X121500000Y-71050000D02*
X121250000Y-71300000D01*
D14*
%TO.N,/Touch Sensors/CW*%
X127150000Y-75150000D02*
X127150000Y-70350000D01*
X127150000Y-70350000D02*
X125700000Y-68900000D01*
D13*
%TO.N,/MCU/TMC_{~{CS}}*%
X124250000Y-92900000D02*
X124250000Y-92550000D01*
X124250000Y-92550000D02*
X122800000Y-91100000D01*
%TO.N,/MCU/SCLK*%
X123550000Y-89750000D02*
X122800000Y-89750000D01*
X124000000Y-90200000D02*
X123550000Y-89750000D01*
%TO.N,/MCU/TMC_{~{EN}}*%
X113400000Y-117100000D02*
X113000000Y-117500000D01*
X113000000Y-125922908D02*
X113875001Y-126797909D01*
X113000000Y-117500000D02*
X113000000Y-125922908D01*
D15*
%TO.N,+12V*%
X123000000Y-133100000D02*
X126900000Y-137000000D01*
X126900000Y-137000000D02*
X127000000Y-137000000D01*
D13*
%TO.N,/MCU/IS31_{BM}*%
X115860000Y-73490000D02*
X115860000Y-73850000D01*
X118800000Y-70550000D02*
X115860000Y-73490000D01*
X119200000Y-70550000D02*
X118800000Y-70550000D01*
%TD*%
%TA.AperFunction,Conductor*%
%TO.N,GND*%
G36*
X142094452Y-54519407D02*
G01*
X142130416Y-54568907D01*
X142130416Y-54630093D01*
X142094452Y-54679591D01*
X142002804Y-54746178D01*
X141957345Y-54779206D01*
X141779206Y-54957345D01*
X141631128Y-55161157D01*
X141516759Y-55385620D01*
X141438908Y-55625219D01*
X141399500Y-55874034D01*
X141399500Y-56125965D01*
X141438908Y-56374780D01*
X141438910Y-56374785D01*
X141516759Y-56614379D01*
X141631130Y-56838845D01*
X141779207Y-57042656D01*
X141957344Y-57220793D01*
X142161155Y-57368870D01*
X142385621Y-57483241D01*
X142625215Y-57561090D01*
X142625216Y-57561090D01*
X142625219Y-57561091D01*
X142874035Y-57600500D01*
X142874038Y-57600500D01*
X143125965Y-57600500D01*
X143374780Y-57561091D01*
X143374781Y-57561090D01*
X143374785Y-57561090D01*
X143614379Y-57483241D01*
X143838845Y-57368870D01*
X144042656Y-57220793D01*
X144220793Y-57042656D01*
X144320408Y-56905547D01*
X144369907Y-56869584D01*
X144431093Y-56869584D01*
X144480593Y-56905548D01*
X144499500Y-56963739D01*
X144499500Y-146036260D01*
X144480593Y-146094451D01*
X144431093Y-146130415D01*
X144369907Y-146130415D01*
X144320407Y-146094451D01*
X144301049Y-146067808D01*
X144220793Y-145957344D01*
X144042656Y-145779207D01*
X143838845Y-145631130D01*
X143838844Y-145631129D01*
X143838842Y-145631128D01*
X143614379Y-145516759D01*
X143374780Y-145438908D01*
X143125965Y-145399500D01*
X143125962Y-145399500D01*
X142874038Y-145399500D01*
X142874035Y-145399500D01*
X142625219Y-145438908D01*
X142385620Y-145516759D01*
X142161157Y-145631128D01*
X141957345Y-145779206D01*
X141779206Y-145957345D01*
X141631128Y-146161157D01*
X141516759Y-146385620D01*
X141438908Y-146625219D01*
X141399500Y-146874034D01*
X141399500Y-147125965D01*
X141438908Y-147374780D01*
X141438910Y-147374785D01*
X141516759Y-147614379D01*
X141631130Y-147838845D01*
X141779207Y-148042656D01*
X141957344Y-148220793D01*
X142094452Y-148320408D01*
X142130416Y-148369907D01*
X142130416Y-148431093D01*
X142094452Y-148480593D01*
X142036261Y-148499500D01*
X104963739Y-148499500D01*
X104905548Y-148480593D01*
X104869584Y-148431093D01*
X104869584Y-148369907D01*
X104905547Y-148320408D01*
X105042656Y-148220793D01*
X105220793Y-148042656D01*
X105368870Y-147838845D01*
X105483241Y-147614379D01*
X105561090Y-147374785D01*
X105600500Y-147125962D01*
X105600500Y-146874038D01*
X105600500Y-146874034D01*
X105561091Y-146625219D01*
X105561090Y-146625215D01*
X105483241Y-146385621D01*
X105368870Y-146161155D01*
X105220793Y-145957344D01*
X105042656Y-145779207D01*
X104838845Y-145631130D01*
X104838844Y-145631129D01*
X104838842Y-145631128D01*
X104614379Y-145516759D01*
X104374780Y-145438908D01*
X104125965Y-145399500D01*
X104125962Y-145399500D01*
X103874038Y-145399500D01*
X103874035Y-145399500D01*
X103625219Y-145438908D01*
X103385620Y-145516759D01*
X103161157Y-145631128D01*
X102957345Y-145779206D01*
X102779206Y-145957345D01*
X102679593Y-146094451D01*
X102630092Y-146130415D01*
X102568907Y-146130415D01*
X102519407Y-146094451D01*
X102500500Y-146036260D01*
X102500500Y-133031003D01*
X122299500Y-133031003D01*
X122299500Y-133168996D01*
X122326420Y-133304327D01*
X122326420Y-133304329D01*
X122379223Y-133431808D01*
X122379224Y-133431810D01*
X122379225Y-133431811D01*
X122455886Y-133546543D01*
X126453457Y-137544114D01*
X126568189Y-137620775D01*
X126568190Y-137620775D01*
X126568191Y-137620776D01*
X126597070Y-137632738D01*
X126695672Y-137673580D01*
X126831006Y-137700500D01*
X126831007Y-137700500D01*
X127068992Y-137700500D01*
X127068993Y-137700500D01*
X127204328Y-137673580D01*
X127331811Y-137620775D01*
X127446542Y-137544114D01*
X127544114Y-137446542D01*
X127620775Y-137331811D01*
X127673580Y-137204328D01*
X127700500Y-137068993D01*
X127700500Y-136931007D01*
X127673580Y-136795672D01*
X127620775Y-136668189D01*
X127620774Y-136668187D01*
X127620771Y-136668182D01*
X127544114Y-136553458D01*
X127446545Y-136455889D01*
X127446542Y-136455886D01*
X127331811Y-136379225D01*
X127331812Y-136379225D01*
X127331810Y-136379224D01*
X127244285Y-136342970D01*
X127212167Y-136321510D01*
X123446543Y-132555886D01*
X123331811Y-132479225D01*
X123331810Y-132479224D01*
X123331808Y-132479223D01*
X123204328Y-132426420D01*
X123068996Y-132399500D01*
X123068994Y-132399500D01*
X122931006Y-132399500D01*
X122931003Y-132399500D01*
X122795672Y-132426420D01*
X122795670Y-132426420D01*
X122668191Y-132479223D01*
X122553460Y-132555883D01*
X122455883Y-132653460D01*
X122379223Y-132768191D01*
X122326420Y-132895670D01*
X122326420Y-132895672D01*
X122299500Y-133031003D01*
X102500500Y-133031003D01*
X102500500Y-118699995D01*
X108244751Y-118699995D01*
X108244751Y-118700004D01*
X108263685Y-118868053D01*
X108263688Y-118868065D01*
X108319544Y-119027690D01*
X108319544Y-119027691D01*
X108382715Y-119128226D01*
X108409523Y-119170890D01*
X108529110Y-119290477D01*
X108672310Y-119380456D01*
X108736232Y-119402823D01*
X108831934Y-119436311D01*
X108831938Y-119436312D01*
X108831941Y-119436313D01*
X108831942Y-119436313D01*
X108831946Y-119436314D01*
X108999996Y-119455249D01*
X109000000Y-119455249D01*
X109000004Y-119455249D01*
X109168053Y-119436314D01*
X109168055Y-119436313D01*
X109168059Y-119436313D01*
X109327690Y-119380456D01*
X109470890Y-119290477D01*
X109590477Y-119170890D01*
X109680456Y-119027690D01*
X109736313Y-118868059D01*
X109755249Y-118700000D01*
X109755249Y-118699995D01*
X109736314Y-118531946D01*
X109736311Y-118531934D01*
X109713480Y-118466690D01*
X109680456Y-118372310D01*
X109590477Y-118229110D01*
X109470890Y-118109523D01*
X109470887Y-118109521D01*
X109470886Y-118109520D01*
X109327691Y-118019544D01*
X109168065Y-117963688D01*
X109168053Y-117963685D01*
X109000004Y-117944751D01*
X108999996Y-117944751D01*
X108831946Y-117963685D01*
X108831934Y-117963688D01*
X108672309Y-118019544D01*
X108672308Y-118019544D01*
X108529113Y-118109520D01*
X108409520Y-118229113D01*
X108319544Y-118372308D01*
X108319544Y-118372309D01*
X108263688Y-118531934D01*
X108263685Y-118531946D01*
X108244751Y-118699995D01*
X102500500Y-118699995D01*
X102500500Y-117460435D01*
X112699500Y-117460435D01*
X112699500Y-125962472D01*
X112719978Y-126038896D01*
X112719980Y-126038900D01*
X112759538Y-126107416D01*
X112759540Y-126107419D01*
X113106061Y-126453940D01*
X113391504Y-126739383D01*
X113419281Y-126793900D01*
X113419492Y-126795298D01*
X113438303Y-126926134D01*
X113492118Y-127043970D01*
X113492119Y-127043972D01*
X113576952Y-127141876D01*
X113576953Y-127141877D01*
X113685927Y-127211910D01*
X113685932Y-127211913D01*
X113810229Y-127248409D01*
X113810231Y-127248409D01*
X113939771Y-127248409D01*
X113939773Y-127248409D01*
X114064070Y-127211913D01*
X114173050Y-127141876D01*
X114257883Y-127043972D01*
X114311698Y-126926135D01*
X114330134Y-126797909D01*
X114326342Y-126771538D01*
X114311698Y-126669683D01*
X114257883Y-126551847D01*
X114257883Y-126551846D01*
X114173050Y-126453942D01*
X114173049Y-126453941D01*
X114173048Y-126453940D01*
X114064074Y-126383907D01*
X114064071Y-126383905D01*
X114064070Y-126383905D01*
X114064067Y-126383904D01*
X113939775Y-126347409D01*
X113939773Y-126347409D01*
X113890480Y-126347409D01*
X113832289Y-126328502D01*
X113820476Y-126318413D01*
X113329496Y-125827433D01*
X113301719Y-125772916D01*
X113300500Y-125757429D01*
X113300500Y-118999997D01*
X114044867Y-118999997D01*
X114044867Y-119000002D01*
X114063302Y-119128225D01*
X114082785Y-119170886D01*
X114117118Y-119246063D01*
X114199567Y-119341216D01*
X114201952Y-119343968D01*
X114258729Y-119380456D01*
X114310931Y-119414004D01*
X114435228Y-119450500D01*
X114435230Y-119450500D01*
X114564770Y-119450500D01*
X114564772Y-119450500D01*
X114689069Y-119414004D01*
X114763495Y-119366173D01*
X114802330Y-119341216D01*
X114855853Y-119325500D01*
X115644147Y-119325500D01*
X115697670Y-119341216D01*
X115758729Y-119380456D01*
X115810931Y-119414004D01*
X115935228Y-119450500D01*
X115935230Y-119450500D01*
X116064770Y-119450500D01*
X116064772Y-119450500D01*
X116189069Y-119414004D01*
X116298049Y-119343967D01*
X116382882Y-119246063D01*
X116436697Y-119128226D01*
X116455133Y-119000000D01*
X116436697Y-118871774D01*
X116382882Y-118753937D01*
X116298049Y-118656033D01*
X116298048Y-118656032D01*
X116298047Y-118656031D01*
X116189073Y-118585998D01*
X116189070Y-118585996D01*
X116189069Y-118585996D01*
X116189066Y-118585995D01*
X116064774Y-118549500D01*
X116064772Y-118549500D01*
X115935228Y-118549500D01*
X115935225Y-118549500D01*
X115810933Y-118585995D01*
X115810926Y-118585998D01*
X115697670Y-118658784D01*
X115644147Y-118674500D01*
X114855853Y-118674500D01*
X114802330Y-118658784D01*
X114689073Y-118585998D01*
X114689070Y-118585996D01*
X114689069Y-118585996D01*
X114689066Y-118585995D01*
X114564774Y-118549500D01*
X114564772Y-118549500D01*
X114435228Y-118549500D01*
X114435225Y-118549500D01*
X114310933Y-118585995D01*
X114310926Y-118585998D01*
X114201952Y-118656031D01*
X114117117Y-118753938D01*
X114063302Y-118871774D01*
X114044867Y-118999997D01*
X113300500Y-118999997D01*
X113300500Y-117665479D01*
X113319407Y-117607288D01*
X113329496Y-117595475D01*
X113345475Y-117579496D01*
X113399992Y-117551719D01*
X113415479Y-117550500D01*
X113464770Y-117550500D01*
X113464772Y-117550500D01*
X113589069Y-117514004D01*
X113698049Y-117443967D01*
X113782882Y-117346063D01*
X113836697Y-117228226D01*
X113855133Y-117100000D01*
X113836697Y-116971774D01*
X113782882Y-116853937D01*
X113698049Y-116756033D01*
X113698048Y-116756032D01*
X113698047Y-116756031D01*
X113589073Y-116685998D01*
X113589070Y-116685996D01*
X113589069Y-116685996D01*
X113589066Y-116685995D01*
X113464774Y-116649500D01*
X113464772Y-116649500D01*
X113335228Y-116649500D01*
X113335225Y-116649500D01*
X113210933Y-116685995D01*
X113210926Y-116685998D01*
X113101952Y-116756031D01*
X113017117Y-116853938D01*
X112963302Y-116971774D01*
X112944491Y-117102611D01*
X112917495Y-117157519D01*
X112916553Y-117158475D01*
X112815489Y-117259540D01*
X112815488Y-117259539D01*
X112759539Y-117315489D01*
X112719980Y-117384007D01*
X112719978Y-117384011D01*
X112699500Y-117460435D01*
X102500500Y-117460435D01*
X102500500Y-108931003D01*
X116479500Y-108931003D01*
X116479500Y-109068996D01*
X116506420Y-109204327D01*
X116506420Y-109204329D01*
X116559223Y-109331808D01*
X116559224Y-109331810D01*
X116559225Y-109331811D01*
X116635886Y-109446543D01*
X116733457Y-109544114D01*
X116848189Y-109620775D01*
X116975672Y-109673580D01*
X117111006Y-109700500D01*
X117111007Y-109700500D01*
X117248993Y-109700500D01*
X117248994Y-109700500D01*
X117384328Y-109673580D01*
X117511811Y-109620775D01*
X117626543Y-109544114D01*
X118141160Y-109029495D01*
X118195677Y-109001719D01*
X118211164Y-109000500D01*
X123768992Y-109000500D01*
X123768993Y-109000500D01*
X123904328Y-108973580D01*
X124031811Y-108920775D01*
X124146542Y-108844114D01*
X124244114Y-108746542D01*
X124320775Y-108631811D01*
X124373580Y-108504328D01*
X124400500Y-108368993D01*
X124400500Y-108231007D01*
X124373580Y-108095672D01*
X124320775Y-107968189D01*
X124320774Y-107968187D01*
X124320771Y-107968182D01*
X124244114Y-107853458D01*
X124146541Y-107755885D01*
X124031817Y-107679228D01*
X124031806Y-107679222D01*
X123904328Y-107626420D01*
X123768995Y-107599500D01*
X123768993Y-107599500D01*
X117811007Y-107599500D01*
X117811004Y-107599500D01*
X117718721Y-107617857D01*
X117675669Y-107626420D01*
X117675666Y-107626421D01*
X117622866Y-107648292D01*
X117548191Y-107679223D01*
X117477249Y-107726626D01*
X117477248Y-107726627D01*
X117433457Y-107755886D01*
X116635890Y-108553451D01*
X116635885Y-108553457D01*
X116559223Y-108668191D01*
X116506420Y-108795670D01*
X116506420Y-108795672D01*
X116479500Y-108931003D01*
X102500500Y-108931003D01*
X102500500Y-107649997D01*
X111494867Y-107649997D01*
X111494867Y-107650002D01*
X111513302Y-107778225D01*
X111567117Y-107896061D01*
X111567118Y-107896063D01*
X111629609Y-107968182D01*
X111651952Y-107993968D01*
X111760926Y-108064001D01*
X111760931Y-108064004D01*
X111885228Y-108100500D01*
X111934521Y-108100500D01*
X111992712Y-108119407D01*
X112004524Y-108129496D01*
X112115488Y-108240459D01*
X112115493Y-108240463D01*
X112184008Y-108280020D01*
X112184006Y-108280020D01*
X112184010Y-108280021D01*
X112184012Y-108280022D01*
X112260438Y-108300500D01*
X113279074Y-108300500D01*
X113337265Y-108319407D01*
X113353894Y-108334670D01*
X113361950Y-108343967D01*
X113470930Y-108414004D01*
X113595227Y-108450500D01*
X113595229Y-108450500D01*
X113724769Y-108450500D01*
X113724771Y-108450500D01*
X113849068Y-108414004D01*
X113924720Y-108365384D01*
X113983892Y-108349831D01*
X114040909Y-108372029D01*
X114060556Y-108393668D01*
X114095886Y-108446543D01*
X114193457Y-108544114D01*
X114308189Y-108620775D01*
X114435672Y-108673580D01*
X114571006Y-108700500D01*
X114571007Y-108700500D01*
X114708993Y-108700500D01*
X114708994Y-108700500D01*
X114844328Y-108673580D01*
X114971811Y-108620775D01*
X115086543Y-108544114D01*
X116701160Y-106929495D01*
X116755677Y-106901719D01*
X116771164Y-106900500D01*
X123868993Y-106900500D01*
X123868994Y-106900500D01*
X124004328Y-106873580D01*
X124131811Y-106820775D01*
X124246543Y-106744114D01*
X124544114Y-106446543D01*
X124620775Y-106331811D01*
X124673580Y-106204328D01*
X124700500Y-106068994D01*
X124700500Y-105931006D01*
X124673580Y-105795671D01*
X124620775Y-105668189D01*
X124544114Y-105553457D01*
X124459160Y-105468503D01*
X130737000Y-105468503D01*
X130737000Y-105606496D01*
X130763920Y-105741827D01*
X130763920Y-105741829D01*
X130816723Y-105869308D01*
X130816724Y-105869310D01*
X130816725Y-105869311D01*
X130893386Y-105984043D01*
X130990957Y-106081614D01*
X131105689Y-106158275D01*
X131233172Y-106211080D01*
X131368506Y-106238000D01*
X131368507Y-106238000D01*
X131506493Y-106238000D01*
X131506494Y-106238000D01*
X131641828Y-106211080D01*
X131769311Y-106158275D01*
X131884043Y-106081614D01*
X135136161Y-102829496D01*
X135190678Y-102801719D01*
X135206165Y-102800500D01*
X136468992Y-102800500D01*
X136468993Y-102800500D01*
X136604328Y-102773580D01*
X136731811Y-102720775D01*
X136846542Y-102644114D01*
X136944114Y-102546542D01*
X137020775Y-102431811D01*
X137073580Y-102304328D01*
X137100500Y-102168993D01*
X137100500Y-102031007D01*
X137073580Y-101895672D01*
X137020775Y-101768189D01*
X137020774Y-101768187D01*
X137020771Y-101768182D01*
X136944114Y-101653458D01*
X136846541Y-101555885D01*
X136731817Y-101479228D01*
X136731806Y-101479222D01*
X136604328Y-101426420D01*
X136468995Y-101399500D01*
X136468993Y-101399500D01*
X134806007Y-101399500D01*
X134806004Y-101399500D01*
X134670672Y-101426420D01*
X134670670Y-101426420D01*
X134543191Y-101479223D01*
X134428460Y-101555883D01*
X130893383Y-105090960D01*
X130816723Y-105205691D01*
X130763920Y-105333170D01*
X130763920Y-105333172D01*
X130737000Y-105468503D01*
X124459160Y-105468503D01*
X124446543Y-105455886D01*
X124331811Y-105379225D01*
X124331810Y-105379224D01*
X124331808Y-105379223D01*
X124204329Y-105326420D01*
X124068996Y-105299500D01*
X124068994Y-105299500D01*
X123931006Y-105299500D01*
X123931003Y-105299500D01*
X123795672Y-105326420D01*
X123795670Y-105326420D01*
X123668191Y-105379223D01*
X123553460Y-105455883D01*
X123553457Y-105455885D01*
X123553457Y-105455886D01*
X123538837Y-105470505D01*
X123484323Y-105498281D01*
X123468836Y-105499500D01*
X116371004Y-105499500D01*
X116262591Y-105521064D01*
X116262591Y-105521065D01*
X116249131Y-105523742D01*
X116235670Y-105526420D01*
X116208922Y-105537500D01*
X116108189Y-105579224D01*
X116050374Y-105617856D01*
X115993458Y-105655886D01*
X114095882Y-107553461D01*
X114060556Y-107606331D01*
X114012506Y-107644210D01*
X113951368Y-107646612D01*
X113924718Y-107634613D01*
X113849072Y-107585998D01*
X113849069Y-107585996D01*
X113849068Y-107585996D01*
X113849065Y-107585995D01*
X113724773Y-107549500D01*
X113724771Y-107549500D01*
X113595227Y-107549500D01*
X113595224Y-107549500D01*
X113470932Y-107585995D01*
X113470925Y-107585998D01*
X113361950Y-107656032D01*
X113361949Y-107656033D01*
X113353894Y-107665330D01*
X113301499Y-107696927D01*
X113279074Y-107699500D01*
X112498034Y-107699500D01*
X112439843Y-107680593D01*
X112403879Y-107631093D01*
X112400042Y-107614589D01*
X112386697Y-107521774D01*
X112332882Y-107403938D01*
X112332882Y-107403937D01*
X112248049Y-107306033D01*
X112248048Y-107306032D01*
X112248047Y-107306031D01*
X112139073Y-107235998D01*
X112139070Y-107235996D01*
X112139069Y-107235996D01*
X112139066Y-107235995D01*
X112014774Y-107199500D01*
X112014772Y-107199500D01*
X111885228Y-107199500D01*
X111885225Y-107199500D01*
X111760933Y-107235995D01*
X111760926Y-107235998D01*
X111651952Y-107306031D01*
X111567117Y-107403938D01*
X111513302Y-107521774D01*
X111494867Y-107649997D01*
X102500500Y-107649997D01*
X102500500Y-103999997D01*
X111844867Y-103999997D01*
X111844867Y-104000002D01*
X111863302Y-104128225D01*
X111917117Y-104246061D01*
X111917118Y-104246063D01*
X111966517Y-104303073D01*
X112001952Y-104343968D01*
X112110926Y-104414001D01*
X112110931Y-104414004D01*
X112235228Y-104450500D01*
X112235230Y-104450500D01*
X112364770Y-104450500D01*
X112364772Y-104450500D01*
X112489069Y-104414004D01*
X112598049Y-104343967D01*
X112606105Y-104334670D01*
X112658500Y-104303073D01*
X112680925Y-104300500D01*
X113719075Y-104300500D01*
X113777266Y-104319407D01*
X113793895Y-104334670D01*
X113801951Y-104343967D01*
X113910931Y-104414004D01*
X114035228Y-104450500D01*
X114035230Y-104450500D01*
X114164770Y-104450500D01*
X114164772Y-104450500D01*
X114289069Y-104414004D01*
X114398049Y-104343967D01*
X114482882Y-104246063D01*
X114536697Y-104128226D01*
X114555133Y-104000000D01*
X114536697Y-103871774D01*
X114482882Y-103753937D01*
X114398049Y-103656033D01*
X114398048Y-103656032D01*
X114398047Y-103656031D01*
X114289073Y-103585998D01*
X114289070Y-103585996D01*
X114289069Y-103585996D01*
X114289066Y-103585995D01*
X114164774Y-103549500D01*
X114164772Y-103549500D01*
X114035228Y-103549500D01*
X114035225Y-103549500D01*
X113910933Y-103585995D01*
X113910926Y-103585998D01*
X113801951Y-103656032D01*
X113801950Y-103656033D01*
X113793895Y-103665330D01*
X113741500Y-103696927D01*
X113719075Y-103699500D01*
X112680925Y-103699500D01*
X112622734Y-103680593D01*
X112606105Y-103665330D01*
X112598049Y-103656033D01*
X112598048Y-103656032D01*
X112489073Y-103585998D01*
X112489070Y-103585996D01*
X112489069Y-103585996D01*
X112489066Y-103585995D01*
X112364774Y-103549500D01*
X112364772Y-103549500D01*
X112235228Y-103549500D01*
X112235225Y-103549500D01*
X112110933Y-103585995D01*
X112110926Y-103585998D01*
X112001952Y-103656031D01*
X111917117Y-103753938D01*
X111863302Y-103871774D01*
X111844867Y-103999997D01*
X102500500Y-103999997D01*
X102500500Y-94989572D01*
X133699500Y-94989572D01*
X133699500Y-95127563D01*
X133726420Y-95262895D01*
X133726420Y-95262897D01*
X133779222Y-95390374D01*
X133779228Y-95390385D01*
X133855885Y-95505109D01*
X133953458Y-95602682D01*
X134068182Y-95679339D01*
X134068193Y-95679345D01*
X134115283Y-95698850D01*
X134195672Y-95732148D01*
X134331007Y-95759068D01*
X134331008Y-95759068D01*
X137217825Y-95759068D01*
X137217826Y-95759068D01*
X137353161Y-95732148D01*
X137480644Y-95679343D01*
X137595375Y-95602682D01*
X137692947Y-95505110D01*
X137769608Y-95390379D01*
X137822413Y-95262896D01*
X137849333Y-95127561D01*
X137849333Y-94989575D01*
X137822413Y-94854240D01*
X137789119Y-94773861D01*
X137769610Y-94726761D01*
X137769604Y-94726750D01*
X137692947Y-94612026D01*
X137595374Y-94514453D01*
X137480650Y-94437796D01*
X137480639Y-94437790D01*
X137353161Y-94384988D01*
X137217828Y-94358068D01*
X137217826Y-94358068D01*
X134331007Y-94358068D01*
X134331004Y-94358068D01*
X134195672Y-94384988D01*
X134195670Y-94384988D01*
X134068193Y-94437790D01*
X134068182Y-94437796D01*
X133953458Y-94514453D01*
X133855885Y-94612026D01*
X133779228Y-94726750D01*
X133779222Y-94726761D01*
X133726420Y-94854238D01*
X133726420Y-94854240D01*
X133699500Y-94989572D01*
X102500500Y-94989572D01*
X102500500Y-91099997D01*
X122344867Y-91099997D01*
X122344867Y-91100002D01*
X122363302Y-91228225D01*
X122417117Y-91346061D01*
X122417118Y-91346063D01*
X122501951Y-91443967D01*
X122501952Y-91443968D01*
X122603499Y-91509228D01*
X122610931Y-91514004D01*
X122735228Y-91550500D01*
X122784521Y-91550500D01*
X122842712Y-91569407D01*
X122854525Y-91579496D01*
X123837903Y-92562874D01*
X123865680Y-92617391D01*
X123857953Y-92674004D01*
X123813301Y-92771776D01*
X123794867Y-92899997D01*
X123794867Y-92900002D01*
X123813302Y-93028225D01*
X123831921Y-93068994D01*
X123867118Y-93146063D01*
X123917605Y-93204329D01*
X123951952Y-93243968D01*
X124060926Y-93314001D01*
X124060931Y-93314004D01*
X124185228Y-93350500D01*
X124185230Y-93350500D01*
X124314770Y-93350500D01*
X124314772Y-93350500D01*
X124439069Y-93314004D01*
X124548049Y-93243967D01*
X124632882Y-93146063D01*
X124686697Y-93028226D01*
X124700675Y-92931006D01*
X124700675Y-92931003D01*
X128299500Y-92931003D01*
X128299500Y-93068996D01*
X128326420Y-93204327D01*
X128326420Y-93204329D01*
X128379223Y-93331808D01*
X128391712Y-93350500D01*
X128455886Y-93446543D01*
X128553457Y-93544114D01*
X128668189Y-93620775D01*
X128795672Y-93673580D01*
X128931006Y-93700500D01*
X128931007Y-93700500D01*
X129068993Y-93700500D01*
X129068994Y-93700500D01*
X129204328Y-93673580D01*
X129331811Y-93620775D01*
X129446543Y-93544114D01*
X130131161Y-92859496D01*
X130185678Y-92831719D01*
X130201165Y-92830500D01*
X131968992Y-92830500D01*
X131968993Y-92830500D01*
X132104328Y-92803580D01*
X132231811Y-92750775D01*
X132346542Y-92674114D01*
X132444114Y-92576542D01*
X132520775Y-92461811D01*
X132573580Y-92334328D01*
X132600500Y-92198993D01*
X132600500Y-92061007D01*
X132588564Y-92001003D01*
X133774500Y-92001003D01*
X133774500Y-92138996D01*
X133801420Y-92274327D01*
X133801420Y-92274329D01*
X133854223Y-92401808D01*
X133926806Y-92510438D01*
X133930886Y-92516543D01*
X134028457Y-92614114D01*
X134143189Y-92690775D01*
X134270672Y-92743580D01*
X134406006Y-92770500D01*
X134406007Y-92770500D01*
X134543993Y-92770500D01*
X134543994Y-92770500D01*
X134679328Y-92743580D01*
X134806811Y-92690775D01*
X134921543Y-92614114D01*
X136435660Y-91099997D01*
X137544867Y-91099997D01*
X137544867Y-91100002D01*
X137563302Y-91228225D01*
X137617117Y-91346061D01*
X137617118Y-91346063D01*
X137701951Y-91443967D01*
X137701952Y-91443968D01*
X137803499Y-91509228D01*
X137810931Y-91514004D01*
X137935228Y-91550500D01*
X137984521Y-91550500D01*
X138042712Y-91569407D01*
X138054525Y-91579496D01*
X138355504Y-91880475D01*
X138383281Y-91934992D01*
X138384500Y-91950479D01*
X138384500Y-94736937D01*
X138365593Y-94795128D01*
X138360320Y-94801767D01*
X138302118Y-94868936D01*
X138302116Y-94868940D01*
X138248302Y-94986774D01*
X138229867Y-95114997D01*
X138229867Y-95115002D01*
X138248302Y-95243225D01*
X138302117Y-95361061D01*
X138302118Y-95361063D01*
X138386951Y-95458967D01*
X138386952Y-95458968D01*
X138458751Y-95505110D01*
X138495931Y-95529004D01*
X138620228Y-95565500D01*
X138620230Y-95565500D01*
X138749770Y-95565500D01*
X138749772Y-95565500D01*
X138874069Y-95529004D01*
X138983049Y-95458967D01*
X139067882Y-95361063D01*
X139121697Y-95243226D01*
X139138327Y-95127561D01*
X139140133Y-95115002D01*
X139140133Y-95114997D01*
X139121697Y-94986774D01*
X139067883Y-94868940D01*
X139067882Y-94868937D01*
X139009679Y-94801766D01*
X138985863Y-94745408D01*
X138985500Y-94736937D01*
X138985500Y-91745437D01*
X138985499Y-91745435D01*
X138983557Y-91738189D01*
X138965021Y-91669011D01*
X138925460Y-91600489D01*
X138904467Y-91579496D01*
X138869511Y-91544539D01*
X138869511Y-91544540D01*
X138483496Y-91158525D01*
X138455719Y-91104008D01*
X138455508Y-91102609D01*
X138455132Y-91099997D01*
X138453277Y-91087091D01*
X138436698Y-90971775D01*
X138382882Y-90853938D01*
X138382882Y-90853937D01*
X138298049Y-90756033D01*
X138298048Y-90756032D01*
X138298047Y-90756031D01*
X138189073Y-90685998D01*
X138189070Y-90685996D01*
X138189069Y-90685996D01*
X138189066Y-90685995D01*
X138064774Y-90649500D01*
X138064772Y-90649500D01*
X137935228Y-90649500D01*
X137935225Y-90649500D01*
X137810933Y-90685995D01*
X137810926Y-90685998D01*
X137701952Y-90756031D01*
X137617117Y-90853938D01*
X137563302Y-90971774D01*
X137544867Y-91099997D01*
X136435660Y-91099997D01*
X136544114Y-90991543D01*
X136620775Y-90876811D01*
X136673580Y-90749328D01*
X136700500Y-90613994D01*
X136700500Y-90476006D01*
X136700500Y-87931007D01*
X136673580Y-87795672D01*
X136620775Y-87668189D01*
X136620774Y-87668187D01*
X136620771Y-87668182D01*
X136544114Y-87553458D01*
X136446541Y-87455885D01*
X136331817Y-87379228D01*
X136331806Y-87379222D01*
X136204328Y-87326420D01*
X136068995Y-87299500D01*
X136068993Y-87299500D01*
X135931007Y-87299500D01*
X135931004Y-87299500D01*
X135795672Y-87326420D01*
X135795670Y-87326420D01*
X135668193Y-87379222D01*
X135668182Y-87379228D01*
X135553458Y-87455885D01*
X135455885Y-87553458D01*
X135379228Y-87668182D01*
X135379222Y-87668193D01*
X135326420Y-87795670D01*
X135326420Y-87795672D01*
X135299500Y-87931004D01*
X135299500Y-90213835D01*
X135280593Y-90272026D01*
X135270504Y-90283839D01*
X133930883Y-91623460D01*
X133854223Y-91738191D01*
X133801420Y-91865670D01*
X133801420Y-91865672D01*
X133774500Y-92001003D01*
X132588564Y-92001003D01*
X132573580Y-91925672D01*
X132548727Y-91865672D01*
X132520777Y-91798193D01*
X132520771Y-91798182D01*
X132444114Y-91683458D01*
X132346541Y-91585885D01*
X132231817Y-91509228D01*
X132231806Y-91509222D01*
X132104328Y-91456420D01*
X131968995Y-91429500D01*
X131968993Y-91429500D01*
X129938994Y-91429500D01*
X129801006Y-91429500D01*
X129801003Y-91429500D01*
X129665672Y-91456420D01*
X129665670Y-91456420D01*
X129538191Y-91509223D01*
X129423460Y-91585883D01*
X128455883Y-92553460D01*
X128379223Y-92668191D01*
X128326420Y-92795670D01*
X128326420Y-92795672D01*
X128299500Y-92931003D01*
X124700675Y-92931003D01*
X124705133Y-92900002D01*
X124705133Y-92899997D01*
X124686697Y-92771774D01*
X124649706Y-92690776D01*
X124632882Y-92653937D01*
X124574679Y-92586766D01*
X124550863Y-92530408D01*
X124550500Y-92521937D01*
X124550500Y-92510439D01*
X124550499Y-92510435D01*
X124543951Y-92485994D01*
X124543951Y-92485993D01*
X124530022Y-92434012D01*
X124530020Y-92434008D01*
X124490463Y-92365493D01*
X124490462Y-92365492D01*
X124490461Y-92365491D01*
X124490460Y-92365489D01*
X123283496Y-91158525D01*
X123255719Y-91104008D01*
X123255508Y-91102609D01*
X123255132Y-91099997D01*
X123253277Y-91087091D01*
X123236698Y-90971775D01*
X123182882Y-90853938D01*
X123182882Y-90853937D01*
X123098049Y-90756033D01*
X123098048Y-90756032D01*
X123098047Y-90756031D01*
X122989073Y-90685998D01*
X122989070Y-90685996D01*
X122989069Y-90685996D01*
X122989066Y-90685995D01*
X122864774Y-90649500D01*
X122864772Y-90649500D01*
X122735228Y-90649500D01*
X122735225Y-90649500D01*
X122610933Y-90685995D01*
X122610926Y-90685998D01*
X122501952Y-90756031D01*
X122417117Y-90853938D01*
X122363302Y-90971774D01*
X122344867Y-91099997D01*
X102500500Y-91099997D01*
X102500500Y-89749997D01*
X122344867Y-89749997D01*
X122344867Y-89750002D01*
X122363302Y-89878225D01*
X122397879Y-89953937D01*
X122417118Y-89996063D01*
X122480313Y-90068995D01*
X122501952Y-90093968D01*
X122610926Y-90164001D01*
X122610931Y-90164004D01*
X122735228Y-90200500D01*
X122735230Y-90200500D01*
X122864770Y-90200500D01*
X122864772Y-90200500D01*
X122989069Y-90164004D01*
X123098049Y-90093967D01*
X123106105Y-90084670D01*
X123158500Y-90053073D01*
X123180925Y-90050500D01*
X123384521Y-90050500D01*
X123442712Y-90069407D01*
X123454525Y-90079496D01*
X123516503Y-90141474D01*
X123544280Y-90195991D01*
X123544491Y-90197389D01*
X123563302Y-90328225D01*
X123617117Y-90446061D01*
X123617118Y-90446063D01*
X123701951Y-90543967D01*
X123701952Y-90543968D01*
X123810926Y-90614001D01*
X123810931Y-90614004D01*
X123935228Y-90650500D01*
X123935230Y-90650500D01*
X124064770Y-90650500D01*
X124064772Y-90650500D01*
X124189069Y-90614004D01*
X124298049Y-90543967D01*
X124382882Y-90446063D01*
X124436697Y-90328226D01*
X124455061Y-90200500D01*
X124455133Y-90200002D01*
X124455133Y-90199997D01*
X124436697Y-90071774D01*
X124426981Y-90050500D01*
X124382882Y-89953937D01*
X124298049Y-89856033D01*
X124298048Y-89856032D01*
X124298047Y-89856031D01*
X124189073Y-89785998D01*
X124189070Y-89785996D01*
X124189069Y-89785996D01*
X124189066Y-89785995D01*
X124064774Y-89749500D01*
X124064772Y-89749500D01*
X124015479Y-89749500D01*
X123957288Y-89730593D01*
X123945476Y-89720504D01*
X123734510Y-89509539D01*
X123717121Y-89499499D01*
X123717121Y-89499500D01*
X123665989Y-89469979D01*
X123665988Y-89469978D01*
X123665987Y-89469978D01*
X123589564Y-89449500D01*
X123589562Y-89449500D01*
X123180925Y-89449500D01*
X123122734Y-89430593D01*
X123106105Y-89415330D01*
X123098049Y-89406033D01*
X123098048Y-89406032D01*
X122989073Y-89335998D01*
X122989070Y-89335996D01*
X122989069Y-89335996D01*
X122989066Y-89335995D01*
X122864774Y-89299500D01*
X122864772Y-89299500D01*
X122735228Y-89299500D01*
X122735225Y-89299500D01*
X122610933Y-89335995D01*
X122610926Y-89335998D01*
X122501952Y-89406031D01*
X122417117Y-89503938D01*
X122363302Y-89621774D01*
X122344867Y-89749997D01*
X102500500Y-89749997D01*
X102500500Y-85331004D01*
X120199500Y-85331004D01*
X120199500Y-85468995D01*
X120226420Y-85604327D01*
X120226420Y-85604329D01*
X120279222Y-85731806D01*
X120279228Y-85731817D01*
X120355885Y-85846541D01*
X120453458Y-85944114D01*
X120568182Y-86020771D01*
X120568193Y-86020777D01*
X120615283Y-86040282D01*
X120695672Y-86073580D01*
X120831007Y-86100500D01*
X126250500Y-86100500D01*
X126308691Y-86119407D01*
X126344655Y-86168907D01*
X126349500Y-86199500D01*
X126349500Y-90068995D01*
X126354468Y-90093968D01*
X126375658Y-90200499D01*
X126376420Y-90204327D01*
X126376420Y-90204329D01*
X126429222Y-90331806D01*
X126429228Y-90331817D01*
X126505885Y-90446541D01*
X126603458Y-90544114D01*
X126718182Y-90620771D01*
X126718193Y-90620777D01*
X126765283Y-90640282D01*
X126845672Y-90673580D01*
X126981007Y-90700500D01*
X126981008Y-90700500D01*
X127118992Y-90700500D01*
X127118993Y-90700500D01*
X127254328Y-90673580D01*
X127381811Y-90620775D01*
X127496542Y-90544114D01*
X127594114Y-90446542D01*
X127670775Y-90331811D01*
X127723580Y-90204328D01*
X127750500Y-90068993D01*
X127750500Y-85731164D01*
X127769407Y-85672973D01*
X127779490Y-85661166D01*
X128326571Y-85114084D01*
X128341568Y-85101778D01*
X128353040Y-85094114D01*
X131632920Y-81814234D01*
X138144500Y-81814234D01*
X138144500Y-81965766D01*
X138179086Y-82094847D01*
X138183720Y-82112139D01*
X138259481Y-82243360D01*
X138259483Y-82243362D01*
X138259485Y-82243365D01*
X138366635Y-82350515D01*
X138366637Y-82350516D01*
X138366639Y-82350518D01*
X138497861Y-82426279D01*
X138497859Y-82426279D01*
X138497863Y-82426280D01*
X138497865Y-82426281D01*
X138644234Y-82465500D01*
X138644236Y-82465500D01*
X138795764Y-82465500D01*
X138795766Y-82465500D01*
X138942135Y-82426281D01*
X138942137Y-82426279D01*
X138942139Y-82426279D01*
X139073360Y-82350518D01*
X139073360Y-82350517D01*
X139073365Y-82350515D01*
X139180515Y-82243365D01*
X139256281Y-82112135D01*
X139295500Y-81965766D01*
X139295500Y-81814234D01*
X139256281Y-81667865D01*
X139256279Y-81667862D01*
X139256279Y-81667860D01*
X139180518Y-81536639D01*
X139180516Y-81536637D01*
X139180515Y-81536635D01*
X139073365Y-81429485D01*
X139073362Y-81429483D01*
X139073360Y-81429481D01*
X138942138Y-81353720D01*
X138942140Y-81353720D01*
X138885347Y-81338503D01*
X138795766Y-81314500D01*
X138644234Y-81314500D01*
X138554652Y-81338503D01*
X138497860Y-81353720D01*
X138366639Y-81429481D01*
X138259481Y-81536639D01*
X138183720Y-81667860D01*
X138183719Y-81667865D01*
X138144500Y-81814234D01*
X131632920Y-81814234D01*
X131894114Y-81553040D01*
X131970775Y-81438308D01*
X132023580Y-81310825D01*
X132050500Y-81175491D01*
X132050500Y-81037503D01*
X132050500Y-76034234D01*
X138144500Y-76034234D01*
X138144500Y-76185766D01*
X138145305Y-76188770D01*
X138183720Y-76332139D01*
X138259481Y-76463360D01*
X138259483Y-76463362D01*
X138259485Y-76463365D01*
X138366635Y-76570515D01*
X138366637Y-76570516D01*
X138366639Y-76570518D01*
X138497861Y-76646279D01*
X138497859Y-76646279D01*
X138497863Y-76646280D01*
X138497865Y-76646281D01*
X138644234Y-76685500D01*
X138644236Y-76685500D01*
X138795764Y-76685500D01*
X138795766Y-76685500D01*
X138942135Y-76646281D01*
X138942137Y-76646279D01*
X138942139Y-76646279D01*
X139073360Y-76570518D01*
X139073360Y-76570517D01*
X139073365Y-76570515D01*
X139180515Y-76463365D01*
X139193728Y-76440479D01*
X139256279Y-76332139D01*
X139256279Y-76332137D01*
X139256281Y-76332135D01*
X139295500Y-76185766D01*
X139295500Y-76034234D01*
X139256281Y-75887865D01*
X139256279Y-75887862D01*
X139256279Y-75887860D01*
X139180518Y-75756639D01*
X139180516Y-75756637D01*
X139180515Y-75756635D01*
X139073365Y-75649485D01*
X139073362Y-75649483D01*
X139073360Y-75649481D01*
X138942138Y-75573720D01*
X138942140Y-75573720D01*
X138885347Y-75558503D01*
X138795766Y-75534500D01*
X138644234Y-75534500D01*
X138554652Y-75558503D01*
X138497860Y-75573720D01*
X138366639Y-75649481D01*
X138259481Y-75756639D01*
X138183720Y-75887860D01*
X138183719Y-75887865D01*
X138144500Y-76034234D01*
X132050500Y-76034234D01*
X132050500Y-75191164D01*
X132069407Y-75132973D01*
X132079490Y-75121166D01*
X134454114Y-72746543D01*
X134530775Y-72631811D01*
X134583580Y-72504328D01*
X134610500Y-72368994D01*
X134610500Y-72231006D01*
X134583580Y-72095671D01*
X134538166Y-71986033D01*
X134530776Y-71968191D01*
X134518955Y-71950500D01*
X134454114Y-71853457D01*
X134356543Y-71755886D01*
X134341837Y-71746060D01*
X134241808Y-71679223D01*
X134114329Y-71626420D01*
X133978996Y-71599500D01*
X133978994Y-71599500D01*
X133841006Y-71599500D01*
X133841003Y-71599500D01*
X133705672Y-71626420D01*
X133705670Y-71626420D01*
X133578191Y-71679223D01*
X133463460Y-71755883D01*
X130805883Y-74413460D01*
X130729223Y-74528191D01*
X130676420Y-74655670D01*
X130649720Y-74789899D01*
X130649513Y-74790878D01*
X130649500Y-74791003D01*
X130649500Y-80775331D01*
X130630593Y-80833522D01*
X130620504Y-80845335D01*
X127479927Y-83985911D01*
X127464930Y-83998219D01*
X127453459Y-84005884D01*
X126788839Y-84670504D01*
X126734322Y-84698281D01*
X126718835Y-84699500D01*
X120831004Y-84699500D01*
X120695672Y-84726420D01*
X120695670Y-84726420D01*
X120568193Y-84779222D01*
X120568182Y-84779228D01*
X120453458Y-84855885D01*
X120355885Y-84953458D01*
X120279228Y-85068182D01*
X120279222Y-85068193D01*
X120226420Y-85195670D01*
X120226420Y-85195672D01*
X120199500Y-85331004D01*
X102500500Y-85331004D01*
X102500500Y-84799997D01*
X111444867Y-84799997D01*
X111444867Y-84800002D01*
X111463302Y-84928225D01*
X111474826Y-84953458D01*
X111517118Y-85046063D01*
X111576062Y-85114089D01*
X111601952Y-85143968D01*
X111710926Y-85214001D01*
X111710931Y-85214004D01*
X111835228Y-85250500D01*
X111835230Y-85250500D01*
X111964770Y-85250500D01*
X111964772Y-85250500D01*
X112089069Y-85214004D01*
X112198049Y-85143967D01*
X112282882Y-85046063D01*
X112336697Y-84928226D01*
X112355133Y-84800000D01*
X112355133Y-84799997D01*
X112355508Y-84797389D01*
X112382503Y-84742481D01*
X112383427Y-84741542D01*
X113340460Y-83784511D01*
X113380021Y-83715989D01*
X113400500Y-83639562D01*
X113400500Y-80005761D01*
X113419407Y-79947570D01*
X113468907Y-79911606D01*
X113530093Y-79911606D01*
X113574320Y-79940931D01*
X113576947Y-79943963D01*
X113576949Y-79943965D01*
X113576951Y-79943967D01*
X113581750Y-79947051D01*
X113598221Y-79960323D01*
X113598387Y-79960489D01*
X113634494Y-79981335D01*
X113638399Y-79983590D01*
X113642421Y-79986042D01*
X113685931Y-80014004D01*
X113685937Y-80014005D01*
X113689954Y-80015841D01*
X113694859Y-80017936D01*
X113695117Y-80017315D01*
X113701109Y-80019796D01*
X113701114Y-80019799D01*
X113752096Y-80033459D01*
X113754254Y-80034064D01*
X113810228Y-80050500D01*
X113815691Y-80050500D01*
X114972389Y-80050500D01*
X115030580Y-80069407D01*
X115042392Y-80079495D01*
X116223386Y-81260490D01*
X116316936Y-81314500D01*
X116326114Y-81319799D01*
X116440691Y-81350500D01*
X116440693Y-81350500D01*
X118459309Y-81350500D01*
X118549669Y-81326287D01*
X118549672Y-81326287D01*
X118562903Y-81322741D01*
X118573887Y-81319799D01*
X118676614Y-81260489D01*
X118776780Y-81160321D01*
X118793255Y-81147047D01*
X118798049Y-81143967D01*
X118827625Y-81109831D01*
X118832428Y-81104673D01*
X118910491Y-81026612D01*
X118969801Y-80923885D01*
X118972743Y-80912901D01*
X118976289Y-80899670D01*
X118976289Y-80899667D01*
X119000502Y-80809307D01*
X119000502Y-78539301D01*
X119001510Y-78525210D01*
X119005135Y-78500000D01*
X119005135Y-78499998D01*
X119001510Y-78474786D01*
X119000502Y-78460697D01*
X119000502Y-78440690D01*
X118993626Y-78415032D01*
X118991260Y-78403494D01*
X118986700Y-78371777D01*
X118986699Y-78371775D01*
X118986699Y-78371774D01*
X118978849Y-78354585D01*
X118973275Y-78339081D01*
X118969801Y-78326114D01*
X118953232Y-78297416D01*
X118948920Y-78289052D01*
X118932884Y-78253938D01*
X118932884Y-78253937D01*
X118932882Y-78253935D01*
X118932881Y-78253932D01*
X118924828Y-78244639D01*
X118913909Y-78229307D01*
X118910493Y-78223391D01*
X118910491Y-78223387D01*
X118910486Y-78223382D01*
X118882441Y-78195336D01*
X118877627Y-78190165D01*
X118848052Y-78156034D01*
X118848046Y-78156028D01*
X118843250Y-78152946D01*
X118826780Y-78139675D01*
X118826619Y-78139514D01*
X118826612Y-78139509D01*
X118786598Y-78116406D01*
X118782576Y-78113955D01*
X118739071Y-78085996D01*
X118739068Y-78085995D01*
X118735211Y-78084233D01*
X118730133Y-78082068D01*
X118729879Y-78082683D01*
X118723879Y-78080197D01*
X118672916Y-78066542D01*
X118670667Y-78065911D01*
X118654208Y-78061078D01*
X118614776Y-78049500D01*
X118614774Y-78049500D01*
X118485230Y-78049500D01*
X118485228Y-78049500D01*
X118485224Y-78049501D01*
X118429324Y-78065914D01*
X118427058Y-78066550D01*
X118376119Y-78080199D01*
X118370128Y-78082681D01*
X118369881Y-78082086D01*
X118364425Y-78084401D01*
X118360933Y-78085996D01*
X118317427Y-78113954D01*
X118313410Y-78116402D01*
X118273389Y-78139510D01*
X118273385Y-78139513D01*
X118273223Y-78139676D01*
X118256759Y-78152944D01*
X118251952Y-78156033D01*
X118222369Y-78190173D01*
X118217557Y-78195341D01*
X118189513Y-78223385D01*
X118186095Y-78229307D01*
X118175181Y-78244633D01*
X118167120Y-78253935D01*
X118167119Y-78253938D01*
X118151080Y-78289056D01*
X118146765Y-78297426D01*
X118130205Y-78326108D01*
X118130203Y-78326113D01*
X118126726Y-78339088D01*
X118121157Y-78354577D01*
X118113304Y-78371773D01*
X118113303Y-78371776D01*
X118108744Y-78403491D01*
X118106380Y-78415019D01*
X118099502Y-78440691D01*
X118099502Y-78440693D01*
X118099502Y-78460697D01*
X118098494Y-78474786D01*
X118094869Y-78499998D01*
X118094869Y-78500000D01*
X118098494Y-78525210D01*
X118099502Y-78539301D01*
X118099502Y-80350500D01*
X118080595Y-80408691D01*
X118031095Y-80444655D01*
X118000502Y-80449500D01*
X116727612Y-80449500D01*
X116669421Y-80430593D01*
X116657608Y-80420504D01*
X116587604Y-80350500D01*
X115476614Y-79239511D01*
X115476611Y-79239509D01*
X115476610Y-79239508D01*
X115476609Y-79239507D01*
X115373890Y-79180202D01*
X115373886Y-79180200D01*
X115349673Y-79173712D01*
X115349673Y-79173713D01*
X115259309Y-79149500D01*
X115259307Y-79149500D01*
X114033337Y-79149500D01*
X113975146Y-79130593D01*
X113939182Y-79081093D01*
X113938528Y-79035643D01*
X113935690Y-79035235D01*
X113955133Y-78900002D01*
X113955133Y-78899997D01*
X113936697Y-78771774D01*
X113882882Y-78653938D01*
X113882882Y-78653937D01*
X113798049Y-78556033D01*
X113798048Y-78556032D01*
X113798047Y-78556031D01*
X113689073Y-78485998D01*
X113689070Y-78485996D01*
X113689069Y-78485996D01*
X113689066Y-78485995D01*
X113564774Y-78449500D01*
X113564772Y-78449500D01*
X113435228Y-78449500D01*
X113435225Y-78449500D01*
X113310933Y-78485995D01*
X113310926Y-78485998D01*
X113201952Y-78556031D01*
X113117117Y-78653938D01*
X113063302Y-78771774D01*
X113044491Y-78902611D01*
X113017495Y-78957519D01*
X113016553Y-78958475D01*
X112915489Y-79059540D01*
X112915488Y-79059539D01*
X112859539Y-79115489D01*
X112819980Y-79184007D01*
X112819978Y-79184011D01*
X112799500Y-79260435D01*
X112799500Y-83434521D01*
X112780593Y-83492712D01*
X112770504Y-83504525D01*
X111954525Y-84320504D01*
X111900008Y-84348281D01*
X111884521Y-84349500D01*
X111835225Y-84349500D01*
X111710933Y-84385995D01*
X111710926Y-84385998D01*
X111601952Y-84456031D01*
X111517117Y-84553938D01*
X111463302Y-84671774D01*
X111444867Y-84799997D01*
X102500500Y-84799997D01*
X102500500Y-71499997D01*
X106344867Y-71499997D01*
X106344867Y-71500002D01*
X106363302Y-71628225D01*
X106408972Y-71728226D01*
X106417118Y-71746063D01*
X106425630Y-71755886D01*
X106501952Y-71843968D01*
X106610926Y-71914001D01*
X106610931Y-71914004D01*
X106735228Y-71950500D01*
X106735230Y-71950500D01*
X106864770Y-71950500D01*
X106864772Y-71950500D01*
X106989069Y-71914004D01*
X107098049Y-71843967D01*
X107182882Y-71746063D01*
X107236697Y-71628226D01*
X107249571Y-71538678D01*
X107276564Y-71483775D01*
X107277559Y-71482766D01*
X107905831Y-70854496D01*
X107960347Y-70826719D01*
X107975834Y-70825500D01*
X108459426Y-70825500D01*
X108517617Y-70844407D01*
X108553581Y-70893907D01*
X108553581Y-70955093D01*
X108552870Y-70957198D01*
X108547139Y-70973574D01*
X108547136Y-70973586D01*
X108528202Y-71141635D01*
X108528202Y-71141644D01*
X108547136Y-71309693D01*
X108547139Y-71309705D01*
X108602992Y-71469324D01*
X108602994Y-71469328D01*
X108602995Y-71469330D01*
X108637450Y-71524165D01*
X108642776Y-71532640D01*
X108657951Y-71585312D01*
X108657951Y-72885168D01*
X108681988Y-73006011D01*
X108681988Y-73006013D01*
X108695798Y-73039353D01*
X108729137Y-73119842D01*
X108729138Y-73119845D01*
X108738605Y-73134012D01*
X108738606Y-73134014D01*
X108797594Y-73222295D01*
X108884719Y-73309419D01*
X108884720Y-73309419D01*
X111561184Y-75985884D01*
X111584624Y-76023190D01*
X111638686Y-76177690D01*
X111638686Y-76177691D01*
X111728662Y-76320886D01*
X111728665Y-76320890D01*
X111848252Y-76440477D01*
X111991452Y-76530456D01*
X112055374Y-76552823D01*
X112151076Y-76586311D01*
X112151080Y-76586312D01*
X112151083Y-76586313D01*
X112151084Y-76586313D01*
X112151088Y-76586314D01*
X112319138Y-76605249D01*
X112319142Y-76605249D01*
X112319146Y-76605249D01*
X112487195Y-76586314D01*
X112487197Y-76586313D01*
X112487201Y-76586313D01*
X112646832Y-76530456D01*
X112790032Y-76440477D01*
X112909619Y-76320890D01*
X112992636Y-76188770D01*
X113039605Y-76149558D01*
X113100652Y-76145442D01*
X113146466Y-76171437D01*
X113665489Y-76690460D01*
X113665491Y-76690461D01*
X113665492Y-76690462D01*
X113665493Y-76690463D01*
X113734008Y-76730020D01*
X113734006Y-76730020D01*
X113734010Y-76730021D01*
X113734012Y-76730022D01*
X113810438Y-76750500D01*
X113810440Y-76750500D01*
X118389563Y-76750500D01*
X118389563Y-76750499D01*
X118465989Y-76730021D01*
X118534511Y-76690460D01*
X118590460Y-76634511D01*
X120365460Y-74859511D01*
X120391733Y-74814004D01*
X120405021Y-74790989D01*
X120425500Y-74714562D01*
X120425500Y-72758005D01*
X120444407Y-72699814D01*
X120449680Y-72693174D01*
X120468774Y-72671138D01*
X120507882Y-72626005D01*
X120561697Y-72508168D01*
X120580133Y-72379942D01*
X120578559Y-72368996D01*
X120561697Y-72251716D01*
X120552239Y-72231006D01*
X120507882Y-72133879D01*
X120423049Y-72035975D01*
X120423048Y-72035974D01*
X120423047Y-72035973D01*
X120314073Y-71965940D01*
X120314070Y-71965938D01*
X120314069Y-71965938D01*
X120314066Y-71965937D01*
X120189774Y-71929442D01*
X120189772Y-71929442D01*
X120060228Y-71929442D01*
X120060225Y-71929442D01*
X119935933Y-71965937D01*
X119935926Y-71965940D01*
X119826952Y-72035973D01*
X119742117Y-72133880D01*
X119688302Y-72251716D01*
X119669867Y-72379939D01*
X119669867Y-72379944D01*
X119688302Y-72508167D01*
X119714015Y-72564469D01*
X119742118Y-72626005D01*
X119762799Y-72649872D01*
X119800320Y-72693174D01*
X119824137Y-72749534D01*
X119824500Y-72758005D01*
X119824500Y-74509521D01*
X119805593Y-74567712D01*
X119795504Y-74579525D01*
X118254525Y-76120504D01*
X118200008Y-76148281D01*
X118184521Y-76149500D01*
X114015479Y-76149500D01*
X113957288Y-76130593D01*
X113945475Y-76120504D01*
X112883496Y-75058525D01*
X112855719Y-75004008D01*
X112855508Y-75002609D01*
X112836698Y-74871775D01*
X112807459Y-74807753D01*
X112782882Y-74753937D01*
X112698049Y-74656033D01*
X112698048Y-74656032D01*
X112698047Y-74656031D01*
X112589073Y-74585998D01*
X112589070Y-74585996D01*
X112589069Y-74585996D01*
X112589066Y-74585995D01*
X112464774Y-74549500D01*
X112464772Y-74549500D01*
X112335228Y-74549500D01*
X112335225Y-74549500D01*
X112210933Y-74585995D01*
X112210931Y-74585996D01*
X112107314Y-74652586D01*
X112048138Y-74668139D01*
X111991122Y-74645940D01*
X111983787Y-74639305D01*
X111128388Y-73783906D01*
X111710958Y-73783906D01*
X111710958Y-73783911D01*
X111729393Y-73912134D01*
X111783208Y-74029970D01*
X111783209Y-74029972D01*
X111846761Y-74103316D01*
X111868043Y-74127877D01*
X111970882Y-74193967D01*
X111977022Y-74197913D01*
X112101319Y-74234409D01*
X112101321Y-74234409D01*
X112230861Y-74234409D01*
X112230863Y-74234409D01*
X112355160Y-74197913D01*
X112464140Y-74127876D01*
X112472196Y-74118579D01*
X112524591Y-74086982D01*
X112547016Y-74084409D01*
X112888430Y-74084409D01*
X112946621Y-74103316D01*
X112958434Y-74113405D01*
X114429540Y-75584511D01*
X114429539Y-75584511D01*
X114485489Y-75640460D01*
X114554007Y-75680019D01*
X114554011Y-75680021D01*
X114630435Y-75700499D01*
X114630437Y-75700500D01*
X114630438Y-75700500D01*
X117539563Y-75700500D01*
X117539563Y-75700499D01*
X117615989Y-75680021D01*
X117684511Y-75640460D01*
X117740460Y-75584511D01*
X119040460Y-74284511D01*
X119080022Y-74215988D01*
X119100500Y-74139562D01*
X119100500Y-74060438D01*
X119100500Y-72708063D01*
X119119407Y-72649872D01*
X119124680Y-72643232D01*
X119182882Y-72576063D01*
X119236697Y-72458226D01*
X119247952Y-72379944D01*
X119255133Y-72330002D01*
X119255133Y-72329997D01*
X119236697Y-72201774D01*
X119196671Y-72114131D01*
X119182882Y-72083937D01*
X119098049Y-71986033D01*
X119098048Y-71986032D01*
X119098047Y-71986031D01*
X118989073Y-71915998D01*
X118989070Y-71915996D01*
X118989069Y-71915996D01*
X118982285Y-71914004D01*
X118864774Y-71879500D01*
X118864772Y-71879500D01*
X118784479Y-71879500D01*
X118726288Y-71860593D01*
X118690324Y-71811093D01*
X118690324Y-71749907D01*
X118714475Y-71710496D01*
X118795475Y-71629496D01*
X118849992Y-71601719D01*
X118865479Y-71600500D01*
X121289563Y-71600500D01*
X121289563Y-71600499D01*
X121365989Y-71580021D01*
X121434511Y-71540460D01*
X121445476Y-71529494D01*
X121499991Y-71501719D01*
X121515478Y-71500500D01*
X121564770Y-71500500D01*
X121564772Y-71500500D01*
X121689069Y-71464004D01*
X121798049Y-71393967D01*
X121882882Y-71296063D01*
X121936697Y-71178226D01*
X121955133Y-71050000D01*
X121955061Y-71049500D01*
X121936697Y-70921774D01*
X121901364Y-70844407D01*
X121882882Y-70803937D01*
X121798049Y-70706033D01*
X121798048Y-70706032D01*
X121798047Y-70706031D01*
X121689073Y-70635998D01*
X121689070Y-70635996D01*
X121689069Y-70635996D01*
X121684352Y-70634611D01*
X121564774Y-70599500D01*
X121564772Y-70599500D01*
X121435228Y-70599500D01*
X121435225Y-70599500D01*
X121310933Y-70635995D01*
X121310926Y-70635998D01*
X121201952Y-70706031D01*
X121117117Y-70803938D01*
X121063303Y-70921772D01*
X121061360Y-70928391D01*
X121026825Y-70978898D01*
X120969198Y-70999460D01*
X120966370Y-70999500D01*
X119623383Y-70999500D01*
X119565192Y-70980593D01*
X119529228Y-70931093D01*
X119529228Y-70869907D01*
X119548561Y-70835671D01*
X119582882Y-70796063D01*
X119636697Y-70678226D01*
X119655133Y-70550000D01*
X119636697Y-70421774D01*
X119582882Y-70303937D01*
X119498049Y-70206033D01*
X119498048Y-70206032D01*
X119498047Y-70206031D01*
X119389073Y-70135998D01*
X119389070Y-70135996D01*
X119389069Y-70135996D01*
X119389066Y-70135995D01*
X119264774Y-70099500D01*
X119264772Y-70099500D01*
X119135228Y-70099500D01*
X119135225Y-70099500D01*
X119010933Y-70135995D01*
X119010926Y-70135998D01*
X118901951Y-70206032D01*
X118901950Y-70206033D01*
X118893895Y-70215330D01*
X118841500Y-70246927D01*
X118819075Y-70249500D01*
X118760435Y-70249500D01*
X118684012Y-70269978D01*
X118631774Y-70300138D01*
X118631773Y-70300137D01*
X118615491Y-70309538D01*
X115675489Y-73249540D01*
X115675488Y-73249539D01*
X115619539Y-73305489D01*
X115579980Y-73374007D01*
X115579978Y-73374011D01*
X115559500Y-73450435D01*
X115559500Y-73471937D01*
X115540593Y-73530128D01*
X115535320Y-73536767D01*
X115477118Y-73603936D01*
X115477116Y-73603940D01*
X115423302Y-73721774D01*
X115404867Y-73849997D01*
X115404867Y-73850002D01*
X115423302Y-73978225D01*
X115435313Y-74004525D01*
X115477118Y-74096063D01*
X115504683Y-74127875D01*
X115561952Y-74193968D01*
X115624880Y-74234409D01*
X115670931Y-74264004D01*
X115795228Y-74300500D01*
X115795230Y-74300500D01*
X115895867Y-74300500D01*
X115954058Y-74319407D01*
X115990022Y-74368907D01*
X115993836Y-74392995D01*
X115993859Y-74392992D01*
X115994082Y-74394545D01*
X115994867Y-74399500D01*
X115994867Y-74400002D01*
X116013302Y-74528225D01*
X116039686Y-74585996D01*
X116067118Y-74646063D01*
X116151951Y-74743967D01*
X116151952Y-74743968D01*
X116260926Y-74814001D01*
X116260931Y-74814004D01*
X116385228Y-74850500D01*
X116385230Y-74850500D01*
X116514770Y-74850500D01*
X116514772Y-74850500D01*
X116639069Y-74814004D01*
X116748049Y-74743967D01*
X116832882Y-74646063D01*
X116886697Y-74528226D01*
X116905133Y-74400000D01*
X116905132Y-74399998D01*
X116905508Y-74397389D01*
X116932503Y-74342481D01*
X116933427Y-74341542D01*
X117840460Y-73434511D01*
X117840463Y-73434506D01*
X117880020Y-73365992D01*
X117880020Y-73365990D01*
X117880022Y-73365988D01*
X117900500Y-73289562D01*
X117900500Y-73210438D01*
X117900500Y-72565479D01*
X117919407Y-72507288D01*
X117929496Y-72495476D01*
X118176502Y-72248469D01*
X118231019Y-72220691D01*
X118291451Y-72230262D01*
X118334716Y-72273527D01*
X118342903Y-72322919D01*
X118344867Y-72322919D01*
X118344867Y-72330002D01*
X118363302Y-72458225D01*
X118400168Y-72538948D01*
X118417118Y-72576063D01*
X118475320Y-72643232D01*
X118499137Y-72699592D01*
X118499500Y-72708063D01*
X118499500Y-73934521D01*
X118480593Y-73992712D01*
X118470504Y-74004525D01*
X117404525Y-75070504D01*
X117350008Y-75098281D01*
X117334521Y-75099500D01*
X114835479Y-75099500D01*
X114777288Y-75080593D01*
X114765475Y-75070504D01*
X114014378Y-74319407D01*
X113238420Y-73543449D01*
X113238417Y-73543447D01*
X113214368Y-73529562D01*
X113169899Y-73503888D01*
X113169894Y-73503886D01*
X113093473Y-73483409D01*
X113093471Y-73483409D01*
X112547016Y-73483409D01*
X112488825Y-73464502D01*
X112472196Y-73449239D01*
X112464140Y-73439942D01*
X112464139Y-73439941D01*
X112355164Y-73369907D01*
X112355161Y-73369905D01*
X112355160Y-73369905D01*
X112355157Y-73369904D01*
X112230865Y-73333409D01*
X112230863Y-73333409D01*
X112101319Y-73333409D01*
X112101316Y-73333409D01*
X111977024Y-73369904D01*
X111977017Y-73369907D01*
X111868043Y-73439940D01*
X111783208Y-73537847D01*
X111729393Y-73655683D01*
X111710958Y-73783906D01*
X111128388Y-73783906D01*
X109937947Y-72593465D01*
X109910170Y-72538948D01*
X109908951Y-72523461D01*
X109908951Y-72208286D01*
X109927858Y-72150095D01*
X109977358Y-72114131D01*
X110038544Y-72114131D01*
X110077955Y-72138282D01*
X110872440Y-72932767D01*
X110900217Y-72987284D01*
X110900428Y-72988682D01*
X110913302Y-73078225D01*
X110938780Y-73134012D01*
X110967118Y-73196063D01*
X111048134Y-73289562D01*
X111051952Y-73293968D01*
X111113324Y-73333409D01*
X111160931Y-73364004D01*
X111285228Y-73400500D01*
X111285230Y-73400500D01*
X111414770Y-73400500D01*
X111414772Y-73400500D01*
X111539069Y-73364004D01*
X111648049Y-73293967D01*
X111732882Y-73196063D01*
X111786697Y-73078226D01*
X111797080Y-73006011D01*
X111805133Y-72950002D01*
X111805133Y-72949997D01*
X111786697Y-72821774D01*
X111757574Y-72758005D01*
X111732882Y-72703937D01*
X111648049Y-72606033D01*
X111648048Y-72606032D01*
X111648047Y-72606031D01*
X111539073Y-72535998D01*
X111539070Y-72535996D01*
X111539069Y-72535996D01*
X111539066Y-72535995D01*
X111414774Y-72499500D01*
X111414772Y-72499500D01*
X111400835Y-72499500D01*
X111342644Y-72480593D01*
X111330831Y-72470504D01*
X110454496Y-71594169D01*
X110426719Y-71539652D01*
X110425500Y-71524165D01*
X110425500Y-70957148D01*
X110425500Y-70957147D01*
X110403318Y-70874362D01*
X110403318Y-70874361D01*
X110375705Y-70826535D01*
X110375705Y-70826534D01*
X110360466Y-70800140D01*
X110360465Y-70800138D01*
X110299862Y-70739535D01*
X110299859Y-70739533D01*
X109799862Y-70239535D01*
X109799859Y-70239533D01*
X109799857Y-70239531D01*
X109725642Y-70196683D01*
X109725644Y-70196683D01*
X109693521Y-70188076D01*
X109642853Y-70174500D01*
X109642851Y-70174500D01*
X107848932Y-70174500D01*
X107848916Y-70174499D01*
X107842853Y-70174499D01*
X107757148Y-70174499D01*
X107757145Y-70174499D01*
X107674365Y-70196680D01*
X107637793Y-70217795D01*
X107603499Y-70237595D01*
X107600135Y-70239537D01*
X107539534Y-70300137D01*
X107539535Y-70300138D01*
X106819169Y-71020504D01*
X106764652Y-71048281D01*
X106749165Y-71049500D01*
X106735225Y-71049500D01*
X106610933Y-71085995D01*
X106610926Y-71085998D01*
X106501952Y-71156031D01*
X106417117Y-71253938D01*
X106363302Y-71371774D01*
X106344867Y-71499997D01*
X102500500Y-71499997D01*
X102500500Y-68819997D01*
X107544867Y-68819997D01*
X107544867Y-68820002D01*
X107563302Y-68948225D01*
X107617117Y-69066061D01*
X107617118Y-69066063D01*
X107618848Y-69068059D01*
X107701952Y-69163968D01*
X107810926Y-69234001D01*
X107810931Y-69234004D01*
X107935228Y-69270500D01*
X107935230Y-69270500D01*
X108064770Y-69270500D01*
X108064772Y-69270500D01*
X108189069Y-69234004D01*
X108298049Y-69163967D01*
X108382882Y-69066063D01*
X108428042Y-68967175D01*
X108448091Y-68938301D01*
X108781897Y-68604496D01*
X108836413Y-68576719D01*
X108851900Y-68575500D01*
X115077929Y-68575500D01*
X115136120Y-68594407D01*
X115144687Y-68601723D01*
X115146716Y-68603280D01*
X115146718Y-68603282D01*
X115272159Y-68699536D01*
X115272160Y-68699536D01*
X115272161Y-68699537D01*
X115404211Y-68754234D01*
X115418238Y-68760044D01*
X115535809Y-68775522D01*
X115574999Y-68780682D01*
X115575000Y-68780682D01*
X115575001Y-68780682D01*
X115606352Y-68776554D01*
X115731762Y-68760044D01*
X115877841Y-68699536D01*
X116003282Y-68603282D01*
X116003281Y-68603282D01*
X116008430Y-68599332D01*
X116009490Y-68600713D01*
X116056584Y-68576719D01*
X116072071Y-68575500D01*
X116849058Y-68575500D01*
X116849060Y-68575500D01*
X116950921Y-68548207D01*
X116950923Y-68548205D01*
X116950925Y-68548205D01*
X117042241Y-68495483D01*
X117042241Y-68495482D01*
X117042246Y-68495480D01*
X117132291Y-68405435D01*
X122954500Y-68405435D01*
X122954500Y-71394564D01*
X122974977Y-71470985D01*
X122974981Y-71470993D01*
X122991806Y-71500137D01*
X122991807Y-71500137D01*
X122995230Y-71506065D01*
X123014540Y-71539511D01*
X123016504Y-71541475D01*
X123017408Y-71543250D01*
X123018491Y-71544661D01*
X123018229Y-71544861D01*
X123044280Y-71595990D01*
X123044491Y-71597388D01*
X123063302Y-71728225D01*
X123116161Y-71843967D01*
X123117118Y-71846063D01*
X123177716Y-71915998D01*
X123201952Y-71943968D01*
X123267404Y-71986031D01*
X123310931Y-72014004D01*
X123435228Y-72050500D01*
X123435230Y-72050500D01*
X123564770Y-72050500D01*
X123564772Y-72050500D01*
X123689069Y-72014004D01*
X123798049Y-71943967D01*
X123882882Y-71846063D01*
X123936697Y-71728226D01*
X123950892Y-71629496D01*
X123955133Y-71600002D01*
X123955133Y-71599997D01*
X123936697Y-71471774D01*
X123935578Y-71469324D01*
X123882882Y-71353937D01*
X123798049Y-71256033D01*
X123798048Y-71256032D01*
X123798047Y-71256031D01*
X123689073Y-71185998D01*
X123689070Y-71185997D01*
X123689069Y-71185996D01*
X123654953Y-71175978D01*
X123626608Y-71167656D01*
X123576102Y-71133120D01*
X123555540Y-71075493D01*
X123555500Y-71072666D01*
X123555500Y-68899995D01*
X124944751Y-68899995D01*
X124944751Y-68900004D01*
X124963685Y-69068053D01*
X124963688Y-69068065D01*
X125019544Y-69227690D01*
X125019544Y-69227691D01*
X125046443Y-69270500D01*
X125109523Y-69370890D01*
X125229110Y-69490477D01*
X125229112Y-69490478D01*
X125229113Y-69490479D01*
X125367651Y-69577529D01*
X125372310Y-69580456D01*
X125454035Y-69609052D01*
X125537190Y-69638150D01*
X125536670Y-69639634D01*
X125577740Y-69662330D01*
X126495504Y-70580094D01*
X126523281Y-70634611D01*
X126524500Y-70650098D01*
X126524500Y-74706326D01*
X126509326Y-74758997D01*
X126469544Y-74822308D01*
X126469544Y-74822309D01*
X126413688Y-74981934D01*
X126413685Y-74981946D01*
X126394751Y-75149995D01*
X126394751Y-75150004D01*
X126413685Y-75318053D01*
X126413688Y-75318065D01*
X126469544Y-75477690D01*
X126469544Y-75477691D01*
X126536664Y-75584511D01*
X126559523Y-75620890D01*
X126679110Y-75740477D01*
X126679112Y-75740478D01*
X126679113Y-75740479D01*
X126704831Y-75756639D01*
X126822310Y-75830456D01*
X126886232Y-75852823D01*
X126981934Y-75886311D01*
X126981938Y-75886312D01*
X126981941Y-75886313D01*
X126981942Y-75886313D01*
X126981946Y-75886314D01*
X127149996Y-75905249D01*
X127150000Y-75905249D01*
X127150004Y-75905249D01*
X127318053Y-75886314D01*
X127318055Y-75886313D01*
X127318059Y-75886313D01*
X127477690Y-75830456D01*
X127620890Y-75740477D01*
X127740477Y-75620890D01*
X127830456Y-75477690D01*
X127886313Y-75318059D01*
X127900611Y-75191164D01*
X127905249Y-75150004D01*
X127905249Y-75149995D01*
X127886314Y-74981946D01*
X127886311Y-74981934D01*
X127843473Y-74859511D01*
X127830456Y-74822310D01*
X127790674Y-74758997D01*
X127775500Y-74706326D01*
X127775500Y-70416507D01*
X127775501Y-70416486D01*
X127775501Y-70288395D01*
X127775500Y-70288391D01*
X127772655Y-70274090D01*
X127759118Y-70206031D01*
X127752846Y-70174499D01*
X127752846Y-70174498D01*
X127751465Y-70167559D01*
X127751463Y-70167548D01*
X127723467Y-70099960D01*
X127723276Y-70099500D01*
X127704314Y-70053719D01*
X127704308Y-70053707D01*
X127635858Y-69951267D01*
X127508179Y-69823588D01*
X130146276Y-69823588D01*
X130146276Y-69823593D01*
X130164711Y-69951816D01*
X130218526Y-70069652D01*
X130218527Y-70069654D01*
X130267926Y-70126664D01*
X130303361Y-70167559D01*
X130412335Y-70237592D01*
X130412340Y-70237595D01*
X130536637Y-70274091D01*
X130536639Y-70274091D01*
X130666179Y-70274091D01*
X130666181Y-70274091D01*
X130790478Y-70237595D01*
X130899458Y-70167558D01*
X130907514Y-70158261D01*
X130959909Y-70126664D01*
X130982334Y-70124091D01*
X132510700Y-70124091D01*
X132568891Y-70142998D01*
X132600753Y-70181964D01*
X132611745Y-70206032D01*
X132617118Y-70217797D01*
X132696611Y-70309538D01*
X132701952Y-70315702D01*
X132810926Y-70385735D01*
X132810931Y-70385738D01*
X132935228Y-70422234D01*
X132935230Y-70422234D01*
X133064770Y-70422234D01*
X133064772Y-70422234D01*
X133189069Y-70385738D01*
X133298049Y-70315701D01*
X133382882Y-70217797D01*
X133436697Y-70099960D01*
X133455133Y-69971734D01*
X133452269Y-69951817D01*
X133436697Y-69843508D01*
X133382882Y-69725672D01*
X133382882Y-69725671D01*
X133298049Y-69627767D01*
X133298048Y-69627766D01*
X133298047Y-69627765D01*
X133189073Y-69557732D01*
X133189070Y-69557730D01*
X133189069Y-69557730D01*
X133189066Y-69557729D01*
X133064774Y-69521234D01*
X133064772Y-69521234D01*
X132935228Y-69521234D01*
X132935226Y-69521234D01*
X132928222Y-69522241D01*
X132928090Y-69521327D01*
X132896563Y-69523768D01*
X132891419Y-69523091D01*
X130982334Y-69523091D01*
X130924143Y-69504184D01*
X130907514Y-69488921D01*
X130899458Y-69479624D01*
X130899457Y-69479623D01*
X130790482Y-69409589D01*
X130790479Y-69409587D01*
X130790478Y-69409587D01*
X130790475Y-69409586D01*
X130666183Y-69373091D01*
X130666181Y-69373091D01*
X130536637Y-69373091D01*
X130536634Y-69373091D01*
X130412342Y-69409586D01*
X130412335Y-69409589D01*
X130303361Y-69479622D01*
X130218526Y-69577529D01*
X130164711Y-69695365D01*
X130146276Y-69823588D01*
X127508179Y-69823588D01*
X126462330Y-68777740D01*
X126439634Y-68736670D01*
X126438150Y-68737190D01*
X126419708Y-68684487D01*
X126380456Y-68572310D01*
X126367875Y-68552288D01*
X126290479Y-68429113D01*
X126290478Y-68429112D01*
X126290477Y-68429110D01*
X126170890Y-68309523D01*
X126170887Y-68309521D01*
X126170886Y-68309520D01*
X126027691Y-68219544D01*
X125868065Y-68163688D01*
X125868053Y-68163685D01*
X125700004Y-68144751D01*
X125699996Y-68144751D01*
X125531946Y-68163685D01*
X125531934Y-68163688D01*
X125372309Y-68219544D01*
X125372308Y-68219544D01*
X125229113Y-68309520D01*
X125109520Y-68429113D01*
X125019544Y-68572308D01*
X125019544Y-68572309D01*
X124963688Y-68731934D01*
X124963685Y-68731946D01*
X124944751Y-68899995D01*
X123555500Y-68899995D01*
X123555500Y-68610479D01*
X123574407Y-68552288D01*
X123584496Y-68540475D01*
X123645475Y-68479496D01*
X123699992Y-68451719D01*
X123715479Y-68450500D01*
X123764770Y-68450500D01*
X123764772Y-68450500D01*
X123889069Y-68414004D01*
X123998049Y-68343967D01*
X124082882Y-68246063D01*
X124136697Y-68128226D01*
X124155133Y-68000000D01*
X124144937Y-67929087D01*
X124136697Y-67871774D01*
X124128817Y-67854520D01*
X124082882Y-67753937D01*
X123998049Y-67656033D01*
X123998048Y-67656032D01*
X123998047Y-67656031D01*
X123889073Y-67585998D01*
X123889070Y-67585996D01*
X123889069Y-67585996D01*
X123889066Y-67585995D01*
X123764774Y-67549500D01*
X123764772Y-67549500D01*
X123635228Y-67549500D01*
X123635225Y-67549500D01*
X123510933Y-67585995D01*
X123510926Y-67585998D01*
X123401952Y-67656031D01*
X123317117Y-67753938D01*
X123263302Y-67871774D01*
X123244491Y-68002611D01*
X123217495Y-68057519D01*
X123216557Y-68058470D01*
X123070489Y-68204540D01*
X123070488Y-68204539D01*
X123014539Y-68260489D01*
X122974980Y-68329007D01*
X122974978Y-68329011D01*
X122954500Y-68405435D01*
X117132291Y-68405435D01*
X119694765Y-65842959D01*
X119749282Y-65815183D01*
X119760498Y-65814300D01*
X119763050Y-65813963D01*
X119763051Y-65813964D01*
X119919813Y-65793326D01*
X120065892Y-65732818D01*
X120191333Y-65636564D01*
X120287587Y-65511123D01*
X120348095Y-65365044D01*
X120368733Y-65208282D01*
X120348095Y-65051520D01*
X120287588Y-64905443D01*
X120287588Y-64905442D01*
X120191337Y-64780005D01*
X120191336Y-64780004D01*
X120191333Y-64780000D01*
X120191328Y-64779996D01*
X120191327Y-64779995D01*
X120065889Y-64683744D01*
X119919817Y-64623239D01*
X119919809Y-64623237D01*
X119763052Y-64602600D01*
X119763050Y-64602600D01*
X119606292Y-64623237D01*
X119606284Y-64623239D01*
X119460212Y-64683744D01*
X119460211Y-64683744D01*
X119334774Y-64779995D01*
X119334764Y-64780005D01*
X119238513Y-64905442D01*
X119238513Y-64905443D01*
X119178008Y-65051515D01*
X119178006Y-65051523D01*
X119156522Y-65214715D01*
X119154793Y-65214487D01*
X119138462Y-65264753D01*
X119128373Y-65276566D01*
X116659436Y-67745504D01*
X116604919Y-67773281D01*
X116589432Y-67774500D01*
X116072071Y-67774500D01*
X116013880Y-67755593D01*
X116005312Y-67748276D01*
X116001699Y-67745504D01*
X115877841Y-67650464D01*
X115877840Y-67650463D01*
X115877838Y-67650462D01*
X115731766Y-67589957D01*
X115731758Y-67589955D01*
X115575001Y-67569318D01*
X115574999Y-67569318D01*
X115418241Y-67589955D01*
X115418233Y-67589957D01*
X115272161Y-67650462D01*
X115272160Y-67650462D01*
X115141570Y-67750668D01*
X115140509Y-67749286D01*
X115093416Y-67773281D01*
X115077929Y-67774500D01*
X108703806Y-67774500D01*
X108703790Y-67774499D01*
X108697727Y-67774499D01*
X108592273Y-67774499D01*
X108490412Y-67801793D01*
X108490411Y-67801793D01*
X108490409Y-67801794D01*
X108464882Y-67816532D01*
X108444750Y-67828156D01*
X108415800Y-67844870D01*
X108399086Y-67854520D01*
X108324519Y-67929086D01*
X108324520Y-67929087D01*
X108324518Y-67929089D01*
X108324517Y-67929089D01*
X107880723Y-68372882D01*
X107838613Y-68397867D01*
X107810936Y-68405993D01*
X107810926Y-68405998D01*
X107701952Y-68476031D01*
X107617117Y-68573938D01*
X107563302Y-68691774D01*
X107544867Y-68819997D01*
X102500500Y-68819997D01*
X102500500Y-64099997D01*
X115144867Y-64099997D01*
X115144867Y-64100002D01*
X115163302Y-64228225D01*
X115217117Y-64346061D01*
X115217118Y-64346063D01*
X115301951Y-64443967D01*
X115301952Y-64443968D01*
X115410926Y-64514001D01*
X115410931Y-64514004D01*
X115535228Y-64550500D01*
X115535230Y-64550500D01*
X115664770Y-64550500D01*
X115664772Y-64550500D01*
X115789069Y-64514004D01*
X115898049Y-64443967D01*
X115982882Y-64346063D01*
X116036697Y-64228226D01*
X116055133Y-64100000D01*
X116036697Y-63971774D01*
X115982882Y-63853937D01*
X115898049Y-63756033D01*
X115898048Y-63756032D01*
X115898047Y-63756031D01*
X115789073Y-63685998D01*
X115789070Y-63685996D01*
X115789069Y-63685996D01*
X115789066Y-63685995D01*
X115664774Y-63649500D01*
X115664772Y-63649500D01*
X115535228Y-63649500D01*
X115535225Y-63649500D01*
X115410933Y-63685995D01*
X115410926Y-63685998D01*
X115301952Y-63756031D01*
X115217117Y-63853938D01*
X115163302Y-63971774D01*
X115144867Y-64099997D01*
X102500500Y-64099997D01*
X102500500Y-61250000D01*
X121900000Y-61250000D01*
X121919698Y-61500293D01*
X121978310Y-61744428D01*
X122074388Y-61976382D01*
X122074394Y-61976394D01*
X122205569Y-62190450D01*
X122205570Y-62190452D01*
X122205571Y-62190454D01*
X122205573Y-62190456D01*
X122368629Y-62381371D01*
X122559544Y-62544427D01*
X122559546Y-62544428D01*
X122559547Y-62544429D01*
X122559549Y-62544430D01*
X122773605Y-62675605D01*
X122773617Y-62675611D01*
X123005571Y-62771689D01*
X123005573Y-62771690D01*
X123249705Y-62830301D01*
X123500000Y-62850000D01*
X123750295Y-62830301D01*
X123994427Y-62771690D01*
X124226385Y-62675610D01*
X124226389Y-62675607D01*
X124226394Y-62675605D01*
X124318912Y-62618908D01*
X124440456Y-62544427D01*
X124631371Y-62381371D01*
X124794427Y-62190456D01*
X124868908Y-62068912D01*
X124925605Y-61976394D01*
X124925607Y-61976389D01*
X124925610Y-61976385D01*
X125021690Y-61744427D01*
X125080301Y-61500295D01*
X125100000Y-61250000D01*
X125080301Y-60999705D01*
X125021690Y-60755573D01*
X124925610Y-60523615D01*
X124925605Y-60523605D01*
X124794430Y-60309549D01*
X124794429Y-60309547D01*
X124794428Y-60309546D01*
X124794427Y-60309544D01*
X124631371Y-60118629D01*
X124631364Y-60118623D01*
X124631361Y-60118620D01*
X124440452Y-59955570D01*
X124440450Y-59955569D01*
X124226394Y-59824394D01*
X124226382Y-59824388D01*
X123994428Y-59728310D01*
X123994429Y-59728310D01*
X123750293Y-59669698D01*
X123500000Y-59650000D01*
X123249706Y-59669698D01*
X123005571Y-59728310D01*
X122773617Y-59824388D01*
X122773605Y-59824394D01*
X122559549Y-59955569D01*
X122559547Y-59955570D01*
X122368638Y-60118620D01*
X122368620Y-60118638D01*
X122205570Y-60309547D01*
X122205569Y-60309549D01*
X122074394Y-60523605D01*
X122074388Y-60523617D01*
X121978310Y-60755571D01*
X121919698Y-60999706D01*
X121900000Y-61250000D01*
X102500500Y-61250000D01*
X102500500Y-56963739D01*
X102519407Y-56905548D01*
X102568907Y-56869584D01*
X102630093Y-56869584D01*
X102679591Y-56905547D01*
X102779207Y-57042656D01*
X102957344Y-57220793D01*
X103161155Y-57368870D01*
X103385621Y-57483241D01*
X103625215Y-57561090D01*
X103625216Y-57561090D01*
X103625219Y-57561091D01*
X103874035Y-57600500D01*
X103874038Y-57600500D01*
X104125965Y-57600500D01*
X104374780Y-57561091D01*
X104374781Y-57561090D01*
X104374785Y-57561090D01*
X104614379Y-57483241D01*
X104838845Y-57368870D01*
X105042656Y-57220793D01*
X105220793Y-57042656D01*
X105368870Y-56838845D01*
X105483241Y-56614379D01*
X105561090Y-56374785D01*
X105600500Y-56125962D01*
X105600500Y-55874038D01*
X105600500Y-55874034D01*
X105561091Y-55625219D01*
X105561090Y-55625215D01*
X105483241Y-55385621D01*
X105368870Y-55161155D01*
X105220793Y-54957344D01*
X105042656Y-54779207D01*
X104905547Y-54679591D01*
X104869584Y-54630093D01*
X104869584Y-54568907D01*
X104905548Y-54519407D01*
X104963739Y-54500500D01*
X142036261Y-54500500D01*
X142094452Y-54519407D01*
G37*
%TD.AperFunction*%
%TD*%
M02*
