%TF.GenerationSoftware,KiCad,Pcbnew,10.0.1*%
%TF.CreationDate,2026-07-07T13:59:25+01:00*%
%TF.ProjectId,oe-commutator-controller,6f652d63-6f6d-46d7-9574-61746f722d63,J*%
%TF.SameCoordinates,PX6146580PY8e18f40*%
%TF.FileFunction,AssemblyDrawing,Bot*%
%FSLAX46Y46*%
G04 Gerber Fmt 4.6, Leading zero omitted, Abs format (unit mm)*
G04 Created by KiCad (PCBNEW 10.0.1) date 2026-07-07 13:59:25*
%MOMM*%
%LPD*%
G01*
G04 APERTURE LIST*
%ADD10C,0.150000*%
%ADD11C,0.040000*%
G04 APERTURE END LIST*
D10*
X8261904Y22076134D02*
X8214285Y22123753D01*
X8214285Y22123753D02*
X8119047Y22171372D01*
X8119047Y22171372D02*
X7928571Y22076134D01*
X7928571Y22076134D02*
X7833333Y22123753D01*
X7833333Y22123753D02*
X7785714Y22171372D01*
D11*
X8240475Y23798330D02*
X8204761Y23786426D01*
X8204761Y23786426D02*
X8145237Y23786426D01*
X8145237Y23786426D02*
X8121428Y23798330D01*
X8121428Y23798330D02*
X8109523Y23810235D01*
X8109523Y23810235D02*
X8097618Y23834045D01*
X8097618Y23834045D02*
X8097618Y23857854D01*
X8097618Y23857854D02*
X8109523Y23881664D01*
X8109523Y23881664D02*
X8121428Y23893569D01*
X8121428Y23893569D02*
X8145237Y23905473D01*
X8145237Y23905473D02*
X8192856Y23917378D01*
X8192856Y23917378D02*
X8216666Y23929283D01*
X8216666Y23929283D02*
X8228571Y23941188D01*
X8228571Y23941188D02*
X8240475Y23964997D01*
X8240475Y23964997D02*
X8240475Y23988807D01*
X8240475Y23988807D02*
X8228571Y24012616D01*
X8228571Y24012616D02*
X8216666Y24024521D01*
X8216666Y24024521D02*
X8192856Y24036426D01*
X8192856Y24036426D02*
X8133333Y24036426D01*
X8133333Y24036426D02*
X8097618Y24024521D01*
X7883333Y23953092D02*
X7883333Y23786426D01*
X7942857Y24048330D02*
X8002380Y23869759D01*
X8002380Y23869759D02*
X7847619Y23869759D01*
D10*
X25411904Y68876134D02*
X25364285Y68923753D01*
X25364285Y68923753D02*
X25269047Y68971372D01*
X25269047Y68971372D02*
X25078571Y68876134D01*
X25078571Y68876134D02*
X24983333Y68923753D01*
X24983333Y68923753D02*
X24935714Y68971372D01*
D11*
X25390475Y70598330D02*
X25354761Y70586426D01*
X25354761Y70586426D02*
X25295237Y70586426D01*
X25295237Y70586426D02*
X25271428Y70598330D01*
X25271428Y70598330D02*
X25259523Y70610235D01*
X25259523Y70610235D02*
X25247618Y70634045D01*
X25247618Y70634045D02*
X25247618Y70657854D01*
X25247618Y70657854D02*
X25259523Y70681664D01*
X25259523Y70681664D02*
X25271428Y70693569D01*
X25271428Y70693569D02*
X25295237Y70705473D01*
X25295237Y70705473D02*
X25342856Y70717378D01*
X25342856Y70717378D02*
X25366666Y70729283D01*
X25366666Y70729283D02*
X25378571Y70741188D01*
X25378571Y70741188D02*
X25390475Y70764997D01*
X25390475Y70764997D02*
X25390475Y70788807D01*
X25390475Y70788807D02*
X25378571Y70812616D01*
X25378571Y70812616D02*
X25366666Y70824521D01*
X25366666Y70824521D02*
X25342856Y70836426D01*
X25342856Y70836426D02*
X25283333Y70836426D01*
X25283333Y70836426D02*
X25247618Y70824521D01*
X25009523Y70586426D02*
X25152380Y70586426D01*
X25080952Y70586426D02*
X25080952Y70836426D01*
X25080952Y70836426D02*
X25104761Y70800711D01*
X25104761Y70800711D02*
X25128571Y70776902D01*
X25128571Y70776902D02*
X25152380Y70764997D01*
D10*
X10541904Y67316134D02*
X10494285Y67363753D01*
X10494285Y67363753D02*
X10399047Y67411372D01*
X10399047Y67411372D02*
X10208571Y67316134D01*
X10208571Y67316134D02*
X10113333Y67363753D01*
X10113333Y67363753D02*
X10065714Y67411372D01*
D11*
X10520475Y69038330D02*
X10484761Y69026426D01*
X10484761Y69026426D02*
X10425237Y69026426D01*
X10425237Y69026426D02*
X10401428Y69038330D01*
X10401428Y69038330D02*
X10389523Y69050235D01*
X10389523Y69050235D02*
X10377618Y69074045D01*
X10377618Y69074045D02*
X10377618Y69097854D01*
X10377618Y69097854D02*
X10389523Y69121664D01*
X10389523Y69121664D02*
X10401428Y69133569D01*
X10401428Y69133569D02*
X10425237Y69145473D01*
X10425237Y69145473D02*
X10472856Y69157378D01*
X10472856Y69157378D02*
X10496666Y69169283D01*
X10496666Y69169283D02*
X10508571Y69181188D01*
X10508571Y69181188D02*
X10520475Y69204997D01*
X10520475Y69204997D02*
X10520475Y69228807D01*
X10520475Y69228807D02*
X10508571Y69252616D01*
X10508571Y69252616D02*
X10496666Y69264521D01*
X10496666Y69264521D02*
X10472856Y69276426D01*
X10472856Y69276426D02*
X10413333Y69276426D01*
X10413333Y69276426D02*
X10377618Y69264521D01*
X10294285Y69276426D02*
X10139523Y69276426D01*
X10139523Y69276426D02*
X10222857Y69181188D01*
X10222857Y69181188D02*
X10187142Y69181188D01*
X10187142Y69181188D02*
X10163333Y69169283D01*
X10163333Y69169283D02*
X10151428Y69157378D01*
X10151428Y69157378D02*
X10139523Y69133569D01*
X10139523Y69133569D02*
X10139523Y69074045D01*
X10139523Y69074045D02*
X10151428Y69050235D01*
X10151428Y69050235D02*
X10163333Y69038330D01*
X10163333Y69038330D02*
X10187142Y69026426D01*
X10187142Y69026426D02*
X10258571Y69026426D01*
X10258571Y69026426D02*
X10282380Y69038330D01*
X10282380Y69038330D02*
X10294285Y69050235D01*
D10*
X16261904Y82676134D02*
X16214285Y82723753D01*
X16214285Y82723753D02*
X16119047Y82771372D01*
X16119047Y82771372D02*
X15928571Y82676134D01*
X15928571Y82676134D02*
X15833333Y82723753D01*
X15833333Y82723753D02*
X15785714Y82771372D01*
D11*
X16240475Y84398330D02*
X16204761Y84386426D01*
X16204761Y84386426D02*
X16145237Y84386426D01*
X16145237Y84386426D02*
X16121428Y84398330D01*
X16121428Y84398330D02*
X16109523Y84410235D01*
X16109523Y84410235D02*
X16097618Y84434045D01*
X16097618Y84434045D02*
X16097618Y84457854D01*
X16097618Y84457854D02*
X16109523Y84481664D01*
X16109523Y84481664D02*
X16121428Y84493569D01*
X16121428Y84493569D02*
X16145237Y84505473D01*
X16145237Y84505473D02*
X16192856Y84517378D01*
X16192856Y84517378D02*
X16216666Y84529283D01*
X16216666Y84529283D02*
X16228571Y84541188D01*
X16228571Y84541188D02*
X16240475Y84564997D01*
X16240475Y84564997D02*
X16240475Y84588807D01*
X16240475Y84588807D02*
X16228571Y84612616D01*
X16228571Y84612616D02*
X16216666Y84624521D01*
X16216666Y84624521D02*
X16192856Y84636426D01*
X16192856Y84636426D02*
X16133333Y84636426D01*
X16133333Y84636426D02*
X16097618Y84624521D01*
X16002380Y84612616D02*
X15990476Y84624521D01*
X15990476Y84624521D02*
X15966666Y84636426D01*
X15966666Y84636426D02*
X15907142Y84636426D01*
X15907142Y84636426D02*
X15883333Y84624521D01*
X15883333Y84624521D02*
X15871428Y84612616D01*
X15871428Y84612616D02*
X15859523Y84588807D01*
X15859523Y84588807D02*
X15859523Y84564997D01*
X15859523Y84564997D02*
X15871428Y84529283D01*
X15871428Y84529283D02*
X16014285Y84386426D01*
X16014285Y84386426D02*
X15859523Y84386426D01*
M02*
