%TF.GenerationSoftware,KiCad,Pcbnew,8.0.5*%
%TF.CreationDate,2024-12-09T17:10:56-05:00*%
%TF.ProjectId,oe-commutator-controller,6f652d63-6f6d-46d7-9574-61746f722d63,F*%
%TF.SameCoordinates,Original*%
%TF.FileFunction,AssemblyDrawing,Bot*%
%FSLAX46Y46*%
G04 Gerber Fmt 4.6, Leading zero omitted, Abs format (unit mm)*
G04 Created by KiCad (PCBNEW 8.0.5) date 2024-12-09 17:10:56*
%MOMM*%
%LPD*%
G01*
G04 APERTURE LIST*
%ADD10C,0.150000*%
%ADD11C,0.040000*%
G04 APERTURE END LIST*
D10*
X110261904Y-126923866D02*
X110214285Y-126876247D01*
X110214285Y-126876247D02*
X110119047Y-126828628D01*
X110119047Y-126828628D02*
X109928571Y-126923866D01*
X109928571Y-126923866D02*
X109833333Y-126876247D01*
X109833333Y-126876247D02*
X109785714Y-126828628D01*
D11*
X110240475Y-125201670D02*
X110204761Y-125213574D01*
X110204761Y-125213574D02*
X110145237Y-125213574D01*
X110145237Y-125213574D02*
X110121428Y-125201670D01*
X110121428Y-125201670D02*
X110109523Y-125189765D01*
X110109523Y-125189765D02*
X110097618Y-125165955D01*
X110097618Y-125165955D02*
X110097618Y-125142146D01*
X110097618Y-125142146D02*
X110109523Y-125118336D01*
X110109523Y-125118336D02*
X110121428Y-125106431D01*
X110121428Y-125106431D02*
X110145237Y-125094527D01*
X110145237Y-125094527D02*
X110192856Y-125082622D01*
X110192856Y-125082622D02*
X110216666Y-125070717D01*
X110216666Y-125070717D02*
X110228571Y-125058812D01*
X110228571Y-125058812D02*
X110240475Y-125035003D01*
X110240475Y-125035003D02*
X110240475Y-125011193D01*
X110240475Y-125011193D02*
X110228571Y-124987384D01*
X110228571Y-124987384D02*
X110216666Y-124975479D01*
X110216666Y-124975479D02*
X110192856Y-124963574D01*
X110192856Y-124963574D02*
X110133333Y-124963574D01*
X110133333Y-124963574D02*
X110097618Y-124975479D01*
X109883333Y-125046908D02*
X109883333Y-125213574D01*
X109942857Y-124951670D02*
X110002380Y-125130241D01*
X110002380Y-125130241D02*
X109847619Y-125130241D01*
D10*
X127411904Y-80123866D02*
X127364285Y-80076247D01*
X127364285Y-80076247D02*
X127269047Y-80028628D01*
X127269047Y-80028628D02*
X127078571Y-80123866D01*
X127078571Y-80123866D02*
X126983333Y-80076247D01*
X126983333Y-80076247D02*
X126935714Y-80028628D01*
D11*
X127390475Y-78401670D02*
X127354761Y-78413574D01*
X127354761Y-78413574D02*
X127295237Y-78413574D01*
X127295237Y-78413574D02*
X127271428Y-78401670D01*
X127271428Y-78401670D02*
X127259523Y-78389765D01*
X127259523Y-78389765D02*
X127247618Y-78365955D01*
X127247618Y-78365955D02*
X127247618Y-78342146D01*
X127247618Y-78342146D02*
X127259523Y-78318336D01*
X127259523Y-78318336D02*
X127271428Y-78306431D01*
X127271428Y-78306431D02*
X127295237Y-78294527D01*
X127295237Y-78294527D02*
X127342856Y-78282622D01*
X127342856Y-78282622D02*
X127366666Y-78270717D01*
X127366666Y-78270717D02*
X127378571Y-78258812D01*
X127378571Y-78258812D02*
X127390475Y-78235003D01*
X127390475Y-78235003D02*
X127390475Y-78211193D01*
X127390475Y-78211193D02*
X127378571Y-78187384D01*
X127378571Y-78187384D02*
X127366666Y-78175479D01*
X127366666Y-78175479D02*
X127342856Y-78163574D01*
X127342856Y-78163574D02*
X127283333Y-78163574D01*
X127283333Y-78163574D02*
X127247618Y-78175479D01*
X127009523Y-78413574D02*
X127152380Y-78413574D01*
X127080952Y-78413574D02*
X127080952Y-78163574D01*
X127080952Y-78163574D02*
X127104761Y-78199289D01*
X127104761Y-78199289D02*
X127128571Y-78223098D01*
X127128571Y-78223098D02*
X127152380Y-78235003D01*
D10*
X111791904Y-79633866D02*
X111744285Y-79586247D01*
X111744285Y-79586247D02*
X111649047Y-79538628D01*
X111649047Y-79538628D02*
X111458571Y-79633866D01*
X111458571Y-79633866D02*
X111363333Y-79586247D01*
X111363333Y-79586247D02*
X111315714Y-79538628D01*
D11*
X111770475Y-77911670D02*
X111734761Y-77923574D01*
X111734761Y-77923574D02*
X111675237Y-77923574D01*
X111675237Y-77923574D02*
X111651428Y-77911670D01*
X111651428Y-77911670D02*
X111639523Y-77899765D01*
X111639523Y-77899765D02*
X111627618Y-77875955D01*
X111627618Y-77875955D02*
X111627618Y-77852146D01*
X111627618Y-77852146D02*
X111639523Y-77828336D01*
X111639523Y-77828336D02*
X111651428Y-77816431D01*
X111651428Y-77816431D02*
X111675237Y-77804527D01*
X111675237Y-77804527D02*
X111722856Y-77792622D01*
X111722856Y-77792622D02*
X111746666Y-77780717D01*
X111746666Y-77780717D02*
X111758571Y-77768812D01*
X111758571Y-77768812D02*
X111770475Y-77745003D01*
X111770475Y-77745003D02*
X111770475Y-77721193D01*
X111770475Y-77721193D02*
X111758571Y-77697384D01*
X111758571Y-77697384D02*
X111746666Y-77685479D01*
X111746666Y-77685479D02*
X111722856Y-77673574D01*
X111722856Y-77673574D02*
X111663333Y-77673574D01*
X111663333Y-77673574D02*
X111627618Y-77685479D01*
X111544285Y-77673574D02*
X111389523Y-77673574D01*
X111389523Y-77673574D02*
X111472857Y-77768812D01*
X111472857Y-77768812D02*
X111437142Y-77768812D01*
X111437142Y-77768812D02*
X111413333Y-77780717D01*
X111413333Y-77780717D02*
X111401428Y-77792622D01*
X111401428Y-77792622D02*
X111389523Y-77816431D01*
X111389523Y-77816431D02*
X111389523Y-77875955D01*
X111389523Y-77875955D02*
X111401428Y-77899765D01*
X111401428Y-77899765D02*
X111413333Y-77911670D01*
X111413333Y-77911670D02*
X111437142Y-77923574D01*
X111437142Y-77923574D02*
X111508571Y-77923574D01*
X111508571Y-77923574D02*
X111532380Y-77911670D01*
X111532380Y-77911670D02*
X111544285Y-77899765D01*
D10*
X118261904Y-66323866D02*
X118214285Y-66276247D01*
X118214285Y-66276247D02*
X118119047Y-66228628D01*
X118119047Y-66228628D02*
X117928571Y-66323866D01*
X117928571Y-66323866D02*
X117833333Y-66276247D01*
X117833333Y-66276247D02*
X117785714Y-66228628D01*
D11*
X118240475Y-64601670D02*
X118204761Y-64613574D01*
X118204761Y-64613574D02*
X118145237Y-64613574D01*
X118145237Y-64613574D02*
X118121428Y-64601670D01*
X118121428Y-64601670D02*
X118109523Y-64589765D01*
X118109523Y-64589765D02*
X118097618Y-64565955D01*
X118097618Y-64565955D02*
X118097618Y-64542146D01*
X118097618Y-64542146D02*
X118109523Y-64518336D01*
X118109523Y-64518336D02*
X118121428Y-64506431D01*
X118121428Y-64506431D02*
X118145237Y-64494527D01*
X118145237Y-64494527D02*
X118192856Y-64482622D01*
X118192856Y-64482622D02*
X118216666Y-64470717D01*
X118216666Y-64470717D02*
X118228571Y-64458812D01*
X118228571Y-64458812D02*
X118240475Y-64435003D01*
X118240475Y-64435003D02*
X118240475Y-64411193D01*
X118240475Y-64411193D02*
X118228571Y-64387384D01*
X118228571Y-64387384D02*
X118216666Y-64375479D01*
X118216666Y-64375479D02*
X118192856Y-64363574D01*
X118192856Y-64363574D02*
X118133333Y-64363574D01*
X118133333Y-64363574D02*
X118097618Y-64375479D01*
X118002380Y-64387384D02*
X117990476Y-64375479D01*
X117990476Y-64375479D02*
X117966666Y-64363574D01*
X117966666Y-64363574D02*
X117907142Y-64363574D01*
X117907142Y-64363574D02*
X117883333Y-64375479D01*
X117883333Y-64375479D02*
X117871428Y-64387384D01*
X117871428Y-64387384D02*
X117859523Y-64411193D01*
X117859523Y-64411193D02*
X117859523Y-64435003D01*
X117859523Y-64435003D02*
X117871428Y-64470717D01*
X117871428Y-64470717D02*
X118014285Y-64613574D01*
X118014285Y-64613574D02*
X117859523Y-64613574D01*
M02*
