M48
; DRILL file {KiCad 9.0.4} date 2026-04-06T16:20:28-0400
; FORMAT={-:-/ absolute / inch / decimal}
; #@! TF.CreationDate,2026-04-06T16:20:28-04:00
; #@! TF.GenerationSoftware,Kicad,Pcbnew,9.0.4
; #@! TF.FileFunction,Plated,1,4,PTH
FMAT,2
INCH
; #@! TA.AperFunction,Plated,PTH,ViaDrill
T1C0.0098
; #@! TA.AperFunction,Plated,PTH,ViaDrill
T2C0.0157
; #@! TA.AperFunction,Plated,PTH,ViaDrill
T3C0.0197
%
G90
G05
T1
X4.0453Y-2.6969
X4.0472Y-4.5866
X4.0512Y-5.248
X4.0945Y-2.3228
X4.0945Y-5.6693
X4.1004Y-3.3583
X4.1024Y-4.4193
X4.1024Y-4.9843
X4.1024Y-5.2579
X4.1043Y-3.2874
X4.1063Y-2.7953
X4.1102Y-5.5276
X4.122Y-3.2323
X4.126Y-4.6732
X4.1364Y-2.7131
X4.1378Y-3.1791
X4.1457Y-4.2165
X4.1535Y-4.5472
X4.1571Y-3.0883
X4.1732Y-4.3622
X4.185Y-2.4921
X4.187Y-4.1831
X4.1909Y-3.1634
X4.1929Y-2.7795
X4.2047Y-2.815
X4.2087Y-4.872
X4.2126Y-4.2795
X4.2126Y-5.7087
X4.2126Y-5.7874
X4.2205Y-4.6732
X4.2244Y-2.9429
X4.2245Y-3.0709
X4.228Y-4.9213
X4.2283Y-5.4921
X4.2441Y-3.1339
X4.252Y-2.7094
X4.2598Y-2.5551
X4.2598Y-3.1929
X4.2598Y-3.3189
X4.2638Y-4.5197
X4.2638Y-4.5669
X4.2656Y-4.9478
X4.2764Y-3.1398
X4.2913Y-2.2047
X4.2913Y-4.6732
X4.2953Y-4.8622
X4.3025Y-2.8009
X4.3031Y-2.7165
X4.3071Y-3.248
X4.311Y-4.2795
X4.315Y-3.5709
X4.315Y-4.4488
X4.3268Y-3.0433
X4.3287Y-4.6594
X4.3307Y-5.4921
X4.3366Y-3.5039
X4.3622Y-3.9921
X4.3622Y-4.2323
X4.363Y-5.8283
X4.3701Y-2.7475
X4.3701Y-3.4724
X4.3701Y-5.0039
X4.372Y-4.6594
X4.376Y-4.7421
X4.378Y-3.2638
X4.378Y-4.185
X4.3896Y-2.872
X4.3957Y-4.1496
X4.3976Y-2.626
X4.3976Y-4.1102
X4.4055Y-2.4528
X4.4055Y-3.3386
X4.4075Y-5.2921
X4.4134Y-4.2795
X4.4146Y-5.7138
X4.4213Y-2.9016
X4.435Y-5.187
X4.437Y-5.0394
X4.439Y-2.7461
X4.4409Y-2.9803
X4.4424Y-2.9257
X4.4528Y-4.0551
X4.4606Y-5.0079
X4.4646Y-3.0709
X4.4661Y-4.2023
X4.4685Y-3.1063
X4.4685Y-3.7008
X4.4724Y-4.7067
X4.476Y-4.5988
X4.4764Y-2.7421
X4.4764Y-4.6378
X4.4764Y-4.7835
X4.4764Y-5.0551
X4.4764Y-5.2795
X4.4833Y-3.1339
X4.4882Y-4.1299
X4.4882Y-4.1654
X4.4921Y-2.7106
X4.4921Y-2.8898
X4.5079Y-3.5827
X4.5083Y-3.6614
X4.5197Y-2.4921
X4.5197Y-3.063
X4.5197Y-3.1575
X4.5276Y-2.2047
X4.5276Y-2.5394
X4.5276Y-3.0138
X4.5276Y-3.2126
X4.5276Y-3.5236
X4.5276Y-4.8228
X4.5276Y-4.8524
X4.5276Y-4.8819
X4.5276Y-4.9114
X4.5276Y-4.9409
X4.5374Y-3.9626
X4.5433Y-3.4094
X4.5614Y-2.9075
X4.563Y-4.8228
X4.563Y-4.8524
X4.563Y-4.8819
X4.563Y-4.9114
X4.563Y-4.9409
X4.5669Y-3.1102
X4.5669Y-4.689
X4.5748Y-5.0138
X4.5846Y-2.9291
X4.5945Y-4.8228
X4.5945Y-4.8524
X4.5945Y-4.8819
X4.5945Y-4.9114
X4.5945Y-4.9409
X4.6142Y-3.063
X4.6142Y-3.1575
X4.622Y-3.4882
X4.626Y-4.8228
X4.626Y-4.8524
X4.626Y-4.8819
X4.626Y-4.9114
X4.626Y-4.9409
X4.6299Y-4.4606
X4.6406Y-3.9571
X4.6457Y-2.5965
X4.6476Y-3.1713
X4.6516Y-3.1033
X4.6614Y-4.1417
X4.6614Y-4.8228
X4.6614Y-4.8524
X4.6614Y-4.8819
X4.6614Y-4.9114
X4.6614Y-4.9409
X4.6634Y-3.0138
X4.6679Y-3.1333
X4.6693Y-5.1614
X4.6693Y-5.1929
X4.6772Y-2.8476
X4.6926Y-3.2638
X4.6929Y-2.7776
X4.7008Y-3.8346
X4.7028Y-2.8295
X4.7028Y-3.3583
X4.7087Y-4.7874
X4.7252Y-5.2941
X4.7283Y-3.2638
X4.7293Y-2.8496
X4.7323Y-3.7244
X4.7382Y-2.331
X4.7579Y-3.4035
X4.7677Y-2.7047
X4.7717Y-5.1181
X4.7776Y-4.0472
X4.7795Y-2.524
X4.7835Y-2.7972
X4.7953Y-2.8819
X4.811Y-3.563
X4.811Y-3.6142
X4.8189Y-3.6811
X4.8189Y-5.1594
X4.8228Y-4.689
X4.8248Y-4.9902
X4.8346Y-3.5433
X4.8346Y-3.5866
X4.837Y-5.8157
X4.8425Y-2.3307
X4.8465Y-2.9961
X4.8622Y-2.8189
X4.8622Y-3.0866
X4.8622Y-3.126
X4.8646Y-4.0142
X4.8661Y-3.6811
X4.8681Y-4.1181
X4.8681Y-5.1201
X4.8701Y-2.6772
X4.872Y-3.2421
X4.872Y-3.2835
X4.872Y-3.3228
X4.8819Y-3.5512
X4.8858Y-4.5748
X4.8917Y-3.6575
X4.8937Y-4.872
X4.898Y-4.9315
X4.9201Y-5.6
X4.9213Y-3.4016
X4.9346Y-5.5587
X4.9488Y-2.7126
X4.9488Y-2.9961
X4.9488Y-4.689
X4.9508Y-4.4193
X4.9524Y-4.937
X4.9606Y-3.5157
X4.9606Y-5.5906
X4.985Y-4.8724
X4.9858Y-5.4425
X5.0Y-2.6575
X5.0Y-5.5906
X5.0059Y-2.9587
X5.0118Y-4.0157
X5.0276Y-5.3406
X5.0394Y-3.4961
X5.0394Y-5.0157
X5.0472Y-3.2008
X5.0551Y-2.4528
X5.0551Y-3.5827
X5.0551Y-5.4508
X5.0787Y-3.0197
X5.0913Y-5.5866
X5.0945Y-2.3307
X5.1181Y-4.1378
X5.1299Y-2.9213
X5.1418Y-2.749
X5.1457Y-2.689
X5.15Y-5.4394
X5.1594Y-3.5295
X5.1654Y-5.5315
X5.1693Y-3.9331
X5.1969Y-2.2047
X5.2008Y-2.8071
X5.2106Y-4.0374
X5.2165Y-2.7795
X5.2205Y-2.3543
X5.2205Y-2.3858
X5.2205Y-3.3071
X5.2283Y-3.1102
X5.2283Y-3.2008
X5.2283Y-4.311
X5.2362Y-2.7548
X5.252Y-2.3543
X5.252Y-2.3858
X5.252Y-3.7835
X5.2559Y-5.2638
X5.2677Y-3.563
X5.2677Y-4.2047
X5.2717Y-2.7205
X5.2717Y-3.698
X5.2756Y-4.252
X5.2756Y-5.6496
X5.2835Y-2.3543
X5.2835Y-2.3858
X5.2933Y-2.4843
X5.2992Y-2.5827
X5.3061Y-4.0984
X5.3071Y-2.7283
X5.3075Y-5.8071
X5.3091Y-2.815
X5.315Y-3.9764
X5.315Y-4.7244
X5.3228Y-3.1102
X5.3228Y-3.2087
X5.3307Y-2.9961
X5.3366Y-2.3583
X5.3661Y-2.3583
X5.3736Y-3.6024
X5.3819Y-3.8622
X5.3819Y-3.8976
X5.3858Y-2.6654
X5.3917Y-5.4409
X5.4006Y-3.6375
X5.4055Y-2.752
X5.4134Y-2.8386
X5.4173Y-2.3937
X5.4173Y-2.9606
X5.4213Y-3.8622
X5.4213Y-3.8976
X5.4252Y-2.6644
X5.4291Y-3.2638
X5.4331Y-3.5866
X5.4596Y-3.7451
X5.4606Y-3.8622
X5.4606Y-3.8976
X5.4646Y-2.3543
X5.4646Y-3.3819
X5.4724Y-5.748
X5.4764Y-2.5591
X5.4843Y-4.3504
X5.4843Y-4.437
X5.4843Y-5.5669
X5.5079Y-3.4016
X5.5138Y-3.0748
X5.5157Y-5.5669
X5.5472Y-5.5669
X5.5512Y-2.7992
X5.5591Y-2.9724
X5.5669Y-3.2362
X5.5709Y-4.3504
X5.5709Y-4.437
X5.6024Y-3.8504
X5.6083Y-3.6969
X5.6181Y-2.9843
X5.6242Y-3.2283
X5.6299Y-2.5984
X5.6358Y-3.3839
X5.6371Y-5.6284
X5.6535Y-2.815
X5.6772Y-3.0315
T2
X4.5502Y-2.6841
X4.7151Y-2.5673
X5.1747Y-4.155
X5.3701Y-4.0197
T3
X4.5134Y-4.3642
X4.6134Y-4.2913
X4.7598Y-3.3622
X4.8425Y-5.2402
X4.8701Y-4.2638
X4.8819Y-4.1732
X4.9409Y-3.565
X5.0Y-5.3937
X5.0787Y-3.6614
X5.1181Y-4.7244
X5.1929Y-3.6272
X5.272Y-2.8465
X5.2913Y-3.7425
X5.2943Y-3.6248
X5.315Y-4.5276
X5.3228Y-5.0591
X5.3543Y-3.4882
X5.3996Y-3.7425
X5.5118Y-4.7244
M30
