M48
; DRILL file {KiCad 8.0.5} date 2024-10-23T16:55:13-0400
; FORMAT={-:-/ absolute / inch / decimal}
; #@! TF.CreationDate,2024-10-23T16:55:13-04:00
; #@! TF.GenerationSoftware,Kicad,Pcbnew,8.0.5
; #@! TF.FileFunction,Plated,1,4,PTH
FMAT,2
INCH
; #@! TA.AperFunction,Plated,PTH,ViaDrill
T1C0.0098
; #@! TA.AperFunction,Plated,PTH,ViaDrill
T2C0.0157
; #@! TA.AperFunction,Plated,PTH,ViaDrill
T3C0.0197
%
G90
G05
T1
X4.0512Y-4.7795
X4.0551Y-4.685
X4.0709Y-5.6378
X4.0892Y-2.4407
X4.126Y-2.5945
X4.1299Y-2.937
X4.1299Y-2.9724
X4.1339Y-2.5354
X4.1339Y-5.1161
X4.1339Y-5.2362
X4.1339Y-5.3543
X4.1378Y-2.6339
X4.1457Y-2.9016
X4.1457Y-3.0709
X4.1457Y-3.1024
X4.1457Y-3.1339
X4.1732Y-4.4882
X4.1732Y-4.5276
X4.1732Y-4.5669
X4.1732Y-5.4724
X4.1732Y-5.6299
X4.1772Y-2.6457
X4.1969Y-2.4409
X4.1969Y-2.5197
X4.1969Y-4.2717
X4.2008Y-3.1339
X4.2047Y-5.0472
X4.2087Y-3.1024
X4.2087Y-4.8425
X4.2087Y-4.872
X4.2087Y-4.9016
X4.2126Y-3.9606
X4.2126Y-4.4488
X4.2126Y-5.4528
X4.2165Y-3.6063
X4.2244Y-3.0512
X4.2244Y-5.4921
X4.2323Y-4.1339
X4.2323Y-4.2717
X4.2402Y-3.126
X4.248Y-3.1614
X4.252Y-2.4213
X4.252Y-2.5197
X4.252Y-4.4488
X4.252Y-4.4882
X4.252Y-5.7205
X4.2559Y-3.0512
X4.2598Y-3.189
X4.2677Y-2.6496
X4.2677Y-5.7992
X4.2783Y-3.1339
X4.2795Y-2.5512
X4.2835Y-2.6024
X4.2913Y-2.7165
X4.2913Y-2.7461
X4.2913Y-2.7756
X4.2913Y-4.2717
X4.2913Y-4.685
X4.2913Y-4.9567
X4.2913Y-5.0394
X4.2913Y-5.126
X4.2913Y-5.2362
X4.3012Y-5.6083
X4.3031Y-3.2756
X4.3071Y-2.4409
X4.3071Y-2.4803
X4.3071Y-3.4764
X4.3071Y-4.8622
X4.311Y-3.0197
X4.313Y-3.6634
X4.313Y-4.0571
X4.3268Y-5.4921
X4.3307Y-2.878
X4.3307Y-4.4488
X4.3346Y-4.2717
X4.3378Y-2.9224
X4.3406Y-2.5157
X4.3622Y-3.4252
X4.3622Y-4.189
X4.3701Y-3.9331
X4.3701Y-4.4882
X4.3701Y-4.7244
X4.374Y-5.0
X4.374Y-5.0354
X4.374Y-5.7047
X4.3917Y-3.0571
X4.3937Y-4.2717
X4.4016Y-2.9567
X4.4055Y-3.3386
X4.4075Y-4.2382
X4.4094Y-2.378
X4.4094Y-4.4488
X4.4094Y-4.685
X4.4134Y-4.1417
X4.4173Y-3.4055
X4.4213Y-4.0945
X4.4291Y-5.1811
X4.4331Y-3.7323
X4.437Y-2.748
X4.4409Y-3.9843
X4.4469Y-2.8839
X4.449Y-5.008
X4.4646Y-4.6102
X4.4665Y-2.7303
X4.4685Y-3.0394
X4.4685Y-3.0709
X4.4685Y-3.1063
X4.4724Y-4.7087
X4.4748Y-4.252
X4.4764Y-3.1732
X4.4764Y-4.7638
X4.4833Y-3.1339
X4.4833Y-4.992
X4.4882Y-2.5984
X4.4882Y-4.1339
X4.4882Y-5.2756
X4.4902Y-2.8819
X4.4921Y-3.6929
X4.4921Y-4.0945
X4.4961Y-3.9606
X4.5079Y-4.685
X4.5157Y-5.7146
X4.5276Y-2.4016
X4.5276Y-4.8228
X4.5276Y-4.8524
X4.5276Y-4.8819
X4.5276Y-4.9114
X4.5276Y-4.9409
X4.5276Y-5.2756
X4.5295Y-2.8819
X4.5433Y-3.4094
X4.5433Y-3.4409
X4.5591Y-5.2165
X4.5614Y-2.9075
X4.563Y-4.8228
X4.563Y-4.8524
X4.563Y-4.8819
X4.563Y-4.9114
X4.563Y-4.9409
X4.5669Y-2.4016
X4.5669Y-2.5157
X4.5669Y-4.685
X4.5709Y-3.0315
X4.5846Y-2.9291
X4.5945Y-4.8228
X4.5945Y-4.8524
X4.5945Y-4.8819
X4.5945Y-4.9114
X4.5945Y-4.9409
X4.5945Y-5.2244
X4.6063Y-2.4016
X4.6063Y-4.1339
X4.6142Y-3.4921
X4.6181Y-2.4409
X4.6181Y-2.4803
X4.626Y-4.8228
X4.626Y-4.8524
X4.626Y-4.8819
X4.626Y-4.9114
X4.626Y-4.9409
X4.6299Y-5.2165
X4.6378Y-4.4606
X4.6402Y-2.8272
X4.6417Y-5.1772
X4.6437Y-3.1417
X4.6437Y-5.3189
X4.644Y-4.0913
X4.6457Y-3.0354
X4.6457Y-3.7047
X4.6457Y-5.4409
X4.6535Y-3.8819
X4.6614Y-4.3307
X4.6614Y-4.3819
X4.6614Y-4.8228
X4.6614Y-4.8524
X4.6614Y-4.8819
X4.6614Y-4.9114
X4.6614Y-4.9409
X4.6614Y-5.7008
X4.6627Y-4.0346
X4.6654Y-4.5472
X4.6654Y-5.1969
X4.6673Y-3.0906
X4.6693Y-4.6063
X4.6729Y-3.1811
X4.6732Y-2.8587
X4.6752Y-3.3583
X4.7047Y-3.252
X4.7047Y-3.3622
X4.7087Y-4.7795
X4.7126Y-2.8031
X4.7126Y-2.8583
X4.7244Y-3.6457
X4.7283Y-3.7835
X4.7283Y-3.9724
X4.7441Y-4.7795
X4.748Y-2.5
X4.748Y-2.685
X4.7539Y-5.7047
X4.7657Y-5.6063
X4.7697Y-5.6457
X4.7756Y-2.4803
X4.7756Y-5.1181
X4.7756Y-5.1575
X4.7795Y-2.5197
X4.7913Y-2.874
X4.7952Y-5.0074
X4.8071Y-2.685
X4.811Y-5.1535
X4.815Y-4.6929
X4.815Y-4.7244
X4.815Y-4.7559
X4.8189Y-2.6496
X4.8189Y-3.5591
X4.8228Y-5.5472
X4.8268Y-3.6654
X4.8268Y-3.939
X4.8307Y-4.9961
X4.8346Y-3.5335
X4.8346Y-3.5866
X4.8425Y-2.9921
X4.8563Y-2.8463
X4.8563Y-5.7185
X4.8583Y-5.1693
X4.8622Y-5.1024
X4.8681Y-4.0984
X4.872Y-3.2421
X4.872Y-3.2835
X4.872Y-3.3228
X4.878Y-5.6181
X4.8799Y-2.6791
X4.8819Y-3.5512
X4.8917Y-3.6381
X4.8937Y-4.8484
X4.8937Y-4.878
X4.8957Y-4.9094
X4.8976Y-3.6024
X4.9016Y-3.2638
X4.9016Y-3.3071
X4.9016Y-4.2165
X4.9213Y-3.1102
X4.9213Y-5.4646
X4.9213Y-5.6024
X4.9252Y-5.5433
X4.9291Y-4.5522
X4.9331Y-2.6339
X4.9409Y-5.7362
X4.9606Y-2.9213
X4.9606Y-2.9606
X4.9606Y-2.9921
X4.9606Y-3.4016
X4.9606Y-3.5236
X4.9606Y-4.7441
X4.9646Y-4.6614
X4.9646Y-4.7008
X4.9764Y-5.5906
X5.0Y-3.2677
X5.0Y-4.5591
X5.0039Y-4.4646
X5.0118Y-3.8858
X5.0157Y-2.3248
X5.0157Y-5.6024
X5.0177Y-3.6339
X5.0197Y-2.5276
X5.0276Y-3.7638
X5.0394Y-2.874
X5.0394Y-2.9528
X5.0398Y-4.0551
X5.0442Y-5.4449
X5.0512Y-5.2717
X5.0531Y-5.7146
X5.0551Y-2.4094
X5.063Y-3.1732
X5.063Y-5.6024
X5.0772Y-3.533
X5.0787Y-3.3858
X5.0827Y-2.311
X5.1181Y-3.189
X5.126Y-5.4409
X5.1339Y-3.5276
X5.1339Y-4.4843
X5.1418Y-2.749
X5.1575Y-5.5906
X5.1693Y-3.9094
X5.1713Y-4.2539
X5.1732Y-3.7441
X5.1772Y-2.4134
X5.1772Y-2.4449
X5.1772Y-4.7283
X5.1791Y-3.5118
X5.1811Y-2.7835
X5.1969Y-2.5984
X5.1969Y-3.2677
X5.1969Y-5.7008
X5.2087Y-2.8031
X5.2087Y-3.5118
X5.2106Y-4.0374
X5.2165Y-2.5591
X5.2165Y-4.8386
X5.2205Y-2.3543
X5.2205Y-2.3858
X5.2205Y-4.315
X5.2362Y-2.7548
X5.2362Y-3.2677
X5.2362Y-3.3071
X5.2362Y-4.1929
X5.2402Y-3.5118
X5.2441Y-3.1732
X5.252Y-2.3543
X5.252Y-2.3858
X5.2559Y-4.9882
X5.2677Y-5.2244
X5.2677Y-5.2638
X5.2677Y-5.3031
X5.2756Y-2.7283
X5.2756Y-4.1476
X5.2835Y-2.3543
X5.2835Y-2.3858
X5.2835Y-4.2953
X5.2874Y-4.248
X5.2913Y-4.1929
X5.2953Y-3.9567
X5.2953Y-3.9961
X5.2953Y-4.0354
X5.3031Y-2.815
X5.3071Y-2.7283
X5.3071Y-4.1122
X5.311Y-3.0787
X5.315Y-2.874
X5.315Y-3.0118
X5.3228Y-5.622
X5.3346Y-3.5984
X5.3386Y-2.3858
X5.3386Y-2.815
X5.3465Y-2.5551
X5.3504Y-2.5197
X5.3543Y-2.4134
X5.3583Y-5.1772
X5.3583Y-5.3228
X5.3661Y-3.5866
X5.3701Y-2.3858
X5.372Y-4.1102
X5.3729Y-4.8766
X5.374Y-2.874
X5.378Y-2.9055
X5.378Y-2.937
X5.378Y-2.9685
X5.378Y-3.2559
X5.378Y-3.3071
X5.3858Y-3.8642
X5.3858Y-3.8976
X5.3888Y-3.6092
X5.3937Y-2.4803
X5.3976Y-2.4016
X5.4055Y-2.6575
X5.4055Y-2.752
X5.4055Y-2.8504
X5.4094Y-3.374
X5.4094Y-4.6693
X5.4213Y-3.8642
X5.4213Y-3.8976
X5.4331Y-2.4016
X5.4331Y-3.5866
X5.4331Y-4.4331
X5.437Y-2.8465
X5.437Y-5.748
X5.4409Y-4.315
X5.4409Y-4.3701
X5.4528Y-3.374
X5.4567Y-3.8642
X5.4567Y-3.8976
X5.46Y-3.7447
X5.4646Y-4.4646
X5.4724Y-3.0866
X5.4724Y-4.9449
X5.4764Y-2.5591
X5.4764Y-4.2598
X5.4803Y-2.8425
X5.4803Y-3.1299
X5.4843Y-5.5669
X5.4862Y-2.9665
X5.4961Y-4.3228
X5.5Y-2.7677
X5.5Y-4.8228
X5.5039Y-4.4803
X5.5079Y-2.878
X5.5079Y-2.9173
X5.5079Y-3.2559
X5.5118Y-4.2126
X5.5157Y-3.315
X5.5197Y-5.5669
X5.5276Y-4.1339
X5.5354Y-3.0984
X5.5394Y-3.185
X5.5433Y-2.6142
X5.5433Y-2.685
X5.5433Y-3.7677
X5.5472Y-3.0315
X5.5512Y-3.9252
X5.5512Y-3.9764
X5.5512Y-4.0551
X5.5512Y-4.2126
X5.5512Y-4.315
X5.5512Y-4.4803
X5.5512Y-5.5669
X5.5551Y-3.8425
X5.5571Y-2.9724
X5.5591Y-4.7283
X5.563Y-3.3937
X5.5748Y-2.8425
X5.5748Y-4.3386
X5.5787Y-3.2402
X5.5787Y-3.7165
X5.5827Y-4.4488
X5.5906Y-3.8425
X5.5906Y-4.063
X5.5906Y-4.0984
X5.5906Y-4.1339
X5.5906Y-4.1732
X5.5906Y-4.2126
X5.5945Y-2.9724
X5.5984Y-3.9764
X5.6009Y-3.392
X5.6102Y-2.8425
X5.6102Y-3.2402
X5.6142Y-3.7244
X5.6181Y-3.8701
X5.6299Y-2.6929
X5.6299Y-2.9724
X5.6371Y-5.6284
X5.6378Y-3.3937
X5.6457Y-2.8425
X5.6457Y-3.2441
T2
X4.2459Y-2.7616
X4.532Y-2.6841
X4.5669Y-2.5866
X5.1747Y-4.155
X5.3701Y-4.0197
T3
X4.5134Y-4.2126
X4.6134Y-4.2913
X4.7598Y-3.3622
X4.8425Y-5.2402
X4.8701Y-4.2638
X4.8819Y-4.1732
X5.0Y-5.3937
X5.002Y-3.5433
X5.0787Y-3.6614
X5.1929Y-3.6193
X5.272Y-2.8465
X5.2913Y-3.7425
X5.2943Y-3.6169
X5.3543Y-3.4646
X5.3996Y-3.7425
M30
